<?xml version="1.0" standalone="no"?><!DOCTYPE svg PUBLIC "-//W3C//DTD SVG 20010904//EN"
    "http://www.w3.org/TR/2001/REC-SVG-20010904/DTD/svg10.dtd">
<svg height="260.000000pt" preserveAspectRatio="xMidYMid meet" version="1.0" viewBox="0 0 260.000000 260.000000" width="260.000000pt"
    xmlns="http://www.w3.org/2000/svg">
    <metadata>
        Created by potrace 1.11, written by Peter Selinger 2001-2013
    </metadata>
    <g fill="#000000" stroke="none" transform="translate(0.000000,260.000000) scale(0.100000,-0.100000)">
        <path d="M92 1313 l3 -978 175 0 175 0 0 975 0 975 -178 3 -177 2 2 -977z" />
        <path d="M852 1313 l3 -978 464 -3 c300 -1 483 2 515 8 28 6 69 15 91 19 137
28 294 135 392 268 55 74 133 216 133 243 0 9 3 20 7 24 15 15 39 126 62 289
12 84 7 297 -8 377 -23 117 -44 186 -77 253 -8 16 -14 33 -14 38 0 10 -67 114
-92 144 -130 155 -266 238 -450 277 -34 7 -231 13 -541 15 l-487 3 2 -977z
m837 666 c96 -15 139 -29 204 -62 141 -73 244 -248 263 -447 21 -229 -6 -447
-73 -573 -8 -15 -21 -40 -29 -55 -23 -45 -104 -121 -153 -144 -79 -36 -84 -38
-166 -53 -56 -11 -147 -15 -307 -15 l-228 0 0 680 0 680 211 0 c117 0 241 -5
278 -11z" />
    </g>
</svg>
