<svg width="60" height="75" fill="none" xmlns="http://www.w3.org/2000/svg"><path d="M40.757 13.117H5.923A5.93 5.93 0 0 0 0 19.046V69.07A5.93 5.93 0 0 0 5.923 75h34.834a5.93 5.93 0 0 0 5.923-5.929V19.046c-.015-3.272-2.67-5.93-5.923-5.93zm1.765 55.939c0 .983-.798 1.782-1.78 1.782H5.908c-.982 0-1.78-.8-1.78-1.782v-50.01c0-.983.798-1.782 1.78-1.782h34.834c.982 0 1.78.799 1.78 1.782v50.01z" fill="#000"/><path d="M54.077 0H19.243a5.93 5.93 0 0 0-5.923 5.929c0 1.152.92 2.073 2.071 2.073a2.064 2.064 0 0 0 2.072-2.073c0-.983.798-1.782 1.78-1.782h34.834c.982 0 1.78.799 1.78 1.782v50.025c0 .983-.798 1.782-1.78 1.782a2.065 2.065 0 0 0-2.072 2.074c0 1.151.92 2.073 2.072 2.073A5.93 5.93 0 0 0 60 55.954V5.93A5.93 5.93 0 0 0 54.077 0z" fill="#000"/></svg>