<svg width="43" height="50" fill="none" xmlns="http://www.w3.org/2000/svg"><path d="M9.214 0c-1.69 0-3.071 1.406-3.071 3.125v43.75C6.143 48.594 7.525 50 9.214 50h30.714C41.618 50 43 48.594 43 46.875V12.5L30.714 0h-21.5z" fill="#E2E5E7"/><path d="M33.785 12.5H43L30.714 0v9.375c0 1.719 1.382 3.125 3.072 3.125z" fill="#B0B7BD"/><path d="M43 21.875L33.786 12.5H43v9.375z" fill="#CAD1D8"/><path d="M36.857 40.625c0 .86-.69 1.563-1.536 1.563H1.536C.69 42.188 0 41.483 0 40.624V25c0-.86.691-1.563 1.536-1.563H35.32c.845 0 1.536.704 1.536 1.563v15.625z" fill="#F15642"/><path d="M6.694 29.605c0-.413.32-.863.834-.863h2.837c1.597 0 3.034 1.088 3.034 3.172 0 1.975-1.437 3.075-3.034 3.075h-2.05v1.65c0 .55-.344.861-.787.861a.834.834 0 0 1-.834-.86v-7.035zm1.62.71v3.113h2.05c.824 0 1.475-.739 1.475-1.514 0-.873-.651-1.598-1.474-1.598h-2.05zm7.49 7.185c-.405 0-.848-.225-.848-.773V29.63c0-.449.443-.775.848-.775h2.812c5.611 0 5.489 8.645.11 8.645h-2.922zm.774-7.12v5.597h2.038c3.316 0 3.463-5.597 0-5.597h-2.038zm9.517.1v1.986h3.131c.443 0 .885.45.885.886 0 .412-.442.75-.885.75h-3.131v2.623c0 .438-.306.773-.736.773-.54 0-.87-.335-.87-.773v-7.097c0-.448.331-.775.87-.775h4.311c.54 0 .86.327.86.775 0 .4-.32.85-.86.85h-3.575v.002z" fill="#fff"/><path d="M35.321 42.188H6.143v1.562H35.32c.845 0 1.536-.703 1.536-1.563v-1.562c0 .86-.691 1.563-1.536 1.563z" fill="#CAD1D8"/></svg>