<svg width="272" height="272" viewBox="0 0 272 272" fill="none" xmlns="http://www.w3.org/2000/svg">
<g opacity="0.5">
<path opacity="0.2" d="M103.741 15.4647C124.881 9.80017 147.14 9.80017 168.281 15.4647C189.421 21.1293 208.698 32.2588 224.174 47.7346C239.65 63.2105 250.779 82.4873 256.444 103.628C262.108 124.768 262.108 147.027 256.444 168.168C250.779 189.308 239.65 208.585 224.174 224.061C208.698 239.536 189.421 250.666 168.281 256.331C147.14 261.995 124.881 261.995 103.741 256.331C82.6006 250.666 63.3237 239.536 47.8479 224.061C32.3721 208.585 21.2425 189.308 15.578 168.168C9.91345 147.027 9.91345 124.768 15.578 103.628C21.2425 82.4873 32.3721 63.2105 47.8479 47.7346C63.3237 32.2588 82.6006 21.1293 103.741 15.4647Z" fill="#4396F7" fill-opacity="0.6" stroke="#4396F7" stroke-width="2.15759"/>
<path opacity="0.2" d="M111.491 44.3872C127.554 40.083 144.467 40.083 160.531 44.3872C176.594 48.6914 191.242 57.1481 203.001 68.9073C214.76 80.6665 223.217 95.314 227.521 111.377C231.825 127.441 231.825 144.354 227.521 160.418C223.217 176.481 214.76 191.128 203.001 202.888C191.242 214.647 176.594 223.104 160.531 227.408C144.467 231.712 127.554 231.712 111.491 227.408C95.4272 223.104 80.7798 214.647 69.0206 202.888C57.2613 191.128 48.8047 176.481 44.5005 160.418C40.1963 144.354 40.1963 127.441 44.5005 111.377C48.8047 95.314 57.2613 80.6665 69.0206 68.9073C80.7798 57.1481 95.4272 48.6914 111.491 44.3872Z" fill="#4396F7" fill-opacity="0.6" stroke="#4396F7" stroke-width="2.15759"/>
<path opacity="0.2" d="M119.243 73.3087C130.229 70.3649 141.797 70.3649 152.783 73.3087C163.77 76.2525 173.788 82.0364 181.83 90.079C189.873 98.1216 195.657 108.14 198.601 119.126C201.544 130.113 201.544 141.68 198.601 152.667C195.657 163.653 189.873 173.671 181.83 181.714C173.788 189.756 163.77 195.54 152.783 198.484C141.797 201.428 130.229 201.428 119.243 198.484C108.256 195.54 98.2381 189.756 90.1955 181.714C82.1528 173.671 76.3689 163.653 73.4251 152.667C70.4813 141.68 70.4813 130.112 73.4251 119.126C76.3689 108.14 82.1528 98.1216 90.1955 90.079C98.2381 82.0364 108.256 76.2525 119.243 73.3087Z" fill="#4396F7" fill-opacity="0.6" stroke="#4396F7" stroke-width="2.15759"/>
<path opacity="0.5" d="M127.767 105.123C133.169 103.676 138.857 103.676 144.258 105.123C149.66 106.571 154.586 109.415 158.54 113.369C162.494 117.323 165.338 122.249 166.786 127.651C168.233 133.053 168.233 138.74 166.786 144.142C165.338 149.544 162.494 154.469 158.54 158.424C154.586 162.378 149.66 165.222 144.258 166.669C138.857 168.117 133.169 168.117 127.767 166.669C122.365 165.222 117.44 162.378 113.485 158.424C109.531 154.469 106.687 149.544 105.24 144.142C103.792 138.74 103.792 133.053 105.24 127.651C106.687 122.249 109.531 117.323 113.485 113.369C117.44 109.415 122.365 106.571 127.767 105.123Z" fill="#4396F7" fill-opacity="0.6" stroke="#4396F7" stroke-width="2.15759"/>
<path opacity="0.1" d="M111.398 44.0398C127.522 39.7193 144.5 39.7193 160.624 44.0398C176.748 48.3604 191.451 56.8492 203.255 68.653C215.059 80.4569 223.548 95.1599 227.868 111.284C232.189 127.409 232.189 144.386 227.868 160.511C223.548 176.635 215.059 191.338 203.255 203.142C191.451 214.946 176.748 223.435 160.624 227.755C144.5 232.076 127.522 232.076 111.398 227.755C95.2732 223.435 80.5702 214.946 68.7663 203.142C56.9624 191.338 48.4736 176.635 44.1531 160.511C39.8326 144.386 39.8326 127.409 44.1531 111.284C48.4736 95.1599 56.9624 80.4569 68.7663 68.653C80.5702 56.8492 95.2732 48.3604 111.398 44.0398Z" stroke="#4396F7" stroke-width="1.4384"/>
<path d="M119.056 72.614C130.165 69.6375 141.861 69.6375 152.969 72.614C164.078 75.5905 174.207 81.4386 182.339 89.5705C190.471 97.7024 196.319 107.832 199.295 118.94C202.272 130.048 202.272 141.744 199.295 152.853C196.319 163.961 190.471 174.09 182.339 182.222C174.207 190.354 164.078 196.202 152.969 199.179C141.861 202.155 130.165 202.155 119.056 199.179C107.948 196.202 97.8188 190.354 89.6869 182.222C81.555 174.09 75.7069 163.961 72.7305 152.853C69.754 141.744 69.754 130.048 72.7305 118.94C75.7069 107.832 81.555 97.7024 89.6869 89.5705C97.8188 81.4386 107.948 75.5905 119.056 72.614Z" stroke="#4396F7" stroke-width="0.719198"/>
<path d="M127.534 104.254C133.089 102.766 138.937 102.766 144.491 104.254C150.045 105.742 155.11 108.666 159.176 112.732C163.242 116.798 166.166 121.863 167.654 127.417C169.142 132.971 169.142 138.819 167.654 144.373C166.166 149.928 163.242 154.992 159.176 159.058C155.11 163.124 150.045 166.048 144.491 167.536C138.937 169.025 133.089 169.025 127.534 167.536C121.98 166.048 116.916 163.124 112.85 159.058C108.784 154.992 105.86 149.928 104.371 144.373C102.883 138.819 102.883 132.971 104.371 127.417C105.86 121.863 108.784 116.798 112.85 112.732C116.916 108.666 121.98 105.742 127.534 104.254Z" stroke="#4396F7" stroke-width="0.359599"/>
<path opacity="0.5" d="M135.892 136.264L68.4517 19.425" stroke="#4396F7" stroke-width="0.719198"/>
<path opacity="0.5" d="M135.864 135.905L135.878 1" stroke="#4396F7" stroke-width="0.719198"/>
<path opacity="0.5" d="M135.871 136.249L203.336 19.425" stroke="#4396F7" stroke-width="0.719198"/>
<path opacity="0.5" d="M135.87 135.893L252.709 68.4526" stroke="#4396F7" stroke-width="0.719198"/>
<path opacity="0.5" d="M136.23 135.862L271.136 135.876" stroke="#4396F7" stroke-width="0.719198"/>
<path opacity="0.5" d="M135.884 135.869L252.709 203.334" stroke="#4396F7" stroke-width="0.719198"/>
<path opacity="0.5" d="M136.244 135.712L203.684 252.551" stroke="#4396F7" stroke-width="0.719198"/>
<path opacity="0.5" d="M136.274 136.073L136.26 270.978" stroke="#4396F7" stroke-width="0.719198"/>
<path opacity="0.5" d="M136.265 135.727L68.7998 252.551" stroke="#4396F7" stroke-width="0.719198"/>
<path opacity="0.5" d="M136.266 136.084L19.4272 203.525" stroke="#4396F7" stroke-width="0.719198"/>
<path opacity="0.5" d="M135.905 136.114L1 136.1" stroke="#4396F7" stroke-width="0.719198"/>
<path opacity="0.5" d="M136.252 136.108L19.4272 68.6433" stroke="#4396F7" stroke-width="0.719198"/>
<path d="M135.437 133.754C135.813 133.653 136.209 133.653 136.585 133.754C136.961 133.855 137.304 134.053 137.58 134.328C137.855 134.603 138.053 134.946 138.154 135.322C138.255 135.699 138.255 136.095 138.154 136.471C138.053 136.847 137.855 137.19 137.58 137.465C137.304 137.741 136.961 137.939 136.585 138.039C136.209 138.14 135.813 138.14 135.437 138.039C135.061 137.939 134.718 137.741 134.442 137.465C134.167 137.19 133.969 136.847 133.868 136.471C133.767 136.095 133.767 135.699 133.868 135.322C133.969 134.946 134.167 134.603 134.442 134.328C134.718 134.053 135.061 133.855 135.437 133.754Z" fill="#0284D2"/>
<circle cx="102.012" cy="16.9838" r="10.9624" fill="white" stroke="#4396F7" stroke-width="1.4384"/>
<circle cx="168.281" cy="16.9838" r="10.9624" fill="white" stroke="#4396F7" stroke-width="1.4384"/>
<circle cx="222.241" cy="45.4613" r="10.9624" fill="white" stroke="#4396F7" stroke-width="1.4384"/>
<circle cx="256.536" cy="103.977" r="10.9624" fill="white" stroke="#4396F7" stroke-width="1.4384"/>
<circle cx="256.536" cy="168.654" r="10.9624" fill="white" stroke="#4396F7" stroke-width="1.4384"/>
<circle cx="224.813" cy="224.924" r="10.9624" fill="white" stroke="#4396F7" stroke-width="1.4384"/>
<circle cx="168.281" cy="259.169" r="10.9624" fill="white" stroke="#4396F7" stroke-width="1.4384"/>
<circle cx="105.769" cy="259.169" r="10.9624" fill="white" stroke="#4396F7" stroke-width="1.4384"/>
<circle cx="46.4074" cy="224.924" r="10.9624" fill="white" stroke="#4396F7" stroke-width="1.4384"/>
<circle cx="14.1408" cy="170.064" r="10.9624" fill="white" stroke="#4396F7" stroke-width="1.4384"/>
<circle cx="15.6864" cy="103.977" r="10.9624" fill="white" stroke="#4396F7" stroke-width="1.4384"/>
<circle cx="46.028" cy="51.2897" r="10.9624" fill="white" stroke="#4396F7" stroke-width="1.4384"/>
<path d="M137.811 150.328H137.063C136.844 151.559 135.832 151.858 134.715 151.858V152.641H136.833V158.487H137.811V150.328Z" fill="black"/>
<path d="M135.199 185.411C135.164 184.433 135.648 183.385 136.787 183.385C137.65 183.385 138.363 183.972 138.363 184.858C138.363 185.986 137.661 186.492 136.28 187.344C135.13 188.057 134.152 188.748 133.991 190.681H139.318V189.818H135.13C135.325 188.805 136.396 188.288 137.42 187.666C138.432 187.033 139.399 186.308 139.399 184.87C139.399 183.351 138.271 182.522 136.844 182.522C135.118 182.522 134.14 183.754 134.221 185.411H135.199Z" fill="black"/>
<path d="M136.223 218.633C136.407 218.61 136.614 218.599 136.81 218.599C137.776 218.599 138.547 219.14 138.547 220.164C138.547 221.154 137.73 221.74 136.775 221.74C135.659 221.74 135.072 221.004 135.038 219.945H134.06C134.025 221.625 135.118 222.603 136.775 222.603C138.306 222.603 139.583 221.752 139.583 220.118C139.583 219.14 139.1 218.357 138.11 218.139V218.116C138.731 217.828 139.238 217.207 139.238 216.493C139.238 214.986 138.168 214.307 136.752 214.307C135.118 214.307 134.29 215.388 134.232 216.942H135.21C135.222 215.987 135.682 215.17 136.752 215.17C137.581 215.17 138.202 215.63 138.202 216.482C138.202 217.368 137.477 217.816 136.649 217.816C136.511 217.816 136.373 217.816 136.223 217.805V218.633Z" fill="black"/>
<path d="M138.536 244.312H137.753L134.037 249.617V250.561H137.615V252.471H138.536V250.561H139.641V249.698H138.536V244.312ZM134.877 249.698L137.592 245.705H137.615V249.698H134.877Z" fill="black"/>
<path d="M166.807 15.4812C166.773 14.5031 167.256 13.4559 168.395 13.4559C169.258 13.4559 169.972 14.0428 169.972 14.9288C169.972 16.0565 169.27 16.5629 167.889 17.4144C166.738 18.1278 165.76 18.8183 165.599 20.7515H170.927V19.8884H166.738C166.934 18.8758 168.004 18.358 169.028 17.7366C170.041 17.1037 171.007 16.3787 171.007 14.9403C171.007 13.4214 169.88 12.5929 168.453 12.5929C166.727 12.5929 165.749 13.8242 165.829 15.4812H166.807Z" fill="black"/>
<path d="M103.073 12.5929H102.325C102.106 13.8242 101.094 14.1233 99.9773 14.1233V14.9058H102.095V20.7515H103.073V12.5929Z" fill="black"/>
<path d="M221.553 45.7763C221.737 45.7533 221.944 45.7417 222.14 45.7417C223.106 45.7417 223.877 46.2826 223.877 47.3067C223.877 48.2963 223.06 48.8832 222.105 48.8832C220.989 48.8832 220.402 48.1467 220.368 47.0881H219.39C219.355 48.7681 220.448 49.7462 222.105 49.7462C223.636 49.7462 224.913 48.8947 224.913 47.2607C224.913 46.2826 224.43 45.5001 223.44 45.2815V45.2584C224.061 44.9708 224.568 44.3494 224.568 43.6359C224.568 42.1285 223.498 41.4496 222.082 41.4496C220.448 41.4496 219.62 42.5312 219.562 44.0847H220.54C220.552 43.1296 221.012 42.3126 222.082 42.3126C222.911 42.3126 223.532 42.7729 223.532 43.6244C223.532 44.5105 222.807 44.9593 221.979 44.9593C221.841 44.9593 221.702 44.9593 221.553 44.9478V45.7763Z" fill="black"/>
<path d="M43.3801 46.2115H42.6321C42.4135 47.4428 41.4009 47.742 40.2847 47.742V48.5245H42.402V54.3701H43.3801V46.2115ZM47.1621 49.0998C47.1276 48.1217 47.6109 47.0746 48.7501 47.0746C49.6131 47.0746 50.3266 47.6614 50.3266 48.5475C50.3266 49.6752 49.6246 50.1815 48.2438 51.033C47.0931 51.7465 46.1149 52.4369 45.9538 54.3701H51.2817V53.5071H47.0931C47.2887 52.4944 48.3588 51.9766 49.383 51.3552C50.3956 50.7223 51.3622 49.9974 51.3622 48.559C51.3622 47.0401 50.2345 46.2115 48.8076 46.2115C47.0815 46.2115 46.1034 47.4428 46.184 49.0998H47.1621Z" fill="black"/>
<path d="M258.16 99.5216H257.378L253.661 104.826V105.77H257.24V107.68H258.16V105.77H259.265V104.907H258.16V99.5216ZM254.501 104.907L257.217 100.914H257.24V104.907H254.501Z" fill="black"/>
<path d="M258.747 163.873H254.72L253.96 168.107L254.8 168.153C255.18 167.693 255.698 167.382 256.319 167.382C257.412 167.382 258.16 168.153 258.16 169.235C258.16 170.535 257.366 171.168 256.434 171.168C255.456 171.168 254.777 170.535 254.72 169.695H253.742C253.776 171.168 254.927 172.031 256.342 172.031C258.241 172.031 259.196 170.696 259.196 169.315C259.196 167.451 258.011 166.519 256.561 166.519C256.008 166.519 255.399 166.703 255.042 167.106L255.019 167.083L255.456 164.736H258.747V163.873Z" fill="black"/>
<path d="M11.8432 164.464H11.0953C10.8766 165.695 9.86401 165.994 8.74781 165.994V166.777H10.8651V172.623H11.8432V164.464ZM14.6241 168.618C14.6241 170.413 14.7852 172.761 17.3398 172.761C19.8944 172.761 20.0555 170.413 20.0555 168.618C20.0555 166.811 19.8944 164.464 17.3398 164.464C14.7852 164.464 14.6241 166.811 14.6241 168.618ZM15.6598 168.607C15.6598 167.398 15.6713 165.327 17.3398 165.327C19.0083 165.327 19.0198 167.398 19.0198 168.607C19.0198 169.826 19.0083 171.898 17.3398 171.898C15.6713 171.898 15.6598 169.826 15.6598 168.607Z" fill="black"/>
<path d="M13.3022 99.058H12.5543C12.3356 100.289 11.323 100.588 10.2068 100.588V101.371H12.3241V107.217H13.3022V99.058ZM19.6963 99.058H18.9484C18.7297 100.289 17.7171 100.588 16.6009 100.588V101.371H18.7182V107.217H19.6963V99.058Z" fill="black"/>
<path d="M224.907 223.771C226.024 223.771 226.553 224.611 226.553 225.624C226.553 226.591 225.966 227.431 224.907 227.431C223.837 227.431 223.216 226.625 223.216 225.612C223.216 224.588 223.814 223.771 224.907 223.771ZM227.358 222.08C227.243 220.756 226.403 219.997 225.057 219.997C222.733 219.997 222.054 222.126 222.054 224.37C222.054 226.084 222.445 228.294 224.861 228.294C226.921 228.294 227.589 226.74 227.589 225.555C227.589 224.047 226.656 222.908 225.092 222.908C224.205 222.908 223.515 223.23 223.055 223.978L223.032 223.955C223.078 222.701 223.342 220.86 225.011 220.86C225.782 220.86 226.288 221.343 226.38 222.08H227.358Z" fill="black"/>
<path d="M47.9168 222.724C47.9168 223.691 47.2724 224.519 46.2482 224.519C45.3047 224.519 44.6372 223.691 44.6372 222.793C44.6372 221.792 45.0745 220.86 46.2367 220.86C47.3299 220.86 47.9168 221.723 47.9168 222.724ZM43.7742 226.188C43.9008 227.592 44.8789 228.294 46.2482 228.294C48.2275 228.294 49.079 226.717 49.079 223.898C49.079 220.814 47.8017 219.997 46.2828 219.997C44.7063 219.997 43.6016 221.079 43.6016 222.655C43.6016 224.266 44.5222 225.382 46.1792 225.382C46.9732 225.382 47.6981 224.945 48.0664 224.255L48.0894 224.278C48.0318 226.383 47.445 227.431 46.2482 227.431C45.4658 227.431 44.8214 226.982 44.7523 226.188H43.7742Z" fill="black"/>
<path d="M171.18 254.531H165.898V255.451H170.179C168.464 257.269 167.141 259.789 166.957 262.551H168.05C168.2 259.996 169.535 257.005 171.18 255.371V254.531Z" fill="black"/>
<path d="M104.029 260.25C104.029 259.306 104.789 258.685 105.755 258.685C106.676 258.685 107.435 259.352 107.435 260.238C107.435 261.147 106.745 261.826 105.767 261.826C104.754 261.826 104.029 261.228 104.029 260.25ZM103.281 256.475C103.281 257.212 103.742 257.891 104.421 258.167C103.511 258.489 102.994 259.237 102.994 260.204C102.994 261.872 104.202 262.689 105.767 262.689C107.274 262.689 108.471 261.78 108.471 260.204C108.471 259.191 107.999 258.477 107.021 258.167C107.689 257.868 108.149 257.2 108.149 256.475C108.149 255.44 107.458 254.392 105.675 254.392C104.421 254.392 103.281 255.129 103.281 256.475ZM104.317 256.51C104.317 255.693 104.961 255.255 105.744 255.255C106.538 255.255 107.113 255.693 107.113 256.51C107.113 257.338 106.538 257.822 105.767 257.822C104.961 257.822 104.317 257.407 104.317 256.51Z" fill="black"/>
</g>
<path d="M136.26 135.965L108.049 119.414C108.049 119.414 110.42 115.336 112.424 113.105C114.766 110.497 119.334 107.377 119.334 107.377L127.511 103.992L136.26 102.862L144.905 103.992L152.812 107.377L136.26 135.965L164.376 119.414C164.376 119.414 167.077 124.313 167.938 127.744C168.722 130.874 168.774 135.965 168.774 135.965C168.774 135.965 168.943 141.613 167.938 145.019C167.049 148.027 164.376 152.219 164.376 152.219L136.26 135.965L152.812 164.239C152.812 164.239 148.142 166.704 144.905 167.571C141.62 168.451 136.26 168.637 136.26 168.637V135.965Z" fill="#4396F7"/>
</svg>
