<svg width="205" height="205" viewBox="0 0 205 205" fill="none" xmlns="http://www.w3.org/2000/svg">
<g style="mix-blend-mode:darken" opacity="0.3">
<path fill-rule="evenodd" clip-rule="evenodd" d="M103.146 0.90949L103.116 7.77808C111.292 7.82497 119.462 8.93252 127.419 11.0999C135.359 13.2628 142.947 16.4433 150.005 20.5373L153.325 14.8421L153.757 15.0939L150.436 20.7893C157.444 24.9037 163.921 29.9219 169.692 35.741C175.464 41.561 180.429 48.0809 184.485 55.1232L190.375 51.7558L190.623 52.1899L184.733 55.5571C188.768 62.6477 191.884 70.261 193.981 78.2175C196.072 86.153 197.112 94.2917 197.101 102.428L204.141 102.458L204.139 102.958L197.099 102.928C197.045 111.076 195.938 119.218 193.778 127.148C191.616 135.084 188.437 142.669 184.346 149.723L190.204 153.139L189.952 153.571L184.094 150.155C179.979 157.166 174.959 163.647 169.137 169.421C163.356 175.154 156.885 180.091 149.897 184.132L153.292 190.071L152.858 190.32L149.463 184.381C142.332 188.455 134.67 191.599 126.66 193.71C118.78 195.787 110.699 196.826 102.619 196.83L102.589 203.837L102.089 203.835L102.119 196.829C93.9141 196.789 85.7143 195.682 77.7299 193.507C69.8356 191.356 62.2889 188.2 55.2657 184.14L51.9075 189.9L51.4756 189.648L54.8335 183.888C47.7798 179.761 41.261 174.718 35.4567 168.866C29.7228 163.084 24.7853 156.611 20.7438 149.622L14.8586 152.987L14.6104 152.553L20.4946 149.189C16.4218 142.059 13.2778 134.398 11.1675 126.389C9.08804 118.497 8.04829 110.405 8.04746 102.313L1.0928 102.283L1.09493 101.783L8.04873 101.813C8.09123 93.6199 9.19887 85.4321 11.3708 77.459C13.526 69.5473 16.6915 61.9849 20.7644 54.9486L15.0295 51.6049L15.2813 51.1729L21.0161 54.5165C25.1386 47.4805 30.1719 40.9774 36.0119 35.1857C41.794 29.4515 48.2669 24.5137 55.2566 20.4721L51.9403 14.6712L52.3744 14.423L55.6901 20.2229C62.8199 16.1504 70.4803 13.0068 78.4884 10.8966C86.397 8.81267 94.5074 7.77292 102.616 7.77654L102.646 0.90736L103.146 0.90949ZM11.8532 77.5904C13.9968 69.7211 17.1454 62.1992 21.1964 55.2004L40.2072 66.2846C37.1212 71.6282 34.7214 77.369 33.0857 83.3739C31.4327 89.442 30.5888 95.6734 30.5547 101.909L8.54873 101.815C8.59104 93.6656 9.69282 85.5211 11.8532 77.5904ZM33.5681 83.5053C35.1923 77.5428 37.575 71.8424 40.6392 66.5364L59.6508 77.6211C57.5517 81.2717 55.9179 85.1908 54.8016 89.2888C53.6675 93.4519 53.0874 97.7268 53.0617 102.005L31.0547 101.911C31.0886 95.719 31.9266 89.5311 33.5681 83.5053ZM40.8907 66.1043L59.9022 77.1889C62.0526 73.535 64.6726 70.1568 67.7088 67.1457C70.6844 64.1947 74.0093 61.6464 77.597 59.5503L66.6748 40.4449C61.4238 43.4923 56.5598 47.2089 52.212 51.5207C47.8051 55.8912 44.0053 60.797 40.8907 66.1043ZM55.284 89.4202C56.3888 85.3646 58.0056 81.486 60.0828 77.8729L81.0389 90.0913C80.0252 91.8793 79.2338 93.7943 78.6889 95.7944C78.1891 97.6292 77.9045 99.5074 77.8353 101.392C77.8265 101.631 77.8211 101.871 77.8193 102.11L53.5617 102.007C53.5872 97.7724 54.1615 93.541 55.284 89.4202ZM60.3342 77.4408L81.2899 89.6589C82.3555 87.8647 83.6482 86.2049 85.1426 84.7228C86.5744 83.3028 88.168 82.0693 89.8848 81.0444L77.8452 59.9844C74.2953 62.0589 71.0053 64.5806 68.0609 67.5007C65.0558 70.4809 62.4627 73.8244 60.3342 77.4408ZM79.1714 95.9269C79.7047 93.9688 80.4793 92.0941 81.4713 90.3434L101.007 101.734C100.992 101.776 100.978 101.82 100.966 101.864C100.935 101.977 100.916 102.093 100.91 102.209L78.3193 102.112C78.3211 101.878 78.3263 101.644 78.3349 101.41C78.4029 99.5642 78.6817 97.7242 79.1714 95.9269ZM100.958 102.709L78.3205 102.612C78.3241 102.895 78.3327 103.177 78.3462 103.46C78.4269 105.149 78.6846 106.833 79.1192 108.482C79.6587 110.53 80.4615 112.489 81.501 114.312L101.111 103.101C101.047 102.984 100.997 102.858 100.962 102.727C100.961 102.721 100.959 102.715 100.958 102.709ZM101.417 103.502L81.7531 114.744C82.7563 116.423 83.9632 117.982 85.3522 119.382C86.8153 120.858 88.4554 122.132 90.2287 123.181L101.609 103.662C101.542 103.614 101.478 103.56 101.417 103.502ZM102.057 103.887L90.6617 123.431C92.3994 124.411 94.2588 125.177 96.2001 125.705C98.2359 126.26 100.326 126.544 102.418 126.558L102.514 103.968C102.387 103.964 102.26 103.945 102.136 103.911C102.11 103.903 102.083 103.895 102.057 103.887ZM103.015 103.91L102.918 126.556C104.881 126.528 106.842 126.262 108.756 125.758C110.804 125.218 112.763 124.415 114.587 123.375L103.376 103.764C103.262 103.827 103.141 103.876 103.015 103.91ZM103.777 103.458L115.019 123.123C116.698 122.12 118.256 120.913 119.656 119.525C121.101 118.093 122.352 116.491 123.388 114.761L103.854 103.371C103.829 103.401 103.803 103.43 103.777 103.458ZM104.113 102.944L123.641 114.329C124.651 112.559 125.439 110.661 125.98 108.677C126.519 106.696 126.803 104.664 126.83 102.629L104.226 102.533C104.216 102.602 104.202 102.672 104.183 102.74C104.164 102.81 104.141 102.878 104.113 102.944ZM104.22 102.033L126.832 102.129C126.825 101.165 126.761 100.201 126.639 99.2428C126.542 98.4805 126.409 97.7217 126.239 96.9689C126.175 96.6856 126.106 96.403 126.032 96.1215C125.506 94.1265 124.731 92.2157 123.73 90.4318L104.109 101.649C104.14 101.723 104.166 101.799 104.187 101.877C104.201 101.928 104.212 101.98 104.22 102.033ZM103.846 101.223L123.481 89.9983C122.461 88.2664 121.226 86.6605 119.799 85.2214C118.369 83.7794 116.77 82.5291 115.043 81.4942L103.653 101.03C103.689 101.061 103.725 101.094 103.759 101.128C103.789 101.159 103.818 101.19 103.846 101.223ZM103.227 100.767L114.611 81.2417C112.839 80.2287 110.938 79.4392 108.951 78.898C106.943 78.3509 104.881 78.067 102.817 78.0464L102.721 100.641C102.819 100.65 102.917 100.667 103.013 100.693C103.086 100.713 103.158 100.738 103.227 100.767ZM102.221 100.673L102.317 78.0466C100.326 78.0678 98.3367 78.3342 96.3948 78.8459C94.3476 79.3853 92.389 80.188 90.5653 81.2273L101.776 100.838C101.894 100.774 102.019 100.724 102.15 100.69C102.173 100.683 102.197 100.678 102.221 100.673ZM101.375 101.144L90.1335 81.4793C88.4543 82.4826 86.8955 83.6897 85.4947 85.0789C84.0316 86.5298 82.7659 88.1547 81.7223 89.911L101.246 101.294C101.286 101.242 101.329 101.191 101.375 101.144ZM21.448 54.7684L40.4588 65.8525C43.5952 60.5076 47.4218 55.567 51.8599 51.1657C56.2388 46.823 61.1378 43.0799 66.4266 40.0108L55.5047 20.9062C48.5529 24.9262 42.1149 29.8374 36.364 35.5408C30.5552 41.3015 25.5487 47.7699 21.448 54.7684ZM8.54746 102.315C8.54847 110.363 9.58272 118.412 11.651 126.262C13.7501 134.228 16.8774 141.848 20.9287 148.941L40.0335 138.019C36.9321 132.588 34.538 126.753 32.9308 120.654C31.3549 114.673 30.5627 108.541 30.5537 102.409L8.54746 102.315ZM31.0537 102.411C31.0629 108.5 31.8496 114.588 33.4143 120.527C35.0104 126.584 37.3878 132.378 40.4676 137.771L59.5731 126.848C57.4434 123.117 55.7992 119.109 54.6951 114.919C53.6227 110.849 53.0782 106.678 53.0612 102.505L31.0537 102.411ZM53.5612 102.507C53.5784 106.636 54.1174 110.764 55.1786 114.792C56.2715 118.939 57.8991 122.907 60.0072 126.6L81.0665 114.561C80.0056 112.699 79.1863 110.7 78.6357 108.611C78.1931 106.931 77.9304 105.217 77.8473 103.496C77.8331 103.201 77.8241 102.906 77.8204 102.61L53.5612 102.507ZM35.8117 168.514C30.1087 162.763 25.1978 156.326 21.1779 149.374L40.283 138.452C43.3518 143.74 47.0946 148.639 51.4368 153.017C55.8508 157.468 60.8072 161.304 66.1697 164.445L55.0853 183.457C48.0692 179.351 41.5851 174.335 35.8117 168.514ZM51.7919 152.665C47.4805 148.318 43.7643 143.454 40.717 138.204L59.8232 127.281C61.9192 130.869 64.4672 134.193 67.418 137.168C70.4415 140.217 73.8351 142.846 77.5063 145.002L66.4216 164.013C61.0966 160.894 56.175 157.085 51.7919 152.665ZM67.773 136.816C64.8532 133.872 62.3316 130.583 60.2573 127.033L81.3185 114.993C82.3435 116.71 83.5771 118.303 84.9972 119.735C86.4911 121.242 88.1657 122.543 89.9764 123.614L77.7581 144.57C74.1245 142.436 70.7656 139.834 67.773 136.816ZM55.5175 183.708C62.5032 187.746 70.0093 190.885 77.8613 193.024C85.8034 195.188 93.9597 196.29 102.121 196.329L102.215 174.322C95.9676 174.291 89.7243 173.447 83.645 171.791C77.6575 170.16 71.9325 167.77 66.602 164.696L55.5175 183.708ZM66.8539 164.264C72.1467 167.316 77.8312 169.689 83.7764 171.309C89.8134 172.953 96.0132 173.791 102.217 173.822L102.311 151.816C98.0214 151.793 93.7351 151.213 89.5611 150.076C85.4801 148.964 81.5765 147.339 77.9387 145.253L66.8539 164.264ZM78.1906 144.821C81.7907 146.885 85.6539 148.493 89.6925 149.593C93.8242 150.719 98.067 151.293 102.313 151.316L102.416 127.059C100.281 127.045 98.1468 126.755 96.0688 126.189C94.0849 125.649 92.1848 124.866 90.4093 123.864L78.1906 144.821ZM126.533 193.227C118.695 195.292 110.658 196.326 102.621 196.33L102.715 174.323C108.835 174.311 114.956 173.519 120.925 171.946C127.026 170.339 132.861 167.944 138.293 164.842L149.215 183.947C142.122 187.999 134.5 191.127 126.533 193.227ZM120.798 171.463C114.871 173.024 108.794 173.811 102.717 173.823L102.811 151.816C106.972 151.796 111.132 151.252 115.191 150.182C119.382 149.078 123.391 147.433 127.123 145.303L138.045 164.408C132.651 167.488 126.856 169.866 120.798 171.463ZM115.064 149.699C111.047 150.757 106.931 151.296 102.813 151.316L102.916 127.057C104.923 127.03 106.927 126.758 108.884 126.242C110.974 125.691 112.974 124.872 114.836 123.81L126.875 144.869C123.181 146.978 119.212 148.606 115.064 149.699ZM149.649 183.698C156.599 179.678 163.035 174.768 168.785 169.066C174.575 163.323 179.569 156.877 183.662 149.903L164.651 138.819C161.522 144.139 157.708 149.057 153.288 153.44C148.911 157.782 144.013 161.524 138.726 164.592L149.649 183.698ZM138.478 164.158C143.727 161.111 148.59 157.396 152.936 153.085C157.325 148.733 161.112 143.849 164.219 138.567L145.208 127.483C143.065 131.111 140.459 134.467 137.441 137.459C134.466 140.409 131.142 142.957 127.556 145.053L138.478 164.158ZM127.308 144.619C130.856 142.545 134.145 140.024 137.089 137.104C140.075 134.142 142.655 130.822 144.776 127.231L123.821 115.013C122.763 116.781 121.484 118.418 120.009 119.881C118.577 121.3 116.984 122.534 115.268 123.558L127.308 144.619ZM193.295 127.016C191.145 134.91 187.984 142.454 183.914 149.471L164.903 138.387C168.007 133.025 170.42 127.261 172.062 121.232C173.703 115.208 174.547 109.023 174.593 102.832L196.599 102.926C196.545 111.031 195.444 119.129 193.295 127.016ZM171.58 121.101C169.949 127.088 167.553 132.811 164.471 138.135L145.46 127.051C147.578 123.381 149.225 119.439 150.348 115.316C151.47 111.197 152.05 106.969 152.087 102.736L174.092 102.83C174.047 108.977 173.209 115.119 171.58 121.101ZM149.866 115.185C148.754 119.266 147.124 123.167 145.028 126.799L124.073 114.581C125.106 112.774 125.91 110.835 126.462 108.809C127.013 106.786 127.303 104.71 127.331 102.631L151.587 102.734C151.55 106.923 150.976 111.108 149.866 115.185ZM196.601 102.426C196.612 94.3331 195.577 86.238 193.497 78.3449C191.412 70.4308 188.312 62.8581 184.299 55.8052L165.194 66.7272C168.257 72.118 170.624 77.9048 172.217 83.9518C173.805 89.9765 174.597 96.155 174.594 102.332L196.601 102.426ZM174.094 102.33C174.097 96.1964 173.31 90.0615 171.734 84.0792C170.152 78.0746 167.801 72.3284 164.76 66.9753L145.656 77.8969C147.747 81.5881 149.364 85.5485 150.455 89.6861C151.539 93.8001 152.083 98.0183 152.089 102.236L174.094 102.33ZM151.589 102.234C151.583 98.0597 151.044 93.885 149.971 89.8135C148.892 85.7183 147.292 81.7985 145.222 78.145L124.164 90.1835C125.187 92.0048 125.979 93.956 126.515 95.9931C126.621 96.3956 126.717 96.8002 126.803 97.2063C126.94 97.8605 127.051 98.5188 127.135 99.1797C127.26 100.16 127.325 101.145 127.332 102.131L151.589 102.234ZM169.337 36.0931C175.078 41.8819 180.016 48.3668 184.051 55.3713L164.946 66.2933C161.862 60.9518 158.092 56.0057 153.711 51.5888C149.331 47.1717 144.416 43.3604 139.1 40.2322L150.185 21.2213C157.154 25.3137 163.597 30.3051 169.337 36.0931ZM153.356 51.9408C157.706 56.3266 161.45 61.2378 164.512 66.5415L145.408 77.4631C143.296 73.8225 140.721 70.4503 137.732 67.4365C134.741 64.4214 131.389 61.8167 127.764 59.6748L138.849 40.6642C144.127 43.7704 149.007 47.5549 153.356 51.9408ZM137.377 67.7886C140.335 70.7713 142.884 74.1084 144.973 77.7112L123.915 89.75C122.874 87.98 121.612 86.3388 120.154 84.8683C118.693 83.3953 117.06 82.1183 115.295 81.0616L127.513 60.1068C131.1 62.2268 134.417 64.8046 137.377 67.7886ZM149.753 20.9693C142.733 16.8972 135.185 13.7336 127.287 11.5823C119.373 9.42647 111.247 8.32478 103.114 8.27808L103.02 30.2839C109.239 30.3224 115.452 31.1662 121.503 32.8146C127.537 34.4581 133.303 36.8729 138.669 39.9802L149.753 20.9693ZM138.417 40.4121C133.089 37.3268 127.363 34.929 121.372 33.297C115.363 31.6602 109.193 30.8222 103.018 30.7839L102.925 52.7897C107.185 52.8198 111.442 53.3998 115.589 54.5293C119.715 55.6534 123.66 57.3023 127.333 59.4226L138.417 40.4121ZM127.081 59.8546C123.446 57.7561 119.541 56.1243 115.457 55.0117C111.353 53.8938 107.14 53.3196 102.922 53.2897L102.819 77.5454C104.927 77.5662 107.032 77.856 109.082 78.4146C111.112 78.9674 113.053 79.774 114.864 80.809L127.081 59.8546ZM78.6158 11.3801C86.482 9.30735 94.5488 8.27311 102.614 8.27654L102.52 30.2825C96.3708 30.2871 90.2207 31.0793 84.2229 32.6597C78.1242 34.2667 72.2901 36.6605 66.8599 39.7614L55.9383 20.657C63.0303 16.6061 70.6501 13.4791 78.6158 11.3801ZM84.3503 33.1432C90.3057 31.574 96.4122 30.7873 102.518 30.7825L102.425 52.7887C98.2345 52.8014 94.045 53.346 89.9584 54.4228C85.7688 55.5268 81.7608 57.1708 78.03 59.3003L67.1081 40.1955C72.5005 37.1162 78.294 34.7391 84.3503 33.1432ZM90.0858 54.9063C94.13 53.8406 98.2759 53.3016 102.422 53.2887L102.319 77.5456C100.285 77.5666 98.2517 77.8385 96.2673 78.3614C94.1776 78.9121 92.1783 79.7314 90.3167 80.7924L78.2781 59.7343C81.9712 57.6265 85.9386 55.9991 90.0858 54.9063Z" fill="#0284D2"/>
</g>
<g opacity="0.8">
<circle cx="102.319" cy="102.355" r="24.4209" fill="#4396F7" fill-opacity="0.1"/>
<circle cx="102.319" cy="102.355" r="49.3232" fill="#4396F7" fill-opacity="0.1"/>
<circle cx="102.32" cy="102.355" r="71.9546" fill="#4396F7" fill-opacity="0.1"/>
<circle cx="102.319" cy="102.355" r="94.3093" fill="#4396F7" fill-opacity="0.1"/>
</g>
<mask id="mask0" mask-type="alpha" maskUnits="userSpaceOnUse" x="40" y="102" width="63" height="63">
<path d="M66.7299 164.517L102.322 102.665L40.413 137.903C40.413 137.903 42.5529 143.245 48.5903 149.798C54.0576 155.732 66.7299 164.517 66.7299 164.517Z" fill="#F74343"/>
</mask>
<g mask="url(#mask0)">
<path fill-rule="evenodd" clip-rule="evenodd" d="M51.2914 142.441L43.2963 175.953L44.859 176.325L52.8541 142.814L51.2914 142.441ZM85.5809 121.361L77.5858 154.873L79.1485 155.246L87.1435 121.734L85.5809 121.361ZM111.875 133.793L119.87 100.282L121.433 100.654L113.438 134.166L111.875 133.793ZM68.4361 131.901L60.4411 165.413L62.0037 165.785L69.9988 132.274L68.4361 131.901ZM94.7305 144.333L102.726 110.821L104.288 111.194L96.2932 144.706L94.7305 144.333ZM137.015 89.7417L129.02 123.253L130.583 123.626L138.578 90.1145L137.015 89.7417ZM49.0112 172.439L57.0063 138.928L58.569 139.301L50.5739 172.812L49.0112 172.439ZM91.2958 117.848L83.3007 151.36L84.8634 151.732L92.8584 118.221L91.2958 117.848ZM117.59 130.28L125.585 96.7683L127.148 97.1411L119.153 130.653L117.59 130.28ZM74.151 128.388L66.156 161.899L67.7186 162.272L75.7137 128.761L74.151 128.388ZM100.445 140.82L108.441 107.308L110.003 107.681L102.008 141.193L100.445 140.82ZM142.73 86.2284L134.735 119.74L136.298 120.113L144.293 86.6013L142.73 86.2284ZM54.7262 168.926L62.7212 135.414L64.2839 135.787L56.2888 169.299L54.7262 168.926ZM97.0107 114.335L89.0156 147.846L90.5783 148.219L98.5733 114.708L97.0107 114.335ZM123.305 126.767L131.3 93.255L132.863 93.6278L124.868 127.139L123.305 126.767ZM79.866 124.875L71.8709 158.386L73.4336 158.759L81.4286 125.247L79.866 124.875ZM106.16 137.306L114.155 103.795L115.718 104.168L107.723 137.679L106.16 137.306ZM148.445 82.7152L140.45 116.227L142.012 116.6L150.008 83.088L148.445 82.7152Z" fill="#4396F7"/>
<path fill-rule="evenodd" clip-rule="evenodd" d="M46.391 121.815L38.3959 155.327L39.9586 155.699L47.9537 122.188L46.391 121.815ZM80.6805 100.735L72.6854 134.247L74.2481 134.62L82.2431 101.108L80.6805 100.735ZM106.975 113.167L114.97 79.6556L116.533 80.0284L108.538 113.54L106.975 113.167ZM63.5357 111.275L55.5407 144.787L57.1033 145.16L65.0984 111.648L63.5357 111.275ZM89.8301 123.707L97.8252 90.1955L99.3879 90.5683L91.3928 124.08L89.8301 123.707ZM132.115 69.1158L124.12 102.627L125.682 103L133.677 69.4886L132.115 69.1158ZM44.1109 151.813L52.1059 118.302L53.6686 118.675L45.6735 152.186L44.1109 151.813ZM86.3954 97.222L78.4003 130.734L79.963 131.106L87.958 97.5948L86.3954 97.222ZM112.69 109.654L120.685 76.1423L122.248 76.5151L114.252 110.027L112.69 109.654ZM69.2507 107.762L61.2556 141.273L62.8182 141.646L70.8133 108.135L69.2507 107.762ZM95.5451 120.194L103.54 86.6822L105.103 87.055L97.1077 120.567L95.5451 120.194ZM137.83 65.6025L129.835 99.114L131.397 99.4868L139.392 65.9753L137.83 65.6025ZM49.8258 148.3L57.8208 114.788L59.3835 115.161L51.3884 148.673L49.8258 148.3ZM92.1103 93.7087L84.1152 127.22L85.6779 127.593L93.673 94.0816L92.1103 93.7087ZM118.405 106.141L126.4 72.629L127.962 73.0019L119.967 106.513L118.405 106.141ZM74.9656 104.249L66.9705 137.76L68.5332 138.133L76.5282 104.621L74.9656 104.249ZM101.26 116.68L109.255 83.1689L110.818 83.5417L102.823 117.053L101.26 116.68ZM143.544 62.0892L135.549 95.6008L137.112 95.9736L145.107 62.462L143.544 62.0892Z" fill="#4396F7"/>
</g>
<path d="M127.128 102.358C127.128 98.0743 126.005 93.8659 123.871 90.152L102.628 102.358H127.128Z" fill="#4396F7"/>
<path d="M123.885 90.1765C121.756 86.4601 118.689 83.3669 114.991 81.2055L102.628 102.357L123.885 90.1765Z" fill="#4396F7"/>
<path d="M102.597 77.8574C98.3141 77.8625 94.107 78.9904 90.3956 81.1287L102.626 102.358L102.597 77.8574Z" fill="#4396F7"/>
<path d="M91.0632 80.7552C85.5966 83.6804 81.4423 88.5693 79.4378 94.4363L102.622 102.357L91.0632 80.7552Z" fill="#4396F7"/>
<path d="M81.4628 90.0143C79.1684 93.9484 78.0159 98.4442 78.1348 102.997L102.627 102.357L81.4628 90.0143Z" fill="#4396F7"/>
<path d="M78.1285 102.514C78.156 106.798 79.3059 110.999 81.4636 114.699L102.628 102.357L78.1285 102.514Z" fill="#4396F7"/>
<path d="M90.5152 123.653C94.2383 125.771 98.4516 126.876 102.735 126.857L102.629 102.357L90.5152 123.653Z" fill="#4396F7"/>
<path fill-rule="evenodd" clip-rule="evenodd" d="M102.628 126.823C102.628 126.823 93.9542 126.823 90.1257 122.961L102.628 101.891L102.628 126.823ZM114.89 123.546C121.552 120.056 124.762 113.018 125.906 109.533L102.628 101.891L114.89 123.546Z" fill="#4396F7"/>
<path d="M115.012 123.492C118.708 121.327 121.771 118.231 123.897 114.512L102.628 102.352L115.012 123.492Z" fill="#4396F7"/>
<path d="M123.918 114.482C126.038 110.76 127.145 106.548 127.129 102.265L102.629 102.358L123.918 114.482Z" fill="#4396F7"/>
<path d="M114.974 81.1958C111.275 79.0371 107.074 77.8861 102.791 77.8574L102.627 102.357L114.974 81.1958Z" fill="#4396F7"/>
<path d="M174.213 102.736C174.277 90.221 171.058 77.908 164.878 67.0249L145.21 78.193C149.438 85.6376 151.639 94.0604 151.596 102.621L174.213 102.736Z" fill="#4396F7"/>
<path d="M102.471 30.786C89.9556 30.8122 77.6659 34.1189 66.8274 40.3765L78.2646 60.1865C85.6398 55.9285 94.0025 53.6784 102.519 53.6606L102.471 30.786Z" fill="#4396F7"/>
<path d="M66.4735 40.577C55.6702 46.8952 46.712 55.9352 40.4924 66.7955L60.364 78.1759C64.5941 70.7896 70.6866 64.6414 78.0341 60.3444L66.4735 40.577Z" fill="#4396F7"/>
<path d="M40.5031 66.7947C34.246 77.7201 30.9811 90.1024 31.0376 102.692L53.3723 102.592C53.3335 93.9303 55.5798 85.4113 59.8846 77.8946L40.5031 66.7947Z" fill="#4396F7"/>
<path d="M67.1163 164.531C77.9834 170.739 90.2881 173.99 102.803 173.958L102.745 150.587C94.3158 150.608 86.0284 148.419 78.7092 144.238L67.1163 164.531Z" fill="#4396F7"/>
<path d="M164.333 138.665C170.678 127.878 174.084 115.615 174.211 103.1L151.877 102.874C151.789 111.484 149.446 119.92 145.081 127.342L164.333 138.665Z" fill="#4396F7"/>
<path d="M138.979 40.7049C128.005 34.2346 115.502 30.8103 102.763 30.7854L102.718 53.6247C111.393 53.6416 119.907 55.9734 127.38 60.3794L138.979 40.7049Z" fill="#4396F7"/>
<path d="M151.64 102.857C151.725 94.288 149.562 85.8461 145.367 78.3736L123.677 90.5512C125.743 94.2318 126.809 98.3899 126.767 102.611L151.64 102.857Z" fill="#4396F7"/>
<path d="M145.336 78.3172C141.13 70.8502 135.041 64.6161 127.675 60.2367L115.047 81.4756C118.701 83.6475 121.72 86.7391 123.806 90.4422L145.336 78.3172Z" fill="#4396F7"/>
<path d="M102.518 53.3526C96.008 53.3662 89.5661 54.6764 83.5681 57.2065C77.5701 59.7367 72.1362 63.4362 67.5835 68.0892C63.0307 72.7422 59.4504 78.2554 57.0514 84.3071C54.6525 90.3587 53.4829 96.8276 53.6111 103.336L78.3819 102.848C78.3185 99.6295 78.8969 96.4302 80.0834 93.4373C81.2698 90.4443 83.0406 87.7177 85.2922 85.4165C87.5438 83.1152 90.2313 81.2856 93.1977 80.0342C96.1641 78.7829 99.35 78.135 102.57 78.1282L102.518 53.3526Z" fill="#4396F7"/>
<path d="M77.8676 60.057C70.4701 64.3833 64.336 70.5734 60.0772 78.01L81.6655 90.3735C83.7629 86.7111 86.7838 83.6626 90.427 81.532L77.8676 60.057Z" fill="#4396F7"/>
<path d="M59.8355 77.9903C55.5765 85.4268 53.3416 93.85 53.3536 102.42L78.1911 102.385C78.1852 98.1576 79.2877 94.0024 81.3887 90.3339L59.8355 77.9903Z" fill="#4396F7"/>
<path d="M53.4582 102.999C53.4954 111.433 55.7078 119.714 59.8816 127.042L100.261 104.045C100.044 103.664 99.929 103.233 99.927 102.794L53.4582 102.999Z" fill="#4396F7"/>
<path d="M78.3077 144.934C85.7489 149.185 94.1745 151.411 102.744 151.389L102.684 127.076C98.3645 127.087 94.118 125.965 90.3677 123.823L78.3077 144.934Z" fill="#4396F7"/>
<path d="M127.255 145.037C135.441 140.432 141.577 133.601 145.983 125.306L123.972 113.611C121.802 117.695 119.067 121.207 115.037 123.475L127.255 145.037Z" fill="#4396F7"/>
<path d="M145.036 127.95C149.622 120.036 151.902 110.997 151.619 101.855L126.672 102.628C126.811 107.115 125.692 111.551 123.441 115.436L145.036 127.95Z" fill="#4396F7"/>
<path d="M127.665 60.2321C120.019 55.6878 111.281 53.3094 102.387 53.3515L102.504 78.0917C106.909 78.0708 111.237 79.2488 115.024 81.4995L127.665 60.2321Z" fill="#4396F7"/>
<g style="mix-blend-mode:screen">
<path fill-rule="evenodd" clip-rule="evenodd" d="M103.146 0.90949L103.116 7.77808C111.292 7.82497 119.462 8.93252 127.419 11.0999C135.359 13.2628 142.947 16.4433 150.005 20.5373L153.325 14.8421L153.757 15.0939L150.436 20.7893C157.444 24.9037 163.921 29.9219 169.692 35.741C175.464 41.561 180.429 48.0809 184.485 55.1232L190.375 51.7558L190.623 52.1899L184.733 55.5571C188.768 62.6477 191.884 70.261 193.981 78.2175C196.072 86.153 197.112 94.2917 197.101 102.428L204.141 102.458L204.139 102.958L197.099 102.928C197.045 111.076 195.938 119.218 193.778 127.148C191.616 135.084 188.437 142.669 184.346 149.723L190.204 153.139L189.952 153.571L184.094 150.155C179.979 157.166 174.959 163.647 169.137 169.421C163.356 175.154 156.885 180.091 149.897 184.132L153.292 190.071L152.858 190.32L149.463 184.381C142.332 188.455 134.67 191.599 126.66 193.71C118.78 195.787 110.699 196.826 102.619 196.83L102.589 203.837L102.089 203.835L102.119 196.829C93.9141 196.789 85.7143 195.682 77.7299 193.507C69.8356 191.356 62.2889 188.2 55.2657 184.14L51.9075 189.9L51.4756 189.648L54.8335 183.888C47.7798 179.761 41.261 174.718 35.4567 168.866C29.7228 163.084 24.7853 156.611 20.7438 149.622L14.8586 152.987L14.6104 152.553L20.4946 149.189C16.4218 142.059 13.2778 134.398 11.1675 126.389C9.08804 118.497 8.04829 110.405 8.04746 102.313L1.0928 102.283L1.09493 101.783L8.04873 101.813C8.09123 93.6199 9.19887 85.4321 11.3708 77.459C13.526 69.5473 16.6915 61.9849 20.7644 54.9486L15.0295 51.6049L15.2813 51.1729L21.0161 54.5165C25.1386 47.4805 30.1719 40.9774 36.0119 35.1857C41.794 29.4515 48.2669 24.5137 55.2566 20.4721L51.9403 14.6712L52.3744 14.423L55.6901 20.2229C62.8199 16.1504 70.4803 13.0068 78.4884 10.8966C86.397 8.81267 94.5074 7.77292 102.616 7.77654L102.646 0.90736L103.146 0.90949ZM11.8532 77.5904C13.9968 69.7211 17.1454 62.1992 21.1964 55.2004L40.2072 66.2846C37.1212 71.6282 34.7214 77.369 33.0857 83.3739C31.4327 89.442 30.5888 95.6734 30.5547 101.909L8.54873 101.815C8.59104 93.6656 9.69282 85.5211 11.8532 77.5904ZM33.5681 83.5053C35.1923 77.5428 37.575 71.8424 40.6392 66.5364L59.6508 77.6211C57.5517 81.2717 55.9179 85.1908 54.8016 89.2888C53.6675 93.4519 53.0874 97.7268 53.0617 102.005L31.0547 101.911C31.0886 95.719 31.9266 89.5311 33.5681 83.5053ZM40.8907 66.1043L59.9022 77.1889C62.0526 73.535 64.6726 70.1568 67.7088 67.1457C70.6844 64.1947 74.0093 61.6464 77.597 59.5503L66.6748 40.4449C61.4238 43.4923 56.5598 47.2089 52.212 51.5207C47.8051 55.8912 44.0053 60.797 40.8907 66.1043ZM55.284 89.4202C56.3888 85.3646 58.0056 81.486 60.0828 77.8729L81.0389 90.0913C80.0252 91.8793 79.2338 93.7943 78.6889 95.7944C78.1891 97.6292 77.9045 99.5074 77.8353 101.392C77.8265 101.631 77.8211 101.871 77.8193 102.11L53.5617 102.007C53.5872 97.7724 54.1615 93.541 55.284 89.4202ZM60.3342 77.4408L81.2899 89.6589C82.3555 87.8647 83.6482 86.2049 85.1426 84.7228C86.5744 83.3028 88.168 82.0693 89.8848 81.0444L77.8452 59.9844C74.2953 62.0589 71.0053 64.5806 68.0609 67.5007C65.0558 70.4809 62.4627 73.8244 60.3342 77.4408ZM79.1714 95.9269C79.7047 93.9688 80.4793 92.0941 81.4713 90.3434L101.007 101.734C100.992 101.776 100.978 101.82 100.966 101.864C100.935 101.977 100.916 102.093 100.91 102.209L78.3193 102.112C78.3211 101.878 78.3263 101.644 78.3349 101.41C78.4029 99.5642 78.6817 97.7242 79.1714 95.9269ZM100.958 102.709L78.3205 102.612C78.3241 102.895 78.3327 103.177 78.3462 103.46C78.4269 105.149 78.6846 106.833 79.1192 108.482C79.6587 110.53 80.4615 112.489 81.501 114.312L101.111 103.101C101.047 102.984 100.997 102.858 100.962 102.727C100.961 102.721 100.959 102.715 100.958 102.709ZM101.417 103.502L81.7531 114.744C82.7563 116.423 83.9632 117.982 85.3522 119.382C86.8153 120.858 88.4554 122.132 90.2287 123.181L101.609 103.662C101.542 103.614 101.478 103.56 101.417 103.502ZM102.057 103.887L90.6617 123.431C92.3994 124.411 94.2588 125.177 96.2001 125.705C98.2359 126.26 100.326 126.544 102.418 126.558L102.514 103.968C102.387 103.964 102.26 103.945 102.136 103.911C102.11 103.903 102.083 103.895 102.057 103.887ZM103.015 103.91L102.918 126.556C104.881 126.528 106.842 126.262 108.756 125.758C110.804 125.218 112.763 124.415 114.587 123.375L103.376 103.764C103.262 103.827 103.141 103.876 103.015 103.91ZM103.777 103.458L115.019 123.123C116.698 122.12 118.256 120.913 119.656 119.525C121.101 118.093 122.352 116.491 123.388 114.761L103.854 103.371C103.829 103.401 103.803 103.43 103.777 103.458ZM104.113 102.944L123.641 114.329C124.651 112.559 125.439 110.661 125.98 108.677C126.519 106.696 126.803 104.664 126.83 102.629L104.226 102.533C104.216 102.602 104.202 102.672 104.183 102.74C104.164 102.81 104.141 102.878 104.113 102.944ZM104.22 102.033L126.832 102.129C126.825 101.165 126.761 100.201 126.639 99.2428C126.542 98.4805 126.409 97.7217 126.239 96.9689C126.175 96.6856 126.106 96.403 126.032 96.1215C125.506 94.1265 124.731 92.2157 123.73 90.4318L104.109 101.649C104.14 101.723 104.166 101.799 104.187 101.877C104.201 101.928 104.212 101.98 104.22 102.033ZM103.846 101.223L123.481 89.9983C122.461 88.2664 121.226 86.6605 119.799 85.2214C118.369 83.7794 116.77 82.5291 115.043 81.4942L103.653 101.03C103.689 101.061 103.725 101.094 103.759 101.128C103.789 101.159 103.818 101.19 103.846 101.223ZM103.227 100.767L114.611 81.2417C112.839 80.2287 110.938 79.4392 108.951 78.898C106.943 78.3509 104.881 78.067 102.817 78.0464L102.721 100.641C102.819 100.65 102.917 100.667 103.013 100.693C103.086 100.713 103.158 100.738 103.227 100.767ZM102.221 100.673L102.317 78.0466C100.326 78.0678 98.3367 78.3342 96.3948 78.8459C94.3476 79.3853 92.389 80.188 90.5653 81.2273L101.776 100.838C101.894 100.774 102.019 100.724 102.15 100.69C102.173 100.683 102.197 100.678 102.221 100.673ZM101.375 101.144L90.1335 81.4793C88.4543 82.4826 86.8955 83.6897 85.4947 85.0789C84.0316 86.5298 82.7659 88.1547 81.7223 89.911L101.246 101.294C101.286 101.242 101.329 101.191 101.375 101.144ZM21.448 54.7684L40.4588 65.8525C43.5952 60.5076 47.4218 55.567 51.8599 51.1657C56.2388 46.823 61.1378 43.0799 66.4266 40.0108L55.5047 20.9062C48.5529 24.9262 42.1149 29.8374 36.364 35.5408C30.5552 41.3015 25.5487 47.7699 21.448 54.7684ZM8.54746 102.315C8.54847 110.363 9.58272 118.412 11.651 126.262C13.7501 134.228 16.8774 141.848 20.9287 148.941L40.0335 138.019C36.9321 132.588 34.538 126.753 32.9308 120.654C31.3549 114.673 30.5627 108.541 30.5537 102.409L8.54746 102.315ZM31.0537 102.411C31.0629 108.5 31.8496 114.588 33.4143 120.527C35.0104 126.584 37.3878 132.378 40.4676 137.771L59.5731 126.848C57.4434 123.117 55.7992 119.109 54.6951 114.919C53.6227 110.849 53.0782 106.678 53.0612 102.505L31.0537 102.411ZM53.5612 102.507C53.5784 106.636 54.1174 110.764 55.1786 114.792C56.2715 118.939 57.8991 122.907 60.0072 126.6L81.0665 114.561C80.0056 112.699 79.1863 110.7 78.6357 108.611C78.1931 106.931 77.9304 105.217 77.8473 103.496C77.8331 103.201 77.8241 102.906 77.8204 102.61L53.5612 102.507ZM35.8117 168.514C30.1087 162.763 25.1978 156.326 21.1779 149.374L40.283 138.452C43.3518 143.74 47.0946 148.639 51.4368 153.017C55.8508 157.468 60.8072 161.304 66.1697 164.445L55.0853 183.457C48.0692 179.351 41.5851 174.335 35.8117 168.514ZM51.7919 152.665C47.4805 148.318 43.7643 143.454 40.717 138.204L59.8232 127.281C61.9192 130.869 64.4672 134.193 67.418 137.168C70.4415 140.217 73.8351 142.846 77.5063 145.002L66.4216 164.013C61.0966 160.894 56.175 157.085 51.7919 152.665ZM67.773 136.816C64.8532 133.872 62.3316 130.583 60.2573 127.033L81.3185 114.993C82.3435 116.71 83.5771 118.303 84.9972 119.735C86.4911 121.242 88.1657 122.543 89.9764 123.614L77.7581 144.57C74.1245 142.436 70.7656 139.834 67.773 136.816ZM55.5175 183.708C62.5032 187.746 70.0093 190.885 77.8613 193.024C85.8034 195.188 93.9597 196.29 102.121 196.329L102.215 174.322C95.9676 174.291 89.7243 173.447 83.645 171.791C77.6575 170.16 71.9325 167.77 66.602 164.696L55.5175 183.708ZM66.8539 164.264C72.1467 167.316 77.8312 169.689 83.7764 171.309C89.8134 172.953 96.0132 173.791 102.217 173.822L102.311 151.816C98.0214 151.793 93.7351 151.213 89.5611 150.076C85.4801 148.964 81.5765 147.339 77.9387 145.253L66.8539 164.264ZM78.1906 144.821C81.7907 146.885 85.6539 148.493 89.6925 149.593C93.8242 150.719 98.067 151.293 102.313 151.316L102.416 127.059C100.281 127.045 98.1468 126.755 96.0688 126.189C94.0849 125.649 92.1848 124.866 90.4093 123.864L78.1906 144.821ZM126.533 193.227C118.695 195.292 110.658 196.326 102.621 196.33L102.715 174.323C108.835 174.311 114.956 173.519 120.925 171.946C127.026 170.339 132.861 167.944 138.293 164.842L149.215 183.947C142.122 187.999 134.5 191.127 126.533 193.227ZM120.798 171.463C114.871 173.024 108.794 173.811 102.717 173.823L102.811 151.816C106.972 151.796 111.132 151.252 115.191 150.182C119.382 149.078 123.391 147.433 127.123 145.303L138.045 164.408C132.651 167.488 126.856 169.866 120.798 171.463ZM115.064 149.699C111.047 150.757 106.931 151.296 102.813 151.316L102.916 127.057C104.923 127.03 106.927 126.758 108.884 126.242C110.974 125.691 112.974 124.872 114.836 123.81L126.875 144.869C123.181 146.978 119.212 148.606 115.064 149.699ZM149.649 183.698C156.599 179.678 163.035 174.768 168.785 169.066C174.575 163.323 179.569 156.877 183.662 149.903L164.651 138.819C161.522 144.139 157.708 149.057 153.288 153.44C148.911 157.782 144.013 161.524 138.726 164.592L149.649 183.698ZM138.478 164.158C143.727 161.111 148.59 157.396 152.936 153.085C157.325 148.733 161.112 143.849 164.219 138.567L145.208 127.483C143.065 131.111 140.459 134.467 137.441 137.459C134.466 140.409 131.142 142.957 127.556 145.053L138.478 164.158ZM127.308 144.619C130.856 142.545 134.145 140.024 137.089 137.104C140.075 134.142 142.655 130.822 144.776 127.231L123.821 115.013C122.763 116.781 121.484 118.418 120.009 119.881C118.577 121.3 116.984 122.534 115.268 123.558L127.308 144.619ZM193.295 127.016C191.145 134.91 187.984 142.454 183.914 149.471L164.903 138.387C168.007 133.025 170.42 127.261 172.062 121.232C173.703 115.208 174.547 109.023 174.593 102.832L196.599 102.926C196.545 111.031 195.444 119.129 193.295 127.016ZM171.58 121.101C169.949 127.088 167.553 132.811 164.471 138.135L145.46 127.051C147.578 123.381 149.225 119.439 150.348 115.316C151.47 111.197 152.05 106.969 152.087 102.736L174.092 102.83C174.047 108.977 173.209 115.119 171.58 121.101ZM149.866 115.185C148.754 119.266 147.124 123.167 145.028 126.799L124.073 114.581C125.106 112.774 125.91 110.835 126.462 108.809C127.013 106.786 127.303 104.71 127.331 102.631L151.587 102.734C151.55 106.923 150.976 111.108 149.866 115.185ZM196.601 102.426C196.612 94.3331 195.577 86.238 193.497 78.3449C191.412 70.4308 188.312 62.8581 184.299 55.8052L165.194 66.7272C168.257 72.118 170.624 77.9048 172.217 83.9518C173.805 89.9765 174.597 96.155 174.594 102.332L196.601 102.426ZM174.094 102.33C174.097 96.1964 173.31 90.0615 171.734 84.0792C170.152 78.0746 167.801 72.3284 164.76 66.9753L145.656 77.8969C147.747 81.5881 149.364 85.5485 150.455 89.6861C151.539 93.8001 152.083 98.0183 152.089 102.236L174.094 102.33ZM151.589 102.234C151.583 98.0597 151.044 93.885 149.971 89.8135C148.892 85.7183 147.292 81.7985 145.222 78.145L124.164 90.1835C125.187 92.0048 125.979 93.956 126.515 95.9931C126.621 96.3956 126.717 96.8002 126.803 97.2063C126.94 97.8605 127.051 98.5188 127.135 99.1797C127.26 100.16 127.325 101.145 127.332 102.131L151.589 102.234ZM169.337 36.0931C175.078 41.8819 180.016 48.3668 184.051 55.3713L164.946 66.2933C161.862 60.9518 158.092 56.0057 153.711 51.5888C149.331 47.1717 144.416 43.3604 139.1 40.2322L150.185 21.2213C157.154 25.3137 163.597 30.3051 169.337 36.0931ZM153.356 51.9408C157.706 56.3266 161.45 61.2378 164.512 66.5415L145.408 77.4631C143.296 73.8225 140.721 70.4503 137.732 67.4365C134.741 64.4214 131.389 61.8167 127.764 59.6748L138.849 40.6642C144.127 43.7704 149.007 47.5549 153.356 51.9408ZM137.377 67.7886C140.335 70.7713 142.884 74.1084 144.973 77.7112L123.915 89.75C122.874 87.98 121.612 86.3388 120.154 84.8683C118.693 83.3953 117.06 82.1183 115.295 81.0616L127.513 60.1068C131.1 62.2268 134.417 64.8046 137.377 67.7886ZM149.753 20.9693C142.733 16.8972 135.185 13.7336 127.287 11.5823C119.373 9.42647 111.247 8.32478 103.114 8.27808L103.02 30.2839C109.239 30.3224 115.452 31.1662 121.503 32.8146C127.537 34.4581 133.303 36.8729 138.669 39.9802L149.753 20.9693ZM138.417 40.4121C133.089 37.3268 127.363 34.929 121.372 33.297C115.363 31.6602 109.193 30.8222 103.018 30.7839L102.925 52.7897C107.185 52.8198 111.442 53.3998 115.589 54.5293C119.715 55.6534 123.66 57.3023 127.333 59.4226L138.417 40.4121ZM127.081 59.8546C123.446 57.7561 119.541 56.1243 115.457 55.0117C111.353 53.8938 107.14 53.3196 102.922 53.2897L102.819 77.5454C104.927 77.5662 107.032 77.856 109.082 78.4146C111.112 78.9674 113.053 79.774 114.864 80.809L127.081 59.8546ZM78.6158 11.3801C86.482 9.30735 94.5488 8.27311 102.614 8.27654L102.52 30.2825C96.3708 30.2871 90.2207 31.0793 84.2229 32.6597C78.1242 34.2667 72.2901 36.6605 66.8599 39.7614L55.9383 20.657C63.0303 16.6061 70.6501 13.4791 78.6158 11.3801ZM84.3503 33.1432C90.3057 31.574 96.4122 30.7873 102.518 30.7825L102.425 52.7887C98.2345 52.8014 94.045 53.346 89.9584 54.4228C85.7688 55.5268 81.7608 57.1708 78.03 59.3003L67.1081 40.1955C72.5005 37.1162 78.294 34.7391 84.3503 33.1432ZM90.0858 54.9063C94.13 53.8406 98.2759 53.3016 102.422 53.2887L102.319 77.5456C100.285 77.5666 98.2517 77.8385 96.2673 78.3614C94.1776 78.9121 92.1783 79.7314 90.3167 80.7924L78.2781 59.7343C81.9712 57.6265 85.9386 55.9991 90.0858 54.9063Z" fill="white"/>
</g>
<circle cx="77.3903" cy="12.8177" r="8.23979" transform="rotate(0.237983 77.3903 12.8177)" fill="white" stroke="#4396F7" stroke-width="1.08116"/>
<circle cx="127.201" cy="13.0238" r="8.23979" transform="rotate(0.237983 127.201 13.0238)" fill="white" stroke="#4396F7" stroke-width="1.08116"/>
<circle cx="167.671" cy="34.597" r="8.23979" transform="rotate(0.237983 167.671 34.597)" fill="white" stroke="#4396F7" stroke-width="1.08116"/>
<circle cx="193.264" cy="78.6869" r="8.23979" transform="rotate(0.237983 193.264 78.6869)" fill="white" stroke="#4396F7" stroke-width="1.08116"/>
<circle cx="193.062" cy="127.3" r="8.23979" transform="rotate(0.237983 193.062 127.3)" fill="white" stroke="#4396F7" stroke-width="1.08116"/>
<circle cx="169.044" cy="169.495" r="8.23979" transform="rotate(0.237983 169.044 169.495)" fill="white" stroke="#4396F7" stroke-width="1.08116"/>
<circle cx="126.444" cy="195.059" r="8.23979" transform="rotate(0.237983 126.444 195.059)" fill="white" stroke="#4396F7" stroke-width="1.08116"/>
<circle cx="79.4587" cy="194.864" r="8.23979" transform="rotate(0.237983 79.4587 194.864)" fill="white" stroke="#4396F7" stroke-width="1.08116"/>
<circle cx="34.9469" cy="168.939" r="8.23979" transform="rotate(0.237983 34.9469 168.939)" fill="white" stroke="#4396F7" stroke-width="1.08116"/>
<circle cx="10.8649" cy="127.603" r="8.23979" transform="rotate(0.237983 10.8649 127.603)" fill="white" stroke="#4396F7" stroke-width="1.08116"/>
<circle cx="12.2341" cy="77.9349" r="8.23979" transform="rotate(0.237983 12.2341 77.9349)" fill="white" stroke="#4396F7" stroke-width="1.08116"/>
<circle cx="35.2028" cy="38.4281" r="8.23979" transform="rotate(0.237983 35.2028 38.4281)" fill="white" stroke="#4396F7" stroke-width="1.08116"/>
<path d="M103.882 113.142L103.32 113.14C103.152 114.065 102.39 114.286 101.551 114.283L101.549 114.871L103.14 114.878L103.122 119.271L103.857 119.274L103.882 113.142Z" fill="black"/>
<path d="M101.809 139.503C101.787 138.768 102.153 137.982 103.009 137.986C103.658 137.989 104.192 138.432 104.19 139.098C104.186 139.946 103.657 140.324 102.616 140.96C101.749 141.492 101.012 142.008 100.885 143.461L104.889 143.477L104.892 142.829L101.744 142.816C101.894 142.055 102.7 141.669 103.472 141.205C104.235 140.733 104.964 140.191 104.968 139.11C104.973 137.968 104.128 137.342 103.055 137.337C101.758 137.332 101.019 138.254 101.074 139.5L101.809 139.503Z" fill="black"/>
<path d="M102.475 164.478C102.614 164.461 102.769 164.453 102.916 164.454C103.643 164.457 104.221 164.866 104.217 165.636C104.214 166.38 103.598 166.818 102.881 166.815C102.042 166.812 101.603 166.256 101.58 165.46L100.845 165.457C100.814 166.72 101.632 167.459 102.878 167.464C104.028 167.469 104.991 166.833 104.996 165.604C104.999 164.869 104.638 164.28 103.895 164.112L103.895 164.095C104.363 163.881 104.746 163.415 104.748 162.879C104.753 161.746 103.95 161.232 102.886 161.228C101.658 161.223 101.032 162.033 100.984 163.201L101.719 163.204C101.731 162.486 102.079 161.873 102.884 161.876C103.507 161.879 103.972 162.227 103.969 162.867C103.967 163.533 103.42 163.868 102.798 163.865C102.694 163.865 102.59 163.865 102.478 163.855L102.475 164.478Z" fill="black"/>
<path d="M104.133 183.786L103.545 183.784L100.735 187.759L100.732 188.469L103.422 188.48L103.416 189.915L104.108 189.918L104.114 188.483L104.944 188.486L104.947 187.837L104.117 187.834L104.133 183.786ZM101.366 187.822L103.42 184.83L103.437 184.83L103.425 187.831L101.366 187.822Z" fill="black"/>
<path d="M126.101 11.3741C126.078 10.6388 126.444 9.85322 127.301 9.85678C127.949 9.85947 128.484 10.3028 128.481 10.9688C128.477 11.8164 127.948 12.1948 126.908 12.8305C126.041 13.3632 125.303 13.8791 125.176 15.3316L129.181 15.3483L129.183 14.6996L126.035 14.6865C126.185 13.926 126.991 13.5401 127.763 13.0763C128.526 12.6037 129.255 12.0618 129.259 10.9807C129.264 9.83899 128.419 9.21272 127.347 9.20827C126.049 9.20288 125.31 10.1253 125.366 11.371L126.101 11.3741Z" fill="black"/>
<path d="M78.203 9.00425L77.6408 9.00192C77.4726 9.9267 76.7106 10.1484 75.8716 10.1449L75.8692 10.7331L77.4606 10.7397L77.4424 15.1335L78.1775 15.1365L78.203 9.00425Z" fill="black"/>
<path d="M167.154 34.3149C167.293 34.2982 167.448 34.2902 167.595 34.2908C168.322 34.2938 168.9 34.7027 168.896 35.4725C168.893 36.2163 168.277 36.6549 167.56 36.6519C166.721 36.6484 166.282 36.093 166.259 35.2972L165.524 35.2941C165.493 36.5568 166.311 37.2954 167.557 37.3006C168.707 37.3054 169.67 36.6693 169.675 35.4411C169.678 34.7059 169.317 34.1163 168.574 33.9489L168.574 33.9316C169.042 33.7173 169.425 33.2518 169.427 32.7155C169.432 31.5825 168.629 31.0688 167.565 31.0644C166.337 31.0593 165.711 31.8698 165.663 33.0372L166.398 33.0403C166.41 32.3224 166.758 31.7098 167.563 31.7131C168.186 31.7157 168.651 32.0636 168.649 32.7037C168.646 33.3696 168.099 33.7047 167.477 33.7021C167.373 33.7017 167.269 33.7012 167.157 33.6921L167.154 34.3149Z" fill="black"/>
<path d="M35.0165 37.9305C35.8554 37.934 36.2507 38.567 36.2475 39.3281C36.2445 40.0547 35.8008 40.6842 35.005 40.6809C34.2007 40.6776 33.7361 40.0702 33.7393 39.3091C33.7425 38.5393 34.1948 37.9271 35.0165 37.9305ZM36.864 36.6667C36.7817 35.6717 36.1526 35.0982 35.1407 35.094C33.3935 35.0867 32.8766 36.6847 32.8696 38.3713C32.8642 39.6601 33.1514 41.3219 34.9677 41.3295C36.5159 41.3359 37.0225 40.1703 37.0262 39.2795C37.0309 38.1464 36.3338 37.2872 35.1575 37.2824C34.4915 37.2796 33.9716 37.5196 33.6233 38.0804L33.6061 38.063C33.6446 37.1204 33.8493 35.7373 35.1034 35.7426C35.6829 35.745 36.0619 36.1098 36.1288 36.6636L36.864 36.6667Z" fill="black"/>
<path d="M194.502 74.8268L193.914 74.8244L191.103 78.8001L191.1 79.5093L193.79 79.5205L193.784 80.9562L194.476 80.9591L194.482 79.5234L195.313 79.5268L195.315 78.8781L194.485 78.8747L194.502 74.8268ZM191.735 78.8632L193.788 75.8704L193.806 75.8705L193.793 78.8718L191.735 78.8632Z" fill="black"/>
<path d="M194.742 124.196L191.715 124.184L191.131 127.364L191.762 127.401C192.049 127.057 192.439 126.825 192.906 126.827C193.728 126.83 194.288 127.412 194.284 128.225C194.28 129.202 193.682 129.675 192.981 129.673C192.246 129.669 191.738 129.192 191.697 128.56L190.962 128.557C190.983 129.664 191.845 130.316 192.909 130.321C194.336 130.327 195.058 129.327 195.063 128.289C195.068 126.887 194.18 126.183 193.091 126.179C192.676 126.177 192.217 126.313 191.947 126.615L191.93 126.598L192.266 124.835L194.74 124.845L194.742 124.196Z" fill="black"/>
<path d="M9.58181 128.535C9.58475 127.826 10.1575 127.361 10.8841 127.364C11.576 127.367 12.1448 127.871 12.142 128.537C12.1392 129.221 11.6181 129.729 10.8829 129.726C10.1218 129.722 9.57875 129.27 9.58181 128.535ZM9.03139 125.696C9.02909 126.25 9.37294 126.761 9.88238 126.971C9.19809 127.21 8.80654 127.771 8.80352 128.497C8.79831 129.752 9.70393 130.369 10.8802 130.374C12.0133 130.379 12.9156 129.699 12.9205 128.515C12.9237 127.753 12.5713 127.216 11.8371 126.979C12.3397 126.756 12.6877 126.256 12.69 125.711C12.6932 124.933 12.1776 124.144 10.8369 124.138C9.89417 124.134 9.0356 124.684 9.03139 125.696ZM9.80971 125.725C9.81226 125.111 10.298 124.784 10.8861 124.787C11.4829 124.789 11.914 125.12 11.9115 125.734C11.9089 126.357 11.4749 126.718 10.8954 126.716C10.29 126.713 9.80691 126.4 9.80971 125.725Z" fill="black"/>
<path d="M14.1841 74.8323L10.2141 74.8158L10.2113 75.5077L13.4288 75.5211C12.1344 76.8823 11.1318 78.7724 10.9848 80.8476L11.8065 80.851C11.9269 78.9314 12.9396 76.6867 14.1815 75.4637L14.1841 74.8323Z" fill="black"/>
<path d="M167.334 166.269L166.772 166.266C166.604 167.191 165.842 167.413 165.003 167.409L165 167.998L166.592 168.004L166.574 172.398L167.309 172.401L167.334 166.269ZM170.168 168.451C170.145 167.716 170.511 166.931 171.368 166.934C172.016 166.937 172.551 167.38 172.548 168.046C172.545 168.894 172.015 169.272 170.975 169.908C170.108 170.441 169.37 170.956 169.243 172.409L173.248 172.426L173.25 171.777L170.102 171.764C170.252 171.003 171.058 170.617 171.83 170.154C172.593 169.681 173.322 169.139 173.326 168.058C173.331 166.916 172.486 166.29 171.414 166.286C170.116 166.28 169.377 167.203 169.433 168.448L170.168 168.451Z" fill="black"/>
<path d="M36.0889 167.34C36.0859 168.067 35.599 168.687 34.8292 168.684C34.12 168.681 33.6209 168.056 33.6237 167.382C33.6268 166.629 33.9584 165.93 34.832 165.934C35.6537 165.937 36.0921 166.588 36.0889 167.34ZM32.9644 169.931C33.0552 170.986 33.7882 171.517 34.8174 171.521C36.3051 171.527 36.95 170.345 36.9588 168.226C36.9685 165.908 36.011 165.29 34.8693 165.285C33.6843 165.28 32.8506 166.09 32.8457 167.275C32.8407 168.486 33.5291 169.328 34.7746 169.333C35.3714 169.335 35.9177 169.009 36.1966 168.491L36.2138 168.508C36.164 170.091 35.7196 170.876 34.8201 170.873C34.232 170.87 33.749 170.531 33.6996 169.934L32.9644 169.931Z" fill="black"/>
<path d="M124.914 191.945L124.352 191.943C124.184 192.868 123.422 193.09 122.583 193.086L122.58 193.674L124.172 193.681L124.154 198.075L124.889 198.078L124.914 191.945ZM129.72 191.965L129.158 191.963C128.99 192.888 128.228 193.11 127.389 193.106L127.386 193.694L128.978 193.701L128.96 198.095L129.695 198.098L129.72 191.965Z" fill="black"/>
<path d="M77.7189 191.75L77.1567 191.748C76.9886 192.673 76.2265 192.894 75.3875 192.891L75.3851 193.479L76.9765 193.486L76.9583 197.879L77.6935 197.882L77.7189 191.75ZM79.7962 194.881C79.7906 196.23 79.9043 197.995 81.8245 198.003C83.7446 198.011 83.873 196.247 83.8786 194.898C83.8842 193.54 83.7705 191.775 81.8504 191.767C79.9302 191.759 79.8018 193.523 79.7962 194.881ZM80.5746 194.876C80.5784 193.968 80.5935 192.411 81.8477 192.416C83.1018 192.421 83.104 193.978 83.1002 194.886C83.0964 195.803 83.0813 197.36 81.8271 197.355C80.573 197.349 80.5708 195.793 80.5746 194.876Z" fill="black"/>
</svg>
