<svg width="272" height="272" viewBox="0 0 272 272" fill="none" xmlns="http://www.w3.org/2000/svg">
<path d="M40.351 135.501C39.851 119.001 44.8042 102.336 53.0913 88.0013C60.9461 73.0523 74.2667 61.465 88.5913 52.9343C103.591 44.0013 119.591 39.5013 136.591 39.5013C153.322 39.231 169.421 44.9981 184.091 52.9343L138.431 135.501H40.351Z" fill="#5CA3F6"/>
<path d="M218.092 87.0013C227.006 100.969 230.983 117.663 231.229 134.602C231.475 151.542 227.043 168.767 218.686 183.49L135.589 135.113L218.092 87.0013Z" fill="#5CA3F6"/>
<path d="M136.128 230.774C119.309 230.762 102.825 226.277 88.3529 217.776L136.891 135.14L136.128 230.774Z" fill="#5CA3F6"/>
<path opacity="0.8" fill-rule="evenodd" clip-rule="evenodd" d="M152.96 72.4935C141.918 69.5347 130.291 69.5347 119.249 72.4935C108.207 75.4522 98.1383 81.2654 90.0549 89.3488C81.9715 97.4323 76.1583 107.501 73.1995 118.543C71.7186 124.07 70.9789 129.743 70.9805 135.417H103.452C103.452 135.417 103.34 140.032 104.457 144.569C105.575 149.11 107.591 152 107.591 152L78.5911 168.5C81.404 173.334 85.1024 178.011 89.0911 182C97.1745 190.083 108.049 196.541 119.091 199.5C124.667 200.994 130.368 201.515 136.091 201.5L136.273 135.417L152.694 163.792C152.694 163.792 155.892 161.742 159.716 158.219L164.509 151.81L192.392 168.154C195.28 163.191 197.511 157.847 199.01 152.254C201.969 141.212 201.969 129.585 199.01 118.543C197.511 112.95 195.28 107.606 192.392 102.644L163.979 118.543C163.979 118.543 162.809 116.313 159.555 113.037C156.344 109.805 152.96 106.764 152.96 106.764L168.731 79.0364C163.805 76.1849 158.505 73.9793 152.96 72.4935Z" fill="#4396F7"/>
<path d="M169.091 192.499C180.591 186 189.091 175.999 195.118 164.756C200.915 153.294 203.117 140.392 201.442 127.694C199.768 114.996 194.565 102.624 185.987 92.9999C177.41 83.3762 166.056 75.7819 153.487 72.4999C140.918 69.2179 127.281 69.326 114.987 73.4999C102.694 77.6738 91.3313 86.2871 83.4874 96.4999C75.6435 106.713 70.8229 119.215 70.0912 132C69.4042 144 71.0911 157 78.5912 168.5L135.602 136.517C135.498 136.343 135.448 136.144 135.46 135.943C135.471 135.742 135.543 135.549 135.667 135.389C135.79 135.228 135.959 135.107 136.152 135.042C136.345 134.976 136.554 134.969 136.751 135.02C136.949 135.072 137.126 135.18 137.261 135.331C137.396 135.483 137.482 135.67 137.508 135.869C137.534 136.069 137.5 136.272 137.409 136.452C137.317 136.632 137.174 136.781 136.996 136.881L169.091 192.499Z" fill="#60A5F6"/>
<g opacity="0.5">
<path opacity="0.2" d="M103.374 15.662C124.514 9.99743 146.773 9.99743 167.914 15.662C189.054 21.3265 208.331 32.456 223.807 47.9319C239.283 63.4077 250.412 82.6846 256.077 103.825C261.741 124.965 261.741 147.224 256.077 168.365C250.412 189.505 239.283 208.782 223.807 224.258C208.331 239.734 189.054 250.863 167.914 256.528C146.773 262.192 124.514 262.192 103.374 256.528C82.2334 250.863 62.9566 239.734 47.4807 224.258C32.0049 208.782 20.8754 189.505 15.2108 168.365C9.54626 147.224 9.54626 124.965 15.2108 103.825C20.8754 82.6846 32.0049 63.4077 47.4807 47.9319C62.9566 32.456 82.2334 21.3265 103.374 15.662Z" fill="#4396F7" fill-opacity="0.6" stroke="#4396F7" stroke-width="2.15759"/>
<path opacity="0.2" d="M111.122 43.9897C127.186 39.6856 144.099 39.6856 160.163 43.9897C176.226 48.2939 190.874 56.7506 202.633 68.5098C214.392 80.2691 222.849 94.9165 227.153 110.98C231.457 127.043 231.457 143.957 227.153 160.02C222.849 176.084 214.392 190.731 202.633 202.49C190.874 214.249 176.226 222.706 160.163 227.01C144.099 231.315 127.186 231.315 111.122 227.01C95.0591 222.706 80.4117 214.249 68.6524 202.49C56.8932 190.731 48.4365 176.084 44.1323 160.02C39.8281 143.957 39.8281 127.043 44.1323 110.98C48.4365 94.9165 56.8932 80.2691 68.6524 68.5098C80.4117 56.7506 95.0591 48.2939 111.122 43.9897Z" fill="#4396F7" fill-opacity="0.6" stroke="#4396F7" stroke-width="2.15759"/>
<path opacity="0.2" d="M120.1 164.55L120.101 164.55L123.686 158.381C127.75 151.387 119.914 143.534 112.911 147.583L110.258 149.118C108.844 149.936 107.033 149.396 106.298 147.937C106.237 147.816 106.185 147.691 106.142 147.563L105.607 145.969C105.05 144.311 104.66 142.603 104.441 140.868L104.289 139.66C104.113 136.829 101.765 134.618 98.9234 134.618H88.1315C78.5071 134.618 71.5082 125.48 74.0164 116.188L76.2287 107.993C77.1983 104.4 79.0997 101.128 81.7404 98.5068L89.9939 90.314C97.9828 82.3838 107.986 76.6669 118.867 73.7729C129.805 70.8637 141.461 70.8637 152.398 73.7729C163.278 76.6666 173.336 82.4369 181.326 90.368C189.303 98.286 195.099 108.224 198.028 119.072C200.967 129.961 200.967 141.434 198.028 152.322C195.099 163.171 189.303 173.109 181.326 181.027C173.335 188.959 163.35 194.709 152.472 197.602L141.093 200.629C137.515 201.58 133.75 201.58 130.172 200.629C116.63 197.027 110.224 181.53 117.27 169.417L120.1 164.55Z" fill="#4396F7" fill-opacity="0.6" stroke="#4396F7" stroke-width="2.15759"/>
<path opacity="0.5" d="M127.4 105.321C132.802 103.874 138.49 103.874 143.892 105.321C149.293 106.769 154.219 109.613 158.173 113.567C162.128 117.521 164.972 122.447 166.419 127.849C167.866 133.251 167.866 138.938 166.419 144.34C164.972 149.742 162.128 154.667 158.173 158.622C154.219 162.576 149.293 165.42 143.892 166.867C138.49 168.315 132.802 168.315 127.4 166.867C121.999 165.42 117.073 162.576 113.119 158.622C109.164 154.667 106.321 149.742 104.873 144.34C103.426 138.938 103.426 133.251 104.873 127.849C106.321 122.447 109.164 117.521 113.119 113.567C117.073 109.613 121.999 106.769 127.4 105.321Z" fill="#4396F7" fill-opacity="0.6" stroke="#4396F7" stroke-width="2.15759"/>
<path opacity="0.1" d="M111.029 44.2371C127.154 39.9166 144.131 39.9166 160.256 44.2371C176.38 48.5576 191.083 57.0464 202.887 68.8503C214.691 80.6542 223.18 95.3572 227.5 111.482C231.821 127.606 231.821 144.584 227.5 160.708C223.18 176.832 214.691 191.535 202.887 203.339C191.083 215.143 176.38 223.632 160.256 227.952C144.131 232.273 127.154 232.273 111.029 227.952C94.905 223.632 80.202 215.143 68.3981 203.339C56.5943 191.535 48.1055 176.832 43.785 160.708C39.4644 144.584 39.4644 127.606 43.785 111.482C48.1055 95.3572 56.5943 80.6542 68.3981 68.8503C80.202 57.0464 94.905 48.5576 111.029 44.2371Z" stroke="#4396F7" stroke-width="1.4384"/>
<path d="M118.689 72.8113C129.797 69.8348 141.493 69.8348 152.602 72.8113C163.71 75.7877 173.839 81.6358 181.971 89.7677C190.103 97.8996 195.951 108.029 198.928 119.137C201.904 130.246 201.904 141.942 198.928 153.05C195.951 164.158 190.103 174.288 181.971 182.42C173.839 190.551 163.71 196.4 152.602 199.376C141.493 202.353 129.797 202.353 118.689 199.376C107.581 196.4 97.4514 190.551 89.3195 182.42C81.1876 174.288 75.3395 164.158 72.363 153.05C69.3865 141.942 69.3865 130.246 72.363 119.137C75.3395 108.029 81.1876 97.8996 89.3195 89.7677C97.4514 81.6358 107.581 75.7877 118.689 72.8113Z" stroke="#4396F7" stroke-width="0.719198"/>
<path d="M127.168 104.452C132.722 102.964 138.57 102.964 144.124 104.452C149.678 105.94 154.743 108.864 158.809 112.93C162.875 116.996 165.799 122.061 167.287 127.615C168.775 133.169 168.775 139.017 167.287 144.571C165.799 150.126 162.875 155.19 158.809 159.256C154.743 163.322 149.678 166.246 144.124 167.734C138.57 169.223 132.722 169.223 127.168 167.734C121.614 166.246 116.549 163.322 112.483 159.256C108.417 155.19 105.493 150.126 104.005 144.571C102.517 139.017 102.517 133.169 104.005 127.615C105.493 122.061 108.417 116.996 112.483 112.93C116.549 108.864 121.614 105.94 127.168 104.452Z" stroke="#4396F7" stroke-width="0.359599"/>
<path d="M135.07 133.952C135.446 133.851 135.842 133.851 136.218 133.952C136.595 134.052 136.938 134.25 137.213 134.526C137.488 134.801 137.686 135.144 137.787 135.52C137.888 135.896 137.888 136.292 137.787 136.669C137.686 137.045 137.488 137.388 137.213 137.663C136.938 137.938 136.595 138.136 136.218 138.237C135.842 138.338 135.446 138.338 135.07 138.237C134.694 138.136 134.351 137.938 134.076 137.663C133.8 137.388 133.602 137.045 133.501 136.669C133.401 136.292 133.401 135.896 133.501 135.52C133.602 135.144 133.8 134.801 134.076 134.526C134.351 134.25 134.694 134.052 135.07 133.952Z" fill="#0284D2"/>
<circle cx="101.644" cy="17.1816" r="10.9624" fill="white" stroke="#4396F7" stroke-width="1.4384"/>
<circle cx="167.914" cy="17.1816" r="10.9624" fill="white" stroke="#4396F7" stroke-width="1.4384"/>
<circle cx="221.875" cy="45.6591" r="10.9624" fill="white" stroke="#4396F7" stroke-width="1.4384"/>
<circle cx="256.168" cy="104.176" r="10.9624" fill="white" stroke="#4396F7" stroke-width="1.4384"/>
<circle cx="256.168" cy="168.851" r="10.9624" fill="white" stroke="#4396F7" stroke-width="1.4384"/>
<circle cx="224.445" cy="225.121" r="10.9624" fill="white" stroke="#4396F7" stroke-width="1.4384"/>
<circle cx="167.914" cy="259.366" r="10.9624" fill="white" stroke="#4396F7" stroke-width="1.4384"/>
<circle cx="105.402" cy="259.366" r="10.9624" fill="white" stroke="#4396F7" stroke-width="1.4384"/>
<circle cx="46.0409" cy="225.121" r="10.9624" fill="white" stroke="#4396F7" stroke-width="1.4384"/>
<circle cx="13.7734" cy="170.262" r="10.9624" fill="white" stroke="#4396F7" stroke-width="1.4384"/>
<circle cx="15.3183" cy="104.176" r="10.9624" fill="white" stroke="#4396F7" stroke-width="1.4384"/>
<circle cx="45.6601" cy="51.4872" r="10.9624" fill="white" stroke="#4396F7" stroke-width="1.4384"/>
<path d="M137.444 150.526H136.696C136.478 151.757 135.465 152.056 134.349 152.056V152.839H136.466V158.685H137.444V150.526Z" fill="black"/>
<path d="M135.856 218.831C136.04 218.808 136.247 218.797 136.443 218.797C137.41 218.797 138.181 219.338 138.181 220.362C138.181 221.351 137.364 221.938 136.409 221.938C135.292 221.938 134.706 221.202 134.671 220.143H133.693C133.658 221.823 134.752 222.801 136.409 222.801C137.939 222.801 139.216 221.95 139.216 220.316C139.216 219.338 138.733 218.555 137.743 218.336V218.313C138.365 218.026 138.871 217.404 138.871 216.691C138.871 215.183 137.801 214.505 136.386 214.505C134.752 214.505 133.923 215.586 133.865 217.14H134.844C134.855 216.185 135.315 215.368 136.386 215.368C137.214 215.368 137.835 215.828 137.835 216.679C137.835 217.565 137.11 218.014 136.282 218.014C136.144 218.014 136.006 218.014 135.856 218.003V218.831Z" fill="black"/>
<path d="M138.169 244.51H137.387L133.67 249.815V250.759H137.249V252.669H138.169V250.759H139.274V249.896H138.169V244.51ZM134.51 249.896L137.226 245.903H137.249V249.896H134.51Z" fill="black"/>
<path d="M166.9 14.9826C166.866 14.0045 167.349 12.9574 168.488 12.9574C169.351 12.9574 170.065 13.5443 170.065 14.4303C170.065 15.558 169.363 16.0643 167.982 16.9159C166.831 17.6293 165.853 18.3197 165.692 20.2529H171.02V19.3899H166.831C167.027 18.3773 168.097 17.8594 169.121 17.2381C170.134 16.6052 171.1 15.8802 171.1 14.4418C171.1 12.9229 169.973 12.0944 168.546 12.0944C166.82 12.0944 165.841 13.3256 165.922 14.9826H166.9Z" fill="black"/>
<path d="M103.165 12.0944H102.417C102.198 13.3256 101.185 13.6248 100.069 13.6248V14.4073H102.186V20.2529H103.165V12.0944Z" fill="black"/>
<path d="M221.645 45.2775C221.829 45.2545 222.036 45.243 222.232 45.243C223.198 45.243 223.969 45.7838 223.969 46.8079C223.969 47.7976 223.152 48.3844 222.197 48.3844C221.081 48.3844 220.494 47.648 220.46 46.5893H219.482C219.447 48.2694 220.54 49.2475 222.197 49.2475C223.728 49.2475 225.005 48.3959 225.005 46.7619C225.005 45.7838 224.522 45.0013 223.532 44.7827V44.7597C224.153 44.472 224.66 43.8506 224.66 43.1372C224.66 41.6297 223.59 40.9508 222.174 40.9508C220.54 40.9508 219.712 42.0325 219.654 43.5859H220.632C220.644 42.6308 221.104 41.8138 222.174 41.8138C223.003 41.8138 223.624 42.2741 223.624 43.1256C223.624 44.0117 222.899 44.4605 222.071 44.4605C221.933 44.4605 221.795 44.4605 221.645 44.449V45.2775Z" fill="black"/>
<path d="M43.4734 45.7125H42.7254C42.5068 46.9438 41.4941 47.243 40.3779 47.243V48.0255H42.4953V53.8711H43.4734V45.7125ZM47.2554 48.6008C47.2208 47.6227 47.7041 46.5756 48.8433 46.5756C49.7064 46.5756 50.4198 47.1624 50.4198 48.0485C50.4198 49.1762 49.7179 49.6825 48.337 50.534C47.1863 51.2475 46.2082 51.9379 46.0471 53.8711H51.3749V53.0081H47.1863C47.3819 51.9954 48.4521 51.4776 49.4762 50.8562C50.4889 50.2233 51.4555 49.4984 51.4555 48.06C51.4555 46.541 50.3278 45.7125 48.9009 45.7125C47.1748 45.7125 46.1967 46.9438 46.2772 48.6008H47.2554Z" fill="black"/>
<path d="M258.253 99.0231H257.47L253.753 104.328V105.271H257.332V107.182H258.253V105.271H259.357V104.408H258.253V99.0231ZM254.594 104.408L257.309 100.415H257.332V104.408H254.594Z" fill="black"/>
<path d="M258.84 163.373H254.812L254.053 167.608L254.893 167.654C255.272 167.193 255.79 166.883 256.412 166.883C257.505 166.883 258.253 167.654 258.253 168.735C258.253 170.036 257.459 170.669 256.527 170.669C255.549 170.669 254.87 170.036 254.812 169.196H253.834C253.869 170.669 255.019 171.532 256.435 171.532C258.333 171.532 259.288 170.197 259.288 168.816C259.288 166.952 258.103 166.02 256.653 166.02C256.101 166.02 255.491 166.204 255.134 166.607L255.111 166.584L255.549 164.236H258.84V163.373Z" fill="black"/>
<path d="M11.9363 163.965H11.1883C10.9697 165.197 9.95702 165.496 8.84083 165.496V166.278H10.9581V172.124H11.9363V163.965ZM14.7171 168.12C14.7171 169.915 14.8782 172.262 17.4328 172.262C19.9874 172.262 20.1485 169.915 20.1485 168.12C20.1485 166.313 19.9874 163.965 17.4328 163.965C14.8782 163.965 14.7171 166.313 14.7171 168.12ZM15.7528 168.108C15.7528 166.9 15.7643 164.828 17.4328 164.828C19.1014 164.828 19.1129 166.9 19.1129 168.108C19.1129 169.328 19.1014 171.399 17.4328 171.399C15.7643 171.399 15.7528 169.328 15.7528 168.108Z" fill="black"/>
<path d="M13.3952 98.5592H12.6473C12.4286 99.7905 11.416 100.09 10.2998 100.09V100.872H12.4171V106.718H13.3952V98.5592ZM19.7894 98.5592H19.0414C18.8228 99.7905 17.8101 100.09 16.6939 100.09V100.872H18.8112V106.718H19.7894V98.5592Z" fill="black"/>
<path d="M225 223.272C226.116 223.272 226.645 224.112 226.645 225.125C226.645 226.091 226.058 226.931 225 226.931C223.93 226.931 223.308 226.126 223.308 225.113C223.308 224.089 223.907 223.272 225 223.272ZM227.451 221.58C227.336 220.257 226.496 219.498 225.149 219.498C222.825 219.498 222.146 221.626 222.146 223.87C222.146 225.585 222.537 227.794 224.954 227.794C227.013 227.794 227.681 226.241 227.681 225.056C227.681 223.548 226.749 222.409 225.184 222.409C224.298 222.409 223.607 222.731 223.147 223.479L223.124 223.456C223.17 222.202 223.435 220.361 225.103 220.361C225.874 220.361 226.381 220.844 226.473 221.58H227.451Z" fill="black"/>
<path d="M48.0088 222.225C48.0088 223.191 47.3644 224.02 46.3403 224.02C45.3967 224.02 44.7293 223.191 44.7293 222.294C44.7293 221.293 45.1665 220.361 46.3288 220.361C47.422 220.361 48.0088 221.224 48.0088 222.225ZM43.8662 225.689C43.9928 227.092 44.9709 227.794 46.3403 227.794C48.3195 227.794 49.171 226.218 49.171 223.399C49.171 220.315 47.8937 219.498 46.3748 219.498C44.7983 219.498 43.6936 220.579 43.6936 222.156C43.6936 223.767 44.6142 224.883 46.2712 224.883C47.0652 224.883 47.7902 224.446 48.1584 223.755L48.1814 223.778C48.1239 225.884 47.537 226.931 46.3403 226.931C45.5578 226.931 44.9134 226.483 44.8443 225.689H43.8662Z" fill="black"/>
<path d="M171.273 254.031H165.991V254.952H170.272C168.557 256.77 167.234 259.29 167.05 262.052H168.143C168.292 259.497 169.627 256.505 171.273 254.871V254.031Z" fill="black"/>
<path d="M104.123 259.75C104.123 258.807 104.882 258.185 105.849 258.185C106.769 258.185 107.529 258.853 107.529 259.739C107.529 260.648 106.838 261.327 105.86 261.327C104.847 261.327 104.123 260.728 104.123 259.75ZM103.375 255.976C103.375 256.712 103.835 257.391 104.514 257.668C103.605 257.99 103.087 258.738 103.087 259.704C103.087 261.373 104.295 262.19 105.86 262.19C107.368 262.19 108.564 261.281 108.564 259.704C108.564 258.692 108.093 257.978 107.114 257.668C107.782 257.368 108.242 256.701 108.242 255.976C108.242 254.94 107.552 253.893 105.768 253.893C104.514 253.893 103.375 254.63 103.375 255.976ZM104.41 256.01C104.41 255.193 105.055 254.756 105.837 254.756C106.631 254.756 107.206 255.193 107.206 256.01C107.206 256.839 106.631 257.322 105.86 257.322C105.055 257.322 104.41 256.908 104.41 256.01Z" fill="black"/>
</g>
<path d="M169.592 192.396C160.081 198.375 148.067 201.862 136.553 201.862L136.553 168.625C136.553 168.625 146.592 168.5 153.072 163.5L169.592 192.396Z" fill="#F74343"/>
<path d="M53.686 183.271C45.2575 168.743 40.8367 152.249 40.8734 135.465L70.0318 135.528C70.0063 147.177 73.0744 158.624 78.924 168.706L53.686 183.271Z" fill="#F74343"/>
<path d="M183.593 52.5006C198.024 60.8706 210.322 73.2266 218.934 87.5399L191.999 102.123C186.252 92.5399 178.321 84.6428 168.593 79.0006L183.593 52.5006Z" fill="#F74343"/>
<path d="M219.09 183C206.09 208 184.09 218.5 184.09 218.5L169.09 192.5C179.063 186.915 186.724 177.82 192.59 168L219.09 183Z" fill="#F74343"/>
<path opacity="0.3" d="M54.0918 182.62C63.4427 198.08 73.5129 207.431 88.8748 217.501L136.092 135.501L54.0918 182.62Z" fill="white"/>
<path opacity="0.5" d="M134.83 185.609C134.796 184.631 135.279 183.583 136.418 183.583C137.281 183.583 137.995 184.17 137.995 185.056C137.995 186.184 137.293 186.69 135.912 187.542C134.761 188.255 133.783 188.946 133.622 190.879H138.95V190.016H134.761C134.957 189.003 136.027 188.485 137.051 187.864C138.064 187.231 139.03 186.506 139.03 185.068C139.03 183.549 137.903 182.72 136.476 182.72C134.75 182.72 133.771 183.952 133.852 185.609H134.83Z" fill="black"/>
<path opacity="0.5" d="M135.983 135.764L68.543 18.9258" stroke="#4396F7" stroke-width="0.719198"/>
<path opacity="0.5" d="M135.956 135.406L135.971 0.500977" stroke="#4396F7" stroke-width="0.719198"/>
<path opacity="0.5" d="M135.963 135.75L203.428 18.9258" stroke="#4396F7" stroke-width="0.719198"/>
<path opacity="0.5" d="M135.962 135.393L252.801 67.9531" stroke="#4396F7" stroke-width="0.719198"/>
<path opacity="0.5" d="M136.323 135.363L271.229 135.377" stroke="#4396F7" stroke-width="0.719198"/>
<path opacity="0.5" d="M135.976 135.37L252.801 202.835" stroke="#4396F7" stroke-width="0.719198"/>
<path opacity="0.5" d="M136.335 135.213L203.775 252.052" stroke="#4396F7" stroke-width="0.719198"/>
<path opacity="0.5" d="M136.366 135.574L136.352 270.479" stroke="#4396F7" stroke-width="0.719198"/>
<path opacity="0.5" d="M136.356 135.227L68.8906 252.052" stroke="#4396F7" stroke-width="0.719198"/>
<path opacity="0.5" d="M135.931 135.501L19.0918 202.941" stroke="#4396F7" stroke-width="0.719198"/>
<path opacity="0.5" d="M135.997 135.615L1.0918 135.601" stroke="#4396F7" stroke-width="0.719198"/>
<path opacity="0.5" d="M136.344 135.61L19.5195 68.1445" stroke="#4396F7" stroke-width="0.719198"/>
</svg>
