<svg width="205" height="205" viewBox="0 0 205 205" fill="none" xmlns="http://www.w3.org/2000/svg">
<g style="mix-blend-mode:darken" opacity="0.3">
<path fill-rule="evenodd" clip-rule="evenodd" d="M103.145 0.887029L103.115 7.75562C111.291 7.80251 119.461 8.91006 127.418 11.0774C135.358 13.2403 142.946 16.4208 150.004 20.5149L153.324 14.8196L153.756 15.0715L150.435 20.7669C157.443 24.8812 163.92 29.8994 169.691 35.7185C175.463 41.5385 180.428 48.0584 184.484 55.1007L190.374 51.7334L190.622 52.1675L184.732 55.5346C188.767 62.6252 191.883 70.2385 193.98 78.195C196.071 86.1306 197.111 94.2692 197.1 102.406L204.14 102.436L204.138 102.936L197.098 102.906C197.044 111.054 195.937 119.196 193.777 127.125C191.615 135.061 188.436 142.646 184.345 149.701L190.203 153.116L189.951 153.548L184.093 150.133C179.978 157.144 174.958 163.625 169.136 169.398C163.355 175.131 156.884 180.068 149.896 184.109L153.291 190.049L152.857 190.297L149.462 184.358C142.331 188.432 134.669 191.577 126.659 193.688C118.779 195.764 110.698 196.804 102.618 196.808L102.588 203.815L102.088 203.813L102.118 196.807C93.9131 196.767 85.7133 195.659 77.7289 193.484C69.8346 191.334 62.2879 188.177 55.2647 184.117L51.9065 189.877L51.4746 189.625L54.8325 183.866C47.7788 179.738 41.26 174.696 35.4557 168.843C29.7218 163.061 24.7843 156.589 20.7428 149.6L14.8576 152.964L14.6094 152.53L20.4936 149.166C16.4208 142.036 13.2769 134.375 11.1666 126.367C9.08706 118.475 8.04731 110.382 8.04648 102.291L1.09183 102.261L1.09396 101.761L8.04776 101.791C8.09025 93.5975 9.19789 85.4096 11.3698 77.4365C13.525 69.5249 16.6906 61.9625 20.7635 54.9261L15.0285 51.5824L15.2803 51.1505L21.0151 54.4941C25.1377 47.458 30.171 40.9549 36.0109 35.1633C41.7931 29.429 48.266 24.4913 55.2556 20.4496L51.9393 14.6487L52.3734 14.4006L55.6891 20.2005C62.8189 16.128 70.4793 12.9843 78.4874 10.8742C86.3961 8.79021 94.5064 7.75046 102.615 7.75408L102.645 0.884899L103.145 0.887029ZM11.8522 77.5679C13.9959 69.6986 17.1444 62.1767 21.1954 55.178L40.2062 66.2621C37.1202 71.6057 34.7205 77.3465 33.0847 83.3514C31.4317 89.4195 30.5878 95.6509 30.5537 101.886L8.54775 101.793C8.59006 93.6431 9.69184 85.4987 11.8522 77.5679ZM33.5671 83.4828C35.1914 77.5203 37.5741 71.8199 40.6382 66.514L59.6498 77.5986C57.5507 81.2493 55.9169 85.1684 54.8006 89.2663C53.6665 93.4294 53.0864 97.7044 53.0607 101.982L31.0537 101.889C31.0876 95.6965 31.9257 89.5086 33.5671 83.4828ZM40.8897 66.0819L59.9013 77.1664C62.0517 73.5125 64.6716 70.1343 67.7078 67.1232C70.6835 64.1722 74.0083 61.6239 77.596 59.5279L66.6738 40.4225C61.4228 43.4699 56.5588 47.1864 52.211 51.4983C47.8041 55.8687 44.0043 60.7746 40.8897 66.0819ZM55.283 89.3977C56.3878 85.3421 58.0046 81.4635 60.0818 77.8505L81.0379 90.0688C80.0242 91.8569 79.2328 93.7718 78.688 95.7719C78.1882 97.6067 77.9036 99.4849 77.8343 101.369C77.8255 101.609 77.8202 101.848 77.8183 102.088L53.5607 101.984C53.5862 97.75 54.1605 93.5185 55.283 89.3977ZM60.3332 77.4183L81.2889 89.6364C82.3545 87.8423 83.6472 86.1824 85.1416 84.7004C86.5734 83.2804 88.167 82.0469 89.8838 81.0219L77.8442 59.9619C74.2943 62.0364 71.0044 64.5581 68.0599 67.4782C65.0548 70.4584 62.4617 73.802 60.3332 77.4183ZM79.1704 95.9044C79.7038 93.9463 80.4783 92.0716 81.4704 90.321L101.006 101.711C100.991 101.754 100.977 101.797 100.965 101.841C100.934 101.954 100.915 102.07 100.909 102.186L78.3183 102.09C78.3201 101.856 78.3254 101.622 78.334 101.388C78.4019 99.5417 78.6808 97.7018 79.1704 95.9044ZM100.957 102.686L78.3195 102.59C78.3232 102.872 78.3317 103.155 78.3452 103.437C78.426 105.127 78.6836 106.81 79.1182 108.46C79.6577 110.507 80.4606 112.466 81.5001 114.29L101.11 103.079C101.046 102.961 100.996 102.835 100.961 102.704C100.96 102.698 100.958 102.692 100.957 102.686ZM101.416 103.48L81.7521 114.722C82.7554 116.401 83.9622 117.959 85.3512 119.36C86.8143 120.835 88.4544 122.11 90.2277 123.158L101.608 103.639C101.541 103.591 101.477 103.538 101.416 103.48ZM102.056 103.864L90.6607 123.408C92.3985 124.388 94.2578 125.154 96.1991 125.683C98.2349 126.238 100.325 126.522 102.417 126.535L102.513 103.946C102.386 103.941 102.259 103.922 102.135 103.888C102.109 103.881 102.082 103.873 102.056 103.864ZM103.014 103.888L102.917 126.533C104.88 126.506 106.841 126.24 108.755 125.735C110.803 125.196 112.762 124.393 114.586 123.353L103.375 103.742C103.261 103.804 103.14 103.853 103.014 103.888ZM103.776 103.435L115.018 123.101C116.697 122.098 118.255 120.891 119.655 119.502C121.1 118.07 122.351 116.468 123.387 114.738L103.853 103.349C103.828 103.379 103.802 103.407 103.776 103.435ZM104.112 102.922L123.64 114.307C124.65 112.536 125.438 110.638 125.979 108.654C126.518 106.674 126.802 104.641 126.829 102.606L104.225 102.51C104.215 102.58 104.201 102.649 104.182 102.718C104.163 102.787 104.14 102.855 104.112 102.922ZM104.219 102.01L126.831 102.106C126.824 101.142 126.76 100.179 126.638 99.2203C126.541 98.458 126.408 97.6992 126.238 96.9465C126.174 96.6631 126.105 96.3806 126.031 96.099C125.505 94.1041 124.73 92.1932 123.729 90.4094L104.108 101.626C104.139 101.7 104.165 101.776 104.186 101.855C104.2 101.906 104.211 101.958 104.219 102.01ZM103.845 101.201L123.48 89.9759C122.46 88.244 121.225 86.638 119.798 85.1989C118.368 83.7569 116.769 82.5066 115.042 81.4718L103.652 101.007C103.688 101.038 103.724 101.071 103.758 101.105C103.788 101.136 103.817 101.168 103.845 101.201ZM103.226 100.745L114.61 81.2192C112.838 80.2062 110.937 79.4168 108.95 78.8756C106.942 78.3284 104.88 78.0445 102.816 78.024L102.72 100.619C102.818 100.627 102.916 100.645 103.012 100.671C103.085 100.691 103.157 100.715 103.226 100.745ZM102.22 100.65L102.316 78.0241C100.325 78.0454 98.3357 78.3117 96.3938 78.8234C94.3467 79.3629 92.388 80.1655 90.5643 81.2048L101.775 100.816C101.893 100.751 102.018 100.702 102.149 100.667C102.172 100.661 102.196 100.655 102.22 100.65ZM101.374 101.121L90.1325 81.4568C88.4533 82.4602 86.8945 83.6672 85.4937 85.0564C84.0307 86.5073 82.7649 88.1322 81.7213 89.8885L101.245 101.272C101.285 101.219 101.328 101.169 101.374 101.121ZM21.447 54.7459L40.4578 65.83C43.5943 60.4851 47.4209 55.5446 51.8589 51.1432C56.2379 46.8005 61.1369 43.0574 66.4256 39.9884L55.5038 20.8837C48.5519 24.9037 42.114 29.8149 36.363 35.5183C30.5542 41.2791 25.5477 47.7475 21.447 54.7459ZM8.54648 102.293C8.5475 110.341 9.58175 118.39 11.6501 126.239C13.7492 134.206 16.8764 141.826 20.9277 148.918L40.0325 137.996C36.9312 132.566 34.5371 126.731 32.9299 120.632C31.3539 114.651 30.5618 108.519 30.5527 102.386L8.54648 102.293ZM31.0527 102.389C31.0619 108.477 31.8486 114.566 33.4134 120.504C35.0094 126.561 37.3868 132.355 40.4666 137.748L59.5721 126.826C57.4424 123.095 55.7982 119.086 54.6941 114.896C53.6218 110.827 53.0773 106.655 53.0602 102.482L31.0527 102.389ZM53.5602 102.484C53.5774 106.614 54.1164 110.742 55.1776 114.769C56.2705 118.917 57.8981 122.884 60.0062 126.578L81.0655 114.538C80.0046 112.677 79.1853 110.678 78.6347 108.588C78.1921 106.908 77.9294 105.194 77.8463 103.473C77.8321 103.178 77.8231 102.883 77.8195 102.588L53.5602 102.484ZM35.8107 168.491C30.1077 162.741 25.1968 156.303 21.1769 149.352L40.282 138.43C43.3508 143.718 47.0936 148.616 51.4359 152.995C55.8498 157.445 60.8062 161.281 66.1688 164.423L55.0843 183.434C48.0682 179.328 41.5841 174.313 35.8107 168.491ZM51.7909 152.643C47.4795 148.295 43.7633 143.432 40.7161 138.181L59.8222 127.259C61.9182 130.846 64.4663 134.171 67.417 137.146C70.4405 140.195 73.8341 142.824 77.5053 144.979L66.4206 163.991C61.0956 160.871 56.174 157.062 51.7909 152.643ZM67.772 136.794C64.8522 133.85 62.3307 130.56 60.2563 127.011L81.3175 114.97C82.3425 116.687 83.5761 118.281 84.9962 119.713C86.4901 121.219 88.1647 122.521 89.9754 123.591L77.7571 144.547C74.1235 142.414 70.7646 139.811 67.772 136.794ZM55.5166 183.685C62.5022 187.724 70.0083 190.863 77.8603 193.002C85.8024 195.165 93.9587 196.267 102.12 196.307L102.214 174.3C95.9666 174.269 89.7234 173.425 83.644 171.769C77.6565 170.138 71.9315 167.747 66.6011 164.674L55.5166 183.685ZM66.8529 164.242C72.1457 167.293 77.8303 169.667 83.7754 171.286C89.8125 172.931 96.0122 173.769 102.216 173.8L102.31 151.793C98.0204 151.77 93.7341 151.19 89.5601 150.053C85.4791 148.942 81.5755 147.317 77.9377 145.23L66.8529 164.242ZM78.1896 144.798C81.7897 146.863 85.6529 148.471 89.6915 149.571C93.8232 150.696 98.0661 151.271 102.312 151.293L102.415 127.036C100.28 127.023 98.1459 126.733 96.0678 126.167C94.0839 125.626 92.1839 124.843 90.4083 123.841L78.1896 144.798ZM126.532 193.204C118.694 195.269 110.657 196.304 102.62 196.308L102.714 174.301C108.834 174.289 114.955 173.497 120.924 171.924C127.025 170.316 132.86 167.921 138.292 164.819L149.214 183.924C142.121 187.977 134.499 191.105 126.532 193.204ZM120.797 171.44C114.87 173.002 108.793 173.789 102.716 173.801L102.81 151.794C106.971 151.774 111.131 151.229 115.19 150.16C119.381 149.055 123.39 147.411 127.122 145.28L138.044 164.385C132.65 167.466 126.855 169.844 120.797 171.44ZM115.063 149.676C111.046 150.735 106.93 151.274 102.812 151.294L102.915 127.035C104.922 127.007 106.926 126.736 108.883 126.22C110.973 125.669 112.973 124.849 114.835 123.788L126.874 144.846C123.18 146.955 119.211 148.583 115.063 149.676ZM149.648 183.675C156.598 179.656 163.034 174.745 168.784 169.043C174.574 163.301 179.568 156.854 183.661 149.881L164.65 138.796C161.521 144.116 157.707 149.034 153.287 153.418C148.91 157.759 144.012 161.501 138.725 164.57L149.648 183.675ZM138.477 164.136C143.726 161.089 148.589 157.373 152.935 153.063C157.324 148.71 161.111 143.827 164.218 138.544L145.207 127.46C143.064 131.089 140.458 134.444 137.44 137.437C134.465 140.387 131.141 142.935 127.555 145.03L138.477 164.136ZM127.307 144.596C130.855 142.522 134.144 140.001 137.088 137.082C140.074 134.12 142.654 130.799 144.775 127.208L123.82 114.991C122.762 116.759 121.483 118.395 120.008 119.858C118.576 121.278 116.983 122.511 115.267 123.536L127.307 144.596ZM193.294 126.994C191.144 134.888 187.983 142.432 183.913 149.449L164.902 138.364C168.006 133.002 170.419 127.239 172.061 121.21C173.702 115.185 174.546 109 174.592 102.81L196.598 102.904C196.544 111.008 195.443 119.107 193.294 126.994ZM171.579 121.078C169.948 127.065 167.552 132.788 164.47 138.113L145.459 127.029C147.577 123.359 149.224 119.417 150.347 115.294C151.469 111.175 152.049 106.947 152.086 102.714L174.092 102.808C174.046 108.955 173.208 115.096 171.579 121.078ZM149.865 115.162C148.753 119.243 147.123 123.145 145.027 126.777L124.072 114.559C125.105 112.751 125.909 110.813 126.461 108.787C127.013 106.764 127.302 104.687 127.33 102.609L151.586 102.712C151.549 106.901 150.975 111.086 149.865 115.162ZM196.6 102.404C196.611 94.3106 195.576 86.2155 193.497 78.3224C191.411 70.4083 188.311 62.8356 184.298 55.7828L165.193 66.7047C168.256 72.0956 170.623 77.8824 172.216 83.9293C173.804 89.9541 174.596 96.1325 174.593 102.31L196.6 102.404ZM174.093 102.308C174.096 96.1739 173.309 90.039 171.733 84.0567C170.151 78.0522 167.8 72.306 164.759 66.9529L145.655 77.8744C147.746 81.5656 149.363 85.5261 150.454 89.6636C151.538 93.7776 152.082 97.9958 152.088 102.214L174.093 102.308ZM151.588 102.212C151.582 98.0372 151.043 93.8626 149.97 89.791C148.891 85.6959 147.291 81.776 145.221 78.1226L124.163 90.161C125.186 91.9824 125.978 93.9335 126.514 95.9706C126.621 96.3731 126.716 96.7777 126.802 97.1839C126.939 97.838 127.05 98.4964 127.134 99.1572C127.259 100.137 127.324 101.123 127.331 102.109L151.588 102.212ZM169.336 36.0706C175.077 41.8595 180.015 48.3444 184.05 55.3489L164.945 66.2708C161.861 60.9293 158.091 55.9833 153.71 51.5663C149.33 47.1493 144.415 43.3379 139.099 40.2098L150.184 21.1988C157.153 25.2912 163.596 30.2826 169.336 36.0706ZM153.355 51.9184C157.705 56.3042 161.449 61.2153 164.511 66.519L145.407 77.4406C143.295 73.8 140.72 70.4279 137.731 67.414C134.74 64.3989 131.388 61.7943 127.764 59.6523L138.848 40.6417C144.126 43.7479 149.006 47.5325 153.355 51.9184ZM137.376 67.7661C140.334 70.7488 142.883 74.086 144.972 77.6888L123.914 89.7275C122.873 87.9575 121.611 86.3164 120.153 84.8458C118.692 83.3729 117.059 82.0959 115.294 81.0391L127.512 60.0843C131.099 62.2043 134.416 64.7821 137.376 67.7661ZM149.752 20.9468C142.732 16.8747 135.184 13.7112 127.286 11.5598C119.372 9.40401 111.246 8.30232 103.113 8.25562L103.02 30.2614C109.238 30.3 115.451 31.1437 121.502 32.7921C127.536 34.4356 133.302 36.8504 138.668 39.9577L149.752 20.9468ZM138.416 40.3896C133.088 37.3043 127.362 34.9065 121.371 33.2745C115.362 31.6377 109.192 30.7998 103.017 30.7614L102.924 52.7672C107.184 52.7973 111.441 53.3773 115.588 54.5068C119.714 55.6309 123.659 57.2798 127.332 59.4002L138.416 40.3896ZM127.08 59.8321C123.445 57.7337 119.54 56.1018 115.456 54.9892C111.352 53.8713 107.139 53.2972 102.922 53.2672L102.818 77.523C104.926 77.5437 107.031 77.8335 109.081 78.3922C111.111 78.945 113.052 79.7515 114.863 80.7866L127.08 59.8321ZM78.6148 11.3577C86.481 9.28489 94.5478 8.25065 102.613 8.25408L102.52 30.2601C96.3698 30.2646 90.2197 31.0568 84.2219 32.6372C78.1232 34.2443 72.2891 36.638 66.8589 39.7389L55.9373 20.6345C63.0293 16.5836 70.6491 13.4566 78.6148 11.3577ZM84.3493 33.1207C90.3047 31.5515 96.4112 30.7648 102.517 30.7601L102.424 52.7662C98.2335 52.7789 94.0441 53.3235 89.9574 54.4003C85.7678 55.5043 81.7598 57.1483 78.029 59.2778L67.1071 40.173C72.4995 37.0937 78.293 34.7166 84.3493 33.1207ZM90.0848 54.8838C94.129 53.8182 98.2749 53.2791 102.422 53.2662L102.318 77.5231C100.284 77.5442 98.2507 77.8161 96.2664 78.339C94.1766 78.8896 92.1773 79.709 90.3157 80.7699L78.2772 59.7119C81.9702 57.604 85.9376 55.9766 90.0848 54.8838Z" fill="#0284D2"/>
</g>
<g opacity="0.8">
<circle cx="102.318" cy="102.333" r="24.4209" fill="#4396F7" fill-opacity="0.1"/>
<circle cx="102.318" cy="102.333" r="49.3232" fill="#4396F7" fill-opacity="0.1"/>
<circle cx="102.319" cy="102.332" r="71.9546" fill="#4396F7" fill-opacity="0.1"/>
<circle cx="102.318" cy="102.333" r="94.3093" fill="#4396F7" fill-opacity="0.1"/>
</g>
<path d="M126.998 102.367C126.998 98.0841 125.875 93.8756 123.742 90.1617L102.498 102.367H126.998Z" fill="#4396F7"/>
<path d="M123.756 90.1863C121.626 86.4699 118.559 83.3767 114.862 81.2152L102.498 102.367L123.756 90.1863Z" fill="#4396F7"/>
<path d="M102.467 77.8672C98.1842 77.8723 93.9771 79.0002 90.2657 81.1385L102.496 102.367L102.467 77.8672Z" fill="#4396F7"/>
<path d="M90.13 81.2144C86.432 83.3757 83.3652 86.4687 81.2354 90.185L102.492 102.367L90.13 81.2144Z" fill="#4396F7"/>
<path d="M81.2076 90.2422C79.0878 93.9642 77.9809 98.1769 77.9972 102.46L102.497 102.367L81.2076 90.2422Z" fill="#4396F7"/>
<path d="M77.9986 102.524C78.0261 106.807 79.1761 111.008 81.3337 114.709L102.498 102.367L77.9986 102.524Z" fill="#4396F7"/>
<path d="M90.3853 123.663C94.1084 125.781 98.3217 126.886 102.605 126.867L102.499 102.367L90.3853 123.663Z" fill="#4396F7"/>
<path d="M102.664 126.867C106.947 126.838 111.148 125.686 114.847 123.528L102.499 102.367L102.664 126.867Z" fill="#C0D3E9"/>
<path d="M114.882 123.502C118.578 121.337 121.642 118.24 123.768 114.522L102.498 102.362L114.882 123.502Z" fill="#4396F7"/>
<path d="M123.789 114.492C125.908 110.77 127.015 106.558 126.999 102.274L102.499 102.367L123.789 114.492Z" fill="#4396F7"/>
<path d="M114.844 81.2055C111.145 79.0469 106.944 77.8958 102.661 77.8672L102.497 102.367L114.844 81.2055Z" fill="#4396F7"/>
<path d="M151.512 102.338C151.505 93.7684 149.25 85.3504 144.974 77.9237L123.904 90.0553C126.059 93.7983 127.195 98.041 127.199 102.36L151.512 102.338Z" fill="#4396F7"/>
<path d="M102.387 53.3634C93.8172 53.3813 85.4019 55.6456 77.9802 59.9304L90.1368 80.9864C93.8773 78.8268 98.1186 77.6856 102.438 77.6766L102.387 53.3634Z" fill="#4396F7"/>
<path d="M77.7378 60.0677C70.3402 64.394 64.2061 70.5842 59.9473 78.0207L81.0456 90.1036C83.1921 86.3556 86.2836 83.2357 90.012 81.0553L77.7378 60.0677Z" fill="#4396F7"/>
<path d="M59.9537 78.0196C55.6947 85.4561 53.4598 93.8793 53.4717 102.449L77.785 102.415C77.7789 98.0959 78.9053 93.8507 81.0519 90.1026L59.9537 78.0196Z" fill="#4396F7"/>
<path d="M78.1768 144.945C85.618 149.196 94.0436 151.421 102.613 151.4L102.553 127.087C98.2337 127.098 93.9872 125.976 90.2368 123.834L78.1768 144.945Z" fill="#4396F7"/>
<path d="M144.907 126.959C149.203 119.544 151.481 111.133 151.512 102.563L127.199 102.474C127.183 106.793 126.035 111.032 123.87 114.769L144.907 126.959Z" fill="#4396F7"/>
<path d="M127.031 59.9483C119.613 55.6576 111.2 53.3866 102.63 53.3619L102.56 77.6751C106.879 77.6875 111.119 78.8321 114.858 80.9946L127.031 59.9483Z" fill="#4396F7"/>
<mask id="mask0" mask-type="alpha" maskUnits="userSpaceOnUse" x="59" y="102" width="43" height="43">
<path d="M78.4914 144.591L101.729 102.809L59.8408 127.218C59.8408 127.218 61.979 131.14 68.0164 137.692C73.4836 143.626 78.4914 144.591 78.4914 144.591Z" fill="#F74343"/>
</mask>
<g mask="url(#mask0)">
<path fill-rule="evenodd" clip-rule="evenodd" d="M50.601 143.64L42.6059 177.152L44.1686 177.525L52.1636 144.013L50.601 143.64ZM84.8904 122.561L76.8954 156.072L78.458 156.445L86.4531 122.933L84.8904 122.561ZM111.185 134.992L119.18 101.481L120.743 101.854L112.748 135.365L111.185 134.992ZM67.7457 133.1L59.7506 166.612L61.3133 166.985L69.3084 133.473L67.7457 133.1ZM94.0401 145.532L102.035 112.021L103.598 112.393L95.6028 145.905L94.0401 145.532ZM136.325 90.941L128.33 124.453L129.892 124.825L137.887 91.3138L136.325 90.941ZM48.3208 173.638L56.3159 140.127L57.8785 140.5L49.8835 174.011L48.3208 173.638ZM90.6053 119.047L82.6103 152.559L84.1729 152.932L92.168 119.42L90.6053 119.047ZM116.9 131.479L124.895 97.9675L126.457 98.3403L118.462 131.852L116.9 131.479ZM73.4606 129.587L65.4655 163.099L67.0282 163.471L75.0233 129.96L73.4606 129.587ZM99.755 142.019L107.75 108.507L109.313 108.88L101.318 142.392L99.755 142.019ZM142.04 87.4277L134.044 120.939L135.607 121.312L143.602 87.8005L142.04 87.4277ZM54.0357 170.125L62.0308 136.614L63.5934 136.986L55.5984 170.498L54.0357 170.125ZM96.3203 115.534L88.3252 149.045L89.8879 149.418L97.8829 115.907L96.3203 115.534ZM122.615 127.966L130.61 94.4542L132.172 94.8271L124.177 128.339L122.615 127.966ZM79.1755 126.074L71.1805 159.585L72.7431 159.958L80.7382 126.447L79.1755 126.074ZM105.47 138.506L113.465 104.994L115.028 105.367L107.033 138.878L105.47 138.506ZM147.754 83.9144L139.759 117.426L141.322 117.799L149.317 84.2872L147.754 83.9144Z" fill="#4396F7"/>
<path fill-rule="evenodd" clip-rule="evenodd" d="M45.7006 123.015L37.7055 156.527L39.2682 156.9L47.2632 123.388L45.7006 123.015ZM79.99 101.936L71.995 135.447L73.5576 135.82L81.5527 102.308L79.99 101.936ZM106.284 114.367L114.28 80.8558L115.842 81.2286L107.847 114.74L106.284 114.367ZM62.8453 112.475L54.8502 145.987L56.4129 146.36L64.408 112.848L62.8453 112.475ZM89.1397 124.907L97.1348 91.3956L98.6974 91.7685L90.7024 125.28L89.1397 124.907ZM131.424 70.316L123.429 103.828L124.992 104.2L132.987 70.6888L131.424 70.316ZM43.4204 153.013L51.4155 119.502L52.9781 119.875L44.9831 153.386L43.4204 153.013ZM85.705 98.4222L77.7099 131.934L79.2726 132.307L87.2676 98.795L85.705 98.4222ZM111.999 110.854L119.994 77.3425L121.557 77.7153L113.562 111.227L111.999 110.854ZM68.5602 108.962L60.5652 142.474L62.1278 142.846L70.1229 109.335L68.5602 108.962ZM94.8546 121.394L102.85 87.8824L104.412 88.2552L96.4173 121.767L94.8546 121.394ZM137.139 66.8027L129.144 100.314L130.707 100.687L138.702 67.1755L137.139 66.8027ZM49.1353 149.5L57.1304 115.989L58.6931 116.361L50.698 149.873L49.1353 149.5ZM91.4199 94.9089L83.4248 128.42L84.9875 128.793L92.9825 95.2818L91.4199 94.9089ZM117.714 107.341L125.709 73.8292L127.272 74.2021L119.277 107.714L117.714 107.341ZM74.2751 105.449L66.2801 138.96L67.8427 139.333L75.8378 105.822L74.2751 105.449ZM100.57 117.881L108.565 84.3691L110.127 84.7419L102.132 118.253L100.57 117.881ZM142.854 63.2894L134.859 96.8009L136.422 97.1738L144.417 63.6622L142.854 63.2894Z" fill="#4396F7"/>
</g>
<g style="mix-blend-mode:screen">
<path fill-rule="evenodd" clip-rule="evenodd" d="M103.145 0.887029L103.115 7.75562C111.291 7.80251 119.461 8.91006 127.418 11.0774C135.358 13.2403 142.946 16.4208 150.004 20.5149L153.324 14.8196L153.756 15.0715L150.435 20.7669C157.443 24.8812 163.92 29.8994 169.691 35.7185C175.463 41.5385 180.428 48.0584 184.484 55.1007L190.374 51.7334L190.622 52.1675L184.732 55.5346C188.767 62.6252 191.883 70.2385 193.98 78.195C196.071 86.1306 197.111 94.2692 197.1 102.406L204.14 102.436L204.138 102.936L197.098 102.906C197.044 111.054 195.937 119.196 193.777 127.125C191.615 135.061 188.436 142.646 184.345 149.701L190.203 153.116L189.951 153.548L184.093 150.133C179.978 157.144 174.958 163.625 169.136 169.398C163.355 175.131 156.884 180.068 149.896 184.109L153.291 190.049L152.857 190.297L149.462 184.358C142.331 188.432 134.669 191.577 126.659 193.688C118.779 195.764 110.698 196.804 102.618 196.808L102.588 203.815L102.088 203.813L102.118 196.807C93.9131 196.767 85.7133 195.659 77.7289 193.484C69.8346 191.334 62.2879 188.177 55.2647 184.117L51.9065 189.877L51.4746 189.625L54.8325 183.866C47.7788 179.738 41.26 174.696 35.4557 168.843C29.7218 163.061 24.7843 156.589 20.7428 149.6L14.8576 152.964L14.6094 152.53L20.4936 149.166C16.4208 142.036 13.2769 134.375 11.1666 126.367C9.08706 118.475 8.04731 110.382 8.04648 102.291L1.09183 102.261L1.09396 101.761L8.04776 101.791C8.09025 93.5975 9.19789 85.4096 11.3698 77.4365C13.525 69.5249 16.6906 61.9625 20.7635 54.9261L15.0285 51.5824L15.2803 51.1505L21.0151 54.4941C25.1377 47.458 30.171 40.9549 36.0109 35.1633C41.7931 29.429 48.266 24.4913 55.2556 20.4496L51.9393 14.6487L52.3734 14.4006L55.6891 20.2005C62.8189 16.128 70.4793 12.9843 78.4874 10.8742C86.3961 8.79021 94.5064 7.75046 102.615 7.75408L102.645 0.884899L103.145 0.887029ZM11.8522 77.5679C13.9959 69.6986 17.1444 62.1767 21.1954 55.178L40.2062 66.2621C37.1202 71.6057 34.7205 77.3465 33.0847 83.3514C31.4317 89.4195 30.5878 95.6509 30.5537 101.886L8.54775 101.793C8.59006 93.6431 9.69184 85.4987 11.8522 77.5679ZM33.5671 83.4828C35.1914 77.5203 37.5741 71.8199 40.6382 66.514L59.6498 77.5986C57.5507 81.2493 55.9169 85.1684 54.8006 89.2663C53.6665 93.4294 53.0864 97.7044 53.0607 101.982L31.0537 101.889C31.0876 95.6965 31.9257 89.5086 33.5671 83.4828ZM40.8897 66.0819L59.9013 77.1664C62.0517 73.5125 64.6716 70.1343 67.7078 67.1232C70.6835 64.1722 74.0083 61.6239 77.596 59.5279L66.6738 40.4225C61.4228 43.4699 56.5588 47.1864 52.211 51.4983C47.8041 55.8687 44.0043 60.7746 40.8897 66.0819ZM55.283 89.3977C56.3878 85.3421 58.0046 81.4635 60.0818 77.8505L81.0379 90.0688C80.0242 91.8569 79.2328 93.7718 78.688 95.7719C78.1882 97.6067 77.9036 99.4849 77.8343 101.369C77.8255 101.609 77.8202 101.848 77.8183 102.088L53.5607 101.984C53.5862 97.75 54.1605 93.5185 55.283 89.3977ZM60.3332 77.4183L81.2889 89.6364C82.3545 87.8423 83.6472 86.1824 85.1416 84.7004C86.5734 83.2804 88.167 82.0469 89.8838 81.0219L77.8442 59.9619C74.2943 62.0364 71.0044 64.5581 68.0599 67.4782C65.0548 70.4584 62.4617 73.802 60.3332 77.4183ZM79.1704 95.9044C79.7038 93.9463 80.4783 92.0716 81.4704 90.321L101.006 101.711C100.991 101.754 100.977 101.797 100.965 101.841C100.934 101.954 100.915 102.07 100.909 102.186L78.3183 102.09C78.3201 101.856 78.3254 101.622 78.334 101.388C78.4019 99.5417 78.6808 97.7018 79.1704 95.9044ZM100.957 102.686L78.3195 102.59C78.3232 102.872 78.3317 103.155 78.3452 103.437C78.426 105.127 78.6836 106.81 79.1182 108.46C79.6577 110.507 80.4606 112.466 81.5001 114.29L101.11 103.079C101.046 102.961 100.996 102.835 100.961 102.704C100.96 102.698 100.958 102.692 100.957 102.686ZM101.416 103.48L81.7521 114.722C82.7554 116.401 83.9622 117.959 85.3512 119.36C86.8143 120.835 88.4544 122.11 90.2277 123.158L101.608 103.639C101.541 103.591 101.477 103.538 101.416 103.48ZM102.056 103.864L90.6607 123.408C92.3985 124.388 94.2578 125.154 96.1991 125.683C98.2349 126.238 100.325 126.522 102.417 126.535L102.513 103.946C102.386 103.941 102.259 103.922 102.135 103.888C102.109 103.881 102.082 103.873 102.056 103.864ZM103.014 103.888L102.917 126.533C104.88 126.506 106.841 126.24 108.755 125.735C110.803 125.196 112.762 124.393 114.586 123.353L103.375 103.742C103.261 103.804 103.14 103.853 103.014 103.888ZM103.776 103.435L115.018 123.101C116.697 122.098 118.255 120.891 119.655 119.502C121.1 118.07 122.351 116.468 123.387 114.738L103.853 103.349C103.828 103.379 103.802 103.407 103.776 103.435ZM104.112 102.922L123.64 114.307C124.65 112.536 125.438 110.638 125.979 108.654C126.518 106.674 126.802 104.641 126.829 102.606L104.225 102.51C104.215 102.58 104.201 102.649 104.182 102.718C104.163 102.787 104.14 102.855 104.112 102.922ZM104.219 102.01L126.831 102.106C126.824 101.142 126.76 100.179 126.638 99.2203C126.541 98.458 126.408 97.6992 126.238 96.9465C126.174 96.6631 126.105 96.3806 126.031 96.099C125.505 94.1041 124.73 92.1932 123.729 90.4094L104.108 101.626C104.139 101.7 104.165 101.776 104.186 101.855C104.2 101.906 104.211 101.958 104.219 102.01ZM103.845 101.201L123.48 89.9759C122.46 88.244 121.225 86.638 119.798 85.1989C118.368 83.7569 116.769 82.5066 115.042 81.4718L103.652 101.007C103.688 101.038 103.724 101.071 103.758 101.105C103.788 101.136 103.817 101.168 103.845 101.201ZM103.226 100.745L114.61 81.2192C112.838 80.2062 110.937 79.4168 108.95 78.8756C106.942 78.3284 104.88 78.0445 102.816 78.024L102.72 100.619C102.818 100.627 102.916 100.645 103.012 100.671C103.085 100.691 103.157 100.715 103.226 100.745ZM102.22 100.65L102.316 78.0241C100.325 78.0454 98.3357 78.3117 96.3938 78.8234C94.3467 79.3629 92.388 80.1655 90.5643 81.2048L101.775 100.816C101.893 100.751 102.018 100.702 102.149 100.667C102.172 100.661 102.196 100.655 102.22 100.65ZM101.374 101.121L90.1325 81.4568C88.4533 82.4602 86.8945 83.6672 85.4937 85.0564C84.0307 86.5073 82.7649 88.1322 81.7213 89.8885L101.245 101.272C101.285 101.219 101.328 101.169 101.374 101.121ZM21.447 54.7459L40.4578 65.83C43.5943 60.4851 47.4209 55.5446 51.8589 51.1432C56.2379 46.8005 61.1369 43.0574 66.4256 39.9884L55.5038 20.8837C48.5519 24.9037 42.114 29.8149 36.363 35.5183C30.5542 41.2791 25.5477 47.7475 21.447 54.7459ZM8.54648 102.293C8.5475 110.341 9.58175 118.39 11.6501 126.239C13.7492 134.206 16.8764 141.826 20.9277 148.918L40.0325 137.996C36.9312 132.566 34.5371 126.731 32.9299 120.632C31.3539 114.651 30.5618 108.519 30.5527 102.386L8.54648 102.293ZM31.0527 102.389C31.0619 108.477 31.8486 114.566 33.4134 120.504C35.0094 126.561 37.3868 132.355 40.4666 137.748L59.5721 126.826C57.4424 123.095 55.7982 119.086 54.6941 114.896C53.6218 110.827 53.0773 106.655 53.0602 102.482L31.0527 102.389ZM53.5602 102.484C53.5774 106.614 54.1164 110.742 55.1776 114.769C56.2705 118.917 57.8981 122.884 60.0062 126.578L81.0655 114.538C80.0046 112.677 79.1853 110.678 78.6347 108.588C78.1921 106.908 77.9294 105.194 77.8463 103.473C77.8321 103.178 77.8231 102.883 77.8195 102.588L53.5602 102.484ZM35.8107 168.491C30.1077 162.741 25.1968 156.303 21.1769 149.352L40.282 138.43C43.3508 143.718 47.0936 148.616 51.4359 152.995C55.8498 157.445 60.8062 161.281 66.1688 164.423L55.0843 183.434C48.0682 179.328 41.5841 174.313 35.8107 168.491ZM51.7909 152.643C47.4795 148.295 43.7633 143.432 40.7161 138.181L59.8222 127.259C61.9182 130.846 64.4663 134.171 67.417 137.146C70.4405 140.195 73.8341 142.824 77.5053 144.979L66.4206 163.991C61.0956 160.871 56.174 157.062 51.7909 152.643ZM67.772 136.794C64.8522 133.85 62.3307 130.56 60.2563 127.011L81.3175 114.97C82.3425 116.687 83.5761 118.281 84.9962 119.713C86.4901 121.219 88.1647 122.521 89.9754 123.591L77.7571 144.547C74.1235 142.414 70.7646 139.811 67.772 136.794ZM55.5166 183.685C62.5022 187.724 70.0083 190.863 77.8603 193.002C85.8024 195.165 93.9587 196.267 102.12 196.307L102.214 174.3C95.9666 174.269 89.7234 173.425 83.644 171.769C77.6565 170.138 71.9315 167.747 66.6011 164.674L55.5166 183.685ZM66.8529 164.242C72.1457 167.293 77.8303 169.667 83.7754 171.286C89.8125 172.931 96.0122 173.769 102.216 173.8L102.31 151.793C98.0204 151.77 93.7341 151.19 89.5601 150.053C85.4791 148.942 81.5755 147.317 77.9377 145.23L66.8529 164.242ZM78.1896 144.798C81.7897 146.863 85.6529 148.471 89.6915 149.571C93.8232 150.696 98.0661 151.271 102.312 151.293L102.415 127.036C100.28 127.023 98.1459 126.733 96.0678 126.167C94.0839 125.626 92.1839 124.843 90.4083 123.841L78.1896 144.798ZM126.532 193.204C118.694 195.269 110.657 196.304 102.62 196.308L102.714 174.301C108.834 174.289 114.955 173.497 120.924 171.924C127.025 170.316 132.86 167.921 138.292 164.819L149.214 183.924C142.121 187.977 134.499 191.105 126.532 193.204ZM120.797 171.44C114.87 173.002 108.793 173.789 102.716 173.801L102.81 151.794C106.971 151.774 111.131 151.229 115.19 150.16C119.381 149.055 123.39 147.411 127.122 145.28L138.044 164.385C132.65 167.466 126.855 169.844 120.797 171.44ZM115.063 149.676C111.046 150.735 106.93 151.274 102.812 151.294L102.915 127.035C104.922 127.007 106.926 126.736 108.883 126.22C110.973 125.669 112.973 124.849 114.835 123.788L126.874 144.846C123.18 146.955 119.211 148.583 115.063 149.676ZM149.648 183.675C156.598 179.656 163.034 174.745 168.784 169.043C174.574 163.301 179.568 156.854 183.661 149.881L164.65 138.796C161.521 144.116 157.707 149.034 153.287 153.418C148.91 157.759 144.012 161.501 138.725 164.57L149.648 183.675ZM138.477 164.136C143.726 161.089 148.589 157.373 152.935 153.063C157.324 148.71 161.111 143.827 164.218 138.544L145.207 127.46C143.064 131.089 140.458 134.444 137.44 137.437C134.465 140.387 131.141 142.935 127.555 145.03L138.477 164.136ZM127.307 144.596C130.855 142.522 134.144 140.001 137.088 137.082C140.074 134.12 142.654 130.799 144.775 127.208L123.82 114.991C122.762 116.759 121.483 118.395 120.008 119.858C118.576 121.278 116.983 122.511 115.267 123.536L127.307 144.596ZM193.294 126.994C191.144 134.888 187.983 142.432 183.913 149.449L164.902 138.364C168.006 133.002 170.419 127.239 172.061 121.21C173.702 115.185 174.546 109 174.592 102.81L196.598 102.904C196.544 111.008 195.443 119.107 193.294 126.994ZM171.579 121.078C169.948 127.065 167.552 132.788 164.47 138.113L145.459 127.029C147.577 123.359 149.224 119.417 150.347 115.294C151.469 111.175 152.049 106.947 152.086 102.714L174.092 102.808C174.046 108.955 173.208 115.096 171.579 121.078ZM149.865 115.162C148.753 119.243 147.123 123.145 145.027 126.777L124.072 114.559C125.105 112.751 125.909 110.813 126.461 108.787C127.013 106.764 127.302 104.687 127.33 102.609L151.586 102.712C151.549 106.901 150.975 111.086 149.865 115.162ZM196.6 102.404C196.611 94.3106 195.576 86.2155 193.497 78.3224C191.411 70.4083 188.311 62.8356 184.298 55.7828L165.193 66.7047C168.256 72.0956 170.623 77.8824 172.216 83.9293C173.804 89.9541 174.596 96.1325 174.593 102.31L196.6 102.404ZM174.093 102.308C174.096 96.1739 173.309 90.039 171.733 84.0567C170.151 78.0522 167.8 72.306 164.759 66.9529L145.655 77.8744C147.746 81.5656 149.363 85.5261 150.454 89.6636C151.538 93.7776 152.082 97.9958 152.088 102.214L174.093 102.308ZM151.588 102.212C151.582 98.0372 151.043 93.8626 149.97 89.791C148.891 85.6959 147.291 81.776 145.221 78.1226L124.163 90.161C125.186 91.9824 125.978 93.9335 126.514 95.9706C126.621 96.3731 126.716 96.7777 126.802 97.1839C126.939 97.838 127.05 98.4964 127.134 99.1572C127.259 100.137 127.324 101.123 127.331 102.109L151.588 102.212ZM169.336 36.0706C175.077 41.8595 180.015 48.3444 184.05 55.3489L164.945 66.2708C161.861 60.9293 158.091 55.9833 153.71 51.5663C149.33 47.1493 144.415 43.3379 139.099 40.2098L150.184 21.1988C157.153 25.2912 163.596 30.2826 169.336 36.0706ZM153.355 51.9184C157.705 56.3042 161.449 61.2153 164.511 66.519L145.407 77.4406C143.295 73.8 140.72 70.4279 137.731 67.414C134.74 64.3989 131.388 61.7943 127.764 59.6523L138.848 40.6417C144.126 43.7479 149.006 47.5325 153.355 51.9184ZM137.376 67.7661C140.334 70.7488 142.883 74.086 144.972 77.6888L123.914 89.7275C122.873 87.9575 121.611 86.3164 120.153 84.8458C118.692 83.3729 117.059 82.0959 115.294 81.0391L127.512 60.0843C131.099 62.2043 134.416 64.7821 137.376 67.7661ZM149.752 20.9468C142.732 16.8747 135.184 13.7112 127.286 11.5598C119.372 9.40401 111.246 8.30232 103.113 8.25562L103.02 30.2614C109.238 30.3 115.451 31.1437 121.502 32.7921C127.536 34.4356 133.302 36.8504 138.668 39.9577L149.752 20.9468ZM138.416 40.3896C133.088 37.3043 127.362 34.9065 121.371 33.2745C115.362 31.6377 109.192 30.7998 103.017 30.7614L102.924 52.7672C107.184 52.7973 111.441 53.3773 115.588 54.5068C119.714 55.6309 123.659 57.2798 127.332 59.4002L138.416 40.3896ZM127.08 59.8321C123.445 57.7337 119.54 56.1018 115.456 54.9892C111.352 53.8713 107.139 53.2972 102.922 53.2672L102.818 77.523C104.926 77.5437 107.031 77.8335 109.081 78.3922C111.111 78.945 113.052 79.7515 114.863 80.7866L127.08 59.8321ZM78.6148 11.3577C86.481 9.28489 94.5478 8.25065 102.613 8.25408L102.52 30.2601C96.3698 30.2646 90.2197 31.0568 84.2219 32.6372C78.1232 34.2443 72.2891 36.638 66.8589 39.7389L55.9373 20.6345C63.0293 16.5836 70.6491 13.4566 78.6148 11.3577ZM84.3493 33.1207C90.3047 31.5515 96.4112 30.7648 102.517 30.7601L102.424 52.7662C98.2335 52.7789 94.0441 53.3235 89.9574 54.4003C85.7678 55.5043 81.7598 57.1483 78.029 59.2778L67.1071 40.173C72.4995 37.0937 78.293 34.7166 84.3493 33.1207ZM90.0848 54.8838C94.129 53.8182 98.2749 53.2791 102.422 53.2662L102.318 77.5231C100.284 77.5442 98.2507 77.8161 96.2664 78.339C94.1766 78.8896 92.1773 79.709 90.3157 80.7699L78.2772 59.7119C81.9702 57.604 85.9376 55.9766 90.0848 54.8838Z" fill="white"/>
</g>
<circle cx="77.3893" cy="12.7953" r="8.23979" transform="rotate(0.237983 77.3893 12.7953)" fill="white" stroke="#4396F7" stroke-width="1.08116"/>
<circle cx="127.2" cy="13.0013" r="8.23979" transform="rotate(0.237983 127.2 13.0013)" fill="white" stroke="#4396F7" stroke-width="1.08116"/>
<circle cx="167.67" cy="34.5746" r="8.23979" transform="rotate(0.237983 167.67 34.5746)" fill="white" stroke="#4396F7" stroke-width="1.08116"/>
<circle cx="193.263" cy="78.6644" r="8.23979" transform="rotate(0.237983 193.263 78.6644)" fill="white" stroke="#4396F7" stroke-width="1.08116"/>
<circle cx="193.061" cy="127.278" r="8.23979" transform="rotate(0.237983 193.061 127.278)" fill="white" stroke="#4396F7" stroke-width="1.08116"/>
<circle cx="169.043" cy="169.473" r="8.23979" transform="rotate(0.237983 169.043 169.473)" fill="white" stroke="#4396F7" stroke-width="1.08116"/>
<circle cx="126.443" cy="195.036" r="8.23979" transform="rotate(0.237983 126.443 195.036)" fill="white" stroke="#4396F7" stroke-width="1.08116"/>
<circle cx="79.4577" cy="194.841" r="8.23979" transform="rotate(0.237983 79.4577 194.841)" fill="white" stroke="#4396F7" stroke-width="1.08116"/>
<circle cx="34.946" cy="168.916" r="8.23979" transform="rotate(0.237983 34.946 168.916)" fill="white" stroke="#4396F7" stroke-width="1.08116"/>
<circle cx="10.8639" cy="127.58" r="8.23979" transform="rotate(0.237983 10.8639 127.58)" fill="white" stroke="#4396F7" stroke-width="1.08116"/>
<circle cx="12.2331" cy="77.9125" r="8.23979" transform="rotate(0.237983 12.2331 77.9125)" fill="white" stroke="#4396F7" stroke-width="1.08116"/>
<circle cx="35.2018" cy="38.4056" r="8.23979" transform="rotate(0.237983 35.2018 38.4056)" fill="white" stroke="#4396F7" stroke-width="1.08116"/>
<path d="M103.881 113.12L103.319 113.117C103.151 114.042 102.389 114.264 101.55 114.26L101.548 114.849L103.139 114.855L103.121 119.249L103.856 119.252L103.881 113.12Z" fill="black"/>
<path d="M101.808 139.481C101.786 138.745 102.152 137.96 103.008 137.963C103.657 137.966 104.191 138.409 104.189 139.075C104.185 139.923 103.656 140.301 102.615 140.937C101.748 141.47 101.011 141.986 100.884 143.438L104.888 143.455L104.891 142.806L101.743 142.793C101.893 142.033 102.699 141.647 103.471 141.183C104.234 140.71 104.963 140.168 104.967 139.087C104.972 137.946 104.127 137.319 103.054 137.315C101.757 137.31 101.018 138.232 101.073 139.478L101.808 139.481Z" fill="black"/>
<path d="M102.474 164.456C102.613 164.439 102.768 164.431 102.915 164.432C103.642 164.435 104.22 164.844 104.216 165.613C104.213 166.357 103.597 166.796 102.88 166.793C102.041 166.789 101.602 166.234 101.579 165.438L100.844 165.435C100.813 166.698 101.631 167.436 102.877 167.441C104.027 167.446 104.99 166.81 104.995 165.582C104.998 164.847 104.637 164.257 103.894 164.09L103.894 164.072C104.362 163.858 104.745 163.393 104.747 162.856C104.752 161.723 103.949 161.21 102.886 161.205C101.657 161.2 101.031 162.011 100.983 163.178L101.718 163.181C101.73 162.463 102.078 161.851 102.883 161.854C103.506 161.857 103.971 162.204 103.969 162.844C103.966 163.51 103.419 163.846 102.797 163.843C102.693 163.843 102.589 163.842 102.477 163.833L102.474 164.456Z" fill="black"/>
<path d="M104.132 183.764L103.544 183.761L100.734 187.737L100.731 188.446L103.421 188.457L103.415 189.893L104.107 189.896L104.113 188.46L104.943 188.464L104.946 187.815L104.116 187.811L104.132 183.764ZM101.365 187.8L103.419 184.807L103.436 184.807L103.424 187.809L101.365 187.8Z" fill="black"/>
<path d="M126.1 11.3516C126.077 10.6163 126.443 9.83076 127.3 9.83432C127.948 9.83701 128.483 10.2803 128.48 10.9463C128.477 11.794 127.947 12.1723 126.907 12.8081C126.04 13.3407 125.302 13.8566 125.175 15.3092L129.18 15.3258L129.182 14.6771L126.034 14.6641C126.184 13.9035 126.99 13.5177 127.762 13.0538C128.525 12.5813 129.254 12.0394 129.258 10.9582C129.263 9.81653 128.418 9.19026 127.346 9.18581C126.048 9.18042 125.309 10.1028 125.365 11.3486L126.1 11.3516Z" fill="black"/>
<path d="M78.202 8.98179L77.6398 8.97946C77.4717 9.90424 76.7096 10.126 75.8706 10.1225L75.8682 10.7106L77.4596 10.7172L77.4414 15.111L78.1766 15.1141L78.202 8.98179Z" fill="black"/>
<path d="M167.153 34.2924C167.292 34.2757 167.447 34.2677 167.594 34.2683C168.321 34.2713 168.899 34.6802 168.896 35.45C168.892 36.1939 168.276 36.6324 167.559 36.6294C166.72 36.6259 166.281 36.0706 166.258 35.2747L165.523 35.2717C165.492 36.5343 166.31 37.2729 167.556 37.2781C168.706 37.2829 169.669 36.6468 169.674 35.4187C169.677 34.6835 169.316 34.0938 168.573 33.9264L168.573 33.9091C169.041 33.6948 169.424 33.2293 169.426 32.6931C169.431 31.56 168.628 31.0464 167.565 31.042C166.336 31.0369 165.71 31.8473 165.662 33.0148L166.397 33.0178C166.409 32.3 166.757 31.6873 167.562 31.6907C168.185 31.6932 168.65 32.0412 168.648 32.6812C168.645 33.3472 168.098 33.6822 167.476 33.6797C167.372 33.6792 167.268 33.6788 167.156 33.6697L167.153 34.2924Z" fill="black"/>
<path d="M35.0155 37.908C35.8545 37.9115 36.2497 38.5445 36.2465 39.3057C36.2435 40.0322 35.7998 40.6618 35.0041 40.6585C34.1997 40.6551 33.7351 40.0477 33.7383 39.2866C33.7415 38.5168 34.1938 37.9046 35.0155 37.908ZM36.863 36.6442C36.7807 35.6492 36.1517 35.0757 35.1397 35.0715C33.3926 35.0643 32.8756 36.6623 32.8686 38.3489C32.8633 39.6376 33.1504 41.2995 34.9668 41.307C36.515 41.3134 37.0215 40.1479 37.0252 39.257C37.0299 38.124 36.3329 37.2648 35.1566 37.2599C34.4906 37.2571 33.9706 37.4972 33.6223 38.0579L33.6051 38.0405C33.6436 37.0979 33.8483 35.7149 35.1024 35.7201C35.6819 35.7225 36.061 36.0873 36.1279 36.6412L36.863 36.6442Z" fill="black"/>
<path d="M194.501 74.8044L193.913 74.8019L191.102 78.7776L191.099 79.4868L193.789 79.498L193.783 80.9338L194.475 80.9367L194.481 79.5009L195.312 79.5043L195.314 78.8556L194.484 78.8522L194.501 74.8044ZM191.734 78.8408L193.787 75.848L193.805 75.848L193.792 78.8493L191.734 78.8408Z" fill="black"/>
<path d="M194.741 124.174L191.714 124.161L191.13 127.342L191.761 127.379C192.048 127.034 192.438 126.802 192.905 126.804C193.727 126.808 194.287 127.389 194.283 128.202C194.279 129.18 193.681 129.653 192.98 129.65C192.245 129.647 191.737 129.169 191.696 128.538L190.961 128.535C190.982 129.642 191.844 130.294 192.908 130.298C194.335 130.304 195.057 129.304 195.062 128.266C195.067 126.865 194.18 126.161 193.09 126.156C192.675 126.154 192.216 126.291 191.946 126.593L191.929 126.575L192.265 124.812L194.739 124.822L194.741 124.174Z" fill="black"/>
<path d="M9.58083 128.513C9.58378 127.804 10.1566 127.339 10.8831 127.342C11.575 127.345 12.1438 127.849 12.141 128.515C12.1382 129.198 11.6171 129.706 10.8819 129.703C10.1208 129.7 9.57778 129.248 9.58083 128.513ZM9.03042 125.674C9.02812 126.227 9.37197 126.739 9.88141 126.949C9.19711 127.188 8.80556 127.748 8.80255 128.475C8.79734 129.729 9.70295 130.347 10.8792 130.352C12.0123 130.357 12.9146 129.677 12.9196 128.492C12.9227 127.731 12.5703 127.193 11.8361 126.957C12.3387 126.734 12.6868 126.234 12.689 125.689C12.6923 124.91 12.1766 124.121 10.836 124.116C9.89319 124.112 9.03462 124.662 9.03042 125.674ZM9.80874 125.703C9.81129 125.089 10.297 124.762 10.8852 124.764C11.482 124.767 11.913 125.097 11.9105 125.711C11.9079 126.334 11.4739 126.696 10.8944 126.693C10.289 126.691 9.80594 126.377 9.80874 125.703Z" fill="black"/>
<path d="M14.1831 74.8098L10.2132 74.7933L10.2103 75.4853L13.4278 75.4986C12.1334 76.8599 11.1309 78.7499 10.9838 80.8251L11.8055 80.8286C11.9259 78.9089 12.9386 76.6643 14.1805 75.4412L14.1831 74.8098Z" fill="black"/>
<path d="M167.333 166.246L166.771 166.244C166.603 167.169 165.841 167.39 165.002 167.387L164.999 167.975L166.591 167.982L166.573 172.375L167.308 172.379L167.333 166.246ZM170.167 168.429C170.144 167.694 170.511 166.908 171.367 166.912C172.015 166.914 172.55 167.358 172.547 168.024C172.544 168.871 172.014 169.25 170.974 169.885C170.107 170.418 169.369 170.934 169.242 172.387L173.247 172.403L173.25 171.754L170.101 171.741C170.251 170.981 171.057 170.595 171.829 170.131C172.592 169.659 173.321 169.117 173.326 168.036C173.33 166.894 172.485 166.268 171.413 166.263C170.115 166.258 169.376 167.18 169.432 168.426L170.167 168.429Z" fill="black"/>
<path d="M36.088 167.318C36.0849 168.044 35.598 168.665 34.8282 168.662C34.119 168.659 33.6199 168.034 33.6227 167.359C33.6258 166.607 33.9574 165.908 34.831 165.911C35.6527 165.915 36.0911 166.565 36.088 167.318ZM32.9634 169.908C33.0542 170.964 33.7872 171.494 34.8164 171.499C36.3041 171.505 36.9491 170.323 36.9579 168.204C36.9675 165.886 36.01 165.268 34.8683 165.263C33.6833 165.258 32.8496 166.067 32.8447 167.252C32.8397 168.463 33.5281 169.305 34.7736 169.31C35.3704 169.313 35.9167 168.986 36.1956 168.469L36.2129 168.486C36.163 170.069 35.7187 170.854 34.8191 170.85C34.231 170.848 33.748 170.508 33.6986 169.911L32.9634 169.908Z" fill="black"/>
<path d="M124.913 191.923L124.351 191.921C124.183 192.845 123.421 193.067 122.582 193.064L122.579 193.652L124.171 193.658L124.153 198.052L124.888 198.055L124.913 191.923ZM129.719 191.943L129.157 191.941C128.989 192.865 128.227 193.087 127.388 193.084L127.385 193.672L128.977 193.678L128.959 198.072L129.694 198.075L129.719 191.943Z" fill="black"/>
<path d="M77.718 191.728L77.1558 191.725C76.9876 192.65 76.2255 192.872 75.3865 192.868L75.3841 193.456L76.9756 193.463L76.9573 197.857L77.6925 197.86L77.718 191.728ZM79.7952 194.859C79.7896 196.208 79.9033 197.973 81.8235 197.981C83.7436 197.989 83.872 196.225 83.8776 194.876C83.8833 193.518 83.7695 191.753 81.8494 191.745C79.9293 191.737 79.8008 193.501 79.7952 194.859ZM80.5737 194.853C80.5774 193.945 80.5925 192.388 81.8467 192.394C83.1008 192.399 83.103 193.956 83.0992 194.864C83.0954 195.781 83.0803 197.337 81.8262 197.332C80.572 197.327 80.5699 195.77 80.5737 194.853Z" fill="black"/>
</svg>
