<svg width="205" height="205" viewBox="0 0 205 205" fill="none" xmlns="http://www.w3.org/2000/svg">
<g style="mix-blend-mode:darken" opacity="0.3">
<path fill-rule="evenodd" clip-rule="evenodd" d="M103.441 0.821599L103.411 7.69019C111.587 7.73708 119.757 8.84463 127.714 11.012C135.654 13.1749 143.242 16.3554 150.3 20.4494L153.62 14.7542L154.052 15.006L150.731 20.7015C157.738 24.8158 164.216 29.834 169.987 35.6531C175.759 41.4731 180.723 47.993 184.78 55.0353L190.67 51.668L190.918 52.102L185.028 55.4692C189.063 62.5598 192.179 70.1731 194.276 78.1296C196.367 86.0651 197.407 94.2038 197.396 102.34L204.436 102.37L204.434 102.87L197.394 102.84C197.34 110.989 196.233 119.13 194.073 127.06C191.911 134.996 188.732 142.581 184.641 149.635L190.499 153.051L190.247 153.483L184.389 150.067C180.274 157.078 175.253 163.559 169.432 169.333C163.651 175.066 157.179 180.003 150.192 184.044L153.587 189.984L153.153 190.232L149.758 184.293C142.627 188.367 134.965 191.512 126.955 193.622C119.075 195.699 110.994 196.738 102.914 196.742L102.884 203.749L102.384 203.747L102.414 196.741C94.209 196.702 86.0092 195.594 78.0248 193.419C70.1305 191.268 62.5838 188.112 55.5606 184.052L52.2024 189.812L51.7705 189.56L55.1284 183.801C48.0747 179.673 41.5559 174.63 35.7516 168.778C30.0177 162.996 25.0802 156.524 21.0387 149.534L15.1535 152.899L14.9053 152.465L20.7895 149.101C16.7167 141.971 13.5727 134.31 11.4625 126.301C9.38296 118.41 8.34321 110.317 8.34238 102.225L1.38772 102.196L1.38985 101.696L8.34365 101.725C8.38615 93.532 9.49379 85.3442 11.6657 77.3711C13.8209 69.4594 16.9865 61.897 21.0594 54.8607L15.3244 51.517L15.5762 51.085L21.311 54.4286C25.4336 47.3926 30.4669 40.8895 36.3068 35.0978C42.089 29.3636 48.5619 24.4258 55.5515 20.3842L52.2352 14.5833L52.6693 14.3351L55.985 20.135C63.1148 16.0625 70.7752 12.9189 78.7833 10.8087C86.692 8.72478 94.8023 7.68503 102.911 7.68865L102.941 0.819469L103.441 0.821599ZM12.1481 77.5025C14.2918 69.6332 17.4403 62.1113 21.4913 55.1126L40.5021 66.1967C37.4161 71.5403 35.0164 77.2811 33.3806 83.286C31.7276 89.3541 30.8837 95.5855 30.8496 101.821L8.84365 101.727C8.88596 93.5777 9.98774 85.4333 12.1481 77.5025ZM33.863 83.4174C35.4873 77.4549 37.87 71.7545 40.9341 66.4486L59.9457 77.5332C57.8466 81.1838 56.2128 85.1029 55.0965 89.2009C53.9624 93.364 53.3823 97.6389 53.3566 101.917L31.3496 101.823C31.3835 95.6311 32.2216 89.4432 33.863 83.4174ZM41.1856 66.0164L60.1972 77.101C62.3476 73.4471 64.9675 70.0689 68.0037 67.0578C70.9794 64.1068 74.3042 61.5585 77.8919 59.4624L66.9697 40.357C61.7187 43.4044 56.8547 47.121 52.5069 51.4328C48.1 55.8033 44.3002 60.7091 41.1856 66.0164ZM55.5789 89.3323C56.6837 85.2767 58.3005 81.3981 60.3777 77.7851L81.3338 90.0034C80.3201 91.7915 79.5287 93.7064 78.9839 95.7065C78.4841 97.5413 78.1995 99.4195 78.1302 101.304C78.1214 101.543 78.1161 101.783 78.1142 102.022L53.8566 101.919C53.8821 97.6846 54.4564 93.4531 55.5789 89.3323ZM60.6291 77.3529L81.5848 89.571C82.6504 87.7768 83.9431 86.117 85.4375 84.635C86.8693 83.215 88.4629 81.9814 90.1797 80.9565L78.1401 59.8965C74.5902 61.971 71.3003 64.4927 68.3558 67.4128C65.3507 70.393 62.7576 73.7365 60.6291 77.3529ZM79.4663 95.839C79.9997 93.8809 80.7742 92.0062 81.7663 90.2555L101.302 101.646C101.287 101.688 101.273 101.732 101.261 101.776C101.23 101.889 101.211 102.005 101.205 102.121L78.6142 102.025C78.616 101.79 78.6213 101.556 78.6299 101.322C78.6978 99.4763 78.9767 97.6364 79.4663 95.839ZM101.253 102.621L78.6154 102.525C78.619 102.807 78.6276 103.089 78.6411 103.372C78.7219 105.061 78.9795 106.745 79.4141 108.394C79.9536 110.442 80.7565 112.401 81.796 114.225L101.406 103.014C101.342 102.896 101.292 102.77 101.257 102.639C101.256 102.633 101.254 102.627 101.253 102.621ZM101.712 103.415L82.048 114.656C83.0513 116.335 84.2581 117.894 85.6471 119.294C87.1102 120.77 88.7503 122.044 90.5236 123.093L101.904 103.574C101.837 103.526 101.772 103.472 101.712 103.415ZM102.352 103.799L90.9566 123.343C92.6944 124.323 94.5537 125.089 96.495 125.618C98.5308 126.172 100.621 126.456 102.713 126.47L102.809 103.88C102.682 103.876 102.555 103.857 102.431 103.823C102.405 103.816 102.378 103.808 102.352 103.799ZM103.31 103.822L103.213 126.468C105.176 126.44 107.137 126.174 109.051 125.67C111.099 125.13 113.058 124.327 114.882 123.288L103.671 103.676C103.557 103.739 103.436 103.788 103.31 103.822ZM104.072 103.37L115.314 123.035C116.993 122.032 118.551 120.826 119.951 119.437C121.395 118.005 122.647 116.403 123.683 114.673L104.149 103.284C104.124 103.313 104.098 103.342 104.072 103.37ZM104.408 102.856L123.935 114.241C124.946 112.471 125.734 110.573 126.275 108.589C126.814 106.608 127.098 104.576 127.125 102.541L104.521 102.445C104.511 102.515 104.497 102.584 104.478 102.652C104.459 102.722 104.436 102.79 104.408 102.856ZM104.515 101.945L127.127 102.041C127.12 101.077 127.056 100.113 126.934 99.1549C126.837 98.3926 126.704 97.6338 126.534 96.8811C126.47 96.5977 126.401 96.3151 126.327 96.0336C125.801 94.0387 125.026 92.1278 124.025 90.3439L104.404 101.561C104.435 101.635 104.461 101.711 104.482 101.789C104.495 101.841 104.507 101.892 104.515 101.945ZM104.141 101.135L123.776 89.9104C122.756 88.1785 121.521 86.5726 120.094 85.1335C118.664 83.6915 117.065 82.4412 115.338 81.4063L103.948 100.942C103.984 100.973 104.02 101.006 104.053 101.04C104.084 101.071 104.113 101.102 104.141 101.135ZM103.522 100.68L114.906 81.1538C113.134 80.1408 111.233 79.3513 109.246 78.8102C107.238 78.263 105.176 77.9791 103.112 77.9585L103.016 100.553C103.114 100.562 103.212 100.579 103.308 100.605C103.381 100.625 103.452 100.65 103.522 100.68ZM102.516 100.585L102.612 77.9587C100.621 77.9799 98.6316 78.2463 96.6897 78.758C94.6426 79.2974 92.6839 80.1001 90.8602 81.1394L102.071 100.75C102.189 100.686 102.314 100.636 102.445 100.602C102.468 100.596 102.492 100.59 102.516 100.585ZM101.67 101.056L90.4284 81.3914C88.7492 82.3948 87.1904 83.6018 85.7896 84.991C84.3266 86.4419 83.0608 88.0668 82.0172 89.8231L101.541 101.206C101.581 101.154 101.624 101.103 101.67 101.056ZM21.7429 54.6805L40.7537 65.7646C43.8902 60.4197 47.7168 55.4791 52.1548 51.0778C56.5338 46.7351 61.4328 42.992 66.7215 39.9229L55.7997 20.8183C48.8478 24.8383 42.4099 29.7495 36.6589 35.4529C30.8501 41.2136 25.8436 47.682 21.7429 54.6805ZM8.84238 102.227C8.84339 110.275 9.87764 118.325 11.946 126.174C14.0451 134.14 17.1723 141.76 21.2236 148.853L40.3284 137.931C37.2271 132.5 34.833 126.666 33.2258 120.566C31.6498 114.585 30.8576 108.453 30.8486 102.321L8.84238 102.227ZM31.3486 102.323C31.3578 108.412 32.1445 114.5 33.7093 120.439C35.3053 126.496 37.6827 132.29 40.7625 137.683L59.868 126.76C57.7383 123.029 56.0941 119.021 54.99 114.831C53.9177 110.761 53.3732 106.59 53.3561 102.417L31.3486 102.323ZM53.8561 102.419C53.8733 106.548 54.4123 110.676 55.4735 114.704C56.5664 118.851 58.194 122.819 60.3021 126.512L81.3614 114.473C80.3005 112.612 79.4812 110.612 78.9306 108.523C78.488 106.843 78.2253 105.129 78.1422 103.408C78.128 103.113 78.119 102.818 78.1154 102.522L53.8561 102.419ZM36.1066 168.426C30.4036 162.675 25.4927 156.238 21.4728 149.286L40.5779 138.364C43.6467 143.652 47.3895 148.551 51.7318 152.929C56.1457 157.38 61.1021 161.216 66.4647 164.357L55.3802 183.369C48.3641 179.263 41.88 174.247 36.1066 168.426ZM52.0868 152.577C47.7754 148.23 44.0592 143.366 41.012 138.116L60.1181 127.193C62.2141 130.781 64.7622 134.105 67.7129 137.081C70.7364 140.129 74.13 142.758 77.8012 144.914L66.7165 163.925C61.3915 160.806 56.4699 156.997 52.0868 152.577ZM68.0679 136.728C65.1481 133.784 62.6266 130.495 60.5522 126.945L81.6134 114.905C82.6384 116.622 83.872 118.216 85.2921 119.647C86.786 121.154 88.4606 122.455 90.2713 123.526L78.053 144.482C74.4194 142.348 71.0605 139.746 68.0679 136.728ZM55.8125 183.62C62.7981 187.658 70.3042 190.798 78.1562 192.936C86.0983 195.1 94.2546 196.202 102.416 196.241L102.51 174.235C96.2625 174.203 90.0193 173.359 83.9399 171.703C77.9524 170.072 72.2274 167.682 66.897 164.609L55.8125 183.62ZM67.1488 164.177C72.4416 167.228 78.1262 169.601 84.0713 171.221C90.1084 172.865 96.3081 173.704 102.512 173.735L102.606 151.728C98.3163 151.705 94.03 151.125 89.856 149.988C85.775 148.876 81.8714 147.251 78.2336 145.165L67.1488 164.177ZM78.4855 144.733C82.0856 146.797 85.9488 148.405 89.9874 149.505C94.1191 150.631 98.362 151.205 102.608 151.228L102.711 126.971C100.576 126.957 98.4418 126.667 96.3637 126.101C94.3798 125.561 92.4798 124.778 90.7042 123.776L78.4855 144.733ZM126.828 193.139C118.99 195.204 110.952 196.238 102.916 196.242L103.01 174.235C109.13 174.223 115.251 173.431 121.22 171.858C127.321 170.251 133.156 167.856 138.588 164.754L149.51 183.859C142.417 187.911 134.795 191.039 126.828 193.139ZM121.093 171.375C115.166 172.937 109.089 173.723 103.012 173.735L103.106 151.728C107.267 151.708 111.427 151.164 115.486 150.094C119.677 148.99 123.686 147.345 127.418 145.215L138.34 164.32C132.946 167.4 127.151 169.778 121.093 171.375ZM115.359 149.611C111.342 150.669 107.226 151.208 103.108 151.228L103.211 126.969C105.218 126.942 107.222 126.67 109.179 126.154C111.269 125.604 113.269 124.784 115.131 123.723L127.17 144.781C123.476 146.89 119.507 148.518 115.359 149.611ZM149.944 183.61C156.894 179.59 163.33 174.68 169.079 168.978C174.87 163.235 179.864 156.789 183.957 149.815L164.946 138.731C161.816 144.051 158.003 148.969 153.583 153.352C149.205 157.694 144.308 161.436 139.021 164.504L149.944 183.61ZM138.773 164.07C144.022 161.023 148.885 157.308 153.231 152.997C157.62 148.645 161.406 143.761 164.514 138.479L145.503 127.395C143.36 131.023 140.753 134.379 137.736 137.371C134.761 140.322 131.437 142.869 127.851 144.965L138.773 164.07ZM127.603 144.531C131.151 142.457 134.44 139.936 137.384 137.016C140.37 134.055 142.95 130.734 145.071 127.143L124.116 114.925C123.058 116.693 121.779 118.33 120.304 119.793C118.872 121.213 117.279 122.446 115.563 123.471L127.603 144.531ZM193.59 126.928C191.44 134.822 188.278 142.366 184.209 149.384L165.198 138.299C168.302 132.937 170.715 127.174 172.357 121.144C173.998 115.12 174.842 108.935 174.887 102.744L196.894 102.838C196.84 110.943 195.739 119.041 193.59 126.928ZM171.875 121.013C170.244 127 167.848 132.723 164.766 138.047L145.755 126.963C147.873 123.293 149.52 119.351 150.643 115.228C151.765 111.109 152.345 106.881 152.382 102.649L174.387 102.742C174.342 108.889 173.504 115.031 171.875 121.013ZM150.161 115.097C149.049 119.178 147.419 123.079 145.323 126.711L124.368 114.493C125.401 112.686 126.205 110.747 126.757 108.721C127.308 106.698 127.598 104.622 127.625 102.543L151.882 102.646C151.845 106.835 151.271 111.02 150.161 115.097ZM196.896 102.338C196.906 94.2452 195.872 86.1501 193.792 78.257C191.707 70.3429 188.607 62.7702 184.594 55.7174L165.489 66.6393C168.552 72.0301 170.919 77.8169 172.512 83.8639C174.1 89.8887 174.892 96.0671 174.889 102.244L196.896 102.338ZM174.389 102.242C174.392 96.1085 173.605 89.9736 172.029 83.9913C170.446 77.9867 168.096 72.2405 165.055 66.8874L145.951 77.809C148.042 81.5002 149.659 85.4606 150.749 89.5982C151.833 93.7122 152.378 97.9304 152.384 102.149L174.389 102.242ZM151.884 102.146C151.878 97.9718 151.339 93.7972 150.266 89.7256C149.187 85.6304 147.587 81.7106 145.517 78.0571L124.459 90.0956C125.481 91.917 126.274 93.8681 126.81 95.9052C126.916 96.3077 127.012 96.7123 127.098 97.1184C127.235 97.7726 127.346 98.4309 127.43 99.0918C127.555 100.072 127.62 101.057 127.627 102.043L151.884 102.146ZM169.632 36.0052C175.373 41.794 180.311 48.2789 184.346 55.2834L165.241 66.2054C162.157 60.8639 158.387 55.9179 154.006 51.5009C149.626 47.0838 144.711 43.2725 139.395 40.1443L150.48 21.1334C157.449 25.2258 163.892 30.2172 169.632 36.0052ZM153.651 51.8529C158.001 56.2388 161.744 61.1499 164.807 66.4536L145.702 77.3752C143.591 73.7346 141.015 70.3625 138.027 67.3486C135.036 64.3335 131.684 61.7289 128.059 59.5869L139.143 40.5763C144.422 43.6825 149.302 47.4671 153.651 51.8529ZM137.672 67.7007C140.63 70.6834 143.179 74.0205 145.268 77.6233L124.21 89.6621C123.169 87.8921 121.907 86.2509 120.449 84.7804C118.988 83.3074 117.355 82.0304 115.59 80.9737L127.808 60.0189C131.395 62.1389 134.712 64.7167 137.672 67.7007ZM150.048 20.8814C143.028 16.8093 135.48 13.6457 127.582 11.4944C119.668 9.33858 111.541 8.23689 103.409 8.19019L103.315 30.196C109.533 30.2345 115.747 31.0783 121.798 32.7267C127.831 34.3702 133.598 36.785 138.963 39.8923L150.048 20.8814ZM138.712 40.3242C133.384 37.2389 127.658 34.8411 121.667 33.2091C115.658 31.5723 109.488 30.7343 103.313 30.696L103.22 52.7018C107.48 52.7319 111.737 53.3119 115.883 54.4414C120.01 55.5655 123.955 57.2144 127.628 59.3347L138.712 40.3242ZM127.376 59.7667C123.741 57.6682 119.836 56.0364 115.752 54.9238C111.648 53.8059 107.435 53.2317 103.217 53.2018L103.114 77.4576C105.221 77.4783 107.327 77.7681 109.377 78.3268C111.407 78.8795 113.348 79.6861 115.158 80.7211L127.376 59.7667ZM78.9107 11.2922C86.7769 9.21946 94.8437 8.18522 102.909 8.18865L102.815 30.1946C96.6657 30.1992 90.5156 30.9914 84.5178 32.5718C78.4191 34.1788 72.585 36.5726 67.1548 39.6735L56.2332 20.5691C63.3252 16.5182 70.945 13.3912 78.9107 11.2922ZM84.6452 33.0553C90.6006 31.4861 96.7071 30.6994 102.813 30.6946L102.72 52.7008C98.5294 52.7135 94.34 53.2581 90.2533 54.3349C86.0637 55.4389 82.0557 57.0829 78.3249 59.2124L67.403 40.1076C72.7954 37.0283 78.5889 34.6512 84.6452 33.0553ZM90.3807 54.8184C94.4249 53.7528 98.5708 53.2137 102.717 53.2008L102.614 77.4577C100.58 77.4787 98.5466 77.7506 96.5623 78.2735C94.4725 78.8242 92.4732 79.6435 90.6116 80.7045L78.5731 59.6465C82.2661 57.5386 86.2335 55.9112 90.3807 54.8184Z" fill="#0284D2"/>
</g>
<g opacity="0.8">
<circle cx="102.614" cy="102.268" r="24.4209" fill="#4396F7" fill-opacity="0.1"/>
<circle cx="102.614" cy="102.268" r="49.3232" fill="#4396F7" fill-opacity="0.1"/>
<circle cx="102.615" cy="102.267" r="71.9546" fill="#4396F7" fill-opacity="0.1"/>
<circle cx="102.614" cy="102.267" r="94.3093" fill="#4396F7" fill-opacity="0.1"/>
</g>
<path d="M127.417 102.271C127.417 97.9874 126.294 93.7789 124.16 90.065L102.917 102.271H127.417Z" fill="#4396F7"/>
<path d="M124.175 90.0886C122.046 86.3722 118.979 83.2791 115.281 81.1176L102.918 102.269L124.175 90.0886Z" fill="#F74343"/>
<path d="M102.886 77.7705C98.6031 77.7756 94.396 78.9035 90.6846 81.0418L102.915 102.271L102.886 77.7705Z" fill="#4396F7"/>
<path d="M90.5499 81.1168C86.8519 83.2781 83.7851 86.371 81.6554 90.0873L102.912 102.269L90.5499 81.1168Z" fill="#4396F7"/>
<path d="M81.572 90.2332C79.4677 93.9639 78.3781 98.1811 78.4121 102.464L102.911 102.27L81.572 90.2332Z" fill="#4396F7"/>
<path d="M90.8043 123.567C94.5274 125.684 98.7406 126.789 103.024 126.77L102.918 102.271L90.8043 123.567Z" fill="#4396F7"/>
<path d="M124.207 114.395C126.327 110.674 127.434 106.461 127.418 102.178L102.918 102.271L124.207 114.395Z" fill="#4396F7"/>
<path d="M115.263 81.1089C111.564 78.9502 107.363 77.7992 103.08 77.7705L102.916 102.27L115.263 81.1089Z" fill="#4396F7"/>
<mask id="mask0" mask-type="alpha" maskUnits="userSpaceOnUse" x="81" y="101" width="23" height="23">
<path d="M90.9464 123.509L103.676 101.752L81.4769 114.685C81.4769 114.685 83.773 118.063 85.6507 119.813C87.5285 121.563 90.9464 123.509 90.9464 123.509Z" fill="#F74343"/>
</mask>
<g mask="url(#mask0)">
<path fill-rule="evenodd" clip-rule="evenodd" d="M49.8637 133.068L41.8686 166.579L43.4313 166.952L51.4263 133.441L49.8637 133.068ZM84.1531 111.988L76.1581 145.5L77.7207 145.873L85.7158 112.361L84.1531 111.988ZM110.448 124.42L118.443 90.9085L120.005 91.2814L112.01 124.793L110.448 124.42ZM67.0084 122.528L59.0133 156.04L60.576 156.412L68.5711 122.901L67.0084 122.528ZM93.3028 134.96L101.298 101.448L102.861 101.821L94.8655 135.333L93.3028 134.96ZM135.587 80.3687L127.592 113.88L129.155 114.253L137.15 80.7415L135.587 80.3687ZM47.5835 163.066L55.5786 129.555L57.1412 129.927L49.1462 163.439L47.5835 163.066ZM89.868 108.475L81.873 141.987L83.4356 142.359L91.4307 108.848L89.868 108.475ZM116.162 120.907L124.158 87.3953L125.72 87.7681L117.725 121.28L116.162 120.907ZM72.7233 119.015L64.7282 152.526L66.2909 152.899L74.286 119.388L72.7233 119.015ZM99.0177 131.447L107.013 97.9351L108.575 98.3079L100.58 131.819L99.0177 131.447ZM141.302 76.8554L133.307 110.367L134.87 110.74L142.865 77.2282L141.302 76.8554ZM53.2984 159.553L61.2935 126.041L62.8561 126.414L54.8611 159.926L53.2984 159.553ZM95.583 104.962L87.5879 138.473L89.1505 138.846L97.1456 105.334L95.583 104.962ZM121.877 117.394L129.872 83.882L131.435 84.2548L123.44 117.766L121.877 117.394ZM78.4382 115.502L70.4432 149.013L72.0058 149.386L80.0009 115.874L78.4382 115.502ZM104.733 127.933L112.728 94.4218L114.29 94.7946L106.295 128.306L104.733 127.933ZM147.017 73.3421L139.022 106.854L140.585 107.226L148.58 73.7149L147.017 73.3421Z" fill="#F74343"/>
</g>
<g style="mix-blend-mode:screen">
<path fill-rule="evenodd" clip-rule="evenodd" d="M103.441 0.821599L103.411 7.69019C111.587 7.73708 119.757 8.84463 127.714 11.012C135.654 13.1749 143.242 16.3554 150.3 20.4494L153.62 14.7542L154.052 15.006L150.731 20.7015C157.738 24.8158 164.216 29.834 169.987 35.6531C175.759 41.4731 180.723 47.993 184.78 55.0353L190.67 51.668L190.918 52.102L185.028 55.4692C189.063 62.5598 192.179 70.1731 194.276 78.1296C196.367 86.0651 197.407 94.2038 197.396 102.34L204.436 102.37L204.434 102.87L197.394 102.84C197.34 110.989 196.233 119.13 194.073 127.06C191.911 134.996 188.732 142.581 184.641 149.635L190.499 153.051L190.247 153.483L184.389 150.067C180.274 157.078 175.253 163.559 169.432 169.333C163.651 175.066 157.179 180.003 150.192 184.044L153.587 189.984L153.153 190.232L149.758 184.293C142.627 188.367 134.965 191.512 126.955 193.622C119.075 195.699 110.994 196.738 102.914 196.742L102.884 203.749L102.384 203.747L102.414 196.741C94.209 196.702 86.0092 195.594 78.0248 193.419C70.1305 191.268 62.5838 188.112 55.5606 184.052L52.2024 189.812L51.7705 189.56L55.1284 183.801C48.0747 179.673 41.5559 174.63 35.7516 168.778C30.0177 162.996 25.0802 156.524 21.0387 149.534L15.1535 152.899L14.9053 152.465L20.7895 149.101C16.7167 141.971 13.5727 134.31 11.4625 126.301C9.38296 118.41 8.34321 110.317 8.34238 102.225L1.38772 102.196L1.38985 101.696L8.34365 101.725C8.38615 93.532 9.49379 85.3442 11.6657 77.3711C13.8209 69.4594 16.9865 61.897 21.0594 54.8607L15.3244 51.517L15.5762 51.085L21.311 54.4286C25.4336 47.3926 30.4669 40.8895 36.3068 35.0978C42.089 29.3636 48.5619 24.4258 55.5515 20.3842L52.2352 14.5833L52.6693 14.3351L55.985 20.135C63.1148 16.0625 70.7752 12.9189 78.7833 10.8087C86.692 8.72478 94.8023 7.68503 102.911 7.68865L102.941 0.819469L103.441 0.821599ZM12.1481 77.5025C14.2918 69.6332 17.4403 62.1113 21.4913 55.1126L40.5021 66.1967C37.4161 71.5403 35.0164 77.2811 33.3806 83.286C31.7276 89.3541 30.8837 95.5855 30.8496 101.821L8.84365 101.727C8.88596 93.5777 9.98774 85.4333 12.1481 77.5025ZM33.863 83.4174C35.4873 77.4549 37.87 71.7545 40.9341 66.4486L59.9457 77.5332C57.8466 81.1838 56.2128 85.1029 55.0965 89.2009C53.9624 93.364 53.3823 97.6389 53.3566 101.917L31.3496 101.823C31.3835 95.6311 32.2216 89.4432 33.863 83.4174ZM41.1856 66.0164L60.1972 77.101C62.3476 73.4471 64.9675 70.0689 68.0037 67.0578C70.9794 64.1068 74.3042 61.5585 77.8919 59.4624L66.9697 40.357C61.7187 43.4044 56.8547 47.121 52.5069 51.4328C48.1 55.8033 44.3002 60.7091 41.1856 66.0164ZM55.5789 89.3323C56.6837 85.2767 58.3005 81.3981 60.3777 77.7851L81.3338 90.0034C80.3201 91.7915 79.5287 93.7064 78.9839 95.7065C78.4841 97.5413 78.1995 99.4195 78.1302 101.304C78.1214 101.543 78.1161 101.783 78.1142 102.022L53.8566 101.919C53.8821 97.6846 54.4564 93.4531 55.5789 89.3323ZM60.6291 77.3529L81.5848 89.571C82.6504 87.7768 83.9431 86.117 85.4375 84.635C86.8693 83.215 88.4629 81.9814 90.1797 80.9565L78.1401 59.8965C74.5902 61.971 71.3003 64.4927 68.3558 67.4128C65.3507 70.393 62.7576 73.7365 60.6291 77.3529ZM79.4663 95.839C79.9997 93.8809 80.7742 92.0062 81.7663 90.2555L101.302 101.646C101.287 101.688 101.273 101.732 101.261 101.776C101.23 101.889 101.211 102.005 101.205 102.121L78.6142 102.025C78.616 101.79 78.6213 101.556 78.6299 101.322C78.6978 99.4763 78.9767 97.6364 79.4663 95.839ZM101.253 102.621L78.6154 102.525C78.619 102.807 78.6276 103.089 78.6411 103.372C78.7219 105.061 78.9795 106.745 79.4141 108.394C79.9536 110.442 80.7565 112.401 81.796 114.225L101.406 103.014C101.342 102.896 101.292 102.77 101.257 102.639C101.256 102.633 101.254 102.627 101.253 102.621ZM101.712 103.415L82.048 114.656C83.0513 116.335 84.2581 117.894 85.6471 119.294C87.1102 120.77 88.7503 122.044 90.5236 123.093L101.904 103.574C101.837 103.526 101.772 103.472 101.712 103.415ZM102.352 103.799L90.9566 123.343C92.6944 124.323 94.5537 125.089 96.495 125.618C98.5308 126.172 100.621 126.456 102.713 126.47L102.809 103.88C102.682 103.876 102.555 103.857 102.431 103.823C102.405 103.816 102.378 103.808 102.352 103.799ZM103.31 103.822L103.213 126.468C105.176 126.44 107.137 126.174 109.051 125.67C111.099 125.13 113.058 124.327 114.882 123.288L103.671 103.676C103.557 103.739 103.436 103.788 103.31 103.822ZM104.072 103.37L115.314 123.035C116.993 122.032 118.551 120.826 119.951 119.437C121.395 118.005 122.647 116.403 123.683 114.673L104.149 103.284C104.124 103.313 104.098 103.342 104.072 103.37ZM104.408 102.856L123.935 114.241C124.946 112.471 125.734 110.573 126.275 108.589C126.814 106.608 127.098 104.576 127.125 102.541L104.521 102.445C104.511 102.515 104.497 102.584 104.478 102.652C104.459 102.722 104.436 102.79 104.408 102.856ZM104.515 101.945L127.127 102.041C127.12 101.077 127.056 100.113 126.934 99.1549C126.837 98.3926 126.704 97.6338 126.534 96.8811C126.47 96.5977 126.401 96.3151 126.327 96.0336C125.801 94.0387 125.026 92.1278 124.025 90.3439L104.404 101.561C104.435 101.635 104.461 101.711 104.482 101.789C104.495 101.841 104.507 101.892 104.515 101.945ZM104.141 101.135L123.776 89.9104C122.756 88.1785 121.521 86.5726 120.094 85.1335C118.664 83.6915 117.065 82.4412 115.338 81.4063L103.948 100.942C103.984 100.973 104.02 101.006 104.053 101.04C104.084 101.071 104.113 101.102 104.141 101.135ZM103.522 100.68L114.906 81.1538C113.134 80.1408 111.233 79.3513 109.246 78.8102C107.238 78.263 105.176 77.9791 103.112 77.9585L103.016 100.553C103.114 100.562 103.212 100.579 103.308 100.605C103.381 100.625 103.452 100.65 103.522 100.68ZM102.516 100.585L102.612 77.9587C100.621 77.9799 98.6316 78.2463 96.6897 78.758C94.6426 79.2974 92.6839 80.1001 90.8602 81.1394L102.071 100.75C102.189 100.686 102.314 100.636 102.445 100.602C102.468 100.596 102.492 100.59 102.516 100.585ZM101.67 101.056L90.4284 81.3914C88.7492 82.3948 87.1904 83.6018 85.7896 84.991C84.3266 86.4419 83.0608 88.0668 82.0172 89.8231L101.541 101.206C101.581 101.154 101.624 101.103 101.67 101.056ZM21.7429 54.6805L40.7537 65.7646C43.8902 60.4197 47.7168 55.4791 52.1548 51.0778C56.5338 46.7351 61.4328 42.992 66.7215 39.9229L55.7997 20.8183C48.8478 24.8383 42.4099 29.7495 36.6589 35.4529C30.8501 41.2136 25.8436 47.682 21.7429 54.6805ZM8.84238 102.227C8.84339 110.275 9.87764 118.325 11.946 126.174C14.0451 134.14 17.1723 141.76 21.2236 148.853L40.3284 137.931C37.2271 132.5 34.833 126.666 33.2258 120.566C31.6498 114.585 30.8576 108.453 30.8486 102.321L8.84238 102.227ZM31.3486 102.323C31.3578 108.412 32.1445 114.5 33.7093 120.439C35.3053 126.496 37.6827 132.29 40.7625 137.683L59.868 126.76C57.7383 123.029 56.0941 119.021 54.99 114.831C53.9177 110.761 53.3732 106.59 53.3561 102.417L31.3486 102.323ZM53.8561 102.419C53.8733 106.548 54.4123 110.676 55.4735 114.704C56.5664 118.851 58.194 122.819 60.3021 126.512L81.3614 114.473C80.3005 112.612 79.4812 110.612 78.9306 108.523C78.488 106.843 78.2253 105.129 78.1422 103.408C78.128 103.113 78.119 102.818 78.1154 102.522L53.8561 102.419ZM36.1066 168.426C30.4036 162.675 25.4927 156.238 21.4728 149.286L40.5779 138.364C43.6467 143.652 47.3895 148.551 51.7318 152.929C56.1457 157.38 61.1021 161.216 66.4647 164.357L55.3802 183.369C48.3641 179.263 41.88 174.247 36.1066 168.426ZM52.0868 152.577C47.7754 148.23 44.0592 143.366 41.012 138.116L60.1181 127.193C62.2141 130.781 64.7622 134.105 67.7129 137.081C70.7364 140.129 74.13 142.758 77.8012 144.914L66.7165 163.925C61.3915 160.806 56.4699 156.997 52.0868 152.577ZM68.0679 136.728C65.1481 133.784 62.6266 130.495 60.5522 126.945L81.6134 114.905C82.6384 116.622 83.872 118.216 85.2921 119.647C86.786 121.154 88.4606 122.455 90.2713 123.526L78.053 144.482C74.4194 142.348 71.0605 139.746 68.0679 136.728ZM55.8125 183.62C62.7981 187.658 70.3042 190.798 78.1562 192.936C86.0983 195.1 94.2546 196.202 102.416 196.241L102.51 174.235C96.2625 174.203 90.0193 173.359 83.9399 171.703C77.9524 170.072 72.2274 167.682 66.897 164.609L55.8125 183.62ZM67.1488 164.177C72.4416 167.228 78.1262 169.601 84.0713 171.221C90.1084 172.865 96.3081 173.704 102.512 173.735L102.606 151.728C98.3163 151.705 94.03 151.125 89.856 149.988C85.775 148.876 81.8714 147.251 78.2336 145.165L67.1488 164.177ZM78.4855 144.733C82.0856 146.797 85.9488 148.405 89.9874 149.505C94.1191 150.631 98.362 151.205 102.608 151.228L102.711 126.971C100.576 126.957 98.4418 126.667 96.3637 126.101C94.3798 125.561 92.4798 124.778 90.7042 123.776L78.4855 144.733ZM126.828 193.139C118.99 195.204 110.952 196.238 102.916 196.242L103.01 174.235C109.13 174.223 115.251 173.431 121.22 171.858C127.321 170.251 133.156 167.856 138.588 164.754L149.51 183.859C142.417 187.911 134.795 191.039 126.828 193.139ZM121.093 171.375C115.166 172.937 109.089 173.723 103.012 173.735L103.106 151.728C107.267 151.708 111.427 151.164 115.486 150.094C119.677 148.99 123.686 147.345 127.418 145.215L138.34 164.32C132.946 167.4 127.151 169.778 121.093 171.375ZM115.359 149.611C111.342 150.669 107.226 151.208 103.108 151.228L103.211 126.969C105.218 126.942 107.222 126.67 109.179 126.154C111.269 125.604 113.269 124.784 115.131 123.723L127.17 144.781C123.476 146.89 119.507 148.518 115.359 149.611ZM149.944 183.61C156.894 179.59 163.33 174.68 169.079 168.978C174.87 163.235 179.864 156.789 183.957 149.815L164.946 138.731C161.816 144.051 158.003 148.969 153.583 153.352C149.205 157.694 144.308 161.436 139.021 164.504L149.944 183.61ZM138.773 164.07C144.022 161.023 148.885 157.308 153.231 152.997C157.62 148.645 161.406 143.761 164.514 138.479L145.503 127.395C143.36 131.023 140.753 134.379 137.736 137.371C134.761 140.322 131.437 142.869 127.851 144.965L138.773 164.07ZM127.603 144.531C131.151 142.457 134.44 139.936 137.384 137.016C140.37 134.055 142.95 130.734 145.071 127.143L124.116 114.925C123.058 116.693 121.779 118.33 120.304 119.793C118.872 121.213 117.279 122.446 115.563 123.471L127.603 144.531ZM193.59 126.928C191.44 134.822 188.278 142.366 184.209 149.384L165.198 138.299C168.302 132.937 170.715 127.174 172.357 121.144C173.998 115.12 174.842 108.935 174.887 102.744L196.894 102.838C196.84 110.943 195.739 119.041 193.59 126.928ZM171.875 121.013C170.244 127 167.848 132.723 164.766 138.047L145.755 126.963C147.873 123.293 149.52 119.351 150.643 115.228C151.765 111.109 152.345 106.881 152.382 102.649L174.387 102.742C174.342 108.889 173.504 115.031 171.875 121.013ZM150.161 115.097C149.049 119.178 147.419 123.079 145.323 126.711L124.368 114.493C125.401 112.686 126.205 110.747 126.757 108.721C127.308 106.698 127.598 104.622 127.625 102.543L151.882 102.646C151.845 106.835 151.271 111.02 150.161 115.097ZM196.896 102.338C196.906 94.2452 195.872 86.1501 193.792 78.257C191.707 70.3429 188.607 62.7702 184.594 55.7174L165.489 66.6393C168.552 72.0301 170.919 77.8169 172.512 83.8639C174.1 89.8887 174.892 96.0671 174.889 102.244L196.896 102.338ZM174.389 102.242C174.392 96.1085 173.605 89.9736 172.029 83.9913C170.446 77.9867 168.096 72.2405 165.055 66.8874L145.951 77.809C148.042 81.5002 149.659 85.4606 150.749 89.5982C151.833 93.7122 152.378 97.9304 152.384 102.149L174.389 102.242ZM151.884 102.146C151.878 97.9718 151.339 93.7972 150.266 89.7256C149.187 85.6304 147.587 81.7106 145.517 78.0571L124.459 90.0956C125.481 91.917 126.274 93.8681 126.81 95.9052C126.916 96.3077 127.012 96.7123 127.098 97.1184C127.235 97.7726 127.346 98.4309 127.43 99.0918C127.555 100.072 127.62 101.057 127.627 102.043L151.884 102.146ZM169.632 36.0052C175.373 41.794 180.311 48.2789 184.346 55.2834L165.241 66.2054C162.157 60.8639 158.387 55.9179 154.006 51.5009C149.626 47.0838 144.711 43.2725 139.395 40.1443L150.48 21.1334C157.449 25.2258 163.892 30.2172 169.632 36.0052ZM153.651 51.8529C158.001 56.2388 161.744 61.1499 164.807 66.4536L145.702 77.3752C143.591 73.7346 141.015 70.3625 138.027 67.3486C135.036 64.3335 131.684 61.7289 128.059 59.5869L139.143 40.5763C144.422 43.6825 149.302 47.4671 153.651 51.8529ZM137.672 67.7007C140.63 70.6834 143.179 74.0205 145.268 77.6233L124.21 89.6621C123.169 87.8921 121.907 86.2509 120.449 84.7804C118.988 83.3074 117.355 82.0304 115.59 80.9737L127.808 60.0189C131.395 62.1389 134.712 64.7167 137.672 67.7007ZM150.048 20.8814C143.028 16.8093 135.48 13.6457 127.582 11.4944C119.668 9.33858 111.541 8.23689 103.409 8.19019L103.315 30.196C109.533 30.2345 115.747 31.0783 121.798 32.7267C127.831 34.3702 133.598 36.785 138.963 39.8923L150.048 20.8814ZM138.712 40.3242C133.384 37.2389 127.658 34.8411 121.667 33.2091C115.658 31.5723 109.488 30.7343 103.313 30.696L103.22 52.7018C107.48 52.7319 111.737 53.3119 115.883 54.4414C120.01 55.5655 123.955 57.2144 127.628 59.3347L138.712 40.3242ZM127.376 59.7667C123.741 57.6682 119.836 56.0364 115.752 54.9238C111.648 53.8059 107.435 53.2317 103.217 53.2018L103.114 77.4576C105.221 77.4783 107.327 77.7681 109.377 78.3268C111.407 78.8795 113.348 79.6861 115.158 80.7211L127.376 59.7667ZM78.9107 11.2922C86.7769 9.21946 94.8437 8.18522 102.909 8.18865L102.815 30.1946C96.6657 30.1992 90.5156 30.9914 84.5178 32.5718C78.4191 34.1788 72.585 36.5726 67.1548 39.6735L56.2332 20.5691C63.3252 16.5182 70.945 13.3912 78.9107 11.2922ZM84.6452 33.0553C90.6006 31.4861 96.7071 30.6994 102.813 30.6946L102.72 52.7008C98.5294 52.7135 94.34 53.2581 90.2533 54.3349C86.0637 55.4389 82.0557 57.0829 78.3249 59.2124L67.403 40.1076C72.7954 37.0283 78.5889 34.6512 84.6452 33.0553ZM90.3807 54.8184C94.4249 53.7528 98.5708 53.2137 102.717 53.2008L102.614 77.4577C100.58 77.4787 98.5466 77.7506 96.5623 78.2735C94.4725 78.8242 92.4732 79.6435 90.6116 80.7045L78.5731 59.6465C82.2661 57.5386 86.2335 55.9112 90.3807 54.8184Z" fill="white"/>
</g>
<circle cx="77.6852" cy="12.7298" r="8.23979" transform="rotate(0.237983 77.6852 12.7298)" fill="white" stroke="#4396F7" stroke-width="1.08116"/>
<circle cx="127.496" cy="12.9359" r="8.23979" transform="rotate(0.237983 127.496 12.9359)" fill="white" stroke="#4396F7" stroke-width="1.08116"/>
<circle cx="167.965" cy="34.5091" r="8.23979" transform="rotate(0.237983 167.965 34.5091)" fill="white" stroke="#4396F7" stroke-width="1.08116"/>
<circle cx="193.559" cy="78.599" r="8.23979" transform="rotate(0.237983 193.559 78.599)" fill="white" stroke="#4396F7" stroke-width="1.08116"/>
<circle cx="193.357" cy="127.212" r="8.23979" transform="rotate(0.237983 193.357 127.212)" fill="white" stroke="#4396F7" stroke-width="1.08116"/>
<circle cx="169.339" cy="169.408" r="8.23979" transform="rotate(0.237983 169.339 169.408)" fill="white" stroke="#4396F7" stroke-width="1.08116"/>
<circle cx="126.739" cy="194.971" r="8.23979" transform="rotate(0.237983 126.739 194.971)" fill="white" stroke="#4396F7" stroke-width="1.08116"/>
<circle cx="79.7536" cy="194.776" r="8.23979" transform="rotate(0.237983 79.7536 194.776)" fill="white" stroke="#4396F7" stroke-width="1.08116"/>
<circle cx="35.2419" cy="168.851" r="8.23979" transform="rotate(0.237983 35.2419 168.851)" fill="white" stroke="#4396F7" stroke-width="1.08116"/>
<circle cx="11.1598" cy="127.515" r="8.23979" transform="rotate(0.237983 11.1598 127.515)" fill="white" stroke="#4396F7" stroke-width="1.08116"/>
<circle cx="12.529" cy="77.847" r="8.23979" transform="rotate(0.237983 12.529 77.847)" fill="white" stroke="#4396F7" stroke-width="1.08116"/>
<circle cx="35.4977" cy="38.3402" r="8.23979" transform="rotate(0.237983 35.4977 38.3402)" fill="white" stroke="#4396F7" stroke-width="1.08116"/>
<path d="M104.177 113.054L103.615 113.052C103.447 113.977 102.685 114.198 101.846 114.195L101.843 114.783L103.435 114.79L103.417 119.184L104.152 119.187L104.177 113.054Z" fill="black"/>
<path d="M102.104 139.415C102.081 138.68 102.448 137.894 103.304 137.898C103.953 137.901 104.487 138.344 104.485 139.01C104.481 139.858 103.952 140.236 102.911 140.872C102.044 141.404 101.307 141.92 101.18 143.373L105.184 143.39L105.187 142.741L102.039 142.728C102.189 141.967 102.995 141.581 103.767 141.117C104.53 140.645 105.259 140.103 105.263 139.022C105.268 137.88 104.423 137.254 103.35 137.249C102.053 137.244 101.314 138.167 101.369 139.412L102.104 139.415Z" fill="black"/>
<path d="M102.77 164.39C102.908 164.374 103.064 164.366 103.211 164.366C103.938 164.369 104.516 164.778 104.512 165.548C104.509 166.292 103.893 166.73 103.175 166.727C102.337 166.724 101.898 166.168 101.875 165.373L101.14 165.37C101.109 166.632 101.927 167.371 103.173 167.376C104.323 167.381 105.286 166.745 105.291 165.517C105.294 164.781 104.933 164.192 104.19 164.024L104.19 164.007C104.658 163.793 105.041 163.327 105.043 162.791C105.048 161.658 104.245 161.144 103.181 161.14C101.953 161.135 101.327 161.945 101.279 163.113L102.014 163.116C102.026 162.398 102.374 161.785 103.179 161.789C103.801 161.791 104.267 162.139 104.264 162.779C104.262 163.445 103.715 163.78 103.093 163.778C102.989 163.777 102.885 163.777 102.773 163.768L102.77 164.39Z" fill="black"/>
<path d="M104.428 183.698L103.84 183.696L101.03 187.671L101.027 188.381L103.717 188.392L103.711 189.828L104.403 189.83L104.409 188.395L105.239 188.398L105.242 187.749L104.411 187.746L104.428 183.698ZM101.661 187.735L103.715 184.742L103.732 184.742L103.72 187.743L101.661 187.735Z" fill="black"/>
<path d="M126.396 11.2862C126.373 10.5509 126.739 9.76533 127.596 9.76889C128.244 9.77158 128.779 10.2149 128.776 10.8809C128.772 11.7285 128.243 12.1069 127.203 12.7426C126.336 13.2753 125.598 13.7912 125.471 15.2438L129.476 15.2604L129.478 14.6117L126.33 14.5986C126.48 13.8381 127.286 13.4522 128.058 12.9884C128.821 12.5158 129.55 11.9739 129.554 10.8928C129.559 9.7511 128.714 9.12483 127.642 9.12038C126.344 9.11499 125.605 10.0374 125.66 11.2831L126.396 11.2862Z" fill="black"/>
<path d="M78.4979 8.91636L77.9357 8.91403C77.7676 9.83881 77.0055 10.0605 76.1665 10.057L76.1641 10.6452L77.7555 10.6518L77.7373 15.0456L78.4725 15.0487L78.4979 8.91636Z" fill="black"/>
<path d="M167.449 34.227C167.588 34.2103 167.743 34.2023 167.89 34.2029C168.617 34.2059 169.195 34.6148 169.191 35.3846C169.188 36.1284 168.572 36.567 167.855 36.564C167.016 36.5605 166.577 36.0051 166.554 35.2093L165.819 35.2062C165.788 36.4689 166.606 37.2075 167.852 37.2127C169.002 37.2175 169.965 36.5814 169.97 35.3532C169.973 34.618 169.612 34.0284 168.869 33.861L168.869 33.8437C169.337 33.6294 169.72 33.1639 169.722 32.6276C169.727 31.4946 168.924 30.981 167.86 30.9765C166.632 30.9714 166.006 31.7819 165.958 32.9493L166.693 32.9524C166.705 32.2345 167.053 31.6219 167.858 31.6252C168.48 31.6278 168.946 31.9757 168.943 32.6158C168.941 33.2818 168.394 33.6168 167.772 33.6142C167.668 33.6138 167.564 33.6134 167.452 33.6042L167.449 34.227Z" fill="black"/>
<path d="M35.3114 37.8426C36.1504 37.8461 36.5456 38.4791 36.5424 39.2402C36.5394 39.9668 36.0957 40.5963 35.3 40.593C34.4956 40.5897 34.031 39.9823 34.0342 39.2212C34.0374 38.4514 34.4897 37.8392 35.3114 37.8426ZM37.1589 36.5788C37.0766 35.5838 36.4476 35.0103 35.4356 35.0061C33.6885 34.9989 33.1715 36.5968 33.1645 38.2834C33.1592 39.5722 33.4463 41.234 35.2627 41.2416C36.8109 41.248 37.3174 40.0825 37.3211 39.1916C37.3258 38.0585 36.6288 37.1994 35.4525 37.1945C34.7865 37.1917 34.2665 37.4317 33.9182 37.9925L33.901 37.9751C33.9395 37.0325 34.1442 35.6495 35.3983 35.6547C35.9778 35.6571 36.3569 36.0219 36.4238 36.5758L37.1589 36.5788Z" fill="black"/>
<path d="M194.797 74.7389L194.209 74.7365L191.398 78.7122L191.395 79.4214L194.085 79.4326L194.079 80.8684L194.771 80.8712L194.777 79.4355L195.608 79.4389L195.61 78.7902L194.78 78.7868L194.797 74.7389ZM192.029 78.7753L194.083 75.7825L194.1 75.7826L194.088 78.7839L192.029 78.7753Z" fill="black"/>
<path d="M195.037 124.108L192.01 124.096L191.426 127.276L192.057 127.313C192.344 126.969 192.734 126.737 193.201 126.739C194.023 126.742 194.583 127.324 194.579 128.137C194.575 129.114 193.977 129.588 193.276 129.585C192.541 129.582 192.032 129.104 191.992 128.472L191.257 128.469C191.278 129.576 192.14 130.229 193.204 130.233C194.631 130.239 195.353 129.239 195.358 128.201C195.363 126.8 194.475 126.095 193.386 126.091C192.97 126.089 192.511 126.225 192.242 126.527L192.225 126.51L192.561 124.747L195.035 124.757L195.037 124.108Z" fill="black"/>
<path d="M9.87673 128.447C9.87968 127.738 10.4525 127.273 11.179 127.276C11.8709 127.279 12.4397 127.783 12.4369 128.449C12.4341 129.133 11.913 129.641 11.1778 129.638C10.4167 129.635 9.87368 129.183 9.87673 128.447ZM9.32631 125.608C9.32402 126.162 9.66786 126.673 10.1773 126.883C9.49301 127.122 9.10146 127.683 9.09844 128.41C9.09324 129.664 9.99885 130.282 11.1751 130.286C12.3082 130.291 13.2105 129.612 13.2155 128.427C13.2186 127.666 12.8662 127.128 12.132 126.891C12.6346 126.668 12.9827 126.168 12.9849 125.623C12.9882 124.845 12.4725 124.056 11.1319 124.05C10.1891 124.046 9.33052 124.596 9.32631 125.608ZM10.1046 125.637C10.1072 125.023 10.5929 124.697 11.1811 124.699C11.7778 124.701 12.2089 125.032 12.2064 125.646C12.2038 126.269 11.7698 126.63 11.1903 126.628C10.5849 126.625 10.1018 126.312 10.1046 125.637Z" fill="black"/>
<path d="M14.479 74.7444L10.5091 74.7279L10.5062 75.4198L13.7237 75.4332C12.4293 76.7944 11.4268 78.6845 11.2797 80.7597L12.1014 80.7631C12.2218 78.8435 13.2345 76.5988 14.4764 75.3758L14.479 74.7444Z" fill="black"/>
<path d="M167.629 166.181L167.067 166.178C166.899 167.103 166.137 167.325 165.298 167.321L165.295 167.91L166.887 167.916L166.868 172.31L167.604 172.313L167.629 166.181ZM170.463 168.364C170.44 167.628 170.806 166.843 171.663 166.846C172.311 166.849 172.846 167.292 172.843 167.958C172.839 168.806 172.31 169.184 171.27 169.82C170.403 170.353 169.665 170.869 169.538 172.321L173.543 172.338L173.545 171.689L170.397 171.676C170.547 170.915 171.353 170.53 172.125 170.066C172.888 169.593 173.617 169.051 173.621 167.97C173.626 166.828 172.781 166.202 171.709 166.198C170.411 166.192 169.672 167.115 169.728 168.361L170.463 168.364Z" fill="black"/>
<path d="M36.3839 167.252C36.3808 167.979 35.8939 168.6 35.1241 168.596C34.4149 168.593 33.9158 167.969 33.9186 167.294C33.9217 166.541 34.2533 165.842 35.1269 165.846C35.9486 165.849 36.387 166.5 36.3839 167.252ZM33.2593 169.843C33.3501 170.898 34.0831 171.429 35.1123 171.433C36.6 171.439 37.245 170.257 37.2538 168.138C37.2634 165.82 36.3059 165.202 35.1642 165.197C33.9792 165.192 33.1455 166.002 33.1406 167.187C33.1356 168.398 33.824 169.24 35.0695 169.245C35.6663 169.247 36.2126 168.921 36.4915 168.403L36.5088 168.42C36.4589 170.003 36.0146 170.788 35.115 170.785C34.5269 170.782 34.0439 170.443 33.9945 169.846L33.2593 169.843Z" fill="black"/>
<path d="M125.209 191.858L124.647 191.855C124.479 192.78 123.717 193.002 122.878 192.998L122.875 193.586L124.467 193.593L124.449 197.987L125.184 197.99L125.209 191.858ZM130.015 191.878L129.453 191.875C129.285 192.8 128.523 193.022 127.684 193.018L127.681 193.606L129.273 193.613L129.255 198.007L129.99 198.01L130.015 191.878Z" fill="black"/>
<path d="M78.0139 191.662L77.4517 191.66C77.2835 192.585 76.5214 192.806 75.6824 192.803L75.68 193.391L77.2715 193.398L77.2532 197.791L77.9884 197.795L78.0139 191.662ZM80.0911 194.793C80.0855 196.143 80.1992 197.908 82.1194 197.915C84.0395 197.923 84.1679 196.16 84.1735 194.81C84.1792 193.452 84.0654 191.687 82.1453 191.679C80.2252 191.671 80.0967 193.435 80.0911 194.793ZM80.8696 194.788C80.8733 193.88 80.8884 192.323 82.1426 192.328C83.3967 192.333 83.3989 193.89 83.3951 194.798C83.3913 195.715 83.3762 197.272 82.1221 197.267C80.8679 197.262 80.8657 195.705 80.8696 194.788Z" fill="black"/>
</svg>
