<svg width="207" height="204" viewBox="0 0 207 204" fill="none" xmlns="http://www.w3.org/2000/svg">
<g clip-path="url(#clip0)">
<g style="mix-blend-mode:darken" opacity="0.3">
<path fill-rule="evenodd" clip-rule="evenodd" d="M104.401 0.643865L104.372 7.51246C112.548 7.55935 120.718 8.66689 128.674 10.8342C136.614 12.9971 144.203 16.1777 151.26 20.2717L154.581 14.5764L155.013 14.8283L151.692 20.5237C158.699 24.638 165.177 29.6562 170.948 35.4754C176.72 41.2954 181.684 47.8153 185.741 54.8575L191.631 51.4902L191.879 51.9243L185.989 55.2915C190.023 62.3821 193.14 69.9954 195.237 77.9518C197.328 85.8874 198.368 94.0261 198.357 102.163L205.397 102.193L205.395 102.693L198.355 102.663C198.301 110.811 197.194 118.953 195.034 126.882C192.872 134.818 189.693 142.403 185.602 149.458L191.46 152.873L191.208 153.305L185.35 149.89C181.235 156.901 176.214 163.381 170.392 169.155C164.612 174.888 158.14 179.825 151.153 183.866L154.548 189.806L154.114 190.054L150.719 184.115C143.588 188.189 135.926 191.334 127.916 193.444C120.036 195.521 111.955 196.561 103.875 196.564L103.845 203.572L103.345 203.569L103.375 196.563C95.1699 196.524 86.9702 195.416 78.9858 193.241C71.0914 191.091 63.5448 187.934 56.5215 183.874L53.1634 189.634L52.7314 189.382L56.0893 183.623C49.0356 179.495 42.5168 174.453 36.7125 168.6C30.9786 162.818 26.0411 156.346 21.9996 149.357L16.1144 152.721L15.8663 152.287L21.7505 148.923C17.6776 141.793 14.5337 134.132 12.4234 126.124C10.3439 118.232 9.30415 110.139 9.30332 102.047L2.34866 102.018L2.35079 101.518L9.30459 101.547C9.34709 93.3543 10.4547 85.1664 12.6266 77.1933C14.7818 69.2817 17.9474 61.7193 22.0203 54.683L16.2853 51.3392L16.5372 50.9073L22.2719 54.2509C26.3945 47.2149 31.4278 40.7118 37.2678 34.9201C43.0499 29.1858 49.5228 24.2481 56.5125 20.2065L53.1962 14.4055L53.6302 14.1574L56.946 19.9573C64.0757 15.8848 71.7362 12.7411 79.7442 10.631C87.6529 8.54704 95.7633 7.5073 103.872 7.51091L103.901 0.641735L104.401 0.643865ZM13.1091 77.3248C15.2527 69.4555 18.4013 61.9335 22.4522 54.9348L41.4631 66.019C38.377 71.3625 35.9773 77.1034 34.3415 83.1082C32.6886 89.1764 31.8447 95.4077 31.8106 101.643L9.80459 101.55C9.8469 93.3999 10.9487 85.2555 13.1091 77.3248ZM34.824 83.2397C36.4482 77.2771 38.8309 71.5768 41.895 66.2708L60.9067 77.3555C58.8076 81.0061 57.1737 84.9252 56.0574 89.0232C54.9234 93.1863 54.3432 97.4612 54.3175 101.739L32.3106 101.645C32.3445 95.4534 33.1825 89.2654 34.824 83.2397ZM42.1466 65.8387L61.1581 76.9233C63.3085 73.2694 65.9285 69.8911 68.9647 66.88C71.9403 63.929 75.2652 61.3808 78.8529 59.2847L67.9306 40.1793C62.6796 43.2267 57.8156 46.9433 53.4678 51.2551C49.0609 55.6255 45.2611 60.5314 42.1466 65.8387ZM56.5398 89.1546C57.6446 85.099 59.2614 81.2203 61.3386 77.6073L82.2948 89.8257C81.2811 91.6137 80.4896 93.5286 79.9448 95.5288C79.445 97.3635 79.1604 99.2418 79.0911 101.126C79.0823 101.366 79.077 101.605 79.0751 101.845L54.8175 101.741C54.8431 97.5068 55.4173 93.2754 56.5398 89.1546ZM61.5901 77.1751L82.5457 89.3932C83.6114 87.5991 84.904 85.9392 86.3984 84.4572C87.8303 83.0372 89.4239 81.8037 91.1407 80.7788L79.101 59.7188C75.5511 61.7933 72.2612 64.315 69.3168 67.2351C66.3117 70.2153 63.7185 73.5588 61.5901 77.1751ZM80.4272 95.6612C80.9606 93.7032 81.7352 91.8284 82.7272 90.0778L102.263 101.468C102.247 101.511 102.234 101.554 102.222 101.598C102.191 101.711 102.172 101.827 102.166 101.943L79.5751 101.847C79.577 101.613 79.5822 101.379 79.5908 101.145C79.6587 99.2985 79.9376 97.4586 80.4272 95.6612ZM102.213 102.443L79.5764 102.347C79.58 102.629 79.5885 102.912 79.602 103.194C79.6828 104.884 79.9405 106.567 80.3751 108.216C80.9146 110.264 81.7174 112.223 82.7569 114.047L102.367 102.836C102.303 102.718 102.253 102.592 102.218 102.461C102.217 102.455 102.215 102.449 102.213 102.443ZM102.673 103.237L83.009 114.479C84.0122 116.158 85.2191 117.716 86.608 119.117C88.0712 120.592 89.7112 121.867 91.4845 122.915L102.865 103.396C102.798 103.348 102.733 103.295 102.673 103.237ZM103.313 103.621L91.9175 123.165C93.6553 124.145 95.5147 124.911 97.456 125.44C99.4918 125.994 101.582 126.279 103.674 126.292L103.77 103.703C103.643 103.698 103.516 103.679 103.392 103.645C103.365 103.638 103.339 103.63 103.313 103.621ZM104.271 103.645L104.174 126.29C106.137 126.263 108.098 125.996 110.012 125.492C112.06 124.952 114.019 124.149 115.843 123.11L104.632 103.499C104.518 103.561 104.397 103.61 104.271 103.645ZM105.032 103.192L116.275 122.858C117.954 121.855 119.512 120.648 120.912 119.259C122.356 117.827 123.608 116.225 124.644 114.495L105.11 103.106C105.085 103.135 105.059 103.164 105.032 103.192ZM105.369 102.678L124.896 114.064C125.907 112.293 126.695 110.395 127.236 108.411C127.775 106.431 128.059 104.398 128.086 102.363L105.482 102.267C105.472 102.337 105.458 102.406 105.439 102.475C105.42 102.544 105.397 102.612 105.369 102.678ZM105.476 101.767L128.088 101.863C128.081 100.899 128.017 99.9355 127.895 98.9771C127.798 98.2149 127.665 97.4561 127.495 96.7033C127.431 96.4199 127.362 96.1374 127.288 95.8559C126.762 93.8609 125.987 91.95 124.986 90.1662L105.365 101.383C105.396 101.457 105.422 101.533 105.443 101.611C105.456 101.663 105.467 101.715 105.476 101.767ZM105.102 100.958L124.736 89.7327C123.717 88.0008 122.482 86.3949 121.055 84.9557C119.625 83.5138 118.026 82.2635 116.299 81.2286L104.908 100.764C104.945 100.795 104.98 100.828 105.014 100.862C105.045 100.893 105.074 100.925 105.102 100.958ZM104.483 100.502L115.867 80.9761C114.095 79.9631 112.194 79.1736 110.207 78.6324C108.198 78.0853 106.137 77.8013 104.073 77.7808L103.977 100.375C104.075 100.384 104.173 100.401 104.269 100.428C104.342 100.447 104.413 100.472 104.483 100.502ZM103.477 100.407L103.573 77.781C101.582 77.8022 99.5926 78.0686 97.6507 78.5803C95.6035 79.1197 93.6448 79.9223 91.8212 80.9616L103.032 100.572C103.15 100.508 103.275 100.458 103.406 100.424C103.429 100.418 103.453 100.412 103.477 100.407ZM102.631 100.878L91.3893 81.2137C89.7101 82.217 88.1513 83.424 86.7505 84.8132C85.2875 86.2642 84.0218 87.8891 82.9782 89.6453L102.502 101.029C102.542 100.976 102.585 100.926 102.631 100.878ZM22.7039 54.5028L41.7146 65.5869C44.8511 60.242 48.6777 55.3014 53.1157 50.9001C57.4947 46.5573 62.3937 42.8142 67.6825 39.7452L56.7606 20.6405C49.8087 24.6606 43.3708 29.5718 37.6199 35.2751C31.811 41.0359 26.8045 47.5043 22.7039 54.5028ZM9.80332 102.05C9.80433 110.098 10.8386 118.147 12.9069 125.996C15.006 133.962 18.1333 141.583 22.1846 148.675L41.2894 137.753C38.188 132.322 35.7939 126.488 34.1867 120.388C32.6108 114.408 31.8186 108.276 31.8096 102.143L9.80332 102.05ZM32.3096 102.145C32.3188 108.234 33.1054 114.323 34.6702 120.261C36.2662 126.318 38.6437 132.112 41.7234 137.505L60.829 126.583C58.6993 122.852 57.055 118.843 55.951 114.653C54.8786 110.584 54.3341 106.412 54.317 102.239L32.3096 102.145ZM54.8171 102.241C54.8343 106.371 55.3733 110.499 56.4345 114.526C57.5274 118.673 59.1549 122.641 61.263 126.334L82.3224 114.295C81.2615 112.434 80.4422 110.435 79.8916 108.345C79.449 106.665 79.1862 104.951 79.1032 103.23C79.0889 102.935 79.08 102.64 79.0763 102.345L54.8171 102.241ZM37.0675 168.248C31.3645 162.497 26.4536 156.06 22.4337 149.109L41.5388 138.186C44.6077 143.475 48.3504 148.373 52.6927 152.751C57.1067 157.202 62.063 161.038 67.4256 164.18L56.3412 183.191C49.3251 179.085 42.841 174.07 37.0675 168.248ZM53.0477 152.399C48.7364 148.052 45.0201 143.189 41.9729 137.938L61.079 127.016C63.175 130.603 65.7231 133.927 68.6738 136.903C71.6973 139.952 75.0909 142.581 78.7621 144.736L67.6774 163.748C62.3524 160.628 57.4308 156.819 53.0477 152.399ZM69.0288 136.551C66.109 133.607 63.5875 130.317 61.5131 126.767L82.5743 114.727C83.5993 116.444 84.8329 118.038 86.253 119.47C87.7469 120.976 89.4215 122.278 91.2322 123.348L79.014 144.304C75.3803 142.171 72.0214 139.568 69.0288 136.551ZM56.7734 183.442C63.759 187.48 71.2652 190.62 79.1172 192.759C87.0592 194.922 95.2156 196.024 103.377 196.063L103.471 174.057C97.2234 174.026 90.9802 173.182 84.9008 171.526C78.9133 169.895 73.1883 167.504 67.8579 164.431L56.7734 183.442ZM68.1097 163.999C73.4026 167.05 79.0871 169.424 85.0323 171.043C91.0693 172.688 97.2691 173.526 103.473 173.557L103.566 151.55C99.2773 151.527 94.9909 150.947 90.817 149.81C86.7359 148.698 82.8323 147.074 79.1946 144.987L68.1097 163.999ZM79.4464 144.555C83.0466 146.62 86.9097 148.228 90.9484 149.328C95.08 150.453 99.3229 151.028 103.569 151.05L103.672 126.793C101.536 126.78 99.4027 126.49 97.3246 125.923C95.3407 125.383 93.4407 124.6 91.6652 123.598L79.4464 144.555ZM127.789 192.961C119.951 195.026 111.913 196.06 103.877 196.064L103.971 174.058C110.091 174.046 116.212 173.253 122.181 171.68C128.282 170.073 134.117 167.678 139.549 164.576L150.471 183.681C143.378 187.734 135.756 190.861 127.789 192.961ZM122.054 171.197C116.127 172.759 110.05 173.545 103.973 173.558L104.066 151.55C108.228 151.531 112.388 150.986 116.447 149.917C120.638 148.812 124.647 147.168 128.379 145.037L139.301 164.142C133.907 167.223 128.112 169.601 122.054 171.197ZM116.32 149.433C112.303 150.491 108.187 151.03 104.069 151.05L104.172 126.791C106.178 126.764 108.183 126.492 110.14 125.977C112.23 125.426 114.23 124.606 116.092 123.545L128.131 144.603C124.437 146.712 120.468 148.34 116.32 149.433ZM150.904 183.432C157.854 179.413 164.291 174.502 170.04 168.8C175.831 163.057 180.825 156.611 184.918 149.638L165.907 138.553C162.777 143.873 158.964 148.791 154.544 153.174C150.166 157.516 145.269 161.258 139.982 164.327L150.904 183.432ZM139.734 163.892C144.983 160.846 149.845 157.13 154.192 152.819C158.581 148.467 162.367 143.584 165.475 138.301L146.464 127.217C144.321 130.846 141.714 134.201 138.697 137.194C135.722 140.144 132.398 142.691 128.812 144.787L139.734 163.892ZM128.564 144.353C132.112 142.279 135.401 139.758 138.345 136.839C141.331 133.877 143.911 130.556 146.032 126.965L125.077 114.747C124.019 116.515 122.74 118.152 121.265 119.615C119.833 121.035 118.24 122.268 116.524 123.293L128.564 144.353ZM194.551 126.751C192.401 134.644 189.239 142.189 185.17 149.206L166.159 138.121C169.263 132.759 171.676 126.996 173.318 120.966C174.959 114.942 175.803 108.757 175.848 102.567L197.855 102.66C197.801 110.765 196.7 118.864 194.551 126.751ZM172.836 120.835C171.205 126.822 168.809 132.545 165.727 137.869L146.716 126.785C148.834 123.116 150.481 119.174 151.604 115.051C152.726 110.932 153.306 106.703 153.343 102.471L175.348 102.565C175.303 108.711 174.465 114.853 172.836 120.835ZM151.121 114.919C150.01 119 148.38 122.901 146.284 126.534L125.329 114.316C126.361 112.508 127.166 110.57 127.718 108.544C128.269 106.52 128.559 104.444 128.586 102.365L152.843 102.469C152.806 106.658 152.232 110.843 151.121 114.919ZM197.857 102.16C197.867 94.0675 196.833 85.9723 194.753 78.0792C192.668 70.1652 189.568 62.5925 185.555 55.5396L166.45 66.4616C169.513 71.8524 171.88 77.6392 173.473 83.6861C175.061 89.7109 175.853 95.8894 175.85 102.067L197.857 102.16ZM175.35 102.065C175.353 95.9308 174.566 89.7959 172.99 83.8135C171.407 77.809 169.057 72.0628 166.016 66.7097L146.912 77.6312C149.003 81.3225 150.62 85.2829 151.71 89.4205C152.794 93.5345 153.339 97.7527 153.345 101.971L175.35 102.065ZM152.845 101.969C152.839 97.7941 152.3 93.6194 151.227 89.5479C150.148 85.4527 148.547 81.5329 146.478 77.8794L125.42 89.9179C126.442 91.7392 127.235 93.6904 127.771 95.7274C127.877 96.13 127.973 96.5345 128.058 96.9407C128.196 97.5949 128.307 98.2532 128.391 98.9141C128.515 99.894 128.581 100.88 128.588 101.865L152.845 101.969ZM170.593 35.8275C176.334 41.6163 181.272 48.1012 185.307 55.1057L166.202 66.0277C163.118 60.6862 159.348 55.7401 154.967 51.3231C150.587 46.9061 145.672 43.0947 140.356 39.9666L151.44 20.9557C158.41 25.0481 164.853 30.0395 170.593 35.8275ZM154.612 51.6752C158.962 56.061 162.705 60.9721 165.768 66.2758L146.663 77.1975C144.552 73.5569 141.976 70.1847 138.987 67.1709C135.997 64.1557 132.645 61.5511 129.02 59.4092L140.104 40.3986C145.383 43.5048 150.262 47.2893 154.612 51.6752ZM138.632 67.523C141.59 70.5056 144.14 73.8428 146.229 77.4456L125.171 89.4843C124.13 87.7143 122.868 86.0732 121.41 84.6026C119.949 83.1297 118.316 81.8527 116.551 80.7959L128.768 59.8411C132.356 61.9612 135.673 64.539 138.632 67.523ZM151.009 20.7036C143.988 16.6316 136.441 13.468 128.543 11.3167C120.629 9.16084 112.502 8.05916 104.37 8.01246L104.276 30.0183C110.494 30.0568 116.708 30.9006 122.759 32.5489C128.792 34.1925 134.559 36.6073 139.924 39.7145L151.009 20.7036ZM139.673 40.1465C134.345 37.0611 128.619 34.6634 122.628 33.0313C116.619 31.3945 110.449 30.5566 104.274 30.5183L104.18 52.5241C108.441 52.5542 112.698 53.1342 116.844 54.2636C120.971 55.3877 124.916 57.0366 128.589 59.157L139.673 40.1465ZM128.337 59.5889C124.702 57.4905 120.797 55.8586 116.713 54.7461C112.609 53.6281 108.395 53.054 104.178 53.0241L104.075 77.2798C106.182 77.3006 108.287 77.5904 110.338 78.149C112.368 78.7018 114.309 79.5084 116.119 80.5434L128.337 59.5889ZM79.8716 11.1145C87.7379 9.04173 95.8047 8.00748 103.87 8.01091L103.776 30.0169C97.6266 30.0215 91.4766 30.8136 85.4788 32.3941C79.38 34.0011 73.546 36.3949 68.1158 39.4958L57.1941 20.3914C64.2861 16.3405 71.906 13.2135 79.8716 11.1145ZM85.6062 32.8776C91.5615 31.3083 97.668 30.5216 103.774 30.5169L103.68 52.5231C99.4903 52.5358 95.3009 53.0803 91.2143 54.1572C87.0246 55.2612 83.0166 56.9052 79.2859 59.0346L68.3639 39.9298C73.7563 36.8505 79.5499 34.4734 85.6062 32.8776ZM91.3417 54.6407C95.3858 53.575 99.5317 53.036 103.678 53.0231L103.575 77.2799C101.54 77.301 99.5076 77.5729 97.5232 78.0958C95.4335 78.6464 93.4341 79.4658 91.5726 80.5268L79.534 59.4687C83.227 57.3608 87.1944 55.7335 91.3417 54.6407Z" fill="#0284D2"/>
</g>
<g opacity="0.8">
<circle cx="103.575" cy="102.09" r="24.4209" fill="#4396F7" fill-opacity="0.1"/>
<circle cx="103.575" cy="102.09" r="49.3232" fill="#4396F7" fill-opacity="0.1"/>
<circle cx="103.576" cy="102.089" r="71.9546" fill="#4396F7" fill-opacity="0.1"/>
<circle cx="103.575" cy="102.09" r="94.3093" fill="#4396F7" fill-opacity="0.1"/>
</g>
<path d="M128.346 101.586C128.346 97.3028 127.223 93.0944 125.089 89.3805L103.846 101.586H128.346Z" fill="#4396F7"/>
<path d="M125.104 89.405C122.975 85.6886 119.908 82.5955 116.21 80.434L103.847 101.586L125.104 89.405Z" fill="#4396F7"/>
<path d="M103.815 77.086C99.5318 77.091 95.3247 78.2189 91.6134 80.3572L103.844 101.586L103.815 77.086Z" fill="#4396F7"/>
<path d="M91.4786 80.4332C87.7806 82.5945 84.7138 85.6875 82.5841 89.4037L103.841 101.586L91.4786 80.4332Z" fill="#4396F7"/>
<path d="M82.5552 89.461C80.4355 93.1829 79.3286 97.3956 79.3449 101.679L103.845 101.586L82.5552 89.461Z" fill="#4396F7"/>
<path d="M79.3463 101.744C79.3738 106.027 80.5237 110.228 82.6814 113.928L103.846 101.586L79.3463 101.744Z" fill="#4396F7"/>
<path d="M91.733 122.882C95.4561 125 99.6693 126.104 103.953 126.086L103.846 101.586L91.733 122.882Z" fill="#4396F7"/>
<path d="M104.012 126.086C108.295 126.057 112.496 124.906 116.195 122.747L103.846 101.587L104.012 126.086Z" fill="#C0D3E9"/>
<path d="M91.5154 123.636C96.8684 126.629 103.127 127.572 109.124 126.291C115.122 125.01 120.448 121.592 124.111 116.673C127.774 111.755 129.524 105.672 129.033 99.5588C128.543 93.4458 125.846 87.7198 121.445 83.4485C117.044 79.1771 111.241 76.6519 105.116 76.3436C98.9909 76.0353 92.9629 77.965 88.1556 81.773C83.3484 85.5809 80.0901 91.0071 78.9882 97.04C77.8863 103.073 79.016 109.301 82.1666 114.562L103.846 101.58L91.5154 123.636Z" fill="#4396F7"/>
<path d="M125.136 113.711C127.256 109.989 128.363 105.776 128.347 101.493L103.847 101.586L125.136 113.711Z" fill="#4396F7"/>
<path d="M116.192 80.4253C112.492 78.2666 108.292 77.1156 104.008 77.0869L103.845 101.587L116.192 80.4253Z" fill="#4396F7"/>
<path d="M198.085 102.478C198.238 86.0035 194.069 69.7765 185.995 55.4155L166.362 66.4542C172.507 77.383 175.679 89.7317 175.563 102.269L198.085 102.478Z" fill="#F74343"/>
<path d="M103.984 7.71652C87.509 7.75095 71.3305 12.104 57.0623 20.3417L68.3238 39.8473C79.1819 33.5784 91.4937 30.2657 104.031 30.2395L103.984 7.71652Z" fill="#F74343"/>
<path d="M56.6061 20.4957C42.3842 28.8131 30.5914 40.7137 22.4037 55.0106L41.9485 66.2038C48.1794 55.3238 57.1537 46.2675 67.9766 39.938L56.6061 20.4957Z" fill="#F74343"/>
<path d="M22.07 54.7662C13.8822 69.063 9.58547 85.2566 9.60847 101.732L32.1315 101.701C32.114 89.1628 35.3838 76.8395 41.6148 65.9596L22.07 54.7662Z" fill="#F74343"/>
<path d="M56.1013 183.717C70.5451 192.084 86.952 196.464 103.644 196.41L103.571 173.887C90.8682 173.928 78.3826 170.595 67.3909 164.227L56.1013 183.717Z" fill="#F74343"/>
<path d="M184.958 149.592C193.347 135.413 197.873 119.282 198.084 102.808L175.563 102.52C175.403 115.056 171.958 127.332 165.574 138.123L184.958 149.592Z" fill="#F74343"/>
<path d="M151.146 20.2947C136.884 12.0457 120.709 7.67973 104.234 7.63221L104.169 30.1552C116.707 30.1914 129.016 33.5138 139.869 39.7913L151.146 20.2947Z" fill="#F74343"/>
<path d="M175.427 102.541C175.591 90.0248 172.471 77.6844 166.377 66.7507L146.867 77.6242C151.06 85.1466 153.207 93.6368 153.094 102.248L175.427 102.541Z" fill="#4396F7"/>
<path d="M166.261 66.3072C160.044 55.4796 151.103 46.4664 140.326 40.1624L129.049 59.4413C136.463 63.7785 142.615 69.9796 146.892 77.4289L166.261 66.3072Z" fill="#F74343"/>
<path d="M103.691 30.0146C91.1753 30.0407 78.8857 33.3475 68.0471 39.605L79.2146 58.9477C86.6715 54.6425 95.1267 52.3675 103.737 52.3495L103.691 30.0146Z" fill="#4396F7"/>
<path d="M67.6923 39.8056C56.8889 46.1237 47.9308 55.1637 41.7111 66.024L61.0928 77.1238C65.3719 69.6519 71.5351 63.4323 78.9678 59.0855L67.6923 39.8056Z" fill="#4396F7"/>
<path d="M41.5324 66.2957C35.3126 77.1559 32.0487 89.457 32.0662 101.972L54.4012 101.941C54.3892 93.3306 56.6347 84.8675 60.9139 77.3956L41.5324 66.2957Z" fill="#4396F7"/>
<path d="M32.067 102.189C32.1223 114.704 35.4576 126.986 41.7403 137.81L61.057 126.597C56.7345 119.15 54.4398 110.7 54.4018 102.09L32.067 102.189Z" fill="#F74343"/>
<path d="M67.4923 164.061C78.5884 170.399 91.1789 173.652 103.957 173.482L103.659 151.149C94.8674 151.266 86.2051 149.028 78.571 144.667L67.4923 164.061Z" fill="#4396F7"/>
<path d="M165.274 138.365C171.788 127.479 175.293 115.059 175.43 102.374L153.096 102.133C153.002 110.86 150.59 119.406 146.109 126.895L165.274 138.365Z" fill="#4396F7"/>
<path d="M139.536 163.938C150.311 157.818 159.313 149.006 165.661 138.364L146.479 126.922C142.112 134.244 135.919 140.307 128.505 144.517L139.536 163.938Z" fill="#F74343"/>
<path d="M140.131 40.1238C128.865 33.5277 116.009 30.1381 102.955 30.3217C89.9017 30.5052 77.1466 34.255 66.0703 41.1653L77.8925 60.1149C85.513 55.3606 94.2885 52.7808 103.27 52.6545C112.251 52.5282 121.095 54.8602 128.846 59.3983L140.131 40.1238Z" fill="#4396F7"/>
<path d="M152.861 101.558C152.853 92.9881 150.599 84.5702 146.323 77.1434L125.252 89.275C127.408 93.0181 128.544 97.2607 128.548 101.58L152.861 101.558Z" fill="#4396F7"/>
<path d="M146.353 77.1922C142.086 69.7604 135.945 63.5773 128.542 59.2594L116.292 80.2609C120.023 82.4371 123.118 85.5534 125.269 89.299L146.353 77.1922Z" fill="#4396F7"/>
<path d="M103.737 52.5831C95.1668 52.601 86.7515 54.8653 79.3299 59.1501L91.4864 80.2061C95.2269 78.0465 99.4682 76.9053 103.787 76.8963L103.737 52.5831Z" fill="#4396F7"/>
<path d="M79.0864 59.2874C71.6889 63.6138 65.5548 69.8039 61.2959 77.2405L82.3942 89.3233C84.5407 85.5753 87.6323 82.4555 91.3606 80.275L79.0864 59.2874Z" fill="#4396F7"/>
<path d="M61.3033 77.2393C57.0443 84.6758 54.8094 93.099 54.8213 101.669L79.1346 101.635C79.1285 97.3157 80.255 93.0704 82.4015 89.3224L61.3033 77.2393Z" fill="#4396F7"/>
<path d="M54.8234 101.818C54.8613 110.388 57.1451 118.798 61.4472 126.209L82.4748 114.004C80.3066 110.268 79.1555 106.03 79.1365 101.711L54.8234 101.818Z" fill="#4396F7"/>
<path d="M79.218 144.703C86.6591 148.954 95.0847 151.18 103.654 151.159L103.594 126.845C99.2748 126.856 95.0283 125.734 91.2779 123.592L79.218 144.703Z" fill="#4396F7"/>
<path d="M128.934 144.993C137.303 140.056 144.029 132.758 148.268 124.014C152.507 115.27 154.07 105.47 152.763 95.8411C151.455 86.2124 147.335 77.1838 140.918 69.8872C134.5 62.5906 126.072 57.3505 116.689 54.8238C107.307 52.2971 97.3866 52.5962 88.1731 55.6836C78.9596 58.771 70.8624 64.5094 64.8964 72.1795C58.9305 79.8495 55.3614 89.1099 54.6364 98.7999C53.9113 108.49 56.0627 118.178 60.8208 126.651L82.1659 114.663C79.7678 110.393 78.6835 105.51 79.049 100.626C79.4144 95.7427 81.2132 91.0754 84.22 87.2098C87.2269 83.3441 91.3078 80.4519 95.9515 78.8958C100.595 77.3398 105.595 77.189 110.324 78.4625C115.053 79.7359 119.3 82.3769 122.535 86.0545C125.769 89.732 127.846 94.2823 128.505 99.1352C129.164 103.988 128.376 108.927 126.239 113.334C124.103 117.741 120.713 121.419 116.495 123.908L128.934 144.993Z" fill="#4396F7"/>
<path d="M146.255 126.179C150.552 118.764 152.829 110.353 152.861 101.783L128.548 101.693C128.532 106.012 127.384 110.252 125.219 113.989L146.255 126.179Z" fill="#4396F7"/>
<path d="M128.38 59.1681C120.962 54.8773 112.548 52.6063 103.979 52.5816L103.908 76.8948C108.228 76.9072 112.468 78.0518 116.207 80.2143L128.38 59.1681Z" fill="#4396F7"/>
<mask id="mask0" mask-type="alpha" maskUnits="userSpaceOnUse" x="36" y="85" width="68" height="81">
<path d="M67.6934 164.202L103.164 102.795L41.8695 137.737C41.8695 137.737 46.321 145.981 52.3584 152.534C57.8257 158.468 67.6934 164.202 67.6934 164.202Z" fill="#F74343"/>
</mask>
<g mask="url(#mask0)">
<path fill-rule="evenodd" clip-rule="evenodd" d="M52.0355 143.627L44.0405 177.138L45.6031 177.511L53.5982 143.999L52.0355 143.627ZM86.325 122.547L78.3299 156.058L79.8926 156.431L87.8877 122.92L86.325 122.547ZM112.619 134.979L120.614 101.467L122.177 101.84L114.182 135.352L112.619 134.979ZM69.1803 133.087L61.1852 166.598L62.7479 166.971L70.7429 133.459L69.1803 133.087ZM95.4747 145.519L103.47 112.007L105.032 112.38L97.0373 145.891L95.4747 145.519ZM137.759 90.9273L129.764 124.439L131.327 124.812L139.322 91.3001L137.759 90.9273ZM49.7554 173.625L57.7504 140.113L59.3131 140.486L51.318 173.998L49.7554 173.625ZM92.0399 119.034L84.0449 152.545L85.6075 152.918L93.6026 119.406L92.0399 119.034ZM118.334 131.465L126.329 97.9538L127.892 98.3267L119.897 131.838L118.334 131.465ZM74.8952 129.573L66.9001 163.085L68.4628 163.458L76.4578 129.946L74.8952 129.573ZM101.19 142.005L109.185 108.494L110.747 108.867L102.752 142.378L101.19 142.005ZM143.474 87.414L135.479 120.926L137.042 121.298L145.037 87.7868L143.474 87.414ZM55.4703 170.112L63.4654 136.6L65.028 136.973L57.033 170.484L55.4703 170.112ZM97.7548 115.52L89.7598 149.032L91.3224 149.405L99.3175 115.893L97.7548 115.52ZM124.049 127.952L132.044 94.4406L133.607 94.8134L125.612 128.325L124.049 127.952ZM80.6101 126.06L72.615 159.572L74.1777 159.944L82.1728 126.433L80.6101 126.06ZM106.905 138.492L114.9 104.98L116.462 105.353L108.467 138.865L106.905 138.492ZM149.189 83.9007L141.194 117.412L142.757 117.785L150.752 84.2735L149.189 83.9007Z" fill="#4396F7"/>
<path fill-rule="evenodd" clip-rule="evenodd" d="M47.1351 123.001L39.1401 156.512L40.7027 156.885L48.6978 123.373L47.1351 123.001ZM81.4246 101.921L73.4295 135.432L74.9922 135.805L82.9873 102.294L81.4246 101.921ZM107.719 114.353L115.714 80.8412L117.277 81.214L109.282 114.726L107.719 114.353ZM64.2799 112.461L56.2848 145.972L57.8475 146.345L65.8425 112.834L64.2799 112.461ZM90.5743 124.893L98.5694 91.381L100.132 91.7538L92.1369 125.265L90.5743 124.893ZM132.859 70.3013L124.864 103.813L126.426 104.186L134.421 70.6741L132.859 70.3013ZM44.855 152.999L52.8501 119.487L54.4127 119.86L46.4177 153.372L44.855 152.999ZM87.1395 98.4076L79.1445 131.919L80.7071 132.292L88.7022 98.7804L87.1395 98.4076ZM113.434 110.839L121.429 77.3279L122.992 77.7007L114.997 111.212L113.434 110.839ZM69.9948 108.947L61.9997 142.459L63.5624 142.832L71.5575 109.32L69.9948 108.947ZM96.2892 121.379L104.284 87.8677L105.847 88.2405L97.8519 121.752L96.2892 121.379ZM138.574 66.788L130.579 100.3L132.141 100.672L140.136 67.1608L138.574 66.788ZM50.5699 149.486L58.565 115.974L60.1276 116.347L52.1326 149.858L50.5699 149.486ZM92.8544 94.8943L84.8594 128.406L86.422 128.779L94.4171 95.2671L92.8544 94.8943ZM119.149 107.326L127.144 73.8146L128.707 74.1874L120.711 107.699L119.149 107.326ZM75.7097 105.434L67.7146 138.946L69.2773 139.319L77.2724 105.807L75.7097 105.434ZM102.004 117.866L109.999 84.3544L111.562 84.7272L103.567 118.239L102.004 117.866ZM144.289 63.2747L136.294 96.7863L137.856 97.1591L145.851 63.6476L144.289 63.2747Z" fill="#4396F7"/>
</g>
<mask id="mask1" mask-type="alpha" maskUnits="userSpaceOnUse" x="21" y="138" width="47" height="46">
<path d="M56.1589 183.537L67.5601 164.201C67.5601 164.201 58.3121 158.256 53.3586 153.333C47.9631 147.971 41.6049 138.065 41.6049 138.065L21.6213 149.266C21.6213 149.266 34.3795 167.283 36.1566 169.135C40.8904 174.069 56.1589 183.537 56.1589 183.537Z" fill="#F74343"/>
</mask>
<g mask="url(#mask1)">
<path fill-rule="evenodd" clip-rule="evenodd" d="M15.6537 178.041L7.65864 211.552L9.2213 211.925L17.2164 178.413L15.6537 178.041ZM49.9432 156.961L41.9481 190.472L43.5108 190.845L51.5058 157.334L49.9432 156.961ZM76.2376 169.393L84.2326 135.881L85.7953 136.254L77.8002 169.766L76.2376 169.393ZM32.7984 167.501L24.8034 201.012L26.366 201.385L34.3611 167.874L32.7984 167.501ZM59.0928 179.933L67.0879 146.421L68.6506 146.794L60.6555 180.305L59.0928 179.933ZM101.377 125.341L93.3823 158.853L94.945 159.226L102.94 125.714L101.377 125.341ZM13.3735 208.039L21.3686 174.527L22.9313 174.9L14.9362 208.412L13.3735 208.039ZM55.6581 153.448L47.663 186.959L49.2257 187.332L57.2207 153.82L55.6581 153.448ZM81.9525 165.879L89.9476 132.368L91.5102 132.741L83.5152 166.252L81.9525 165.879ZM38.5133 163.987L30.5183 197.499L32.0809 197.872L40.076 164.36L38.5133 163.987ZM64.8078 176.419L72.8028 142.908L74.3655 143.281L66.3704 176.792L64.8078 176.419ZM107.092 121.828L99.0972 155.34L100.66 155.712L108.655 122.201L107.092 121.828ZM19.0885 204.526L27.0835 171.014L28.6462 171.387L20.6511 204.898L19.0885 204.526ZM61.373 149.934L53.3779 183.446L54.9406 183.819L62.9356 150.307L61.373 149.934ZM87.6674 162.366L95.6625 128.855L97.2251 129.227L89.2301 162.739L87.6674 162.366ZM44.2283 160.474L36.2332 193.986L37.7959 194.359L45.7909 160.847L44.2283 160.474ZM70.5227 172.906L78.5177 139.394L80.0804 139.767L72.0853 173.279L70.5227 172.906ZM112.807 118.315L104.812 151.826L106.375 152.199L114.37 118.688L112.807 118.315Z" fill="#F74343"/>
<path fill-rule="evenodd" clip-rule="evenodd" d="M15.6537 157.82L7.65864 191.331L9.2213 191.704L17.2164 158.193L15.6537 157.82ZM49.9432 136.74L41.9481 170.252L43.5108 170.625L51.5058 137.113L49.9432 136.74ZM76.2376 149.172L84.2326 115.66L85.7953 116.033L77.8002 149.545L76.2376 149.172ZM32.7984 147.28L24.8034 180.792L26.366 181.164L34.3611 147.653L32.7984 147.28ZM59.0928 159.712L67.0879 126.2L68.6506 126.573L60.6555 160.085L59.0928 159.712ZM101.377 105.121L93.3823 138.632L94.945 139.005L102.94 105.493L101.377 105.121ZM13.3735 187.818L21.3686 154.307L22.9313 154.679L14.9362 188.191L13.3735 187.818ZM55.6581 133.227L47.663 166.738L49.2257 167.111L57.2207 133.6L55.6581 133.227ZM81.9525 145.659L89.9476 112.147L91.5102 112.52L83.5152 146.032L81.9525 145.659ZM38.5133 143.767L30.5183 177.278L32.0809 177.651L40.076 144.14L38.5133 143.767ZM64.8078 156.199L72.8028 122.687L74.3655 123.06L66.3704 156.571L64.8078 156.199ZM107.092 101.607L99.0972 135.119L100.66 135.492L108.655 101.98L107.092 101.607ZM19.0885 184.305L27.0835 150.793L28.6462 151.166L20.6511 184.678L19.0885 184.305ZM61.373 129.714L53.3779 163.225L54.9406 163.598L62.9356 130.086L61.373 129.714ZM87.6674 142.145L95.6625 108.634L97.2251 109.007L89.2301 142.518L87.6674 142.145ZM44.2283 140.253L36.2332 173.765L37.7959 174.138L45.7909 140.626L44.2283 140.253ZM70.5227 152.685L78.5177 119.174L80.0804 119.547L72.0853 153.058L70.5227 152.685ZM112.807 98.0941L104.812 131.606L106.375 131.978L114.37 98.4669L112.807 98.0941Z" fill="#F74343"/>
<path fill-rule="evenodd" clip-rule="evenodd" d="M15.6537 137.442L7.65864 170.954L9.2213 171.326L17.2164 137.815L15.6537 137.442ZM49.9432 116.362L41.9481 149.874L43.5108 150.247L51.5058 116.735L49.9432 116.362ZM76.2376 128.794L84.2326 95.2826L85.7953 95.6554L77.8002 129.167L76.2376 128.794ZM32.7984 126.902L24.8034 160.414L26.366 160.786L34.3611 127.275L32.7984 126.902ZM59.0928 139.334L67.0879 105.822L68.6506 106.195L60.6555 139.707L59.0928 139.334ZM101.377 84.7427L93.3823 118.254L94.945 118.627L102.94 85.1155L101.377 84.7427ZM13.3735 167.44L21.3686 133.929L22.9313 134.301L14.9362 167.813L13.3735 167.44ZM55.6581 112.849L47.663 146.361L49.2257 146.733L57.2207 113.222L55.6581 112.849ZM81.9525 125.281L89.9476 91.7693L91.5102 92.1421L83.5152 125.654L81.9525 125.281ZM38.5133 123.389L30.5183 156.9L32.0809 157.273L40.076 123.762L38.5133 123.389ZM64.8078 135.821L72.8028 102.309L74.3655 102.682L66.3704 136.193L64.8078 135.821ZM107.092 81.2294L99.0972 114.741L100.66 115.114L108.655 81.6023L107.092 81.2294ZM19.0885 163.927L27.0835 130.415L28.6462 130.788L20.6511 164.3L19.0885 163.927ZM61.373 109.336L53.3779 142.847L54.9406 143.22L62.9356 109.709L61.373 109.336ZM87.6674 121.768L95.6625 88.256L97.2251 88.6288L89.2301 122.14L87.6674 121.768ZM44.2283 119.876L36.2332 153.387L37.7959 153.76L45.7909 120.248L44.2283 119.876ZM70.5227 132.307L78.5177 98.7958L80.0804 99.1687L72.0853 132.68L70.5227 132.307ZM112.807 77.7162L104.812 111.228L106.375 111.601L114.37 78.089L112.807 77.7162Z" fill="#F74343"/>
</g>
<g style="mix-blend-mode:screen">
<path fill-rule="evenodd" clip-rule="evenodd" d="M104.401 0.643865L104.372 7.51246C112.548 7.55935 120.718 8.66689 128.674 10.8342C136.614 12.9971 144.203 16.1777 151.26 20.2717L154.581 14.5764L155.013 14.8283L151.692 20.5237C158.699 24.638 165.177 29.6562 170.948 35.4754C176.72 41.2954 181.684 47.8153 185.741 54.8575L191.631 51.4902L191.879 51.9243L185.989 55.2915C190.023 62.3821 193.14 69.9954 195.237 77.9518C197.328 85.8874 198.368 94.0261 198.357 102.163L205.397 102.193L205.395 102.693L198.355 102.663C198.301 110.811 197.194 118.953 195.034 126.882C192.872 134.818 189.693 142.403 185.602 149.458L191.46 152.873L191.208 153.305L185.35 149.89C181.235 156.901 176.214 163.381 170.392 169.155C164.612 174.888 158.14 179.825 151.153 183.866L154.548 189.806L154.114 190.054L150.719 184.115C143.588 188.189 135.926 191.334 127.916 193.444C120.036 195.521 111.955 196.561 103.875 196.564L103.845 203.572L103.345 203.569L103.375 196.563C95.1699 196.524 86.9702 195.416 78.9858 193.241C71.0914 191.091 63.5448 187.934 56.5215 183.874L53.1634 189.634L52.7314 189.382L56.0893 183.623C49.0356 179.495 42.5168 174.453 36.7125 168.6C30.9786 162.818 26.0411 156.346 21.9996 149.357L16.1144 152.721L15.8663 152.287L21.7505 148.923C17.6776 141.793 14.5337 134.132 12.4234 126.124C10.3439 118.232 9.30415 110.139 9.30332 102.047L2.34866 102.018L2.35079 101.518L9.30459 101.547C9.34709 93.3543 10.4547 85.1664 12.6266 77.1933C14.7818 69.2817 17.9474 61.7193 22.0203 54.683L16.2853 51.3392L16.5372 50.9073L22.2719 54.2509C26.3945 47.2149 31.4278 40.7118 37.2678 34.9201C43.0499 29.1858 49.5228 24.2481 56.5125 20.2065L53.1962 14.4055L53.6302 14.1574L56.946 19.9573C64.0757 15.8848 71.7362 12.7411 79.7442 10.631C87.6529 8.54704 95.7633 7.5073 103.872 7.51091L103.901 0.641735L104.401 0.643865ZM13.1091 77.3248C15.2527 69.4555 18.4013 61.9335 22.4522 54.9348L41.4631 66.019C38.377 71.3625 35.9773 77.1034 34.3415 83.1082C32.6886 89.1764 31.8447 95.4077 31.8106 101.643L9.80459 101.55C9.8469 93.3999 10.9487 85.2555 13.1091 77.3248ZM34.824 83.2397C36.4482 77.2771 38.8309 71.5768 41.895 66.2708L60.9067 77.3555C58.8076 81.0061 57.1737 84.9252 56.0574 89.0232C54.9234 93.1863 54.3432 97.4612 54.3175 101.739L32.3106 101.645C32.3445 95.4534 33.1825 89.2654 34.824 83.2397ZM42.1466 65.8387L61.1581 76.9233C63.3085 73.2694 65.9285 69.8911 68.9647 66.88C71.9403 63.929 75.2652 61.3808 78.8529 59.2847L67.9306 40.1793C62.6796 43.2267 57.8156 46.9433 53.4678 51.2551C49.0609 55.6255 45.2611 60.5314 42.1466 65.8387ZM56.5398 89.1546C57.6446 85.099 59.2614 81.2203 61.3386 77.6073L82.2948 89.8257C81.2811 91.6137 80.4896 93.5286 79.9448 95.5288C79.445 97.3635 79.1604 99.2418 79.0911 101.126C79.0823 101.366 79.077 101.605 79.0751 101.845L54.8175 101.741C54.8431 97.5068 55.4173 93.2754 56.5398 89.1546ZM61.5901 77.1751L82.5457 89.3932C83.6114 87.5991 84.904 85.9392 86.3984 84.4572C87.8303 83.0372 89.4239 81.8037 91.1407 80.7788L79.101 59.7188C75.5511 61.7933 72.2612 64.315 69.3168 67.2351C66.3117 70.2153 63.7185 73.5588 61.5901 77.1751ZM80.4272 95.6612C80.9606 93.7032 81.7352 91.8284 82.7272 90.0778L102.263 101.468C102.247 101.511 102.234 101.554 102.222 101.598C102.191 101.711 102.172 101.827 102.166 101.943L79.5751 101.847C79.577 101.613 79.5822 101.379 79.5908 101.145C79.6587 99.2985 79.9376 97.4586 80.4272 95.6612ZM102.213 102.443L79.5764 102.347C79.58 102.629 79.5885 102.912 79.602 103.194C79.6828 104.884 79.9405 106.567 80.3751 108.216C80.9146 110.264 81.7174 112.223 82.7569 114.047L102.367 102.836C102.303 102.718 102.253 102.592 102.218 102.461C102.217 102.455 102.215 102.449 102.213 102.443ZM102.673 103.237L83.009 114.479C84.0122 116.158 85.2191 117.716 86.608 119.117C88.0712 120.592 89.7112 121.867 91.4845 122.915L102.865 103.396C102.798 103.348 102.733 103.295 102.673 103.237ZM103.313 103.621L91.9175 123.165C93.6553 124.145 95.5147 124.911 97.456 125.44C99.4918 125.994 101.582 126.279 103.674 126.292L103.77 103.703C103.643 103.698 103.516 103.679 103.392 103.645C103.365 103.638 103.339 103.63 103.313 103.621ZM104.271 103.645L104.174 126.29C106.137 126.263 108.098 125.996 110.012 125.492C112.06 124.952 114.019 124.149 115.843 123.11L104.632 103.499C104.518 103.561 104.397 103.61 104.271 103.645ZM105.032 103.192L116.275 122.858C117.954 121.855 119.512 120.648 120.912 119.259C122.356 117.827 123.608 116.225 124.644 114.495L105.11 103.106C105.085 103.135 105.059 103.164 105.032 103.192ZM105.369 102.678L124.896 114.064C125.907 112.293 126.695 110.395 127.236 108.411C127.775 106.431 128.059 104.398 128.086 102.363L105.482 102.267C105.472 102.337 105.458 102.406 105.439 102.475C105.42 102.544 105.397 102.612 105.369 102.678ZM105.476 101.767L128.088 101.863C128.081 100.899 128.017 99.9355 127.895 98.9771C127.798 98.2149 127.665 97.4561 127.495 96.7033C127.431 96.4199 127.362 96.1374 127.288 95.8559C126.762 93.8609 125.987 91.95 124.986 90.1662L105.365 101.383C105.396 101.457 105.422 101.533 105.443 101.611C105.456 101.663 105.467 101.715 105.476 101.767ZM105.102 100.958L124.736 89.7327C123.717 88.0008 122.482 86.3949 121.055 84.9557C119.625 83.5138 118.026 82.2635 116.299 81.2286L104.908 100.764C104.945 100.795 104.98 100.828 105.014 100.862C105.045 100.893 105.074 100.925 105.102 100.958ZM104.483 100.502L115.867 80.9761C114.095 79.9631 112.194 79.1736 110.207 78.6324C108.198 78.0853 106.137 77.8013 104.073 77.7808L103.977 100.375C104.075 100.384 104.173 100.401 104.269 100.428C104.342 100.447 104.413 100.472 104.483 100.502ZM103.477 100.407L103.573 77.781C101.582 77.8022 99.5926 78.0686 97.6507 78.5803C95.6035 79.1197 93.6448 79.9223 91.8212 80.9616L103.032 100.572C103.15 100.508 103.275 100.458 103.406 100.424C103.429 100.418 103.453 100.412 103.477 100.407ZM102.631 100.878L91.3893 81.2137C89.7101 82.217 88.1513 83.424 86.7505 84.8132C85.2875 86.2642 84.0218 87.8891 82.9782 89.6453L102.502 101.029C102.542 100.976 102.585 100.926 102.631 100.878ZM22.7039 54.5028L41.7146 65.5869C44.8511 60.242 48.6777 55.3014 53.1157 50.9001C57.4947 46.5573 62.3937 42.8142 67.6825 39.7452L56.7606 20.6405C49.8087 24.6606 43.3708 29.5718 37.6199 35.2751C31.811 41.0359 26.8045 47.5043 22.7039 54.5028ZM9.80332 102.05C9.80433 110.098 10.8386 118.147 12.9069 125.996C15.006 133.962 18.1333 141.583 22.1846 148.675L41.2894 137.753C38.188 132.322 35.7939 126.488 34.1867 120.388C32.6108 114.408 31.8186 108.276 31.8096 102.143L9.80332 102.05ZM32.3096 102.145C32.3188 108.234 33.1054 114.323 34.6702 120.261C36.2662 126.318 38.6437 132.112 41.7234 137.505L60.829 126.583C58.6993 122.852 57.055 118.843 55.951 114.653C54.8786 110.584 54.3341 106.412 54.317 102.239L32.3096 102.145ZM54.8171 102.241C54.8343 106.371 55.3733 110.499 56.4345 114.526C57.5274 118.673 59.1549 122.641 61.263 126.334L82.3224 114.295C81.2615 112.434 80.4422 110.435 79.8916 108.345C79.449 106.665 79.1862 104.951 79.1032 103.23C79.0889 102.935 79.08 102.64 79.0763 102.345L54.8171 102.241ZM37.0675 168.248C31.3645 162.497 26.4536 156.06 22.4337 149.109L41.5388 138.186C44.6077 143.475 48.3504 148.373 52.6927 152.751C57.1067 157.202 62.063 161.038 67.4256 164.18L56.3412 183.191C49.3251 179.085 42.841 174.07 37.0675 168.248ZM53.0477 152.399C48.7364 148.052 45.0201 143.189 41.9729 137.938L61.079 127.016C63.175 130.603 65.7231 133.927 68.6738 136.903C71.6973 139.952 75.0909 142.581 78.7621 144.736L67.6774 163.748C62.3524 160.628 57.4308 156.819 53.0477 152.399ZM69.0288 136.551C66.109 133.607 63.5875 130.317 61.5131 126.767L82.5743 114.727C83.5993 116.444 84.8329 118.038 86.253 119.47C87.7469 120.976 89.4215 122.278 91.2322 123.348L79.014 144.304C75.3803 142.171 72.0214 139.568 69.0288 136.551ZM56.7734 183.442C63.759 187.48 71.2652 190.62 79.1172 192.759C87.0592 194.922 95.2156 196.024 103.377 196.063L103.471 174.057C97.2234 174.026 90.9802 173.182 84.9008 171.526C78.9133 169.895 73.1883 167.504 67.8579 164.431L56.7734 183.442ZM68.1097 163.999C73.4026 167.05 79.0871 169.424 85.0323 171.043C91.0693 172.688 97.2691 173.526 103.473 173.557L103.566 151.55C99.2773 151.527 94.9909 150.947 90.817 149.81C86.7359 148.698 82.8323 147.074 79.1946 144.987L68.1097 163.999ZM79.4464 144.555C83.0466 146.62 86.9097 148.228 90.9484 149.328C95.08 150.453 99.3229 151.028 103.569 151.05L103.672 126.793C101.536 126.78 99.4027 126.49 97.3246 125.923C95.3407 125.383 93.4407 124.6 91.6652 123.598L79.4464 144.555ZM127.789 192.961C119.951 195.026 111.913 196.06 103.877 196.064L103.971 174.058C110.091 174.046 116.212 173.253 122.181 171.68C128.282 170.073 134.117 167.678 139.549 164.576L150.471 183.681C143.378 187.734 135.756 190.861 127.789 192.961ZM122.054 171.197C116.127 172.759 110.05 173.545 103.973 173.558L104.066 151.55C108.228 151.531 112.388 150.986 116.447 149.917C120.638 148.812 124.647 147.168 128.379 145.037L139.301 164.142C133.907 167.223 128.112 169.601 122.054 171.197ZM116.32 149.433C112.303 150.491 108.187 151.03 104.069 151.05L104.172 126.791C106.178 126.764 108.183 126.492 110.14 125.977C112.23 125.426 114.23 124.606 116.092 123.545L128.131 144.603C124.437 146.712 120.468 148.34 116.32 149.433ZM150.904 183.432C157.854 179.413 164.291 174.502 170.04 168.8C175.831 163.057 180.825 156.611 184.918 149.638L165.907 138.553C162.777 143.873 158.964 148.791 154.544 153.174C150.166 157.516 145.269 161.258 139.982 164.327L150.904 183.432ZM139.734 163.892C144.983 160.846 149.845 157.13 154.192 152.819C158.581 148.467 162.367 143.584 165.475 138.301L146.464 127.217C144.321 130.846 141.714 134.201 138.697 137.194C135.722 140.144 132.398 142.691 128.812 144.787L139.734 163.892ZM128.564 144.353C132.112 142.279 135.401 139.758 138.345 136.839C141.331 133.877 143.911 130.556 146.032 126.965L125.077 114.747C124.019 116.515 122.74 118.152 121.265 119.615C119.833 121.035 118.24 122.268 116.524 123.293L128.564 144.353ZM194.551 126.751C192.401 134.644 189.239 142.189 185.17 149.206L166.159 138.121C169.263 132.759 171.676 126.996 173.318 120.966C174.959 114.942 175.803 108.757 175.848 102.567L197.855 102.66C197.801 110.765 196.7 118.864 194.551 126.751ZM172.836 120.835C171.205 126.822 168.809 132.545 165.727 137.869L146.716 126.785C148.834 123.116 150.481 119.174 151.604 115.051C152.726 110.932 153.306 106.703 153.343 102.471L175.348 102.565C175.303 108.711 174.465 114.853 172.836 120.835ZM151.121 114.919C150.01 119 148.38 122.901 146.284 126.534L125.329 114.316C126.361 112.508 127.166 110.57 127.718 108.544C128.269 106.52 128.559 104.444 128.586 102.365L152.843 102.469C152.806 106.658 152.232 110.843 151.121 114.919ZM197.857 102.16C197.867 94.0675 196.833 85.9723 194.753 78.0792C192.668 70.1652 189.568 62.5925 185.555 55.5396L166.45 66.4616C169.513 71.8524 171.88 77.6392 173.473 83.6861C175.061 89.7109 175.853 95.8894 175.85 102.067L197.857 102.16ZM175.35 102.065C175.353 95.9308 174.566 89.7959 172.99 83.8135C171.407 77.809 169.057 72.0628 166.016 66.7097L146.912 77.6312C149.003 81.3225 150.62 85.2829 151.71 89.4205C152.794 93.5345 153.339 97.7527 153.345 101.971L175.35 102.065ZM152.845 101.969C152.839 97.7941 152.3 93.6194 151.227 89.5479C150.148 85.4527 148.547 81.5329 146.478 77.8794L125.42 89.9179C126.442 91.7392 127.235 93.6904 127.771 95.7274C127.877 96.13 127.973 96.5345 128.058 96.9407C128.196 97.5949 128.307 98.2532 128.391 98.9141C128.515 99.894 128.581 100.88 128.588 101.865L152.845 101.969ZM170.593 35.8275C176.334 41.6163 181.272 48.1012 185.307 55.1057L166.202 66.0277C163.118 60.6862 159.348 55.7401 154.967 51.3231C150.587 46.9061 145.672 43.0947 140.356 39.9666L151.44 20.9557C158.41 25.0481 164.853 30.0395 170.593 35.8275ZM154.612 51.6752C158.962 56.061 162.705 60.9721 165.768 66.2758L146.663 77.1975C144.552 73.5569 141.976 70.1847 138.987 67.1709C135.997 64.1557 132.645 61.5511 129.02 59.4092L140.104 40.3986C145.383 43.5048 150.262 47.2893 154.612 51.6752ZM138.632 67.523C141.59 70.5056 144.14 73.8428 146.229 77.4456L125.171 89.4843C124.13 87.7143 122.868 86.0732 121.41 84.6026C119.949 83.1297 118.316 81.8527 116.551 80.7959L128.768 59.8411C132.356 61.9612 135.673 64.539 138.632 67.523ZM151.009 20.7036C143.988 16.6316 136.441 13.468 128.543 11.3167C120.629 9.16084 112.502 8.05916 104.37 8.01246L104.276 30.0183C110.494 30.0568 116.708 30.9006 122.759 32.5489C128.792 34.1925 134.559 36.6073 139.924 39.7145L151.009 20.7036ZM139.673 40.1465C134.345 37.0611 128.619 34.6634 122.628 33.0313C116.619 31.3945 110.449 30.5566 104.274 30.5183L104.18 52.5241C108.441 52.5542 112.698 53.1342 116.844 54.2636C120.971 55.3877 124.916 57.0366 128.589 59.157L139.673 40.1465ZM128.337 59.5889C124.702 57.4905 120.797 55.8586 116.713 54.7461C112.609 53.6281 108.395 53.054 104.178 53.0241L104.075 77.2798C106.182 77.3006 108.287 77.5904 110.338 78.149C112.368 78.7018 114.309 79.5084 116.119 80.5434L128.337 59.5889ZM79.8716 11.1145C87.7379 9.04173 95.8047 8.00748 103.87 8.01091L103.776 30.0169C97.6266 30.0215 91.4766 30.8136 85.4788 32.3941C79.38 34.0011 73.546 36.3949 68.1158 39.4958L57.1941 20.3914C64.2861 16.3405 71.906 13.2135 79.8716 11.1145ZM85.6062 32.8776C91.5615 31.3083 97.668 30.5216 103.774 30.5169L103.68 52.5231C99.4903 52.5358 95.3009 53.0803 91.2143 54.1572C87.0246 55.2612 83.0166 56.9052 79.2859 59.0346L68.3639 39.9298C73.7563 36.8505 79.5499 34.4734 85.6062 32.8776ZM91.3417 54.6407C95.3858 53.575 99.5317 53.036 103.678 53.0231L103.575 77.2799C101.54 77.301 99.5076 77.5729 97.5232 78.0958C95.4335 78.6464 93.4341 79.4658 91.5726 80.5268L79.534 59.4687C83.227 57.3608 87.1944 55.7335 91.3417 54.6407Z" fill="white"/>
</g>
<circle cx="78.6462" cy="12.5521" r="8.23979" transform="rotate(0.237983 78.6462 12.5521)" fill="white" stroke="#4396F7" stroke-width="1.08116"/>
<circle cx="128.457" cy="12.7582" r="8.23979" transform="rotate(0.237983 128.457 12.7582)" fill="white" stroke="#4396F7" stroke-width="1.08116"/>
<circle cx="168.926" cy="34.3314" r="8.23979" transform="rotate(0.237983 168.926 34.3314)" fill="white" stroke="#4396F7" stroke-width="1.08116"/>
<circle cx="194.52" cy="78.4213" r="8.23979" transform="rotate(0.237983 194.52 78.4213)" fill="white" stroke="#4396F7" stroke-width="1.08116"/>
<circle cx="194.318" cy="127.035" r="8.23979" transform="rotate(0.237983 194.318 127.035)" fill="white" stroke="#4396F7" stroke-width="1.08116"/>
<circle cx="170.299" cy="169.23" r="8.23979" transform="rotate(0.237983 170.299 169.23)" fill="white" stroke="#4396F7" stroke-width="1.08116"/>
<circle cx="127.7" cy="194.793" r="8.23979" transform="rotate(0.237983 127.7 194.793)" fill="white" stroke="#4396F7" stroke-width="1.08116"/>
<circle cx="80.7145" cy="194.598" r="8.23979" transform="rotate(0.237983 80.7145 194.598)" fill="white" stroke="#4396F7" stroke-width="1.08116"/>
<circle cx="36.2028" cy="168.673" r="8.23979" transform="rotate(0.237983 36.2028 168.673)" fill="white" stroke="#4396F7" stroke-width="1.08116"/>
<circle cx="12.1208" cy="127.337" r="8.23979" transform="rotate(0.237983 12.1208 127.337)" fill="white" stroke="#4396F7" stroke-width="1.08116"/>
<circle cx="13.4899" cy="77.6693" r="8.23979" transform="rotate(0.237983 13.4899 77.6693)" fill="white" stroke="#4396F7" stroke-width="1.08116"/>
<circle cx="36.4587" cy="38.1625" r="8.23979" transform="rotate(0.237983 36.4587 38.1625)" fill="white" stroke="#4396F7" stroke-width="1.08116"/>
<path d="M105.138 112.877L104.576 112.874C104.408 113.799 103.646 114.021 102.807 114.017L102.804 114.605L104.396 114.612L104.378 119.006L105.113 119.009L105.138 112.877Z" fill="black"/>
<path d="M103.065 139.238C103.042 138.502 103.409 137.717 104.265 137.72C104.914 137.723 105.448 138.166 105.446 138.832C105.442 139.68 104.913 140.058 103.872 140.694C103.005 141.227 102.268 141.743 102.141 143.195L106.145 143.212L106.148 142.563L103 142.55C103.15 141.789 103.956 141.404 104.728 140.94C105.491 140.467 106.219 139.925 106.224 138.844C106.229 137.702 105.384 137.076 104.311 137.072C103.014 137.066 102.275 137.989 102.33 139.235L103.065 139.238Z" fill="black"/>
<path d="M103.731 164.213C103.869 164.196 104.025 164.188 104.172 164.188C104.899 164.191 105.477 164.6 105.473 165.37C105.47 166.114 104.854 166.553 104.136 166.55C103.297 166.546 102.859 165.991 102.836 165.195L102.101 165.192C102.07 166.454 102.888 167.193 104.134 167.198C105.284 167.203 106.247 166.567 106.252 165.339C106.255 164.604 105.894 164.014 105.151 163.847L105.151 163.829C105.619 163.615 106.002 163.149 106.004 162.613C106.008 161.48 105.206 160.967 104.142 160.962C102.914 160.957 102.288 161.767 102.24 162.935L102.975 162.938C102.987 162.22 103.335 161.607 104.14 161.611C104.762 161.613 105.228 161.961 105.225 162.601C105.223 163.267 104.676 163.602 104.054 163.6C103.95 163.599 103.846 163.599 103.734 163.59L103.731 164.213Z" fill="black"/>
<path d="M105.389 183.52L104.801 183.518L101.991 187.494L101.988 188.203L104.678 188.214L104.672 189.65L105.364 189.653L105.37 188.217L106.2 188.22L106.203 187.572L105.372 187.568L105.389 183.52ZM102.622 187.557L104.676 184.564L104.693 184.564L104.68 187.565L102.622 187.557Z" fill="black"/>
<path d="M127.357 11.1085C127.334 10.3732 127.7 9.5876 128.557 9.59115C129.205 9.59385 129.74 10.0372 129.737 10.7032C129.733 11.5508 129.204 11.9292 128.164 12.5649C127.296 13.0976 126.559 13.6135 126.432 15.066L130.437 15.0827L130.439 14.434L127.291 14.4209C127.441 13.6604 128.247 13.2745 129.019 12.8106C129.782 12.3381 130.511 11.7962 130.515 10.7151C130.52 9.57336 129.675 8.9471 128.602 8.94264C127.305 8.93725 126.566 9.85967 126.621 11.1054L127.357 11.1085Z" fill="black"/>
<path d="M79.4589 8.73863L78.8967 8.73629C78.7285 9.66108 77.9664 9.8828 77.1275 9.87931L77.125 10.4675L78.7165 10.4741L78.6982 14.8679L79.4334 14.8709L79.4589 8.73863Z" fill="black"/>
<path d="M168.41 34.0493C168.548 34.0325 168.704 34.0245 168.851 34.0251C169.578 34.0282 170.156 34.4371 170.152 35.2069C170.149 35.9507 169.533 36.3892 168.815 36.3863C167.976 36.3828 167.538 35.8274 167.515 35.0316L166.78 35.0285C166.749 36.2912 167.567 37.0298 168.813 37.035C169.963 37.0397 170.926 36.4037 170.931 35.1755C170.934 34.4403 170.573 33.8507 169.83 33.6832L169.83 33.6659C170.298 33.4516 170.681 32.9862 170.683 32.4499C170.687 31.3169 169.885 30.8032 168.821 30.7988C167.593 30.7937 166.967 31.6041 166.919 32.7716L167.654 32.7747C167.666 32.0568 168.014 31.4442 168.819 31.4475C169.441 31.4501 169.907 31.798 169.904 32.438C169.902 33.104 169.355 33.4391 168.733 33.4365C168.629 33.4361 168.525 33.4356 168.413 33.4265L168.41 34.0493Z" fill="black"/>
<path d="M36.2723 37.6649C37.1113 37.6683 37.5065 38.3014 37.5034 39.0625C37.5003 39.789 37.0566 40.4186 36.2609 40.4153C35.4565 40.412 34.992 39.8046 34.9951 39.0434C34.9983 38.2737 35.4506 37.6614 36.2723 37.6649ZM38.1199 36.4011C38.0375 35.4061 37.4085 34.8326 36.3965 34.8284C34.6494 34.8211 34.1324 36.4191 34.1254 38.1057C34.1201 39.3944 34.4073 41.0563 36.2236 41.0638C37.7718 41.0703 38.2783 39.9047 38.282 39.0139C38.2867 37.8808 37.5897 37.0216 36.4134 37.0167C35.7474 37.014 35.2274 37.254 34.8791 37.8148L34.8619 37.7974C34.9004 36.8548 35.1051 35.4717 36.3592 35.4769C36.9387 35.4793 37.3178 35.8442 37.3847 36.398L38.1199 36.4011Z" fill="black"/>
<path d="M195.758 74.5612L195.17 74.5588L192.359 78.5344L192.356 79.2437L195.046 79.2549L195.04 80.6906L195.732 80.6935L195.738 79.2577L196.569 79.2612L196.571 78.6125L195.741 78.609L195.758 74.5612ZM192.99 78.5976L195.044 75.6048L195.061 75.6049L195.049 78.6062L192.99 78.5976Z" fill="black"/>
<path d="M195.998 123.93L192.971 123.918L192.387 127.098L193.018 127.136C193.305 126.791 193.695 126.559 194.162 126.561C194.984 126.564 195.544 127.146 195.54 127.959C195.536 128.937 194.937 129.41 194.237 129.407C193.502 129.404 192.993 128.926 192.953 128.294L192.218 128.291C192.239 129.399 193.101 130.051 194.165 130.055C195.592 130.061 196.314 129.061 196.318 128.023C196.324 126.622 195.436 125.918 194.347 125.913C193.931 125.911 193.472 126.048 193.203 126.349L193.186 126.332L193.522 124.569L195.995 124.579L195.998 123.93Z" fill="black"/>
<path d="M10.8377 128.27C10.8406 127.56 11.4134 127.096 12.1399 127.099C12.8319 127.102 13.4006 127.606 13.3979 128.272C13.395 128.955 12.874 129.463 12.1388 129.46C11.3776 129.457 10.8346 129.005 10.8377 128.27ZM10.2873 125.43C10.285 125.984 10.6288 126.496 11.1382 126.705C10.4539 126.945 10.0624 127.505 10.0594 128.232C10.0542 129.486 10.9598 130.104 12.1361 130.109C13.2691 130.113 14.1715 129.434 14.1764 128.249C14.1796 127.488 13.8272 126.95 13.093 126.713C13.5956 126.491 13.9436 125.99 13.9459 125.446C13.9491 124.667 13.4334 123.878 12.0928 123.872C11.15 123.868 10.2915 124.418 10.2873 125.43ZM11.0656 125.46C11.0681 124.845 11.5538 124.519 12.142 124.521C12.7388 124.524 13.1699 124.854 13.1673 125.468C13.1647 126.091 12.7308 126.452 12.1513 126.45C11.5458 126.448 11.0628 126.134 11.0656 125.46Z" fill="black"/>
<path d="M15.44 74.5667L11.47 74.5502L11.4671 75.2421L14.6846 75.2555C13.3902 76.6167 12.3877 78.5067 12.2407 80.582L13.0624 80.5854C13.1828 78.6657 14.1954 76.4211 15.4374 75.1981L15.44 74.5667Z" fill="black"/>
<path d="M168.59 166.003L168.028 166.001C167.86 166.926 167.098 167.147 166.259 167.144L166.256 167.732L167.848 167.739L167.829 172.132L168.565 172.135L168.59 166.003ZM171.424 168.186C171.401 167.451 171.767 166.665 172.624 166.669C173.272 166.671 173.807 167.115 173.804 167.781C173.8 168.628 173.271 169.007 172.231 169.642C171.364 170.175 170.626 170.691 170.499 172.143L174.504 172.16L174.506 171.511L171.358 171.498C171.508 170.738 172.314 170.352 173.086 169.888C173.849 169.415 174.578 168.874 174.582 167.792C174.587 166.651 173.742 166.024 172.67 166.02C171.372 166.015 170.633 166.937 170.689 168.183L171.424 168.186Z" fill="black"/>
<path d="M37.3448 167.075C37.3418 167.801 36.8548 168.422 36.0851 168.419C35.3758 168.416 34.8768 167.791 34.8796 167.116C34.8827 166.364 35.2143 165.665 36.0878 165.668C36.9095 165.672 37.3479 166.322 37.3448 167.075ZM34.2203 169.665C34.311 170.721 35.044 171.251 36.0733 171.256C37.5609 171.262 38.2059 170.079 38.2147 167.96C38.2243 165.642 37.2668 165.024 36.1251 165.02C34.9402 165.015 34.1065 165.824 34.1016 167.009C34.0965 168.22 34.785 169.062 36.0305 169.067C36.6273 169.07 37.1735 168.743 37.4525 168.225L37.4697 168.243C37.4199 169.825 36.9755 170.611 36.076 170.607C35.4878 170.604 35.0049 170.265 34.9555 169.668L34.2203 169.665Z" fill="black"/>
<path d="M126.17 191.68L125.608 191.677C125.44 192.602 124.678 192.824 123.839 192.821L123.836 193.409L125.428 193.415L125.409 197.809L126.145 197.812L126.17 191.68ZM130.976 191.7L130.414 191.697C130.246 192.622 129.484 192.844 128.645 192.84L128.642 193.429L130.234 193.435L130.216 197.829L130.951 197.832L130.976 191.7Z" fill="black"/>
<path d="M78.9748 191.485L78.4126 191.482C78.2444 192.407 77.4824 192.629 76.6434 192.625L76.6409 193.213L78.2324 193.22L78.2141 197.614L78.9493 197.617L78.9748 191.485ZM81.052 194.616C81.0464 195.965 81.1602 197.73 83.0803 197.738C85.0004 197.746 85.1289 195.982 85.1345 194.633C85.1401 193.275 85.0263 191.51 83.1062 191.502C81.1861 191.494 81.0577 193.258 81.052 194.616ZM81.8305 194.61C81.8343 193.702 81.8494 192.145 83.1035 192.15C84.3577 192.156 84.3598 193.712 84.3561 194.621C84.3523 195.537 84.3371 197.094 83.083 197.089C81.8289 197.084 81.8267 195.527 81.8305 194.61Z" fill="black"/>
</g>
<defs>
<clipPath id="clip0">
<rect width="207" height="204" fill="white"/>
</clipPath>
</defs>
</svg>
