<svg width="272" height="272" viewBox="0 0 272 272" fill="none" xmlns="http://www.w3.org/2000/svg">
<path opacity="0.8" fill-rule="evenodd" clip-rule="evenodd" d="M168.35 15.2152C147.166 9.53896 124.861 9.53896 103.678 15.2152C82.4937 20.8914 63.1772 32.0437 47.6696 47.5514C32.1619 63.0591 21.0095 82.3756 15.3333 103.559C12.4922 114.163 11.0732 125.047 11.0762 135.93H39.9798C39.9798 135.93 41.1933 150.985 43.3355 159.689C45.4795 168.4 53.075 183.325 53.075 183.325L28.0292 198.735C33.4258 208.008 40.0175 216.588 47.6696 224.24C63.1772 239.748 82.4937 250.9 103.678 256.576C114.374 259.442 125.357 260.861 136.337 260.833V168.232C136.337 168.232 141.09 168.517 145.321 167.276C149.656 166.005 152.471 164.212 152.471 164.212L178.953 209.627C178.953 209.627 189.418 202.821 196.754 196.062L210.354 179.229L243.999 198.735C249.539 189.215 253.819 178.963 256.694 168.232C262.371 147.048 262.371 124.743 256.694 103.559C253.819 92.8286 249.539 82.5768 243.999 73.0567L217.981 88.1968C217.981 88.1968 208.467 74.4918 202.223 68.2082C196.063 62.0076 183.402 53.9097 183.402 53.9097L198.605 27.7674C189.155 22.297 178.988 18.0656 168.35 15.2152Z" fill="#4396F7"/>
<g opacity="0.5">
<path opacity="0.2" d="M103.487 15.4628C124.628 9.79821 146.887 9.79821 168.027 15.4628C189.167 21.1273 208.444 32.2568 223.92 47.7327C239.396 63.2085 250.525 82.4854 256.19 103.626C261.854 124.766 261.854 147.025 256.19 168.166C250.525 189.306 239.396 208.583 223.92 224.059C208.444 239.535 189.167 250.664 168.027 256.329C146.887 261.993 124.627 261.993 103.487 256.329C82.3467 250.664 63.0698 239.535 47.594 224.059C32.1182 208.583 20.9886 189.306 15.3241 168.166C9.65954 147.025 9.65954 124.766 15.3241 103.626C20.9886 82.4854 32.1182 63.2085 47.594 47.7327C63.0698 32.2568 82.3467 21.1273 103.487 15.4628Z" fill="#4396F7" fill-opacity="0.6" stroke="#4396F7" stroke-width="2.15759"/>
<path opacity="0.2" d="M111.238 44.3852C127.301 40.0811 144.215 40.0811 160.278 44.3852C176.341 48.6894 190.989 57.1461 202.748 68.9053C214.507 80.6646 222.964 95.312 227.268 111.375C231.572 127.439 231.572 144.352 227.268 160.416C222.964 176.479 214.507 191.126 202.748 202.886C190.989 214.645 176.341 223.102 160.278 227.406C144.215 231.71 127.301 231.71 111.238 227.406C95.1743 223.102 80.5269 214.645 68.7677 202.886C57.0084 191.126 48.5517 176.479 44.2475 160.416C39.9434 144.352 39.9434 127.439 44.2475 111.375C48.5517 95.312 57.0084 80.6646 68.7677 68.9053C80.5269 57.1461 95.1743 48.6894 111.238 44.3852Z" fill="#4396F7" fill-opacity="0.6" stroke="#4396F7" stroke-width="2.15759"/>
<path opacity="0.2" d="M118.988 73.3067C129.975 70.3629 141.543 70.3629 152.529 73.3067C163.515 76.2505 173.533 82.0344 181.576 90.0771C189.619 98.1197 195.403 108.138 198.346 119.124C201.29 130.111 201.29 141.678 198.346 152.665C195.403 163.651 189.619 173.669 181.576 181.712C173.533 189.754 163.515 195.538 152.529 198.482C141.543 201.426 129.975 201.426 118.988 198.482C108.002 195.538 97.9839 189.754 89.9413 181.712C81.8987 173.669 76.1148 163.651 73.171 152.665C70.2272 141.678 70.2272 130.111 73.171 119.124C76.1148 108.138 81.8987 98.1197 89.9413 90.0771C97.9839 82.0344 108.002 76.2505 118.988 73.3067Z" fill="#4396F7" fill-opacity="0.6" stroke="#4396F7" stroke-width="2.15759"/>
<path opacity="0.5" d="M127.514 105.121C132.916 103.674 138.603 103.674 144.005 105.121C149.407 106.569 154.332 109.412 158.287 113.367C162.241 117.321 165.085 122.247 166.532 127.649C167.98 133.05 167.98 138.738 166.532 144.14C165.085 149.541 162.241 154.467 158.287 158.421C154.332 162.376 149.407 165.22 144.005 166.667C138.603 168.114 132.916 168.114 127.514 166.667C122.112 165.22 117.186 162.376 113.232 158.421C109.278 154.467 106.434 149.541 104.986 144.14C103.539 138.738 103.539 133.05 104.986 127.649C106.434 122.247 109.278 117.321 113.232 113.367C117.186 109.412 122.112 106.569 127.514 105.121Z" fill="#4396F7" fill-opacity="0.6" stroke="#4396F7" stroke-width="2.15759"/>
<path opacity="0.1" d="M111.145 44.0379C127.269 39.7174 144.247 39.7174 160.371 44.0379C176.495 48.3584 191.198 56.8472 203.002 68.6511C214.806 80.4549 223.295 95.158 227.615 111.282C231.936 127.407 231.936 144.384 227.615 160.509C223.295 176.633 214.806 191.336 203.002 203.14C191.198 214.944 176.495 223.433 160.371 227.753C144.247 232.074 127.269 232.074 111.145 227.753C95.0203 223.433 80.3172 214.944 68.5134 203.14C56.7095 191.336 48.2207 176.633 43.9002 160.509C39.5797 144.384 39.5797 127.407 43.9002 111.282C48.2207 95.158 56.7095 80.4549 68.5134 68.6511C80.3172 56.8472 95.0203 48.3584 111.145 44.0379Z" stroke="#4396F7" stroke-width="1.4384"/>
<path d="M118.802 72.612C129.911 69.6356 141.607 69.6356 152.715 72.612C163.824 75.5885 173.953 81.4366 182.085 89.5685C190.217 97.7004 196.065 107.83 199.041 118.938C202.018 130.046 202.018 141.743 199.041 152.851C196.065 163.959 190.217 174.088 182.085 182.22C173.953 190.352 163.824 196.2 152.715 199.177C141.607 202.153 129.911 202.153 118.802 199.177C107.694 196.2 97.5647 190.352 89.4328 182.22C81.3009 174.088 75.4528 163.959 72.4763 152.851C69.4998 141.743 69.4998 130.046 72.4763 118.938C75.4528 107.83 81.3009 97.7004 89.4328 89.5685C97.5647 81.4366 107.694 75.5885 118.802 72.612Z" stroke="#4396F7" stroke-width="0.719198"/>
<path d="M127.281 104.252C132.835 102.764 138.683 102.764 144.237 104.252C149.792 105.74 154.856 108.664 158.922 112.73C162.988 116.796 165.912 121.861 167.4 127.415C168.889 132.969 168.889 138.817 167.4 144.371C165.912 149.925 162.988 154.99 158.922 159.056C154.856 163.122 149.792 166.046 144.237 167.534C138.683 169.022 132.835 169.022 127.281 167.534C121.727 166.046 116.662 163.122 112.596 159.056C108.53 154.99 105.606 149.925 104.118 144.371C102.63 138.817 102.63 132.969 104.118 127.415C105.606 121.861 108.53 116.796 112.596 112.73C116.662 108.664 121.727 105.74 127.281 104.252Z" stroke="#4396F7" stroke-width="0.359599"/>
<path opacity="0.5" d="M135.638 136.262L68.1973 19.4229" stroke="#4396F7" stroke-width="0.719198"/>
<path opacity="0.5" d="M135.611 135.903L135.625 0.998047" stroke="#4396F7" stroke-width="0.719198"/>
<path opacity="0.5" d="M135.617 136.247L203.082 19.4229" stroke="#4396F7" stroke-width="0.719198"/>
<path opacity="0.5" d="M135.616 135.89L252.455 68.4502" stroke="#4396F7" stroke-width="0.719198"/>
<path opacity="0.5" d="M135.977 135.86L270.883 135.874" stroke="#4396F7" stroke-width="0.719198"/>
<path opacity="0.5" d="M135.631 135.867L252.455 203.332" stroke="#4396F7" stroke-width="0.719198"/>
<path opacity="0.5" d="M135.989 135.71L203.43 252.549" stroke="#4396F7" stroke-width="0.719198"/>
<path opacity="0.5" d="M136.02 136.071L136.006 270.977" stroke="#4396F7" stroke-width="0.719198"/>
<path opacity="0.5" d="M136.012 135.724L68.5469 252.549" stroke="#4396F7" stroke-width="0.719198"/>
<path opacity="0.5" d="M136.013 136.082L19.1738 203.522" stroke="#4396F7" stroke-width="0.719198"/>
<path opacity="0.5" d="M135.652 136.112L0.746094 136.098" stroke="#4396F7" stroke-width="0.719198"/>
<path opacity="0.5" d="M135.998 136.107L19.1738 68.6416" stroke="#4396F7" stroke-width="0.719198"/>
<path d="M135.183 133.751C135.56 133.651 135.956 133.651 136.332 133.751C136.708 133.852 137.051 134.05 137.326 134.326C137.601 134.601 137.8 134.944 137.9 135.32C138.001 135.696 138.001 136.092 137.9 136.468C137.8 136.845 137.601 137.188 137.326 137.463C137.051 137.738 136.708 137.936 136.332 138.037C135.956 138.138 135.56 138.138 135.183 138.037C134.807 137.936 134.464 137.738 134.189 137.463C133.914 137.188 133.716 136.845 133.615 136.468C133.514 136.092 133.514 135.696 133.615 135.32C133.716 134.944 133.914 134.601 134.189 134.326C134.464 134.05 134.807 133.852 135.183 133.751Z" fill="#0284D2"/>
<circle cx="101.758" cy="16.9823" r="10.9624" fill="white" stroke="#4396F7" stroke-width="1.4384"/>
<circle cx="168.027" cy="16.9823" r="10.9624" fill="white" stroke="#4396F7" stroke-width="1.4384"/>
<circle cx="221.988" cy="45.4599" r="10.9624" fill="white" stroke="#4396F7" stroke-width="1.4384"/>
<circle cx="256.281" cy="103.976" r="10.9624" fill="white" stroke="#4396F7" stroke-width="1.4384"/>
<circle cx="256.281" cy="168.652" r="10.9624" fill="white" stroke="#4396F7" stroke-width="1.4384"/>
<circle cx="224.56" cy="224.922" r="10.9624" fill="white" stroke="#4396F7" stroke-width="1.4384"/>
<circle cx="168.027" cy="259.167" r="10.9624" fill="white" stroke="#4396F7" stroke-width="1.4384"/>
<circle cx="105.516" cy="259.167" r="10.9624" fill="white" stroke="#4396F7" stroke-width="1.4384"/>
<circle cx="46.1542" cy="224.922" r="10.9624" fill="white" stroke="#4396F7" stroke-width="1.4384"/>
<circle cx="13.8866" cy="170.061" r="10.9624" fill="white" stroke="#4396F7" stroke-width="1.4384"/>
<circle cx="15.4335" cy="103.976" r="10.9624" fill="white" stroke="#4396F7" stroke-width="1.4384"/>
<circle cx="45.7734" cy="51.288" r="10.9624" fill="white" stroke="#4396F7" stroke-width="1.4384"/>
<path d="M137.557 150.326H136.81C136.591 151.557 135.578 151.856 134.462 151.856V152.639H136.579V158.484H137.557V150.326Z" fill="black"/>
<path d="M134.945 185.408C134.911 184.43 135.394 183.383 136.533 183.383C137.396 183.383 138.11 183.97 138.11 184.856C138.11 185.984 137.408 186.49 136.027 187.342C134.876 188.055 133.898 188.746 133.737 190.679H139.065V189.816H134.876C135.072 188.803 136.142 188.285 137.166 187.664C138.179 187.031 139.145 186.306 139.145 184.868C139.145 183.349 138.018 182.52 136.591 182.52C134.865 182.52 133.887 183.751 133.967 185.408H134.945Z" fill="black"/>
<path d="M135.969 218.632C136.154 218.609 136.361 218.597 136.556 218.597C137.523 218.597 138.294 219.138 138.294 220.162C138.294 221.152 137.477 221.739 136.522 221.739C135.406 221.739 134.819 221.002 134.784 219.944H133.806C133.772 221.624 134.865 222.602 136.522 222.602C138.052 222.602 139.33 221.75 139.33 220.116C139.33 219.138 138.846 218.356 137.857 218.137V218.114C138.478 217.826 138.984 217.205 138.984 216.492C138.984 214.984 137.914 214.305 136.499 214.305C134.865 214.305 134.036 215.387 133.979 216.94H134.957C134.968 215.985 135.429 215.168 136.499 215.168C137.327 215.168 137.949 215.629 137.949 216.48C137.949 217.366 137.224 217.815 136.395 217.815C136.257 217.815 136.119 217.815 135.969 217.803V218.632Z" fill="black"/>
<path d="M138.282 244.31H137.5L133.783 249.615V250.559H137.362V252.469H138.282V250.559H139.387V249.696H138.282V244.31ZM134.623 249.696L137.339 245.703H137.362V249.696H134.623Z" fill="black"/>
<path d="M166.554 15.4797C166.52 14.5016 167.003 13.4545 168.142 13.4545C169.005 13.4545 169.719 14.0413 169.719 14.9274C169.719 16.0551 169.017 16.5614 167.636 17.4129C166.485 18.1264 165.507 18.8168 165.346 20.75H170.674V19.887H166.485C166.681 18.8743 167.751 18.3565 168.775 17.7351C169.788 17.1022 170.755 16.3773 170.755 14.9389C170.755 13.4199 169.627 12.5914 168.2 12.5914C166.474 12.5914 165.496 13.8227 165.576 15.4797H166.554Z" fill="black"/>
<path d="M102.819 12.5914H102.071C101.852 13.8227 100.84 14.1219 99.7234 14.1219V14.9044H101.841V20.75H102.819V12.5914Z" fill="black"/>
<path d="M221.299 45.7746C221.483 45.7515 221.69 45.74 221.886 45.74C222.853 45.74 223.624 46.2809 223.624 47.305C223.624 48.2946 222.807 48.8815 221.852 48.8815C220.735 48.8815 220.149 48.145 220.114 47.0864H219.136C219.101 48.7664 220.195 49.7445 221.852 49.7445C223.382 49.7445 224.659 48.893 224.659 47.259C224.659 46.2809 224.176 45.4984 223.186 45.2798V45.2567C223.808 44.9691 224.314 44.3477 224.314 43.6342C224.314 42.1268 223.244 41.4479 221.829 41.4479C220.195 41.4479 219.366 42.5295 219.308 44.083H220.287C220.298 43.1279 220.758 42.3109 221.829 42.3109C222.657 42.3109 223.278 42.7712 223.278 43.6227C223.278 44.5088 222.554 44.9576 221.725 44.9576C221.587 44.9576 221.449 44.9576 221.299 44.946V45.7746Z" fill="black"/>
<path d="M43.1257 46.2096H42.3777C42.1591 47.4409 41.1465 47.74 40.0303 47.74V48.5225H42.1476V54.3682H43.1257V46.2096ZM46.9077 49.0979C46.8732 48.1198 47.3565 47.0726 48.4957 47.0726C49.3587 47.0726 50.0722 47.6595 50.0722 48.5455C50.0722 49.6732 49.3702 50.1796 47.9894 51.0311C46.8387 51.7445 45.8605 52.435 45.6994 54.3682H51.0273V53.5051H46.8387C47.0343 52.4925 48.1044 51.9747 49.1286 51.3533C50.1412 50.7204 51.1078 49.9954 51.1078 48.557C51.1078 47.0381 49.9801 46.2096 48.5532 46.2096C46.8271 46.2096 45.849 47.4409 45.9296 49.0979H46.9077Z" fill="black"/>
<path d="M257.907 99.5201H257.125L253.408 104.825V105.769H256.987V107.679H257.907V105.769H259.012V104.905H257.907V99.5201ZM254.248 104.905L256.964 100.912H256.987V104.905H254.248Z" fill="black"/>
<path d="M258.494 163.87H254.466L253.707 168.105L254.547 168.151C254.927 167.691 255.445 167.38 256.066 167.38C257.159 167.38 257.907 168.151 257.907 169.232C257.907 170.533 257.113 171.166 256.181 171.166C255.203 171.166 254.524 170.533 254.466 169.693H253.488C253.523 171.166 254.674 172.029 256.089 172.029C257.988 172.029 258.943 170.694 258.943 169.313C258.943 167.449 257.758 166.517 256.308 166.517C255.755 166.517 255.145 166.701 254.789 167.104L254.766 167.081L255.203 164.733H258.494V163.87Z" fill="black"/>
<path d="M11.5886 164.463H10.8406C10.622 165.694 9.60937 165.993 8.49317 165.993V166.775H10.6105V172.621H11.5886V164.463ZM14.3695 168.617C14.3695 170.412 14.5306 172.759 17.0852 172.759C19.6397 172.759 19.8008 170.412 19.8008 168.617C19.8008 166.81 19.6397 164.463 17.0852 164.463C14.5306 164.463 14.3695 166.81 14.3695 168.617ZM15.4051 168.605C15.4051 167.397 15.4166 165.326 17.0852 165.326C18.7537 165.326 18.7652 167.397 18.7652 168.605C18.7652 169.825 18.7537 171.896 17.0852 171.896C15.4166 171.896 15.4051 169.825 15.4051 168.605Z" fill="black"/>
<path d="M13.0476 99.0563H12.2996C12.081 100.288 11.0684 100.587 9.95216 100.587V101.369H12.0695V107.215H13.0476V99.0563ZM19.4417 99.0563H18.6937C18.4751 100.288 17.4625 100.587 16.3463 100.587V101.369H18.4636V107.215H19.4417V99.0563Z" fill="black"/>
<path d="M224.654 223.769C225.77 223.769 226.3 224.609 226.3 225.622C226.3 226.588 225.713 227.428 224.654 227.428C223.584 227.428 222.962 226.623 222.962 225.61C222.962 224.586 223.561 223.769 224.654 223.769ZM227.105 222.078C226.99 220.754 226.15 219.995 224.804 219.995C222.479 219.995 221.8 222.124 221.8 224.367C221.8 226.082 222.191 228.291 224.608 228.291C226.668 228.291 227.335 226.738 227.335 225.553C227.335 224.045 226.403 222.906 224.838 222.906C223.952 222.906 223.262 223.228 222.801 223.976L222.778 223.953C222.824 222.699 223.089 220.858 224.758 220.858C225.529 220.858 226.035 221.341 226.127 222.078H227.105Z" fill="black"/>
<path d="M47.6631 222.722C47.6631 223.689 47.0187 224.517 45.9946 224.517C45.051 224.517 44.3836 223.689 44.3836 222.791C44.3836 221.79 44.8208 220.858 45.9831 220.858C47.0763 220.858 47.6631 221.721 47.6631 222.722ZM43.5205 226.186C43.6471 227.589 44.6252 228.291 45.9946 228.291C47.9738 228.291 48.8253 226.715 48.8253 223.896C48.8253 220.812 47.548 219.995 46.0291 219.995C44.4526 219.995 43.3479 221.076 43.3479 222.653C43.3479 224.264 44.2685 225.38 45.9255 225.38C46.7195 225.38 47.4445 224.943 47.8127 224.252L47.8357 224.275C47.7782 226.381 47.1913 227.428 45.9946 227.428C45.2121 227.428 44.5677 226.98 44.4986 226.186H43.5205Z" fill="black"/>
<path d="M170.927 254.528H165.645V255.449H169.926C168.211 257.267 166.888 259.787 166.704 262.549H167.797C167.947 259.994 169.282 257.002 170.927 255.368V254.528Z" fill="black"/>
<path d="M103.775 260.247C103.775 259.304 104.534 258.682 105.501 258.682C106.422 258.682 107.181 259.35 107.181 260.236C107.181 261.145 106.491 261.824 105.512 261.824C104.5 261.824 103.775 261.226 103.775 260.247ZM103.027 256.473C103.027 257.21 103.487 257.888 104.166 258.165C103.257 258.487 102.739 259.235 102.739 260.201C102.739 261.87 103.947 262.687 105.512 262.687C107.02 262.687 108.217 261.778 108.217 260.201C108.217 259.189 107.745 258.475 106.767 258.165C107.434 257.865 107.894 257.198 107.894 256.473C107.894 255.437 107.204 254.39 105.42 254.39C104.166 254.39 103.027 255.127 103.027 256.473ZM104.063 256.508C104.063 255.691 104.707 255.253 105.489 255.253C106.283 255.253 106.859 255.691 106.859 256.508C106.859 257.336 106.283 257.819 105.512 257.819C104.707 257.819 104.063 257.405 104.063 256.508Z" fill="black"/>
</g>
</svg>
