<svg width="272" height="272" viewBox="0 0 272 272" fill="none" xmlns="http://www.w3.org/2000/svg">
<path opacity="0.2" d="M103.493 15.285C124.633 9.62048 146.892 9.62048 168.033 15.285C189.173 20.9496 208.45 32.0791 223.926 47.5549C239.402 63.0308 250.531 82.3076 256.196 103.448C261.86 124.588 261.86 146.847 256.196 167.988C250.531 189.128 239.402 208.405 223.926 223.881C208.45 239.357 189.173 250.486 168.033 256.151C146.892 261.815 124.633 261.815 103.493 256.151C82.3526 250.486 63.0757 239.357 47.5999 223.881C32.124 208.405 20.9945 189.128 15.33 167.988C9.6654 146.847 9.6654 124.588 15.33 103.448C20.9945 82.3076 32.124 63.0308 47.5999 47.5549C63.0757 32.0791 82.3526 20.9496 103.493 15.285Z" fill="#4396F7" fill-opacity="0.6" stroke="#4396F7" stroke-width="2.15759"/>
<path opacity="0.2" d="M111.244 44.2075C127.307 39.9033 144.22 39.9033 160.284 44.2075C176.347 48.5117 190.995 56.9684 202.754 68.7276C214.513 80.4869 222.97 95.1343 227.274 111.198C231.578 127.261 231.578 144.174 227.274 160.238C222.97 176.301 214.513 190.949 202.754 202.708C190.995 214.467 176.347 222.924 160.284 227.228C144.22 231.532 127.307 231.532 111.244 227.228C95.1802 222.924 80.5327 214.467 68.7735 202.708C57.0143 190.949 48.5576 176.301 44.2534 160.238C39.9492 144.174 39.9492 127.261 44.2534 111.198C48.5576 95.1343 57.0143 80.4869 68.7735 68.7276C80.5327 56.9684 95.1802 48.5117 111.244 44.2075Z" fill="#4396F7" fill-opacity="0.6" stroke="#4396F7" stroke-width="2.15759"/>
<path opacity="0.2" d="M118.994 73.129C129.981 70.1852 141.548 70.1852 152.535 73.129C163.521 76.0728 173.539 81.8567 181.582 89.8993C189.625 97.9419 195.408 107.96 198.352 118.946C201.296 129.933 201.296 141.501 198.352 152.487C195.408 163.473 189.625 173.491 181.582 181.534C173.539 189.577 163.521 195.361 152.535 198.304C141.548 201.248 129.981 201.248 118.994 198.304C108.008 195.361 97.9898 189.577 89.9472 181.534C81.9045 173.491 76.1207 163.473 73.1769 152.487C70.233 141.501 70.233 129.933 73.1769 118.946C76.1207 107.96 81.9045 97.942 89.9472 89.8993C97.9898 81.8567 108.008 76.0728 118.994 73.129Z" fill="#4396F7" fill-opacity="0.6" stroke="#4396F7" stroke-width="2.15759"/>
<path opacity="0.5" d="M127.52 104.943C132.921 103.496 138.609 103.496 144.011 104.943C149.413 106.391 154.338 109.235 158.293 113.189C162.247 117.143 165.091 122.069 166.538 127.471C167.986 132.873 167.986 138.56 166.538 143.962C165.091 149.364 162.247 154.289 158.293 158.244C154.338 162.198 149.413 165.042 144.011 166.489C138.609 167.937 132.921 167.937 127.52 166.489C122.118 165.042 117.192 162.198 113.238 158.244C109.283 154.289 106.44 149.364 104.992 143.962C103.545 138.56 103.545 132.873 104.992 127.471C106.44 122.069 109.283 117.143 113.238 113.189C117.192 109.235 122.118 106.391 127.52 104.943Z" fill="#4396F7" fill-opacity="0.6" stroke="#4396F7" stroke-width="2.15759"/>
<path opacity="0.1" d="M111.151 43.8602C127.275 39.5396 144.252 39.5396 160.377 43.8602C176.501 48.1807 191.204 56.6695 203.008 68.4733C214.812 80.2772 223.301 94.9802 227.621 111.105C231.942 127.229 231.942 144.207 227.621 160.331C223.301 176.455 214.812 191.158 203.008 202.962C191.204 214.766 176.501 223.255 160.377 227.575C144.252 231.896 127.275 231.896 111.151 227.575C95.0261 223.255 80.3231 214.766 68.5192 202.962C56.7154 191.158 48.2266 176.455 43.9061 160.331C39.5855 144.207 39.5855 127.229 43.9061 111.105C48.2266 94.9802 56.7154 80.2772 68.5192 68.4733C80.3231 56.6695 95.0261 48.1807 111.151 43.8602Z" stroke="#4396F7" stroke-width="1.4384"/>
<path d="M118.808 72.4343C129.916 69.4578 141.613 69.4578 152.721 72.4343C163.829 75.4108 173.959 81.2589 182.09 89.3908C190.222 97.5227 196.07 107.652 199.047 118.76C202.023 129.869 202.023 141.565 199.047 152.673C196.07 163.782 190.222 173.911 182.09 182.043C173.959 190.175 163.829 196.023 152.721 198.999C141.613 201.976 129.916 201.976 118.808 198.999C107.7 196.023 97.5705 190.175 89.4386 182.043C81.3067 173.911 75.4586 163.782 72.4822 152.673C69.5057 141.565 69.5057 129.869 72.4822 118.76C75.4586 107.652 81.3067 97.5227 89.4386 89.3908C97.5705 81.2589 107.7 75.4108 118.808 72.4343Z" stroke="#4396F7" stroke-width="0.719198"/>
<path d="M127.287 104.074C132.841 102.586 138.689 102.586 144.243 104.074C149.798 105.562 154.862 108.486 158.928 112.552C162.994 116.618 165.918 121.683 167.406 127.237C168.895 132.791 168.895 138.639 167.406 144.194C165.918 149.748 162.994 154.812 158.928 158.878C154.862 162.944 149.798 165.868 144.243 167.356C138.689 168.845 132.841 168.845 127.287 167.356C121.733 165.868 116.668 162.944 112.602 158.878C108.536 154.812 105.612 149.748 104.124 144.194C102.636 138.639 102.636 132.791 104.124 127.237C105.612 121.683 108.536 116.618 112.602 112.552C116.668 108.486 121.733 105.562 127.287 104.074Z" stroke="#4396F7" stroke-width="0.359599"/>
<path opacity="0.5" d="M135.643 136.084L68.2031 19.2451" stroke="#4396F7" stroke-width="0.719198"/>
<path opacity="0.5" d="M135.617 135.726L135.631 0.820312" stroke="#4396F7" stroke-width="0.719198"/>
<path opacity="0.5" d="M135.623 136.069L203.088 19.2451" stroke="#4396F7" stroke-width="0.719198"/>
<path opacity="0.5" d="M135.622 135.713L252.461 68.2725" stroke="#4396F7" stroke-width="0.719198"/>
<path opacity="0.5" d="M135.983 135.682L270.889 135.696" stroke="#4396F7" stroke-width="0.719198"/>
<path opacity="0.5" d="M135.637 135.689L252.461 203.154" stroke="#4396F7" stroke-width="0.719198"/>
<path opacity="0.5" d="M135.995 135.532L203.436 252.371" stroke="#4396F7" stroke-width="0.719198"/>
<path opacity="0.5" d="M136.026 135.893L136.012 270.799" stroke="#4396F7" stroke-width="0.719198"/>
<path opacity="0.5" d="M136.018 135.547L68.5527 252.371" stroke="#4396F7" stroke-width="0.719198"/>
<path opacity="0.5" d="M136.018 135.904L19.1797 203.345" stroke="#4396F7" stroke-width="0.719198"/>
<path opacity="0.5" d="M135.657 135.934L0.751953 135.92" stroke="#4396F7" stroke-width="0.719198"/>
<path opacity="0.5" d="M136.004 135.929L19.1797 68.4639" stroke="#4396F7" stroke-width="0.719198"/>
<path d="M135.189 133.574C135.565 133.473 135.961 133.473 136.338 133.574C136.714 133.675 137.057 133.873 137.332 134.148C137.607 134.423 137.805 134.766 137.906 135.142C138.007 135.519 138.007 135.915 137.906 136.291C137.805 136.667 137.607 137.01 137.332 137.285C137.057 137.56 136.714 137.758 136.338 137.859C135.961 137.96 135.565 137.96 135.189 137.859C134.813 137.758 134.47 137.56 134.195 137.285C133.919 137.01 133.721 136.667 133.621 136.291C133.52 135.915 133.52 135.519 133.621 135.142C133.721 134.766 133.919 134.423 134.195 134.148C134.47 133.873 134.813 133.675 135.189 133.574Z" fill="#0284D2"/>
<circle cx="101.764" cy="16.8046" r="10.9624" fill="white" stroke="#4396F7" stroke-width="1.4384"/>
<circle cx="168.033" cy="16.8046" r="10.9624" fill="white" stroke="#4396F7" stroke-width="1.4384"/>
<circle cx="221.994" cy="45.2812" r="10.9624" fill="white" stroke="#4396F7" stroke-width="1.4384"/>
<circle cx="256.287" cy="103.798" r="10.9624" fill="white" stroke="#4396F7" stroke-width="1.4384"/>
<circle cx="256.287" cy="168.475" r="10.9624" fill="white" stroke="#4396F7" stroke-width="1.4384"/>
<circle cx="224.566" cy="224.744" r="10.9624" fill="white" stroke="#4396F7" stroke-width="1.4384"/>
<circle cx="168.033" cy="258.989" r="10.9624" fill="white" stroke="#4396F7" stroke-width="1.4384"/>
<circle cx="105.521" cy="258.989" r="10.9624" fill="white" stroke="#4396F7" stroke-width="1.4384"/>
<circle cx="46.1601" cy="224.744" r="10.9624" fill="white" stroke="#4396F7" stroke-width="1.4384"/>
<circle cx="13.8925" cy="169.884" r="10.9624" fill="white" stroke="#4396F7" stroke-width="1.4384"/>
<circle cx="15.4394" cy="103.798" r="10.9624" fill="white" stroke="#4396F7" stroke-width="1.4384"/>
<circle cx="45.7792" cy="51.1103" r="10.9624" fill="white" stroke="#4396F7" stroke-width="1.4384"/>
<path d="M137.563 150.148H136.815C136.597 151.379 135.584 151.679 134.468 151.679V152.461H136.585V158.307H137.563V150.148Z" fill="black"/>
<path d="M134.951 185.231C134.917 184.253 135.4 183.205 136.539 183.205C137.402 183.205 138.116 183.792 138.116 184.678C138.116 185.806 137.414 186.312 136.033 187.164C134.882 187.877 133.904 188.568 133.743 190.501H139.071V189.638H134.882C135.078 188.625 136.148 188.107 137.172 187.486C138.185 186.853 139.151 186.128 139.151 184.69C139.151 183.171 138.024 182.342 136.597 182.342C134.871 182.342 133.893 183.574 133.973 185.231H134.951Z" fill="black"/>
<path d="M135.975 218.454C136.159 218.431 136.367 218.42 136.562 218.42C137.529 218.42 138.3 218.961 138.3 219.985C138.3 220.974 137.483 221.561 136.528 221.561C135.412 221.561 134.825 220.825 134.79 219.766H133.812C133.777 221.446 134.871 222.424 136.528 222.424C138.058 222.424 139.335 221.573 139.335 219.939C139.335 218.961 138.852 218.178 137.863 217.959V217.936C138.484 217.649 138.99 217.027 138.99 216.314C138.99 214.806 137.92 214.128 136.505 214.128C134.871 214.128 134.042 215.209 133.985 216.763H134.963C134.974 215.808 135.435 214.991 136.505 214.991C137.333 214.991 137.955 215.451 137.955 216.302C137.955 217.188 137.23 217.637 136.401 217.637C136.263 217.637 136.125 217.637 135.975 217.626V218.454Z" fill="black"/>
<path d="M138.288 244.132H137.506L133.789 249.437V250.381H137.368V252.291H138.288V250.381H139.393V249.518H138.288V244.132ZM134.629 249.518L137.345 245.525H137.368V249.518H134.629Z" fill="black"/>
<path d="M166.56 15.302C166.526 14.3239 167.009 13.2767 168.148 13.2767C169.011 13.2767 169.725 13.8636 169.725 14.7496C169.725 15.8773 169.023 16.3837 167.642 17.2352C166.491 17.9486 165.513 18.6391 165.352 20.5723H170.68V19.7092H166.491C166.687 18.6966 167.757 18.1788 168.781 17.5574C169.794 16.9245 170.76 16.1995 170.76 14.7611C170.76 13.2422 169.633 12.4137 168.206 12.4137C166.48 12.4137 165.502 13.645 165.582 15.302H166.56Z" fill="black"/>
<path d="M102.825 12.4137H102.077C101.858 13.645 100.845 13.9441 99.7293 13.9441V14.7266H101.847V20.5723H102.825V12.4137Z" fill="black"/>
<path d="M221.305 45.5968C221.489 45.5738 221.696 45.5623 221.892 45.5623C222.859 45.5623 223.63 46.1031 223.63 47.1273C223.63 48.1169 222.813 48.7038 221.857 48.7038C220.741 48.7038 220.154 47.9673 220.12 46.9086H219.142C219.107 48.5887 220.2 49.5668 221.857 49.5668C223.388 49.5668 224.665 48.7153 224.665 47.0812C224.665 46.1031 224.182 45.3207 223.192 45.102V45.079C223.814 44.7913 224.32 44.1699 224.32 43.4565C224.32 41.9491 223.25 41.2701 221.834 41.2701C220.2 41.2701 219.372 42.3518 219.314 43.9053H220.292C220.304 42.9502 220.764 42.1332 221.834 42.1332C222.663 42.1332 223.284 42.5935 223.284 43.445C223.284 44.331 222.559 44.7798 221.731 44.7798C221.593 44.7798 221.455 44.7798 221.305 44.7683V45.5968Z" fill="black"/>
<path d="M43.1316 46.0319H42.3836C42.165 47.2631 41.1523 47.5623 40.0361 47.5623V48.3448H42.1535V54.1904H43.1316V46.0319ZM46.9136 48.9201C46.879 47.942 47.3623 46.8949 48.5015 46.8949C49.3646 46.8949 50.078 47.4818 50.078 48.3678C50.078 49.4955 49.3761 50.0018 47.9952 50.8534C46.8445 51.5668 45.8664 52.2572 45.7053 54.1904H51.0331V53.3274H46.8445C47.0401 52.3148 48.1103 51.7969 49.1344 51.1756C50.1471 50.5427 51.1137 49.8177 51.1137 48.3793C51.1137 46.8604 49.986 46.0319 48.5591 46.0319C46.833 46.0319 45.8549 47.2631 45.9355 48.9201H46.9136Z" fill="black"/>
<path d="M257.913 99.3424H257.13L253.414 104.647V105.591H256.992V107.501H257.913V105.591H259.018V104.728H257.913V99.3424ZM254.254 104.728L256.969 100.735H256.992V104.728H254.254Z" fill="black"/>
<path d="M258.5 163.692H254.472L253.713 167.927L254.553 167.973C254.933 167.513 255.45 167.202 256.072 167.202C257.165 167.202 257.913 167.973 257.913 169.055C257.913 170.355 257.119 170.988 256.187 170.988C255.209 170.988 254.53 170.355 254.472 169.515H253.494C253.529 170.988 254.679 171.851 256.095 171.851C257.994 171.851 258.949 170.516 258.949 169.135C258.949 167.271 257.763 166.339 256.313 166.339C255.761 166.339 255.151 166.523 254.795 166.926L254.771 166.903L255.209 164.555H258.5V163.692Z" fill="black"/>
<path d="M11.5945 164.285H10.8465C10.6279 165.516 9.61523 165.815 8.49903 165.815V166.598H10.6164V172.443H11.5945V164.285ZM14.3753 168.439C14.3753 170.234 14.5364 172.581 17.091 172.581C19.6456 172.581 19.8067 170.234 19.8067 168.439C19.8067 166.632 19.6456 164.285 17.091 164.285C14.5364 164.285 14.3753 166.632 14.3753 168.439ZM15.411 168.427C15.411 167.219 15.4225 165.148 17.091 165.148C18.7596 165.148 18.7711 167.219 18.7711 168.427C18.7711 169.647 18.7596 171.718 17.091 171.718C15.4225 171.718 15.411 169.647 15.411 168.427Z" fill="black"/>
<path d="M13.0534 98.8785H12.3055C12.0868 100.11 11.0742 100.409 9.95802 100.409V101.191H12.0753V107.037H13.0534V98.8785ZM19.4476 98.8785H18.6996C18.481 100.11 17.4683 100.409 16.3521 100.409V101.191H18.4695V107.037H19.4476V98.8785Z" fill="black"/>
<path d="M224.66 223.591C225.776 223.591 226.305 224.431 226.305 225.444C226.305 226.411 225.719 227.251 224.66 227.251C223.59 227.251 222.968 226.445 222.968 225.433C222.968 224.408 223.567 223.591 224.66 223.591ZM227.111 221.9C226.996 220.576 226.156 219.817 224.809 219.817C222.485 219.817 221.806 221.946 221.806 224.19C221.806 225.904 222.197 228.114 224.614 228.114C226.674 228.114 227.341 226.56 227.341 225.375C227.341 223.868 226.409 222.728 224.844 222.728C223.958 222.728 223.267 223.051 222.807 223.798L222.784 223.775C222.83 222.521 223.095 220.68 224.763 220.68C225.534 220.68 226.041 221.163 226.133 221.9H227.111Z" fill="black"/>
<path d="M47.669 222.544C47.669 223.511 47.0246 224.339 46.0004 224.339C45.0568 224.339 44.3894 223.511 44.3894 222.613C44.3894 221.612 44.8267 220.68 45.9889 220.68C47.0821 220.68 47.669 221.543 47.669 222.544ZM43.5264 226.008C43.653 227.412 44.6311 228.114 46.0004 228.114C47.9797 228.114 48.8312 226.537 48.8312 223.718C48.8312 220.634 47.5539 219.817 46.035 219.817C44.4585 219.817 43.3538 220.899 43.3538 222.475C43.3538 224.086 44.2744 225.202 45.9314 225.202C46.7254 225.202 47.4503 224.765 47.8186 224.075L47.8416 224.098C47.784 226.203 47.1972 227.251 46.0004 227.251C45.2179 227.251 44.5735 226.802 44.5045 226.008H43.5264Z" fill="black"/>
<path d="M170.933 254.351H165.651V255.271H169.932C168.217 257.089 166.894 259.609 166.71 262.371H167.803C167.953 259.817 169.287 256.825 170.933 255.191V254.351Z" fill="black"/>
<path d="M103.781 260.07C103.781 259.126 104.54 258.505 105.507 258.505C106.427 258.505 107.187 259.172 107.187 260.058C107.187 260.967 106.496 261.646 105.518 261.646C104.506 261.646 103.781 261.048 103.781 260.07ZM103.033 256.295C103.033 257.032 103.493 257.711 104.172 257.987C103.263 258.309 102.745 259.057 102.745 260.024C102.745 261.692 103.953 262.509 105.518 262.509C107.026 262.509 108.223 261.6 108.223 260.024C108.223 259.011 107.751 258.298 106.773 257.987C107.44 257.688 107.9 257.02 107.9 256.295C107.9 255.26 107.21 254.213 105.426 254.213C104.172 254.213 103.033 254.949 103.033 256.295ZM104.068 256.33C104.068 255.513 104.713 255.076 105.495 255.076C106.289 255.076 106.865 255.513 106.865 256.33C106.865 257.158 106.289 257.642 105.518 257.642C104.713 257.642 104.068 257.227 104.068 256.33Z" fill="black"/>
<path d="M136.012 135.785L107.801 119.234C107.801 119.234 110.172 115.156 112.176 112.926C114.518 110.318 119.086 107.197 119.086 107.197L127.263 103.813L136.012 102.683L144.657 103.813L152.564 107.197L136.012 135.785L164.128 119.234C164.128 119.234 166.829 124.133 167.69 127.565C168.474 130.695 168.526 135.785 168.526 135.785C168.526 135.785 168.695 141.434 167.69 144.839C166.801 147.848 164.128 152.039 164.128 152.039L136.012 135.785L152.564 164.06C152.564 164.06 147.894 166.524 144.657 167.391C141.372 168.272 136.012 168.458 136.012 168.458V135.785Z" fill="#4396F7"/>
<path d="M136.012 168.458V135.785L119.086 164.06C119.086 164.06 123.958 166.533 127.263 167.391C130.568 168.25 136.012 168.458 136.012 168.458Z" fill="#F74343"/>
<path fill-rule="evenodd" clip-rule="evenodd" d="M136.012 135.785L164.128 119.234C164.128 119.234 161.549 115.169 159.462 112.926C157.077 110.361 152.564 107.197 152.564 107.197L136.012 135.785Z" fill="#F74343"/>
<mask id="mask0" mask-type="alpha" maskUnits="userSpaceOnUse" x="119" y="135" width="18" height="34">
<path d="M136.012 168.458V135.785L119.086 164.06C119.086 164.06 123.958 166.533 127.263 167.391C130.568 168.25 136.012 168.458 136.012 168.458Z" fill="#F74343"/>
</mask>
<g mask="url(#mask0)">
<path fill-rule="evenodd" clip-rule="evenodd" d="M107.419 181.237L113.565 204.174L114.635 203.887L108.489 180.95L107.419 181.237ZM121.291 157.211L127.437 180.148L128.506 179.861L122.36 156.924L121.291 157.211ZM141.308 156.122L135.162 133.184L136.232 132.898L142.378 155.835L141.308 156.122ZM114.355 169.224L120.501 192.161L121.57 191.874L115.424 168.937L114.355 169.224ZM134.372 168.135L128.226 145.197L129.296 144.911L135.442 167.848L134.372 168.135ZM142.098 121.171L148.244 144.108L149.313 143.822L143.167 120.885L142.098 121.171ZM115.877 200.17L109.731 177.232L110.801 176.946L116.947 199.883L115.877 200.17ZM123.602 153.206L129.748 176.143L130.818 175.857L124.672 152.92L123.602 153.206ZM143.62 152.117L137.474 129.18L138.544 128.893L144.69 151.831L143.62 152.117ZM116.667 165.219L122.813 188.156L123.882 187.87L117.736 164.933L116.667 165.219ZM136.684 164.13L130.538 141.193L131.608 140.906L137.754 163.844L136.684 164.13ZM144.41 117.167L150.556 140.104L151.625 139.817L145.479 116.88L144.41 117.167ZM118.189 196.165L112.043 173.228L113.112 172.941L119.258 195.879L118.189 196.165ZM125.914 149.202L132.06 172.139L133.13 171.852L126.984 148.915L125.914 149.202ZM145.932 148.113L139.786 125.176L140.855 124.889L147.001 147.826L145.932 148.113ZM118.979 161.215L125.125 184.152L126.194 183.865L120.048 160.928L118.979 161.215ZM138.996 160.126L132.85 137.189L133.92 136.902L140.066 159.839L138.996 160.126ZM146.722 113.163L152.868 136.1L153.937 135.813L147.791 112.876L146.722 113.163Z" fill="#4396F7"/>
</g>
</svg>
