<svg width="271" height="271" viewBox="0 0 271 271" fill="none" xmlns="http://www.w3.org/2000/svg">
<path opacity="0.2" d="M103.557 15.285C124.698 9.62048 146.957 9.62048 168.097 15.285C189.238 20.9496 208.514 32.0791 223.99 47.5549C239.466 63.0308 250.596 82.3076 256.26 103.448C261.925 124.588 261.925 146.847 256.26 167.988C250.596 189.128 239.466 208.405 223.99 223.881C208.514 239.357 189.238 250.486 168.097 256.151C146.957 261.815 124.698 261.815 103.557 256.151C82.417 250.486 63.1401 239.357 47.6643 223.881C32.1885 208.405 21.059 189.128 15.3944 167.988C9.72985 146.847 9.72985 124.588 15.3944 103.448C21.059 82.3076 32.1885 63.0308 47.6643 47.5549C63.1401 32.0791 82.417 20.9496 103.557 15.285Z" fill="#4396F7" fill-opacity="0.6" stroke="#4396F7" stroke-width="2.15759"/>
<path opacity="0.2" d="M111.308 44.2075C127.371 39.9033 144.285 39.9033 160.348 44.2075C176.412 48.5117 191.059 56.9684 202.818 68.7276C214.578 80.4869 223.034 95.1343 227.338 111.198C231.643 127.261 231.643 144.174 227.338 160.238C223.034 176.301 214.578 190.949 202.818 202.708C191.059 214.467 176.412 222.924 160.348 227.228C144.285 231.532 127.371 231.532 111.308 227.228C95.2446 222.924 80.5972 214.467 68.838 202.708C57.0787 190.949 48.622 176.301 44.3179 160.238C40.0137 144.174 40.0137 127.261 44.3179 111.198C48.622 95.1343 57.0787 80.4869 68.838 68.7276C80.5972 56.9684 95.2446 48.5117 111.308 44.2075Z" fill="#4396F7" fill-opacity="0.6" stroke="#4396F7" stroke-width="2.15759"/>
<path opacity="0.2" d="M119.059 73.129C130.045 70.1852 141.613 70.1852 152.599 73.129C163.586 76.0728 173.604 81.8567 181.646 89.8993C189.689 97.9419 195.473 107.96 198.417 118.946C201.361 129.933 201.361 141.501 198.417 152.487C195.473 163.473 189.689 173.491 181.646 181.534C173.604 189.577 163.586 195.361 152.599 198.304C141.613 201.248 130.045 201.248 119.059 198.304C108.072 195.361 98.0543 189.577 90.0116 181.534C81.969 173.491 76.1851 163.473 73.2413 152.487C70.2975 141.501 70.2975 129.933 73.2413 118.946C76.1851 107.96 81.969 97.942 90.0116 89.8993C98.0543 81.8567 108.072 76.0728 119.059 73.129Z" fill="#4396F7" fill-opacity="0.6" stroke="#4396F7" stroke-width="2.15759"/>
<path opacity="0.5" d="M127.584 104.943C132.986 103.496 138.673 103.496 144.075 104.943C149.477 106.391 154.403 109.235 158.357 113.189C162.311 117.143 165.155 122.069 166.603 127.471C168.05 132.873 168.05 138.56 166.603 143.962C165.155 149.364 162.311 154.289 158.357 158.244C154.403 162.198 149.477 165.042 144.075 166.489C138.673 167.937 132.986 167.937 127.584 166.489C122.182 165.042 117.257 162.198 113.302 158.244C109.348 154.289 106.504 149.364 105.057 143.962C103.609 138.56 103.609 132.873 105.057 127.471C106.504 122.069 109.348 117.143 113.302 113.189C117.257 109.235 122.182 106.391 127.584 104.943Z" fill="#4396F7" fill-opacity="0.6" stroke="#4396F7" stroke-width="2.15759"/>
<path opacity="0.1" d="M111.215 43.8602C127.339 39.5396 144.317 39.5396 160.441 43.8602C176.566 48.1807 191.269 56.6695 203.073 68.4733C214.876 80.2772 223.365 94.9802 227.686 111.105C232.006 127.229 232.006 144.207 227.686 160.331C223.365 176.455 214.876 191.158 203.073 202.962C191.269 214.766 176.566 223.255 160.441 227.575C144.317 231.896 127.339 231.896 111.215 227.575C95.0906 223.255 80.3876 214.766 68.5837 202.962C56.7798 191.158 48.291 176.455 43.9705 160.331C39.65 144.207 39.65 127.229 43.9705 111.105C48.291 94.9802 56.7798 80.2772 68.5837 68.4733C80.3876 56.6695 95.0906 48.1807 111.215 43.8602Z" stroke="#4396F7" stroke-width="1.4384"/>
<path d="M118.873 72.4343C129.981 69.4578 141.677 69.4578 152.785 72.4343C163.894 75.4108 174.023 81.2589 182.155 89.3908C190.287 97.5227 196.135 107.652 199.111 118.76C202.088 129.869 202.088 141.565 199.111 152.673C196.135 163.782 190.287 173.911 182.155 182.043C174.023 190.175 163.894 196.023 152.785 198.999C141.677 201.976 129.981 201.976 118.873 198.999C107.764 196.023 97.635 190.175 89.5031 182.043C81.3712 173.911 75.5231 163.782 72.5466 152.673C69.5701 141.565 69.5701 129.869 72.5466 118.76C75.5231 107.652 81.3712 97.5227 89.5031 89.3908C97.635 81.2589 107.764 75.4108 118.873 72.4343Z" stroke="#4396F7" stroke-width="0.719198"/>
<path d="M127.351 104.074C132.905 102.586 138.754 102.586 144.308 104.074C149.862 105.562 154.927 108.486 158.993 112.552C163.058 116.618 165.982 121.683 167.471 127.237C168.959 132.791 168.959 138.639 167.471 144.194C165.982 149.748 163.058 154.812 158.993 158.878C154.927 162.944 149.862 165.868 144.308 167.356C138.754 168.845 132.905 168.845 127.351 167.356C121.797 165.868 116.733 162.944 112.667 158.878C108.601 154.812 105.677 149.748 104.188 144.194C102.7 138.639 102.7 132.791 104.188 127.237C105.677 121.683 108.601 116.618 112.667 112.552C116.733 108.486 121.797 105.562 127.351 104.074Z" stroke="#4396F7" stroke-width="0.359599"/>
<path opacity="0.5" d="M135.708 136.084L68.2676 19.2451" stroke="#4396F7" stroke-width="0.719198"/>
<path opacity="0.5" d="M135.681 135.726L135.695 0.820312" stroke="#4396F7" stroke-width="0.719198"/>
<path opacity="0.5" d="M135.687 136.069L203.152 19.2451" stroke="#4396F7" stroke-width="0.719198"/>
<path opacity="0.5" d="M135.687 135.713L252.525 68.2725" stroke="#4396F7" stroke-width="0.719198"/>
<path opacity="0.5" d="M136.048 135.682L270.953 135.696" stroke="#4396F7" stroke-width="0.719198"/>
<path opacity="0.5" d="M135.701 135.689L252.525 203.154" stroke="#4396F7" stroke-width="0.719198"/>
<path opacity="0.5" d="M136.06 135.532L203.5 252.371" stroke="#4396F7" stroke-width="0.719198"/>
<path opacity="0.5" d="M136.091 135.893L136.076 270.799" stroke="#4396F7" stroke-width="0.719198"/>
<path opacity="0.5" d="M136.082 135.547L68.6172 252.371" stroke="#4396F7" stroke-width="0.719198"/>
<path opacity="0.5" d="M136.083 135.904L19.2441 203.345" stroke="#4396F7" stroke-width="0.719198"/>
<path opacity="0.5" d="M135.722 135.934L0.816406 135.92" stroke="#4396F7" stroke-width="0.719198"/>
<path opacity="0.5" d="M136.068 135.929L19.2441 68.4639" stroke="#4396F7" stroke-width="0.719198"/>
<path d="M135.254 133.574C135.63 133.473 136.026 133.473 136.402 133.574C136.778 133.675 137.121 133.873 137.396 134.148C137.672 134.423 137.87 134.766 137.971 135.142C138.071 135.519 138.071 135.915 137.971 136.291C137.87 136.667 137.672 137.01 137.396 137.285C137.121 137.56 136.778 137.758 136.402 137.859C136.026 137.96 135.63 137.96 135.254 137.859C134.878 137.758 134.535 137.56 134.259 137.285C133.984 137.01 133.786 136.667 133.685 136.291C133.584 135.915 133.584 135.519 133.685 135.142C133.786 134.766 133.984 134.423 134.259 134.148C134.535 133.873 134.878 133.675 135.254 133.574Z" fill="#0284D2"/>
<circle cx="101.828" cy="16.8046" r="10.9624" fill="white" stroke="#4396F7" stroke-width="1.4384"/>
<circle cx="168.098" cy="16.8046" r="10.9624" fill="white" stroke="#4396F7" stroke-width="1.4384"/>
<circle cx="222.059" cy="45.2812" r="10.9624" fill="white" stroke="#4396F7" stroke-width="1.4384"/>
<circle cx="256.351" cy="103.798" r="10.9624" fill="white" stroke="#4396F7" stroke-width="1.4384"/>
<circle cx="256.351" cy="168.475" r="10.9624" fill="white" stroke="#4396F7" stroke-width="1.4384"/>
<circle cx="224.631" cy="224.744" r="10.9624" fill="white" stroke="#4396F7" stroke-width="1.4384"/>
<circle cx="168.098" cy="258.989" r="10.9624" fill="white" stroke="#4396F7" stroke-width="1.4384"/>
<circle cx="105.586" cy="258.989" r="10.9624" fill="white" stroke="#4396F7" stroke-width="1.4384"/>
<circle cx="46.2245" cy="224.744" r="10.9624" fill="white" stroke="#4396F7" stroke-width="1.4384"/>
<circle cx="13.9569" cy="169.884" r="10.9624" fill="white" stroke="#4396F7" stroke-width="1.4384"/>
<circle cx="15.5038" cy="103.798" r="10.9624" fill="white" stroke="#4396F7" stroke-width="1.4384"/>
<circle cx="45.8437" cy="51.1103" r="10.9624" fill="white" stroke="#4396F7" stroke-width="1.4384"/>
<path d="M137.628 150.148H136.88C136.661 151.379 135.649 151.679 134.532 151.679V152.461H136.65V158.307H137.628V150.148Z" fill="black"/>
<path d="M135.016 185.231C134.981 184.253 135.464 183.205 136.604 183.205C137.467 183.205 138.18 183.792 138.18 184.678C138.18 185.806 137.478 186.312 136.097 187.164C134.947 187.877 133.969 188.568 133.807 190.501H139.135V189.638H134.947C135.142 188.625 136.212 188.107 137.237 187.486C138.249 186.853 139.216 186.128 139.216 184.69C139.216 183.171 138.088 182.342 136.661 182.342C134.935 182.342 133.957 183.574 134.038 185.231H135.016Z" fill="black"/>
<path d="M136.04 218.454C136.224 218.431 136.431 218.42 136.627 218.42C137.593 218.42 138.364 218.961 138.364 219.985C138.364 220.974 137.547 221.561 136.592 221.561C135.476 221.561 134.889 220.825 134.855 219.766H133.876C133.842 221.446 134.935 222.424 136.592 222.424C138.123 222.424 139.4 221.573 139.4 219.939C139.4 218.961 138.917 218.178 137.927 217.959V217.936C138.548 217.649 139.055 217.027 139.055 216.314C139.055 214.806 137.985 214.128 136.569 214.128C134.935 214.128 134.107 215.209 134.049 216.763H135.027C135.039 215.808 135.499 214.991 136.569 214.991C137.398 214.991 138.019 215.451 138.019 216.302C138.019 217.188 137.294 217.637 136.466 217.637C136.327 217.637 136.189 217.637 136.04 217.626V218.454Z" fill="black"/>
<path d="M138.353 244.132H137.57L133.853 249.437V250.381H137.432V252.291H138.353V250.381H139.457V249.518H138.353V244.132ZM134.693 249.518L137.409 245.525H137.432V249.518H134.693Z" fill="black"/>
<path d="M166.625 15.302C166.59 14.3239 167.073 13.2767 168.213 13.2767C169.076 13.2767 169.789 13.8636 169.789 14.7496C169.789 15.8773 169.087 16.3837 167.706 17.2352C166.556 17.9486 165.578 18.6391 165.416 20.5723H170.744V19.7092H166.556C166.751 18.6966 167.821 18.1788 168.846 17.5574C169.858 16.9245 170.825 16.1995 170.825 14.7611C170.825 13.2422 169.697 12.4137 168.27 12.4137C166.544 12.4137 165.566 13.645 165.647 15.302H166.625Z" fill="black"/>
<path d="M102.889 12.4137H102.141C101.923 13.645 100.91 13.9441 99.7937 13.9441V14.7266H101.911V20.5723H102.889V12.4137Z" fill="black"/>
<path d="M221.37 45.5968C221.554 45.5738 221.761 45.5623 221.956 45.5623C222.923 45.5623 223.694 46.1031 223.694 47.1273C223.694 48.1169 222.877 48.7038 221.922 48.7038C220.806 48.7038 220.219 47.9673 220.184 46.9086H219.206C219.172 48.5887 220.265 49.5668 221.922 49.5668C223.452 49.5668 224.73 48.7153 224.73 47.0812C224.73 46.1031 224.246 45.3207 223.257 45.102V45.079C223.878 44.7913 224.384 44.1699 224.384 43.4565C224.384 41.9491 223.314 41.2701 221.899 41.2701C220.265 41.2701 219.436 42.3518 219.379 43.9053H220.357C220.368 42.9502 220.829 42.1332 221.899 42.1332C222.727 42.1332 223.349 42.5935 223.349 43.445C223.349 44.331 222.624 44.7798 221.795 44.7798C221.657 44.7798 221.519 44.7798 221.37 44.7683V45.5968Z" fill="black"/>
<path d="M43.196 46.0319H42.4481C42.2294 47.2631 41.2168 47.5623 40.1006 47.5623V48.3448H42.2179V54.1904H43.196V46.0319ZM46.978 48.9201C46.9435 47.942 47.4268 46.8949 48.566 46.8949C49.429 46.8949 50.1425 47.4818 50.1425 48.3678C50.1425 49.4955 49.4405 50.0018 48.0597 50.8534C46.909 51.5668 45.9309 52.2572 45.7698 54.1904H51.0976V53.3274H46.909C47.1046 52.3148 48.1748 51.7969 49.1989 51.1756C50.2115 50.5427 51.1781 49.8177 51.1781 48.3793C51.1781 46.8604 50.0504 46.0319 48.6235 46.0319C46.8975 46.0319 45.9194 47.2631 45.9999 48.9201H46.978Z" fill="black"/>
<path d="M257.977 99.3424H257.195L253.478 104.647V105.591H257.057V107.501H257.977V105.591H259.082V104.728H257.977V99.3424ZM254.318 104.728L257.034 100.735H257.057V104.728H254.318Z" fill="black"/>
<path d="M258.564 163.692H254.537L253.777 167.927L254.617 167.973C254.997 167.513 255.515 167.202 256.136 167.202C257.229 167.202 257.977 167.973 257.977 169.055C257.977 170.355 257.183 170.988 256.251 170.988C255.273 170.988 254.594 170.355 254.537 169.515H253.559C253.593 170.988 254.744 171.851 256.159 171.851C258.058 171.851 259.013 170.516 259.013 169.135C259.013 167.271 257.828 166.339 256.378 166.339C255.826 166.339 255.216 166.523 254.859 166.926L254.836 166.903L255.273 164.555H258.564V163.692Z" fill="black"/>
<path d="M11.6589 164.285H10.9109C10.6923 165.516 9.67968 165.815 8.56349 165.815V166.598H10.6808V172.443H11.6589V164.285ZM14.4398 168.439C14.4398 170.234 14.6009 172.581 17.1555 172.581C19.7101 172.581 19.8712 170.234 19.8712 168.439C19.8712 166.632 19.7101 164.285 17.1555 164.285C14.6009 164.285 14.4398 166.632 14.4398 168.439ZM15.4754 168.427C15.4754 167.219 15.4869 165.148 17.1555 165.148C18.824 165.148 18.8355 167.219 18.8355 168.427C18.8355 169.647 18.824 171.718 17.1555 171.718C15.4869 171.718 15.4754 169.647 15.4754 168.427Z" fill="black"/>
<path d="M13.1179 98.8785H12.3699C12.1513 100.11 11.1387 100.409 10.0225 100.409V101.191H12.1398V107.037H13.1179V98.8785ZM19.512 98.8785H18.764C18.5454 100.11 17.5328 100.409 16.4166 100.409V101.191H18.5339V107.037H19.512V98.8785Z" fill="black"/>
<path d="M224.724 223.591C225.84 223.591 226.37 224.431 226.37 225.444C226.37 226.411 225.783 227.251 224.724 227.251C223.654 227.251 223.033 226.445 223.033 225.433C223.033 224.408 223.631 223.591 224.724 223.591ZM227.175 221.9C227.06 220.576 226.22 219.817 224.874 219.817C222.549 219.817 221.871 221.946 221.871 224.19C221.871 225.904 222.262 228.114 224.678 228.114C226.738 228.114 227.405 226.56 227.405 225.375C227.405 223.868 226.473 222.728 224.908 222.728C224.022 222.728 223.332 223.051 222.872 223.798L222.849 223.775C222.895 222.521 223.159 220.68 224.828 220.68C225.599 220.68 226.105 221.163 226.197 221.9H227.175Z" fill="black"/>
<path d="M47.7334 222.544C47.7334 223.511 47.089 224.339 46.0649 224.339C45.1213 224.339 44.4539 223.511 44.4539 222.613C44.4539 221.612 44.8912 220.68 46.0534 220.68C47.1466 220.68 47.7334 221.543 47.7334 222.544ZM43.5908 226.008C43.7174 227.412 44.6955 228.114 46.0649 228.114C48.0441 228.114 48.8957 226.537 48.8957 223.718C48.8957 220.634 47.6184 219.817 46.0994 219.817C44.5229 219.817 43.4182 220.899 43.4182 222.475C43.4182 224.086 44.3388 225.202 45.9958 225.202C46.7898 225.202 47.5148 224.765 47.883 224.075L47.906 224.098C47.8485 226.203 47.2616 227.251 46.0649 227.251C45.2824 227.251 44.638 226.802 44.569 226.008H43.5908Z" fill="black"/>
<path d="M170.997 254.351H165.716V255.271H169.996C168.282 257.089 166.958 259.609 166.774 262.371H167.867C168.017 259.817 169.352 256.825 170.997 255.191V254.351Z" fill="black"/>
<path d="M103.845 260.07C103.845 259.126 104.605 258.505 105.571 258.505C106.492 258.505 107.251 259.172 107.251 260.058C107.251 260.967 106.561 261.646 105.583 261.646C104.57 261.646 103.845 261.048 103.845 260.07ZM103.097 256.295C103.097 257.032 103.558 257.711 104.236 257.987C103.327 258.309 102.81 259.057 102.81 260.024C102.81 261.692 104.018 262.509 105.583 262.509C107.09 262.509 108.287 261.6 108.287 260.024C108.287 259.011 107.815 258.298 106.837 257.987C107.504 257.688 107.965 257.02 107.965 256.295C107.965 255.26 107.274 254.213 105.491 254.213C104.236 254.213 103.097 254.949 103.097 256.295ZM104.133 256.33C104.133 255.513 104.777 255.076 105.56 255.076C106.354 255.076 106.929 255.513 106.929 256.33C106.929 257.158 106.354 257.642 105.583 257.642C104.777 257.642 104.133 257.227 104.133 256.33Z" fill="black"/>
</svg>
