<svg width="272" height="272" viewBox="0 0 272 272" fill="none" xmlns="http://www.w3.org/2000/svg">
<path opacity="0.8" fill-rule="evenodd" clip-rule="evenodd" d="M152.618 72.9905C141.576 70.0318 129.95 70.0318 118.907 72.9905C107.865 75.9493 97.7965 81.7625 89.7131 89.8459C81.6297 97.9293 75.8165 107.998 72.8577 119.04C71.3768 124.567 70.6371 130.241 70.6387 135.914H103.11C103.11 135.914 102.999 140.529 104.115 145.066C105.233 149.607 107.534 152.751 107.534 152.751L79.4755 168.651C82.2885 173.485 85.7244 177.957 89.7131 181.945C97.7965 190.029 107.865 195.842 118.907 198.801C124.483 200.295 130.208 201.034 135.931 201.02V135.914L152.352 164.289C152.352 164.289 155.55 162.239 159.374 158.716L164.167 152.307L192.05 168.651C194.938 163.688 197.169 158.345 198.668 152.751C201.627 141.709 201.627 130.082 198.668 119.04C197.169 113.447 194.938 108.103 192.05 103.141L163.637 119.04C163.637 119.04 162.468 116.81 159.213 113.534C156.002 110.302 152.618 107.262 152.618 107.262L168.389 79.5334C163.463 76.682 158.163 74.4763 152.618 72.9905Z" fill="#4396F7"/>
<g opacity="0.5">
<path opacity="0.2" d="M103.491 15.4628C124.631 9.79821 146.89 9.79821 168.031 15.4628C189.171 21.1273 208.448 32.2568 223.924 47.7327C239.4 63.2085 250.529 82.4854 256.194 103.626C261.858 124.766 261.858 147.025 256.194 168.166C250.529 189.306 239.4 208.583 223.924 224.059C208.448 239.535 189.171 250.664 168.031 256.329C146.89 261.993 124.631 261.993 103.491 256.329C82.3506 250.664 63.0737 239.535 47.5979 224.059C32.1221 208.583 20.9925 189.306 15.328 168.166C9.66345 147.025 9.66345 124.766 15.328 103.626C20.9925 82.4854 32.1221 63.2085 47.5979 47.7327C63.0737 32.2568 82.3506 21.1273 103.491 15.4628Z" fill="#4396F7" fill-opacity="0.6" stroke="#4396F7" stroke-width="2.15759"/>
<path opacity="0.2" d="M111.241 44.3852C127.304 40.0811 144.217 40.0811 160.281 44.3852C176.344 48.6894 190.992 57.1461 202.751 68.9053C214.51 80.6646 222.967 95.312 227.271 111.375C231.575 127.439 231.575 144.352 227.271 160.416C222.967 176.479 214.51 191.126 202.751 202.886C190.992 214.645 176.344 223.102 160.281 227.406C144.217 231.71 127.304 231.71 111.241 227.406C95.1772 223.102 80.5298 214.645 68.7706 202.886C57.0113 191.126 48.5547 176.479 44.2505 160.416C39.9463 144.352 39.9463 127.439 44.2505 111.375C48.5547 95.312 57.0113 80.6646 68.7706 68.9053C80.5298 57.1461 95.1772 48.6894 111.241 44.3852Z" fill="#4396F7" fill-opacity="0.6" stroke="#4396F7" stroke-width="2.15759"/>
<path opacity="0.5" d="M127.517 105.121C132.919 103.674 138.607 103.674 144.008 105.121C149.41 106.569 154.336 109.413 158.29 113.367C162.244 117.321 165.088 122.247 166.536 127.649C167.983 133.051 167.983 138.738 166.536 144.14C165.088 149.542 162.244 154.467 158.29 158.422C154.336 162.376 149.41 165.22 144.008 166.667C138.607 168.115 132.919 168.115 127.517 166.667C122.115 165.22 117.19 162.376 113.235 158.422C109.281 154.467 106.437 149.542 104.99 144.14C103.542 138.738 103.542 133.051 104.99 127.649C106.437 122.247 109.281 117.321 113.235 113.367C117.19 109.413 122.115 106.569 127.517 105.121Z" fill="#4396F7" fill-opacity="0.6" stroke="#4396F7" stroke-width="2.15759"/>
<path opacity="0.1" d="M111.148 44.0379C127.272 39.7174 144.25 39.7174 160.374 44.0379C176.498 48.3584 191.201 56.8472 203.005 68.6511C214.809 80.4549 223.298 95.158 227.618 111.282C231.939 127.407 231.939 144.384 227.618 160.509C223.298 176.633 214.809 191.336 203.005 203.14C191.201 214.944 176.498 223.433 160.374 227.753C144.25 232.074 127.272 232.074 111.148 227.753C95.0232 223.433 80.3202 214.944 68.5163 203.14C56.7124 191.336 48.2236 176.633 43.9031 160.509C39.5826 144.384 39.5826 127.407 43.9031 111.282C48.2236 95.158 56.7124 80.4549 68.5163 68.6511C80.3202 56.8472 95.0232 48.3584 111.148 44.0379Z" stroke="#4396F7" stroke-width="1.4384"/>
<path d="M118.806 72.612C129.915 69.6356 141.611 69.6356 152.719 72.612C163.828 75.5885 173.957 81.4366 182.089 89.5685C190.221 97.7004 196.069 107.83 199.045 118.938C202.022 130.046 202.022 141.743 199.045 152.851C196.069 163.959 190.221 174.088 182.089 182.22C173.957 190.352 163.828 196.2 152.719 199.177C141.611 202.153 129.915 202.153 118.806 199.177C107.698 196.2 97.5688 190.352 89.4369 182.22C81.305 174.088 75.4569 163.959 72.4805 152.851C69.504 141.743 69.504 130.046 72.4805 118.938C75.4569 107.83 81.305 97.7004 89.4369 89.5685C97.5688 81.4366 107.698 75.5885 118.806 72.612Z" stroke="#4396F7" stroke-width="0.719198"/>
<path d="M127.284 104.252C132.839 102.764 138.687 102.764 144.241 104.252C149.795 105.74 154.86 108.664 158.926 112.73C162.992 116.796 165.916 121.861 167.404 127.415C168.892 132.969 168.892 138.817 167.404 144.371C165.916 149.926 162.992 154.99 158.926 159.056C154.86 163.122 149.795 166.046 144.241 167.534C138.687 169.023 132.839 169.023 127.284 167.534C121.73 166.046 116.666 163.122 112.6 159.056C108.534 154.99 105.61 149.926 104.121 144.371C102.633 138.817 102.633 132.969 104.121 127.415C105.61 121.861 108.534 116.796 112.6 112.73C116.666 108.664 121.73 105.74 127.284 104.252Z" stroke="#4396F7" stroke-width="0.359599"/>
<path opacity="0.5" d="M135.642 136.262L68.2017 19.4231" stroke="#4396F7" stroke-width="0.719198"/>
<path opacity="0.5" d="M135.614 135.903L135.628 0.998047" stroke="#4396F7" stroke-width="0.719198"/>
<path opacity="0.5" d="M135.621 136.247L203.086 19.4231" stroke="#4396F7" stroke-width="0.719198"/>
<path opacity="0.5" d="M135.62 135.891L252.459 68.4507" stroke="#4396F7" stroke-width="0.719198"/>
<path opacity="0.5" d="M135.981 135.86L270.886 135.874" stroke="#4396F7" stroke-width="0.719198"/>
<path opacity="0.5" d="M135.634 135.867L252.459 203.332" stroke="#4396F7" stroke-width="0.719198"/>
<path opacity="0.5" d="M135.994 135.71L203.434 252.549" stroke="#4396F7" stroke-width="0.719198"/>
<path opacity="0.5" d="M136.024 136.071L136.01 270.976" stroke="#4396F7" stroke-width="0.719198"/>
<path opacity="0.5" d="M136.015 135.725L68.5498 252.549" stroke="#4396F7" stroke-width="0.719198"/>
<path opacity="0.5" d="M136.016 136.082L19.1772 203.523" stroke="#4396F7" stroke-width="0.719198"/>
<path opacity="0.5" d="M135.655 136.112L0.75 136.098" stroke="#4396F7" stroke-width="0.719198"/>
<path opacity="0.5" d="M136.002 136.107L19.1772 68.6414" stroke="#4396F7" stroke-width="0.719198"/>
<path d="M135.187 133.752C135.563 133.651 135.959 133.651 136.335 133.752C136.711 133.853 137.054 134.051 137.33 134.326C137.605 134.601 137.803 134.944 137.904 135.32C138.005 135.697 138.005 136.093 137.904 136.469C137.803 136.845 137.605 137.188 137.33 137.463C137.054 137.739 136.711 137.937 136.335 138.037C135.959 138.138 135.563 138.138 135.187 138.037C134.811 137.937 134.468 137.739 134.192 137.463C133.917 137.188 133.719 136.845 133.618 136.469C133.517 136.093 133.517 135.697 133.618 135.32C133.719 134.944 133.917 134.601 134.192 134.326C134.468 134.051 134.811 133.853 135.187 133.752Z" fill="#0284D2"/>
<circle cx="101.762" cy="16.9818" r="10.9624" fill="white" stroke="#4396F7" stroke-width="1.4384"/>
<circle cx="168.031" cy="16.9818" r="10.9624" fill="white" stroke="#4396F7" stroke-width="1.4384"/>
<circle cx="221.991" cy="45.4594" r="10.9624" fill="white" stroke="#4396F7" stroke-width="1.4384"/>
<circle cx="256.286" cy="103.976" r="10.9624" fill="white" stroke="#4396F7" stroke-width="1.4384"/>
<circle cx="256.286" cy="168.652" r="10.9624" fill="white" stroke="#4396F7" stroke-width="1.4384"/>
<circle cx="224.563" cy="224.922" r="10.9624" fill="white" stroke="#4396F7" stroke-width="1.4384"/>
<circle cx="168.031" cy="259.167" r="10.9624" fill="white" stroke="#4396F7" stroke-width="1.4384"/>
<circle cx="105.519" cy="259.167" r="10.9624" fill="white" stroke="#4396F7" stroke-width="1.4384"/>
<circle cx="46.1574" cy="224.922" r="10.9624" fill="white" stroke="#4396F7" stroke-width="1.4384"/>
<circle cx="13.8908" cy="170.062" r="10.9624" fill="white" stroke="#4396F7" stroke-width="1.4384"/>
<circle cx="15.4364" cy="103.976" r="10.9624" fill="white" stroke="#4396F7" stroke-width="1.4384"/>
<circle cx="45.7782" cy="51.2878" r="10.9624" fill="white" stroke="#4396F7" stroke-width="1.4384"/>
<path d="M137.561 150.326H136.813C136.594 151.557 135.582 151.856 134.465 151.856V152.639H136.583V158.485H137.561V150.326Z" fill="black"/>
<path d="M134.949 185.409C134.914 184.431 135.398 183.384 136.537 183.384C137.4 183.384 138.113 183.97 138.113 184.856C138.113 185.984 137.411 186.49 136.03 187.342C134.88 188.055 133.902 188.746 133.741 190.679H139.068V189.816H134.88C135.075 188.803 136.146 188.286 137.17 187.664C138.182 187.031 139.149 186.306 139.149 184.868C139.149 183.349 138.021 182.52 136.594 182.52C134.868 182.52 133.89 183.752 133.971 185.409H134.949Z" fill="black"/>
<path d="M135.973 218.631C136.157 218.608 136.364 218.597 136.56 218.597C137.526 218.597 138.297 219.138 138.297 220.162C138.297 221.152 137.48 221.738 136.525 221.738C135.409 221.738 134.822 221.002 134.788 219.943H133.81C133.775 221.623 134.868 222.601 136.525 222.601C138.056 222.601 139.333 221.75 139.333 220.116C139.333 219.138 138.85 218.355 137.86 218.137V218.114C138.481 217.826 138.988 217.205 138.988 216.491C138.988 214.984 137.918 214.305 136.502 214.305C134.868 214.305 134.04 215.386 133.982 216.94H134.96C134.972 215.985 135.432 215.168 136.502 215.168C137.331 215.168 137.952 215.628 137.952 216.48C137.952 217.366 137.227 217.814 136.399 217.814C136.261 217.814 136.123 217.814 135.973 217.803V218.631Z" fill="black"/>
<path d="M138.286 244.311H137.503L133.787 249.615V250.559H137.365V252.469H138.286V250.559H139.391V249.696H138.286V244.311ZM134.627 249.696L137.342 245.703H137.365V249.696H134.627Z" fill="black"/>
<path d="M166.557 15.4792C166.523 14.5011 167.006 13.454 168.145 13.454C169.008 13.454 169.722 14.0408 169.722 14.9269C169.722 16.0546 169.02 16.5609 167.639 17.4124C166.488 18.1259 165.51 18.8163 165.349 20.7495H170.677V19.8865H166.488C166.684 18.8738 167.754 18.356 168.778 17.7346C169.791 17.1017 170.757 16.3768 170.757 14.9384C170.757 13.4194 169.63 12.5909 168.203 12.5909C166.477 12.5909 165.499 13.8222 165.579 15.4792H166.557Z" fill="black"/>
<path d="M102.823 12.5909H102.075C101.856 13.8222 100.844 14.1214 99.7273 14.1214V14.9039H101.845V20.7495H102.823V12.5909Z" fill="black"/>
<path d="M221.303 45.7743C221.487 45.7513 221.694 45.7398 221.89 45.7398C222.856 45.7398 223.627 46.2806 223.627 47.3048C223.627 48.2944 222.81 48.8812 221.855 48.8812C220.739 48.8812 220.152 48.1448 220.118 47.0861H219.14C219.105 48.7662 220.198 49.7443 221.855 49.7443C223.386 49.7443 224.663 48.8928 224.663 47.2587C224.663 46.2806 224.18 45.4981 223.19 45.2795V45.2565C223.811 44.9688 224.318 44.3474 224.318 43.634C224.318 42.1265 223.248 41.4476 221.832 41.4476C220.198 41.4476 219.37 42.5293 219.312 44.0828H220.29C220.302 43.1277 220.762 42.3107 221.832 42.3107C222.661 42.3107 223.282 42.7709 223.282 43.6225C223.282 44.5085 222.557 44.9573 221.729 44.9573C221.591 44.9573 221.452 44.9573 221.303 44.9458V45.7743Z" fill="black"/>
<path d="M43.1301 46.2096H42.3821C42.1635 47.4409 41.1509 47.74 40.0347 47.74V48.5225H42.152V54.3682H43.1301V46.2096ZM46.9121 49.0979C46.8776 48.1198 47.3609 47.0726 48.5001 47.0726C49.3631 47.0726 50.0766 47.6595 50.0766 48.5455C50.0766 49.6732 49.3746 50.1796 47.9938 51.0311C46.8431 51.7445 45.8649 52.435 45.7038 54.3682H51.0317V53.5051H46.8431C47.0387 52.4925 48.1088 51.9747 49.133 51.3533C50.1456 50.7204 51.1122 49.9954 51.1122 48.557C51.1122 47.0381 49.9845 46.2096 48.5576 46.2096C46.8315 46.2096 45.8534 47.4409 45.934 49.0979H46.9121Z" fill="black"/>
<path d="M257.911 99.5196H257.128L253.411 104.824V105.768H256.99V107.678H257.911V105.768H259.015V104.905H257.911V99.5196ZM254.251 104.905L256.967 100.912H256.99V104.905H254.251Z" fill="black"/>
<path d="M258.497 163.871H254.47L253.71 168.105L254.55 168.151C254.93 167.691 255.448 167.38 256.069 167.38C257.163 167.38 257.911 168.151 257.911 169.233C257.911 170.533 257.117 171.166 256.184 171.166C255.206 171.166 254.527 170.533 254.47 169.693H253.492C253.526 171.166 254.677 172.029 256.092 172.029C257.991 172.029 258.946 170.694 258.946 169.314C258.946 167.449 257.761 166.517 256.311 166.517C255.759 166.517 255.149 166.701 254.792 167.104L254.769 167.081L255.206 164.734H258.497V163.871Z" fill="black"/>
<path d="M11.5932 164.462H10.8453C10.6266 165.693 9.61401 165.992 8.49781 165.992V166.775H10.6151V172.621H11.5932V164.462ZM14.3741 168.616C14.3741 170.411 14.5352 172.759 17.0898 172.759C19.6444 172.759 19.8055 170.411 19.8055 168.616C19.8055 166.809 19.6444 164.462 17.0898 164.462C14.5352 164.462 14.3741 166.809 14.3741 168.616ZM15.4098 168.605C15.4098 167.396 15.4213 165.325 17.0898 165.325C18.7583 165.325 18.7698 167.396 18.7698 168.605C18.7698 169.824 18.7583 171.896 17.0898 171.896C15.4213 171.896 15.4098 169.824 15.4098 168.605Z" fill="black"/>
<path d="M13.0525 99.056H12.3045C12.0859 100.287 11.0732 100.586 9.95704 100.586V101.369H12.0744V107.215H13.0525V99.056ZM19.4466 99.056H18.6986C18.48 100.287 17.4674 100.586 16.3512 100.586V101.369H18.4685V107.215H19.4466V99.056Z" fill="black"/>
<path d="M224.657 223.769C225.774 223.769 226.303 224.609 226.303 225.622C226.303 226.589 225.716 227.429 224.657 227.429C223.587 227.429 222.966 226.623 222.966 225.61C222.966 224.586 223.564 223.769 224.657 223.769ZM227.108 222.078C226.993 220.754 226.153 219.995 224.807 219.995C222.483 219.995 221.804 222.124 221.804 224.368C221.804 226.082 222.195 228.292 224.611 228.292C226.671 228.292 227.339 226.738 227.339 225.553C227.339 224.046 226.406 222.906 224.842 222.906C223.955 222.906 223.265 223.228 222.805 223.976L222.782 223.953C222.828 222.699 223.092 220.858 224.761 220.858C225.532 220.858 226.038 221.341 226.13 222.078H227.108Z" fill="black"/>
<path d="M47.6668 222.722C47.6668 223.689 47.0224 224.517 45.9982 224.517C45.0547 224.517 44.3872 223.689 44.3872 222.791C44.3872 221.79 44.8245 220.858 45.9867 220.858C47.0799 220.858 47.6668 221.721 47.6668 222.722ZM43.5242 226.186C43.6508 227.59 44.6289 228.292 45.9982 228.292C47.9775 228.292 48.829 226.715 48.829 223.896C48.829 220.812 47.5517 219.995 46.0328 219.995C44.4563 219.995 43.3516 221.077 43.3516 222.653C43.3516 224.264 44.2722 225.38 45.9292 225.38C46.7232 225.38 47.4481 224.943 47.8164 224.253L47.8394 224.276C47.7818 226.381 47.195 227.429 45.9982 227.429C45.2158 227.429 44.5714 226.98 44.5023 226.186H43.5242Z" fill="black"/>
<path d="M170.93 254.529H165.648V255.449H169.929C168.214 257.267 166.891 259.787 166.707 262.549H167.8C167.95 259.995 169.285 257.003 170.93 255.369V254.529Z" fill="black"/>
<path d="M103.779 260.248C103.779 259.304 104.539 258.683 105.505 258.683C106.426 258.683 107.185 259.35 107.185 260.236C107.185 261.145 106.495 261.824 105.517 261.824C104.504 261.824 103.779 261.226 103.779 260.248ZM103.031 256.473C103.031 257.21 103.492 257.889 104.171 258.165C103.261 258.487 102.744 259.235 102.744 260.202C102.744 261.87 103.952 262.687 105.517 262.687C107.024 262.687 108.221 261.778 108.221 260.202C108.221 259.189 107.749 258.476 106.771 258.165C107.439 257.866 107.899 257.198 107.899 256.473C107.899 255.438 107.208 254.391 105.425 254.391C104.171 254.391 103.031 255.127 103.031 256.473ZM104.067 256.508C104.067 255.691 104.711 255.254 105.494 255.254C106.288 255.254 106.863 255.691 106.863 256.508C106.863 257.336 106.288 257.82 105.517 257.82C104.711 257.82 104.067 257.405 104.067 256.508Z" fill="black"/>
</g>
</svg>
