<svg width="205" height="205" viewBox="0 0 205 205" fill="none" xmlns="http://www.w3.org/2000/svg">
<g style="mix-blend-mode:darken" opacity="0.3">
<path fill-rule="evenodd" clip-rule="evenodd" d="M102.946 1.17316L102.917 8.04176C111.093 8.08864 119.263 9.19619 127.219 11.3635C135.159 13.5264 142.748 16.707 149.805 20.801L153.126 15.1057L153.558 15.3576L150.237 21.053C157.244 25.1673 163.722 30.1855 169.493 36.0047C175.265 41.8247 180.229 48.3446 184.286 55.3868L190.176 52.0195L190.424 52.4536L184.534 55.8208C188.568 62.9114 191.685 70.5247 193.782 78.4811C195.873 86.4167 196.913 94.5554 196.902 102.692L203.942 102.722L203.939 103.222L196.9 103.192C196.846 111.34 195.739 119.482 193.579 127.411C191.417 135.347 188.238 142.932 184.147 149.987L190.005 153.402L189.753 153.834L183.895 150.419C179.78 157.43 174.759 163.911 168.937 169.685C163.157 175.418 156.685 180.354 149.698 184.395L153.093 190.335L152.659 190.583L149.264 184.645C142.133 188.718 134.471 191.863 126.461 193.974C118.58 196.05 110.5 197.09 102.42 197.094L102.39 204.101L101.89 204.099L101.92 197.093C93.7149 197.053 85.5151 195.945 77.5307 193.77C69.6363 191.62 62.0897 188.464 55.0665 184.404L51.7083 190.163L51.2763 189.911L54.6343 184.152C47.5806 180.025 41.0617 174.982 35.2575 169.129C29.5235 163.348 24.5861 156.875 20.5446 149.886L14.6594 153.25L14.4112 152.816L20.2954 149.452C16.2225 142.322 13.0786 134.661 10.9683 126.653C8.88882 118.761 7.84907 110.668 7.84824 102.577L0.893584 102.547L0.895714 102.047L7.84951 102.077C7.89201 93.8836 8.99965 85.6957 11.1716 77.7226C13.3267 69.811 16.4923 62.2486 20.5652 55.2123L14.8303 51.8685L15.0821 51.4366L20.8168 54.7802C24.9394 47.7442 29.9727 41.2411 35.8127 35.4494C41.5948 29.7151 48.0677 24.7774 55.0574 20.7357L51.7411 14.9348L52.1752 14.6867L55.4909 20.4866C62.6206 16.4141 70.2811 13.2704 78.2892 11.1603C86.1978 9.07634 94.3082 8.0366 102.417 8.04021L102.446 1.17103L102.946 1.17316ZM11.654 77.854C13.7976 69.9848 16.9462 62.4628 20.9972 55.4641L40.008 66.5483C36.922 71.8918 34.5222 77.6327 32.8865 83.6375C31.2335 89.7056 30.3896 95.937 30.3555 102.173L8.34951 102.079C8.39182 93.9292 9.4936 85.7848 11.654 77.854ZM33.3689 83.769C34.9931 77.8064 37.3758 72.1061 40.4399 66.8001L59.4516 77.8848C57.3525 81.5354 55.7187 85.4545 54.6023 89.5525C53.4683 93.7156 52.8882 97.9905 52.8624 102.268L30.8555 102.175C30.8894 95.9827 31.7274 89.7947 33.3689 83.769ZM40.6915 66.368L59.703 77.4526C61.8534 73.7987 64.4734 70.4204 67.5096 67.4093C70.4852 64.4583 73.8101 61.9101 77.3978 59.814L66.4755 40.7086C61.2246 43.756 56.3605 47.4726 52.0127 51.7844C47.6058 56.1548 43.8061 61.0607 40.6915 66.368ZM55.0848 89.6839C56.1895 85.6283 57.8063 81.7496 59.8836 78.1366L80.8397 90.355C79.826 92.143 79.0346 94.0579 78.4897 96.0581C77.9899 97.8928 77.7053 99.7711 77.6361 101.655C77.6273 101.895 77.6219 102.134 77.6201 102.374L53.3624 102.271C53.388 98.0361 53.9622 93.8047 55.0848 89.6839ZM60.135 77.7044L81.0907 89.9225C82.1563 88.1284 83.449 86.4685 84.9433 84.9865C86.3752 83.5665 87.9688 82.333 89.6856 81.308L77.6459 60.2481C74.096 62.3226 70.8061 64.8443 67.8617 67.7644C64.8566 70.7446 62.2635 74.0881 60.135 77.7044ZM78.9721 96.1905C79.5055 94.2325 80.2801 92.3577 81.2721 90.6071L100.808 101.997C100.792 102.04 100.779 102.083 100.767 102.127C100.736 102.241 100.717 102.356 100.711 102.472L78.1201 102.376C78.1219 102.142 78.1271 101.908 78.1357 101.674C78.2037 99.8278 78.4825 97.9879 78.9721 96.1905ZM100.758 102.973L78.1213 102.876C78.1249 103.159 78.1335 103.441 78.1469 103.723C78.2277 105.413 78.4854 107.096 78.92 108.746C79.4595 110.793 80.2623 112.752 81.3018 114.576L100.912 103.365C100.848 103.247 100.798 103.122 100.763 102.991C100.761 102.985 100.76 102.979 100.758 102.973ZM101.218 103.766L81.5539 115.008C82.5571 116.687 83.764 118.245 85.1529 119.646C86.6161 121.121 88.2562 122.396 90.0295 123.445L101.41 103.925C101.342 103.877 101.278 103.824 101.218 103.766ZM101.857 104.151L90.4625 123.695C92.2002 124.674 94.0596 125.44 96.0009 125.969C98.0367 126.524 100.127 126.808 102.219 126.821L102.315 104.232C102.188 104.227 102.061 104.208 101.937 104.174C101.91 104.167 101.884 104.159 101.857 104.151ZM102.815 104.174L102.719 126.82C104.682 126.792 106.643 126.526 108.557 126.021C110.605 125.482 112.564 124.679 114.388 123.639L103.177 104.028C103.063 104.09 102.942 104.139 102.815 104.174ZM103.577 103.721L114.82 123.387C116.499 122.384 118.057 121.177 119.457 119.788C120.901 118.356 122.153 116.755 123.189 115.024L103.655 103.635C103.63 103.665 103.604 103.693 103.577 103.721ZM103.914 103.208L123.441 114.593C124.452 112.822 125.24 110.924 125.781 108.94C126.32 106.96 126.604 104.928 126.631 102.893L104.027 102.796C104.017 102.866 104.003 102.935 103.984 103.004C103.965 103.073 103.942 103.142 103.914 103.208ZM104.021 102.296L126.633 102.393C126.626 101.429 126.562 100.465 126.44 99.5064C126.343 98.7442 126.21 97.9854 126.04 97.2326C125.976 96.9492 125.907 96.6667 125.833 96.3852C125.307 94.3902 124.532 92.4793 123.531 90.6955L103.91 101.913C103.941 101.986 103.967 102.063 103.988 102.141C104.001 102.192 104.012 102.244 104.021 102.296ZM103.647 101.487L123.281 90.262C122.262 88.5301 121.027 86.9242 119.6 85.485C118.17 84.0431 116.571 82.7928 114.844 81.7579L103.453 101.294C103.49 101.325 103.525 101.357 103.559 101.392C103.59 101.422 103.619 101.454 103.647 101.487ZM103.028 101.031L114.412 81.5054C112.639 80.4924 110.739 79.7029 108.752 79.1617C106.743 78.6146 104.682 78.3306 102.618 78.3101L102.522 100.905C102.62 100.913 102.718 100.931 102.814 100.957C102.887 100.977 102.958 101.002 103.028 101.031ZM102.021 100.936L102.118 78.3103C100.127 78.3315 98.1375 78.5979 96.1956 79.1096C94.1484 79.649 92.1898 80.4516 90.3661 81.4909L101.577 101.102C101.695 101.038 101.82 100.988 101.951 100.953C101.974 100.947 101.998 100.941 102.021 100.936ZM101.176 101.407L89.9342 81.743C88.255 82.7463 86.6962 83.9533 85.2955 85.3425C83.8324 86.7935 82.5667 88.4184 81.5231 90.1746L101.047 101.558C101.087 101.505 101.13 101.455 101.176 101.407ZM21.2488 55.0321L40.2595 66.1162C43.396 60.7713 47.2226 55.8307 51.6607 51.4294C56.0396 47.0866 60.9386 43.3435 66.2274 40.2745L55.3055 21.1698C48.3537 25.1899 41.9157 30.1011 36.1648 35.8044C30.3559 41.5652 25.3495 48.0336 21.2488 55.0321ZM8.34824 102.579C8.34925 110.627 9.3835 118.676 11.4518 126.525C13.5509 134.492 16.6782 142.112 20.7295 149.204L39.8343 138.282C36.7329 132.852 34.3388 127.017 32.7316 120.918C31.1557 114.937 30.3635 108.805 30.3545 102.673L8.34824 102.579ZM30.8545 102.675C30.8637 108.763 31.6504 114.852 33.2151 120.79C34.8111 126.847 37.1886 132.641 40.2684 138.034L59.3739 127.112C57.2442 123.381 55.6 119.373 54.4959 115.183C53.4235 111.113 52.879 106.941 52.862 102.768L30.8545 102.675ZM53.362 102.771C53.3792 106.9 53.9182 111.028 54.9794 115.055C56.0723 119.203 57.6998 123.17 59.808 126.864L80.8673 114.825C79.8064 112.963 78.9871 110.964 78.4365 108.874C77.9939 107.195 77.7311 105.48 77.6481 103.76C77.6339 103.464 77.6249 103.169 77.6212 102.874L53.362 102.771ZM35.6125 168.777C29.9095 163.027 24.9985 156.589 20.9786 149.638L40.0837 138.716C43.1526 144.004 46.8953 148.902 51.2376 153.281C55.6516 157.732 60.6079 161.567 65.9705 164.709L54.8861 183.72C47.87 179.615 41.3859 174.599 35.6125 168.777ZM51.5926 152.929C47.2813 148.581 43.565 143.718 40.5178 138.468L59.624 127.545C61.7199 131.132 64.268 134.457 67.2188 137.432C70.2422 140.481 73.6358 143.11 77.307 145.265L66.2224 164.277C60.8974 161.157 55.9757 157.348 51.5926 152.929ZM67.5738 137.08C64.6539 134.136 62.1324 130.846 60.0581 127.297L81.1192 115.256C82.1442 116.973 83.3778 118.567 84.7979 119.999C86.2918 121.505 87.9664 122.807 89.7771 123.877L77.5589 144.833C73.9253 142.7 70.5664 140.098 67.5738 137.08ZM55.3183 183.972C62.3039 188.01 69.8101 191.149 77.6621 193.288C85.6042 195.452 93.7605 196.553 101.922 196.593L102.016 174.586C95.7684 174.555 89.5251 173.711 83.4458 172.055C77.4582 170.424 71.7332 168.033 66.4028 164.96L55.3183 183.972ZM66.6547 164.528C71.9475 167.579 77.632 169.953 83.5772 171.573C89.6142 173.217 95.814 174.055 102.018 174.086L102.111 152.079C97.8222 152.057 93.5359 151.476 89.3619 150.339C85.2809 149.228 81.3772 147.603 77.7395 145.516L66.6547 164.528ZM77.9913 145.084C81.5915 147.149 85.4546 148.757 89.4933 149.857C93.6249 150.982 97.8678 151.557 102.114 151.58L102.217 127.323C100.081 127.309 97.9476 127.019 95.8695 126.453C93.8857 125.912 91.9856 125.129 90.2101 124.127L77.9913 145.084ZM126.334 193.49C118.495 195.556 110.458 196.59 102.422 196.594L102.516 174.587C108.636 174.575 114.756 173.783 120.726 172.21C126.826 170.602 132.662 168.208 138.094 165.105L149.016 184.211C141.923 188.263 134.301 191.391 126.334 193.49ZM120.599 171.726C114.672 173.288 108.595 174.075 102.518 174.087L102.611 152.08C106.773 152.06 110.933 151.515 114.992 150.446C119.183 149.342 123.192 147.697 126.924 145.567L137.846 164.671C132.452 167.752 126.657 170.13 120.599 171.726ZM114.865 149.962C110.848 151.021 106.732 151.56 102.614 151.58L102.717 127.321C104.723 127.293 106.728 127.022 108.685 126.506C110.775 125.955 112.775 125.135 114.637 124.074L126.676 145.132C122.982 147.241 119.013 148.869 114.865 149.962ZM149.449 183.961C156.399 179.942 162.836 175.032 168.585 169.33C174.376 163.587 179.37 157.141 183.463 150.167L164.452 139.082C161.322 144.402 157.509 149.32 153.089 153.704C148.711 158.045 143.814 161.787 138.527 164.856L149.449 183.961ZM138.279 164.422C143.528 161.375 148.39 157.659 152.737 153.349C157.126 148.996 160.912 144.113 164.02 138.831L145.009 127.746C142.866 131.375 140.259 134.73 137.242 137.723C134.267 140.673 130.943 143.221 127.357 145.316L138.279 164.422ZM127.108 144.882C130.657 142.808 133.946 140.287 136.889 137.368C139.876 134.406 142.456 131.085 144.577 127.495L123.621 115.277C122.564 117.045 121.285 118.681 119.809 120.144C118.378 121.564 116.785 122.797 115.069 123.822L127.108 144.882ZM193.096 127.28C190.946 135.174 187.784 142.718 183.715 149.735L164.704 138.651C167.808 133.288 170.221 127.525 171.863 121.496C173.504 115.471 174.348 109.286 174.393 103.096L196.4 103.19C196.346 111.294 195.245 119.393 193.096 127.28ZM171.381 121.364C169.75 127.351 167.354 133.074 164.272 138.399L145.261 127.315C147.379 123.645 149.026 119.703 150.149 115.58C151.271 111.461 151.851 107.233 151.888 103L173.893 103.094C173.848 109.241 173.01 115.382 171.381 121.364ZM149.666 115.448C148.555 119.529 146.925 123.431 144.829 127.063L123.874 114.845C124.906 113.037 125.711 111.099 126.263 109.073C126.814 107.05 127.104 104.974 127.131 102.895L151.388 102.998C151.351 107.187 150.777 111.372 149.666 115.448ZM196.402 102.69C196.412 94.5968 195.378 86.5016 193.298 78.6085C191.213 70.6945 188.113 63.1217 184.1 56.0689L164.995 66.9908C168.058 72.3817 170.425 78.1685 172.018 84.2154C173.606 90.2402 174.398 96.4187 174.395 102.596L196.402 102.69ZM173.895 102.594C173.898 96.46 173.111 90.3252 171.535 84.3428C169.952 78.3383 167.602 72.5921 164.561 67.239L145.457 78.1605C147.548 81.8518 149.165 85.8122 150.255 89.9498C151.339 94.0638 151.884 98.282 151.89 102.5L173.895 102.594ZM151.39 102.498C151.384 98.3234 150.845 94.1487 149.772 90.0772C148.693 85.982 147.092 82.0622 145.023 78.4087L123.965 90.4472C124.987 92.2685 125.779 94.2197 126.316 96.2567C126.422 96.6593 126.518 97.0638 126.603 97.47C126.741 98.1242 126.852 98.7825 126.936 99.4434C127.06 100.423 127.126 101.409 127.133 102.395L151.39 102.498ZM169.138 36.3567C174.879 42.1456 179.817 48.6305 183.852 55.635L164.747 66.557C161.663 61.2155 157.892 56.2694 153.512 51.8524C149.132 47.4354 144.217 43.624 138.901 40.4959L149.985 21.485C156.955 25.5774 163.398 30.5688 169.138 36.3567ZM153.157 52.2045C157.507 56.5903 161.25 61.5014 164.313 66.8051L145.208 77.7267C143.097 74.0861 140.521 70.714 137.532 67.7002C134.542 64.685 131.19 62.0804 127.565 59.9385L138.649 40.9279C143.927 44.0341 148.807 47.8186 153.157 52.2045ZM137.177 68.0523C140.135 71.0349 142.685 74.3721 144.774 77.9749L123.716 90.0136C122.675 88.2436 121.413 86.6025 119.955 85.1319C118.494 83.659 116.86 82.382 115.096 81.3252L127.313 60.3704C130.901 62.4905 134.218 65.0683 137.177 68.0523ZM149.554 21.2329C142.533 17.1608 134.986 13.9973 127.088 11.8459C119.174 9.69014 111.047 8.58845 102.915 8.54175L102.821 30.5476C109.039 30.5861 115.253 31.4299 121.304 33.0782C127.337 34.7218 133.104 37.1366 138.469 40.2438L149.554 21.2329ZM138.217 40.6758C132.89 37.5904 127.164 35.1927 121.172 33.5606C115.164 31.9238 108.994 31.0859 102.819 31.0475L102.725 53.0534C106.986 53.0835 111.243 53.6635 115.389 54.7929C119.516 55.917 123.461 57.5659 127.134 59.6863L138.217 40.6758ZM126.882 60.1182C123.247 58.0198 119.342 56.3879 115.258 55.2754C111.154 54.1574 106.94 53.5833 102.723 53.5534L102.62 77.8091C104.727 77.8299 106.832 78.1197 108.883 78.6783C110.912 79.2311 112.854 80.0377 114.664 81.0727L126.882 60.1182ZM78.4166 11.6438C86.2828 9.57102 94.3496 8.53678 102.415 8.54021L102.321 30.5462C96.1716 30.5508 90.0215 31.3429 84.0237 32.9234C77.925 34.5304 72.0909 36.9242 66.6607 40.0251L55.739 20.9207C62.831 16.8698 70.4509 13.7428 78.4166 11.6438ZM84.1511 33.4069C90.1064 31.8376 96.213 31.0509 102.319 31.0462L102.225 53.0524C98.0353 53.0651 93.8458 53.6096 89.7592 54.6865C85.5695 55.7904 81.5616 57.4345 77.8308 59.5639L66.9089 40.4591C72.3013 37.3798 78.0948 35.0027 84.1511 33.4069ZM89.8866 55.17C93.9308 54.1043 98.0767 53.5653 102.223 53.5524L102.12 77.8092C100.085 77.8303 98.0525 78.1022 96.0681 78.6251C93.9784 79.1757 91.979 79.9951 90.1175 81.0561L78.0789 59.998C81.772 57.8901 85.7394 56.2628 89.8866 55.17Z" fill="#0284D2"/>
</g>
<g opacity="0.8">
<circle cx="102.12" cy="102.619" r="24.4209" fill="#4396F7" fill-opacity="0.1"/>
<circle cx="102.12" cy="102.619" r="49.3232" fill="#4396F7" fill-opacity="0.1"/>
<circle cx="102.121" cy="102.619" r="71.9546" fill="#4396F7" fill-opacity="0.1"/>
<circle cx="102.12" cy="102.619" r="94.3093" fill="#4396F7" fill-opacity="0.1"/>
</g>
<path opacity="0.8" fill-rule="evenodd" clip-rule="evenodd" d="M120.922 33.2654C108.711 29.9933 95.855 29.9937 83.6435 33.2657C71.4321 36.5378 60.4685 43.0627 51.5291 52.0021C47.118 56.4132 43.4796 61.0964 40.3687 66.4422C37.1752 71.9302 34.7378 77.8396 33.0804 84.0255C31.4426 90.1377 30.6184 96.1092 30.6201 102.383L53.096 102.656C53.096 102.656 53.3727 110.473 54.6076 115.49C55.8435 120.511 59.8023 127.615 59.8023 127.615L40.2205 138.35C43.3314 143.696 46.9138 148.625 51.3249 153.036C60.7481 161.678 71.3211 168.522 83.5326 171.794C89.6988 173.446 95.9006 174.283 102.23 174.267L102.549 127.177C102.549 127.177 106.5 126.967 108.94 126.252C111.438 125.52 114.868 123.856 114.868 123.856L127.17 145.139C127.17 145.139 133.203 141.215 137.431 137.319L145.271 127.615L164.435 138.696C167.628 133.208 170.051 127.309 171.708 121.123C174.98 108.911 174.98 96.2115 171.708 84.0001C170.051 77.8143 167.881 72.377 164.687 66.8891L145.271 77.9066C145.271 77.9066 140.781 71.3377 137.182 67.7155C133.63 64.1412 127.205 60.0435 127.205 60.0435L138.51 40.5487C133.062 37.3952 127.054 34.9085 120.922 33.2654Z" fill="#4396F7"/>
<g style="mix-blend-mode:screen">
<path fill-rule="evenodd" clip-rule="evenodd" d="M102.946 1.17316L102.917 8.04176C111.093 8.08864 119.263 9.19619 127.219 11.3635C135.159 13.5264 142.748 16.707 149.805 20.801L153.126 15.1057L153.558 15.3576L150.237 21.053C157.244 25.1673 163.722 30.1855 169.493 36.0047C175.265 41.8247 180.229 48.3446 184.286 55.3868L190.176 52.0195L190.424 52.4536L184.534 55.8208C188.568 62.9114 191.685 70.5247 193.782 78.4811C195.873 86.4167 196.913 94.5554 196.902 102.692L203.942 102.722L203.939 103.222L196.9 103.192C196.846 111.34 195.739 119.482 193.579 127.411C191.417 135.347 188.238 142.932 184.147 149.987L190.005 153.402L189.753 153.834L183.895 150.419C179.78 157.43 174.759 163.911 168.937 169.685C163.157 175.418 156.685 180.354 149.698 184.395L153.093 190.335L152.659 190.583L149.264 184.645C142.133 188.718 134.471 191.863 126.461 193.974C118.58 196.05 110.5 197.09 102.42 197.094L102.39 204.101L101.89 204.099L101.92 197.093C93.7149 197.053 85.5151 195.945 77.5307 193.77C69.6363 191.62 62.0897 188.464 55.0665 184.404L51.7083 190.163L51.2763 189.911L54.6343 184.152C47.5806 180.025 41.0617 174.982 35.2575 169.129C29.5235 163.348 24.5861 156.875 20.5446 149.886L14.6594 153.25L14.4112 152.816L20.2954 149.452C16.2225 142.322 13.0786 134.661 10.9683 126.653C8.88882 118.761 7.84907 110.668 7.84824 102.577L0.893584 102.547L0.895714 102.047L7.84951 102.077C7.89201 93.8836 8.99965 85.6957 11.1716 77.7226C13.3267 69.811 16.4923 62.2486 20.5652 55.2123L14.8303 51.8685L15.0821 51.4366L20.8168 54.7802C24.9394 47.7442 29.9727 41.2411 35.8127 35.4494C41.5948 29.7151 48.0677 24.7774 55.0574 20.7357L51.7411 14.9348L52.1752 14.6867L55.4909 20.4866C62.6206 16.4141 70.2811 13.2704 78.2892 11.1603C86.1978 9.07634 94.3082 8.0366 102.417 8.04021L102.446 1.17103L102.946 1.17316ZM11.654 77.854C13.7976 69.9848 16.9462 62.4628 20.9972 55.4641L40.008 66.5483C36.922 71.8918 34.5222 77.6327 32.8865 83.6375C31.2335 89.7056 30.3896 95.937 30.3555 102.173L8.34951 102.079C8.39182 93.9292 9.4936 85.7848 11.654 77.854ZM33.3689 83.769C34.9931 77.8064 37.3758 72.1061 40.4399 66.8001L59.4516 77.8848C57.3525 81.5354 55.7187 85.4545 54.6023 89.5525C53.4683 93.7156 52.8882 97.9905 52.8624 102.268L30.8555 102.175C30.8894 95.9827 31.7274 89.7947 33.3689 83.769ZM40.6915 66.368L59.703 77.4526C61.8534 73.7987 64.4734 70.4204 67.5096 67.4093C70.4852 64.4583 73.8101 61.9101 77.3978 59.814L66.4755 40.7086C61.2246 43.756 56.3605 47.4726 52.0127 51.7844C47.6058 56.1548 43.8061 61.0607 40.6915 66.368ZM55.0848 89.6839C56.1895 85.6283 57.8063 81.7496 59.8836 78.1366L80.8397 90.355C79.826 92.143 79.0346 94.0579 78.4897 96.0581C77.9899 97.8928 77.7053 99.7711 77.6361 101.655C77.6273 101.895 77.6219 102.134 77.6201 102.374L53.3624 102.271C53.388 98.0361 53.9622 93.8047 55.0848 89.6839ZM60.135 77.7044L81.0907 89.9225C82.1563 88.1284 83.449 86.4685 84.9433 84.9865C86.3752 83.5665 87.9688 82.333 89.6856 81.308L77.6459 60.2481C74.096 62.3226 70.8061 64.8443 67.8617 67.7644C64.8566 70.7446 62.2635 74.0881 60.135 77.7044ZM78.9721 96.1905C79.5055 94.2325 80.2801 92.3577 81.2721 90.6071L100.808 101.997C100.792 102.04 100.779 102.083 100.767 102.127C100.736 102.241 100.717 102.356 100.711 102.472L78.1201 102.376C78.1219 102.142 78.1271 101.908 78.1357 101.674C78.2037 99.8278 78.4825 97.9879 78.9721 96.1905ZM100.758 102.973L78.1213 102.876C78.1249 103.159 78.1335 103.441 78.1469 103.723C78.2277 105.413 78.4854 107.096 78.92 108.746C79.4595 110.793 80.2623 112.752 81.3018 114.576L100.912 103.365C100.848 103.247 100.798 103.122 100.763 102.991C100.761 102.985 100.76 102.979 100.758 102.973ZM101.218 103.766L81.5539 115.008C82.5571 116.687 83.764 118.245 85.1529 119.646C86.6161 121.121 88.2562 122.396 90.0295 123.445L101.41 103.925C101.342 103.877 101.278 103.824 101.218 103.766ZM101.857 104.151L90.4625 123.695C92.2002 124.674 94.0596 125.44 96.0009 125.969C98.0367 126.524 100.127 126.808 102.219 126.821L102.315 104.232C102.188 104.227 102.061 104.208 101.937 104.174C101.91 104.167 101.884 104.159 101.857 104.151ZM102.815 104.174L102.719 126.82C104.682 126.792 106.643 126.526 108.557 126.021C110.605 125.482 112.564 124.679 114.388 123.639L103.177 104.028C103.063 104.09 102.942 104.139 102.815 104.174ZM103.577 103.721L114.82 123.387C116.499 122.384 118.057 121.177 119.457 119.788C120.901 118.356 122.153 116.755 123.189 115.024L103.655 103.635C103.63 103.665 103.604 103.693 103.577 103.721ZM103.914 103.208L123.441 114.593C124.452 112.822 125.24 110.924 125.781 108.94C126.32 106.96 126.604 104.928 126.631 102.893L104.027 102.796C104.017 102.866 104.003 102.935 103.984 103.004C103.965 103.073 103.942 103.142 103.914 103.208ZM104.021 102.296L126.633 102.393C126.626 101.429 126.562 100.465 126.44 99.5064C126.343 98.7442 126.21 97.9854 126.04 97.2326C125.976 96.9492 125.907 96.6667 125.833 96.3852C125.307 94.3902 124.532 92.4793 123.531 90.6955L103.91 101.913C103.941 101.986 103.967 102.063 103.988 102.141C104.001 102.192 104.012 102.244 104.021 102.296ZM103.647 101.487L123.281 90.262C122.262 88.5301 121.027 86.9242 119.6 85.485C118.17 84.0431 116.571 82.7928 114.844 81.7579L103.453 101.294C103.49 101.325 103.525 101.357 103.559 101.392C103.59 101.422 103.619 101.454 103.647 101.487ZM103.028 101.031L114.412 81.5054C112.639 80.4924 110.739 79.7029 108.752 79.1617C106.743 78.6146 104.682 78.3306 102.618 78.3101L102.522 100.905C102.62 100.913 102.718 100.931 102.814 100.957C102.887 100.977 102.958 101.002 103.028 101.031ZM102.021 100.936L102.118 78.3103C100.127 78.3315 98.1375 78.5979 96.1956 79.1096C94.1484 79.649 92.1898 80.4516 90.3661 81.4909L101.577 101.102C101.695 101.038 101.82 100.988 101.951 100.953C101.974 100.947 101.998 100.941 102.021 100.936ZM101.176 101.407L89.9342 81.743C88.255 82.7463 86.6962 83.9533 85.2955 85.3425C83.8324 86.7935 82.5667 88.4184 81.5231 90.1746L101.047 101.558C101.087 101.505 101.13 101.455 101.176 101.407ZM21.2488 55.0321L40.2595 66.1162C43.396 60.7713 47.2226 55.8307 51.6607 51.4294C56.0396 47.0866 60.9386 43.3435 66.2274 40.2745L55.3055 21.1698C48.3537 25.1899 41.9157 30.1011 36.1648 35.8044C30.3559 41.5652 25.3495 48.0336 21.2488 55.0321ZM8.34824 102.579C8.34925 110.627 9.3835 118.676 11.4518 126.525C13.5509 134.492 16.6782 142.112 20.7295 149.204L39.8343 138.282C36.7329 132.852 34.3388 127.017 32.7316 120.918C31.1557 114.937 30.3635 108.805 30.3545 102.673L8.34824 102.579ZM30.8545 102.675C30.8637 108.763 31.6504 114.852 33.2151 120.79C34.8111 126.847 37.1886 132.641 40.2684 138.034L59.3739 127.112C57.2442 123.381 55.6 119.373 54.4959 115.183C53.4235 111.113 52.879 106.941 52.862 102.768L30.8545 102.675ZM53.362 102.771C53.3792 106.9 53.9182 111.028 54.9794 115.055C56.0723 119.203 57.6998 123.17 59.808 126.864L80.8673 114.825C79.8064 112.963 78.9871 110.964 78.4365 108.874C77.9939 107.195 77.7311 105.48 77.6481 103.76C77.6339 103.464 77.6249 103.169 77.6212 102.874L53.362 102.771ZM35.6125 168.777C29.9095 163.027 24.9985 156.589 20.9786 149.638L40.0837 138.716C43.1526 144.004 46.8953 148.902 51.2376 153.281C55.6516 157.732 60.6079 161.567 65.9705 164.709L54.8861 183.72C47.87 179.615 41.3859 174.599 35.6125 168.777ZM51.5926 152.929C47.2813 148.581 43.565 143.718 40.5178 138.468L59.624 127.545C61.7199 131.132 64.268 134.457 67.2188 137.432C70.2422 140.481 73.6358 143.11 77.307 145.265L66.2224 164.277C60.8974 161.157 55.9757 157.348 51.5926 152.929ZM67.5738 137.08C64.6539 134.136 62.1324 130.846 60.0581 127.297L81.1192 115.256C82.1442 116.973 83.3778 118.567 84.7979 119.999C86.2918 121.505 87.9664 122.807 89.7771 123.877L77.5589 144.833C73.9253 142.7 70.5664 140.098 67.5738 137.08ZM55.3183 183.972C62.3039 188.01 69.8101 191.149 77.6621 193.288C85.6042 195.452 93.7605 196.553 101.922 196.593L102.016 174.586C95.7684 174.555 89.5251 173.711 83.4458 172.055C77.4582 170.424 71.7332 168.033 66.4028 164.96L55.3183 183.972ZM66.6547 164.528C71.9475 167.579 77.632 169.953 83.5772 171.573C89.6142 173.217 95.814 174.055 102.018 174.086L102.111 152.079C97.8222 152.057 93.5359 151.476 89.3619 150.339C85.2809 149.228 81.3772 147.603 77.7395 145.516L66.6547 164.528ZM77.9913 145.084C81.5915 147.149 85.4546 148.757 89.4933 149.857C93.6249 150.982 97.8678 151.557 102.114 151.58L102.217 127.323C100.081 127.309 97.9476 127.019 95.8695 126.453C93.8857 125.912 91.9856 125.129 90.2101 124.127L77.9913 145.084ZM126.334 193.49C118.495 195.556 110.458 196.59 102.422 196.594L102.516 174.587C108.636 174.575 114.756 173.783 120.726 172.21C126.826 170.602 132.662 168.208 138.094 165.105L149.016 184.211C141.923 188.263 134.301 191.391 126.334 193.49ZM120.599 171.726C114.672 173.288 108.595 174.075 102.518 174.087L102.611 152.08C106.773 152.06 110.933 151.515 114.992 150.446C119.183 149.342 123.192 147.697 126.924 145.567L137.846 164.671C132.452 167.752 126.657 170.13 120.599 171.726ZM114.865 149.962C110.848 151.021 106.732 151.56 102.614 151.58L102.717 127.321C104.723 127.293 106.728 127.022 108.685 126.506C110.775 125.955 112.775 125.135 114.637 124.074L126.676 145.132C122.982 147.241 119.013 148.869 114.865 149.962ZM149.449 183.961C156.399 179.942 162.836 175.032 168.585 169.33C174.376 163.587 179.37 157.141 183.463 150.167L164.452 139.082C161.322 144.402 157.509 149.32 153.089 153.704C148.711 158.045 143.814 161.787 138.527 164.856L149.449 183.961ZM138.279 164.422C143.528 161.375 148.39 157.659 152.737 153.349C157.126 148.996 160.912 144.113 164.02 138.831L145.009 127.746C142.866 131.375 140.259 134.73 137.242 137.723C134.267 140.673 130.943 143.221 127.357 145.316L138.279 164.422ZM127.108 144.882C130.657 142.808 133.946 140.287 136.889 137.368C139.876 134.406 142.456 131.085 144.577 127.495L123.621 115.277C122.564 117.045 121.285 118.681 119.809 120.144C118.378 121.564 116.785 122.797 115.069 123.822L127.108 144.882ZM193.096 127.28C190.946 135.174 187.784 142.718 183.715 149.735L164.704 138.651C167.808 133.288 170.221 127.525 171.863 121.496C173.504 115.471 174.348 109.286 174.393 103.096L196.4 103.19C196.346 111.294 195.245 119.393 193.096 127.28ZM171.381 121.364C169.75 127.351 167.354 133.074 164.272 138.399L145.261 127.315C147.379 123.645 149.026 119.703 150.149 115.58C151.271 111.461 151.851 107.233 151.888 103L173.893 103.094C173.848 109.241 173.01 115.382 171.381 121.364ZM149.666 115.448C148.555 119.529 146.925 123.431 144.829 127.063L123.874 114.845C124.906 113.037 125.711 111.099 126.263 109.073C126.814 107.05 127.104 104.974 127.131 102.895L151.388 102.998C151.351 107.187 150.777 111.372 149.666 115.448ZM196.402 102.69C196.412 94.5968 195.378 86.5016 193.298 78.6085C191.213 70.6945 188.113 63.1217 184.1 56.0689L164.995 66.9908C168.058 72.3817 170.425 78.1685 172.018 84.2154C173.606 90.2402 174.398 96.4187 174.395 102.596L196.402 102.69ZM173.895 102.594C173.898 96.46 173.111 90.3252 171.535 84.3428C169.952 78.3383 167.602 72.5921 164.561 67.239L145.457 78.1605C147.548 81.8518 149.165 85.8122 150.255 89.9498C151.339 94.0638 151.884 98.282 151.89 102.5L173.895 102.594ZM151.39 102.498C151.384 98.3234 150.845 94.1487 149.772 90.0772C148.693 85.982 147.092 82.0622 145.023 78.4087L123.965 90.4472C124.987 92.2685 125.779 94.2197 126.316 96.2567C126.422 96.6593 126.518 97.0638 126.603 97.47C126.741 98.1242 126.852 98.7825 126.936 99.4434C127.06 100.423 127.126 101.409 127.133 102.395L151.39 102.498ZM169.138 36.3567C174.879 42.1456 179.817 48.6305 183.852 55.635L164.747 66.557C161.663 61.2155 157.892 56.2694 153.512 51.8524C149.132 47.4354 144.217 43.624 138.901 40.4959L149.985 21.485C156.955 25.5774 163.398 30.5688 169.138 36.3567ZM153.157 52.2045C157.507 56.5903 161.25 61.5014 164.313 66.8051L145.208 77.7267C143.097 74.0861 140.521 70.714 137.532 67.7002C134.542 64.685 131.19 62.0804 127.565 59.9385L138.649 40.9279C143.927 44.0341 148.807 47.8186 153.157 52.2045ZM137.177 68.0523C140.135 71.0349 142.685 74.3721 144.774 77.9749L123.716 90.0136C122.675 88.2436 121.413 86.6025 119.955 85.1319C118.494 83.659 116.86 82.382 115.096 81.3252L127.313 60.3704C130.901 62.4905 134.218 65.0683 137.177 68.0523ZM149.554 21.2329C142.533 17.1608 134.986 13.9973 127.088 11.8459C119.174 9.69014 111.047 8.58845 102.915 8.54175L102.821 30.5476C109.039 30.5861 115.253 31.4299 121.304 33.0782C127.337 34.7218 133.104 37.1366 138.469 40.2438L149.554 21.2329ZM138.217 40.6758C132.89 37.5904 127.164 35.1927 121.172 33.5606C115.164 31.9238 108.994 31.0859 102.819 31.0475L102.725 53.0534C106.986 53.0835 111.243 53.6635 115.389 54.7929C119.516 55.917 123.461 57.5659 127.134 59.6863L138.217 40.6758ZM126.882 60.1182C123.247 58.0198 119.342 56.3879 115.258 55.2754C111.154 54.1574 106.94 53.5833 102.723 53.5534L102.62 77.8091C104.727 77.8299 106.832 78.1197 108.883 78.6783C110.912 79.2311 112.854 80.0377 114.664 81.0727L126.882 60.1182ZM78.4166 11.6438C86.2828 9.57102 94.3496 8.53678 102.415 8.54021L102.321 30.5462C96.1716 30.5508 90.0215 31.3429 84.0237 32.9234C77.925 34.5304 72.0909 36.9242 66.6607 40.0251L55.739 20.9207C62.831 16.8698 70.4509 13.7428 78.4166 11.6438ZM84.1511 33.4069C90.1064 31.8376 96.213 31.0509 102.319 31.0462L102.225 53.0524C98.0353 53.0651 93.8458 53.6096 89.7592 54.6865C85.5695 55.7904 81.5616 57.4345 77.8308 59.5639L66.9089 40.4591C72.3013 37.3798 78.0948 35.0027 84.1511 33.4069ZM89.8866 55.17C93.9308 54.1043 98.0767 53.5653 102.223 53.5524L102.12 77.8092C100.085 77.8303 98.0525 78.1022 96.0681 78.6251C93.9784 79.1757 91.979 79.9951 90.1175 81.0561L78.0789 59.998C81.772 57.8901 85.7394 56.2628 89.8866 55.17Z" fill="white"/>
</g>
<circle cx="77.1911" cy="13.0814" r="8.23979" transform="rotate(0.237983 77.1911 13.0814)" fill="white" stroke="#4396F7" stroke-width="1.08116"/>
<circle cx="127.002" cy="13.2875" r="8.23979" transform="rotate(0.237983 127.002 13.2875)" fill="white" stroke="#4396F7" stroke-width="1.08116"/>
<circle cx="167.471" cy="34.8607" r="8.23979" transform="rotate(0.237983 167.471 34.8607)" fill="white" stroke="#4396F7" stroke-width="1.08116"/>
<circle cx="193.065" cy="78.9506" r="8.23979" transform="rotate(0.237983 193.065 78.9506)" fill="white" stroke="#4396F7" stroke-width="1.08116"/>
<circle cx="192.863" cy="127.564" r="8.23979" transform="rotate(0.237983 192.863 127.564)" fill="white" stroke="#4396F7" stroke-width="1.08116"/>
<circle cx="168.844" cy="169.759" r="8.23979" transform="rotate(0.237983 168.844 169.759)" fill="white" stroke="#4396F7" stroke-width="1.08116"/>
<circle cx="126.245" cy="195.323" r="8.23979" transform="rotate(0.237983 126.245 195.323)" fill="white" stroke="#4396F7" stroke-width="1.08116"/>
<circle cx="79.2594" cy="195.127" r="8.23979" transform="rotate(0.237983 79.2594 195.127)" fill="white" stroke="#4396F7" stroke-width="1.08116"/>
<circle cx="34.7477" cy="169.202" r="8.23979" transform="rotate(0.237983 34.7477 169.202)" fill="white" stroke="#4396F7" stroke-width="1.08116"/>
<circle cx="10.6657" cy="127.867" r="8.23979" transform="rotate(0.237983 10.6657 127.867)" fill="white" stroke="#4396F7" stroke-width="1.08116"/>
<circle cx="12.0348" cy="78.1986" r="8.23979" transform="rotate(0.237983 12.0348 78.1986)" fill="white" stroke="#4396F7" stroke-width="1.08116"/>
<circle cx="35.0036" cy="38.6918" r="8.23979" transform="rotate(0.237983 35.0036 38.6918)" fill="white" stroke="#4396F7" stroke-width="1.08116"/>
<path d="M103.683 113.406L103.121 113.404C102.953 114.328 102.191 114.55 101.352 114.547L101.349 115.135L102.941 115.141L102.923 119.535L103.658 119.538L103.683 113.406Z" fill="black"/>
<path d="M101.61 139.767C101.587 139.032 101.954 138.246 102.81 138.25C103.459 138.252 103.993 138.696 103.99 139.362C103.987 140.209 103.458 140.588 102.417 141.223C101.55 141.756 100.813 142.272 100.686 143.724L104.69 143.741L104.693 143.092L101.545 143.079C101.695 142.319 102.501 141.933 103.272 141.469C104.036 140.997 104.764 140.455 104.769 139.373C104.774 138.232 103.929 137.606 102.856 137.601C101.559 137.596 100.82 138.518 100.875 139.764L101.61 139.767Z" fill="black"/>
<path d="M102.276 164.742C102.414 164.725 102.57 164.717 102.717 164.718C103.444 164.721 104.021 165.13 104.018 165.899C104.015 166.643 103.399 167.082 102.681 167.079C101.842 167.075 101.404 166.52 101.381 165.724L100.646 165.721C100.615 166.984 101.433 167.722 102.679 167.728C103.829 167.732 104.792 167.096 104.797 165.868C104.8 165.133 104.439 164.543 103.696 164.376L103.696 164.359C104.164 164.144 104.546 163.679 104.549 163.143C104.553 162.009 103.751 161.496 102.687 161.491C101.459 161.486 100.833 162.297 100.785 163.464L101.52 163.467C101.532 162.749 101.88 162.137 102.685 162.14C103.307 162.143 103.773 162.491 103.77 163.131C103.768 163.797 103.221 164.132 102.598 164.129C102.495 164.129 102.391 164.128 102.278 164.119L102.276 164.742Z" fill="black"/>
<path d="M103.934 184.05L103.346 184.047L100.536 188.023L100.533 188.732L103.223 188.743L103.217 190.179L103.909 190.182L103.915 188.746L104.745 188.75L104.748 188.101L103.917 188.098L103.934 184.05ZM101.167 188.086L103.221 185.093L103.238 185.093L103.225 188.095L101.167 188.086Z" fill="black"/>
<path d="M125.902 11.6378C125.879 10.9025 126.245 10.1169 127.101 10.1205C127.75 10.1231 128.285 10.5665 128.282 11.2325C128.278 12.0801 127.749 12.4585 126.709 13.0942C125.841 13.6269 125.104 14.1428 124.977 15.5953L128.981 15.612L128.984 14.9633L125.836 14.9502C125.986 14.1897 126.792 13.8038 127.564 13.3399C128.327 12.8674 129.056 12.3255 129.06 11.2444C129.065 10.1027 128.22 9.47639 127.147 9.47194C125.85 9.46655 125.111 10.389 125.166 11.6347L125.902 11.6378Z" fill="black"/>
<path d="M78.0038 9.26793L77.4416 9.26559C77.2734 10.1904 76.5114 10.4121 75.6724 10.4086L75.6699 10.9968L77.2614 11.0034L77.2431 15.3972L77.9783 15.4002L78.0038 9.26793Z" fill="black"/>
<path d="M166.955 34.5785C167.093 34.5618 167.249 34.5538 167.396 34.5544C168.123 34.5575 168.7 34.9664 168.697 35.7362C168.694 36.48 168.078 36.9185 167.36 36.9156C166.521 36.9121 166.083 36.3567 166.06 35.5609L165.325 35.5578C165.294 36.8205 166.112 37.5591 167.358 37.5643C168.508 37.569 169.471 36.933 169.476 35.7048C169.479 34.9696 169.118 34.3799 168.375 34.2125L168.375 34.1952C168.843 33.9809 169.225 33.5155 169.228 32.9792C169.232 31.8462 168.43 31.3325 167.366 31.3281C166.138 31.323 165.512 32.1334 165.464 33.3009L166.199 33.304C166.211 32.5861 166.559 31.9734 167.364 31.9768C167.986 31.9794 168.452 32.3273 168.449 32.9673C168.447 33.6333 167.9 33.9684 167.277 33.9658C167.174 33.9654 167.07 33.9649 166.957 33.9558L166.955 34.5785Z" fill="black"/>
<path d="M34.8172 38.1941C35.6562 38.1976 36.0515 38.8307 36.0483 39.5918C36.0453 40.3183 35.6015 40.9479 34.8058 40.9446C34.0014 40.9413 33.5369 40.3339 33.5401 39.5727C33.5433 38.803 33.9956 38.1907 34.8172 38.1941ZM36.6648 36.9304C36.5824 35.9353 35.9534 35.3619 34.9415 35.3577C33.1943 35.3504 32.6774 36.9484 32.6704 38.635C32.665 39.9237 32.9522 41.5856 34.7685 41.5931C36.3167 41.5996 36.8232 40.434 36.8269 39.5431C36.8316 38.4101 36.1346 37.5509 34.9583 37.546C34.2923 37.5433 33.7724 37.7833 33.4241 38.3441L33.4068 38.3267C33.4454 37.3841 33.65 36.001 34.9042 36.0062C35.4837 36.0086 35.8627 36.3735 35.9296 36.9273L36.6648 36.9304Z" fill="black"/>
<path d="M194.303 75.0905L193.714 75.0881L190.904 79.0637L190.901 79.773L193.591 79.7841L193.585 81.2199L194.277 81.2228L194.283 79.787L195.113 79.7905L195.116 79.1418L194.286 79.1383L194.303 75.0905ZM191.535 79.1269L193.589 76.1341L193.606 76.1342L193.594 79.1355L191.535 79.1269Z" fill="black"/>
<path d="M194.543 124.46L191.516 124.447L190.932 127.628L191.563 127.665C191.85 127.32 192.24 127.088 192.707 127.09C193.529 127.094 194.089 127.675 194.085 128.488C194.081 129.466 193.482 129.939 192.782 129.936C192.047 129.933 191.538 129.455 191.498 128.824L190.763 128.821C190.784 129.928 191.646 130.58 192.71 130.585C194.137 130.591 194.859 129.59 194.863 128.552C194.869 127.151 193.981 126.447 192.891 126.442C192.476 126.441 192.017 126.577 191.748 126.879L191.731 126.861L192.067 125.098L194.54 125.108L194.543 124.46Z" fill="black"/>
<path d="M9.38259 128.799C9.38554 128.09 9.95832 127.625 10.6849 127.628C11.3768 127.631 11.9456 128.135 11.9428 128.801C11.94 129.484 11.4189 129.992 10.6837 129.989C9.92257 129.986 9.37954 129.534 9.38259 128.799ZM8.83217 125.96C8.82987 126.513 9.17372 127.025 9.68317 127.235C8.99887 127.474 8.60732 128.035 8.6043 128.761C8.59909 130.015 9.50471 130.633 10.681 130.638C11.8141 130.643 12.7164 129.963 12.7213 128.778C12.7245 128.017 12.3721 127.479 11.6379 127.243C12.1405 127.02 12.4885 126.52 12.4908 125.975C12.494 125.196 11.9783 124.407 10.6377 124.402C9.69495 124.398 8.83638 124.948 8.83217 125.96ZM9.6105 125.989C9.61305 125.375 10.0988 125.048 10.6869 125.051C11.2837 125.053 11.7148 125.383 11.7123 125.998C11.7097 126.62 11.2757 126.982 10.6962 126.979C10.0908 126.977 9.60769 126.663 9.6105 125.989Z" fill="black"/>
<path d="M13.9849 75.096L10.0149 75.0795L10.012 75.7714L13.2295 75.7848C11.9351 77.146 10.9326 79.036 10.7856 81.1113L11.6073 81.1147C11.7277 79.195 12.7403 76.9504 13.9823 75.7274L13.9849 75.096Z" fill="black"/>
<path d="M167.135 166.532L166.573 166.53C166.405 167.455 165.643 167.677 164.804 167.673L164.801 168.261L166.393 168.268L166.374 172.662L167.109 172.665L167.135 166.532ZM169.969 168.715C169.946 167.98 170.312 167.194 171.169 167.198C171.817 167.201 172.352 167.644 172.349 168.31C172.345 169.157 171.816 169.536 170.776 170.172C169.908 170.704 169.171 171.22 169.044 172.673L173.049 172.689L173.051 172.041L169.903 172.028C170.053 171.267 170.859 170.881 171.631 170.417C172.394 169.945 173.123 169.403 173.127 168.322C173.132 167.18 172.287 166.554 171.214 166.549C169.917 166.544 169.178 167.466 169.233 168.712L169.969 168.715Z" fill="black"/>
<path d="M35.8897 167.604C35.8867 168.33 35.3998 168.951 34.63 168.948C33.9207 168.945 33.4217 168.32 33.4245 167.646C33.4276 166.893 33.7592 166.194 34.6328 166.197C35.4544 166.201 35.8928 166.851 35.8897 167.604ZM32.7652 170.194C32.856 171.25 33.5889 171.781 34.6182 171.785C36.1059 171.791 36.7508 170.609 36.7596 168.49C36.7693 166.172 35.8117 165.554 34.67 165.549C33.4851 165.544 32.6514 166.354 32.6465 167.538C32.6415 168.749 33.3299 169.591 34.5754 169.596C35.1722 169.599 35.7185 169.272 35.9974 168.755L36.0146 168.772C35.9648 170.355 35.5204 171.14 34.6209 171.136C34.0327 171.134 33.5498 170.794 33.5004 170.197L32.7652 170.194Z" fill="black"/>
<path d="M124.715 192.209L124.153 192.207C123.985 193.132 123.223 193.353 122.384 193.35L122.381 193.938L123.973 193.945L123.954 198.338L124.69 198.341L124.715 192.209ZM129.521 192.229L128.959 192.227C128.791 193.152 128.029 193.373 127.19 193.37L127.187 193.958L128.779 193.965L128.76 198.358L129.496 198.361L129.521 192.229Z" fill="black"/>
<path d="M77.5197 192.014L76.9575 192.011C76.7893 192.936 76.0273 193.158 75.1883 193.154L75.1859 193.743L76.7773 193.749L76.7591 198.143L77.4942 198.146L77.5197 192.014ZM79.597 195.145C79.5913 196.494 79.7051 198.259 81.6252 198.267C83.5454 198.275 83.6738 196.511 83.6794 195.162C83.685 193.804 83.5713 192.039 81.6511 192.031C79.731 192.023 79.6026 193.787 79.597 195.145ZM80.3754 195.139C80.3792 194.231 80.3943 192.674 81.6484 192.68C82.9026 192.685 82.9048 194.242 82.901 195.15C82.8972 196.067 82.8821 197.624 81.6279 197.618C80.3738 197.613 80.3716 196.056 80.3754 195.139Z" fill="black"/>
</svg>
