<svg width="205" height="205" viewBox="0 0 205 205" fill="none" xmlns="http://www.w3.org/2000/svg">
<g style="mix-blend-mode:darken" opacity="0.3">
<path fill-rule="evenodd" clip-rule="evenodd" d="M103.217 0.887029L103.188 7.75562C111.363 7.80251 119.534 8.91006 127.49 11.0774C135.43 13.2403 143.018 16.4208 150.076 20.5149L153.396 14.8196L153.828 15.0715L150.508 20.7669C157.515 24.8812 163.992 29.8994 169.763 35.7185C175.535 41.5385 180.5 48.0584 184.556 55.1007L190.446 51.7334L190.695 52.1675L184.805 55.5346C188.839 62.6252 191.956 70.2385 194.052 78.195C196.143 86.1306 197.183 94.2692 197.172 102.406L204.212 102.436L204.21 102.936L197.17 102.906C197.116 111.054 196.009 119.196 193.849 127.125C191.687 135.061 188.509 142.646 184.418 149.701L190.275 153.116L190.024 153.548L184.166 150.133C180.05 157.144 175.03 163.625 169.208 169.398C163.427 175.131 156.956 180.068 149.968 184.109L153.364 190.049L152.93 190.297L149.535 184.358C142.403 188.432 134.741 191.577 126.731 193.688C118.851 195.764 110.77 196.804 102.69 196.808L102.66 203.815L102.16 203.813L102.19 196.807C93.9854 196.767 85.7856 195.659 77.8012 193.484C69.9068 191.334 62.3602 188.177 55.337 184.117L51.9788 189.877L51.5468 189.625L54.9048 183.866C47.8511 179.738 41.3323 174.696 35.528 168.843C29.794 163.061 24.8566 156.589 20.8151 149.6L14.9299 152.964L14.6817 152.53L20.5659 149.166C16.493 142.036 13.3491 134.375 11.2388 126.367C9.15933 118.475 8.11958 110.382 8.11875 102.291L1.16409 102.261L1.16622 101.761L8.12002 101.791C8.16252 93.5975 9.27016 85.4096 11.4421 77.4365C13.5973 69.5249 16.7628 61.9625 20.8357 54.9261L15.1008 51.5824L15.3526 51.1505L21.0874 54.4941C25.2099 47.458 30.2432 40.9549 36.0832 35.1633C41.8653 29.429 48.3382 24.4913 55.3279 20.4496L52.0116 14.6487L52.4457 14.4006L55.7614 20.2005C62.8911 16.128 70.5516 12.9843 78.5597 10.8742C86.4683 8.79021 94.5787 7.75046 102.688 7.75408L102.717 0.884899L103.217 0.887029ZM11.9245 77.5679C14.0681 69.6986 17.2167 62.1767 21.2677 55.178L40.2785 66.2621C37.1925 71.6057 34.7927 77.3465 33.157 83.3514C31.504 89.4195 30.6601 95.6509 30.626 101.886L8.62002 101.793C8.66233 93.6431 9.76411 85.4987 11.9245 77.5679ZM33.6394 83.4828C35.2636 77.5203 37.6463 71.8199 40.7104 66.514L59.7221 77.5986C57.623 81.2493 55.9892 85.1684 54.8729 89.2663C53.7388 93.4294 53.1587 97.7044 53.133 101.982L31.126 101.889C31.1599 95.6965 31.9979 89.5086 33.6394 83.4828ZM40.962 66.0819L59.9735 77.1664C62.1239 73.5125 64.7439 70.1343 67.7801 67.1232C70.7557 64.1722 74.0806 61.6239 77.6683 59.5279L66.746 40.4225C61.4951 43.4699 56.631 47.1864 52.2833 51.4983C47.8764 55.8687 44.0766 60.7746 40.962 66.0819ZM55.3553 89.3977C56.46 85.3421 58.0769 81.4635 60.1541 77.8505L81.1102 90.0688C80.0965 91.8569 79.3051 93.7718 78.7602 95.7719C78.2604 97.6067 77.9758 99.4849 77.9066 101.369C77.8978 101.609 77.8924 101.848 77.8906 102.088L53.633 101.984C53.6585 97.75 54.2327 93.5185 55.3553 89.3977ZM60.4055 77.4183L81.3612 89.6364C82.4268 87.8423 83.7195 86.1824 85.2139 84.7004C86.6457 83.2804 88.2393 82.0469 89.9561 81.0219L77.9165 59.9619C74.3665 62.0364 71.0766 64.5581 68.1322 67.4782C65.1271 70.4584 62.534 73.802 60.4055 77.4183ZM79.2426 95.9044C79.776 93.9463 80.5506 92.0716 81.5426 90.321L101.078 101.711C101.063 101.754 101.049 101.797 101.037 101.841C101.006 101.954 100.988 102.07 100.981 102.186L78.3906 102.09C78.3924 101.856 78.3976 101.622 78.4062 101.388C78.4742 99.5417 78.753 97.7018 79.2426 95.9044ZM101.029 102.686L78.3918 102.59C78.3954 102.872 78.404 103.155 78.4174 103.437C78.4982 105.127 78.7559 106.81 79.1905 108.46C79.73 110.507 80.5328 112.466 81.5723 114.29L101.183 103.079C101.118 102.961 101.068 102.835 101.034 102.704C101.032 102.698 101.03 102.692 101.029 102.686ZM101.489 103.48L81.8244 114.722C82.8276 116.401 84.0345 117.959 85.4234 119.36C86.8866 120.835 88.5267 122.11 90.3 123.158L101.681 103.639C101.613 103.591 101.549 103.538 101.489 103.48ZM102.128 103.864L90.733 123.408C92.4707 124.388 94.3301 125.154 96.2714 125.683C98.3072 126.238 100.398 126.522 102.489 126.535L102.586 103.946C102.458 103.941 102.332 103.922 102.208 103.888C102.181 103.881 102.154 103.873 102.128 103.864ZM103.086 103.888L102.989 126.533C104.952 126.506 106.913 126.24 108.828 125.735C110.875 125.196 112.835 124.393 114.659 123.353L103.447 103.742C103.333 103.804 103.212 103.853 103.086 103.888ZM103.848 103.435L115.09 123.101C116.769 122.098 118.327 120.891 119.728 119.502C121.172 118.07 122.424 116.468 123.459 114.738L103.925 103.349C103.9 103.379 103.875 103.407 103.848 103.435ZM104.185 102.922L123.712 114.307C124.723 112.536 125.511 110.638 126.051 108.654C126.591 106.674 126.874 104.641 126.902 102.606L104.297 102.51C104.288 102.58 104.273 102.649 104.255 102.718C104.236 102.787 104.212 102.855 104.185 102.922ZM104.291 102.01L126.903 102.106C126.896 101.142 126.832 100.179 126.71 99.2203C126.613 98.458 126.48 97.6992 126.31 96.9465C126.247 96.6631 126.178 96.3806 126.103 96.099C125.578 94.1041 124.802 92.1932 123.801 90.4094L104.18 101.626C104.212 101.7 104.238 101.776 104.258 101.855C104.272 101.906 104.283 101.958 104.291 102.01ZM103.917 101.201L123.552 89.9759C122.533 88.244 121.298 86.638 119.87 85.1989C118.44 83.7569 116.841 82.5066 115.114 81.4718L103.724 101.007C103.761 101.038 103.796 101.071 103.83 101.105C103.86 101.136 103.889 101.168 103.917 101.201ZM103.298 100.745L114.683 81.2192C112.91 80.2062 111.009 79.4168 109.022 78.8756C107.014 78.3284 104.952 78.0445 102.888 78.024L102.792 100.619C102.89 100.627 102.988 100.645 103.084 100.671C103.157 100.691 103.229 100.715 103.298 100.745ZM102.292 100.65L102.388 78.0241C100.397 78.0454 98.408 78.3117 96.4661 78.8234C94.4189 79.3629 92.4603 80.1655 90.6366 81.2048L101.848 100.816C101.965 100.751 102.091 100.702 102.221 100.667C102.245 100.661 102.268 100.655 102.292 100.65ZM101.447 101.121L90.2047 81.4568C88.5255 82.4602 86.9668 83.6672 85.566 85.0564C84.1029 86.5073 82.8372 88.1322 81.7936 89.8885L101.317 101.272C101.357 101.219 101.4 101.169 101.447 101.121ZM21.5193 54.7459L40.5301 65.83C43.6665 60.4851 47.4931 55.5446 51.9312 51.1432C56.3101 46.8005 61.2091 43.0574 66.4979 39.9884L55.576 20.8837C48.6242 24.9037 42.1862 29.8149 36.4353 35.5183C30.6265 41.2791 25.62 47.7475 21.5193 54.7459ZM8.61875 102.293C8.61976 110.341 9.65401 118.39 11.7223 126.239C13.8214 134.206 16.9487 141.826 21 148.918L40.1048 137.996C37.0034 132.566 34.6093 126.731 33.0021 120.632C31.4262 114.651 30.634 108.519 30.625 102.386L8.61875 102.293ZM31.125 102.389C31.1342 108.477 31.9209 114.566 33.4856 120.504C35.0816 126.561 37.4591 132.355 40.5389 137.748L59.6444 126.826C57.5147 123.095 55.8705 119.086 54.7664 114.896C53.694 110.827 53.1495 106.655 53.1325 102.482L31.125 102.389ZM53.6325 102.484C53.6497 106.614 54.1887 110.742 55.2499 114.769C56.3428 118.917 57.9703 122.884 60.0785 126.578L81.1378 114.538C80.0769 112.677 79.2576 110.678 78.707 108.588C78.2644 106.908 78.0017 105.194 77.9186 103.473C77.9044 103.178 77.8954 102.883 77.8917 102.588L53.6325 102.484ZM35.883 168.491C30.18 162.741 25.269 156.303 21.2491 149.352L40.3543 138.43C43.4231 143.718 47.1659 148.616 51.5081 152.995C55.9221 157.445 60.8784 161.281 66.241 164.423L55.1566 183.434C48.1405 179.328 41.6564 174.313 35.883 168.491ZM51.8631 152.643C47.5518 148.295 43.8356 143.432 40.7883 138.181L59.8945 127.259C61.9904 130.846 64.5385 134.171 67.4893 137.146C70.5127 140.195 73.9063 142.824 77.5775 144.979L66.4929 163.991C61.1679 160.871 56.2462 157.062 51.8631 152.643ZM67.8443 136.794C64.9245 133.85 62.4029 130.56 60.3286 127.011L81.3897 114.97C82.4148 116.687 83.6483 118.281 85.0685 119.713C86.5623 121.219 88.237 122.521 90.0476 123.591L77.8294 144.547C74.1958 142.414 70.8369 139.811 67.8443 136.794ZM55.5888 183.685C62.5744 187.724 70.0806 190.863 77.9326 193.002C85.8747 195.165 94.031 196.267 102.192 196.307L102.286 174.3C96.0389 174.269 89.7956 173.425 83.7163 171.769C77.7287 170.138 72.0037 167.747 66.6733 164.674L55.5888 183.685ZM66.9252 164.242C72.218 167.293 77.9025 169.667 83.8477 171.286C89.8847 172.931 96.0845 173.769 102.288 173.8L102.382 151.793C98.0927 151.77 93.8064 151.19 89.6324 150.053C85.5514 148.942 81.6478 147.317 78.01 145.23L66.9252 164.242ZM78.2619 144.798C81.862 146.863 85.7251 148.471 89.7638 149.571C93.8955 150.696 98.1383 151.271 102.384 151.293L102.487 127.036C100.352 127.023 98.2181 126.733 96.14 126.167C94.1562 125.626 92.2561 124.843 90.4806 123.841L78.2619 144.798ZM126.604 193.204C118.766 195.269 110.729 196.304 102.692 196.308L102.786 174.301C108.907 174.289 115.027 173.497 120.996 171.924C127.097 170.316 132.933 167.921 138.364 164.819L149.286 183.924C142.193 187.977 134.571 191.105 126.604 193.204ZM120.869 171.44C114.942 173.002 108.865 173.789 102.788 173.801L102.882 151.794C107.043 151.774 111.204 151.229 115.263 150.16C119.453 149.055 123.462 147.411 127.194 145.28L138.116 164.385C132.722 167.466 126.927 169.844 120.869 171.44ZM115.135 149.676C111.119 150.735 107.002 151.274 102.884 151.294L102.987 127.035C104.994 127.007 106.998 126.736 108.955 126.22C111.045 125.669 113.045 124.849 114.907 123.788L126.946 144.846C123.252 146.955 119.284 148.583 115.135 149.676ZM149.72 183.675C156.67 179.656 163.106 174.745 168.856 169.043C174.647 163.301 179.64 156.854 183.734 149.881L164.722 138.796C161.593 144.116 157.779 149.034 153.359 153.418C148.982 157.759 144.084 161.501 138.798 164.57L149.72 183.675ZM138.549 164.136C143.799 161.089 148.661 157.373 153.007 153.063C157.396 148.71 161.183 143.827 164.29 138.544L145.279 127.46C143.136 131.089 140.53 134.444 137.512 137.437C134.537 140.387 131.214 142.935 127.627 145.03L138.549 164.136ZM127.379 144.596C130.928 142.522 134.216 140.001 137.16 137.082C140.147 134.12 142.726 130.799 144.847 127.208L123.892 114.991C122.834 116.759 121.555 118.395 120.08 119.858C118.649 121.278 117.055 122.511 115.339 123.536L127.379 144.596ZM193.367 126.994C191.216 134.888 188.055 142.432 183.986 149.449L164.974 138.364C168.078 133.002 170.491 127.239 172.134 121.21C173.775 115.185 174.618 109 174.664 102.81L196.67 102.904C196.617 111.008 195.515 119.107 193.367 126.994ZM171.651 121.078C170.02 127.065 167.625 132.788 164.542 138.113L145.531 127.029C147.649 123.359 149.296 119.417 150.419 115.294C151.541 111.175 152.121 106.947 152.158 102.714L174.164 102.808C174.118 108.955 173.281 115.096 171.651 121.078ZM149.937 115.162C148.825 119.243 147.195 123.145 145.099 126.777L124.144 114.559C125.177 112.751 125.982 110.813 126.534 108.787C127.085 106.764 127.374 104.687 127.402 102.609L151.658 102.712C151.621 106.901 151.047 111.086 149.937 115.162ZM196.672 102.404C196.683 94.3106 195.649 86.2155 193.569 78.3224C191.483 70.4083 188.383 62.8356 184.37 55.7828L165.266 66.7047C168.328 72.0956 170.695 77.8824 172.289 83.9293C173.876 89.9541 174.668 96.1325 174.666 102.31L196.672 102.404ZM174.166 102.308C174.168 96.1739 173.381 90.039 171.805 84.0567C170.223 78.0522 167.873 72.306 164.832 66.9529L145.727 77.8744C147.819 81.5656 149.436 85.5261 150.526 89.6636C151.61 93.7776 152.154 97.9958 152.16 102.214L174.166 102.308ZM151.66 102.212C151.654 98.0372 151.115 93.8626 150.042 89.791C148.963 85.6959 147.363 81.776 145.293 78.1226L124.235 90.161C125.258 91.9824 126.05 93.9335 126.587 95.9706C126.693 96.3731 126.788 96.7777 126.874 97.1839C127.011 97.838 127.122 98.4964 127.206 99.1572C127.331 100.137 127.397 101.123 127.403 102.109L151.66 102.212ZM169.408 36.0706C175.149 41.8595 180.087 48.3444 184.122 55.3489L165.017 66.2708C161.933 60.9293 158.163 55.9833 153.783 51.5663C149.402 47.1493 144.487 43.3379 139.172 40.2098L150.256 21.1988C157.225 25.2912 163.668 30.2826 169.408 36.0706ZM153.428 51.9184C157.777 56.3042 161.521 61.2153 164.583 66.519L145.479 77.4406C143.368 73.8 140.792 70.4279 137.803 67.414C134.813 64.3989 131.461 61.7943 127.836 59.6523L138.92 40.6417C144.198 43.7479 149.078 47.5325 153.428 51.9184ZM137.448 67.7661C140.406 70.7488 142.955 74.086 145.045 77.6888L123.986 89.7275C122.945 87.9575 121.684 86.3164 120.225 84.8458C118.765 83.3729 117.131 82.0959 115.366 81.0391L127.584 60.0843C131.171 62.2043 134.489 64.7821 137.448 67.7661ZM149.824 20.9468C142.804 16.8747 135.256 13.7112 127.359 11.5598C119.445 9.40401 111.318 8.30232 103.186 8.25562L103.092 30.2614C109.31 30.3 115.523 31.1437 121.574 32.7921C127.608 34.4356 133.375 36.8504 138.74 39.9577L149.824 20.9468ZM138.488 40.3896C133.16 37.3043 127.434 34.9065 121.443 33.2745C115.434 31.6377 109.264 30.7998 103.09 30.7614L102.996 52.7672C107.257 52.7973 111.514 53.3773 115.66 54.5068C119.786 55.6309 123.732 57.2798 127.404 59.4002L138.488 40.3896ZM127.152 59.8321C123.517 57.7337 119.613 56.1018 115.528 54.9892C111.425 53.8713 107.211 53.2972 102.994 53.2672L102.89 77.523C104.998 77.5437 107.103 77.8335 109.154 78.3922C111.183 78.945 113.124 79.7515 114.935 80.7866L127.152 59.8321ZM78.6871 11.3577C86.5533 9.28489 94.6201 8.25065 102.686 8.25408L102.592 30.2601C96.4421 30.2646 90.292 31.0568 84.2942 32.6372C78.1955 34.2443 72.3614 36.638 66.9312 39.7389L56.0095 20.6345C63.1015 16.5836 70.7214 13.4566 78.6871 11.3577ZM84.4216 33.1207C90.3769 31.5515 96.4835 30.7648 102.59 30.7601L102.496 52.7662C98.3058 52.7789 94.1163 53.3235 90.0297 54.4003C85.84 55.5043 81.8321 57.1483 78.1013 59.2778L67.1794 40.173C72.5718 37.0937 78.3653 34.7166 84.4216 33.1207ZM90.1571 54.8838C94.2013 53.8182 98.3472 53.2791 102.494 53.2662L102.39 77.5231C100.356 77.5442 98.323 77.8161 96.3386 78.339C94.2489 78.8896 92.2495 79.709 90.388 80.7699L78.3494 59.7119C82.0425 57.604 86.0099 55.9766 90.1571 54.8838Z" fill="#0284D2"/>
</g>
<g opacity="0.8">
<circle cx="102.391" cy="102.333" r="24.4209" fill="#4396F7" fill-opacity="0.1"/>
<circle cx="102.391" cy="102.333" r="49.3232" fill="#4396F7" fill-opacity="0.1"/>
<circle cx="102.391" cy="102.332" r="71.9546" fill="#4396F7" fill-opacity="0.1"/>
<circle cx="102.39" cy="102.333" r="94.3093" fill="#4396F7" fill-opacity="0.1"/>
</g>
<path d="M127.057 102.323C127.057 98.0401 125.934 93.8317 123.8 90.1178L102.557 102.323H127.057Z" fill="#4396F7"/>
<path d="M123.814 90.1423C121.685 86.4259 118.618 83.3328 114.92 81.1713L102.557 102.323L123.814 90.1423Z" fill="#4396F7"/>
<path d="M102.526 77.8233C98.2428 77.8283 94.0357 78.9563 90.3243 81.0945L102.555 102.323L102.526 77.8233Z" fill="#4396F7"/>
<path d="M90.1886 81.1705C86.4906 83.3318 83.4238 86.4248 81.294 90.141L102.551 102.323L90.1886 81.1705Z" fill="#4396F7"/>
<path d="M81.2662 90.1983C79.1464 93.9203 78.0395 98.1329 78.0558 102.416L102.556 102.323L81.2662 90.1983Z" fill="#4396F7"/>
<path d="M78.0572 102.48C78.0847 106.763 79.2347 110.965 81.3923 114.665L102.557 102.323L78.0572 102.48Z" fill="#4396F7"/>
<path d="M90.4439 123.619C94.167 125.737 98.3803 126.842 102.664 126.823L102.557 102.323L90.4439 123.619Z" fill="#4396F7"/>
<path d="M102.723 126.823C107.006 126.794 111.206 125.642 114.906 123.484L102.557 102.323L102.723 126.823Z" fill="#F74343"/>
<path d="M114.941 123.458C118.637 121.293 121.7 118.196 123.826 114.478L102.557 102.318L114.941 123.458Z" fill="#4396F7"/>
<path d="M123.847 114.448C125.967 110.726 127.074 106.514 127.057 102.23L102.557 102.324L123.847 114.448Z" fill="#4396F7"/>
<path d="M114.903 81.1616C111.203 79.0029 107.003 77.8519 102.719 77.8233L102.556 102.323L114.903 81.1616Z" fill="#4396F7"/>
<mask id="mask0" mask-type="alpha" maskUnits="userSpaceOnUse" x="60" y="102" width="43" height="43">
<path d="M79.2766 144.591L102.514 102.809L60.626 127.218C60.626 127.218 62.7642 131.14 68.8015 137.692C74.2688 143.626 79.2766 144.591 79.2766 144.591Z" fill="#F74343"/>
</mask>
<g mask="url(#mask0)">
<path fill-rule="evenodd" clip-rule="evenodd" d="M51.3861 143.64L43.3911 177.152L44.9537 177.525L52.9488 144.013L51.3861 143.64ZM85.6756 122.561L77.6805 156.072L79.2432 156.445L87.2383 122.933L85.6756 122.561ZM111.97 134.992L119.965 101.481L121.528 101.854L113.533 135.365L111.97 134.992ZM68.5309 133.1L60.5358 166.612L62.0985 166.985L70.0935 133.473L68.5309 133.1ZM94.8253 145.532L102.82 112.021L104.383 112.393L96.3879 145.905L94.8253 145.532ZM137.11 90.941L129.115 124.453L130.677 124.825L138.672 91.3138L137.11 90.941ZM49.106 173.638L57.101 140.127L58.6637 140.5L50.6686 174.011L49.106 173.638ZM91.3905 119.047L83.3954 152.559L84.9581 152.932L92.9532 119.42L91.3905 119.047ZM117.685 131.479L125.68 97.9675L127.243 98.3403L119.248 131.852L117.685 131.479ZM74.2458 129.587L66.2507 163.099L67.8134 163.471L75.8084 129.96L74.2458 129.587ZM100.54 142.019L108.535 108.507L110.098 108.88L102.103 142.392L100.54 142.019ZM142.825 87.4277L134.83 120.939L136.392 121.312L144.387 87.8005L142.825 87.4277ZM54.8209 170.125L62.8159 136.614L64.3786 136.986L56.3835 170.498L54.8209 170.125ZM97.1054 115.534L89.1104 149.045L90.673 149.418L98.6681 115.907L97.1054 115.534ZM123.4 127.966L131.395 94.4542L132.958 94.8271L124.962 128.339L123.4 127.966ZM79.9607 126.074L71.9656 159.585L73.5283 159.958L81.5233 126.447L79.9607 126.074ZM106.255 138.506L114.25 104.994L115.813 105.367L107.818 138.878L106.255 138.506ZM148.54 83.9144L140.545 117.426L142.107 117.799L150.102 84.2872L148.54 83.9144Z" fill="#4396F7"/>
<path fill-rule="evenodd" clip-rule="evenodd" d="M46.4857 123.015L38.4907 156.527L40.0533 156.9L48.0484 123.388L46.4857 123.015ZM80.7752 101.936L72.7801 135.447L74.3428 135.82L82.3379 102.308L80.7752 101.936ZM107.07 114.367L115.065 80.8558L116.627 81.2286L108.632 114.74L107.07 114.367ZM63.6305 112.475L55.6354 145.987L57.1981 146.36L65.1931 112.848L63.6305 112.475ZM89.9249 124.907L97.9199 91.3956L99.4826 91.7685L91.4875 125.28L89.9249 124.907ZM132.209 70.316L124.214 103.828L125.777 104.2L133.772 70.6888L132.209 70.316ZM44.2056 153.013L52.2006 119.502L53.7633 119.875L45.7682 153.386L44.2056 153.013ZM86.4901 98.4222L78.495 131.934L80.0577 132.307L88.0528 98.795L86.4901 98.4222ZM112.785 110.854L120.78 77.3425L122.342 77.7153L114.347 111.227L112.785 110.854ZM69.3454 108.962L61.3503 142.474L62.913 142.846L70.908 109.335L69.3454 108.962ZM95.6398 121.394L103.635 87.8824L105.198 88.2552L97.2024 121.767L95.6398 121.394ZM137.924 66.8027L129.929 100.314L131.492 100.687L139.487 67.1755L137.924 66.8027ZM49.9205 149.5L57.9156 115.989L59.4782 116.361L51.4832 149.873L49.9205 149.5ZM92.205 94.9089L84.21 128.42L85.7726 128.793L93.7677 95.2818L92.205 94.9089ZM118.499 107.341L126.494 73.8292L128.057 74.2021L120.062 107.714L118.499 107.341ZM75.0603 105.449L67.0652 138.96L68.6279 139.333L76.6229 105.822L75.0603 105.449ZM101.355 117.881L109.35 84.3691L110.912 84.7419L102.917 118.253L101.355 117.881ZM143.639 63.2894L135.644 96.8009L137.207 97.1738L145.202 63.6622L143.639 63.2894Z" fill="#4396F7"/>
</g>
<path d="M151.571 102.294C151.563 93.7245 149.309 85.3065 145.033 77.8798L123.962 90.0113C126.118 93.7544 127.254 97.9971 127.258 102.316L151.571 102.294Z" fill="#4396F7"/>
<path d="M145.062 77.9285C140.795 70.4968 134.654 64.3136 127.251 59.9957L115.001 80.9972C118.732 83.1735 121.827 86.2898 123.978 90.0354L145.062 77.9285Z" fill="#F74343"/>
<path d="M102.446 53.3194C93.8758 53.3373 85.4605 55.6016 78.0388 59.8865L90.1954 80.9424C93.9359 78.7829 98.1772 77.6417 102.496 77.6326L102.446 53.3194Z" fill="#4396F7"/>
<path d="M77.7964 60.0238C70.3988 64.3501 64.2647 70.5402 60.0059 77.9768L81.1042 90.0597C83.2507 86.3116 86.3422 83.1918 90.0706 81.0113L77.7964 60.0238Z" fill="#4396F7"/>
<path d="M60.0123 77.9756C55.7533 85.4122 53.5184 93.8353 53.5303 102.405L77.8436 102.371C77.8375 98.052 78.9639 93.8067 81.1105 90.0587L60.0123 77.9756Z" fill="#4396F7"/>
<path d="M53.5324 102.554C53.5702 111.124 55.8541 119.534 60.1562 126.946L81.1838 114.74C79.0156 111.005 77.8645 106.766 77.8454 102.447L53.5324 102.554Z" fill="#F74343"/>
<path d="M78.2354 144.901C85.6766 149.152 94.1022 151.377 102.672 151.356L102.611 127.043C98.2923 127.054 94.0458 125.932 90.2954 123.79L78.2354 144.901Z" fill="#4396F7"/>
<path d="M127.241 144.673C134.644 140.356 140.786 134.174 145.055 126.742L123.972 114.633C121.821 118.378 118.725 121.494 114.994 123.67L127.241 144.673Z" fill="#F74343"/>
<path d="M144.965 126.915C149.262 119.501 151.539 111.089 151.571 102.519L127.258 102.43C127.242 106.749 126.094 110.988 123.929 114.725L144.965 126.915Z" fill="#4396F7"/>
<path d="M127.09 59.9044C119.672 55.6136 111.258 53.3427 102.689 53.318L102.618 77.6311C106.938 77.6436 111.178 78.7881 114.917 80.9507L127.09 59.9044Z" fill="#4396F7"/>
<g style="mix-blend-mode:screen">
<path fill-rule="evenodd" clip-rule="evenodd" d="M103.217 0.887029L103.188 7.75562C111.363 7.80251 119.534 8.91006 127.49 11.0774C135.43 13.2403 143.018 16.4208 150.076 20.5149L153.396 14.8196L153.828 15.0715L150.508 20.7669C157.515 24.8812 163.992 29.8994 169.763 35.7185C175.535 41.5385 180.5 48.0584 184.556 55.1007L190.446 51.7334L190.695 52.1675L184.805 55.5346C188.839 62.6252 191.956 70.2385 194.052 78.195C196.143 86.1306 197.183 94.2692 197.172 102.406L204.212 102.436L204.21 102.936L197.17 102.906C197.116 111.054 196.009 119.196 193.849 127.125C191.687 135.061 188.509 142.646 184.418 149.701L190.275 153.116L190.024 153.548L184.166 150.133C180.05 157.144 175.03 163.625 169.208 169.398C163.427 175.131 156.956 180.068 149.968 184.109L153.364 190.049L152.93 190.297L149.535 184.358C142.403 188.432 134.741 191.577 126.731 193.688C118.851 195.764 110.77 196.804 102.69 196.808L102.66 203.815L102.16 203.813L102.19 196.807C93.9854 196.767 85.7856 195.659 77.8012 193.484C69.9068 191.334 62.3602 188.177 55.337 184.117L51.9788 189.877L51.5468 189.625L54.9048 183.866C47.8511 179.738 41.3323 174.696 35.528 168.843C29.794 163.061 24.8566 156.589 20.8151 149.6L14.9299 152.964L14.6817 152.53L20.5659 149.166C16.493 142.036 13.3491 134.375 11.2388 126.367C9.15933 118.475 8.11958 110.382 8.11875 102.291L1.16409 102.261L1.16622 101.761L8.12002 101.791C8.16252 93.5975 9.27016 85.4096 11.4421 77.4365C13.5973 69.5249 16.7628 61.9625 20.8357 54.9261L15.1008 51.5824L15.3526 51.1505L21.0874 54.4941C25.2099 47.458 30.2432 40.9549 36.0832 35.1633C41.8653 29.429 48.3382 24.4913 55.3279 20.4496L52.0116 14.6487L52.4457 14.4006L55.7614 20.2005C62.8911 16.128 70.5516 12.9843 78.5597 10.8742C86.4683 8.79021 94.5787 7.75046 102.688 7.75408L102.717 0.884899L103.217 0.887029ZM11.9245 77.5679C14.0681 69.6986 17.2167 62.1767 21.2677 55.178L40.2785 66.2621C37.1925 71.6057 34.7927 77.3465 33.157 83.3514C31.504 89.4195 30.6601 95.6509 30.626 101.886L8.62002 101.793C8.66233 93.6431 9.76411 85.4987 11.9245 77.5679ZM33.6394 83.4828C35.2636 77.5203 37.6463 71.8199 40.7104 66.514L59.7221 77.5986C57.623 81.2493 55.9892 85.1684 54.8729 89.2663C53.7388 93.4294 53.1587 97.7044 53.133 101.982L31.126 101.889C31.1599 95.6965 31.9979 89.5086 33.6394 83.4828ZM40.962 66.0819L59.9735 77.1664C62.1239 73.5125 64.7439 70.1343 67.7801 67.1232C70.7557 64.1722 74.0806 61.6239 77.6683 59.5279L66.746 40.4225C61.4951 43.4699 56.631 47.1864 52.2833 51.4983C47.8764 55.8687 44.0766 60.7746 40.962 66.0819ZM55.3553 89.3977C56.46 85.3421 58.0769 81.4635 60.1541 77.8505L81.1102 90.0688C80.0965 91.8569 79.3051 93.7718 78.7602 95.7719C78.2604 97.6067 77.9758 99.4849 77.9066 101.369C77.8978 101.609 77.8924 101.848 77.8906 102.088L53.633 101.984C53.6585 97.75 54.2327 93.5185 55.3553 89.3977ZM60.4055 77.4183L81.3612 89.6364C82.4268 87.8423 83.7195 86.1824 85.2139 84.7004C86.6457 83.2804 88.2393 82.0469 89.9561 81.0219L77.9165 59.9619C74.3665 62.0364 71.0766 64.5581 68.1322 67.4782C65.1271 70.4584 62.534 73.802 60.4055 77.4183ZM79.2426 95.9044C79.776 93.9463 80.5506 92.0716 81.5426 90.321L101.078 101.711C101.063 101.754 101.049 101.797 101.037 101.841C101.006 101.954 100.988 102.07 100.981 102.186L78.3906 102.09C78.3924 101.856 78.3976 101.622 78.4062 101.388C78.4742 99.5417 78.753 97.7018 79.2426 95.9044ZM101.029 102.686L78.3918 102.59C78.3954 102.872 78.404 103.155 78.4174 103.437C78.4982 105.127 78.7559 106.81 79.1905 108.46C79.73 110.507 80.5328 112.466 81.5723 114.29L101.183 103.079C101.118 102.961 101.068 102.835 101.034 102.704C101.032 102.698 101.03 102.692 101.029 102.686ZM101.489 103.48L81.8244 114.722C82.8276 116.401 84.0345 117.959 85.4234 119.36C86.8866 120.835 88.5267 122.11 90.3 123.158L101.681 103.639C101.613 103.591 101.549 103.538 101.489 103.48ZM102.128 103.864L90.733 123.408C92.4707 124.388 94.3301 125.154 96.2714 125.683C98.3072 126.238 100.398 126.522 102.489 126.535L102.586 103.946C102.458 103.941 102.332 103.922 102.208 103.888C102.181 103.881 102.154 103.873 102.128 103.864ZM103.086 103.888L102.989 126.533C104.952 126.506 106.913 126.24 108.828 125.735C110.875 125.196 112.835 124.393 114.659 123.353L103.447 103.742C103.333 103.804 103.212 103.853 103.086 103.888ZM103.848 103.435L115.09 123.101C116.769 122.098 118.327 120.891 119.728 119.502C121.172 118.07 122.424 116.468 123.459 114.738L103.925 103.349C103.9 103.379 103.875 103.407 103.848 103.435ZM104.185 102.922L123.712 114.307C124.723 112.536 125.511 110.638 126.051 108.654C126.591 106.674 126.874 104.641 126.902 102.606L104.297 102.51C104.288 102.58 104.273 102.649 104.255 102.718C104.236 102.787 104.212 102.855 104.185 102.922ZM104.291 102.01L126.903 102.106C126.896 101.142 126.832 100.179 126.71 99.2203C126.613 98.458 126.48 97.6992 126.31 96.9465C126.247 96.6631 126.178 96.3806 126.103 96.099C125.578 94.1041 124.802 92.1932 123.801 90.4094L104.18 101.626C104.212 101.7 104.238 101.776 104.258 101.855C104.272 101.906 104.283 101.958 104.291 102.01ZM103.917 101.201L123.552 89.9759C122.533 88.244 121.298 86.638 119.87 85.1989C118.44 83.7569 116.841 82.5066 115.114 81.4718L103.724 101.007C103.761 101.038 103.796 101.071 103.83 101.105C103.86 101.136 103.889 101.168 103.917 101.201ZM103.298 100.745L114.683 81.2192C112.91 80.2062 111.009 79.4168 109.022 78.8756C107.014 78.3284 104.952 78.0445 102.888 78.024L102.792 100.619C102.89 100.627 102.988 100.645 103.084 100.671C103.157 100.691 103.229 100.715 103.298 100.745ZM102.292 100.65L102.388 78.0241C100.397 78.0454 98.408 78.3117 96.4661 78.8234C94.4189 79.3629 92.4603 80.1655 90.6366 81.2048L101.848 100.816C101.965 100.751 102.091 100.702 102.221 100.667C102.245 100.661 102.268 100.655 102.292 100.65ZM101.447 101.121L90.2047 81.4568C88.5255 82.4602 86.9668 83.6672 85.566 85.0564C84.1029 86.5073 82.8372 88.1322 81.7936 89.8885L101.317 101.272C101.357 101.219 101.4 101.169 101.447 101.121ZM21.5193 54.7459L40.5301 65.83C43.6665 60.4851 47.4931 55.5446 51.9312 51.1432C56.3101 46.8005 61.2091 43.0574 66.4979 39.9884L55.576 20.8837C48.6242 24.9037 42.1862 29.8149 36.4353 35.5183C30.6265 41.2791 25.62 47.7475 21.5193 54.7459ZM8.61875 102.293C8.61976 110.341 9.65401 118.39 11.7223 126.239C13.8214 134.206 16.9487 141.826 21 148.918L40.1048 137.996C37.0034 132.566 34.6093 126.731 33.0021 120.632C31.4262 114.651 30.634 108.519 30.625 102.386L8.61875 102.293ZM31.125 102.389C31.1342 108.477 31.9209 114.566 33.4856 120.504C35.0816 126.561 37.4591 132.355 40.5389 137.748L59.6444 126.826C57.5147 123.095 55.8705 119.086 54.7664 114.896C53.694 110.827 53.1495 106.655 53.1325 102.482L31.125 102.389ZM53.6325 102.484C53.6497 106.614 54.1887 110.742 55.2499 114.769C56.3428 118.917 57.9703 122.884 60.0785 126.578L81.1378 114.538C80.0769 112.677 79.2576 110.678 78.707 108.588C78.2644 106.908 78.0017 105.194 77.9186 103.473C77.9044 103.178 77.8954 102.883 77.8917 102.588L53.6325 102.484ZM35.883 168.491C30.18 162.741 25.269 156.303 21.2491 149.352L40.3543 138.43C43.4231 143.718 47.1659 148.616 51.5081 152.995C55.9221 157.445 60.8784 161.281 66.241 164.423L55.1566 183.434C48.1405 179.328 41.6564 174.313 35.883 168.491ZM51.8631 152.643C47.5518 148.295 43.8356 143.432 40.7883 138.181L59.8945 127.259C61.9904 130.846 64.5385 134.171 67.4893 137.146C70.5127 140.195 73.9063 142.824 77.5775 144.979L66.4929 163.991C61.1679 160.871 56.2462 157.062 51.8631 152.643ZM67.8443 136.794C64.9245 133.85 62.4029 130.56 60.3286 127.011L81.3897 114.97C82.4148 116.687 83.6483 118.281 85.0685 119.713C86.5623 121.219 88.237 122.521 90.0476 123.591L77.8294 144.547C74.1958 142.414 70.8369 139.811 67.8443 136.794ZM55.5888 183.685C62.5744 187.724 70.0806 190.863 77.9326 193.002C85.8747 195.165 94.031 196.267 102.192 196.307L102.286 174.3C96.0389 174.269 89.7956 173.425 83.7163 171.769C77.7287 170.138 72.0037 167.747 66.6733 164.674L55.5888 183.685ZM66.9252 164.242C72.218 167.293 77.9025 169.667 83.8477 171.286C89.8847 172.931 96.0845 173.769 102.288 173.8L102.382 151.793C98.0927 151.77 93.8064 151.19 89.6324 150.053C85.5514 148.942 81.6478 147.317 78.01 145.23L66.9252 164.242ZM78.2619 144.798C81.862 146.863 85.7251 148.471 89.7638 149.571C93.8955 150.696 98.1383 151.271 102.384 151.293L102.487 127.036C100.352 127.023 98.2181 126.733 96.14 126.167C94.1562 125.626 92.2561 124.843 90.4806 123.841L78.2619 144.798ZM126.604 193.204C118.766 195.269 110.729 196.304 102.692 196.308L102.786 174.301C108.907 174.289 115.027 173.497 120.996 171.924C127.097 170.316 132.933 167.921 138.364 164.819L149.286 183.924C142.193 187.977 134.571 191.105 126.604 193.204ZM120.869 171.44C114.942 173.002 108.865 173.789 102.788 173.801L102.882 151.794C107.043 151.774 111.204 151.229 115.263 150.16C119.453 149.055 123.462 147.411 127.194 145.28L138.116 164.385C132.722 167.466 126.927 169.844 120.869 171.44ZM115.135 149.676C111.119 150.735 107.002 151.274 102.884 151.294L102.987 127.035C104.994 127.007 106.998 126.736 108.955 126.22C111.045 125.669 113.045 124.849 114.907 123.788L126.946 144.846C123.252 146.955 119.284 148.583 115.135 149.676ZM149.72 183.675C156.67 179.656 163.106 174.745 168.856 169.043C174.647 163.301 179.64 156.854 183.734 149.881L164.722 138.796C161.593 144.116 157.779 149.034 153.359 153.418C148.982 157.759 144.084 161.501 138.798 164.57L149.72 183.675ZM138.549 164.136C143.799 161.089 148.661 157.373 153.007 153.063C157.396 148.71 161.183 143.827 164.29 138.544L145.279 127.46C143.136 131.089 140.53 134.444 137.512 137.437C134.537 140.387 131.214 142.935 127.627 145.03L138.549 164.136ZM127.379 144.596C130.928 142.522 134.216 140.001 137.16 137.082C140.147 134.12 142.726 130.799 144.847 127.208L123.892 114.991C122.834 116.759 121.555 118.395 120.08 119.858C118.649 121.278 117.055 122.511 115.339 123.536L127.379 144.596ZM193.367 126.994C191.216 134.888 188.055 142.432 183.986 149.449L164.974 138.364C168.078 133.002 170.491 127.239 172.134 121.21C173.775 115.185 174.618 109 174.664 102.81L196.67 102.904C196.617 111.008 195.515 119.107 193.367 126.994ZM171.651 121.078C170.02 127.065 167.625 132.788 164.542 138.113L145.531 127.029C147.649 123.359 149.296 119.417 150.419 115.294C151.541 111.175 152.121 106.947 152.158 102.714L174.164 102.808C174.118 108.955 173.281 115.096 171.651 121.078ZM149.937 115.162C148.825 119.243 147.195 123.145 145.099 126.777L124.144 114.559C125.177 112.751 125.982 110.813 126.534 108.787C127.085 106.764 127.374 104.687 127.402 102.609L151.658 102.712C151.621 106.901 151.047 111.086 149.937 115.162ZM196.672 102.404C196.683 94.3106 195.649 86.2155 193.569 78.3224C191.483 70.4083 188.383 62.8356 184.37 55.7828L165.266 66.7047C168.328 72.0956 170.695 77.8824 172.289 83.9293C173.876 89.9541 174.668 96.1325 174.666 102.31L196.672 102.404ZM174.166 102.308C174.168 96.1739 173.381 90.039 171.805 84.0567C170.223 78.0522 167.873 72.306 164.832 66.9529L145.727 77.8744C147.819 81.5656 149.436 85.5261 150.526 89.6636C151.61 93.7776 152.154 97.9958 152.16 102.214L174.166 102.308ZM151.66 102.212C151.654 98.0372 151.115 93.8626 150.042 89.791C148.963 85.6959 147.363 81.776 145.293 78.1226L124.235 90.161C125.258 91.9824 126.05 93.9335 126.587 95.9706C126.693 96.3731 126.788 96.7777 126.874 97.1839C127.011 97.838 127.122 98.4964 127.206 99.1572C127.331 100.137 127.397 101.123 127.403 102.109L151.66 102.212ZM169.408 36.0706C175.149 41.8595 180.087 48.3444 184.122 55.3489L165.017 66.2708C161.933 60.9293 158.163 55.9833 153.783 51.5663C149.402 47.1493 144.487 43.3379 139.172 40.2098L150.256 21.1988C157.225 25.2912 163.668 30.2826 169.408 36.0706ZM153.428 51.9184C157.777 56.3042 161.521 61.2153 164.583 66.519L145.479 77.4406C143.368 73.8 140.792 70.4279 137.803 67.414C134.813 64.3989 131.461 61.7943 127.836 59.6523L138.92 40.6417C144.198 43.7479 149.078 47.5325 153.428 51.9184ZM137.448 67.7661C140.406 70.7488 142.955 74.086 145.045 77.6888L123.986 89.7275C122.945 87.9575 121.684 86.3164 120.225 84.8458C118.765 83.3729 117.131 82.0959 115.366 81.0391L127.584 60.0843C131.171 62.2043 134.489 64.7821 137.448 67.7661ZM149.824 20.9468C142.804 16.8747 135.256 13.7112 127.359 11.5598C119.445 9.40401 111.318 8.30232 103.186 8.25562L103.092 30.2614C109.31 30.3 115.523 31.1437 121.574 32.7921C127.608 34.4356 133.375 36.8504 138.74 39.9577L149.824 20.9468ZM138.488 40.3896C133.16 37.3043 127.434 34.9065 121.443 33.2745C115.434 31.6377 109.264 30.7998 103.09 30.7614L102.996 52.7672C107.257 52.7973 111.514 53.3773 115.66 54.5068C119.786 55.6309 123.732 57.2798 127.404 59.4002L138.488 40.3896ZM127.152 59.8321C123.517 57.7337 119.613 56.1018 115.528 54.9892C111.425 53.8713 107.211 53.2972 102.994 53.2672L102.89 77.523C104.998 77.5437 107.103 77.8335 109.154 78.3922C111.183 78.945 113.124 79.7515 114.935 80.7866L127.152 59.8321ZM78.6871 11.3577C86.5533 9.28489 94.6201 8.25065 102.686 8.25408L102.592 30.2601C96.4421 30.2646 90.292 31.0568 84.2942 32.6372C78.1955 34.2443 72.3614 36.638 66.9312 39.7389L56.0095 20.6345C63.1015 16.5836 70.7214 13.4566 78.6871 11.3577ZM84.4216 33.1207C90.3769 31.5515 96.4835 30.7648 102.59 30.7601L102.496 52.7662C98.3058 52.7789 94.1163 53.3235 90.0297 54.4003C85.84 55.5043 81.8321 57.1483 78.1013 59.2778L67.1794 40.173C72.5718 37.0937 78.3653 34.7166 84.4216 33.1207ZM90.1571 54.8838C94.2013 53.8182 98.3472 53.2791 102.494 53.2662L102.39 77.5231C100.356 77.5442 98.323 77.8161 96.3386 78.339C94.2489 78.8896 92.2495 79.709 90.388 80.7699L78.3494 59.7119C82.0425 57.604 86.0099 55.9766 90.1571 54.8838Z" fill="white"/>
</g>
<circle cx="77.4616" cy="12.7953" r="8.23979" transform="rotate(0.237983 77.4616 12.7953)" fill="white" stroke="#4396F7" stroke-width="1.08116"/>
<circle cx="127.272" cy="13.0013" r="8.23979" transform="rotate(0.237983 127.272 13.0013)" fill="white" stroke="#4396F7" stroke-width="1.08116"/>
<circle cx="167.742" cy="34.5746" r="8.23979" transform="rotate(0.237983 167.742 34.5746)" fill="white" stroke="#4396F7" stroke-width="1.08116"/>
<circle cx="193.336" cy="78.6644" r="8.23979" transform="rotate(0.237983 193.336 78.6644)" fill="white" stroke="#4396F7" stroke-width="1.08116"/>
<circle cx="193.133" cy="127.278" r="8.23979" transform="rotate(0.237983 193.133 127.278)" fill="white" stroke="#4396F7" stroke-width="1.08116"/>
<circle cx="169.115" cy="169.473" r="8.23979" transform="rotate(0.237983 169.115 169.473)" fill="white" stroke="#4396F7" stroke-width="1.08116"/>
<circle cx="126.515" cy="195.036" r="8.23979" transform="rotate(0.237983 126.515 195.036)" fill="white" stroke="#4396F7" stroke-width="1.08116"/>
<circle cx="79.53" cy="194.841" r="8.23979" transform="rotate(0.237983 79.53 194.841)" fill="white" stroke="#4396F7" stroke-width="1.08116"/>
<circle cx="35.0182" cy="168.916" r="8.23979" transform="rotate(0.237983 35.0182 168.916)" fill="white" stroke="#4396F7" stroke-width="1.08116"/>
<circle cx="10.9362" cy="127.58" r="8.23979" transform="rotate(0.237983 10.9362 127.58)" fill="white" stroke="#4396F7" stroke-width="1.08116"/>
<circle cx="12.3053" cy="77.9125" r="8.23979" transform="rotate(0.237983 12.3053 77.9125)" fill="white" stroke="#4396F7" stroke-width="1.08116"/>
<circle cx="35.2741" cy="38.4056" r="8.23979" transform="rotate(0.237983 35.2741 38.4056)" fill="white" stroke="#4396F7" stroke-width="1.08116"/>
<path d="M103.954 113.12L103.391 113.117C103.223 114.042 102.461 114.264 101.622 114.26L101.62 114.849L103.211 114.855L103.193 119.249L103.928 119.252L103.954 113.12Z" fill="black"/>
<path d="M101.881 139.481C101.858 138.745 102.224 137.96 103.081 137.963C103.729 137.966 104.264 138.409 104.261 139.075C104.257 139.923 103.728 140.301 102.688 140.937C101.821 141.47 101.083 141.986 100.956 143.438L104.961 143.455L104.963 142.806L101.815 142.793C101.965 142.033 102.771 141.647 103.543 141.183C104.306 140.71 105.035 140.168 105.039 139.087C105.044 137.946 104.199 137.319 103.127 137.315C101.829 137.31 101.09 138.232 101.146 139.478L101.881 139.481Z" fill="black"/>
<path d="M102.546 164.456C102.685 164.439 102.841 164.431 102.988 164.432C103.714 164.435 104.292 164.844 104.289 165.613C104.286 166.357 103.67 166.796 102.952 166.793C102.113 166.789 101.674 166.234 101.651 165.438L100.916 165.435C100.885 166.698 101.704 167.436 102.949 167.441C104.1 167.446 105.062 166.81 105.067 165.582C105.07 164.847 104.71 164.257 103.966 164.09L103.966 164.072C104.434 163.858 104.817 163.393 104.819 162.856C104.824 161.723 104.022 161.21 102.958 161.205C101.73 161.2 101.103 162.011 101.055 163.178L101.791 163.181C101.802 162.463 102.151 161.851 102.955 161.854C103.578 161.857 104.043 162.204 104.041 162.844C104.038 163.51 103.492 163.846 102.869 163.843C102.765 163.843 102.661 163.842 102.549 163.833L102.546 164.456Z" fill="black"/>
<path d="M104.205 183.764L103.617 183.761L100.806 187.737L100.803 188.446L103.493 188.457L103.487 189.893L104.179 189.896L104.185 188.46L105.015 188.464L105.018 187.815L104.188 187.811L104.205 183.764ZM101.437 187.8L103.491 184.807L103.508 184.807L103.496 187.809L101.437 187.8Z" fill="black"/>
<path d="M126.172 11.3516C126.149 10.6163 126.516 9.83076 127.372 9.83432C128.021 9.83701 128.555 10.2803 128.552 10.9463C128.549 11.794 128.02 12.1723 126.979 12.8081C126.112 13.3407 125.375 13.8566 125.247 15.3092L129.252 15.3258L129.255 14.6771L126.106 14.6641C126.257 13.9035 127.063 13.5177 127.834 13.0538C128.597 12.5813 129.326 12.0394 129.331 10.9582C129.335 9.81653 128.49 9.19026 127.418 9.18581C126.121 9.18042 125.381 10.1028 125.437 11.3486L126.172 11.3516Z" fill="black"/>
<path d="M78.2743 8.98179L77.7121 8.97946C77.5439 9.90424 76.7819 10.126 75.9429 10.1225L75.9404 10.7106L77.5319 10.7172L77.5137 15.111L78.2488 15.1141L78.2743 8.98179Z" fill="black"/>
<path d="M167.225 34.2924C167.364 34.2757 167.52 34.2677 167.667 34.2683C168.393 34.2713 168.971 34.6802 168.968 35.45C168.965 36.1939 168.349 36.6324 167.631 36.6294C166.792 36.6259 166.353 36.0706 166.33 35.2747L165.595 35.2717C165.564 36.5343 166.383 37.2729 167.628 37.2781C168.779 37.2829 169.741 36.6468 169.746 35.4187C169.749 34.6835 169.389 34.0938 168.645 33.9264L168.645 33.9091C169.113 33.6948 169.496 33.2293 169.498 32.6931C169.503 31.56 168.701 31.0464 167.637 31.042C166.409 31.0369 165.782 31.8473 165.734 33.0148L166.47 33.0178C166.481 32.3 166.83 31.6873 167.634 31.6907C168.257 31.6932 168.722 32.0412 168.72 32.6812C168.717 33.3472 168.171 33.6822 167.548 33.6797C167.444 33.6792 167.34 33.6788 167.228 33.6697L167.225 34.2924Z" fill="black"/>
<path d="M35.0877 37.908C35.9267 37.9115 36.322 38.5445 36.3188 39.3057C36.3158 40.0322 35.872 40.6618 35.0763 40.6585C34.2719 40.6551 33.8074 40.0477 33.8106 39.2866C33.8138 38.5168 34.2661 37.9046 35.0877 37.908ZM36.9353 36.6442C36.8529 35.6492 36.2239 35.0757 35.212 35.0715C33.4648 35.0643 32.9479 36.6623 32.9409 38.3489C32.9355 39.6376 33.2227 41.2995 35.039 41.307C36.5872 41.3134 37.0937 40.1479 37.0974 39.257C37.1021 38.124 36.4051 37.2648 35.2288 37.2599C34.5628 37.2571 34.0429 37.4972 33.6946 38.0579L33.6773 38.0405C33.7159 37.0979 33.9205 35.7149 35.1747 35.7201C35.7542 35.7225 36.1332 36.0873 36.2001 36.6412L36.9353 36.6442Z" fill="black"/>
<path d="M194.573 74.8044L193.985 74.8019L191.175 78.7776L191.172 79.4868L193.862 79.498L193.856 80.9338L194.548 80.9367L194.554 79.5009L195.384 79.5043L195.387 78.8556L194.556 78.8522L194.573 74.8044ZM191.806 78.8408L193.86 75.848L193.877 75.848L193.864 78.8493L191.806 78.8408Z" fill="black"/>
<path d="M194.814 124.174L191.786 124.161L191.202 127.342L191.834 127.379C192.12 127.034 192.511 126.802 192.978 126.804C193.799 126.808 194.359 127.389 194.356 128.202C194.352 129.18 193.753 129.653 193.052 129.65C192.317 129.647 191.809 129.169 191.768 128.538L191.033 128.535C191.054 129.642 191.917 130.294 192.98 130.298C194.408 130.304 195.13 129.304 195.134 128.266C195.14 126.865 194.252 126.161 193.162 126.156C192.747 126.154 192.288 126.291 192.018 126.593L192.001 126.575L192.337 124.812L194.811 124.822L194.814 124.174Z" fill="black"/>
<path d="M9.6531 128.513C9.65604 127.804 10.2288 127.339 10.9554 127.342C11.6473 127.345 12.2161 127.849 12.2133 128.515C12.2105 129.198 11.6894 129.706 10.9542 129.703C10.1931 129.7 9.65004 129.248 9.6531 128.513ZM9.10268 125.674C9.10038 126.227 9.44423 126.739 9.95367 126.949C9.26938 127.188 8.87783 127.748 8.87481 128.475C8.8696 129.729 9.77522 130.347 10.9515 130.352C12.0846 130.357 12.9869 129.677 12.9918 128.492C12.995 127.731 12.6426 127.193 11.9084 126.957C12.411 126.734 12.759 126.234 12.7613 125.689C12.7645 124.91 12.2488 124.121 10.9082 124.116C9.96546 124.112 9.10689 124.662 9.10268 125.674ZM9.881 125.703C9.88355 125.089 10.3693 124.762 10.9574 124.764C11.5542 124.767 11.9853 125.097 11.9828 125.711C11.9802 126.334 11.5462 126.696 10.9667 126.693C10.3613 126.691 9.8782 126.377 9.881 125.703Z" fill="black"/>
<path d="M14.2554 74.8098L10.2854 74.7933L10.2825 75.4853L13.5001 75.4986C12.2056 76.8599 11.2031 78.7499 11.0561 80.8251L11.8778 80.8286C11.9982 78.9089 13.0108 76.6643 14.2528 75.4412L14.2554 74.8098Z" fill="black"/>
<path d="M167.405 166.246L166.843 166.244C166.675 167.169 165.913 167.39 165.074 167.387L165.072 167.975L166.663 167.982L166.645 172.375L167.38 172.379L167.405 166.246ZM170.239 168.429C170.216 167.694 170.583 166.908 171.439 166.912C172.088 166.914 172.622 167.358 172.619 168.024C172.616 168.871 172.087 169.25 171.046 169.885C170.179 170.418 169.442 170.934 169.315 172.387L173.319 172.403L173.322 171.754L170.173 171.741C170.324 170.981 171.13 170.595 171.901 170.131C172.664 169.659 173.393 169.117 173.398 168.036C173.403 166.894 172.557 166.268 171.485 166.263C170.188 166.258 169.449 167.18 169.504 168.426L170.239 168.429Z" fill="black"/>
<path d="M36.1602 167.318C36.1572 168.044 35.6703 168.665 34.9005 168.662C34.1913 168.659 33.6922 168.034 33.695 167.359C33.6981 166.607 34.0297 165.908 34.9033 165.911C35.7249 165.915 36.1634 166.565 36.1602 167.318ZM33.0357 169.908C33.1265 170.964 33.8595 171.494 34.8887 171.499C36.3764 171.505 37.0213 170.323 37.0301 168.204C37.0398 165.886 36.0823 165.268 34.9406 165.263C33.7556 165.258 32.9219 166.067 32.917 167.252C32.912 168.463 33.6004 169.305 34.8459 169.31C35.4427 169.313 35.989 168.986 36.2679 168.469L36.2851 168.486C36.2353 170.069 35.7909 170.854 34.8914 170.85C34.3033 170.848 33.8203 170.508 33.7709 169.911L33.0357 169.908Z" fill="black"/>
<path d="M124.986 191.923L124.423 191.921C124.255 192.845 123.493 193.067 122.654 193.064L122.652 193.652L124.243 193.658L124.225 198.052L124.96 198.055L124.986 191.923ZM129.792 191.943L129.229 191.941C129.061 192.865 128.299 193.087 127.46 193.084L127.458 193.672L129.049 193.678L129.031 198.072L129.766 198.075L129.792 191.943Z" fill="black"/>
<path d="M77.7902 191.728L77.228 191.725C77.0598 192.65 76.2978 192.872 75.4588 192.868L75.4564 193.456L77.0478 193.463L77.0296 197.857L77.7648 197.86L77.7902 191.728ZM79.8675 194.859C79.8619 196.208 79.9756 197.973 81.8957 197.981C83.8159 197.989 83.9443 196.225 83.9499 194.876C83.9555 193.518 83.8418 191.753 81.9216 191.745C80.0015 191.737 79.8731 193.501 79.8675 194.859ZM80.6459 194.853C80.6497 193.945 80.6648 192.388 81.9189 192.394C83.1731 192.399 83.1753 193.956 83.1715 194.864C83.1677 195.781 83.1526 197.337 81.8984 197.332C80.6443 197.327 80.6421 195.77 80.6459 194.853Z" fill="black"/>
</svg>
