<svg width="272" height="271" viewBox="0 0 272 271" fill="none" xmlns="http://www.w3.org/2000/svg">
<path opacity="0.8" fill-rule="evenodd" clip-rule="evenodd" d="M152.96 72.4925C141.918 69.5338 130.291 69.5338 119.249 72.4925C108.207 75.4512 98.1383 81.2644 90.0549 89.3479C81.9715 97.4313 76.1583 107.5 73.1995 118.542C71.7186 124.069 70.9789 129.743 70.9805 135.416H103.452C103.452 135.416 103.34 140.031 104.457 144.568C105.575 149.109 107.876 152.253 107.876 152.253L79.8173 168.153C82.6303 172.987 86.0662 177.459 90.0549 181.447C98.1383 189.531 108.207 195.344 119.249 198.303C124.825 199.797 130.55 200.536 136.273 200.522V135.416L152.694 163.791C152.694 163.791 155.892 161.741 159.716 158.218L164.509 151.809L192.392 168.153C195.28 163.19 197.511 157.846 199.01 152.253C201.969 141.211 201.969 129.584 199.01 118.542C197.511 112.949 195.28 107.605 192.392 102.643L163.979 118.542C163.979 118.542 162.809 116.312 159.555 113.036C156.344 109.804 152.96 106.764 152.96 106.764L168.731 79.0354C163.805 76.1839 158.505 73.9783 152.96 72.4925Z" fill="#4396F7"/>
<g opacity="0.5">
<path opacity="0.2" d="M103.833 14.9647C124.973 9.30017 147.232 9.30017 168.373 14.9647C189.513 20.6293 208.79 31.7588 224.266 47.2346C239.742 62.7105 250.871 81.9873 256.536 103.128C262.2 124.268 262.2 146.527 256.536 167.668C250.871 188.808 239.742 208.085 224.266 223.561C208.79 239.036 189.513 250.166 168.373 255.831C147.232 261.495 124.973 261.495 103.833 255.831C82.6924 250.166 63.4155 239.036 47.9397 223.561C32.4639 208.085 21.3343 188.808 15.6698 167.668C10.0052 146.527 10.0052 124.268 15.6698 103.128C21.3343 81.9873 32.4639 62.7105 47.9397 47.2346C63.4155 31.7588 82.6924 20.6293 103.833 14.9647Z" fill="#4396F7" fill-opacity="0.6" stroke="#4396F7" stroke-width="2.15759"/>
<path opacity="0.2" d="M111.581 43.2925C127.645 38.9883 144.558 38.9883 160.622 43.2925C176.685 47.5966 191.333 56.0533 203.092 67.8126C214.851 79.5718 223.308 94.2192 227.612 110.283C231.916 126.346 231.916 143.259 227.612 159.323C223.308 175.386 214.851 190.034 203.092 201.793C191.333 213.552 176.685 222.009 160.622 226.313C144.558 230.617 127.645 230.617 111.581 226.313C95.5181 222.009 80.8706 213.552 69.1114 201.793C57.3522 190.034 48.8955 175.386 44.5913 159.323C40.2871 143.259 40.2871 126.346 44.5913 110.283C48.8955 94.2192 57.3522 79.5718 69.1114 67.8126C80.8706 56.0533 95.5181 47.5966 111.581 43.2925Z" fill="#4396F7" fill-opacity="0.6" stroke="#4396F7" stroke-width="2.15759"/>
<path opacity="0.2" d="M120.559 163.853L120.56 163.853L124.145 157.683C128.209 150.689 120.373 142.837 113.37 146.886L110.717 148.421C109.303 149.238 107.492 148.698 106.757 147.239C106.696 147.119 106.644 146.994 106.601 146.866L106.066 145.272C105.509 143.614 105.119 141.905 104.9 140.17L104.748 138.962C104.572 136.131 102.224 133.921 99.3824 133.921H88.5905C78.966 133.921 71.9672 124.783 74.4754 115.491L76.6877 107.295C77.6573 103.703 79.5587 100.431 82.1994 97.8095L90.4529 89.6167C98.4417 81.6866 108.445 75.9697 119.326 73.0756C130.264 70.1664 141.92 70.1664 152.857 73.0756C163.737 75.9693 173.795 81.7397 181.785 89.6707C189.762 97.5887 195.558 107.526 198.487 118.375C201.426 129.263 201.426 140.737 198.487 151.625C195.558 162.474 189.762 172.411 181.785 180.329C173.794 188.261 163.809 194.011 152.931 196.905L141.552 199.931C137.974 200.883 134.209 200.883 130.631 199.931C117.089 196.329 110.683 180.833 117.729 168.72L120.559 163.853Z" fill="#4396F7" fill-opacity="0.6" stroke="#4396F7" stroke-width="2.15759"/>
<path opacity="0.5" d="M127.859 104.624C133.261 103.177 138.949 103.177 144.351 104.624C149.752 106.072 154.678 108.915 158.632 112.87C162.587 116.824 165.431 121.75 166.878 127.151C168.325 132.553 168.325 138.241 166.878 143.643C165.431 149.044 162.587 153.97 158.632 157.924C154.678 161.879 149.752 164.723 144.351 166.17C138.949 167.617 133.261 167.617 127.859 166.17C122.458 164.723 117.532 161.879 113.578 157.924C109.623 153.97 106.78 149.044 105.332 143.643C103.885 138.241 103.885 132.553 105.332 127.151C106.78 121.75 109.623 116.824 113.578 112.87C117.532 108.915 122.458 106.072 127.859 104.624Z" fill="#4396F7" fill-opacity="0.6" stroke="#4396F7" stroke-width="2.15759"/>
<path opacity="0.1" d="M111.488 43.5398C127.613 39.2193 144.59 39.2193 160.715 43.5398C176.839 47.8604 191.542 56.3492 203.346 68.153C215.15 79.9569 223.639 94.6599 227.959 110.784C232.28 126.909 232.28 143.886 227.959 160.011C223.639 176.135 215.15 190.838 203.346 202.642C191.542 214.446 176.839 222.935 160.715 227.255C144.59 231.576 127.613 231.576 111.488 227.255C95.364 222.935 80.661 214.446 68.8571 202.642C57.0533 190.838 48.5645 176.135 44.2439 160.011C39.9234 143.886 39.9234 126.909 44.2439 110.784C48.5645 94.6599 57.0533 79.9569 68.8571 68.153C80.661 56.3492 95.364 47.8604 111.488 43.5398Z" stroke="#4396F7" stroke-width="1.4384"/>
<path d="M119.148 72.114C130.256 69.1375 141.952 69.1375 153.061 72.114C164.169 75.0905 174.298 80.9386 182.43 89.0705C190.562 97.2024 196.41 107.332 199.387 118.44C202.363 129.548 202.363 141.244 199.387 152.353C196.41 163.461 190.562 173.59 182.43 181.722C174.298 189.854 164.169 195.702 153.061 198.679C141.952 201.655 130.256 201.655 119.148 198.679C108.04 195.702 97.9104 189.854 89.7785 181.722C81.6466 173.59 75.7985 163.461 72.822 152.353C69.8455 141.244 69.8455 129.548 72.822 118.44C75.7985 107.332 81.6466 97.2024 89.7785 89.0705C97.9104 80.9386 108.04 75.0905 119.148 72.114Z" stroke="#4396F7" stroke-width="0.719198"/>
<path d="M127.627 103.755C133.181 102.267 139.029 102.267 144.583 103.755C150.137 105.243 155.202 108.167 159.268 112.233C163.334 116.299 166.258 121.364 167.746 126.918C169.234 132.472 169.234 138.32 167.746 143.874C166.258 149.428 163.334 154.493 159.268 158.559C155.202 162.625 150.137 165.549 144.583 167.037C139.029 168.525 133.181 168.525 127.627 167.037C122.073 165.549 117.008 162.625 112.942 158.559C108.876 154.493 105.952 149.428 104.464 143.874C102.975 138.32 102.975 132.472 104.464 126.918C105.952 121.364 108.876 116.299 112.942 112.233C117.008 108.167 122.073 105.243 127.627 103.755Z" stroke="#4396F7" stroke-width="0.359599"/>
<path d="M135.529 133.254C135.905 133.154 136.301 133.154 136.677 133.254C137.054 133.355 137.397 133.553 137.672 133.829C137.947 134.104 138.145 134.447 138.246 134.823C138.347 135.199 138.347 135.595 138.246 135.971C138.145 136.347 137.947 136.69 137.672 136.966C137.397 137.241 137.054 137.439 136.677 137.54C136.301 137.641 135.905 137.641 135.529 137.54C135.153 137.439 134.81 137.241 134.535 136.966C134.259 136.69 134.061 136.347 133.96 135.971C133.86 135.595 133.86 135.199 133.96 134.823C134.061 134.447 134.259 134.104 134.535 133.829C134.81 133.553 135.153 133.355 135.529 133.254Z" fill="#0284D2"/>
<circle cx="102.103" cy="16.4843" r="10.9624" fill="white" stroke="#4396F7" stroke-width="1.4384"/>
<circle cx="168.373" cy="16.4843" r="10.9624" fill="white" stroke="#4396F7" stroke-width="1.4384"/>
<circle cx="222.334" cy="44.9618" r="10.9624" fill="white" stroke="#4396F7" stroke-width="1.4384"/>
<circle cx="256.627" cy="103.478" r="10.9624" fill="white" stroke="#4396F7" stroke-width="1.4384"/>
<circle cx="256.627" cy="168.154" r="10.9624" fill="white" stroke="#4396F7" stroke-width="1.4384"/>
<circle cx="224.904" cy="224.424" r="10.9624" fill="white" stroke="#4396F7" stroke-width="1.4384"/>
<circle cx="168.373" cy="258.669" r="10.9624" fill="white" stroke="#4396F7" stroke-width="1.4384"/>
<circle cx="105.861" cy="258.669" r="10.9624" fill="white" stroke="#4396F7" stroke-width="1.4384"/>
<circle cx="46.498" cy="224.424" r="10.9624" fill="white" stroke="#4396F7" stroke-width="1.4384"/>
<circle cx="14.2323" cy="169.564" r="10.9624" fill="white" stroke="#4396F7" stroke-width="1.4384"/>
<circle cx="15.7773" cy="103.478" r="10.9624" fill="white" stroke="#4396F7" stroke-width="1.4384"/>
<circle cx="46.1191" cy="50.79" r="10.9624" fill="white" stroke="#4396F7" stroke-width="1.4384"/>
<path d="M137.903 149.829H137.155C136.937 151.06 135.924 151.359 134.808 151.359V152.142H136.925V157.987H137.903V149.829Z" fill="black"/>
<path d="M135.291 184.911C135.257 183.933 135.74 182.886 136.879 182.886C137.742 182.886 138.456 183.473 138.456 184.359C138.456 185.487 137.754 185.993 136.373 186.845C135.222 187.558 134.244 188.248 134.083 190.182H139.411V189.319H135.222C135.418 188.306 136.488 187.788 137.512 187.167C138.525 186.534 139.491 185.809 139.491 184.371C139.491 182.852 138.363 182.023 136.937 182.023C135.211 182.023 134.232 183.254 134.313 184.911H135.291Z" fill="black"/>
<path d="M136.315 218.134C136.499 218.111 136.706 218.099 136.902 218.099C137.869 218.099 138.64 218.64 138.64 219.664C138.64 220.654 137.823 221.241 136.868 221.241C135.751 221.241 135.164 220.504 135.13 219.446H134.152C134.117 221.126 135.211 222.104 136.868 222.104C138.398 222.104 139.675 221.252 139.675 219.618C139.675 218.64 139.192 217.858 138.202 217.639V217.616C138.824 217.328 139.33 216.707 139.33 215.994C139.33 214.486 138.26 213.807 136.845 213.807C135.211 213.807 134.382 214.889 134.324 216.442H135.303C135.314 215.487 135.774 214.67 136.845 214.67C137.673 214.67 138.294 215.131 138.294 215.982C138.294 216.868 137.569 217.317 136.741 217.317C136.603 217.317 136.465 217.317 136.315 217.305V218.134Z" fill="black"/>
<path d="M138.628 243.813H137.846L134.129 249.118V250.061H137.708V251.972H138.628V250.061H139.733V249.198H138.628V243.813ZM134.969 249.198L137.685 245.205H137.708V249.198H134.969Z" fill="black"/>
<path d="M166.9 14.9817C166.866 14.0036 167.349 12.9564 168.488 12.9564C169.351 12.9564 170.065 13.5433 170.065 14.4293C170.065 15.557 169.363 16.0633 167.982 16.9149C166.831 17.6283 165.853 18.3187 165.692 20.252H171.02V19.3889H166.831C167.027 18.3763 168.097 17.8585 169.121 17.2371C170.134 16.6042 171.1 15.8792 171.1 14.4408C171.1 12.9219 169.973 12.0934 168.546 12.0934C166.82 12.0934 165.841 13.3246 165.922 14.9817H166.9Z" fill="black"/>
<path d="M103.165 12.0934H102.417C102.198 13.3246 101.185 13.6238 100.069 13.6238V14.4063H102.186V20.252H103.165V12.0934Z" fill="black"/>
<path d="M221.645 45.2765C221.829 45.2535 222.036 45.242 222.232 45.242C223.198 45.242 223.969 45.7828 223.969 46.807C223.969 47.7966 223.152 48.3834 222.197 48.3834C221.081 48.3834 220.494 47.647 220.46 46.5883H219.482C219.447 48.2684 220.54 49.2465 222.197 49.2465C223.728 49.2465 225.005 48.395 225.005 46.7609C225.005 45.7828 224.522 45.0003 223.532 44.7817V44.7587C224.153 44.471 224.66 43.8496 224.66 43.1362C224.66 41.6287 223.59 40.9498 222.174 40.9498C220.54 40.9498 219.712 42.0315 219.654 43.585H220.632C220.644 42.6299 221.104 41.8129 222.174 41.8129C223.003 41.8129 223.624 42.2731 223.624 43.1247C223.624 44.0107 222.899 44.4595 222.071 44.4595C221.933 44.4595 221.795 44.4595 221.645 44.448V45.2765Z" fill="black"/>
<path d="M43.4714 45.7115H42.7234C42.5048 46.9428 41.4922 47.242 40.376 47.242V48.0245H42.4933V53.8701H43.4714V45.7115ZM47.2534 48.5998C47.2189 47.6217 47.7022 46.5746 48.8414 46.5746C49.7044 46.5746 50.4179 47.1614 50.4179 48.0475C50.4179 49.1752 49.7159 49.6815 48.3351 50.533C47.1844 51.2465 46.2063 51.9369 46.0452 53.8701H51.373V53.0071H47.1844C47.38 51.9944 48.4501 51.4766 49.4743 50.8552C50.4869 50.2223 51.4535 49.4974 51.4535 48.059C51.4535 46.5401 50.3258 45.7115 48.8989 45.7115C47.1729 45.7115 46.1947 46.9428 46.2753 48.5998H47.2534Z" fill="black"/>
<path d="M258.253 99.0221H257.47L253.753 104.327V105.27H257.332V107.181H258.253V105.27H259.357V104.407H258.253V99.0221ZM254.594 104.407L257.309 100.414H257.332V104.407H254.594Z" fill="black"/>
<path d="M258.84 163.372H254.812L254.053 167.607L254.893 167.653C255.272 167.192 255.79 166.882 256.412 166.882C257.505 166.882 258.253 167.653 258.253 168.734C258.253 170.035 257.459 170.668 256.527 170.668C255.549 170.668 254.87 170.035 254.812 169.195H253.834C253.869 170.668 255.019 171.531 256.435 171.531C258.333 171.531 259.288 170.196 259.288 168.815C259.288 166.951 258.103 166.019 256.653 166.019C256.101 166.019 255.491 166.203 255.134 166.606L255.111 166.583L255.549 164.235H258.84V163.372Z" fill="black"/>
<path d="M11.9343 163.964H11.1863C10.9677 165.196 9.95507 165.495 8.83888 165.495V166.277H10.9562V172.123H11.9343V163.964ZM14.7152 168.119C14.7152 169.914 14.8763 172.261 17.4309 172.261C19.9855 172.261 20.1466 169.914 20.1466 168.119C20.1466 166.312 19.9855 163.964 17.4309 163.964C14.8763 163.964 14.7152 166.312 14.7152 168.119ZM15.7508 168.107C15.7508 166.899 15.7623 164.828 17.4309 164.828C19.0994 164.828 19.1109 166.899 19.1109 168.107C19.1109 169.327 19.0994 171.398 17.4309 171.398C15.7623 171.398 15.7508 169.327 15.7508 168.107Z" fill="black"/>
<path d="M13.3933 98.5582H12.6453C12.4267 99.7895 11.4141 100.089 10.2979 100.089V100.871H12.4152V106.717H13.3933V98.5582ZM19.7874 98.5582H19.0394C18.8208 99.7895 17.8082 100.089 16.692 100.089V100.871H18.8093V106.717H19.7874V98.5582Z" fill="black"/>
<path d="M225 223.271C226.116 223.271 226.645 224.111 226.645 225.124C226.645 226.09 226.058 226.93 225 226.93C223.93 226.93 223.308 226.125 223.308 225.112C223.308 224.088 223.907 223.271 225 223.271ZM227.451 221.579C227.336 220.256 226.496 219.497 225.149 219.497C222.825 219.497 222.146 221.626 222.146 223.869C222.146 225.584 222.537 227.793 224.954 227.793C227.013 227.793 227.681 226.24 227.681 225.055C227.681 223.547 226.749 222.408 225.184 222.408C224.298 222.408 223.607 222.73 223.147 223.478L223.124 223.455C223.17 222.201 223.435 220.36 225.103 220.36C225.874 220.36 226.381 220.843 226.473 221.579H227.451Z" fill="black"/>
<path d="M48.0088 222.224C48.0088 223.19 47.3644 224.019 46.3403 224.019C45.3967 224.019 44.7293 223.19 44.7293 222.293C44.7293 221.292 45.1665 220.36 46.3288 220.36C47.422 220.36 48.0088 221.223 48.0088 222.224ZM43.8662 225.688C43.9928 227.091 44.9709 227.793 46.3403 227.793C48.3195 227.793 49.171 226.217 49.171 223.398C49.171 220.314 47.8937 219.497 46.3748 219.497C44.7983 219.497 43.6936 220.578 43.6936 222.155C43.6936 223.766 44.6142 224.882 46.2712 224.882C47.0652 224.882 47.7902 224.445 48.1584 223.754L48.1814 223.777C48.1239 225.883 47.537 226.93 46.3403 226.93C45.5578 226.93 44.9134 226.482 44.8443 225.688H43.8662Z" fill="black"/>
<path d="M171.273 254.03H165.991V254.951H170.272C168.557 256.769 167.234 259.289 167.05 262.051H168.143C168.292 259.496 169.627 256.504 171.273 254.87V254.03Z" fill="black"/>
<path d="M104.121 259.749C104.121 258.806 104.88 258.184 105.847 258.184C106.767 258.184 107.527 258.852 107.527 259.738C107.527 260.647 106.836 261.326 105.858 261.326C104.846 261.326 104.121 260.727 104.121 259.749ZM103.373 255.975C103.373 256.711 103.833 257.39 104.512 257.667C103.603 257.989 103.085 258.737 103.085 259.703C103.085 261.372 104.293 262.189 105.858 262.189C107.366 262.189 108.562 261.28 108.562 259.703C108.562 258.691 108.091 257.977 107.112 257.667C107.78 257.367 108.24 256.7 108.24 255.975C108.24 254.939 107.55 253.892 105.766 253.892C104.512 253.892 103.373 254.629 103.373 255.975ZM104.408 256.01C104.408 255.193 105.053 254.755 105.835 254.755C106.629 254.755 107.205 255.193 107.205 256.01C107.205 256.838 106.629 257.321 105.858 257.321C105.053 257.321 104.408 256.907 104.408 256.01Z" fill="black"/>
<path opacity="0.3" d="M79.0918 168.253C85.5918 179 92.5918 185.5 103.27 192.5L136.092 135.5L79.0918 168.253Z" fill="white"/>
<path opacity="0.5" d="M135.983 135.764L68.543 18.9248" stroke="#4396F7" stroke-width="0.719198"/>
<path opacity="0.5" d="M135.956 135.405L135.971 0.5" stroke="#4396F7" stroke-width="0.719198"/>
<path opacity="0.5" d="M135.963 135.749L203.428 18.9248" stroke="#4396F7" stroke-width="0.719198"/>
<path opacity="0.5" d="M135.962 135.392L252.801 67.9521" stroke="#4396F7" stroke-width="0.719198"/>
<path opacity="0.5" d="M136.323 135.362L271.229 135.376" stroke="#4396F7" stroke-width="0.719198"/>
<path opacity="0.5" d="M135.976 135.369L252.801 202.834" stroke="#4396F7" stroke-width="0.719198"/>
<path opacity="0.5" d="M136.335 135.212L203.775 252.051" stroke="#4396F7" stroke-width="0.719198"/>
<path opacity="0.5" d="M136.366 135.573L136.352 270.479" stroke="#4396F7" stroke-width="0.719198"/>
<path opacity="0.5" d="M136.356 135.226L68.8906 252.051" stroke="#4396F7" stroke-width="0.719198"/>
<path opacity="0.5" d="M135.931 135.5L19.0918 202.94" stroke="#4396F7" stroke-width="0.719198"/>
<path opacity="0.5" d="M135.997 135.614L1.0918 135.6" stroke="#4396F7" stroke-width="0.719198"/>
<path opacity="0.5" d="M136.344 135.609L19.5195 68.1436" stroke="#4396F7" stroke-width="0.719198"/>
</g>
</svg>
