<svg width="205" height="205" viewBox="0 0 205 205" fill="none" xmlns="http://www.w3.org/2000/svg">
<g style="mix-blend-mode:darken" opacity="0.3">
<path fill-rule="evenodd" clip-rule="evenodd" d="M102.882 1.17316L102.853 8.04176C111.029 8.08864 119.199 9.19619 127.155 11.3635C135.095 13.5264 142.683 16.707 149.741 20.801L153.061 15.1057L153.493 15.3576L150.173 21.053C157.18 25.1673 163.657 30.1855 169.428 36.0047C175.2 41.8247 180.165 48.3446 184.221 55.3868L190.111 52.0195L190.36 52.4536L184.47 55.8208C188.504 62.9114 191.621 70.5247 193.717 78.4811C195.808 86.4167 196.848 94.5554 196.837 102.692L203.877 102.722L203.875 103.222L196.835 103.192C196.781 111.34 195.674 119.482 193.514 127.411C191.352 135.347 188.174 142.932 184.083 149.987L189.94 153.402L189.689 153.834L183.831 150.419C179.715 157.43 174.695 163.911 168.873 169.685C163.092 175.418 156.621 180.354 149.633 184.395L153.029 190.335L152.595 190.583L149.2 184.645C142.068 188.718 134.406 191.863 126.396 193.974C118.516 196.05 110.435 197.09 102.355 197.094L102.325 204.101L101.825 204.099L101.855 197.093C93.6504 197.053 85.4506 195.945 77.4662 193.77C69.5719 191.62 62.0252 188.464 55.002 184.404L51.6438 190.163L51.2119 189.911L54.5698 184.152C47.5161 180.025 40.9973 174.982 35.193 169.129C29.4591 163.348 24.5216 156.875 20.4801 149.886L14.5949 153.25L14.3467 152.816L20.231 149.452C16.1581 142.322 13.0142 134.661 10.9039 126.653C8.82437 118.761 7.78462 110.668 7.78379 102.577L0.829131 102.547L0.831261 102.047L7.78506 102.077C7.82755 93.8836 8.9352 85.6957 11.1071 77.7226C13.2623 69.811 16.4279 62.2486 20.5008 55.2123L14.7658 51.8685L15.0176 51.4366L20.7524 54.7802C24.875 47.7442 29.9083 41.2411 35.7482 35.4494C41.5304 29.7151 48.0033 24.7774 54.9929 20.7357L51.6766 14.9348L52.1107 14.6867L55.4264 20.4866C62.5562 16.4141 70.2166 13.2704 78.2247 11.1603C86.1334 9.07634 94.2437 8.0366 102.353 8.04021L102.382 1.17103L102.882 1.17316ZM11.5895 77.854C13.7332 69.9848 16.8817 62.4628 20.9327 55.4641L39.9435 66.5483C36.8575 71.8918 34.4578 77.6327 32.822 83.6375C31.169 89.7056 30.3251 95.937 30.291 102.173L8.28506 102.079C8.32736 93.9292 9.42915 85.7848 11.5895 77.854ZM33.3044 83.769C34.9287 77.8064 37.3114 72.1061 40.3755 66.8001L59.3872 77.8848C57.288 81.5354 55.6542 85.4545 54.5379 89.5525C53.4038 93.7156 52.8237 97.9905 52.798 102.268L30.791 102.175C30.825 95.9827 31.663 89.7947 33.3044 83.769ZM40.627 66.368L59.6386 77.4526C61.789 73.7987 64.4089 70.4204 67.4451 67.4093C70.4208 64.4583 73.7456 61.9101 77.3333 59.814L66.4111 40.7086C61.1601 43.756 56.2961 47.4726 51.9483 51.7844C47.5414 56.1548 43.7416 61.0607 40.627 66.368ZM55.0203 89.6839C56.1251 85.6283 57.7419 81.7496 59.8191 78.1366L80.7752 90.355C79.7615 92.143 78.9701 94.0579 78.4253 96.0581C77.9255 97.8928 77.6409 99.7711 77.5716 101.655C77.5628 101.895 77.5575 102.134 77.5556 102.374L53.298 102.271C53.3235 98.0361 53.8978 93.8047 55.0203 89.6839ZM60.0705 77.7044L81.0262 89.9225C82.0918 88.1284 83.3845 86.4685 84.8789 84.9865C86.3107 83.5665 87.9043 82.333 89.6211 81.308L77.5815 60.2481C74.0316 62.3226 70.7417 64.8443 67.7972 67.7644C64.7922 70.7446 62.199 74.0881 60.0705 77.7044ZM78.9077 96.1905C79.4411 94.2325 80.2156 92.3577 81.2077 90.6071L100.743 101.997C100.728 102.04 100.714 102.083 100.702 102.127C100.671 102.241 100.653 102.356 100.646 102.472L78.0556 102.376C78.0574 102.142 78.0627 101.908 78.0713 101.674C78.1392 99.8278 78.4181 97.9879 78.9077 96.1905ZM100.694 102.973L78.0568 102.876C78.0605 103.159 78.069 103.441 78.0825 103.723C78.1633 105.413 78.4209 107.096 78.8555 108.746C79.3951 110.793 80.1979 112.752 81.2374 114.576L100.848 103.365C100.783 103.247 100.733 103.122 100.699 102.991C100.697 102.985 100.695 102.979 100.694 102.973ZM101.154 103.766L81.4894 115.008C82.4927 116.687 83.6995 118.245 85.0885 119.646C86.5516 121.121 88.1917 122.396 89.965 123.445L101.346 103.925C101.278 103.877 101.214 103.824 101.154 103.766ZM101.793 104.151L90.398 123.695C92.1358 124.674 93.9951 125.44 95.9364 125.969C97.9722 126.524 100.063 126.808 102.155 126.821L102.251 104.232C102.123 104.227 101.997 104.208 101.873 104.174C101.846 104.167 101.819 104.159 101.793 104.151ZM102.751 104.174L102.655 126.82C104.617 126.792 106.578 126.526 108.493 126.021C110.54 125.482 112.5 124.679 114.324 123.639L103.112 104.028C102.998 104.09 102.877 104.139 102.751 104.174ZM103.513 103.721L114.756 123.387C116.434 122.384 117.992 121.177 119.393 119.788C120.837 118.356 122.089 116.755 123.124 115.024L103.59 103.635C103.565 103.665 103.54 103.693 103.513 103.721ZM103.85 103.208L123.377 114.593C124.388 112.822 125.176 110.924 125.716 108.94C126.256 106.96 126.539 104.928 126.567 102.893L103.962 102.796C103.953 102.866 103.938 102.935 103.92 103.004C103.901 103.073 103.877 103.142 103.85 103.208ZM103.956 102.296L126.568 102.393C126.561 101.429 126.497 100.465 126.375 99.5064C126.278 98.7442 126.145 97.9854 125.975 97.2326C125.912 96.9492 125.843 96.6667 125.768 96.3852C125.243 94.3902 124.467 92.4793 123.466 90.6955L103.845 101.913C103.877 101.986 103.903 102.063 103.923 102.141C103.937 102.192 103.948 102.244 103.956 102.296ZM103.582 101.487L123.217 90.262C122.198 88.5301 120.963 86.9242 119.535 85.485C118.105 84.0431 116.506 82.7928 114.779 81.7579L103.389 101.294C103.426 101.325 103.461 101.357 103.495 101.392C103.525 101.422 103.554 101.454 103.582 101.487ZM102.963 101.031L114.348 81.5054C112.575 80.4924 110.674 79.7029 108.687 79.1617C106.679 78.6146 104.617 78.3306 102.553 78.3101L102.457 100.905C102.555 100.913 102.653 100.931 102.749 100.957C102.822 100.977 102.894 101.002 102.963 101.031ZM101.957 100.936L102.053 78.3103C100.062 78.3315 98.073 78.5979 96.1311 79.1096C94.084 79.649 92.1253 80.4516 90.3016 81.4909L101.513 101.102C101.63 101.038 101.756 100.988 101.886 100.953C101.91 100.947 101.933 100.941 101.957 100.936ZM101.112 101.407L89.8698 81.743C88.1906 82.7463 86.6318 83.9533 85.231 85.3425C83.768 86.7935 82.5022 88.4184 81.4586 90.1746L100.983 101.558C101.022 101.505 101.065 101.455 101.112 101.407ZM21.1843 55.0321L40.1951 66.1162C43.3316 60.7713 47.1582 55.8307 51.5962 51.4294C55.9752 47.0866 60.8742 43.3435 66.1629 40.2745L55.2411 21.1698C48.2892 25.1899 41.8513 30.1011 36.1003 35.8044C30.2915 41.5652 25.285 48.0336 21.1843 55.0321ZM8.28379 102.579C8.2848 110.627 9.31905 118.676 11.3874 126.525C13.4865 134.492 16.6137 142.112 20.665 149.204L39.7698 138.282C36.6685 132.852 34.2744 127.017 32.6672 120.918C31.0912 114.937 30.2991 108.805 30.29 102.673L8.28379 102.579ZM30.79 102.675C30.7992 108.763 31.5859 114.852 33.1507 120.79C34.7467 126.847 37.1241 132.641 40.2039 138.034L59.3094 127.112C57.1797 123.381 55.5355 119.373 54.4314 115.183C53.3591 111.113 52.8146 106.941 52.7975 102.768L30.79 102.675ZM53.2975 102.771C53.3147 106.9 53.8537 111.028 54.9149 115.055C56.0078 119.203 57.6354 123.17 59.7435 126.864L80.8028 114.825C79.742 112.963 78.9226 110.964 78.372 108.874C77.9294 107.195 77.6667 105.48 77.5836 103.76C77.5694 103.464 77.5604 103.169 77.5568 102.874L53.2975 102.771ZM35.548 168.777C29.845 163.027 24.9341 156.589 20.9142 149.638L40.0193 138.716C43.0881 144.004 46.8309 148.902 51.1732 153.281C55.5872 157.732 60.5435 161.567 65.9061 164.709L54.8216 183.72C47.8055 179.615 41.3214 174.599 35.548 168.777ZM51.5282 152.929C47.2168 148.581 43.5006 143.718 40.4534 138.468L59.5595 127.545C61.6555 131.132 64.2036 134.457 67.1543 137.432C70.1778 140.481 73.5714 143.11 77.2426 145.265L66.1579 164.277C60.8329 161.157 55.9113 157.348 51.5282 152.929ZM67.5093 137.08C64.5895 134.136 62.068 130.846 59.9936 127.297L81.0548 115.256C82.0798 116.973 83.3134 118.567 84.7335 119.999C86.2274 121.505 87.902 122.807 89.7127 123.877L77.4944 144.833C73.8608 142.7 70.5019 140.098 67.5093 137.08ZM55.2539 183.972C62.2395 188.01 69.7457 191.149 77.5976 193.288C85.5397 195.452 93.696 196.553 101.857 196.593L101.951 174.586C95.7039 174.555 89.4607 173.711 83.3813 172.055C77.3938 170.424 71.6688 168.033 66.3384 164.96L55.2539 183.972ZM66.5902 164.528C71.883 167.579 77.5676 169.953 83.5127 171.573C89.5498 173.217 95.7495 174.055 101.953 174.086L102.047 152.079C97.7578 152.057 93.4714 151.476 89.2974 150.339C85.2164 149.228 81.3128 147.603 77.675 145.516L66.5902 164.528ZM77.9269 145.084C81.527 147.149 85.3902 148.757 89.4288 149.857C93.5605 150.982 97.8034 151.557 102.049 151.58L102.152 127.323C100.017 127.309 97.8832 127.019 95.8051 126.453C93.8212 125.912 91.9212 125.129 90.1456 124.127L77.9269 145.084ZM126.269 193.49C118.431 195.556 110.394 196.59 102.357 196.594L102.451 174.587C108.572 174.575 114.692 173.783 120.662 172.21C126.762 170.602 132.598 168.208 138.029 165.105L148.951 184.211C141.858 188.263 134.237 191.391 126.269 193.49ZM120.534 171.726C114.607 173.288 108.53 174.075 102.453 174.087L102.547 152.08C106.709 152.06 110.869 151.515 114.928 150.446C119.118 149.342 123.128 147.697 126.859 145.567L137.781 164.671C132.387 167.752 126.592 170.13 120.534 171.726ZM114.8 149.962C110.784 151.021 106.667 151.56 102.549 151.58L102.652 127.321C104.659 127.293 106.663 127.022 108.62 126.506C110.711 125.955 112.71 125.135 114.572 124.074L126.611 145.132C122.917 147.241 118.949 148.869 114.8 149.962ZM149.385 183.961C156.335 179.942 162.771 175.032 168.521 169.33C174.312 163.587 179.305 157.141 183.399 150.167L164.387 139.082C161.258 144.402 157.444 149.32 153.025 153.704C148.647 158.045 143.75 161.787 138.463 164.856L149.385 183.961ZM138.214 164.422C143.464 161.375 148.326 157.659 152.672 153.349C157.061 148.996 160.848 144.113 163.955 138.831L144.944 127.746C142.801 131.375 140.195 134.73 137.177 137.723C134.202 140.673 130.879 143.221 127.292 145.316L138.214 164.422ZM127.044 144.882C130.593 142.808 133.881 140.287 136.825 137.368C139.812 134.406 142.391 131.085 144.512 127.495L123.557 115.277C122.499 117.045 121.22 118.681 119.745 120.144C118.314 121.564 116.72 122.797 115.004 123.822L127.044 144.882ZM193.032 127.28C190.881 135.174 187.72 142.718 183.651 149.735L164.639 138.651C167.744 133.288 170.156 127.525 171.799 121.496C173.44 115.471 174.283 109.286 174.329 103.096L196.335 103.19C196.282 111.294 195.18 119.393 193.032 127.28ZM171.316 121.364C169.685 127.351 167.29 133.074 164.207 138.399L145.196 127.315C147.314 123.645 148.961 119.703 150.084 115.58C151.206 111.461 151.786 107.233 151.823 103L173.829 103.094C173.783 109.241 172.946 115.382 171.316 121.364ZM149.602 115.448C148.49 119.529 146.86 123.431 144.765 127.063L123.809 114.845C124.842 113.037 125.647 111.099 126.199 109.073C126.75 107.05 127.039 104.974 127.067 102.895L151.323 102.998C151.286 107.187 150.712 111.372 149.602 115.448ZM196.337 102.69C196.348 94.5968 195.314 86.5016 193.234 78.6085C191.148 70.6945 188.048 63.1217 184.036 56.0689L164.931 66.9908C167.993 72.3817 170.36 78.1685 171.954 84.2154C173.541 90.2402 174.333 96.4187 174.331 102.596L196.337 102.69ZM173.831 102.594C173.833 96.46 173.046 90.3252 171.47 84.3428C169.888 78.3383 167.538 72.5921 164.497 67.239L145.393 78.1605C147.484 81.8518 149.101 85.8122 150.191 89.9498C151.275 94.0638 151.82 98.282 151.825 102.5L173.831 102.594ZM151.325 102.498C151.319 98.3234 150.78 94.1487 149.707 90.0772C148.628 85.982 147.028 82.0622 144.958 78.4087L123.901 90.4472C124.923 92.2685 125.715 94.2197 126.252 96.2567C126.358 96.6593 126.453 97.0638 126.539 97.47C126.677 98.1242 126.787 98.7825 126.871 99.4434C126.996 100.423 127.062 101.409 127.068 102.395L151.325 102.498ZM169.073 36.3567C174.814 42.1456 179.752 48.6305 183.787 55.635L164.682 66.557C161.598 61.2155 157.828 56.2694 153.448 51.8524C149.067 47.4354 144.152 43.624 138.837 40.4959L149.921 21.485C156.89 25.5774 163.333 30.5688 169.073 36.3567ZM153.093 52.2045C157.442 56.5903 161.186 61.5014 164.248 66.8051L145.144 77.7267C143.033 74.0861 140.457 70.714 137.468 67.7002C134.478 64.685 131.126 62.0804 127.501 59.9385L138.585 40.9279C143.863 44.0341 148.743 47.8186 153.093 52.2045ZM137.113 68.0523C140.071 71.0349 142.62 74.3721 144.71 77.9749L123.651 90.0136C122.61 88.2436 121.349 86.6025 119.89 85.1319C118.43 83.659 116.796 82.382 115.031 81.3252L127.249 60.3704C130.836 62.4905 134.154 65.0683 137.113 68.0523ZM149.489 21.2329C142.469 17.1608 134.921 13.9973 127.024 11.8459C119.11 9.69014 110.983 8.58845 102.851 8.54175L102.757 30.5476C108.975 30.5861 115.188 31.4299 121.239 33.0782C127.273 34.7218 133.04 37.1366 138.405 40.2438L149.489 21.2329ZM138.153 40.6758C132.825 37.5904 127.099 35.1927 121.108 33.5606C115.099 31.9238 108.929 31.0859 102.755 31.0475L102.661 53.0534C106.922 53.0835 111.179 53.6635 115.325 54.7929C119.451 55.917 123.397 57.5659 127.069 59.6863L138.153 40.6758ZM126.817 60.1182C123.182 58.0198 119.278 56.3879 115.193 55.2754C111.09 54.1574 106.876 53.5833 102.659 53.5534L102.555 77.8091C104.663 77.8299 106.768 78.1197 108.819 78.6783C110.848 79.2311 112.79 80.0377 114.6 81.0727L126.817 60.1182ZM78.3521 11.6438C86.2183 9.57102 94.2851 8.53678 102.351 8.54021L102.257 30.5462C96.1071 30.5508 89.957 31.3429 83.9592 32.9234C77.8605 34.5304 72.0264 36.9242 66.5963 40.0251L55.6746 20.9207C62.7666 16.8698 70.3865 13.7428 78.3521 11.6438ZM84.0866 33.4069C90.042 31.8376 96.1485 31.0509 102.255 31.0462L102.161 53.0524C97.9708 53.0651 93.7814 53.6096 89.6947 54.6865C85.5051 55.7904 81.4971 57.4345 77.7663 59.5639L66.8444 40.4591C72.2368 37.3798 78.0303 35.0027 84.0866 33.4069ZM89.8221 55.17C93.8663 54.1043 98.0122 53.5653 102.159 53.5524L102.055 77.8092C100.021 77.8303 97.9881 78.1022 96.0037 78.6251C93.9139 79.1757 91.9146 79.9951 90.053 81.0561L78.0145 59.998C81.7075 57.8901 85.6749 56.2628 89.8221 55.17Z" fill="#0284D2"/>
</g>
<g opacity="0.8">
<circle cx="102.056" cy="102.619" r="24.4209" fill="#4396F7" fill-opacity="0.1"/>
<circle cx="102.056" cy="102.619" r="49.3232" fill="#4396F7" fill-opacity="0.1"/>
<circle cx="102.056" cy="102.619" r="71.9546" fill="#4396F7" fill-opacity="0.1"/>
<circle cx="102.055" cy="102.619" r="94.3093" fill="#4396F7" fill-opacity="0.1"/>
</g>
<path opacity="0.8" fill-rule="evenodd" clip-rule="evenodd" d="M114.86 55.3359C106.56 53.112 97.8209 53.112 89.5212 55.3359C81.2214 57.5598 73.6533 61.9293 67.5774 68.0051C61.5016 74.081 57.1321 81.6491 54.9082 89.9489C53.795 94.1032 53.2391 98.3675 53.2402 102.632H77.647C77.647 102.632 77.9049 105.887 78.7443 109.297C79.5843 112.71 81.0677 114.954 81.0677 114.954L59.8824 127.238C61.9967 130.872 64.5793 134.233 67.5774 137.231C73.6533 143.307 81.2214 147.676 89.5212 149.9C93.7122 151.023 98.0151 151.579 102.317 151.568V102.632L114.659 123.96C114.659 123.96 117.064 122.419 119.938 119.771L123.54 114.954L144.498 127.238C146.669 123.508 148.346 119.492 149.473 115.287C151.697 106.988 151.697 98.2487 149.473 89.9489C148.346 85.7446 147.306 81.8568 145.135 78.1268L123.54 90.4599C123.54 90.4599 122.263 88.2723 119.817 85.8104C117.403 83.381 114.86 81.0955 114.86 81.0955L127.102 60.0935C123.399 57.9502 119.028 56.4527 114.86 55.3359Z" fill="#4396F7"/>
<g style="mix-blend-mode:screen">
<path fill-rule="evenodd" clip-rule="evenodd" d="M102.882 1.17316L102.853 8.04176C111.029 8.08864 119.199 9.19619 127.155 11.3635C135.095 13.5264 142.683 16.707 149.741 20.801L153.061 15.1057L153.493 15.3576L150.173 21.053C157.18 25.1673 163.657 30.1855 169.428 36.0047C175.2 41.8247 180.165 48.3446 184.221 55.3868L190.111 52.0195L190.36 52.4536L184.47 55.8208C188.504 62.9114 191.621 70.5247 193.717 78.4811C195.808 86.4167 196.848 94.5554 196.837 102.692L203.877 102.722L203.875 103.222L196.835 103.192C196.781 111.34 195.674 119.482 193.514 127.411C191.352 135.347 188.174 142.932 184.083 149.987L189.94 153.402L189.689 153.834L183.831 150.419C179.715 157.43 174.695 163.911 168.873 169.685C163.092 175.418 156.621 180.354 149.633 184.395L153.029 190.335L152.595 190.583L149.2 184.645C142.068 188.718 134.406 191.863 126.396 193.974C118.516 196.05 110.435 197.09 102.355 197.094L102.325 204.101L101.825 204.099L101.855 197.093C93.6504 197.053 85.4506 195.945 77.4662 193.77C69.5719 191.62 62.0252 188.464 55.002 184.404L51.6438 190.163L51.2119 189.911L54.5698 184.152C47.5161 180.025 40.9973 174.982 35.193 169.129C29.4591 163.348 24.5216 156.875 20.4801 149.886L14.5949 153.25L14.3467 152.816L20.231 149.452C16.1581 142.322 13.0142 134.661 10.9039 126.653C8.82437 118.761 7.78462 110.668 7.78379 102.577L0.829131 102.547L0.831261 102.047L7.78506 102.077C7.82755 93.8836 8.9352 85.6957 11.1071 77.7226C13.2623 69.811 16.4279 62.2486 20.5008 55.2123L14.7658 51.8685L15.0176 51.4366L20.7524 54.7802C24.875 47.7442 29.9083 41.2411 35.7482 35.4494C41.5304 29.7151 48.0033 24.7774 54.9929 20.7357L51.6766 14.9348L52.1107 14.6867L55.4264 20.4866C62.5562 16.4141 70.2166 13.2704 78.2247 11.1603C86.1334 9.07634 94.2437 8.0366 102.353 8.04021L102.382 1.17103L102.882 1.17316ZM11.5895 77.854C13.7332 69.9848 16.8817 62.4628 20.9327 55.4641L39.9435 66.5483C36.8575 71.8918 34.4578 77.6327 32.822 83.6375C31.169 89.7056 30.3251 95.937 30.291 102.173L8.28506 102.079C8.32736 93.9292 9.42915 85.7848 11.5895 77.854ZM33.3044 83.769C34.9287 77.8064 37.3114 72.1061 40.3755 66.8001L59.3872 77.8848C57.288 81.5354 55.6542 85.4545 54.5379 89.5525C53.4038 93.7156 52.8237 97.9905 52.798 102.268L30.791 102.175C30.825 95.9827 31.663 89.7947 33.3044 83.769ZM40.627 66.368L59.6386 77.4526C61.789 73.7987 64.4089 70.4204 67.4451 67.4093C70.4208 64.4583 73.7456 61.9101 77.3333 59.814L66.4111 40.7086C61.1601 43.756 56.2961 47.4726 51.9483 51.7844C47.5414 56.1548 43.7416 61.0607 40.627 66.368ZM55.0203 89.6839C56.1251 85.6283 57.7419 81.7496 59.8191 78.1366L80.7752 90.355C79.7615 92.143 78.9701 94.0579 78.4253 96.0581C77.9255 97.8928 77.6409 99.7711 77.5716 101.655C77.5628 101.895 77.5575 102.134 77.5556 102.374L53.298 102.271C53.3235 98.0361 53.8978 93.8047 55.0203 89.6839ZM60.0705 77.7044L81.0262 89.9225C82.0918 88.1284 83.3845 86.4685 84.8789 84.9865C86.3107 83.5665 87.9043 82.333 89.6211 81.308L77.5815 60.2481C74.0316 62.3226 70.7417 64.8443 67.7972 67.7644C64.7922 70.7446 62.199 74.0881 60.0705 77.7044ZM78.9077 96.1905C79.4411 94.2325 80.2156 92.3577 81.2077 90.6071L100.743 101.997C100.728 102.04 100.714 102.083 100.702 102.127C100.671 102.241 100.653 102.356 100.646 102.472L78.0556 102.376C78.0574 102.142 78.0627 101.908 78.0713 101.674C78.1392 99.8278 78.4181 97.9879 78.9077 96.1905ZM100.694 102.973L78.0568 102.876C78.0605 103.159 78.069 103.441 78.0825 103.723C78.1633 105.413 78.4209 107.096 78.8555 108.746C79.3951 110.793 80.1979 112.752 81.2374 114.576L100.848 103.365C100.783 103.247 100.733 103.122 100.699 102.991C100.697 102.985 100.695 102.979 100.694 102.973ZM101.154 103.766L81.4894 115.008C82.4927 116.687 83.6995 118.245 85.0885 119.646C86.5516 121.121 88.1917 122.396 89.965 123.445L101.346 103.925C101.278 103.877 101.214 103.824 101.154 103.766ZM101.793 104.151L90.398 123.695C92.1358 124.674 93.9951 125.44 95.9364 125.969C97.9722 126.524 100.063 126.808 102.155 126.821L102.251 104.232C102.123 104.227 101.997 104.208 101.873 104.174C101.846 104.167 101.819 104.159 101.793 104.151ZM102.751 104.174L102.655 126.82C104.617 126.792 106.578 126.526 108.493 126.021C110.54 125.482 112.5 124.679 114.324 123.639L103.112 104.028C102.998 104.09 102.877 104.139 102.751 104.174ZM103.513 103.721L114.756 123.387C116.434 122.384 117.992 121.177 119.393 119.788C120.837 118.356 122.089 116.755 123.124 115.024L103.59 103.635C103.565 103.665 103.54 103.693 103.513 103.721ZM103.85 103.208L123.377 114.593C124.388 112.822 125.176 110.924 125.716 108.94C126.256 106.96 126.539 104.928 126.567 102.893L103.962 102.796C103.953 102.866 103.938 102.935 103.92 103.004C103.901 103.073 103.877 103.142 103.85 103.208ZM103.956 102.296L126.568 102.393C126.561 101.429 126.497 100.465 126.375 99.5064C126.278 98.7442 126.145 97.9854 125.975 97.2326C125.912 96.9492 125.843 96.6667 125.768 96.3852C125.243 94.3902 124.467 92.4793 123.466 90.6955L103.845 101.913C103.877 101.986 103.903 102.063 103.923 102.141C103.937 102.192 103.948 102.244 103.956 102.296ZM103.582 101.487L123.217 90.262C122.198 88.5301 120.963 86.9242 119.535 85.485C118.105 84.0431 116.506 82.7928 114.779 81.7579L103.389 101.294C103.426 101.325 103.461 101.357 103.495 101.392C103.525 101.422 103.554 101.454 103.582 101.487ZM102.963 101.031L114.348 81.5054C112.575 80.4924 110.674 79.7029 108.687 79.1617C106.679 78.6146 104.617 78.3306 102.553 78.3101L102.457 100.905C102.555 100.913 102.653 100.931 102.749 100.957C102.822 100.977 102.894 101.002 102.963 101.031ZM101.957 100.936L102.053 78.3103C100.062 78.3315 98.073 78.5979 96.1311 79.1096C94.084 79.649 92.1253 80.4516 90.3016 81.4909L101.513 101.102C101.63 101.038 101.756 100.988 101.886 100.953C101.91 100.947 101.933 100.941 101.957 100.936ZM101.112 101.407L89.8698 81.743C88.1906 82.7463 86.6318 83.9533 85.231 85.3425C83.768 86.7935 82.5022 88.4184 81.4586 90.1746L100.983 101.558C101.022 101.505 101.065 101.455 101.112 101.407ZM21.1843 55.0321L40.1951 66.1162C43.3316 60.7713 47.1582 55.8307 51.5962 51.4294C55.9752 47.0866 60.8742 43.3435 66.1629 40.2745L55.2411 21.1698C48.2892 25.1899 41.8513 30.1011 36.1003 35.8044C30.2915 41.5652 25.285 48.0336 21.1843 55.0321ZM8.28379 102.579C8.2848 110.627 9.31905 118.676 11.3874 126.525C13.4865 134.492 16.6137 142.112 20.665 149.204L39.7698 138.282C36.6685 132.852 34.2744 127.017 32.6672 120.918C31.0912 114.937 30.2991 108.805 30.29 102.673L8.28379 102.579ZM30.79 102.675C30.7992 108.763 31.5859 114.852 33.1507 120.79C34.7467 126.847 37.1241 132.641 40.2039 138.034L59.3094 127.112C57.1797 123.381 55.5355 119.373 54.4314 115.183C53.3591 111.113 52.8146 106.941 52.7975 102.768L30.79 102.675ZM53.2975 102.771C53.3147 106.9 53.8537 111.028 54.9149 115.055C56.0078 119.203 57.6354 123.17 59.7435 126.864L80.8028 114.825C79.742 112.963 78.9226 110.964 78.372 108.874C77.9294 107.195 77.6667 105.48 77.5836 103.76C77.5694 103.464 77.5604 103.169 77.5568 102.874L53.2975 102.771ZM35.548 168.777C29.845 163.027 24.9341 156.589 20.9142 149.638L40.0193 138.716C43.0881 144.004 46.8309 148.902 51.1732 153.281C55.5872 157.732 60.5435 161.567 65.9061 164.709L54.8216 183.72C47.8055 179.615 41.3214 174.599 35.548 168.777ZM51.5282 152.929C47.2168 148.581 43.5006 143.718 40.4534 138.468L59.5595 127.545C61.6555 131.132 64.2036 134.457 67.1543 137.432C70.1778 140.481 73.5714 143.11 77.2426 145.265L66.1579 164.277C60.8329 161.157 55.9113 157.348 51.5282 152.929ZM67.5093 137.08C64.5895 134.136 62.068 130.846 59.9936 127.297L81.0548 115.256C82.0798 116.973 83.3134 118.567 84.7335 119.999C86.2274 121.505 87.902 122.807 89.7127 123.877L77.4944 144.833C73.8608 142.7 70.5019 140.098 67.5093 137.08ZM55.2539 183.972C62.2395 188.01 69.7457 191.149 77.5976 193.288C85.5397 195.452 93.696 196.553 101.857 196.593L101.951 174.586C95.7039 174.555 89.4607 173.711 83.3813 172.055C77.3938 170.424 71.6688 168.033 66.3384 164.96L55.2539 183.972ZM66.5902 164.528C71.883 167.579 77.5676 169.953 83.5127 171.573C89.5498 173.217 95.7495 174.055 101.953 174.086L102.047 152.079C97.7578 152.057 93.4714 151.476 89.2974 150.339C85.2164 149.228 81.3128 147.603 77.675 145.516L66.5902 164.528ZM77.9269 145.084C81.527 147.149 85.3902 148.757 89.4288 149.857C93.5605 150.982 97.8034 151.557 102.049 151.58L102.152 127.323C100.017 127.309 97.8832 127.019 95.8051 126.453C93.8212 125.912 91.9212 125.129 90.1456 124.127L77.9269 145.084ZM126.269 193.49C118.431 195.556 110.394 196.59 102.357 196.594L102.451 174.587C108.572 174.575 114.692 173.783 120.662 172.21C126.762 170.602 132.598 168.208 138.029 165.105L148.951 184.211C141.858 188.263 134.237 191.391 126.269 193.49ZM120.534 171.726C114.607 173.288 108.53 174.075 102.453 174.087L102.547 152.08C106.709 152.06 110.869 151.515 114.928 150.446C119.118 149.342 123.128 147.697 126.859 145.567L137.781 164.671C132.387 167.752 126.592 170.13 120.534 171.726ZM114.8 149.962C110.784 151.021 106.667 151.56 102.549 151.58L102.652 127.321C104.659 127.293 106.663 127.022 108.62 126.506C110.711 125.955 112.71 125.135 114.572 124.074L126.611 145.132C122.917 147.241 118.949 148.869 114.8 149.962ZM149.385 183.961C156.335 179.942 162.771 175.032 168.521 169.33C174.312 163.587 179.305 157.141 183.399 150.167L164.387 139.082C161.258 144.402 157.444 149.32 153.025 153.704C148.647 158.045 143.75 161.787 138.463 164.856L149.385 183.961ZM138.214 164.422C143.464 161.375 148.326 157.659 152.672 153.349C157.061 148.996 160.848 144.113 163.955 138.831L144.944 127.746C142.801 131.375 140.195 134.73 137.177 137.723C134.202 140.673 130.879 143.221 127.292 145.316L138.214 164.422ZM127.044 144.882C130.593 142.808 133.881 140.287 136.825 137.368C139.812 134.406 142.391 131.085 144.512 127.495L123.557 115.277C122.499 117.045 121.22 118.681 119.745 120.144C118.314 121.564 116.72 122.797 115.004 123.822L127.044 144.882ZM193.032 127.28C190.881 135.174 187.72 142.718 183.651 149.735L164.639 138.651C167.744 133.288 170.156 127.525 171.799 121.496C173.44 115.471 174.283 109.286 174.329 103.096L196.335 103.19C196.282 111.294 195.18 119.393 193.032 127.28ZM171.316 121.364C169.685 127.351 167.29 133.074 164.207 138.399L145.196 127.315C147.314 123.645 148.961 119.703 150.084 115.58C151.206 111.461 151.786 107.233 151.823 103L173.829 103.094C173.783 109.241 172.946 115.382 171.316 121.364ZM149.602 115.448C148.49 119.529 146.86 123.431 144.765 127.063L123.809 114.845C124.842 113.037 125.647 111.099 126.199 109.073C126.75 107.05 127.039 104.974 127.067 102.895L151.323 102.998C151.286 107.187 150.712 111.372 149.602 115.448ZM196.337 102.69C196.348 94.5968 195.314 86.5016 193.234 78.6085C191.148 70.6945 188.048 63.1217 184.036 56.0689L164.931 66.9908C167.993 72.3817 170.36 78.1685 171.954 84.2154C173.541 90.2402 174.333 96.4187 174.331 102.596L196.337 102.69ZM173.831 102.594C173.833 96.46 173.046 90.3252 171.47 84.3428C169.888 78.3383 167.538 72.5921 164.497 67.239L145.393 78.1605C147.484 81.8518 149.101 85.8122 150.191 89.9498C151.275 94.0638 151.82 98.282 151.825 102.5L173.831 102.594ZM151.325 102.498C151.319 98.3234 150.78 94.1487 149.707 90.0772C148.628 85.982 147.028 82.0622 144.958 78.4087L123.901 90.4472C124.923 92.2685 125.715 94.2197 126.252 96.2567C126.358 96.6593 126.453 97.0638 126.539 97.47C126.677 98.1242 126.787 98.7825 126.871 99.4434C126.996 100.423 127.062 101.409 127.068 102.395L151.325 102.498ZM169.073 36.3567C174.814 42.1456 179.752 48.6305 183.787 55.635L164.682 66.557C161.598 61.2155 157.828 56.2694 153.448 51.8524C149.067 47.4354 144.152 43.624 138.837 40.4959L149.921 21.485C156.89 25.5774 163.333 30.5688 169.073 36.3567ZM153.093 52.2045C157.442 56.5903 161.186 61.5014 164.248 66.8051L145.144 77.7267C143.033 74.0861 140.457 70.714 137.468 67.7002C134.478 64.685 131.126 62.0804 127.501 59.9385L138.585 40.9279C143.863 44.0341 148.743 47.8186 153.093 52.2045ZM137.113 68.0523C140.071 71.0349 142.62 74.3721 144.71 77.9749L123.651 90.0136C122.61 88.2436 121.349 86.6025 119.89 85.1319C118.43 83.659 116.796 82.382 115.031 81.3252L127.249 60.3704C130.836 62.4905 134.154 65.0683 137.113 68.0523ZM149.489 21.2329C142.469 17.1608 134.921 13.9973 127.024 11.8459C119.11 9.69014 110.983 8.58845 102.851 8.54175L102.757 30.5476C108.975 30.5861 115.188 31.4299 121.239 33.0782C127.273 34.7218 133.04 37.1366 138.405 40.2438L149.489 21.2329ZM138.153 40.6758C132.825 37.5904 127.099 35.1927 121.108 33.5606C115.099 31.9238 108.929 31.0859 102.755 31.0475L102.661 53.0534C106.922 53.0835 111.179 53.6635 115.325 54.7929C119.451 55.917 123.397 57.5659 127.069 59.6863L138.153 40.6758ZM126.817 60.1182C123.182 58.0198 119.278 56.3879 115.193 55.2754C111.09 54.1574 106.876 53.5833 102.659 53.5534L102.555 77.8091C104.663 77.8299 106.768 78.1197 108.819 78.6783C110.848 79.2311 112.79 80.0377 114.6 81.0727L126.817 60.1182ZM78.3521 11.6438C86.2183 9.57102 94.2851 8.53678 102.351 8.54021L102.257 30.5462C96.1071 30.5508 89.957 31.3429 83.9592 32.9234C77.8605 34.5304 72.0264 36.9242 66.5963 40.0251L55.6746 20.9207C62.7666 16.8698 70.3865 13.7428 78.3521 11.6438ZM84.0866 33.4069C90.042 31.8376 96.1485 31.0509 102.255 31.0462L102.161 53.0524C97.9708 53.0651 93.7814 53.6096 89.6947 54.6865C85.5051 55.7904 81.4971 57.4345 77.7663 59.5639L66.8444 40.4591C72.2368 37.3798 78.0303 35.0027 84.0866 33.4069ZM89.8221 55.17C93.8663 54.1043 98.0122 53.5653 102.159 53.5524L102.055 77.8092C100.021 77.8303 97.9881 78.1022 96.0037 78.6251C93.9139 79.1757 91.9146 79.9951 90.053 81.0561L78.0145 59.998C81.7075 57.8901 85.6749 56.2628 89.8221 55.17Z" fill="white"/>
</g>
<circle cx="77.1266" cy="13.0814" r="8.23979" transform="rotate(0.237983 77.1266 13.0814)" fill="white" stroke="#4396F7" stroke-width="1.08116"/>
<circle cx="126.937" cy="13.2875" r="8.23979" transform="rotate(0.237983 126.937 13.2875)" fill="white" stroke="#4396F7" stroke-width="1.08116"/>
<circle cx="167.407" cy="34.8607" r="8.23979" transform="rotate(0.237983 167.407 34.8607)" fill="white" stroke="#4396F7" stroke-width="1.08116"/>
<circle cx="193.001" cy="78.9506" r="8.23979" transform="rotate(0.237983 193.001 78.9506)" fill="white" stroke="#4396F7" stroke-width="1.08116"/>
<circle cx="192.799" cy="127.564" r="8.23979" transform="rotate(0.237983 192.799 127.564)" fill="white" stroke="#4396F7" stroke-width="1.08116"/>
<circle cx="168.78" cy="169.759" r="8.23979" transform="rotate(0.237983 168.78 169.759)" fill="white" stroke="#4396F7" stroke-width="1.08116"/>
<circle cx="126.18" cy="195.323" r="8.23979" transform="rotate(0.237983 126.18 195.323)" fill="white" stroke="#4396F7" stroke-width="1.08116"/>
<circle cx="79.195" cy="195.127" r="8.23979" transform="rotate(0.237983 79.195 195.127)" fill="white" stroke="#4396F7" stroke-width="1.08116"/>
<circle cx="34.6833" cy="169.202" r="8.23979" transform="rotate(0.237983 34.6833 169.202)" fill="white" stroke="#4396F7" stroke-width="1.08116"/>
<circle cx="10.6012" cy="127.867" r="8.23979" transform="rotate(0.237983 10.6012 127.867)" fill="white" stroke="#4396F7" stroke-width="1.08116"/>
<circle cx="11.9704" cy="78.1986" r="8.23979" transform="rotate(0.237983 11.9704 78.1986)" fill="white" stroke="#4396F7" stroke-width="1.08116"/>
<circle cx="34.9391" cy="38.6918" r="8.23979" transform="rotate(0.237983 34.9391 38.6918)" fill="white" stroke="#4396F7" stroke-width="1.08116"/>
<path d="M103.619 113.406L103.057 113.404C102.888 114.328 102.126 114.55 101.287 114.547L101.285 115.135L102.876 115.141L102.858 119.535L103.593 119.538L103.619 113.406Z" fill="black"/>
<path d="M101.546 139.767C101.523 139.032 101.889 138.246 102.746 138.25C103.394 138.252 103.929 138.696 103.926 139.362C103.922 140.209 103.393 140.588 102.353 141.223C101.486 141.756 100.748 142.272 100.621 143.724L104.626 143.741L104.628 143.092L101.48 143.079C101.63 142.319 102.436 141.933 103.208 141.469C103.971 140.997 104.7 140.455 104.704 139.373C104.709 138.232 103.864 137.606 102.792 137.601C101.494 137.596 100.755 138.518 100.811 139.764L101.546 139.767Z" fill="black"/>
<path d="M102.211 164.742C102.35 164.725 102.506 164.717 102.653 164.718C103.379 164.721 103.957 165.13 103.954 165.899C103.951 166.643 103.335 167.082 102.617 167.079C101.778 167.075 101.339 166.52 101.316 165.724L100.581 165.721C100.55 166.984 101.369 167.722 102.614 167.728C103.765 167.732 104.727 167.096 104.732 165.868C104.735 165.133 104.375 164.543 103.631 164.376L103.632 164.359C104.099 164.144 104.482 163.679 104.484 163.143C104.489 162.009 103.687 161.496 102.623 161.491C101.395 161.486 100.769 162.297 100.72 163.464L101.456 163.467C101.467 162.749 101.816 162.137 102.62 162.14C103.243 162.143 103.708 162.491 103.706 163.131C103.703 163.797 103.157 164.132 102.534 164.129C102.43 164.129 102.326 164.128 102.214 164.119L102.211 164.742Z" fill="black"/>
<path d="M103.87 184.05L103.282 184.047L100.471 188.023L100.468 188.732L103.158 188.743L103.152 190.179L103.844 190.182L103.85 188.746L104.681 188.75L104.683 188.101L103.853 188.098L103.87 184.05ZM101.102 188.086L103.156 185.093L103.173 185.093L103.161 188.095L101.102 188.086Z" fill="black"/>
<path d="M125.837 11.6378C125.814 10.9025 126.181 10.1169 127.037 10.1205C127.686 10.1231 128.22 10.5665 128.217 11.2325C128.214 12.0801 127.685 12.4585 126.644 13.0942C125.777 13.6269 125.04 14.1428 124.912 15.5953L128.917 15.612L128.92 14.9633L125.771 14.9502C125.922 14.1897 126.728 13.8038 127.499 13.3399C128.262 12.8674 128.991 12.3255 128.996 11.2444C129 10.1027 128.155 9.47639 127.083 9.47194C125.786 9.46655 125.047 10.389 125.102 11.6347L125.837 11.6378Z" fill="black"/>
<path d="M77.9393 9.26793L77.3771 9.26559C77.209 10.1904 76.4469 10.4121 75.6079 10.4086L75.6055 10.9968L77.1969 11.0034L77.1787 15.3972L77.9139 15.4002L77.9393 9.26793Z" fill="black"/>
<path d="M166.89 34.5785C167.029 34.5618 167.185 34.5538 167.332 34.5544C168.058 34.5575 168.636 34.9664 168.633 35.7362C168.63 36.48 168.014 36.9185 167.296 36.9156C166.457 36.9121 166.018 36.3567 165.995 35.5609L165.26 35.5578C165.229 36.8205 166.048 37.5591 167.293 37.5643C168.444 37.569 169.406 36.933 169.411 35.7048C169.414 34.9696 169.054 34.3799 168.31 34.2125L168.311 34.1952C168.778 33.9809 169.161 33.5155 169.163 32.9792C169.168 31.8462 168.366 31.3325 167.302 31.3281C166.074 31.323 165.448 32.1334 165.399 33.3009L166.135 33.304C166.146 32.5861 166.495 31.9734 167.299 31.9768C167.922 31.9794 168.387 32.3273 168.385 32.9673C168.382 33.6333 167.836 33.9684 167.213 33.9658C167.109 33.9654 167.005 33.9649 166.893 33.9558L166.89 34.5785Z" fill="black"/>
<path d="M34.7528 38.1941C35.5918 38.1976 35.987 38.8307 35.9838 39.5918C35.9808 40.3183 35.5371 40.9479 34.7414 40.9446C33.937 40.9413 33.4724 40.3339 33.4756 39.5727C33.4788 38.803 33.9311 38.1907 34.7528 38.1941ZM36.6003 36.9304C36.518 35.9353 35.889 35.3619 34.877 35.3577C33.1299 35.3504 32.6129 36.9484 32.6059 38.635C32.6006 39.9237 32.8877 41.5856 34.7041 41.5931C36.2523 41.5996 36.7588 40.434 36.7625 39.5431C36.7672 38.4101 36.0702 37.5509 34.8939 37.546C34.2279 37.5433 33.7079 37.7833 33.3596 38.3441L33.3424 38.3267C33.3809 37.3841 33.5856 36.001 34.8397 36.0062C35.4192 36.0086 35.7983 36.3735 35.8652 36.9273L36.6003 36.9304Z" fill="black"/>
<path d="M194.238 75.0905L193.65 75.0881L190.84 79.0637L190.837 79.773L193.527 79.7841L193.521 81.2199L194.213 81.2228L194.219 79.787L195.049 79.7905L195.052 79.1418L194.221 79.1383L194.238 75.0905ZM191.471 79.1269L193.525 76.1341L193.542 76.1342L193.529 79.1355L191.471 79.1269Z" fill="black"/>
<path d="M194.479 124.46L191.451 124.447L190.867 127.628L191.499 127.665C191.785 127.32 192.176 127.088 192.643 127.09C193.464 127.094 194.024 127.675 194.021 128.488C194.017 129.466 193.418 129.939 192.717 129.936C191.982 129.933 191.474 129.455 191.433 128.824L190.698 128.821C190.719 129.928 191.582 130.58 192.645 130.585C194.073 130.591 194.795 129.59 194.799 128.552C194.805 127.151 193.917 126.447 192.827 126.442C192.412 126.441 191.953 126.577 191.683 126.879L191.666 126.861L192.002 125.098L194.476 125.108L194.479 124.46Z" fill="black"/>
<path d="M9.31814 128.799C9.32108 128.09 9.89387 127.625 10.6204 127.628C11.3123 127.631 11.8811 128.135 11.8783 128.801C11.8755 129.484 11.3544 129.992 10.6192 129.989C9.85811 129.986 9.31508 129.534 9.31814 128.799ZM8.76772 125.96C8.76542 126.513 9.10927 127.025 9.61871 127.235C8.93442 127.474 8.54287 128.035 8.53985 128.761C8.53464 130.015 9.44026 130.633 10.6166 130.638C11.7496 130.643 12.652 129.963 12.6569 128.778C12.66 128.017 12.3076 127.479 11.5734 127.243C12.076 127.02 12.4241 126.52 12.4263 125.975C12.4296 125.196 11.9139 124.407 10.5733 124.402C9.6305 124.398 8.77192 124.948 8.76772 125.96ZM9.54604 125.989C9.54859 125.375 10.0343 125.048 10.6225 125.051C11.2193 125.053 11.6504 125.383 11.6478 125.998C11.6452 126.62 11.2112 126.982 10.6317 126.979C10.0263 126.977 9.54324 126.663 9.54604 125.989Z" fill="black"/>
<path d="M13.9204 75.096L9.95046 75.0795L9.94759 75.7714L13.1651 75.7848C11.8707 77.146 10.8682 79.036 10.7211 81.1113L11.5428 81.1147C11.6632 79.195 12.6759 76.9504 13.9178 75.7274L13.9204 75.096Z" fill="black"/>
<path d="M167.07 166.532L166.508 166.53C166.34 167.455 165.578 167.677 164.739 167.673L164.737 168.261L166.328 168.268L166.31 172.662L167.045 172.665L167.07 166.532ZM169.904 168.715C169.881 167.98 170.248 167.194 171.104 167.198C171.753 167.201 172.287 167.644 172.284 168.31C172.281 169.157 171.752 169.536 170.711 170.172C169.844 170.704 169.107 171.22 168.98 172.673L172.984 172.689L172.987 172.041L169.839 172.028C169.989 171.267 170.795 170.881 171.566 170.417C172.33 169.945 173.058 169.403 173.063 168.322C173.068 167.18 172.223 166.554 171.15 166.549C169.853 166.544 169.114 167.466 169.169 168.712L169.904 168.715Z" fill="black"/>
<path d="M35.8253 167.604C35.8223 168.33 35.3353 168.951 34.5655 168.948C33.8563 168.945 33.3572 168.32 33.36 167.646C33.3632 166.893 33.6947 166.194 34.5683 166.197C35.39 166.201 35.8284 166.851 35.8253 167.604ZM32.7007 170.194C32.7915 171.25 33.5245 171.781 34.5537 171.785C36.0414 171.791 36.6864 170.609 36.6952 168.49C36.7048 166.172 35.7473 165.554 34.6056 165.549C33.4207 165.544 32.587 166.354 32.582 167.538C32.577 168.749 33.2655 169.591 34.5109 169.596C35.1077 169.599 35.654 169.272 35.9329 168.755L35.9502 168.772C35.9003 170.355 35.456 171.14 34.5564 171.136C33.9683 171.134 33.4853 170.794 33.4359 170.197L32.7007 170.194Z" fill="black"/>
<path d="M124.651 192.209L124.088 192.207C123.92 193.132 123.158 193.353 122.319 193.35L122.317 193.938L123.908 193.945L123.89 198.338L124.625 198.341L124.651 192.209ZM129.457 192.229L128.894 192.227C128.726 193.152 127.964 193.373 127.125 193.37L127.123 193.958L128.714 193.965L128.696 198.358L129.431 198.361L129.457 192.229Z" fill="black"/>
<path d="M77.4553 192.014L76.8931 192.011C76.7249 192.936 75.9628 193.158 75.1238 193.154L75.1214 193.743L76.7129 193.749L76.6946 198.143L77.4298 198.146L77.4553 192.014ZM79.5325 195.145C79.5269 196.494 79.6407 198.259 81.5608 198.267C83.4809 198.275 83.6093 196.511 83.6149 195.162C83.6206 193.804 83.5068 192.039 81.5867 192.031C79.6666 192.023 79.5381 193.787 79.5325 195.145ZM80.311 195.139C80.3147 194.231 80.3299 192.674 81.584 192.68C82.8381 192.685 82.8403 194.242 82.8365 195.15C82.8327 196.067 82.8176 197.624 81.5635 197.618C80.3093 197.613 80.3072 196.056 80.311 195.139Z" fill="black"/>
</svg>
