<svg width="205" height="205" viewBox="0 0 205 205" fill="none" xmlns="http://www.w3.org/2000/svg">
<g style="mix-blend-mode:darken" opacity="0.3">
<path fill-rule="evenodd" clip-rule="evenodd" d="M102.594 1.17316L102.565 8.04176C110.74 8.08864 118.911 9.19619 126.867 11.3635C134.807 13.5264 142.395 16.707 149.453 20.801L152.773 15.1057L153.205 15.3576L149.885 21.053C156.892 25.1673 163.369 30.1855 169.14 36.0047C174.912 41.8247 179.877 48.3446 183.933 55.3868L189.823 52.0195L190.071 52.4536L184.182 55.8208C188.216 62.9114 191.333 70.5247 193.429 78.4811C195.52 86.4167 196.56 94.5554 196.549 102.692L203.589 102.722L203.587 103.222L196.547 103.192C196.493 111.34 195.386 119.482 193.226 127.411C191.064 135.347 187.886 142.932 183.795 149.987L189.652 153.402L189.401 153.834L183.543 150.419C179.427 157.43 174.407 163.911 168.585 169.685C162.804 175.418 156.333 180.354 149.345 184.395L152.741 190.335L152.307 190.583L148.911 184.645C141.78 188.718 134.118 191.863 126.108 193.974C118.228 196.05 110.147 197.09 102.067 197.094L102.037 204.101L101.537 204.099L101.567 197.093C93.3623 197.053 85.1625 195.945 77.1781 193.77C69.2838 191.62 61.7372 188.464 54.7139 184.404L51.3557 190.163L50.9238 189.911L54.2817 184.152C47.228 180.025 40.7092 174.982 34.9049 169.129C29.171 163.348 24.2335 156.875 20.192 149.886L14.3068 153.25L14.0587 152.816L19.9429 149.452C15.87 142.322 12.7261 134.661 10.6158 126.653C8.53628 118.761 7.49653 110.668 7.4957 102.577L0.541045 102.547L0.543175 102.047L7.49697 102.077C7.53947 93.8836 8.64711 85.6957 10.819 77.7226C12.9742 69.811 16.1398 62.2486 20.2127 55.2123L14.4777 51.8685L14.7296 51.4366L20.4643 54.7802C24.5869 47.7442 29.6202 41.2411 35.4602 35.4494C41.2423 29.7151 47.7152 24.7774 54.7048 20.7357L51.3885 14.9348L51.8226 14.6867L55.1383 20.4866C62.2681 16.4141 69.9285 13.2704 77.9366 11.1603C85.8453 9.07634 93.9557 8.0366 102.065 8.04021L102.094 1.17103L102.594 1.17316ZM11.3014 77.854C13.4451 69.9848 16.5937 62.4628 20.6446 55.4641L39.6555 66.5483C36.5694 71.8918 34.1697 77.6327 32.5339 83.6375C30.8809 89.7056 30.0371 95.937 30.0029 102.173L7.99697 102.079C8.03928 93.9292 9.14106 85.7848 11.3014 77.854ZM33.0163 83.769C34.6406 77.8064 37.0233 72.1061 40.0874 66.8001L59.0991 77.8848C56.9999 81.5354 55.3661 85.4545 54.2498 89.5525C53.1157 93.7156 52.5356 97.9905 52.5099 102.268L30.5029 102.175C30.5369 95.9827 31.3749 89.7947 33.0163 83.769ZM40.339 66.368L59.3505 77.4526C61.5009 73.7987 64.1208 70.4204 67.1571 67.4093C70.1327 64.4583 73.4576 61.9101 77.0452 59.814L66.123 40.7086C60.872 43.756 56.008 47.4726 51.6602 51.7844C47.2533 56.1548 43.4535 61.0607 40.339 66.368ZM54.7322 89.6839C55.837 85.6283 57.4538 81.7496 59.531 78.1366L80.4872 90.355C79.4735 92.143 78.682 94.0579 78.1372 96.0581C77.6374 97.8928 77.3528 99.7711 77.2835 101.655C77.2747 101.895 77.2694 102.134 77.2675 102.374L53.0099 102.271C53.0354 98.0361 53.6097 93.8047 54.7322 89.6839ZM59.7824 77.7044L80.7381 89.9225C81.8037 88.1284 83.0964 86.4685 84.5908 84.9865C86.0227 83.5665 87.6162 82.333 89.3331 81.308L77.2934 60.2481C73.7435 62.3226 70.4536 64.8443 67.5091 67.7644C64.5041 70.7446 61.9109 74.0881 59.7824 77.7044ZM78.6196 96.1905C79.153 94.2325 79.9276 92.3577 80.9196 90.6071L100.455 101.997C100.44 102.04 100.426 102.083 100.414 102.127C100.383 102.241 100.365 102.356 100.358 102.472L77.7675 102.376C77.7694 102.142 77.7746 101.908 77.7832 101.674C77.8511 99.8278 78.13 97.9879 78.6196 96.1905ZM100.406 102.973L77.7688 102.876C77.7724 103.159 77.7809 103.441 77.7944 103.723C77.8752 105.413 78.1329 107.096 78.5674 108.746C79.107 110.793 79.9098 112.752 80.9493 114.576L100.56 103.365C100.495 103.247 100.445 103.122 100.411 102.991C100.409 102.985 100.407 102.979 100.406 102.973ZM100.866 103.766L81.2013 115.008C82.2046 116.687 83.4114 118.245 84.8004 119.646C86.2635 121.121 87.9036 122.396 89.6769 123.445L101.058 103.925C100.99 103.877 100.926 103.824 100.866 103.766ZM101.505 104.151L90.1099 123.695C91.8477 124.674 93.707 125.44 95.6484 125.969C97.6841 126.524 99.7745 126.808 101.866 126.821L101.963 104.232C101.835 104.227 101.709 104.208 101.585 104.174C101.558 104.167 101.531 104.159 101.505 104.151ZM102.463 104.174L102.366 126.82C104.329 126.792 106.29 126.526 108.205 126.021C110.252 125.482 112.211 124.679 114.036 123.639L102.824 104.028C102.71 104.09 102.589 104.139 102.463 104.174ZM103.225 103.721L114.467 123.387C116.146 122.384 117.704 121.177 119.105 119.788C120.549 118.356 121.801 116.755 122.836 115.024L103.302 103.635C103.277 103.665 103.252 103.693 103.225 103.721ZM103.562 103.208L123.089 114.593C124.1 112.822 124.888 110.924 125.428 108.94C125.968 106.96 126.251 104.928 126.279 102.893L103.674 102.796C103.665 102.866 103.65 102.935 103.632 103.004C103.613 103.073 103.589 103.142 103.562 103.208ZM103.668 102.296L126.28 102.393C126.273 101.429 126.209 100.465 126.087 99.5064C125.99 98.7442 125.857 97.9854 125.687 97.2326C125.624 96.9492 125.555 96.6667 125.48 96.3852C124.955 94.3902 124.179 92.4793 123.178 90.6955L103.557 101.913C103.588 101.986 103.615 102.063 103.635 102.141C103.649 102.192 103.66 102.244 103.668 102.296ZM103.294 101.487L122.929 90.262C121.91 88.5301 120.675 86.9242 119.247 85.485C117.817 84.0431 116.218 82.7928 114.491 81.7579L103.101 101.294C103.137 101.325 103.173 101.357 103.207 101.392C103.237 101.422 103.266 101.454 103.294 101.487ZM102.675 101.031L114.06 81.5054C112.287 80.4924 110.386 79.7029 108.399 79.1617C106.391 78.6146 104.329 78.3306 102.265 78.3101L102.169 100.905C102.267 100.913 102.365 100.931 102.461 100.957C102.534 100.977 102.606 101.002 102.675 101.031ZM101.669 100.936L101.765 78.3103C99.7742 78.3315 97.785 78.5979 95.8431 79.1096C93.7959 79.649 91.8372 80.4516 90.0136 81.4909L101.225 101.102C101.342 101.038 101.467 100.988 101.598 100.953C101.622 100.947 101.645 100.941 101.669 100.936ZM100.823 101.407L89.5817 81.743C87.9025 82.7463 86.3437 83.9533 84.9429 85.3425C83.4799 86.7935 82.2142 88.4184 81.1706 90.1746L100.694 101.558C100.734 101.505 100.777 101.455 100.823 101.407ZM20.8963 55.0321L39.907 66.1162C43.0435 60.7713 46.8701 55.8307 51.3081 51.4294C55.6871 47.0866 60.5861 43.3435 65.8748 40.2745L54.953 21.1698C48.0011 25.1899 41.5632 30.1011 35.8122 35.8044C30.0034 41.5652 24.9969 48.0336 20.8963 55.0321ZM7.9957 102.579C7.99671 110.627 9.03096 118.676 11.0993 126.525C13.1984 134.492 16.3257 142.112 20.3769 149.204L39.4817 138.282C36.3804 132.852 33.9863 127.017 32.3791 120.918C30.8031 114.937 30.011 108.805 30.0019 102.673L7.9957 102.579ZM30.5019 102.675C30.5112 108.763 31.2978 114.852 32.8626 120.79C34.4586 126.847 36.836 132.641 39.9158 138.034L59.0214 127.112C56.8916 123.381 55.2474 119.373 54.1433 115.183C53.071 111.113 52.5265 106.941 52.5094 102.768L30.5019 102.675ZM53.0094 102.771C53.0267 106.9 53.5657 111.028 54.6268 115.055C55.7197 119.203 57.3473 123.17 59.4554 126.864L80.5147 114.825C79.4539 112.963 78.6346 110.964 78.0839 108.874C77.6414 107.195 77.3786 105.48 77.2956 103.76C77.2813 103.464 77.2724 103.169 77.2687 102.874L53.0094 102.771ZM35.2599 168.777C29.5569 163.027 24.646 156.589 20.6261 149.638L39.7312 138.716C42.8 144.004 46.5428 148.902 50.8851 153.281C55.2991 157.732 60.2554 161.567 65.618 164.709L54.5336 183.72C47.5174 179.615 41.0333 174.599 35.2599 168.777ZM51.2401 152.929C46.9287 148.581 43.2125 143.718 40.1653 138.468L59.2714 127.545C61.3674 131.132 63.9155 134.457 66.8662 137.432C69.8897 140.481 73.2833 143.11 76.9545 145.265L65.8698 164.277C60.5448 161.157 55.6232 157.348 51.2401 152.929ZM67.2212 137.08C64.3014 134.136 61.7799 130.846 59.7055 127.297L80.7667 115.256C81.7917 116.973 83.0253 118.567 84.4454 119.999C85.9393 121.505 87.6139 122.807 89.4246 123.877L77.2063 144.833C73.5727 142.7 70.2138 140.098 67.2212 137.08ZM54.9658 183.972C61.9514 188.01 69.4576 191.149 77.3095 193.288C85.2516 195.452 93.4079 196.553 101.569 196.593L101.663 174.586C95.4158 174.555 89.1726 173.711 83.0932 172.055C77.1057 170.424 71.3807 168.033 66.0503 164.96L54.9658 183.972ZM66.3021 164.528C71.5949 167.579 77.2795 169.953 83.2246 171.573C89.2617 173.217 95.4615 174.055 101.665 174.086L101.759 152.079C97.4697 152.057 93.1833 151.476 89.0093 150.339C84.9283 149.228 81.0247 147.603 77.387 145.516L66.3021 164.528ZM77.6388 145.084C81.239 147.149 85.1021 148.757 89.1408 149.857C93.2724 150.982 97.5153 151.557 101.761 151.58L101.864 127.323C99.7289 127.309 97.5951 127.019 95.517 126.453C93.5331 125.912 91.6331 125.129 89.8576 124.127L77.6388 145.084ZM125.981 193.49C118.143 195.556 110.106 196.59 102.069 196.594L102.163 174.587C108.284 174.575 114.404 173.783 120.373 172.21C126.474 170.602 132.31 168.208 137.741 165.105L148.663 184.211C141.57 188.263 133.948 191.391 125.981 193.49ZM120.246 171.726C114.319 173.288 108.242 174.075 102.165 174.087L102.259 152.08C106.42 152.06 110.581 151.515 114.639 150.446C118.83 149.342 122.839 147.697 126.571 145.567L137.493 164.671C132.099 167.752 126.304 170.13 120.246 171.726ZM114.512 149.962C110.496 151.021 106.379 151.56 102.261 151.58L102.364 127.321C104.371 127.293 106.375 127.022 108.332 126.506C110.422 125.955 112.422 125.135 114.284 124.074L126.323 145.132C122.629 147.241 118.661 148.869 114.512 149.962ZM149.097 183.961C156.047 179.942 162.483 175.032 168.233 169.33C174.024 163.587 179.017 157.141 183.111 150.167L164.099 139.082C160.97 144.402 157.156 149.32 152.736 153.704C148.359 158.045 143.461 161.787 138.175 164.856L149.097 183.961ZM137.926 164.422C143.176 161.375 148.038 157.659 152.384 153.349C156.773 148.996 160.56 144.113 163.667 138.831L144.656 127.746C142.513 131.375 139.907 134.73 136.889 137.723C133.914 140.673 130.591 143.221 127.004 145.316L137.926 164.422ZM126.756 144.882C130.305 142.808 133.593 140.287 136.537 137.368C139.524 134.406 142.103 131.085 144.224 127.495L123.269 115.277C122.211 117.045 120.932 118.681 119.457 120.144C118.025 121.564 116.432 122.797 114.716 123.822L126.756 144.882ZM192.744 127.28C190.593 135.174 187.432 142.718 183.363 149.735L164.351 138.651C167.455 133.288 169.868 127.525 171.511 121.496C173.152 115.471 173.995 109.286 174.041 103.096L196.047 103.19C195.994 111.294 194.892 119.393 192.744 127.28ZM171.028 121.364C169.397 127.351 167.002 133.074 163.919 138.399L144.908 127.315C147.026 123.645 148.673 119.703 149.796 115.58C150.918 111.461 151.498 107.233 151.535 103L173.541 103.094C173.495 109.241 172.658 115.382 171.028 121.364ZM149.314 115.448C148.202 119.529 146.572 123.431 144.476 127.063L123.521 114.845C124.554 113.037 125.359 111.099 125.911 109.073C126.462 107.05 126.751 104.974 126.779 102.895L151.035 102.998C150.998 107.187 150.424 111.372 149.314 115.448ZM196.049 102.69C196.06 94.5968 195.026 86.5016 192.946 78.6085C190.86 70.6945 187.76 63.1217 183.747 56.0689L164.643 66.9908C167.705 72.3817 170.072 78.1685 171.665 84.2154C173.253 90.2402 174.045 96.4187 174.043 102.596L196.049 102.69ZM173.543 102.594C173.545 96.46 172.758 90.3252 171.182 84.3428C169.6 78.3383 167.25 72.5921 164.209 67.239L145.104 78.1605C147.196 81.8518 148.812 85.8122 149.903 89.9498C150.987 94.0638 151.531 98.282 151.537 102.5L173.543 102.594ZM151.037 102.498C151.031 98.3234 150.492 94.1487 149.419 90.0772C148.34 85.982 146.74 82.0622 144.67 78.4087L123.612 90.4472C124.635 92.2685 125.427 94.2197 125.964 96.2567C126.07 96.6593 126.165 97.0638 126.251 97.47C126.388 98.1242 126.499 98.7825 126.583 99.4434C126.708 100.423 126.774 101.409 126.78 102.395L151.037 102.498ZM168.785 36.3567C174.526 42.1456 179.464 48.6305 183.499 55.635L164.394 66.557C161.31 61.2155 157.54 56.2694 153.159 51.8524C148.779 47.4354 143.864 43.624 138.549 40.4959L149.633 21.485C156.602 25.5774 163.045 30.5688 168.785 36.3567ZM152.804 52.2045C157.154 56.5903 160.898 61.5014 163.96 66.8051L144.856 77.7267C142.745 74.0861 140.169 70.714 137.18 67.7002C134.19 64.685 130.837 62.0804 127.213 59.9385L138.297 40.9279C143.575 44.0341 148.455 47.8186 152.804 52.2045ZM136.825 68.0523C139.783 71.0349 142.332 74.3721 144.422 77.9749L123.363 90.0136C122.322 88.2436 121.061 86.6025 119.602 85.1319C118.141 83.659 116.508 82.382 114.743 81.3252L126.961 60.3704C130.548 62.4905 133.866 65.0683 136.825 68.0523ZM149.201 21.2329C142.181 17.1608 134.633 13.9973 126.735 11.8459C118.821 9.69014 110.695 8.58845 102.562 8.54175L102.469 30.5476C108.687 30.5861 114.9 31.4299 120.951 33.0782C126.985 34.7218 132.752 37.1366 138.117 40.2438L149.201 21.2329ZM137.865 40.6758C132.537 37.5904 126.811 35.1927 120.82 33.5606C114.811 31.9238 108.641 31.0859 102.467 31.0475L102.373 53.0534C106.633 53.0835 110.891 53.6635 115.037 54.7929C119.163 55.917 123.109 57.5659 126.781 59.6863L137.865 40.6758ZM126.529 60.1182C122.894 58.0198 118.99 56.3879 114.905 55.2754C110.801 54.1574 106.588 53.5833 102.371 53.5534L102.267 77.8091C104.375 77.8299 106.48 78.1197 108.531 78.6783C110.56 79.2311 112.501 80.0377 114.312 81.0727L126.529 60.1182ZM78.064 11.6438C85.9302 9.57102 93.997 8.53678 102.062 8.54021L101.969 30.5462C95.819 30.5508 89.6689 31.3429 83.6711 32.9234C77.5724 34.5304 71.7383 36.9242 66.3082 40.0251L55.3865 20.9207C62.4785 16.8698 70.0984 13.7428 78.064 11.6438ZM83.7985 33.4069C89.7539 31.8376 95.8604 31.0509 101.967 31.0462L101.873 53.0524C97.6827 53.0651 93.4933 53.6096 89.4066 54.6865C85.217 55.7904 81.209 57.4345 77.4782 59.5639L66.5563 40.4591C71.9487 37.3798 77.7422 35.0027 83.7985 33.4069ZM89.534 55.17C93.5782 54.1043 97.7241 53.5653 101.871 53.5524L101.767 77.8092C99.7328 77.8303 97.7 78.1022 95.7156 78.6251C93.6259 79.1757 91.6265 79.9951 89.765 81.0561L77.7264 59.998C81.4194 57.8901 85.3868 56.2628 89.534 55.17Z" fill="#0284D2"/>
</g>
<g opacity="0.8">
<circle cx="101.768" cy="102.619" r="24.4209" fill="#4396F7" fill-opacity="0.1"/>
<circle cx="101.768" cy="102.619" r="49.3232" fill="#4396F7" fill-opacity="0.1"/>
<circle cx="101.768" cy="102.619" r="71.9546" fill="#4396F7" fill-opacity="0.1"/>
<circle cx="101.767" cy="102.619" r="94.3093" fill="#4396F7" fill-opacity="0.1"/>
</g>
<path opacity="0.8" fill-rule="evenodd" clip-rule="evenodd" d="M126.954 11.8415C109.32 7.11665 92.8502 7.57546 76.9275 11.8419C61.0048 16.1084 46.4569 25.1597 34.8006 36.8159C23.1444 48.4722 14.7618 62.9913 10.4953 78.914C8.3598 86.8838 8.15693 94.301 8.1592 102.482H30.2492C30.2492 102.482 30.7937 114.561 32.404 121.104C34.0154 127.651 39.7246 138.87 39.7246 138.87L20.0146 149.39C24.0709 156.36 29.91 163.871 35.6616 169.623C47.3179 181.279 61.837 189.662 77.7597 193.928C85.7999 196.083 93.5767 196.855 101.83 196.833L102.117 127.217C102.117 127.217 105.872 126.916 109.052 125.984C112.31 125.029 114.344 123.672 114.344 123.672L138.049 164.886C138.049 164.886 141.148 163.079 153.162 152.834C158.216 148.524 164.067 138.582 164.067 138.582L183.388 150.06C187.553 142.904 190.613 135.591 192.774 127.525C197.04 111.602 197.603 94.7219 193.336 78.7992C191.175 70.7334 188.031 62.9985 183.867 55.8427L164.545 66.9383C164.545 66.9383 157.281 56.3571 152.588 51.634C147.958 46.9734 138.145 40.634 138.145 40.634L149.049 20.929C141.946 16.8172 134.95 13.984 126.954 11.8415Z" fill="#4396F7"/>
<g style="mix-blend-mode:screen">
<path fill-rule="evenodd" clip-rule="evenodd" d="M102.594 1.17316L102.565 8.04176C110.74 8.08864 118.911 9.19619 126.867 11.3635C134.807 13.5264 142.395 16.707 149.453 20.801L152.773 15.1057L153.205 15.3576L149.885 21.053C156.892 25.1673 163.369 30.1855 169.14 36.0047C174.912 41.8247 179.877 48.3446 183.933 55.3868L189.823 52.0195L190.071 52.4536L184.182 55.8208C188.216 62.9114 191.333 70.5247 193.429 78.4811C195.52 86.4167 196.56 94.5554 196.549 102.692L203.589 102.722L203.587 103.222L196.547 103.192C196.493 111.34 195.386 119.482 193.226 127.411C191.064 135.347 187.886 142.932 183.795 149.987L189.652 153.402L189.401 153.834L183.543 150.419C179.427 157.43 174.407 163.911 168.585 169.685C162.804 175.418 156.333 180.354 149.345 184.395L152.741 190.335L152.307 190.583L148.911 184.645C141.78 188.718 134.118 191.863 126.108 193.974C118.228 196.05 110.147 197.09 102.067 197.094L102.037 204.101L101.537 204.099L101.567 197.093C93.3623 197.053 85.1625 195.945 77.1781 193.77C69.2838 191.62 61.7372 188.464 54.7139 184.404L51.3557 190.163L50.9238 189.911L54.2817 184.152C47.228 180.025 40.7092 174.982 34.9049 169.129C29.171 163.348 24.2335 156.875 20.192 149.886L14.3068 153.25L14.0587 152.816L19.9429 149.452C15.87 142.322 12.7261 134.661 10.6158 126.653C8.53628 118.761 7.49653 110.668 7.4957 102.577L0.541045 102.547L0.543175 102.047L7.49697 102.077C7.53947 93.8836 8.64711 85.6957 10.819 77.7226C12.9742 69.811 16.1398 62.2486 20.2127 55.2123L14.4777 51.8685L14.7296 51.4366L20.4643 54.7802C24.5869 47.7442 29.6202 41.2411 35.4602 35.4494C41.2423 29.7151 47.7152 24.7774 54.7048 20.7357L51.3885 14.9348L51.8226 14.6867L55.1383 20.4866C62.2681 16.4141 69.9285 13.2704 77.9366 11.1603C85.8453 9.07634 93.9557 8.0366 102.065 8.04021L102.094 1.17103L102.594 1.17316ZM11.3014 77.854C13.4451 69.9848 16.5937 62.4628 20.6446 55.4641L39.6555 66.5483C36.5694 71.8918 34.1697 77.6327 32.5339 83.6375C30.8809 89.7056 30.0371 95.937 30.0029 102.173L7.99697 102.079C8.03928 93.9292 9.14106 85.7848 11.3014 77.854ZM33.0163 83.769C34.6406 77.8064 37.0233 72.1061 40.0874 66.8001L59.0991 77.8848C56.9999 81.5354 55.3661 85.4545 54.2498 89.5525C53.1157 93.7156 52.5356 97.9905 52.5099 102.268L30.5029 102.175C30.5369 95.9827 31.3749 89.7947 33.0163 83.769ZM40.339 66.368L59.3505 77.4526C61.5009 73.7987 64.1208 70.4204 67.1571 67.4093C70.1327 64.4583 73.4576 61.9101 77.0452 59.814L66.123 40.7086C60.872 43.756 56.008 47.4726 51.6602 51.7844C47.2533 56.1548 43.4535 61.0607 40.339 66.368ZM54.7322 89.6839C55.837 85.6283 57.4538 81.7496 59.531 78.1366L80.4872 90.355C79.4735 92.143 78.682 94.0579 78.1372 96.0581C77.6374 97.8928 77.3528 99.7711 77.2835 101.655C77.2747 101.895 77.2694 102.134 77.2675 102.374L53.0099 102.271C53.0354 98.0361 53.6097 93.8047 54.7322 89.6839ZM59.7824 77.7044L80.7381 89.9225C81.8037 88.1284 83.0964 86.4685 84.5908 84.9865C86.0227 83.5665 87.6162 82.333 89.3331 81.308L77.2934 60.2481C73.7435 62.3226 70.4536 64.8443 67.5091 67.7644C64.5041 70.7446 61.9109 74.0881 59.7824 77.7044ZM78.6196 96.1905C79.153 94.2325 79.9276 92.3577 80.9196 90.6071L100.455 101.997C100.44 102.04 100.426 102.083 100.414 102.127C100.383 102.241 100.365 102.356 100.358 102.472L77.7675 102.376C77.7694 102.142 77.7746 101.908 77.7832 101.674C77.8511 99.8278 78.13 97.9879 78.6196 96.1905ZM100.406 102.973L77.7688 102.876C77.7724 103.159 77.7809 103.441 77.7944 103.723C77.8752 105.413 78.1329 107.096 78.5674 108.746C79.107 110.793 79.9098 112.752 80.9493 114.576L100.56 103.365C100.495 103.247 100.445 103.122 100.411 102.991C100.409 102.985 100.407 102.979 100.406 102.973ZM100.866 103.766L81.2013 115.008C82.2046 116.687 83.4114 118.245 84.8004 119.646C86.2635 121.121 87.9036 122.396 89.6769 123.445L101.058 103.925C100.99 103.877 100.926 103.824 100.866 103.766ZM101.505 104.151L90.1099 123.695C91.8477 124.674 93.707 125.44 95.6484 125.969C97.6841 126.524 99.7745 126.808 101.866 126.821L101.963 104.232C101.835 104.227 101.709 104.208 101.585 104.174C101.558 104.167 101.531 104.159 101.505 104.151ZM102.463 104.174L102.366 126.82C104.329 126.792 106.29 126.526 108.205 126.021C110.252 125.482 112.211 124.679 114.036 123.639L102.824 104.028C102.71 104.09 102.589 104.139 102.463 104.174ZM103.225 103.721L114.467 123.387C116.146 122.384 117.704 121.177 119.105 119.788C120.549 118.356 121.801 116.755 122.836 115.024L103.302 103.635C103.277 103.665 103.252 103.693 103.225 103.721ZM103.562 103.208L123.089 114.593C124.1 112.822 124.888 110.924 125.428 108.94C125.968 106.96 126.251 104.928 126.279 102.893L103.674 102.796C103.665 102.866 103.65 102.935 103.632 103.004C103.613 103.073 103.589 103.142 103.562 103.208ZM103.668 102.296L126.28 102.393C126.273 101.429 126.209 100.465 126.087 99.5064C125.99 98.7442 125.857 97.9854 125.687 97.2326C125.624 96.9492 125.555 96.6667 125.48 96.3852C124.955 94.3902 124.179 92.4793 123.178 90.6955L103.557 101.913C103.588 101.986 103.615 102.063 103.635 102.141C103.649 102.192 103.66 102.244 103.668 102.296ZM103.294 101.487L122.929 90.262C121.91 88.5301 120.675 86.9242 119.247 85.485C117.817 84.0431 116.218 82.7928 114.491 81.7579L103.101 101.294C103.137 101.325 103.173 101.357 103.207 101.392C103.237 101.422 103.266 101.454 103.294 101.487ZM102.675 101.031L114.06 81.5054C112.287 80.4924 110.386 79.7029 108.399 79.1617C106.391 78.6146 104.329 78.3306 102.265 78.3101L102.169 100.905C102.267 100.913 102.365 100.931 102.461 100.957C102.534 100.977 102.606 101.002 102.675 101.031ZM101.669 100.936L101.765 78.3103C99.7742 78.3315 97.785 78.5979 95.8431 79.1096C93.7959 79.649 91.8372 80.4516 90.0136 81.4909L101.225 101.102C101.342 101.038 101.467 100.988 101.598 100.953C101.622 100.947 101.645 100.941 101.669 100.936ZM100.823 101.407L89.5817 81.743C87.9025 82.7463 86.3437 83.9533 84.9429 85.3425C83.4799 86.7935 82.2142 88.4184 81.1706 90.1746L100.694 101.558C100.734 101.505 100.777 101.455 100.823 101.407ZM20.8963 55.0321L39.907 66.1162C43.0435 60.7713 46.8701 55.8307 51.3081 51.4294C55.6871 47.0866 60.5861 43.3435 65.8748 40.2745L54.953 21.1698C48.0011 25.1899 41.5632 30.1011 35.8122 35.8044C30.0034 41.5652 24.9969 48.0336 20.8963 55.0321ZM7.9957 102.579C7.99671 110.627 9.03096 118.676 11.0993 126.525C13.1984 134.492 16.3257 142.112 20.3769 149.204L39.4817 138.282C36.3804 132.852 33.9863 127.017 32.3791 120.918C30.8031 114.937 30.011 108.805 30.0019 102.673L7.9957 102.579ZM30.5019 102.675C30.5112 108.763 31.2978 114.852 32.8626 120.79C34.4586 126.847 36.836 132.641 39.9158 138.034L59.0214 127.112C56.8916 123.381 55.2474 119.373 54.1433 115.183C53.071 111.113 52.5265 106.941 52.5094 102.768L30.5019 102.675ZM53.0094 102.771C53.0267 106.9 53.5657 111.028 54.6268 115.055C55.7197 119.203 57.3473 123.17 59.4554 126.864L80.5147 114.825C79.4539 112.963 78.6346 110.964 78.0839 108.874C77.6414 107.195 77.3786 105.48 77.2956 103.76C77.2813 103.464 77.2724 103.169 77.2687 102.874L53.0094 102.771ZM35.2599 168.777C29.5569 163.027 24.646 156.589 20.6261 149.638L39.7312 138.716C42.8 144.004 46.5428 148.902 50.8851 153.281C55.2991 157.732 60.2554 161.567 65.618 164.709L54.5336 183.72C47.5174 179.615 41.0333 174.599 35.2599 168.777ZM51.2401 152.929C46.9287 148.581 43.2125 143.718 40.1653 138.468L59.2714 127.545C61.3674 131.132 63.9155 134.457 66.8662 137.432C69.8897 140.481 73.2833 143.11 76.9545 145.265L65.8698 164.277C60.5448 161.157 55.6232 157.348 51.2401 152.929ZM67.2212 137.08C64.3014 134.136 61.7799 130.846 59.7055 127.297L80.7667 115.256C81.7917 116.973 83.0253 118.567 84.4454 119.999C85.9393 121.505 87.6139 122.807 89.4246 123.877L77.2063 144.833C73.5727 142.7 70.2138 140.098 67.2212 137.08ZM54.9658 183.972C61.9514 188.01 69.4576 191.149 77.3095 193.288C85.2516 195.452 93.4079 196.553 101.569 196.593L101.663 174.586C95.4158 174.555 89.1726 173.711 83.0932 172.055C77.1057 170.424 71.3807 168.033 66.0503 164.96L54.9658 183.972ZM66.3021 164.528C71.5949 167.579 77.2795 169.953 83.2246 171.573C89.2617 173.217 95.4615 174.055 101.665 174.086L101.759 152.079C97.4697 152.057 93.1833 151.476 89.0093 150.339C84.9283 149.228 81.0247 147.603 77.387 145.516L66.3021 164.528ZM77.6388 145.084C81.239 147.149 85.1021 148.757 89.1408 149.857C93.2724 150.982 97.5153 151.557 101.761 151.58L101.864 127.323C99.7289 127.309 97.5951 127.019 95.517 126.453C93.5331 125.912 91.6331 125.129 89.8576 124.127L77.6388 145.084ZM125.981 193.49C118.143 195.556 110.106 196.59 102.069 196.594L102.163 174.587C108.284 174.575 114.404 173.783 120.373 172.21C126.474 170.602 132.31 168.208 137.741 165.105L148.663 184.211C141.57 188.263 133.948 191.391 125.981 193.49ZM120.246 171.726C114.319 173.288 108.242 174.075 102.165 174.087L102.259 152.08C106.42 152.06 110.581 151.515 114.639 150.446C118.83 149.342 122.839 147.697 126.571 145.567L137.493 164.671C132.099 167.752 126.304 170.13 120.246 171.726ZM114.512 149.962C110.496 151.021 106.379 151.56 102.261 151.58L102.364 127.321C104.371 127.293 106.375 127.022 108.332 126.506C110.422 125.955 112.422 125.135 114.284 124.074L126.323 145.132C122.629 147.241 118.661 148.869 114.512 149.962ZM149.097 183.961C156.047 179.942 162.483 175.032 168.233 169.33C174.024 163.587 179.017 157.141 183.111 150.167L164.099 139.082C160.97 144.402 157.156 149.32 152.736 153.704C148.359 158.045 143.461 161.787 138.175 164.856L149.097 183.961ZM137.926 164.422C143.176 161.375 148.038 157.659 152.384 153.349C156.773 148.996 160.56 144.113 163.667 138.831L144.656 127.746C142.513 131.375 139.907 134.73 136.889 137.723C133.914 140.673 130.591 143.221 127.004 145.316L137.926 164.422ZM126.756 144.882C130.305 142.808 133.593 140.287 136.537 137.368C139.524 134.406 142.103 131.085 144.224 127.495L123.269 115.277C122.211 117.045 120.932 118.681 119.457 120.144C118.025 121.564 116.432 122.797 114.716 123.822L126.756 144.882ZM192.744 127.28C190.593 135.174 187.432 142.718 183.363 149.735L164.351 138.651C167.455 133.288 169.868 127.525 171.511 121.496C173.152 115.471 173.995 109.286 174.041 103.096L196.047 103.19C195.994 111.294 194.892 119.393 192.744 127.28ZM171.028 121.364C169.397 127.351 167.002 133.074 163.919 138.399L144.908 127.315C147.026 123.645 148.673 119.703 149.796 115.58C150.918 111.461 151.498 107.233 151.535 103L173.541 103.094C173.495 109.241 172.658 115.382 171.028 121.364ZM149.314 115.448C148.202 119.529 146.572 123.431 144.476 127.063L123.521 114.845C124.554 113.037 125.359 111.099 125.911 109.073C126.462 107.05 126.751 104.974 126.779 102.895L151.035 102.998C150.998 107.187 150.424 111.372 149.314 115.448ZM196.049 102.69C196.06 94.5968 195.026 86.5016 192.946 78.6085C190.86 70.6945 187.76 63.1217 183.747 56.0689L164.643 66.9908C167.705 72.3817 170.072 78.1685 171.665 84.2154C173.253 90.2402 174.045 96.4187 174.043 102.596L196.049 102.69ZM173.543 102.594C173.545 96.46 172.758 90.3252 171.182 84.3428C169.6 78.3383 167.25 72.5921 164.209 67.239L145.104 78.1605C147.196 81.8518 148.812 85.8122 149.903 89.9498C150.987 94.0638 151.531 98.282 151.537 102.5L173.543 102.594ZM151.037 102.498C151.031 98.3234 150.492 94.1487 149.419 90.0772C148.34 85.982 146.74 82.0622 144.67 78.4087L123.612 90.4472C124.635 92.2685 125.427 94.2197 125.964 96.2567C126.07 96.6593 126.165 97.0638 126.251 97.47C126.388 98.1242 126.499 98.7825 126.583 99.4434C126.708 100.423 126.774 101.409 126.78 102.395L151.037 102.498ZM168.785 36.3567C174.526 42.1456 179.464 48.6305 183.499 55.635L164.394 66.557C161.31 61.2155 157.54 56.2694 153.159 51.8524C148.779 47.4354 143.864 43.624 138.549 40.4959L149.633 21.485C156.602 25.5774 163.045 30.5688 168.785 36.3567ZM152.804 52.2045C157.154 56.5903 160.898 61.5014 163.96 66.8051L144.856 77.7267C142.745 74.0861 140.169 70.714 137.18 67.7002C134.19 64.685 130.837 62.0804 127.213 59.9385L138.297 40.9279C143.575 44.0341 148.455 47.8186 152.804 52.2045ZM136.825 68.0523C139.783 71.0349 142.332 74.3721 144.422 77.9749L123.363 90.0136C122.322 88.2436 121.061 86.6025 119.602 85.1319C118.141 83.659 116.508 82.382 114.743 81.3252L126.961 60.3704C130.548 62.4905 133.866 65.0683 136.825 68.0523ZM149.201 21.2329C142.181 17.1608 134.633 13.9973 126.735 11.8459C118.821 9.69014 110.695 8.58845 102.562 8.54175L102.469 30.5476C108.687 30.5861 114.9 31.4299 120.951 33.0782C126.985 34.7218 132.752 37.1366 138.117 40.2438L149.201 21.2329ZM137.865 40.6758C132.537 37.5904 126.811 35.1927 120.82 33.5606C114.811 31.9238 108.641 31.0859 102.467 31.0475L102.373 53.0534C106.633 53.0835 110.891 53.6635 115.037 54.7929C119.163 55.917 123.109 57.5659 126.781 59.6863L137.865 40.6758ZM126.529 60.1182C122.894 58.0198 118.99 56.3879 114.905 55.2754C110.801 54.1574 106.588 53.5833 102.371 53.5534L102.267 77.8091C104.375 77.8299 106.48 78.1197 108.531 78.6783C110.56 79.2311 112.501 80.0377 114.312 81.0727L126.529 60.1182ZM78.064 11.6438C85.9302 9.57102 93.997 8.53678 102.062 8.54021L101.969 30.5462C95.819 30.5508 89.6689 31.3429 83.6711 32.9234C77.5724 34.5304 71.7383 36.9242 66.3082 40.0251L55.3865 20.9207C62.4785 16.8698 70.0984 13.7428 78.064 11.6438ZM83.7985 33.4069C89.7539 31.8376 95.8604 31.0509 101.967 31.0462L101.873 53.0524C97.6827 53.0651 93.4933 53.6096 89.4066 54.6865C85.217 55.7904 81.209 57.4345 77.4782 59.5639L66.5563 40.4591C71.9487 37.3798 77.7422 35.0027 83.7985 33.4069ZM89.534 55.17C93.5782 54.1043 97.7241 53.5653 101.871 53.5524L101.767 77.8092C99.7328 77.8303 97.7 78.1022 95.7156 78.6251C93.6259 79.1757 91.6265 79.9951 89.765 81.0561L77.7264 59.998C81.4194 57.8901 85.3868 56.2628 89.534 55.17Z" fill="white"/>
</g>
<circle cx="76.8385" cy="13.0814" r="8.23979" transform="rotate(0.237983 76.8385 13.0814)" fill="white" stroke="#4396F7" stroke-width="1.08116"/>
<circle cx="126.649" cy="13.2875" r="8.23979" transform="rotate(0.237983 126.649 13.2875)" fill="white" stroke="#4396F7" stroke-width="1.08116"/>
<circle cx="167.119" cy="34.8607" r="8.23979" transform="rotate(0.237983 167.119 34.8607)" fill="white" stroke="#4396F7" stroke-width="1.08116"/>
<circle cx="192.713" cy="78.9506" r="8.23979" transform="rotate(0.237983 192.713 78.9506)" fill="white" stroke="#4396F7" stroke-width="1.08116"/>
<circle cx="192.51" cy="127.564" r="8.23979" transform="rotate(0.237983 192.51 127.564)" fill="white" stroke="#4396F7" stroke-width="1.08116"/>
<circle cx="168.492" cy="169.759" r="8.23979" transform="rotate(0.237983 168.492 169.759)" fill="white" stroke="#4396F7" stroke-width="1.08116"/>
<circle cx="125.892" cy="195.323" r="8.23979" transform="rotate(0.237983 125.892 195.323)" fill="white" stroke="#4396F7" stroke-width="1.08116"/>
<circle cx="78.9069" cy="195.127" r="8.23979" transform="rotate(0.237983 78.9069 195.127)" fill="white" stroke="#4396F7" stroke-width="1.08116"/>
<circle cx="34.3952" cy="169.202" r="8.23979" transform="rotate(0.237983 34.3952 169.202)" fill="white" stroke="#4396F7" stroke-width="1.08116"/>
<circle cx="10.3132" cy="127.867" r="8.23979" transform="rotate(0.237983 10.3132 127.867)" fill="white" stroke="#4396F7" stroke-width="1.08116"/>
<circle cx="11.6823" cy="78.1986" r="8.23979" transform="rotate(0.237983 11.6823 78.1986)" fill="white" stroke="#4396F7" stroke-width="1.08116"/>
<circle cx="34.651" cy="38.6918" r="8.23979" transform="rotate(0.237983 34.651 38.6918)" fill="white" stroke="#4396F7" stroke-width="1.08116"/>
<path d="M103.331 113.406L102.768 113.404C102.6 114.328 101.838 114.55 100.999 114.547L100.997 115.135L102.588 115.141L102.57 119.535L103.305 119.538L103.331 113.406Z" fill="black"/>
<path d="M101.258 139.767C101.235 139.032 101.601 138.246 102.458 138.25C103.106 138.252 103.641 138.696 103.638 139.362C103.634 140.209 103.105 140.588 102.065 141.223C101.198 141.756 100.46 142.272 100.333 143.724L104.338 143.741L104.34 143.092L101.192 143.079C101.342 142.319 102.148 141.933 102.92 141.469C103.683 140.997 104.412 140.455 104.416 139.373C104.421 138.232 103.576 137.606 102.504 137.601C101.206 137.596 100.467 138.518 100.522 139.764L101.258 139.767Z" fill="black"/>
<path d="M101.923 164.742C102.062 164.725 102.218 164.717 102.365 164.718C103.091 164.721 103.669 165.13 103.666 165.899C103.663 166.643 103.047 167.082 102.329 167.079C101.49 167.075 101.051 166.52 101.028 165.724L100.293 165.721C100.262 166.984 101.081 167.722 102.326 167.728C103.476 167.732 104.439 167.096 104.444 165.868C104.447 165.133 104.087 164.543 103.343 164.376L103.343 164.359C103.811 164.144 104.194 163.679 104.196 163.143C104.201 162.009 103.399 161.496 102.335 161.491C101.107 161.486 100.48 162.297 100.432 163.464L101.168 163.467C101.179 162.749 101.528 162.137 102.332 162.14C102.955 162.143 103.42 162.491 103.418 163.131C103.415 163.797 102.869 164.132 102.246 164.129C102.142 164.129 102.038 164.128 101.926 164.119L101.923 164.742Z" fill="black"/>
<path d="M103.582 184.05L102.993 184.047L100.183 188.023L100.18 188.732L102.87 188.743L102.864 190.179L103.556 190.182L103.562 188.746L104.392 188.75L104.395 188.101L103.565 188.098L103.582 184.05ZM100.814 188.086L102.868 185.093L102.885 185.093L102.873 188.095L100.814 188.086Z" fill="black"/>
<path d="M125.549 11.6378C125.526 10.9025 125.893 10.1169 126.749 10.1205C127.398 10.1231 127.932 10.5665 127.929 11.2325C127.926 12.0801 127.397 12.4585 126.356 13.0942C125.489 13.6269 124.751 14.1428 124.624 15.5953L128.629 15.612L128.632 14.9633L125.483 14.9502C125.634 14.1897 126.44 13.8038 127.211 13.3399C127.974 12.8674 128.703 12.3255 128.708 11.2444C128.712 10.1027 127.867 9.47639 126.795 9.47194C125.497 9.46655 124.758 10.389 124.814 11.6347L125.549 11.6378Z" fill="black"/>
<path d="M77.6513 9.26793L77.0891 9.26559C76.9209 10.1904 76.1588 10.4121 75.3198 10.4086L75.3174 10.9968L76.9089 11.0034L76.8906 15.3972L77.6258 15.4002L77.6513 9.26793Z" fill="black"/>
<path d="M166.602 34.5785C166.741 34.5618 166.897 34.5538 167.044 34.5544C167.77 34.5575 168.348 34.9664 168.345 35.7362C168.342 36.48 167.726 36.9185 167.008 36.9156C166.169 36.9121 165.73 36.3567 165.707 35.5609L164.972 35.5578C164.941 36.8205 165.76 37.5591 167.005 37.5643C168.155 37.569 169.118 36.933 169.123 35.7048C169.126 34.9696 168.766 34.3799 168.022 34.2125L168.022 34.1952C168.49 33.9809 168.873 33.5155 168.875 32.9792C168.88 31.8462 168.078 31.3325 167.014 31.3281C165.786 31.323 165.159 32.1334 165.111 33.3009L165.847 33.304C165.858 32.5861 166.207 31.9734 167.011 31.9768C167.634 31.9794 168.099 32.3273 168.097 32.9673C168.094 33.6333 167.548 33.9684 166.925 33.9658C166.821 33.9654 166.717 33.9649 166.605 33.9558L166.602 34.5785Z" fill="black"/>
<path d="M34.4647 38.1941C35.3037 38.1976 35.6989 38.8307 35.6958 39.5918C35.6927 40.3183 35.249 40.9479 34.4533 40.9446C33.6489 40.9413 33.1844 40.3339 33.1875 39.5727C33.1907 38.803 33.643 38.1907 34.4647 38.1941ZM36.3123 36.9304C36.2299 35.9353 35.6009 35.3619 34.5889 35.3577C32.8418 35.3504 32.3248 36.9484 32.3178 38.635C32.3125 39.9237 32.5996 41.5856 34.416 41.5931C35.9642 41.5996 36.4707 40.434 36.4744 39.5431C36.4791 38.4101 35.7821 37.5509 34.6058 37.546C33.9398 37.5433 33.4198 37.7833 33.0715 38.3441L33.0543 38.3267C33.0928 37.3841 33.2975 36.001 34.5516 36.0062C35.1311 36.0086 35.5102 36.3735 35.5771 36.9273L36.3123 36.9304Z" fill="black"/>
<path d="M193.95 75.0905L193.362 75.0881L190.552 79.0637L190.549 79.773L193.239 79.7841L193.233 81.2199L193.925 81.2228L193.931 79.787L194.761 79.7905L194.764 79.1418L193.933 79.1383L193.95 75.0905ZM191.183 79.1269L193.236 76.1341L193.254 76.1342L193.241 79.1355L191.183 79.1269Z" fill="black"/>
<path d="M194.191 124.46L191.163 124.447L190.579 127.628L191.211 127.665C191.497 127.32 191.888 127.088 192.355 127.09C193.176 127.094 193.736 127.675 193.733 128.488C193.729 129.466 193.13 129.939 192.429 129.936C191.694 129.933 191.186 129.455 191.145 128.824L190.41 128.821C190.431 129.928 191.294 130.58 192.357 130.585C193.785 130.591 194.507 129.59 194.511 128.552C194.517 127.151 193.629 126.447 192.539 126.442C192.124 126.441 191.665 126.577 191.395 126.879L191.378 126.861L191.714 125.098L194.188 125.108L194.191 124.46Z" fill="black"/>
<path d="M9.03005 128.799C9.033 128.09 9.60578 127.625 10.3323 127.628C11.0243 127.631 11.593 128.135 11.5903 128.801C11.5874 129.484 11.0663 129.992 10.3312 129.989C9.57003 129.986 9.027 129.534 9.03005 128.799ZM8.47964 125.96C8.47734 126.513 8.82118 127.025 9.33063 127.235C8.64633 127.474 8.25478 128.035 8.25176 128.761C8.24656 130.015 9.15217 130.633 10.3285 130.638C11.4615 130.643 12.3639 129.963 12.3688 128.778C12.372 128.017 12.0196 127.479 11.2853 127.243C11.7879 127.02 12.136 126.52 12.1383 125.975C12.1415 125.196 11.6258 124.407 10.2852 124.402C9.34241 124.398 8.48384 124.948 8.47964 125.96ZM9.25796 125.989C9.26051 125.375 9.74623 125.048 10.3344 125.051C10.9312 125.053 11.3623 125.383 11.3597 125.998C11.3571 126.62 10.9232 126.982 10.3437 126.979C9.73822 126.977 9.25515 126.663 9.25796 125.989Z" fill="black"/>
<path d="M13.6324 75.096L9.66237 75.0795L9.6595 75.7714L12.877 75.7848C11.5826 77.146 10.5801 79.036 10.4331 81.1113L11.2547 81.1147C11.3752 79.195 12.3878 76.9504 13.6297 75.7274L13.6324 75.096Z" fill="black"/>
<path d="M166.782 166.532L166.22 166.53C166.052 167.455 165.29 167.677 164.451 167.673L164.449 168.261L166.04 168.268L166.022 172.662L166.757 172.665L166.782 166.532ZM169.616 168.715C169.593 167.98 169.96 167.194 170.816 167.198C171.465 167.201 171.999 167.644 171.996 168.31C171.993 169.157 171.464 169.536 170.423 170.172C169.556 170.704 168.819 171.22 168.691 172.673L172.696 172.689L172.699 172.041L169.55 172.028C169.701 171.267 170.507 170.881 171.278 170.417C172.041 169.945 172.77 169.403 172.775 168.322C172.779 167.18 171.934 166.554 170.862 166.549C169.565 166.544 168.826 167.466 168.881 168.712L169.616 168.715Z" fill="black"/>
<path d="M35.5372 167.604C35.5342 168.33 35.0472 168.951 34.2774 168.948C33.5682 168.945 33.0691 168.32 33.0719 167.646C33.0751 166.893 33.4066 166.194 34.2802 166.197C35.1019 166.201 35.5403 166.851 35.5372 167.604ZM32.4127 170.194C32.5034 171.25 33.2364 171.781 34.2657 171.785C35.7533 171.791 36.3983 170.609 36.4071 168.49C36.4167 166.172 35.4592 165.554 34.3175 165.549C33.1326 165.544 32.2989 166.354 32.2939 167.538C32.2889 168.749 32.9774 169.591 34.2229 169.596C34.8196 169.599 35.3659 169.272 35.6448 168.755L35.6621 168.772C35.6123 170.355 35.1679 171.14 34.2684 171.136C33.6802 171.134 33.1973 170.794 33.1478 170.197L32.4127 170.194Z" fill="black"/>
<path d="M124.362 192.209L123.8 192.207C123.632 193.132 122.87 193.353 122.031 193.35L122.029 193.938L123.62 193.945L123.602 198.338L124.337 198.341L124.362 192.209ZM129.169 192.229L128.606 192.227C128.438 193.152 127.676 193.373 126.837 193.37L126.835 193.958L128.426 193.965L128.408 198.358L129.143 198.361L129.169 192.229Z" fill="black"/>
<path d="M77.1672 192.014L76.605 192.011C76.4368 192.936 75.6747 193.158 74.8358 193.154L74.8333 193.743L76.4248 193.749L76.4065 198.143L77.1417 198.146L77.1672 192.014ZM79.2444 195.145C79.2388 196.494 79.3526 198.259 81.2727 198.267C83.1928 198.275 83.3212 196.511 83.3268 195.162C83.3325 193.804 83.2187 192.039 81.2986 192.031C79.3785 192.023 79.2501 193.787 79.2444 195.145ZM80.0229 195.139C80.0266 194.231 80.0418 192.674 81.2959 192.68C82.55 192.685 82.5522 194.242 82.5484 195.15C82.5446 196.067 82.5295 197.624 81.2754 197.618C80.0213 197.613 80.0191 196.056 80.0229 195.139Z" fill="black"/>
</svg>
