<svg width="205" height="205" viewBox="0 0 205 205" fill="none" xmlns="http://www.w3.org/2000/svg">
<g style="mix-blend-mode:darken" opacity="0.3">
<path fill-rule="evenodd" clip-rule="evenodd" d="M102.637 0.887029L102.608 7.75562C110.783 7.80251 118.954 8.91006 126.91 11.0774C134.85 13.2403 142.438 16.4208 149.496 20.5149L152.816 14.8196L153.248 15.0715L149.928 20.7669C156.935 24.8812 163.412 29.8994 169.183 35.7185C174.955 41.5385 179.92 48.0584 183.976 55.1007L189.866 51.7334L190.114 52.1675L184.225 55.5346C188.259 62.6252 191.376 70.2385 193.472 78.195C195.563 86.1306 196.603 94.2692 196.592 102.406L203.632 102.436L203.63 102.936L196.59 102.906C196.536 111.054 195.429 119.196 193.269 127.125C191.107 135.061 187.929 142.646 183.837 149.701L189.695 153.116L189.444 153.548L183.585 150.133C179.47 157.144 174.45 163.625 168.628 169.398C162.847 175.131 156.376 180.068 149.388 184.109L152.784 190.049L152.349 190.297L148.954 184.358C141.823 188.432 134.161 191.577 126.151 193.688C118.271 195.764 110.19 196.804 102.11 196.808L102.08 203.815L101.58 203.813L101.61 196.807C93.4053 196.767 85.2055 195.659 77.2211 193.484C69.3268 191.334 61.7801 188.177 54.7569 184.117L51.3987 189.877L50.9668 189.625L54.3247 183.866C47.271 179.738 40.7522 174.696 34.9479 168.843C29.214 163.061 24.2765 156.589 20.235 149.6L14.3498 152.964L14.1016 152.53L19.9858 149.166C15.913 142.036 12.769 134.375 10.6588 126.367C8.57925 118.475 7.5395 110.382 7.53867 102.291L0.584014 102.261L0.586144 101.761L7.53994 101.791C7.58244 93.5975 8.69008 85.4096 10.862 77.4365C13.0172 69.5249 16.1828 61.9625 20.2557 54.9261L14.5207 51.5824L14.7725 51.1505L20.5073 54.4941C24.6298 47.458 29.6631 40.9549 35.5031 35.1633C41.2852 29.429 47.7582 24.4913 54.7478 20.4496L51.4315 14.6487L51.8656 14.4006L55.1813 20.2005C62.3111 16.128 69.9715 12.9843 77.9796 10.8742C85.8883 8.79021 93.9986 7.75046 102.108 7.75408L102.137 0.884899L102.637 0.887029ZM11.3444 77.5679C13.4881 69.6986 16.6366 62.1767 20.6876 55.178L39.6984 66.2621C36.6124 71.6057 34.2127 77.3465 32.5769 83.3514C30.9239 89.4195 30.08 95.6509 30.0459 101.886L8.03994 101.793C8.08225 93.6431 9.18403 85.4987 11.3444 77.5679ZM33.0593 83.4828C34.6835 77.5203 37.0663 71.8199 40.1304 66.514L59.142 77.5986C57.0429 81.2493 55.4091 85.1684 54.2928 89.2663C53.1587 93.4294 52.5786 97.7044 52.5529 101.982L30.5459 101.889C30.5798 95.6965 31.4179 89.5086 33.0593 83.4828ZM40.3819 66.0819L59.3935 77.1664C61.5439 73.5125 64.1638 70.1343 67.2 67.1232C70.1756 64.1722 73.5005 61.6239 77.0882 59.5279L66.166 40.4225C60.915 43.4699 56.051 47.1864 51.7032 51.4983C47.2963 55.8687 43.4965 60.7746 40.3819 66.0819ZM54.7752 89.3977C55.88 85.3421 57.4968 81.4635 59.574 77.8505L80.5301 90.0688C79.5164 91.8569 78.725 93.7718 78.1801 95.7719C77.6803 97.6067 77.3958 99.4849 77.3265 101.369C77.3177 101.609 77.3123 101.848 77.3105 102.088L53.0529 101.984C53.0784 97.75 53.6527 93.5185 54.7752 89.3977ZM59.8254 77.4183L80.7811 89.6364C81.8467 87.8423 83.1394 86.1824 84.6338 84.7004C86.0656 83.2804 87.6592 82.0469 89.376 81.0219L77.3364 59.9619C73.7865 62.0364 70.4966 64.5581 67.5521 67.4782C64.547 70.4584 61.9539 73.802 59.8254 77.4183ZM78.6626 95.9044C79.196 93.9463 79.9705 92.0716 80.9625 90.321L100.498 101.711C100.483 101.754 100.469 101.797 100.457 101.841C100.426 101.954 100.408 102.07 100.401 102.186L77.8105 102.09C77.8123 101.856 77.8175 101.622 77.8262 101.388C77.8941 99.5417 78.1729 97.7018 78.6626 95.9044ZM100.449 102.686L77.8117 102.59C77.8153 102.872 77.8239 103.155 77.8374 103.437C77.9181 105.127 78.1758 106.81 78.6104 108.46C79.1499 110.507 79.9527 112.466 80.9923 114.29L100.603 103.079C100.538 102.961 100.488 102.835 100.453 102.704C100.452 102.698 100.45 102.692 100.449 102.686ZM100.909 103.48L81.2443 114.722C82.2476 116.401 83.4544 117.959 84.8434 119.36C86.3065 120.835 87.9466 122.11 89.7199 123.158L101.101 103.639C101.033 103.591 100.969 103.538 100.909 103.48ZM101.548 103.864L90.1529 123.408C91.8906 124.388 93.75 125.154 95.6913 125.683C97.7271 126.238 99.8175 126.522 101.909 126.535L102.006 103.946C101.878 103.941 101.752 103.922 101.628 103.888C101.601 103.881 101.574 103.873 101.548 103.864ZM102.506 103.888L102.409 126.533C104.372 126.506 106.333 126.24 108.248 125.735C110.295 125.196 112.254 124.393 114.079 123.353L102.867 103.742C102.753 103.804 102.632 103.853 102.506 103.888ZM103.268 103.435L114.51 123.101C116.189 122.098 117.747 120.891 119.148 119.502C120.592 118.07 121.844 116.468 122.879 114.738L103.345 103.349C103.32 103.379 103.295 103.407 103.268 103.435ZM103.605 102.922L123.132 114.307C124.143 112.536 124.931 110.638 125.471 108.654C126.01 106.674 126.294 104.641 126.322 102.606L103.717 102.51C103.707 102.58 103.693 102.649 103.675 102.718C103.656 102.787 103.632 102.855 103.605 102.922ZM103.711 102.01L126.323 102.106C126.316 101.142 126.252 100.179 126.13 99.2203C126.033 98.458 125.9 97.6992 125.73 96.9465C125.667 96.6631 125.597 96.3806 125.523 96.099C124.998 94.1041 124.222 92.1932 123.221 90.4094L103.6 101.626C103.631 101.7 103.658 101.776 103.678 101.855C103.692 101.906 103.703 101.958 103.711 102.01ZM103.337 101.201L122.972 89.9759C121.952 88.244 120.718 86.638 119.29 85.1989C117.86 83.7569 116.261 82.5066 114.534 81.4718L103.144 101.007C103.18 101.038 103.216 101.071 103.25 101.105C103.28 101.136 103.309 101.168 103.337 101.201ZM102.718 100.745L114.102 81.2192C112.33 80.2062 110.429 79.4168 108.442 78.8756C106.434 78.3284 104.372 78.0445 102.308 78.024L102.212 100.619C102.31 100.627 102.408 100.645 102.504 100.671C102.577 100.691 102.649 100.715 102.718 100.745ZM101.712 100.65L101.808 78.0241C99.8172 78.0454 97.8279 78.3117 95.886 78.8234C93.8388 79.3629 91.8802 80.1655 90.0565 81.2048L101.268 100.816C101.385 100.751 101.51 100.702 101.641 100.667C101.665 100.661 101.688 100.655 101.712 100.65ZM100.866 101.121L89.6247 81.4568C87.9455 82.4602 86.3867 83.6672 84.9859 85.0564C83.5229 86.5073 82.2571 88.1322 81.2135 89.8885L100.737 101.272C100.777 101.219 100.82 101.169 100.866 101.121ZM20.9392 54.7459L39.95 65.83C43.0865 60.4851 46.913 55.5446 51.3511 51.1432C55.7301 46.8005 60.629 43.0574 65.9178 39.9884L54.996 20.8837C48.0441 24.9037 41.6062 29.8149 35.8552 35.5183C30.0464 41.2791 25.0399 47.7475 20.9392 54.7459ZM8.03867 102.293C8.03968 110.341 9.07393 118.39 11.1423 126.239C13.2414 134.206 16.3686 141.826 20.4199 148.918L39.5247 137.996C36.4234 132.566 34.0292 126.731 32.422 120.632C30.8461 114.651 30.0539 108.519 30.0449 102.386L8.03867 102.293ZM30.5449 102.389C30.5541 108.477 31.3408 114.566 32.9055 120.504C34.5016 126.561 36.879 132.355 39.9588 137.748L59.0643 126.826C56.9346 123.095 55.2904 119.086 54.1863 114.896C53.1139 110.827 52.5694 106.655 52.5524 102.482L30.5449 102.389ZM53.0524 102.484C53.0696 106.614 53.6086 110.742 54.6698 114.769C55.7627 118.917 57.3903 122.884 59.4984 126.578L80.5577 114.538C79.4968 112.677 78.6775 110.678 78.1269 108.588C77.6843 106.908 77.4216 105.194 77.3385 103.473C77.3243 103.178 77.3153 102.883 77.3117 102.588L53.0524 102.484ZM35.3029 168.491C29.5999 162.741 24.689 156.303 20.6691 149.352L39.7742 138.43C42.843 143.718 46.5858 148.616 50.928 152.995C55.342 157.445 60.2984 161.281 65.661 164.423L54.5765 183.434C47.5604 179.328 41.0763 174.313 35.3029 168.491ZM51.2831 152.643C46.9717 148.295 43.2555 143.432 40.2083 138.181L59.3144 127.259C61.4104 130.846 63.9584 134.171 66.9092 137.146C69.9327 140.195 73.3263 142.824 76.9975 144.979L65.9128 163.991C60.5878 160.871 55.6662 157.062 51.2831 152.643ZM67.2642 136.794C64.3444 133.85 61.8228 130.56 59.7485 127.011L80.8097 114.97C81.8347 116.687 83.0683 118.281 84.4884 119.713C85.9823 121.219 87.6569 122.521 89.4676 123.591L77.2493 144.547C73.6157 142.414 70.2568 139.811 67.2642 136.794ZM55.0087 183.685C61.9944 187.724 69.5005 190.863 77.3525 193.002C85.2946 195.165 93.4509 196.267 101.612 196.307L101.706 174.3C95.4588 174.269 89.2156 173.425 83.1362 171.769C77.1487 170.138 71.4237 167.747 66.0932 164.674L55.0087 183.685ZM66.3451 164.242C71.6379 167.293 77.3224 169.667 83.2676 171.286C89.3046 172.931 95.5044 173.769 101.708 173.8L101.802 151.793C97.5126 151.77 93.2263 151.19 89.0523 150.053C84.9713 148.942 81.0677 147.317 77.4299 145.23L66.3451 164.242ZM77.6818 144.798C81.2819 146.863 85.1451 148.471 89.1837 149.571C93.3154 150.696 97.5583 151.271 101.804 151.293L101.907 127.036C99.7719 127.023 97.6381 126.733 95.56 126.167C93.5761 125.626 91.6761 124.843 89.9005 123.841L77.6818 144.798ZM126.024 193.204C118.186 195.269 110.149 196.304 102.112 196.308L102.206 174.301C108.327 174.289 114.447 173.497 120.416 171.924C126.517 170.316 132.353 167.921 137.784 164.819L148.706 183.924C141.613 187.977 133.991 191.105 126.024 193.204ZM120.289 171.44C114.362 173.002 108.285 173.789 102.208 173.801L102.302 151.794C106.463 151.774 110.624 151.229 114.682 150.16C118.873 149.055 122.882 147.411 126.614 145.28L137.536 164.385C132.142 167.466 126.347 169.844 120.289 171.44ZM114.555 149.676C110.539 150.735 106.422 151.274 102.304 151.294L102.407 127.035C104.414 127.007 106.418 126.736 108.375 126.22C110.465 125.669 112.465 124.849 114.327 123.788L126.366 144.846C122.672 146.955 118.703 148.583 114.555 149.676ZM149.14 183.675C156.09 179.656 162.526 174.745 168.276 169.043C174.067 163.301 179.06 156.854 183.154 149.881L164.142 138.796C161.013 144.116 157.199 149.034 152.779 153.418C148.402 157.759 143.504 161.501 138.217 164.57L149.14 183.675ZM137.969 164.136C143.218 161.089 148.081 157.373 152.427 153.063C156.816 148.71 160.603 143.827 163.71 138.544L144.699 127.46C142.556 131.089 139.95 134.444 136.932 137.437C133.957 140.387 130.634 142.935 127.047 145.03L137.969 164.136ZM126.799 144.596C130.348 142.522 133.636 140.001 136.58 137.082C139.567 134.12 142.146 130.799 144.267 127.208L123.312 114.991C122.254 116.759 120.975 118.395 119.5 119.858C118.068 121.278 116.475 122.511 114.759 123.536L126.799 144.596ZM192.787 126.994C190.636 134.888 187.475 142.432 183.406 149.449L164.394 138.364C167.498 133.002 169.911 127.239 171.554 121.21C173.195 115.185 174.038 109 174.084 102.81L196.09 102.904C196.037 111.008 194.935 119.107 192.787 126.994ZM171.071 121.078C169.44 127.065 167.045 132.788 163.962 138.113L144.951 127.029C147.069 123.359 148.716 119.417 149.839 115.294C150.961 111.175 151.541 106.947 151.578 102.714L173.584 102.808C173.538 108.955 172.701 115.096 171.071 121.078ZM149.357 115.162C148.245 119.243 146.615 123.145 144.519 126.777L123.564 114.559C124.597 112.751 125.402 110.813 125.954 108.787C126.505 106.764 126.794 104.687 126.822 102.609L151.078 102.712C151.041 106.901 150.467 111.086 149.357 115.162ZM196.092 102.404C196.103 94.3106 195.069 86.2155 192.989 78.3224C190.903 70.4083 187.803 62.8356 183.79 55.7828L164.686 66.7047C167.748 72.0956 170.115 77.8824 171.708 83.9293C173.296 89.9541 174.088 96.1325 174.086 102.31L196.092 102.404ZM173.586 102.308C173.588 96.1739 172.801 90.039 171.225 84.0567C169.643 78.0522 167.293 72.306 164.252 66.9529L145.147 77.8744C147.238 81.5656 148.855 85.5261 149.946 89.6636C151.03 93.7776 151.574 97.9958 151.58 102.214L173.586 102.308ZM151.08 102.212C151.074 98.0372 150.535 93.8626 149.462 89.791C148.383 85.6959 146.783 81.776 144.713 78.1226L123.655 90.161C124.678 91.9824 125.47 93.9335 126.007 95.9706C126.113 96.3731 126.208 96.7777 126.294 97.1839C126.431 97.838 126.542 98.4964 126.626 99.1572C126.751 100.137 126.817 101.123 126.823 102.109L151.08 102.212ZM168.828 36.0706C174.569 41.8595 179.507 48.3444 183.542 55.3489L164.437 66.2708C161.353 60.9293 157.583 55.9833 153.202 51.5663C148.822 47.1493 143.907 43.3379 138.592 40.2098L149.676 21.1988C156.645 25.2912 163.088 30.2826 168.828 36.0706ZM152.847 51.9184C157.197 56.3042 160.941 61.2153 164.003 66.519L144.899 77.4406C142.788 73.8 140.212 70.4279 137.223 67.414C134.233 64.3989 130.88 61.7943 127.256 59.6523L138.34 40.6417C143.618 43.7479 148.498 47.5325 152.847 51.9184ZM136.868 67.7661C139.826 70.7488 142.375 74.086 144.465 77.6888L123.406 89.7275C122.365 87.9575 121.104 86.3164 119.645 84.8458C118.184 83.3729 116.551 82.0959 114.786 81.0391L127.004 60.0843C130.591 62.2043 133.909 64.7821 136.868 67.7661ZM149.244 20.9468C142.224 16.8747 134.676 13.7112 126.778 11.5598C118.864 9.40401 110.738 8.30232 102.605 8.25562L102.512 30.2614C108.73 30.3 114.943 31.1437 120.994 32.7921C127.028 34.4356 132.795 36.8504 138.16 39.9577L149.244 20.9468ZM137.908 40.3896C132.58 37.3043 126.854 34.9065 120.863 33.2745C114.854 31.6377 108.684 30.7998 102.51 30.7614L102.416 52.7672C106.676 52.7973 110.934 53.3773 115.08 54.5068C119.206 55.6309 123.152 57.2798 126.824 59.4002L137.908 40.3896ZM126.572 59.8321C122.937 57.7337 119.033 56.1018 114.948 54.9892C110.844 53.8713 106.631 53.2972 102.414 53.2672L102.31 77.523C104.418 77.5437 106.523 77.8335 108.574 78.3922C110.603 78.945 112.544 79.7515 114.355 80.7866L126.572 59.8321ZM78.107 11.3577C85.9732 9.28489 94.04 8.25065 102.105 8.25408L102.012 30.2601C95.862 30.2646 89.7119 31.0568 83.7141 32.6372C77.6154 34.2443 71.7813 36.638 66.3511 39.7389L55.4295 20.6345C62.5215 16.5836 70.1413 13.4566 78.107 11.3577ZM83.8415 33.1207C89.7969 31.5515 95.9034 30.7648 102.01 30.7601L101.916 52.7662C97.7257 52.7789 93.5362 53.3235 89.4496 54.4003C85.26 55.5043 81.252 57.1483 77.5212 59.2778L66.5993 40.173C71.9917 37.0937 77.7852 34.7166 83.8415 33.1207ZM89.577 54.8838C93.6212 53.8182 97.7671 53.2791 101.914 53.2662L101.81 77.5231C99.7758 77.5442 97.7429 77.8161 95.7586 78.339C93.6688 78.8896 91.6695 79.709 89.8079 80.7699L77.7694 59.7119C81.4624 57.604 85.4298 55.9766 89.577 54.8838Z" fill="#0284D2"/>
</g>
<g opacity="0.8">
<circle cx="101.811" cy="102.333" r="24.4209" fill="#4396F7" fill-opacity="0.1"/>
<circle cx="101.811" cy="102.333" r="49.3232" fill="#4396F7" fill-opacity="0.1"/>
<circle cx="101.811" cy="102.332" r="71.9546" fill="#4396F7" fill-opacity="0.1"/>
<circle cx="101.81" cy="102.333" r="94.3093" fill="#4396F7" fill-opacity="0.1"/>
</g>
<path d="M173.709 102.27C173.698 89.7543 170.406 77.4607 164.161 66.6148L144.805 77.7593C149.102 85.2213 151.367 93.6792 151.374 102.29L173.709 102.27Z" fill="#F74343"/>
<path d="M101.967 30.747C89.4517 30.7731 77.162 34.0799 66.3235 40.3374L77.4909 59.6802C84.9478 55.375 93.4031 53.0999 102.014 53.0819L101.967 30.747Z" fill="#F74343"/>
<path d="M65.9686 40.538C55.1653 46.8561 46.2071 55.8961 39.9875 66.7565L59.3691 77.8562C63.6483 70.3843 69.8115 64.1648 77.2442 59.8179L65.9686 40.538Z" fill="#F74343"/>
<path d="M39.9982 66.7556C33.7784 77.6159 30.5146 89.917 30.532 102.432L52.867 102.401C52.855 93.7906 55.1005 85.3274 59.3797 77.8555L39.9982 66.7556Z" fill="#F74343"/>
<path d="M66.6124 164.492C77.4795 170.7 89.7841 173.95 102.299 173.919L102.244 151.584C93.6333 151.606 85.1677 149.37 77.6911 145.099L66.6124 164.492Z" fill="#F74343"/>
<path d="M164.062 138.227C170.337 127.398 173.664 115.114 173.71 102.599L151.375 102.517C151.343 111.127 149.055 119.579 144.737 127.029L164.062 138.227Z" fill="#F74343"/>
<path d="M137.959 40.3643C127.125 34.0982 114.838 30.7817 102.323 30.7456L102.258 53.0805C110.869 53.1053 119.322 55.3871 126.776 59.6982L137.959 40.3643Z" fill="#F74343"/>
<path d="M151.137 102.289C151.13 93.7196 148.875 85.3016 144.599 77.8749L123.529 90.0065C125.684 93.7495 126.82 97.9922 126.824 102.311L151.137 102.289Z" fill="#4396F7"/>
<path d="M144.629 77.9236C140.361 70.4919 134.22 64.3088 126.818 59.9908L114.567 80.9924C118.298 83.1686 121.393 86.2849 123.544 90.0305L144.629 77.9236Z" fill="#F74343"/>
<path d="M102.012 53.3146C93.4422 53.3325 85.0269 55.5967 77.6052 59.8816L89.7618 80.9375C93.5023 78.778 97.7436 77.6368 102.063 77.6278L102.012 53.3146Z" fill="#4396F7"/>
<path d="M77.3628 60.0189C69.9652 64.3452 63.8311 70.5353 59.5723 77.9719L80.6706 90.0548C82.8171 86.3067 85.9086 83.1869 89.637 81.0064L77.3628 60.0189Z" fill="#4396F7"/>
<path d="M59.5787 77.9708C55.3197 85.4073 53.0848 93.8304 53.0967 102.4L77.41 102.366C77.4039 98.0471 78.5303 93.8018 80.6769 90.0538L59.5787 77.9708Z" fill="#4396F7"/>
<path d="M53.0988 102.549C53.1367 111.119 55.4205 119.529 59.7226 126.941L80.7502 114.735C78.582 111 77.4309 106.761 77.4118 102.442L53.0988 102.549Z" fill="#F74343"/>
<path d="M77.8018 144.896C85.243 149.147 93.6686 151.373 102.238 151.351L102.178 127.038C97.8587 127.049 93.6122 125.927 89.8618 123.785L77.8018 144.896Z" fill="#4396F7"/>
<path d="M126.808 144.668C134.211 140.351 140.353 134.169 144.621 126.737L123.538 114.628C121.387 118.373 118.291 121.489 114.56 123.665L126.808 144.668Z" fill="#F74343"/>
<path d="M144.532 126.91C148.828 119.496 151.106 111.084 151.137 102.514L126.824 102.425C126.808 106.744 125.66 110.983 123.495 114.72L144.532 126.91Z" fill="#4396F7"/>
<path d="M126.656 59.8995C119.238 55.6088 110.825 53.3378 102.255 53.3131L102.185 77.6262C106.504 77.6387 110.744 78.7833 114.483 80.9458L126.656 59.8995Z" fill="#4396F7"/>
<mask id="mask0" mask-type="alpha" maskUnits="userSpaceOnUse" x="59" y="101" width="44" height="45">
<path d="M77.4392 145.616L102.306 101.429L59.1299 127.11C59.1299 127.11 66.5056 135.991 68.3834 137.741C70.2611 139.491 77.4392 145.616 77.4392 145.616Z" fill="#F74343"/>
</mask>
<g mask="url(#mask0)">
<path fill-rule="evenodd" clip-rule="evenodd" d="M48.8226 133.422L40.8276 166.934L42.3902 167.307L50.3853 133.795L48.8226 133.422ZM83.1121 112.343L75.117 145.854L76.6797 146.227L84.6748 112.716L83.1121 112.343ZM109.407 124.775L117.402 91.263L118.964 91.6358L110.969 125.147L109.407 124.775ZM65.9674 122.883L57.9723 156.394L59.535 156.767L67.53 123.255L65.9674 122.883ZM92.2618 135.314L100.257 101.803L101.82 102.176L93.8244 135.687L92.2618 135.314ZM134.546 80.7232L126.551 114.235L128.114 114.608L136.109 81.096L134.546 80.7232ZM46.5425 163.421L54.5376 129.909L56.1002 130.282L48.1052 163.794L46.5425 163.421ZM88.827 108.829L80.832 142.341L82.3946 142.714L90.3897 109.202L88.827 108.829ZM115.121 121.261L123.116 87.7497L124.679 88.1226L116.684 121.634L115.121 121.261ZM71.6823 119.369L63.6872 152.881L65.2499 153.254L73.245 119.742L71.6823 119.369ZM97.9767 131.801L105.972 98.2896L107.534 98.6624L99.5394 132.174L97.9767 131.801ZM140.261 77.2099L132.266 110.721L133.829 111.094L141.824 77.5827L140.261 77.2099ZM52.2574 159.907L60.2525 126.396L61.8151 126.769L53.8201 160.28L52.2574 159.907ZM94.5419 105.316L86.5469 138.828L88.1095 139.201L96.1046 105.689L94.5419 105.316ZM120.836 117.748L128.831 84.2365L130.394 84.6093L122.399 118.121L120.836 117.748ZM77.3972 115.856L69.4021 149.368L70.9648 149.74L78.9599 116.229L77.3972 115.856ZM103.692 128.288L111.687 94.7763L113.249 95.1491L105.254 128.661L103.692 128.288ZM145.976 73.6966L137.981 107.208L139.544 107.581L147.539 74.0694L145.976 73.6966Z" fill="#4396F7"/>
</g>
<path d="M126.879 102.548C126.879 98.2647 125.756 94.0563 123.622 90.3424L102.379 102.548H126.879Z" fill="#4396F7"/>
<path d="M123.636 90.3669C121.507 86.6505 118.44 83.5574 114.742 81.3959L102.379 102.548L123.636 90.3669Z" fill="#4396F7"/>
<path d="M102.348 78.0479C98.065 78.0529 93.8579 79.1809 90.1466 81.3191L102.377 102.548L102.348 78.0479Z" fill="#4396F7"/>
<path d="M90.0109 81.3951C86.3128 83.5564 83.246 86.6494 81.1163 90.3656L102.373 102.548L90.0109 81.3951Z" fill="#4396F7"/>
<path d="M81.0884 90.4229C78.9687 94.1449 77.8618 98.3575 77.8781 102.641L102.378 102.548L81.0884 90.4229Z" fill="#4396F7"/>
<path d="M77.8795 102.705C77.907 106.988 79.0569 111.189 81.2146 114.889L102.379 102.547L77.8795 102.705Z" fill="#4396F7"/>
<path d="M90.2662 123.844C93.9893 125.962 98.2025 127.066 102.486 127.048L102.38 102.548L90.2662 123.844Z" fill="#4396F7"/>
<path d="M102.545 127.047C106.828 127.018 111.029 125.867 114.728 123.708L102.38 102.548L102.545 127.047Z" fill="#F74343"/>
<path d="M114.763 123.682C118.459 121.517 121.522 118.421 123.648 114.703L102.379 102.542L114.763 123.682Z" fill="#4396F7"/>
<path d="M123.669 114.673C125.789 110.951 126.896 106.738 126.88 102.455L102.38 102.548L123.669 114.673Z" fill="#4396F7"/>
<path d="M114.725 81.3862C111.026 79.2275 106.825 78.0765 102.542 78.0479L102.378 102.547L114.725 81.3862Z" fill="#4396F7"/>
<mask id="mask1" mask-type="alpha" maskUnits="userSpaceOnUse" x="39" y="127" width="38" height="38">
<path d="M66.246 164.465L76.9707 144.825L67.5381 138.236L59.01 127.381L39.4985 138.236C39.4985 138.236 48.9917 151.732 50.8695 153.482C52.7472 155.232 66.246 164.465 66.246 164.465Z" fill="#F74343"/>
</mask>
<g mask="url(#mask1)">
<path fill-rule="evenodd" clip-rule="evenodd" d="M32.2221 160.292L24.227 193.803L25.7897 194.176L33.7847 160.664L32.2221 160.292ZM66.5115 139.212L58.5165 172.723L60.0791 173.096L68.0742 139.585L66.5115 139.212ZM92.8059 151.644L100.801 118.132L102.364 118.505L94.3686 152.017L92.8059 151.644ZM49.3668 149.752L41.3717 183.263L42.9344 183.636L50.9295 150.125L49.3668 149.752ZM75.6612 162.184L83.6563 128.672L85.2189 129.045L77.2239 162.556L75.6612 162.184ZM117.946 107.592L109.951 141.104L111.513 141.477L119.508 107.965L117.946 107.592ZM29.9419 190.29L37.937 156.778L39.4996 157.151L31.5046 190.663L29.9419 190.29ZM72.2264 135.699L64.2314 169.21L65.794 169.583L73.7891 136.071L72.2264 135.699ZM98.5208 148.13L106.516 114.619L108.079 114.992L100.084 148.503L98.5208 148.13ZM55.0817 146.238L47.0866 179.75L48.6493 180.123L56.6444 146.611L55.0817 146.238ZM81.3761 158.67L89.3712 125.159L90.9338 125.532L82.9388 159.043L81.3761 158.67ZM123.661 104.079L115.666 137.591L117.228 137.963L125.223 104.452L123.661 104.079ZM35.6568 186.777L43.6519 153.265L45.2145 153.638L37.2195 187.149L35.6568 186.777ZM77.9414 132.185L69.9463 165.697L71.5089 166.07L79.504 132.558L77.9414 132.185ZM104.236 144.617L112.231 111.106L113.793 111.478L105.798 144.99L104.236 144.617ZM60.7966 142.725L52.8016 176.237L54.3642 176.61L62.3593 143.098L60.7966 142.725ZM87.091 155.157L95.0861 121.645L96.6487 122.018L88.6537 155.53L87.091 155.157ZM129.376 100.566L121.38 134.077L122.943 134.45L130.938 100.939L129.376 100.566Z" fill="#F74343"/>
<path fill-rule="evenodd" clip-rule="evenodd" d="M32.2221 140.071L24.227 173.582L25.7897 173.955L33.7847 140.444L32.2221 140.071ZM66.5115 118.991L58.5165 152.503L60.0791 152.876L68.0742 119.364L66.5115 118.991ZM92.8059 131.423L100.801 97.9115L102.364 98.2843L94.3686 131.796L92.8059 131.423ZM49.3668 129.531L41.3717 163.043L42.9344 163.415L50.9295 129.904L49.3668 129.531ZM75.6612 141.963L83.6563 108.451L85.2189 108.824L77.2239 142.336L75.6612 141.963ZM117.946 87.3716L109.951 120.883L111.513 121.256L119.508 87.7444L117.946 87.3716ZM29.9419 170.069L37.937 136.558L39.4996 136.93L31.5046 170.442L29.9419 170.069ZM72.2264 115.478L64.2314 148.989L65.794 149.362L73.7891 115.851L72.2264 115.478ZM98.5208 127.91L106.516 94.3982L108.079 94.771L100.084 128.283L98.5208 127.91ZM55.0817 126.018L47.0866 159.529L48.6493 159.902L56.6444 126.391L55.0817 126.018ZM81.3761 138.45L89.3712 104.938L90.9338 105.311L82.9388 138.822L81.3761 138.45ZM123.661 83.8583L115.666 117.37L117.228 117.743L125.223 84.2312L123.661 83.8583ZM35.6568 166.556L43.6519 133.044L45.2145 133.417L37.2195 166.929L35.6568 166.556ZM77.9414 111.965L69.9463 145.476L71.5089 145.849L79.504 112.337L77.9414 111.965ZM104.236 124.396L112.231 90.8849L113.793 91.2577L105.798 124.769L104.236 124.396ZM60.7966 122.504L52.8016 156.016L54.3642 156.389L62.3593 122.877L60.7966 122.504ZM87.091 134.936L95.0861 101.425L96.6487 101.798L88.6537 135.309L87.091 134.936ZM129.376 80.3451L121.38 113.857L122.943 114.229L130.938 80.7179L129.376 80.3451Z" fill="#F74343"/>
<path fill-rule="evenodd" clip-rule="evenodd" d="M32.2221 119.693L24.227 153.204L25.7897 153.577L33.7847 120.066L32.2221 119.693ZM66.5115 98.6132L58.5165 132.125L60.0791 132.498L68.0742 98.986L66.5115 98.6132ZM92.8059 111.045L100.801 77.5335L102.364 77.9064L94.3686 111.418L92.8059 111.045ZM49.3668 109.153L41.3717 142.665L42.9344 143.037L50.9295 109.526L49.3668 109.153ZM75.6612 121.585L83.6563 88.0734L85.2189 88.4462L77.2239 121.958L75.6612 121.585ZM117.946 66.9937L109.951 100.505L111.513 100.878L119.508 67.3665L117.946 66.9937ZM29.9419 149.691L37.937 116.18L39.4996 116.552L31.5046 150.064L29.9419 149.691ZM72.2264 95.1L64.2314 128.612L65.794 128.984L73.7891 95.4728L72.2264 95.1ZM98.5208 107.532L106.516 74.0203L108.079 74.3931L100.084 107.905L98.5208 107.532ZM55.0817 105.64L47.0866 139.151L48.6493 139.524L56.6444 106.013L55.0817 105.64ZM81.3761 118.072L89.3712 84.5601L90.9338 84.9329L82.9388 118.444L81.3761 118.072ZM123.661 63.4804L115.666 96.992L117.228 97.3648L125.223 63.8532L123.661 63.4804ZM35.6568 146.178L43.6519 112.666L45.2145 113.039L37.2195 146.551L35.6568 146.178ZM77.9414 91.5867L69.9463 125.098L71.5089 125.471L79.504 91.9595L77.9414 91.5867ZM104.236 104.019L112.231 70.507L113.793 70.8798L105.798 104.391L104.236 104.019ZM60.7966 102.127L52.8016 135.638L54.3642 136.011L62.3593 102.499L60.7966 102.127ZM87.091 114.558L95.0861 81.0468L96.6487 81.4196L88.6537 114.931L87.091 114.558ZM129.376 59.9671L121.38 93.4787L122.943 93.8515L130.938 60.3399L129.376 59.9671Z" fill="#F74343"/>
</g>
<g style="mix-blend-mode:screen">
<path fill-rule="evenodd" clip-rule="evenodd" d="M102.637 0.887029L102.608 7.75562C110.783 7.80251 118.954 8.91006 126.91 11.0774C134.85 13.2403 142.438 16.4208 149.496 20.5149L152.816 14.8196L153.248 15.0715L149.928 20.7669C156.935 24.8812 163.412 29.8994 169.183 35.7185C174.955 41.5385 179.92 48.0584 183.976 55.1007L189.866 51.7334L190.114 52.1675L184.225 55.5346C188.259 62.6252 191.376 70.2385 193.472 78.195C195.563 86.1306 196.603 94.2692 196.592 102.406L203.632 102.436L203.63 102.936L196.59 102.906C196.536 111.054 195.429 119.196 193.269 127.125C191.107 135.061 187.929 142.646 183.837 149.701L189.695 153.116L189.444 153.548L183.585 150.133C179.47 157.144 174.45 163.625 168.628 169.398C162.847 175.131 156.376 180.068 149.388 184.109L152.784 190.049L152.349 190.297L148.954 184.358C141.823 188.432 134.161 191.577 126.151 193.688C118.271 195.764 110.19 196.804 102.11 196.808L102.08 203.815L101.58 203.813L101.61 196.807C93.4053 196.767 85.2055 195.659 77.2211 193.484C69.3268 191.334 61.7801 188.177 54.7569 184.117L51.3987 189.877L50.9668 189.625L54.3247 183.866C47.271 179.738 40.7522 174.696 34.9479 168.843C29.214 163.061 24.2765 156.589 20.235 149.6L14.3498 152.964L14.1016 152.53L19.9858 149.166C15.913 142.036 12.769 134.375 10.6588 126.367C8.57925 118.475 7.5395 110.382 7.53867 102.291L0.584014 102.261L0.586144 101.761L7.53994 101.791C7.58244 93.5975 8.69008 85.4096 10.862 77.4365C13.0172 69.5249 16.1828 61.9625 20.2557 54.9261L14.5207 51.5824L14.7725 51.1505L20.5073 54.4941C24.6298 47.458 29.6631 40.9549 35.5031 35.1633C41.2852 29.429 47.7582 24.4913 54.7478 20.4496L51.4315 14.6487L51.8656 14.4006L55.1813 20.2005C62.3111 16.128 69.9715 12.9843 77.9796 10.8742C85.8883 8.79021 93.9986 7.75046 102.108 7.75408L102.137 0.884899L102.637 0.887029ZM11.3444 77.5679C13.4881 69.6986 16.6366 62.1767 20.6876 55.178L39.6984 66.2621C36.6124 71.6057 34.2127 77.3465 32.5769 83.3514C30.9239 89.4195 30.08 95.6509 30.0459 101.886L8.03994 101.793C8.08225 93.6431 9.18403 85.4987 11.3444 77.5679ZM33.0593 83.4828C34.6835 77.5203 37.0663 71.8199 40.1304 66.514L59.142 77.5986C57.0429 81.2493 55.4091 85.1684 54.2928 89.2663C53.1587 93.4294 52.5786 97.7044 52.5529 101.982L30.5459 101.889C30.5798 95.6965 31.4179 89.5086 33.0593 83.4828ZM40.3819 66.0819L59.3935 77.1664C61.5439 73.5125 64.1638 70.1343 67.2 67.1232C70.1756 64.1722 73.5005 61.6239 77.0882 59.5279L66.166 40.4225C60.915 43.4699 56.051 47.1864 51.7032 51.4983C47.2963 55.8687 43.4965 60.7746 40.3819 66.0819ZM54.7752 89.3977C55.88 85.3421 57.4968 81.4635 59.574 77.8505L80.5301 90.0688C79.5164 91.8569 78.725 93.7718 78.1801 95.7719C77.6803 97.6067 77.3958 99.4849 77.3265 101.369C77.3177 101.609 77.3123 101.848 77.3105 102.088L53.0529 101.984C53.0784 97.75 53.6527 93.5185 54.7752 89.3977ZM59.8254 77.4183L80.7811 89.6364C81.8467 87.8423 83.1394 86.1824 84.6338 84.7004C86.0656 83.2804 87.6592 82.0469 89.376 81.0219L77.3364 59.9619C73.7865 62.0364 70.4966 64.5581 67.5521 67.4782C64.547 70.4584 61.9539 73.802 59.8254 77.4183ZM78.6626 95.9044C79.196 93.9463 79.9705 92.0716 80.9625 90.321L100.498 101.711C100.483 101.754 100.469 101.797 100.457 101.841C100.426 101.954 100.408 102.07 100.401 102.186L77.8105 102.09C77.8123 101.856 77.8175 101.622 77.8262 101.388C77.8941 99.5417 78.1729 97.7018 78.6626 95.9044ZM100.449 102.686L77.8117 102.59C77.8153 102.872 77.8239 103.155 77.8374 103.437C77.9181 105.127 78.1758 106.81 78.6104 108.46C79.1499 110.507 79.9527 112.466 80.9923 114.29L100.603 103.079C100.538 102.961 100.488 102.835 100.453 102.704C100.452 102.698 100.45 102.692 100.449 102.686ZM100.909 103.48L81.2443 114.722C82.2476 116.401 83.4544 117.959 84.8434 119.36C86.3065 120.835 87.9466 122.11 89.7199 123.158L101.101 103.639C101.033 103.591 100.969 103.538 100.909 103.48ZM101.548 103.864L90.1529 123.408C91.8906 124.388 93.75 125.154 95.6913 125.683C97.7271 126.238 99.8175 126.522 101.909 126.535L102.006 103.946C101.878 103.941 101.752 103.922 101.628 103.888C101.601 103.881 101.574 103.873 101.548 103.864ZM102.506 103.888L102.409 126.533C104.372 126.506 106.333 126.24 108.248 125.735C110.295 125.196 112.254 124.393 114.079 123.353L102.867 103.742C102.753 103.804 102.632 103.853 102.506 103.888ZM103.268 103.435L114.51 123.101C116.189 122.098 117.747 120.891 119.148 119.502C120.592 118.07 121.844 116.468 122.879 114.738L103.345 103.349C103.32 103.379 103.295 103.407 103.268 103.435ZM103.605 102.922L123.132 114.307C124.143 112.536 124.931 110.638 125.471 108.654C126.01 106.674 126.294 104.641 126.322 102.606L103.717 102.51C103.707 102.58 103.693 102.649 103.675 102.718C103.656 102.787 103.632 102.855 103.605 102.922ZM103.711 102.01L126.323 102.106C126.316 101.142 126.252 100.179 126.13 99.2203C126.033 98.458 125.9 97.6992 125.73 96.9465C125.667 96.6631 125.597 96.3806 125.523 96.099C124.998 94.1041 124.222 92.1932 123.221 90.4094L103.6 101.626C103.631 101.7 103.658 101.776 103.678 101.855C103.692 101.906 103.703 101.958 103.711 102.01ZM103.337 101.201L122.972 89.9759C121.952 88.244 120.718 86.638 119.29 85.1989C117.86 83.7569 116.261 82.5066 114.534 81.4718L103.144 101.007C103.18 101.038 103.216 101.071 103.25 101.105C103.28 101.136 103.309 101.168 103.337 101.201ZM102.718 100.745L114.102 81.2192C112.33 80.2062 110.429 79.4168 108.442 78.8756C106.434 78.3284 104.372 78.0445 102.308 78.024L102.212 100.619C102.31 100.627 102.408 100.645 102.504 100.671C102.577 100.691 102.649 100.715 102.718 100.745ZM101.712 100.65L101.808 78.0241C99.8172 78.0454 97.8279 78.3117 95.886 78.8234C93.8388 79.3629 91.8802 80.1655 90.0565 81.2048L101.268 100.816C101.385 100.751 101.51 100.702 101.641 100.667C101.665 100.661 101.688 100.655 101.712 100.65ZM100.866 101.121L89.6247 81.4568C87.9455 82.4602 86.3867 83.6672 84.9859 85.0564C83.5229 86.5073 82.2571 88.1322 81.2135 89.8885L100.737 101.272C100.777 101.219 100.82 101.169 100.866 101.121ZM20.9392 54.7459L39.95 65.83C43.0865 60.4851 46.913 55.5446 51.3511 51.1432C55.7301 46.8005 60.629 43.0574 65.9178 39.9884L54.996 20.8837C48.0441 24.9037 41.6062 29.8149 35.8552 35.5183C30.0464 41.2791 25.0399 47.7475 20.9392 54.7459ZM8.03867 102.293C8.03968 110.341 9.07393 118.39 11.1423 126.239C13.2414 134.206 16.3686 141.826 20.4199 148.918L39.5247 137.996C36.4234 132.566 34.0292 126.731 32.422 120.632C30.8461 114.651 30.0539 108.519 30.0449 102.386L8.03867 102.293ZM30.5449 102.389C30.5541 108.477 31.3408 114.566 32.9055 120.504C34.5016 126.561 36.879 132.355 39.9588 137.748L59.0643 126.826C56.9346 123.095 55.2904 119.086 54.1863 114.896C53.1139 110.827 52.5694 106.655 52.5524 102.482L30.5449 102.389ZM53.0524 102.484C53.0696 106.614 53.6086 110.742 54.6698 114.769C55.7627 118.917 57.3903 122.884 59.4984 126.578L80.5577 114.538C79.4968 112.677 78.6775 110.678 78.1269 108.588C77.6843 106.908 77.4216 105.194 77.3385 103.473C77.3243 103.178 77.3153 102.883 77.3117 102.588L53.0524 102.484ZM35.3029 168.491C29.5999 162.741 24.689 156.303 20.6691 149.352L39.7742 138.43C42.843 143.718 46.5858 148.616 50.928 152.995C55.342 157.445 60.2984 161.281 65.661 164.423L54.5765 183.434C47.5604 179.328 41.0763 174.313 35.3029 168.491ZM51.2831 152.643C46.9717 148.295 43.2555 143.432 40.2083 138.181L59.3144 127.259C61.4104 130.846 63.9584 134.171 66.9092 137.146C69.9327 140.195 73.3263 142.824 76.9975 144.979L65.9128 163.991C60.5878 160.871 55.6662 157.062 51.2831 152.643ZM67.2642 136.794C64.3444 133.85 61.8228 130.56 59.7485 127.011L80.8097 114.97C81.8347 116.687 83.0683 118.281 84.4884 119.713C85.9823 121.219 87.6569 122.521 89.4676 123.591L77.2493 144.547C73.6157 142.414 70.2568 139.811 67.2642 136.794ZM55.0087 183.685C61.9944 187.724 69.5005 190.863 77.3525 193.002C85.2946 195.165 93.4509 196.267 101.612 196.307L101.706 174.3C95.4588 174.269 89.2156 173.425 83.1362 171.769C77.1487 170.138 71.4237 167.747 66.0932 164.674L55.0087 183.685ZM66.3451 164.242C71.6379 167.293 77.3224 169.667 83.2676 171.286C89.3046 172.931 95.5044 173.769 101.708 173.8L101.802 151.793C97.5126 151.77 93.2263 151.19 89.0523 150.053C84.9713 148.942 81.0677 147.317 77.4299 145.23L66.3451 164.242ZM77.6818 144.798C81.2819 146.863 85.1451 148.471 89.1837 149.571C93.3154 150.696 97.5583 151.271 101.804 151.293L101.907 127.036C99.7719 127.023 97.6381 126.733 95.56 126.167C93.5761 125.626 91.6761 124.843 89.9005 123.841L77.6818 144.798ZM126.024 193.204C118.186 195.269 110.149 196.304 102.112 196.308L102.206 174.301C108.327 174.289 114.447 173.497 120.416 171.924C126.517 170.316 132.353 167.921 137.784 164.819L148.706 183.924C141.613 187.977 133.991 191.105 126.024 193.204ZM120.289 171.44C114.362 173.002 108.285 173.789 102.208 173.801L102.302 151.794C106.463 151.774 110.624 151.229 114.682 150.16C118.873 149.055 122.882 147.411 126.614 145.28L137.536 164.385C132.142 167.466 126.347 169.844 120.289 171.44ZM114.555 149.676C110.539 150.735 106.422 151.274 102.304 151.294L102.407 127.035C104.414 127.007 106.418 126.736 108.375 126.22C110.465 125.669 112.465 124.849 114.327 123.788L126.366 144.846C122.672 146.955 118.703 148.583 114.555 149.676ZM149.14 183.675C156.09 179.656 162.526 174.745 168.276 169.043C174.067 163.301 179.06 156.854 183.154 149.881L164.142 138.796C161.013 144.116 157.199 149.034 152.779 153.418C148.402 157.759 143.504 161.501 138.217 164.57L149.14 183.675ZM137.969 164.136C143.218 161.089 148.081 157.373 152.427 153.063C156.816 148.71 160.603 143.827 163.71 138.544L144.699 127.46C142.556 131.089 139.95 134.444 136.932 137.437C133.957 140.387 130.634 142.935 127.047 145.03L137.969 164.136ZM126.799 144.596C130.348 142.522 133.636 140.001 136.58 137.082C139.567 134.12 142.146 130.799 144.267 127.208L123.312 114.991C122.254 116.759 120.975 118.395 119.5 119.858C118.068 121.278 116.475 122.511 114.759 123.536L126.799 144.596ZM192.787 126.994C190.636 134.888 187.475 142.432 183.406 149.449L164.394 138.364C167.498 133.002 169.911 127.239 171.554 121.21C173.195 115.185 174.038 109 174.084 102.81L196.09 102.904C196.037 111.008 194.935 119.107 192.787 126.994ZM171.071 121.078C169.44 127.065 167.045 132.788 163.962 138.113L144.951 127.029C147.069 123.359 148.716 119.417 149.839 115.294C150.961 111.175 151.541 106.947 151.578 102.714L173.584 102.808C173.538 108.955 172.701 115.096 171.071 121.078ZM149.357 115.162C148.245 119.243 146.615 123.145 144.519 126.777L123.564 114.559C124.597 112.751 125.402 110.813 125.954 108.787C126.505 106.764 126.794 104.687 126.822 102.609L151.078 102.712C151.041 106.901 150.467 111.086 149.357 115.162ZM196.092 102.404C196.103 94.3106 195.069 86.2155 192.989 78.3224C190.903 70.4083 187.803 62.8356 183.79 55.7828L164.686 66.7047C167.748 72.0956 170.115 77.8824 171.708 83.9293C173.296 89.9541 174.088 96.1325 174.086 102.31L196.092 102.404ZM173.586 102.308C173.588 96.1739 172.801 90.039 171.225 84.0567C169.643 78.0522 167.293 72.306 164.252 66.9529L145.147 77.8744C147.238 81.5656 148.855 85.5261 149.946 89.6636C151.03 93.7776 151.574 97.9958 151.58 102.214L173.586 102.308ZM151.08 102.212C151.074 98.0372 150.535 93.8626 149.462 89.791C148.383 85.6959 146.783 81.776 144.713 78.1226L123.655 90.161C124.678 91.9824 125.47 93.9335 126.007 95.9706C126.113 96.3731 126.208 96.7777 126.294 97.1839C126.431 97.838 126.542 98.4964 126.626 99.1572C126.751 100.137 126.817 101.123 126.823 102.109L151.08 102.212ZM168.828 36.0706C174.569 41.8595 179.507 48.3444 183.542 55.3489L164.437 66.2708C161.353 60.9293 157.583 55.9833 153.202 51.5663C148.822 47.1493 143.907 43.3379 138.592 40.2098L149.676 21.1988C156.645 25.2912 163.088 30.2826 168.828 36.0706ZM152.847 51.9184C157.197 56.3042 160.941 61.2153 164.003 66.519L144.899 77.4406C142.788 73.8 140.212 70.4279 137.223 67.414C134.233 64.3989 130.88 61.7943 127.256 59.6523L138.34 40.6417C143.618 43.7479 148.498 47.5325 152.847 51.9184ZM136.868 67.7661C139.826 70.7488 142.375 74.086 144.465 77.6888L123.406 89.7275C122.365 87.9575 121.104 86.3164 119.645 84.8458C118.184 83.3729 116.551 82.0959 114.786 81.0391L127.004 60.0843C130.591 62.2043 133.909 64.7821 136.868 67.7661ZM149.244 20.9468C142.224 16.8747 134.676 13.7112 126.778 11.5598C118.864 9.40401 110.738 8.30232 102.605 8.25562L102.512 30.2614C108.73 30.3 114.943 31.1437 120.994 32.7921C127.028 34.4356 132.795 36.8504 138.16 39.9577L149.244 20.9468ZM137.908 40.3896C132.58 37.3043 126.854 34.9065 120.863 33.2745C114.854 31.6377 108.684 30.7998 102.51 30.7614L102.416 52.7672C106.676 52.7973 110.934 53.3773 115.08 54.5068C119.206 55.6309 123.152 57.2798 126.824 59.4002L137.908 40.3896ZM126.572 59.8321C122.937 57.7337 119.033 56.1018 114.948 54.9892C110.844 53.8713 106.631 53.2972 102.414 53.2672L102.31 77.523C104.418 77.5437 106.523 77.8335 108.574 78.3922C110.603 78.945 112.544 79.7515 114.355 80.7866L126.572 59.8321ZM78.107 11.3577C85.9732 9.28489 94.04 8.25065 102.105 8.25408L102.012 30.2601C95.862 30.2646 89.7119 31.0568 83.7141 32.6372C77.6154 34.2443 71.7813 36.638 66.3511 39.7389L55.4295 20.6345C62.5215 16.5836 70.1413 13.4566 78.107 11.3577ZM83.8415 33.1207C89.7969 31.5515 95.9034 30.7648 102.01 30.7601L101.916 52.7662C97.7257 52.7789 93.5362 53.3235 89.4496 54.4003C85.26 55.5043 81.252 57.1483 77.5212 59.2778L66.5993 40.173C71.9917 37.0937 77.7852 34.7166 83.8415 33.1207ZM89.577 54.8838C93.6212 53.8182 97.7671 53.2791 101.914 53.2662L101.81 77.5231C99.7758 77.5442 97.7429 77.8161 95.7586 78.339C93.6688 78.8896 91.6695 79.709 89.8079 80.7699L77.7694 59.7119C81.4624 57.604 85.4298 55.9766 89.577 54.8838Z" fill="white"/>
</g>
<circle cx="76.8815" cy="12.7953" r="8.23979" transform="rotate(0.237983 76.8815 12.7953)" fill="white" stroke="#4396F7" stroke-width="1.08116"/>
<circle cx="126.692" cy="13.0013" r="8.23979" transform="rotate(0.237983 126.692 13.0013)" fill="white" stroke="#4396F7" stroke-width="1.08116"/>
<circle cx="167.162" cy="34.5746" r="8.23979" transform="rotate(0.237983 167.162 34.5746)" fill="white" stroke="#4396F7" stroke-width="1.08116"/>
<circle cx="192.756" cy="78.6644" r="8.23979" transform="rotate(0.237983 192.756 78.6644)" fill="white" stroke="#4396F7" stroke-width="1.08116"/>
<circle cx="192.553" cy="127.278" r="8.23979" transform="rotate(0.237983 192.553 127.278)" fill="white" stroke="#4396F7" stroke-width="1.08116"/>
<circle cx="168.535" cy="169.473" r="8.23979" transform="rotate(0.237983 168.535 169.473)" fill="white" stroke="#4396F7" stroke-width="1.08116"/>
<circle cx="125.935" cy="195.036" r="8.23979" transform="rotate(0.237983 125.935 195.036)" fill="white" stroke="#4396F7" stroke-width="1.08116"/>
<circle cx="78.9499" cy="194.841" r="8.23979" transform="rotate(0.237983 78.9499 194.841)" fill="white" stroke="#4396F7" stroke-width="1.08116"/>
<circle cx="34.4382" cy="168.916" r="8.23979" transform="rotate(0.237983 34.4382 168.916)" fill="white" stroke="#4396F7" stroke-width="1.08116"/>
<circle cx="10.3561" cy="127.58" r="8.23979" transform="rotate(0.237983 10.3561 127.58)" fill="white" stroke="#4396F7" stroke-width="1.08116"/>
<circle cx="11.7253" cy="77.9125" r="8.23979" transform="rotate(0.237983 11.7253 77.9125)" fill="white" stroke="#4396F7" stroke-width="1.08116"/>
<circle cx="34.694" cy="38.4056" r="8.23979" transform="rotate(0.237983 34.694 38.4056)" fill="white" stroke="#4396F7" stroke-width="1.08116"/>
<path d="M103.374 113.12L102.811 113.117C102.643 114.042 101.881 114.264 101.042 114.26L101.04 114.849L102.631 114.855L102.613 119.249L103.348 119.252L103.374 113.12Z" fill="black"/>
<path d="M101.301 139.481C101.278 138.745 101.644 137.96 102.501 137.963C103.149 137.966 103.684 138.409 103.681 139.075C103.677 139.923 103.148 140.301 102.108 140.937C101.24 141.47 100.503 141.986 100.376 143.438L104.381 143.455L104.383 142.806L101.235 142.793C101.385 142.033 102.191 141.647 102.963 141.183C103.726 140.71 104.455 140.168 104.459 139.087C104.464 137.946 103.619 137.319 102.546 137.315C101.249 137.31 100.51 138.232 100.565 139.478L101.301 139.481Z" fill="black"/>
<path d="M101.966 164.456C102.105 164.439 102.261 164.431 102.408 164.432C103.134 164.435 103.712 164.844 103.709 165.613C103.706 166.357 103.09 166.796 102.372 166.793C101.533 166.789 101.094 166.234 101.071 165.438L100.336 165.435C100.305 166.698 101.124 167.436 102.369 167.441C103.519 167.446 104.482 166.81 104.487 165.582C104.49 164.847 104.129 164.257 103.386 164.09L103.386 164.072C103.854 163.858 104.237 163.393 104.239 162.856C104.244 161.723 103.442 161.21 102.378 161.205C101.15 161.2 100.523 162.011 100.475 163.178L101.21 163.181C101.222 162.463 101.571 161.851 102.375 161.854C102.998 161.857 103.463 162.204 103.461 162.844C103.458 163.51 102.912 163.846 102.289 163.843C102.185 163.843 102.081 163.842 101.969 163.833L101.966 164.456Z" fill="black"/>
<path d="M103.625 183.764L103.036 183.761L100.226 187.737L100.223 188.446L102.913 188.457L102.907 189.893L103.599 189.896L103.605 188.46L104.435 188.464L104.438 187.815L103.608 187.811L103.625 183.764ZM100.857 187.8L102.911 184.807L102.928 184.807L102.916 187.809L100.857 187.8Z" fill="black"/>
<path d="M125.592 11.3516C125.569 10.6163 125.936 9.83076 126.792 9.83432C127.441 9.83701 127.975 10.2803 127.972 10.9463C127.969 11.794 127.44 12.1723 126.399 12.8081C125.532 13.3407 124.794 13.8566 124.667 15.3092L128.672 15.3258L128.675 14.6771L125.526 14.6641C125.677 13.9035 126.482 13.5177 127.254 13.0538C128.017 12.5813 128.746 12.0394 128.751 10.9582C128.755 9.81653 127.91 9.19026 126.838 9.18581C125.54 9.18042 124.801 10.1028 124.857 11.3486L125.592 11.3516Z" fill="black"/>
<path d="M77.6942 8.98179L77.132 8.97946C76.9639 9.90424 76.2018 10.126 75.3628 10.1225L75.3604 10.7106L76.9518 10.7172L76.9336 15.111L77.6688 15.1141L77.6942 8.98179Z" fill="black"/>
<path d="M166.645 34.2924C166.784 34.2757 166.94 34.2677 167.087 34.2683C167.813 34.2713 168.391 34.6802 168.388 35.45C168.385 36.1939 167.769 36.6324 167.051 36.6294C166.212 36.6259 165.773 36.0706 165.75 35.2747L165.015 35.2717C164.984 36.5343 165.803 37.2729 167.048 37.2781C168.198 37.2829 169.161 36.6468 169.166 35.4187C169.169 34.6835 168.808 34.0938 168.065 33.9264L168.065 33.9091C168.533 33.6948 168.916 33.2293 168.918 32.6931C168.923 31.56 168.121 31.0464 167.057 31.042C165.829 31.0369 165.202 31.8473 165.154 33.0148L165.889 33.0178C165.901 32.3 166.25 31.6873 167.054 31.6907C167.677 31.6932 168.142 32.0412 168.14 32.6812C168.137 33.3472 167.591 33.6822 166.968 33.6797C166.864 33.6792 166.76 33.6788 166.648 33.6697L166.645 34.2924Z" fill="black"/>
<path d="M34.5077 37.908C35.3466 37.9115 35.7419 38.5445 35.7387 39.3057C35.7357 40.0322 35.292 40.6618 34.4962 40.6585C33.6919 40.6551 33.2273 40.0477 33.2305 39.2866C33.2337 38.5168 33.686 37.9046 34.5077 37.908ZM36.3552 36.6442C36.2729 35.6492 35.6438 35.0757 34.6319 35.0715C32.8847 35.0643 32.3678 36.6623 32.3608 38.3489C32.3554 39.6376 32.6426 41.2995 34.459 41.307C36.0072 41.3134 36.5137 40.1479 36.5174 39.257C36.5221 38.124 35.825 37.2648 34.6487 37.2599C33.9828 37.2571 33.4628 37.4972 33.1145 38.0579L33.0973 38.0405C33.1358 37.0979 33.3405 35.7149 34.5946 35.7201C35.1741 35.7225 35.5532 36.0873 35.62 36.6412L36.3552 36.6442Z" fill="black"/>
<path d="M193.993 74.8044L193.405 74.8019L190.595 78.7776L190.592 79.4868L193.282 79.498L193.276 80.9338L193.968 80.9367L193.974 79.5009L194.804 79.5043L194.807 78.8556L193.976 78.8522L193.993 74.8044ZM191.226 78.8408L193.279 75.848L193.297 75.848L193.284 78.8493L191.226 78.8408Z" fill="black"/>
<path d="M194.234 124.174L191.206 124.161L190.622 127.342L191.253 127.379C191.54 127.034 191.931 126.802 192.398 126.804C193.219 126.808 193.779 127.389 193.776 128.202C193.772 129.18 193.173 129.653 192.472 129.65C191.737 129.647 191.229 129.169 191.188 128.538L190.453 128.535C190.474 129.642 191.337 130.294 192.4 130.298C193.827 130.304 194.55 129.304 194.554 128.266C194.56 126.865 193.672 126.161 192.582 126.156C192.167 126.154 191.708 126.291 191.438 126.593L191.421 126.575L191.757 124.812L194.231 124.822L194.234 124.174Z" fill="black"/>
<path d="M9.07302 128.513C9.07597 127.804 9.64875 127.339 10.3753 127.342C11.0672 127.345 11.636 127.849 11.6332 128.515C11.6304 129.198 11.1093 129.706 10.3741 129.703C9.613 129.7 9.06997 129.248 9.07302 128.513ZM8.5226 125.674C8.5203 126.227 8.86415 126.739 9.37359 126.949C8.6893 127.188 8.29775 127.748 8.29473 128.475C8.28952 129.729 9.19514 130.347 10.3714 130.352C11.5045 130.357 12.4068 129.677 12.4118 128.492C12.4149 127.731 12.0625 127.193 11.3283 126.957C11.8309 126.734 12.179 126.234 12.1812 125.689C12.1845 124.91 11.6688 124.121 10.3281 124.116C9.38538 124.112 8.52681 124.662 8.5226 125.674ZM9.30093 125.703C9.30348 125.089 9.7892 124.762 10.3773 124.764C10.9741 124.767 11.4052 125.097 11.4027 125.711C11.4001 126.334 10.9661 126.696 10.3866 126.693C9.78119 126.691 9.29812 126.377 9.30093 125.703Z" fill="black"/>
<path d="M13.6753 74.8098L9.70534 74.7933L9.70247 75.4853L12.92 75.4986C11.6256 76.8599 10.623 78.7499 10.476 80.8251L11.2977 80.8286C11.4181 78.9089 12.4308 76.6643 13.6727 75.4412L13.6753 74.8098Z" fill="black"/>
<path d="M166.825 166.246L166.263 166.244C166.095 167.169 165.333 167.39 164.494 167.387L164.492 167.975L166.083 167.982L166.065 172.375L166.8 172.379L166.825 166.246ZM169.659 168.429C169.636 167.694 170.003 166.908 170.859 166.912C171.508 166.914 172.042 167.358 172.039 168.024C172.036 168.871 171.507 169.25 170.466 169.885C169.599 170.418 168.862 170.934 168.734 172.387L172.739 172.403L172.742 171.754L169.593 171.741C169.744 170.981 170.55 170.595 171.321 170.131C172.084 169.659 172.813 169.117 172.818 168.036C172.822 166.894 171.977 166.268 170.905 166.263C169.608 166.258 168.868 167.18 168.924 168.426L169.659 168.429Z" fill="black"/>
<path d="M35.5802 167.318C35.5771 168.044 35.0902 168.665 34.3204 168.662C33.6112 168.659 33.1121 168.034 33.1149 167.359C33.118 166.607 33.4496 165.908 34.3232 165.911C35.1449 165.915 35.5833 166.565 35.5802 167.318ZM32.4556 169.908C32.5464 170.964 33.2794 171.494 34.3086 171.499C35.7963 171.505 36.4413 170.323 36.4501 168.204C36.4597 165.886 35.5022 165.268 34.3605 165.263C33.1755 165.258 32.3418 166.067 32.3369 167.252C32.3319 168.463 33.0203 169.305 34.2658 169.31C34.8626 169.313 35.4089 168.986 35.6878 168.469L35.705 168.486C35.6552 170.069 35.2108 170.854 34.3113 170.85C33.7232 170.848 33.2402 170.508 33.1908 169.911L32.4556 169.908Z" fill="black"/>
<path d="M124.405 191.923L123.843 191.921C123.675 192.845 122.913 193.067 122.074 193.064L122.072 193.652L123.663 193.658L123.645 198.052L124.38 198.055L124.405 191.923ZM129.212 191.943L128.649 191.941C128.481 192.865 127.719 193.087 126.88 193.084L126.878 193.672L128.469 193.678L128.451 198.072L129.186 198.075L129.212 191.943Z" fill="black"/>
<path d="M77.2101 191.728L76.6479 191.725C76.4798 192.65 75.7177 192.872 74.8787 192.868L74.8763 193.456L76.4677 193.463L76.4495 197.857L77.1847 197.86L77.2101 191.728ZM79.2874 194.859C79.2818 196.208 79.3955 197.973 81.3157 197.981C83.2358 197.989 83.3642 196.225 83.3698 194.876C83.3754 193.518 83.2617 191.753 81.3416 191.745C79.4214 191.737 79.293 193.501 79.2874 194.859ZM80.0658 194.853C80.0696 193.945 80.0847 192.388 81.3389 192.394C82.593 192.399 82.5952 193.956 82.5914 194.864C82.5876 195.781 82.5725 197.337 81.3184 197.332C80.0642 197.327 80.062 195.77 80.0658 194.853Z" fill="black"/>
</svg>
