<svg width="272" height="272" viewBox="0 0 272 272" fill="none" xmlns="http://www.w3.org/2000/svg">
<g opacity="0.5">
<path opacity="0.2" d="M103.557 15.2849C124.698 9.62036 146.957 9.62036 168.097 15.2849C189.238 20.9495 208.514 32.079 223.99 47.5548C239.466 63.0306 250.596 82.3075 256.26 103.448C261.925 124.588 261.925 146.847 256.26 167.988C250.596 189.128 239.466 208.405 223.99 223.881C208.514 239.357 189.238 250.486 168.097 256.151C146.957 261.815 124.698 261.815 103.557 256.151C82.417 250.486 63.1401 239.357 47.6643 223.881C32.1885 208.405 21.059 189.128 15.3944 167.988C9.72985 146.847 9.72985 124.588 15.3944 103.448C21.059 82.3075 32.1885 63.0307 47.6643 47.5548C63.1401 32.079 82.417 20.9495 103.557 15.2849Z" fill="#4396F7" fill-opacity="0.6" stroke="#4396F7" stroke-width="2.15759"/>
<path opacity="0.2" d="M111.307 44.2075C127.37 39.9033 144.284 39.9033 160.347 44.2075C176.411 48.5117 191.058 56.9684 202.817 68.7276C214.577 80.4869 223.033 95.1343 227.337 111.198C231.642 127.261 231.642 144.174 227.337 160.238C223.033 176.301 214.577 190.949 202.817 202.708C191.058 214.467 176.411 222.924 160.347 227.228C144.284 231.532 127.37 231.532 111.307 227.228C95.2437 222.924 80.5962 214.467 68.837 202.708C57.0778 190.949 48.6211 176.301 44.3169 160.238C40.0127 144.174 40.0127 127.261 44.3169 111.198C48.6211 95.1343 57.0778 80.4869 68.837 68.7276C80.5962 56.9684 95.2437 48.5117 111.307 44.2075Z" fill="#4396F7" fill-opacity="0.6" stroke="#4396F7" stroke-width="2.15759"/>
<path opacity="0.2" d="M119.059 73.129C130.045 70.1852 141.613 70.1852 152.6 73.129C163.586 76.0728 173.604 81.8567 181.647 89.8993C189.689 97.9419 195.473 107.96 198.417 118.946C201.361 129.933 201.361 141.501 198.417 152.487C195.473 163.473 189.689 173.491 181.647 181.534C173.604 189.577 163.586 195.361 152.6 198.304C141.613 201.248 130.045 201.248 119.059 198.304C108.072 195.361 98.0545 189.577 90.0119 181.534C81.9692 173.491 76.1854 163.473 73.2416 152.487C70.2977 141.501 70.2977 129.933 73.2415 118.946C76.1854 107.96 81.9692 97.942 90.0119 89.8993C98.0545 81.8567 108.072 76.0728 119.059 73.129Z" fill="#4396F7" fill-opacity="0.6" stroke="#4396F7" stroke-width="2.15759"/>
<path opacity="0.5" d="M127.584 104.944C132.985 103.496 138.673 103.496 144.075 104.944C149.477 106.391 154.402 109.235 158.357 113.189C162.311 117.144 165.155 122.069 166.602 127.471C168.05 132.873 168.05 138.56 166.602 143.962C165.155 149.364 162.311 154.29 158.357 158.244C154.402 162.198 149.477 165.042 144.075 166.49C138.673 167.937 132.985 167.937 127.584 166.49C122.182 165.042 117.256 162.198 113.302 158.244C109.347 154.29 106.504 149.364 105.056 143.962C103.609 138.56 103.609 132.873 105.056 127.471C106.504 122.069 109.347 117.144 113.302 113.189C117.256 109.235 122.182 106.391 127.584 104.944Z" fill="#4396F7" fill-opacity="0.6" stroke="#4396F7" stroke-width="2.15759"/>
<path opacity="0.1" d="M111.214 43.8602C127.338 39.5396 144.316 39.5396 160.44 43.8602C176.565 48.1807 191.268 56.6695 203.072 68.4733C214.876 80.2772 223.364 94.9802 227.685 111.105C232.005 127.229 232.005 144.207 227.685 160.331C223.364 176.455 214.876 191.158 203.072 202.962C191.268 214.766 176.565 223.255 160.44 227.575C144.316 231.896 127.338 231.896 111.214 227.575C95.0896 223.255 80.3866 214.766 68.5827 202.962C56.7788 191.158 48.29 176.455 43.9695 160.331C39.649 144.207 39.649 127.229 43.9695 111.105C48.29 94.9802 56.7788 80.2772 68.5827 68.4733C80.3866 56.6695 95.0896 48.1807 111.214 43.8602Z" stroke="#4396F7" stroke-width="1.4384"/>
<path d="M118.873 72.4343C129.981 69.4578 141.677 69.4578 152.786 72.4343C163.894 75.4108 174.023 81.2589 182.155 89.3908C190.287 97.5227 196.135 107.652 199.112 118.76C202.088 129.869 202.088 141.565 199.112 152.673C196.135 163.782 190.287 173.911 182.155 182.043C174.023 190.175 163.894 196.023 152.786 198.999C141.677 201.976 129.981 201.976 118.873 198.999C107.764 196.023 97.6352 190.175 89.5033 182.043C81.3714 173.911 75.5233 163.782 72.5469 152.673C69.5704 141.565 69.5704 129.869 72.5469 118.76C75.5233 107.652 81.3714 97.5227 89.5033 89.3908C97.6352 81.2589 107.764 75.4108 118.873 72.4343Z" stroke="#4396F7" stroke-width="0.719198"/>
<path d="M127.351 104.074C132.905 102.586 138.753 102.586 144.307 104.074C149.861 105.562 154.926 108.486 158.992 112.552C163.058 116.618 165.982 121.683 167.47 127.237C168.958 132.791 168.958 138.639 167.47 144.194C165.982 149.748 163.058 154.812 158.992 158.878C154.926 162.944 149.861 165.868 144.307 167.357C138.753 168.845 132.905 168.845 127.351 167.357C121.797 165.868 116.732 162.944 112.666 158.878C108.6 154.812 105.676 149.748 104.188 144.194C102.7 138.639 102.7 132.791 104.188 127.237C105.676 121.683 108.6 116.618 112.666 112.552C116.732 108.486 121.797 105.562 127.351 104.074Z" stroke="#4396F7" stroke-width="0.359599"/>
<path opacity="0.5" d="M135.708 136.084L68.2681 19.2454" stroke="#4396F7" stroke-width="0.719198"/>
<path opacity="0.5" d="M135.68 135.726L135.695 0.820312" stroke="#4396F7" stroke-width="0.719198"/>
<path opacity="0.5" d="M135.687 136.07L203.153 19.2454" stroke="#4396F7" stroke-width="0.719198"/>
<path opacity="0.5" d="M135.686 135.713L252.525 68.2729" stroke="#4396F7" stroke-width="0.719198"/>
<path opacity="0.5" d="M136.047 135.682L270.952 135.697" stroke="#4396F7" stroke-width="0.719198"/>
<path opacity="0.5" d="M135.701 135.689L252.525 203.154" stroke="#4396F7" stroke-width="0.719198"/>
<path opacity="0.5" d="M136.06 135.533L203.501 252.371" stroke="#4396F7" stroke-width="0.719198"/>
<path opacity="0.5" d="M136.091 135.893L136.076 270.799" stroke="#4396F7" stroke-width="0.719198"/>
<path opacity="0.5" d="M136.081 135.547L68.6162 252.371" stroke="#4396F7" stroke-width="0.719198"/>
<path opacity="0.5" d="M136.082 135.905L19.2437 203.345" stroke="#4396F7" stroke-width="0.719198"/>
<path opacity="0.5" d="M135.722 135.935L0.816406 135.92" stroke="#4396F7" stroke-width="0.719198"/>
<path opacity="0.5" d="M136.068 135.929L19.2437 68.4635" stroke="#4396F7" stroke-width="0.719198"/>
<path d="M135.253 133.574C135.629 133.473 136.025 133.473 136.402 133.574C136.778 133.675 137.121 133.873 137.396 134.148C137.671 134.424 137.869 134.767 137.97 135.143C138.071 135.519 138.071 135.915 137.97 136.291C137.869 136.667 137.671 137.01 137.396 137.285C137.121 137.561 136.778 137.759 136.402 137.86C136.025 137.96 135.629 137.96 135.253 137.86C134.877 137.759 134.534 137.561 134.259 137.285C133.983 137.01 133.785 136.667 133.685 136.291C133.584 135.915 133.584 135.519 133.685 135.143C133.785 134.767 133.983 134.424 134.259 134.148C134.534 133.873 134.877 133.675 135.253 133.574Z" fill="#0284D2"/>
<circle cx="101.829" cy="16.8041" r="10.9624" fill="white" stroke="#4396F7" stroke-width="1.4384"/>
<circle cx="168.097" cy="16.8041" r="10.9624" fill="white" stroke="#4396F7" stroke-width="1.4384"/>
<circle cx="222.058" cy="45.2817" r="10.9624" fill="white" stroke="#4396F7" stroke-width="1.4384"/>
<circle cx="256.352" cy="103.798" r="10.9624" fill="white" stroke="#4396F7" stroke-width="1.4384"/>
<circle cx="256.352" cy="168.474" r="10.9624" fill="white" stroke="#4396F7" stroke-width="1.4384"/>
<circle cx="224.63" cy="224.744" r="10.9624" fill="white" stroke="#4396F7" stroke-width="1.4384"/>
<circle cx="168.097" cy="258.989" r="10.9624" fill="white" stroke="#4396F7" stroke-width="1.4384"/>
<circle cx="105.586" cy="258.989" r="10.9624" fill="white" stroke="#4396F7" stroke-width="1.4384"/>
<circle cx="46.2238" cy="224.744" r="10.9624" fill="white" stroke="#4396F7" stroke-width="1.4384"/>
<circle cx="13.9572" cy="169.884" r="10.9624" fill="white" stroke="#4396F7" stroke-width="1.4384"/>
<circle cx="15.5028" cy="103.798" r="10.9624" fill="white" stroke="#4396F7" stroke-width="1.4384"/>
<circle cx="45.8444" cy="51.1101" r="10.9624" fill="white" stroke="#4396F7" stroke-width="1.4384"/>
<path d="M137.627 150.148H136.879C136.661 151.38 135.648 151.679 134.532 151.679V152.461H136.649V158.307H137.627V150.148Z" fill="black"/>
<path d="M135.015 185.231C134.981 184.253 135.464 183.206 136.603 183.206C137.466 183.206 138.18 183.793 138.18 184.679C138.18 185.806 137.478 186.313 136.097 187.164C134.946 187.878 133.968 188.568 133.807 190.501H139.135V189.638H134.946C135.142 188.626 136.212 188.108 137.236 187.486C138.249 186.854 139.215 186.129 139.215 184.69C139.215 183.171 138.088 182.343 136.661 182.343C134.935 182.343 133.957 183.574 134.037 185.231H135.015Z" fill="black"/>
<path d="M136.039 218.454C136.223 218.431 136.431 218.419 136.626 218.419C137.593 218.419 138.364 218.96 138.364 219.984C138.364 220.974 137.547 221.561 136.592 221.561C135.475 221.561 134.889 220.824 134.854 219.766H133.876C133.841 221.446 134.935 222.424 136.592 222.424C138.122 222.424 139.399 221.572 139.399 219.938C139.399 218.96 138.916 218.178 137.926 217.959V217.936C138.548 217.648 139.054 217.027 139.054 216.313C139.054 214.806 137.984 214.127 136.569 214.127C134.935 214.127 134.106 215.209 134.049 216.762H135.027C135.038 215.807 135.498 214.99 136.569 214.99C137.397 214.99 138.019 215.45 138.019 216.302C138.019 217.188 137.294 217.637 136.465 217.637C136.327 217.637 136.189 217.637 136.039 217.625V218.454Z" fill="black"/>
<path d="M138.352 244.133H137.57L133.853 249.438V250.381H137.432V252.291H138.352V250.381H139.457V249.518H138.352V244.133ZM134.693 249.518L137.409 245.525H137.432V249.518H134.693Z" fill="black"/>
<path d="M166.624 15.3015C166.589 14.3234 167.073 13.2762 168.212 13.2762C169.075 13.2762 169.788 13.8631 169.788 14.7492C169.788 15.8769 169.086 16.3832 167.705 17.2347C166.555 17.9481 165.577 18.6386 165.415 20.5718H170.743V19.7087H166.555C166.75 18.6961 167.82 18.1783 168.845 17.5569C169.857 16.924 170.824 16.1991 170.824 14.7607C170.824 13.2417 169.696 12.4132 168.269 12.4132C166.543 12.4132 165.565 13.6445 165.646 15.3015H166.624Z" fill="black"/>
<path d="M102.889 12.4132H102.141C101.923 13.6445 100.91 13.9437 99.7937 13.9437V14.7261H101.911V20.5718H102.889V12.4132Z" fill="black"/>
<path d="M221.369 45.5967C221.553 45.5737 221.761 45.5622 221.956 45.5622C222.923 45.5622 223.694 46.103 223.694 47.1272C223.694 48.1168 222.877 48.7036 221.922 48.7036C220.805 48.7036 220.219 47.9672 220.184 46.9085H219.206C219.171 48.5886 220.265 49.5667 221.922 49.5667C223.452 49.5667 224.729 48.7151 224.729 47.0811C224.729 46.103 224.246 45.3205 223.256 45.1019V45.0789C223.878 44.7912 224.384 44.1698 224.384 43.4564C224.384 41.9489 223.314 41.27 221.899 41.27C220.265 41.27 219.436 42.3517 219.379 43.9052H220.357C220.368 42.9501 220.828 42.133 221.899 42.133C222.727 42.133 223.349 42.5933 223.349 43.4449C223.349 44.3309 222.624 44.7797 221.795 44.7797C221.657 44.7797 221.519 44.7797 221.369 44.7682V45.5967Z" fill="black"/>
<path d="M43.1965 46.0319H42.4485C42.2299 47.2631 41.2173 47.5623 40.1011 47.5623V48.3448H42.2184V54.1904H43.1965V46.0319ZM46.9785 48.9201C46.944 47.942 47.4273 46.8949 48.5665 46.8949C49.4295 46.8949 50.143 47.4818 50.143 48.3678C50.143 49.4955 49.441 50.0018 48.0602 50.8534C46.9095 51.5668 45.9313 52.2572 45.7702 54.1904H51.0981V53.3274H46.9095C47.1051 52.3148 48.1752 51.7969 49.1994 51.1756C50.212 50.5427 51.1786 49.8177 51.1786 48.3793C51.1786 46.8604 50.0509 46.0319 48.624 46.0319C46.898 46.0319 45.9198 47.2631 46.0004 48.9201H46.9785Z" fill="black"/>
<path d="M257.977 99.342H257.194L253.477 104.647V105.59H257.056V107.501H257.977V105.59H259.081V104.727H257.977V99.342ZM254.317 104.727L257.033 100.734H257.056V104.727H254.317Z" fill="black"/>
<path d="M258.564 163.693H254.536L253.777 167.928L254.617 167.974C254.996 167.513 255.514 167.203 256.136 167.203C257.229 167.203 257.977 167.974 257.977 169.055C257.977 170.356 257.183 170.988 256.251 170.988C255.272 170.988 254.594 170.356 254.536 169.516H253.558C253.592 170.988 254.743 171.851 256.159 171.851C258.057 171.851 259.012 170.517 259.012 169.136C259.012 167.272 257.827 166.34 256.377 166.34C255.825 166.34 255.215 166.524 254.858 166.926L254.835 166.903L255.272 164.556H258.564V163.693Z" fill="black"/>
<path d="M11.6596 164.284H10.9117C10.693 165.516 9.68041 165.815 8.56422 165.815V166.597H10.6815V172.443H11.6596V164.284ZM14.4405 168.438C14.4405 170.233 14.6016 172.581 17.1562 172.581C19.7108 172.581 19.8719 170.233 19.8719 168.438C19.8719 166.632 19.7108 164.284 17.1562 164.284C14.6016 164.284 14.4405 166.632 14.4405 168.438ZM15.4762 168.427C15.4762 167.219 15.4877 165.147 17.1562 165.147C18.8247 165.147 18.8362 167.219 18.8362 168.427C18.8362 169.647 18.8247 171.718 17.1562 171.718C15.4877 171.718 15.4762 169.647 15.4762 168.427Z" fill="black"/>
<path d="M13.1186 98.8783H12.3707C12.152 100.11 11.1394 100.409 10.0232 100.409V101.191H12.1405V107.037H13.1186V98.8783ZM19.5127 98.8783H18.7648C18.5461 100.11 17.5335 100.409 16.4173 100.409V101.191H18.5346V107.037H19.5127V98.8783Z" fill="black"/>
<path d="M224.724 223.592C225.84 223.592 226.369 224.432 226.369 225.444C226.369 226.411 225.782 227.251 224.724 227.251C223.654 227.251 223.032 226.445 223.032 225.433C223.032 224.409 223.631 223.592 224.724 223.592ZM227.175 221.9C227.06 220.577 226.22 219.817 224.873 219.817C222.549 219.817 221.87 221.946 221.87 224.19C221.87 225.905 222.261 228.114 224.678 228.114C226.738 228.114 227.405 226.56 227.405 225.375C227.405 223.868 226.473 222.729 224.908 222.729C224.022 222.729 223.331 223.051 222.871 223.799L222.848 223.776C222.894 222.521 223.159 220.68 224.827 220.68C225.598 220.68 226.105 221.164 226.197 221.9H227.175Z" fill="black"/>
<path d="M47.7332 222.544C47.7332 223.511 47.0888 224.34 46.0646 224.34C45.1211 224.34 44.4536 223.511 44.4536 222.613C44.4536 221.612 44.8909 220.68 46.0531 220.68C47.1463 220.68 47.7332 221.543 47.7332 222.544ZM43.5906 226.008C43.7172 227.412 44.6953 228.114 46.0646 228.114C48.0439 228.114 48.8954 226.537 48.8954 223.718C48.8954 220.634 47.6181 219.817 46.0992 219.817C44.5227 219.817 43.418 220.899 43.418 222.475C43.418 224.086 44.3386 225.203 45.9956 225.203C46.7896 225.203 47.5145 224.765 47.8828 224.075L47.9058 224.098C47.8483 226.204 47.2614 227.251 46.0646 227.251C45.2822 227.251 44.6378 226.802 44.5687 226.008H43.5906Z" fill="black"/>
<path d="M170.996 254.351H165.715V255.271H169.995C168.281 257.09 166.957 259.61 166.773 262.371H167.867C168.016 259.817 169.351 256.825 170.996 255.191V254.351Z" fill="black"/>
<path d="M103.846 260.07C103.846 259.126 104.605 258.505 105.572 258.505C106.492 258.505 107.252 259.172 107.252 260.058C107.252 260.967 106.561 261.646 105.583 261.646C104.571 261.646 103.846 261.048 103.846 260.07ZM103.098 256.296C103.098 257.032 103.558 257.711 104.237 257.987C103.328 258.309 102.81 259.057 102.81 260.024C102.81 261.692 104.018 262.509 105.583 262.509C107.091 262.509 108.287 261.6 108.287 260.024C108.287 259.011 107.816 258.298 106.838 257.987C107.505 257.688 107.965 257.021 107.965 256.296C107.965 255.26 107.275 254.213 105.491 254.213C104.237 254.213 103.098 254.949 103.098 256.296ZM104.133 256.33C104.133 255.513 104.778 255.076 105.56 255.076C106.354 255.076 106.93 255.513 106.93 256.33C106.93 257.159 106.354 257.642 105.583 257.642C104.778 257.642 104.133 257.228 104.133 256.33Z" fill="black"/>
</g>
</svg>
