<svg width="272" height="272" viewBox="0 0 272 272" fill="none" xmlns="http://www.w3.org/2000/svg">
<path opacity="0.2" d="M103.493 15.4628C124.633 9.79821 146.892 9.79821 168.033 15.4628C189.173 21.1273 208.45 32.2568 223.926 47.7327C239.402 63.2085 250.531 82.4854 256.196 103.626C261.86 124.766 261.86 147.025 256.196 168.166C250.531 189.306 239.402 208.583 223.926 224.059C208.45 239.535 189.173 250.664 168.033 256.329C146.892 261.993 124.633 261.993 103.493 256.329C82.3526 250.664 63.0757 239.535 47.5999 224.059C32.124 208.583 20.9945 189.306 15.33 168.166C9.6654 147.025 9.6654 124.766 15.33 103.626C20.9945 82.4854 32.124 63.2085 47.5999 47.7327C63.0757 32.2568 82.3526 21.1273 103.493 15.4628Z" fill="#4396F7" fill-opacity="0.6" stroke="#4396F7" stroke-width="2.15759"/>
<path opacity="0.2" d="M111.244 44.3852C127.307 40.0811 144.22 40.0811 160.284 44.3852C176.347 48.6894 190.995 57.1461 202.754 68.9053C214.513 80.6646 222.97 95.312 227.274 111.375C231.578 127.439 231.578 144.352 227.274 160.416C222.97 176.479 214.513 191.126 202.754 202.886C190.995 214.645 176.347 223.102 160.284 227.406C144.22 231.71 127.307 231.71 111.244 227.406C95.1802 223.102 80.5327 214.645 68.7735 202.886C57.0143 191.126 48.5576 176.479 44.2534 160.416C39.9492 144.352 39.9492 127.439 44.2534 111.375C48.5576 95.312 57.0143 80.6646 68.7735 68.9053C80.5327 57.1461 95.1802 48.6894 111.244 44.3852Z" fill="#4396F7" fill-opacity="0.6" stroke="#4396F7" stroke-width="2.15759"/>
<path opacity="0.2" d="M118.994 73.3067C129.981 70.3629 141.548 70.3629 152.535 73.3067C163.521 76.2505 173.539 82.0344 181.582 90.0771C189.625 98.1197 195.408 108.138 198.352 119.124C201.296 130.111 201.296 141.678 198.352 152.665C195.408 163.651 189.625 173.669 181.582 181.712C173.539 189.754 163.521 195.538 152.535 198.482C141.548 201.426 129.981 201.426 118.994 198.482C108.008 195.538 97.9898 189.754 89.9472 181.712C81.9045 173.669 76.1207 163.651 73.1769 152.665C70.233 141.678 70.233 130.111 73.1769 119.124C76.1207 108.138 81.9045 98.1197 89.9472 90.0771C97.9898 82.0344 108.008 76.2505 118.994 73.3067Z" fill="#4396F7" fill-opacity="0.6" stroke="#4396F7" stroke-width="2.15759"/>
<path opacity="0.5" d="M127.52 105.121C132.921 103.674 138.609 103.674 144.011 105.121C149.413 106.569 154.338 109.412 158.293 113.367C162.247 117.321 165.091 122.247 166.538 127.649C167.986 133.05 167.986 138.738 166.538 144.14C165.091 149.541 162.247 154.467 158.293 158.421C154.338 162.376 149.413 165.22 144.011 166.667C138.609 168.114 132.921 168.114 127.52 166.667C122.118 165.22 117.192 162.376 113.238 158.421C109.283 154.467 106.44 149.541 104.992 144.14C103.545 138.738 103.545 133.05 104.992 127.649C106.44 122.247 109.283 117.321 113.238 113.367C117.192 109.412 122.118 106.569 127.52 105.121Z" fill="#4396F7" fill-opacity="0.6" stroke="#4396F7" stroke-width="2.15759"/>
<path opacity="0.1" d="M111.151 44.0379C127.275 39.7174 144.252 39.7174 160.377 44.0379C176.501 48.3584 191.204 56.8472 203.008 68.6511C214.812 80.4549 223.301 95.158 227.621 111.282C231.942 127.407 231.942 144.384 227.621 160.509C223.301 176.633 214.812 191.336 203.008 203.14C191.204 214.944 176.501 223.433 160.377 227.753C144.252 232.074 127.275 232.074 111.151 227.753C95.0261 223.433 80.3231 214.944 68.5192 203.14C56.7154 191.336 48.2266 176.633 43.9061 160.509C39.5855 144.384 39.5855 127.407 43.9061 111.282C48.2266 95.158 56.7154 80.4549 68.5192 68.6511C80.3231 56.8472 95.0261 48.3584 111.151 44.0379Z" stroke="#4396F7" stroke-width="1.4384"/>
<path d="M118.808 72.612C129.916 69.6356 141.613 69.6356 152.721 72.612C163.829 75.5885 173.959 81.4366 182.09 89.5685C190.222 97.7004 196.07 107.83 199.047 118.938C202.023 130.046 202.023 141.743 199.047 152.851C196.07 163.959 190.222 174.088 182.09 182.22C173.959 190.352 163.829 196.2 152.721 199.177C141.613 202.153 129.916 202.153 118.808 199.177C107.7 196.2 97.5705 190.352 89.4386 182.22C81.3067 174.088 75.4586 163.959 72.4822 152.851C69.5057 141.743 69.5057 130.046 72.4822 118.938C75.4586 107.83 81.3067 97.7004 89.4386 89.5685C97.5705 81.4366 107.7 75.5885 118.808 72.612Z" stroke="#4396F7" stroke-width="0.719198"/>
<path d="M127.287 104.252C132.841 102.764 138.689 102.764 144.243 104.252C149.798 105.74 154.862 108.664 158.928 112.73C162.994 116.796 165.918 121.861 167.406 127.415C168.895 132.969 168.895 138.817 167.406 144.371C165.918 149.925 162.994 154.99 158.928 159.056C154.862 163.122 149.798 166.046 144.243 167.534C138.689 169.022 132.841 169.022 127.287 167.534C121.733 166.046 116.668 163.122 112.602 159.056C108.536 154.99 105.612 149.925 104.124 144.371C102.636 138.817 102.636 132.969 104.124 127.415C105.612 121.861 108.536 116.796 112.602 112.73C116.668 108.664 121.733 105.74 127.287 104.252Z" stroke="#4396F7" stroke-width="0.359599"/>
<path opacity="0.5" d="M135.643 136.262L68.2031 19.4229" stroke="#4396F7" stroke-width="0.719198"/>
<path opacity="0.5" d="M135.617 135.903L135.631 0.998047" stroke="#4396F7" stroke-width="0.719198"/>
<path opacity="0.5" d="M135.623 136.247L203.088 19.4229" stroke="#4396F7" stroke-width="0.719198"/>
<path opacity="0.5" d="M135.622 135.89L252.461 68.4502" stroke="#4396F7" stroke-width="0.719198"/>
<path opacity="0.5" d="M135.983 135.86L270.889 135.874" stroke="#4396F7" stroke-width="0.719198"/>
<path opacity="0.5" d="M135.637 135.867L252.461 203.332" stroke="#4396F7" stroke-width="0.719198"/>
<path opacity="0.5" d="M135.995 135.71L203.436 252.549" stroke="#4396F7" stroke-width="0.719198"/>
<path opacity="0.5" d="M136.026 136.071L136.012 270.977" stroke="#4396F7" stroke-width="0.719198"/>
<path opacity="0.5" d="M136.018 135.724L68.5527 252.549" stroke="#4396F7" stroke-width="0.719198"/>
<path opacity="0.5" d="M136.018 136.082L19.1797 203.522" stroke="#4396F7" stroke-width="0.719198"/>
<path opacity="0.5" d="M135.657 136.112L0.751953 136.098" stroke="#4396F7" stroke-width="0.719198"/>
<path opacity="0.5" d="M136.004 136.107L19.1797 68.6416" stroke="#4396F7" stroke-width="0.719198"/>
<path d="M135.189 133.751C135.565 133.651 135.961 133.651 136.338 133.751C136.714 133.852 137.057 134.05 137.332 134.326C137.607 134.601 137.805 134.944 137.906 135.32C138.007 135.696 138.007 136.092 137.906 136.468C137.805 136.845 137.607 137.188 137.332 137.463C137.057 137.738 136.714 137.936 136.338 138.037C135.961 138.138 135.565 138.138 135.189 138.037C134.813 137.936 134.47 137.738 134.195 137.463C133.919 137.188 133.721 136.845 133.621 136.468C133.52 136.092 133.52 135.696 133.621 135.32C133.721 134.944 133.919 134.601 134.195 134.326C134.47 134.05 134.813 133.852 135.189 133.751Z" fill="#0284D2"/>
<circle cx="101.764" cy="16.9823" r="10.9624" fill="white" stroke="#4396F7" stroke-width="1.4384"/>
<circle cx="168.033" cy="16.9823" r="10.9624" fill="white" stroke="#4396F7" stroke-width="1.4384"/>
<circle cx="221.994" cy="45.4589" r="10.9624" fill="white" stroke="#4396F7" stroke-width="1.4384"/>
<circle cx="256.287" cy="103.976" r="10.9624" fill="white" stroke="#4396F7" stroke-width="1.4384"/>
<circle cx="256.287" cy="168.652" r="10.9624" fill="white" stroke="#4396F7" stroke-width="1.4384"/>
<circle cx="224.566" cy="224.922" r="10.9624" fill="white" stroke="#4396F7" stroke-width="1.4384"/>
<circle cx="168.033" cy="259.167" r="10.9624" fill="white" stroke="#4396F7" stroke-width="1.4384"/>
<circle cx="105.521" cy="259.167" r="10.9624" fill="white" stroke="#4396F7" stroke-width="1.4384"/>
<circle cx="46.1601" cy="224.922" r="10.9624" fill="white" stroke="#4396F7" stroke-width="1.4384"/>
<circle cx="13.8925" cy="170.061" r="10.9624" fill="white" stroke="#4396F7" stroke-width="1.4384"/>
<circle cx="15.4394" cy="103.976" r="10.9624" fill="white" stroke="#4396F7" stroke-width="1.4384"/>
<circle cx="45.7792" cy="51.288" r="10.9624" fill="white" stroke="#4396F7" stroke-width="1.4384"/>
<path d="M137.563 150.326H136.815C136.597 151.557 135.584 151.856 134.468 151.856V152.639H136.585V158.484H137.563V150.326Z" fill="black"/>
<path d="M134.951 185.408C134.917 184.43 135.4 183.383 136.539 183.383C137.402 183.383 138.116 183.97 138.116 184.856C138.116 185.984 137.414 186.49 136.033 187.342C134.882 188.055 133.904 188.746 133.743 190.679H139.071V189.816H134.882C135.078 188.803 136.148 188.285 137.172 187.664C138.185 187.031 139.151 186.306 139.151 184.868C139.151 183.349 138.024 182.52 136.597 182.52C134.871 182.52 133.893 183.751 133.973 185.408H134.951Z" fill="black"/>
<path d="M135.975 218.632C136.159 218.609 136.367 218.597 136.562 218.597C137.529 218.597 138.3 219.138 138.3 220.162C138.3 221.152 137.483 221.739 136.528 221.739C135.412 221.739 134.825 221.002 134.79 219.944H133.812C133.777 221.624 134.871 222.602 136.528 222.602C138.058 222.602 139.335 221.75 139.335 220.116C139.335 219.138 138.852 218.356 137.863 218.137V218.114C138.484 217.826 138.99 217.205 138.99 216.492C138.99 214.984 137.92 214.305 136.505 214.305C134.871 214.305 134.042 215.387 133.985 216.94H134.963C134.974 215.985 135.435 215.168 136.505 215.168C137.333 215.168 137.955 215.629 137.955 216.48C137.955 217.366 137.23 217.815 136.401 217.815C136.263 217.815 136.125 217.815 135.975 217.803V218.632Z" fill="black"/>
<path d="M138.288 244.31H137.506L133.789 249.615V250.559H137.368V252.469H138.288V250.559H139.393V249.696H138.288V244.31ZM134.629 249.696L137.345 245.703H137.368V249.696H134.629Z" fill="black"/>
<path d="M166.56 15.4797C166.526 14.5016 167.009 13.4545 168.148 13.4545C169.011 13.4545 169.725 14.0413 169.725 14.9274C169.725 16.0551 169.023 16.5614 167.642 17.4129C166.491 18.1264 165.513 18.8168 165.352 20.75H170.68V19.887H166.491C166.687 18.8743 167.757 18.3565 168.781 17.7351C169.794 17.1022 170.76 16.3773 170.76 14.9389C170.76 13.4199 169.633 12.5914 168.206 12.5914C166.48 12.5914 165.502 13.8227 165.582 15.4797H166.56Z" fill="black"/>
<path d="M102.825 12.5914H102.077C101.858 13.8227 100.845 14.1219 99.7293 14.1219V14.9044H101.847V20.75H102.825V12.5914Z" fill="black"/>
<path d="M221.305 45.7746C221.489 45.7515 221.696 45.74 221.892 45.74C222.859 45.74 223.63 46.2809 223.63 47.305C223.63 48.2946 222.813 48.8815 221.857 48.8815C220.741 48.8815 220.154 48.145 220.12 47.0864H219.142C219.107 48.7664 220.2 49.7445 221.857 49.7445C223.388 49.7445 224.665 48.893 224.665 47.259C224.665 46.2809 224.182 45.4984 223.192 45.2798V45.2567C223.814 44.9691 224.32 44.3477 224.32 43.6342C224.32 42.1268 223.25 41.4479 221.834 41.4479C220.2 41.4479 219.372 42.5295 219.314 44.083H220.292C220.304 43.1279 220.764 42.3109 221.834 42.3109C222.663 42.3109 223.284 42.7712 223.284 43.6227C223.284 44.5088 222.559 44.9576 221.731 44.9576C221.593 44.9576 221.455 44.9576 221.305 44.946V45.7746Z" fill="black"/>
<path d="M43.1316 46.2096H42.3836C42.165 47.4409 41.1523 47.74 40.0361 47.74V48.5225H42.1535V54.3682H43.1316V46.2096ZM46.9136 49.0979C46.879 48.1198 47.3623 47.0726 48.5015 47.0726C49.3646 47.0726 50.078 47.6595 50.078 48.5455C50.078 49.6732 49.3761 50.1796 47.9952 51.0311C46.8445 51.7445 45.8664 52.435 45.7053 54.3682H51.0331V53.5051H46.8445C47.0401 52.4925 48.1103 51.9747 49.1344 51.3533C50.1471 50.7204 51.1137 49.9954 51.1137 48.557C51.1137 47.0381 49.986 46.2096 48.5591 46.2096C46.833 46.2096 45.8549 47.4409 45.9355 49.0979H46.9136Z" fill="black"/>
<path d="M257.913 99.5201H257.13L253.414 104.825V105.769H256.992V107.679H257.913V105.769H259.018V104.905H257.913V99.5201ZM254.254 104.905L256.969 100.912H256.992V104.905H254.254Z" fill="black"/>
<path d="M258.5 163.87H254.472L253.713 168.105L254.553 168.151C254.933 167.691 255.45 167.38 256.072 167.38C257.165 167.38 257.913 168.151 257.913 169.232C257.913 170.533 257.119 171.166 256.187 171.166C255.209 171.166 254.53 170.533 254.472 169.693H253.494C253.529 171.166 254.679 172.029 256.095 172.029C257.994 172.029 258.949 170.694 258.949 169.313C258.949 167.449 257.763 166.517 256.313 166.517C255.761 166.517 255.151 166.701 254.795 167.104L254.771 167.081L255.209 164.733H258.5V163.87Z" fill="black"/>
<path d="M11.5945 164.463H10.8465C10.6279 165.694 9.61523 165.993 8.49903 165.993V166.775H10.6164V172.621H11.5945V164.463ZM14.3753 168.617C14.3753 170.412 14.5364 172.759 17.091 172.759C19.6456 172.759 19.8067 170.412 19.8067 168.617C19.8067 166.81 19.6456 164.463 17.091 164.463C14.5364 164.463 14.3753 166.81 14.3753 168.617ZM15.411 168.605C15.411 167.397 15.4225 165.326 17.091 165.326C18.7596 165.326 18.7711 167.397 18.7711 168.605C18.7711 169.825 18.7596 171.896 17.091 171.896C15.4225 171.896 15.411 169.825 15.411 168.605Z" fill="black"/>
<path d="M13.0534 99.0563H12.3055C12.0868 100.288 11.0742 100.587 9.95802 100.587V101.369H12.0753V107.215H13.0534V99.0563ZM19.4476 99.0563H18.6996C18.481 100.288 17.4683 100.587 16.3521 100.587V101.369H18.4695V107.215H19.4476V99.0563Z" fill="black"/>
<path d="M224.66 223.769C225.776 223.769 226.305 224.609 226.305 225.622C226.305 226.588 225.719 227.428 224.66 227.428C223.59 227.428 222.968 226.623 222.968 225.61C222.968 224.586 223.567 223.769 224.66 223.769ZM227.111 222.078C226.996 220.754 226.156 219.995 224.809 219.995C222.485 219.995 221.806 222.124 221.806 224.367C221.806 226.082 222.197 228.291 224.614 228.291C226.674 228.291 227.341 226.738 227.341 225.553C227.341 224.045 226.409 222.906 224.844 222.906C223.958 222.906 223.267 223.228 222.807 223.976L222.784 223.953C222.83 222.699 223.095 220.858 224.763 220.858C225.534 220.858 226.041 221.341 226.133 222.078H227.111Z" fill="black"/>
<path d="M47.669 222.722C47.669 223.689 47.0246 224.517 46.0004 224.517C45.0568 224.517 44.3894 223.689 44.3894 222.791C44.3894 221.79 44.8267 220.858 45.9889 220.858C47.0821 220.858 47.669 221.721 47.669 222.722ZM43.5264 226.186C43.653 227.589 44.6311 228.291 46.0004 228.291C47.9797 228.291 48.8312 226.715 48.8312 223.896C48.8312 220.812 47.5539 219.995 46.035 219.995C44.4585 219.995 43.3538 221.076 43.3538 222.653C43.3538 224.264 44.2744 225.38 45.9314 225.38C46.7254 225.38 47.4503 224.943 47.8186 224.252L47.8416 224.275C47.784 226.381 47.1972 227.428 46.0004 227.428C45.2179 227.428 44.5735 226.98 44.5045 226.186H43.5264Z" fill="black"/>
<path d="M170.933 254.528H165.651V255.449H169.932C168.217 257.267 166.894 259.787 166.71 262.549H167.803C167.953 259.994 169.287 257.002 170.933 255.368V254.528Z" fill="black"/>
<path d="M103.781 260.247C103.781 259.304 104.54 258.682 105.507 258.682C106.427 258.682 107.187 259.35 107.187 260.236C107.187 261.145 106.496 261.824 105.518 261.824C104.506 261.824 103.781 261.226 103.781 260.247ZM103.033 256.473C103.033 257.21 103.493 257.888 104.172 258.165C103.263 258.487 102.745 259.235 102.745 260.201C102.745 261.87 103.953 262.687 105.518 262.687C107.026 262.687 108.223 261.778 108.223 260.201C108.223 259.189 107.751 258.475 106.773 258.165C107.44 257.865 107.9 257.198 107.9 256.473C107.9 255.437 107.21 254.39 105.426 254.39C104.172 254.39 103.033 255.127 103.033 256.473ZM104.068 256.508C104.068 255.691 104.713 255.253 105.495 255.253C106.289 255.253 106.865 255.691 106.865 256.508C106.865 257.336 106.289 257.819 105.518 257.819C104.713 257.819 104.068 257.405 104.068 256.508Z" fill="black"/>
<path d="M136.012 135.963L107.801 119.412C107.801 119.412 110.172 115.334 112.176 113.103C114.518 110.495 119.086 107.375 119.086 107.375L127.263 103.991L136.012 102.86L144.657 103.991L152.564 107.375L136.012 135.963L164.128 119.412C164.128 119.412 166.829 124.311 167.69 127.742C168.474 130.872 168.526 135.963 168.526 135.963C168.526 135.963 168.695 141.611 167.69 145.017C166.801 148.025 164.128 152.217 164.128 152.217L136.012 135.963L152.564 164.237C152.564 164.237 147.894 166.702 144.657 167.569C141.372 168.449 136.012 168.635 136.012 168.635V135.963Z" fill="#4396F7"/>
</svg>
