<svg width="204" height="205" viewBox="0 0 204 205" fill="none" xmlns="http://www.w3.org/2000/svg">
<g style="mix-blend-mode:darken" opacity="0.3">
<path fill-rule="evenodd" clip-rule="evenodd" d="M102.56 0.908513L102.53 7.77711C110.706 7.824 118.876 8.93154 126.833 11.0989C134.773 13.2618 142.361 16.4423 149.419 20.5363L152.739 14.8411L153.171 15.0929L149.85 20.7884C156.858 24.9027 163.335 29.9209 169.106 35.74C174.878 41.56 179.843 48.0799 183.899 55.1222L189.789 51.7549L190.037 52.1889L184.147 55.5561C188.182 62.6467 191.298 70.26 193.395 78.2165C195.486 86.1521 196.526 94.2907 196.515 102.427L203.555 102.457L203.553 102.957L196.513 102.927C196.459 111.075 195.352 119.217 193.192 127.147C191.03 135.083 187.851 142.668 183.76 149.722L189.618 153.138L189.366 153.57L183.508 150.154C179.393 157.165 174.373 163.646 168.551 169.42C162.77 175.153 156.299 180.09 149.311 184.131L152.706 190.07L152.272 190.319L148.877 184.38C141.746 188.454 134.084 191.598 126.074 193.709C118.194 195.786 110.113 196.825 102.033 196.829L102.003 203.836L101.503 203.834L101.533 196.828C93.3281 196.789 85.1284 195.681 77.144 193.506C69.2496 191.355 61.703 188.199 54.6797 184.139L51.3216 189.899L50.8896 189.647L54.2475 183.887C47.1938 179.76 40.675 174.717 34.8707 168.865C29.1368 163.083 24.1993 156.61 20.1578 149.621L14.2726 152.986L14.0245 152.552L19.9087 149.188C15.8358 142.058 12.6919 134.397 10.5816 126.388C8.5021 118.496 7.46235 110.404 7.46152 102.312L0.506865 102.282L0.508995 101.782L7.46279 101.812C7.50529 93.6189 8.61293 85.4311 10.7848 77.458C12.94 69.5464 16.1056 61.9839 20.1785 54.9476L14.4435 51.6039L14.6954 51.1719L20.4301 54.5156C24.5527 47.4795 29.586 40.9764 35.426 35.1848C41.2081 29.4505 47.681 24.5128 54.6707 20.4711L51.3544 14.6702L51.7884 14.422L55.1042 20.222C62.2339 16.1495 69.8944 13.0058 77.9024 10.8956C85.8111 8.81169 93.9215 7.77195 102.03 7.77556L102.06 0.906384L102.56 0.908513ZM11.2673 77.5894C13.4109 69.7201 16.5595 62.1982 20.6104 55.1995L39.6213 66.2836C36.5352 71.6272 34.1355 77.368 32.4997 83.3729C30.8468 89.441 30.0029 95.6724 29.9688 101.908L7.96279 101.814C8.0051 93.6646 9.10688 85.5202 11.2673 77.5894ZM32.9822 83.5043C34.6064 77.5418 36.9891 71.8414 40.0532 66.5355L59.0649 77.6201C56.9658 81.2708 55.3319 85.1898 54.2156 89.2878C53.0816 93.4509 52.5014 97.7258 52.4757 102.004L30.4688 101.91C30.5027 95.718 31.3407 89.5301 32.9822 83.5043ZM40.3048 66.1034L59.3163 77.1879C61.4667 73.534 64.0867 70.1558 67.1229 67.1447C70.0985 64.1937 73.4234 61.6454 77.0111 59.5493L66.0888 40.4439C60.8378 43.4913 55.9738 47.2079 51.626 51.5197C47.2191 55.8902 43.4193 60.796 40.3048 66.1034ZM54.698 89.4192C55.8028 85.3636 57.4196 81.485 59.4968 77.872L80.453 90.0903C79.4393 91.8784 78.6478 93.7933 78.103 95.7934C77.6032 97.6282 77.3186 99.5064 77.2493 101.391C77.2405 101.63 77.2352 101.87 77.2333 102.109L52.9757 102.006C53.0013 97.7715 53.5755 93.54 54.698 89.4192ZM59.7483 77.4398L80.704 89.6579C81.7696 87.8637 83.0623 86.2039 84.5566 84.7219C85.9885 83.3019 87.5821 82.0684 89.2989 81.0434L77.2592 59.9834C73.7093 62.0579 70.4194 64.5796 67.475 67.4997C64.4699 70.4799 61.8767 73.8234 59.7483 77.4398ZM78.5854 95.9259C79.1188 93.9678 79.8934 92.0931 80.8854 90.3424L100.421 101.733C100.406 101.775 100.392 101.819 100.38 101.863C100.349 101.976 100.33 102.092 100.324 102.208L77.7333 102.111C77.7352 101.877 77.7404 101.643 77.749 101.409C77.817 99.5632 78.0958 97.7233 78.5854 95.9259ZM100.372 102.708L77.7346 102.611C77.7382 102.894 77.7467 103.176 77.7602 103.459C77.841 105.148 78.0987 106.832 78.5333 108.481C79.0728 110.529 79.8756 112.488 80.9151 114.311L100.525 103.1C100.461 102.983 100.411 102.857 100.376 102.726C100.375 102.72 100.373 102.714 100.372 102.708ZM100.832 103.501L81.1672 114.743C82.1704 116.422 83.3773 117.981 84.7662 119.381C86.2294 120.857 87.8694 122.131 89.6427 123.18L101.023 103.661C100.956 103.613 100.892 103.559 100.832 103.501ZM101.471 103.886L90.0757 123.43C91.8135 124.41 93.6729 125.176 95.6142 125.704C97.65 126.259 99.7403 126.543 101.832 126.557L101.928 103.967C101.801 103.963 101.674 103.944 101.55 103.91C101.524 103.902 101.497 103.895 101.471 103.886ZM102.429 103.909L102.332 126.555C104.295 126.527 106.256 126.261 108.17 125.757C110.218 125.217 112.177 124.414 114.001 123.374L102.79 103.763C102.676 103.826 102.555 103.875 102.429 103.909ZM103.191 103.457L114.433 123.122C116.112 122.119 117.67 120.912 119.071 119.524C120.515 118.092 121.766 116.49 122.802 114.76L103.268 103.37C103.243 103.4 103.217 103.429 103.191 103.457ZM103.528 102.943L123.055 114.328C124.065 112.558 124.853 110.66 125.394 108.676C125.933 106.695 126.217 104.663 126.244 102.628L103.64 102.532C103.63 102.601 103.616 102.671 103.597 102.739C103.579 102.809 103.555 102.877 103.528 102.943ZM103.634 102.032L126.246 102.128C126.239 101.164 126.175 100.2 126.053 99.2418C125.956 98.4795 125.823 97.7207 125.653 96.968C125.589 96.6846 125.52 96.4021 125.446 96.1205C124.92 94.1256 124.145 92.2147 123.144 90.4308L103.523 101.648C103.554 101.722 103.58 101.798 103.601 101.876C103.615 101.928 103.626 101.979 103.634 102.032ZM103.26 101.222L122.895 89.9974C121.875 88.2654 120.64 86.6595 119.213 85.2204C117.783 83.7784 116.184 82.5281 114.457 81.4932L103.067 101.029C103.103 101.06 103.139 101.093 103.173 101.127C103.203 101.158 103.232 101.189 103.26 101.222ZM102.641 100.766L114.025 81.2407C112.253 80.2277 110.352 79.4383 108.365 78.8971C106.357 78.3499 104.295 78.066 102.231 78.0454L102.135 100.64C102.233 100.649 102.331 100.666 102.427 100.692C102.5 100.712 102.572 100.737 102.641 100.766ZM101.635 100.672L101.731 78.0456C99.7401 78.0669 97.7508 78.3332 95.8089 78.8449C93.7617 79.3843 91.803 80.187 89.9794 81.2263L101.191 100.837C101.308 100.773 101.433 100.723 101.564 100.689C101.587 100.682 101.611 100.677 101.635 100.672ZM100.789 101.143L89.5475 81.4783C87.8683 82.4817 86.3095 83.6887 84.9087 85.0779C83.4457 86.5288 82.18 88.1537 81.1364 89.91L100.66 101.293C100.7 101.241 100.743 101.19 100.789 101.143ZM20.8621 54.7674L39.8728 65.8515C43.0093 60.5066 46.8359 55.5661 51.2739 51.1647C55.6529 46.822 60.5519 43.0789 65.8407 40.0099L54.9188 20.9052C47.9669 24.9252 41.529 29.8364 35.7781 35.5398C29.9692 41.3006 24.9627 47.7689 20.8621 54.7674ZM7.96152 102.314C7.96254 110.362 8.99679 118.411 11.0651 126.261C13.1642 134.227 16.2915 141.847 20.3428 148.94L39.4476 138.018C36.3462 132.587 33.9521 126.752 32.3449 120.653C30.769 114.672 29.9768 108.54 29.9678 102.408L7.96152 102.314ZM30.4678 102.41C30.477 108.499 31.2636 114.587 32.8284 120.526C34.4244 126.583 36.8019 132.377 39.8816 137.77L58.9872 126.847C56.8575 123.116 55.2132 119.108 54.1092 114.918C53.0368 110.848 52.4923 106.677 52.4752 102.504L30.4678 102.41ZM52.9753 102.506C52.9925 106.635 53.5315 110.763 54.5927 114.791C55.6856 118.938 57.3131 122.906 59.4213 126.599L80.4806 114.56C79.4197 112.698 78.6004 110.699 78.0498 108.61C77.6072 106.93 77.3444 105.216 77.2614 103.495C77.2471 103.2 77.2382 102.905 77.2345 102.609L52.9753 102.506ZM35.2258 168.513C29.5228 162.762 24.6118 156.325 20.5919 149.373L39.697 138.451C42.7659 143.739 46.5086 148.638 50.8509 153.016C55.2649 157.467 60.2212 161.303 65.5838 164.444L54.4994 183.456C47.4833 179.35 40.9992 174.334 35.2258 168.513ZM51.2059 152.664C46.8946 148.317 43.1783 143.453 40.1311 138.203L59.2372 127.28C61.3332 130.868 63.8813 134.192 66.832 137.168C69.8555 140.216 73.2491 142.845 76.9203 145.001L65.8356 164.012C60.5106 160.893 55.589 157.084 51.2059 152.664ZM67.187 136.815C64.2672 133.871 61.7457 130.582 59.6713 127.032L80.7325 114.992C81.7575 116.709 82.9911 118.302 84.4112 119.734C85.9051 121.241 87.5797 122.542 89.3904 123.613L77.1722 144.569C73.5385 142.435 70.1796 139.833 67.187 136.815ZM54.9316 183.707C61.9172 187.745 69.4234 190.884 77.2754 193.023C85.2174 195.187 93.3738 196.289 101.535 196.328L101.629 174.321C95.3816 174.29 89.1384 173.446 83.059 171.79C77.0715 170.159 71.3465 167.769 66.0161 164.695L54.9316 183.707ZM66.2679 164.264C71.5608 167.315 77.2453 169.688 83.1905 171.308C89.2275 172.952 95.4273 173.79 101.631 173.821L101.725 151.815C97.4355 151.792 93.1491 151.212 88.9752 150.075C84.8941 148.963 80.9905 147.338 77.3528 145.252L66.2679 164.264ZM77.6046 144.82C81.2048 146.884 85.0679 148.492 89.1066 149.592C93.2382 150.718 97.4811 151.292 101.727 151.315L101.83 127.058C99.6947 127.044 97.5609 126.754 95.4828 126.188C93.4989 125.648 91.5989 124.865 89.8234 123.863L77.6046 144.82ZM125.947 193.226C118.109 195.291 110.072 196.325 102.035 196.329L102.129 174.322C108.249 174.31 114.37 173.518 120.339 171.945C126.44 170.338 132.275 167.943 137.707 164.841L148.629 183.946C141.536 187.998 133.914 191.126 125.947 193.226ZM120.212 171.462C114.285 173.023 108.208 173.81 102.131 173.822L102.225 151.815C106.386 151.795 110.546 151.251 114.605 150.181C118.796 149.077 122.805 147.432 126.537 145.302L137.459 164.407C132.065 167.487 126.27 169.865 120.212 171.462ZM114.478 149.698C110.462 150.756 106.345 151.295 102.227 151.315L102.33 127.056C104.337 127.029 106.341 126.757 108.298 126.241C110.388 125.69 112.388 124.871 114.25 123.809L126.289 144.868C122.595 146.977 118.626 148.605 114.478 149.698ZM149.063 183.697C156.013 179.677 162.449 174.767 168.199 169.065C173.989 163.322 178.983 156.876 183.076 149.902L164.065 138.818C160.936 144.138 157.122 149.056 152.702 153.439C148.325 157.781 143.427 161.523 138.14 164.591L149.063 183.697ZM137.892 164.157C143.141 161.11 148.004 157.395 152.35 153.084C156.739 148.732 160.526 143.848 163.633 138.566L144.622 127.482C142.479 131.11 139.873 134.466 136.855 137.458C133.88 140.408 130.556 142.956 126.97 145.052L137.892 164.157ZM126.722 144.618C130.27 142.544 133.559 140.023 136.503 137.103C139.489 134.141 142.069 130.821 144.19 127.23L123.235 115.012C122.177 116.78 120.898 118.417 119.423 119.88C117.991 121.299 116.398 122.533 114.682 123.557L126.722 144.618ZM192.709 127.015C190.559 134.909 187.398 142.453 183.328 149.471L164.317 138.386C167.421 133.024 169.834 127.26 171.476 121.231C173.117 115.207 173.961 109.022 174.007 102.831L196.013 102.925C195.959 111.03 194.858 119.128 192.709 127.015ZM170.994 121.1C169.363 127.087 166.967 132.81 163.885 138.134L144.874 127.05C146.992 123.38 148.639 119.438 149.762 115.315C150.884 111.196 151.464 106.968 151.501 102.736L173.507 102.829C173.461 108.976 172.624 115.118 170.994 121.1ZM149.28 115.184C148.168 119.265 146.538 123.166 144.442 126.798L123.487 114.58C124.52 112.773 125.325 110.834 125.876 108.808C126.428 106.785 126.717 104.709 126.745 102.63L151.001 102.733C150.964 106.922 150.39 111.107 149.28 115.184ZM196.015 102.425C196.026 94.3321 194.991 86.237 192.912 78.3439C190.826 70.4298 187.726 62.8571 183.713 55.8043L164.608 66.7262C167.671 72.1171 170.038 77.9038 171.631 83.9508C173.219 89.9756 174.011 96.154 174.009 102.331L196.015 102.425ZM173.508 102.329C173.511 96.1954 172.724 90.0605 171.148 84.0782C169.566 78.0737 167.215 72.3275 164.174 66.9744L145.07 77.8959C147.161 81.5871 148.778 85.5475 149.869 89.6851C150.953 93.7991 151.497 98.0173 151.503 102.236L173.508 102.329ZM151.003 102.233C150.997 98.0587 150.458 93.8841 149.385 89.8125C148.306 85.7174 146.706 81.7975 144.636 78.144L123.578 90.1825C124.601 92.0039 125.393 93.955 125.929 95.9921C126.036 96.3946 126.131 96.7992 126.217 97.2053C126.354 97.8595 126.465 98.5178 126.549 99.1787C126.674 100.159 126.739 101.144 126.746 102.13L151.003 102.233ZM168.751 36.0921C174.492 41.8809 179.43 48.3659 183.465 55.3703L164.36 66.2923C161.276 60.9508 157.506 56.0048 153.125 51.5878C148.745 47.1707 143.83 43.3594 138.514 40.2313L149.599 21.2203C156.568 25.3127 163.011 30.3041 168.751 36.0921ZM152.77 51.9399C157.12 56.3257 160.864 61.2368 163.926 66.5405L144.822 77.4621C142.71 73.8215 140.135 70.4494 137.146 67.4355C134.155 64.4204 130.803 61.8158 127.179 59.6738L138.263 40.6632C143.541 43.7694 148.421 47.554 152.77 51.9399ZM136.791 67.7876C139.749 70.7703 142.298 74.1074 144.388 77.7103L123.329 89.749C122.288 87.979 121.026 86.3378 119.568 84.8673C118.107 83.3943 116.474 82.1173 114.709 81.0606L126.927 60.1058C130.514 62.2258 133.831 64.8036 136.791 67.7876ZM149.167 20.9683C142.147 16.8962 134.599 13.7327 126.701 11.5813C118.787 9.42549 110.661 8.32381 102.528 8.2771L102.435 30.2829C108.653 30.3214 114.866 31.1652 120.917 32.8136C126.951 34.4571 132.717 36.8719 138.083 39.9792L149.167 20.9683ZM137.831 40.4111C132.503 37.3258 126.777 34.928 120.786 33.296C114.777 31.6592 108.607 30.8213 102.432 30.7829L102.339 52.7887C106.599 52.8188 110.856 53.3988 115.003 54.5283C119.129 55.6524 123.074 57.3013 126.747 59.4216L137.831 40.4111ZM126.495 59.8536C122.86 57.7552 118.955 56.1233 114.871 55.0107C110.767 53.8928 106.554 53.3186 102.337 53.2887L102.233 77.5445C104.341 77.5652 106.446 77.855 108.496 78.4137C110.526 78.9665 112.467 79.773 114.278 80.8081L126.495 59.8536ZM78.0299 11.3791C85.8961 9.30638 93.9629 8.27213 102.028 8.27556L101.935 30.2815C95.7848 30.2861 89.6348 31.0783 83.637 32.6587C77.5382 34.2658 71.7042 36.6595 66.274 39.7604L55.3523 20.656C62.4443 16.6051 70.0642 13.4781 78.0299 11.3791ZM83.7644 33.1422C89.7197 31.573 95.8262 30.7863 101.932 30.7815L101.839 52.7877C97.6485 52.8004 93.4591 53.345 89.3725 54.4218C85.1828 55.5258 81.1748 57.1698 77.4441 59.2993L66.5221 40.1945C71.9145 37.1152 77.7081 34.7381 83.7644 33.1422ZM89.4999 54.9053C93.544 53.8397 97.6899 53.3006 101.837 53.2877L101.733 77.5446C99.6986 77.5657 97.6658 77.8375 95.6814 78.3604C93.5917 78.9111 91.5923 79.7305 89.7308 80.7914L77.6922 59.7334C81.3852 57.6255 85.3526 55.9981 89.4999 54.9053Z" fill="#0284D2"/>
</g>
<g opacity="0.8">
<circle cx="101.733" cy="102.354" r="24.4209" fill="#4396F7" fill-opacity="0.1"/>
<circle cx="101.733" cy="102.354" r="49.3232" fill="#4396F7" fill-opacity="0.1"/>
<circle cx="101.734" cy="102.354" r="71.9546" fill="#4396F7" fill-opacity="0.1"/>
<circle cx="101.733" cy="102.354" r="94.3093" fill="#4396F7" fill-opacity="0.1"/>
</g>
<mask id="mask0" mask-type="alpha" maskUnits="userSpaceOnUse" x="59" y="102" width="43" height="42">
<path d="M78.6193 143.849L101.857 102.068L59.9688 126.476C59.9688 126.476 62.107 130.398 68.1443 136.951C73.6116 142.885 78.6193 143.849 78.6193 143.849Z" fill="#F74343"/>
</mask>
<g mask="url(#mask0)">
<path fill-rule="evenodd" clip-rule="evenodd" d="M50.7289 142.899L42.7338 176.411L44.2965 176.783L52.2916 143.272L50.7289 142.899ZM85.0184 121.819L77.0233 155.331L78.586 155.704L86.581 122.192L85.0184 121.819ZM111.313 134.251L119.308 100.74L120.87 101.112L112.875 134.624L111.313 134.251ZM67.8736 132.359L59.8786 165.871L61.4412 166.244L69.4363 132.732L67.8736 132.359ZM94.168 144.791L102.163 111.279L103.726 111.652L95.7307 145.164L94.168 144.791ZM136.453 90.1997L128.458 123.711L130.02 124.084L138.015 90.5726L136.453 90.1997ZM48.4487 172.897L56.4438 139.386L58.0065 139.759L50.0114 173.27L48.4487 172.897ZM90.7333 118.306L82.7382 151.818L84.3009 152.19L92.2959 118.679L90.7333 118.306ZM117.028 130.738L125.023 97.2263L126.585 97.5991L118.59 131.111L117.028 130.738ZM73.5885 128.846L65.5935 162.357L67.1561 162.73L75.1512 129.219L73.5885 128.846ZM99.8829 141.278L107.878 107.766L109.441 108.139L101.446 141.651L99.8829 141.278ZM142.167 86.6865L134.172 120.198L135.735 120.571L143.73 87.0593L142.167 86.6865ZM54.1637 169.384L62.1587 135.872L63.7214 136.245L55.7263 169.757L54.1637 169.384ZM96.4482 114.793L88.4531 148.304L90.0158 148.677L98.0108 115.166L96.4482 114.793ZM122.743 127.225L130.738 93.713L132.3 94.0858L124.305 127.597L122.743 127.225ZM79.3035 125.333L71.3084 158.844L72.8711 159.217L80.8661 125.705L79.3035 125.333ZM105.598 137.764L113.593 104.253L115.156 104.626L107.161 138.137L105.598 137.764ZM147.882 83.1732L139.887 116.685L141.45 117.058L149.445 83.546L147.882 83.1732Z" fill="#4396F7"/>
<path fill-rule="evenodd" clip-rule="evenodd" d="M45.8285 122.274L37.8334 155.786L39.3961 156.158L47.3912 122.647L45.8285 122.274ZM80.118 101.194L72.1229 134.706L73.6856 135.079L81.6806 101.567L80.118 101.194ZM106.412 113.626L114.407 80.1146L115.97 80.4874L107.975 113.999L106.412 113.626ZM62.9732 111.734L54.9782 145.246L56.5408 145.619L64.5359 112.107L62.9732 111.734ZM89.2676 124.166L97.2627 90.6544L98.8254 91.0273L90.8303 124.539L89.2676 124.166ZM131.552 69.5747L123.557 103.086L125.12 103.459L133.115 69.9476L131.552 69.5747ZM43.5484 152.272L51.5434 118.761L53.1061 119.134L45.111 152.645L43.5484 152.272ZM85.8329 97.681L77.8378 131.193L79.4005 131.565L87.3955 98.0538L85.8329 97.681ZM112.127 110.113L120.122 76.6013L121.685 76.9741L113.69 110.486L112.127 110.113ZM68.6882 108.221L60.6931 141.732L62.2557 142.105L70.2508 108.594L68.6882 108.221ZM94.9826 120.653L102.978 87.1412L104.54 87.514L96.5452 121.026L94.9826 120.653ZM137.267 66.0615L129.272 99.573L130.835 99.9458L138.83 66.4343L137.267 66.0615ZM49.2633 148.759L57.2583 115.247L58.821 115.62L50.8259 149.132L49.2633 148.759ZM91.5478 94.1677L83.5527 127.679L85.1154 128.052L93.1105 94.5405L91.5478 94.1677ZM117.842 106.6L125.837 73.088L127.4 73.4608L119.405 106.972L117.842 106.6ZM74.4031 104.708L66.408 138.219L67.9707 138.592L75.9657 105.08L74.4031 104.708ZM100.697 117.139L108.693 83.6279L110.255 84.0007L102.26 117.512L100.697 117.139ZM142.982 62.5482L134.987 96.0597L136.55 96.4325L144.545 62.921L142.982 62.5482Z" fill="#4396F7"/>
</g>
<path d="M126.565 102.34C126.565 98.0567 125.442 93.8483 123.308 90.1344L102.065 102.34H126.565Z" fill="#4396F7"/>
<path d="M123.322 90.1589C121.192 86.4425 118.126 83.3494 114.428 81.1879L102.064 102.34L123.322 90.1589Z" fill="#4396F7"/>
<path d="M102.034 77.8399C97.7506 77.8449 93.5435 78.9729 89.8321 81.1111L102.063 102.34L102.034 77.8399Z" fill="#4396F7"/>
<path d="M90.4997 80.7377C85.0331 83.6628 80.8788 88.5517 78.8744 94.4187L102.059 102.34L90.4997 80.7377Z" fill="#4396F7"/>
<path d="M80.8993 89.9968C78.6049 93.9309 77.4524 98.4266 77.5713 102.979L102.063 102.34L80.8993 89.9968Z" fill="#4396F7"/>
<path d="M77.565 102.497C77.5925 106.78 78.7425 110.981 80.9001 114.681L102.065 102.339L77.565 102.497Z" fill="#4396F7"/>
<path d="M89.9517 123.636C93.6748 125.754 97.8881 126.858 102.171 126.84L102.065 102.34L89.9517 123.636Z" fill="#4396F7"/>
<path d="M89.5626 124.41C92.7172 126.281 96.2518 127.421 99.9057 127.744C103.56 128.068 107.239 127.566 110.674 126.278C114.108 124.989 117.209 122.945 119.748 120.298C122.287 117.65 124.199 114.466 125.343 110.981L102.065 103.34L89.5626 124.41Z" fill="#4396F7"/>
<path d="M114.449 123.474C118.144 121.309 121.208 118.213 123.334 114.495L102.065 102.334L114.449 123.474Z" fill="#4396F7"/>
<path d="M123.355 114.465C125.475 110.743 126.582 106.53 126.565 102.247L102.065 102.34L123.355 114.465Z" fill="#4396F7"/>
<path d="M114.411 81.1782C110.711 79.0195 106.51 77.8685 102.227 77.8399L102.063 102.339L114.411 81.1782Z" fill="#4396F7"/>
<path d="M164.259 66.9087C158.062 56.0354 149.123 46.9767 138.332 40.636L126.873 60.136C134.254 64.4734 140.369 70.67 144.608 78.1079L164.259 66.9087Z" fill="#F74343"/>
<path d="M101.907 30.7685C89.3921 30.7946 77.1025 34.1014 66.2639 40.3589L77.7011 60.169C85.0764 55.9109 93.439 53.6608 101.955 53.643L101.907 30.7685Z" fill="#4396F7"/>
<path d="M65.91 40.5595C55.1067 46.8776 46.1485 55.9176 39.9289 66.7779L59.8006 78.1583C64.0306 70.7721 70.1232 64.6239 77.4706 60.3268L65.91 40.5595Z" fill="#4396F7"/>
<path d="M39.9396 66.7771C33.6826 77.7025 30.4176 90.0848 30.4741 102.675L52.8088 102.575C52.77 93.9127 55.0163 85.3937 59.3211 77.877L39.9396 66.7771Z" fill="#4396F7"/>
<path d="M30.4743 102.669C30.5295 115.184 33.8648 127.466 40.1475 138.29L59.4642 127.078C55.1417 119.631 52.847 111.181 52.809 102.571L30.4743 102.669Z" fill="#F74343"/>
<path d="M66.5528 164.514C77.4199 170.722 89.7246 173.972 102.24 173.941L102.182 150.569C93.7523 150.59 85.4649 148.401 78.1457 144.22L66.5528 164.514Z" fill="#4396F7"/>
<path d="M163.77 138.648C170.115 127.86 173.52 115.597 173.647 103.083L151.313 102.856C151.226 111.466 148.883 119.903 144.518 127.325L163.77 138.648Z" fill="#4396F7"/>
<path d="M137.973 164.286C148.851 157.978 157.876 148.917 164.139 138.013L144.772 126.888C140.463 134.39 134.254 140.624 126.769 144.964L137.973 164.286Z" fill="#F74343"/>
<path d="M138.416 40.6873C127.441 34.2171 114.939 30.7927 102.199 30.7678L102.154 53.6071C110.83 53.624 119.343 55.9559 126.816 60.3618L138.416 40.6873Z" fill="#4396F7"/>
<path d="M151.077 102.841C151.162 94.2714 148.999 85.8295 144.803 78.357L123.113 90.5346C125.18 94.2152 126.245 98.3733 126.204 102.594L151.077 102.841Z" fill="#4396F7"/>
<path d="M144.772 78.3006C140.567 70.8336 134.477 64.5995 127.111 60.2201L114.484 81.459C118.137 83.6309 121.157 86.7225 123.242 90.4256L144.772 78.3006Z" fill="#4396F7"/>
<path d="M101.954 53.336C95.4445 53.3496 89.0026 54.6598 83.0047 57.1899C77.0067 59.7201 71.5727 63.4196 67.02 68.0726C62.4672 72.7256 58.8869 78.2388 56.4879 84.2905C54.089 90.3421 52.9194 96.811 53.0476 103.32L77.8184 102.832C77.755 99.6129 78.3335 96.4136 79.5199 93.4207C80.7064 90.4277 82.4771 87.7011 84.7287 85.3999C86.9803 83.0986 89.6678 81.269 92.6342 80.0176C95.6006 78.7663 98.7866 78.1184 102.006 78.1116L101.954 53.336Z" fill="#4396F7"/>
<path d="M77.3042 60.0404C69.9066 64.3667 63.7726 70.5568 59.5137 77.9934L81.102 90.3569C83.1994 86.6945 86.2203 83.646 89.8635 81.5154L77.3042 60.0404Z" fill="#4396F7"/>
<path d="M59.272 77.9737C55.0131 85.4102 52.7781 93.8334 52.7901 102.403L77.6277 102.368C77.6218 98.141 78.7243 93.9858 80.8252 90.3173L59.272 77.9737Z" fill="#4396F7"/>
<path d="M52.8947 102.983C52.9319 111.416 55.1444 119.697 59.3181 127.026L99.6976 104.028C99.4805 103.647 99.3655 103.216 99.3635 102.778L52.8947 102.983Z" fill="#4396F7"/>
<path d="M77.7442 144.918C85.1854 149.168 93.611 151.394 102.181 151.373L102.12 127.06C97.8011 127.07 93.5546 125.949 89.8042 123.806L77.7442 144.918Z" fill="#4396F7"/>
<path d="M102.306 151.035C110.875 150.994 119.284 148.707 126.695 144.403L114.481 123.38C110.747 125.549 106.508 126.702 102.189 126.722L102.306 151.035Z" fill="#F74343"/>
<path d="M126.134 145.046C134.32 140.44 141.013 133.584 145.42 125.29L123.408 113.594C121.238 117.678 117.943 121.054 113.912 123.322L126.134 145.046Z" fill="#4396F7"/>
<path d="M144.473 127.933C149.059 120.019 151.339 110.98 151.056 101.838L126.108 102.611C126.247 107.098 125.128 111.535 122.877 115.419L144.473 127.933Z" fill="#4396F7"/>
<path d="M127.101 60.2155C119.456 55.6712 110.718 53.2928 101.824 53.3349L101.941 78.0751C106.346 78.0542 110.674 79.2322 114.46 81.4829L127.101 60.2155Z" fill="#4396F7"/>
<g style="mix-blend-mode:screen">
<path fill-rule="evenodd" clip-rule="evenodd" d="M102.56 0.908513L102.53 7.77711C110.706 7.824 118.876 8.93154 126.833 11.0989C134.773 13.2618 142.361 16.4423 149.419 20.5363L152.739 14.8411L153.171 15.0929L149.85 20.7884C156.858 24.9027 163.335 29.9209 169.106 35.74C174.878 41.56 179.843 48.0799 183.899 55.1222L189.789 51.7549L190.037 52.1889L184.147 55.5561C188.182 62.6467 191.298 70.26 193.395 78.2165C195.486 86.1521 196.526 94.2907 196.515 102.427L203.555 102.457L203.553 102.957L196.513 102.927C196.459 111.075 195.352 119.217 193.192 127.147C191.03 135.083 187.851 142.668 183.76 149.722L189.618 153.138L189.366 153.57L183.508 150.154C179.393 157.165 174.373 163.646 168.551 169.42C162.77 175.153 156.299 180.09 149.311 184.131L152.706 190.07L152.272 190.319L148.877 184.38C141.746 188.454 134.084 191.598 126.074 193.709C118.194 195.786 110.113 196.825 102.033 196.829L102.003 203.836L101.503 203.834L101.533 196.828C93.3281 196.789 85.1284 195.681 77.144 193.506C69.2496 191.355 61.703 188.199 54.6797 184.139L51.3216 189.899L50.8896 189.647L54.2475 183.887C47.1938 179.76 40.675 174.717 34.8707 168.865C29.1368 163.083 24.1993 156.61 20.1578 149.621L14.2726 152.986L14.0245 152.552L19.9087 149.188C15.8358 142.058 12.6919 134.397 10.5816 126.388C8.5021 118.496 7.46235 110.404 7.46152 102.312L0.506865 102.282L0.508995 101.782L7.46279 101.812C7.50529 93.6189 8.61293 85.4311 10.7848 77.458C12.94 69.5464 16.1056 61.9839 20.1785 54.9476L14.4435 51.6039L14.6954 51.1719L20.4301 54.5156C24.5527 47.4795 29.586 40.9764 35.426 35.1848C41.2081 29.4505 47.681 24.5128 54.6707 20.4711L51.3544 14.6702L51.7884 14.422L55.1042 20.222C62.2339 16.1495 69.8944 13.0058 77.9024 10.8956C85.8111 8.81169 93.9215 7.77195 102.03 7.77556L102.06 0.906384L102.56 0.908513ZM11.2673 77.5894C13.4109 69.7201 16.5595 62.1982 20.6104 55.1995L39.6213 66.2836C36.5352 71.6272 34.1355 77.368 32.4997 83.3729C30.8468 89.441 30.0029 95.6724 29.9688 101.908L7.96279 101.814C8.0051 93.6646 9.10688 85.5202 11.2673 77.5894ZM32.9822 83.5043C34.6064 77.5418 36.9891 71.8414 40.0532 66.5355L59.0649 77.6201C56.9658 81.2708 55.3319 85.1898 54.2156 89.2878C53.0816 93.4509 52.5014 97.7258 52.4757 102.004L30.4688 101.91C30.5027 95.718 31.3407 89.5301 32.9822 83.5043ZM40.3048 66.1034L59.3163 77.1879C61.4667 73.534 64.0867 70.1558 67.1229 67.1447C70.0985 64.1937 73.4234 61.6454 77.0111 59.5493L66.0888 40.4439C60.8378 43.4913 55.9738 47.2079 51.626 51.5197C47.2191 55.8902 43.4193 60.796 40.3048 66.1034ZM54.698 89.4192C55.8028 85.3636 57.4196 81.485 59.4968 77.872L80.453 90.0903C79.4393 91.8784 78.6478 93.7933 78.103 95.7934C77.6032 97.6282 77.3186 99.5064 77.2493 101.391C77.2405 101.63 77.2352 101.87 77.2333 102.109L52.9757 102.006C53.0013 97.7715 53.5755 93.54 54.698 89.4192ZM59.7483 77.4398L80.704 89.6579C81.7696 87.8637 83.0623 86.2039 84.5566 84.7219C85.9885 83.3019 87.5821 82.0684 89.2989 81.0434L77.2592 59.9834C73.7093 62.0579 70.4194 64.5796 67.475 67.4997C64.4699 70.4799 61.8767 73.8234 59.7483 77.4398ZM78.5854 95.9259C79.1188 93.9678 79.8934 92.0931 80.8854 90.3424L100.421 101.733C100.406 101.775 100.392 101.819 100.38 101.863C100.349 101.976 100.33 102.092 100.324 102.208L77.7333 102.111C77.7352 101.877 77.7404 101.643 77.749 101.409C77.817 99.5632 78.0958 97.7233 78.5854 95.9259ZM100.372 102.708L77.7346 102.611C77.7382 102.894 77.7467 103.176 77.7602 103.459C77.841 105.148 78.0987 106.832 78.5333 108.481C79.0728 110.529 79.8756 112.488 80.9151 114.311L100.525 103.1C100.461 102.983 100.411 102.857 100.376 102.726C100.375 102.72 100.373 102.714 100.372 102.708ZM100.832 103.501L81.1672 114.743C82.1704 116.422 83.3773 117.981 84.7662 119.381C86.2294 120.857 87.8694 122.131 89.6427 123.18L101.023 103.661C100.956 103.613 100.892 103.559 100.832 103.501ZM101.471 103.886L90.0757 123.43C91.8135 124.41 93.6729 125.176 95.6142 125.704C97.65 126.259 99.7403 126.543 101.832 126.557L101.928 103.967C101.801 103.963 101.674 103.944 101.55 103.91C101.524 103.902 101.497 103.895 101.471 103.886ZM102.429 103.909L102.332 126.555C104.295 126.527 106.256 126.261 108.17 125.757C110.218 125.217 112.177 124.414 114.001 123.374L102.79 103.763C102.676 103.826 102.555 103.875 102.429 103.909ZM103.191 103.457L114.433 123.122C116.112 122.119 117.67 120.912 119.071 119.524C120.515 118.092 121.766 116.49 122.802 114.76L103.268 103.37C103.243 103.4 103.217 103.429 103.191 103.457ZM103.528 102.943L123.055 114.328C124.065 112.558 124.853 110.66 125.394 108.676C125.933 106.695 126.217 104.663 126.244 102.628L103.64 102.532C103.63 102.601 103.616 102.671 103.597 102.739C103.579 102.809 103.555 102.877 103.528 102.943ZM103.634 102.032L126.246 102.128C126.239 101.164 126.175 100.2 126.053 99.2418C125.956 98.4795 125.823 97.7207 125.653 96.968C125.589 96.6846 125.52 96.4021 125.446 96.1205C124.92 94.1256 124.145 92.2147 123.144 90.4308L103.523 101.648C103.554 101.722 103.58 101.798 103.601 101.876C103.615 101.928 103.626 101.979 103.634 102.032ZM103.26 101.222L122.895 89.9974C121.875 88.2654 120.64 86.6595 119.213 85.2204C117.783 83.7784 116.184 82.5281 114.457 81.4932L103.067 101.029C103.103 101.06 103.139 101.093 103.173 101.127C103.203 101.158 103.232 101.189 103.26 101.222ZM102.641 100.766L114.025 81.2407C112.253 80.2277 110.352 79.4383 108.365 78.8971C106.357 78.3499 104.295 78.066 102.231 78.0454L102.135 100.64C102.233 100.649 102.331 100.666 102.427 100.692C102.5 100.712 102.572 100.737 102.641 100.766ZM101.635 100.672L101.731 78.0456C99.7401 78.0669 97.7508 78.3332 95.8089 78.8449C93.7617 79.3843 91.803 80.187 89.9794 81.2263L101.191 100.837C101.308 100.773 101.433 100.723 101.564 100.689C101.587 100.682 101.611 100.677 101.635 100.672ZM100.789 101.143L89.5475 81.4783C87.8683 82.4817 86.3095 83.6887 84.9087 85.0779C83.4457 86.5288 82.18 88.1537 81.1364 89.91L100.66 101.293C100.7 101.241 100.743 101.19 100.789 101.143ZM20.8621 54.7674L39.8728 65.8515C43.0093 60.5066 46.8359 55.5661 51.2739 51.1647C55.6529 46.822 60.5519 43.0789 65.8407 40.0099L54.9188 20.9052C47.9669 24.9252 41.529 29.8364 35.7781 35.5398C29.9692 41.3006 24.9627 47.7689 20.8621 54.7674ZM7.96152 102.314C7.96254 110.362 8.99679 118.411 11.0651 126.261C13.1642 134.227 16.2915 141.847 20.3428 148.94L39.4476 138.018C36.3462 132.587 33.9521 126.752 32.3449 120.653C30.769 114.672 29.9768 108.54 29.9678 102.408L7.96152 102.314ZM30.4678 102.41C30.477 108.499 31.2636 114.587 32.8284 120.526C34.4244 126.583 36.8019 132.377 39.8816 137.77L58.9872 126.847C56.8575 123.116 55.2132 119.108 54.1092 114.918C53.0368 110.848 52.4923 106.677 52.4752 102.504L30.4678 102.41ZM52.9753 102.506C52.9925 106.635 53.5315 110.763 54.5927 114.791C55.6856 118.938 57.3131 122.906 59.4213 126.599L80.4806 114.56C79.4197 112.698 78.6004 110.699 78.0498 108.61C77.6072 106.93 77.3444 105.216 77.2614 103.495C77.2471 103.2 77.2382 102.905 77.2345 102.609L52.9753 102.506ZM35.2258 168.513C29.5228 162.762 24.6118 156.325 20.5919 149.373L39.697 138.451C42.7659 143.739 46.5086 148.638 50.8509 153.016C55.2649 157.467 60.2212 161.303 65.5838 164.444L54.4994 183.456C47.4833 179.35 40.9992 174.334 35.2258 168.513ZM51.2059 152.664C46.8946 148.317 43.1783 143.453 40.1311 138.203L59.2372 127.28C61.3332 130.868 63.8813 134.192 66.832 137.168C69.8555 140.216 73.2491 142.845 76.9203 145.001L65.8356 164.012C60.5106 160.893 55.589 157.084 51.2059 152.664ZM67.187 136.815C64.2672 133.871 61.7457 130.582 59.6713 127.032L80.7325 114.992C81.7575 116.709 82.9911 118.302 84.4112 119.734C85.9051 121.241 87.5797 122.542 89.3904 123.613L77.1722 144.569C73.5385 142.435 70.1796 139.833 67.187 136.815ZM54.9316 183.707C61.9172 187.745 69.4234 190.884 77.2754 193.023C85.2174 195.187 93.3738 196.289 101.535 196.328L101.629 174.321C95.3816 174.29 89.1384 173.446 83.059 171.79C77.0715 170.159 71.3465 167.769 66.0161 164.695L54.9316 183.707ZM66.2679 164.264C71.5608 167.315 77.2453 169.688 83.1905 171.308C89.2275 172.952 95.4273 173.79 101.631 173.821L101.725 151.815C97.4355 151.792 93.1491 151.212 88.9752 150.075C84.8941 148.963 80.9905 147.338 77.3528 145.252L66.2679 164.264ZM77.6046 144.82C81.2048 146.884 85.0679 148.492 89.1066 149.592C93.2382 150.718 97.4811 151.292 101.727 151.315L101.83 127.058C99.6947 127.044 97.5609 126.754 95.4828 126.188C93.4989 125.648 91.5989 124.865 89.8234 123.863L77.6046 144.82ZM125.947 193.226C118.109 195.291 110.072 196.325 102.035 196.329L102.129 174.322C108.249 174.31 114.37 173.518 120.339 171.945C126.44 170.338 132.275 167.943 137.707 164.841L148.629 183.946C141.536 187.998 133.914 191.126 125.947 193.226ZM120.212 171.462C114.285 173.023 108.208 173.81 102.131 173.822L102.225 151.815C106.386 151.795 110.546 151.251 114.605 150.181C118.796 149.077 122.805 147.432 126.537 145.302L137.459 164.407C132.065 167.487 126.27 169.865 120.212 171.462ZM114.478 149.698C110.462 150.756 106.345 151.295 102.227 151.315L102.33 127.056C104.337 127.029 106.341 126.757 108.298 126.241C110.388 125.69 112.388 124.871 114.25 123.809L126.289 144.868C122.595 146.977 118.626 148.605 114.478 149.698ZM149.063 183.697C156.013 179.677 162.449 174.767 168.199 169.065C173.989 163.322 178.983 156.876 183.076 149.902L164.065 138.818C160.936 144.138 157.122 149.056 152.702 153.439C148.325 157.781 143.427 161.523 138.14 164.591L149.063 183.697ZM137.892 164.157C143.141 161.11 148.004 157.395 152.35 153.084C156.739 148.732 160.526 143.848 163.633 138.566L144.622 127.482C142.479 131.11 139.873 134.466 136.855 137.458C133.88 140.408 130.556 142.956 126.97 145.052L137.892 164.157ZM126.722 144.618C130.27 142.544 133.559 140.023 136.503 137.103C139.489 134.141 142.069 130.821 144.19 127.23L123.235 115.012C122.177 116.78 120.898 118.417 119.423 119.88C117.991 121.299 116.398 122.533 114.682 123.557L126.722 144.618ZM192.709 127.015C190.559 134.909 187.398 142.453 183.328 149.471L164.317 138.386C167.421 133.024 169.834 127.26 171.476 121.231C173.117 115.207 173.961 109.022 174.007 102.831L196.013 102.925C195.959 111.03 194.858 119.128 192.709 127.015ZM170.994 121.1C169.363 127.087 166.967 132.81 163.885 138.134L144.874 127.05C146.992 123.38 148.639 119.438 149.762 115.315C150.884 111.196 151.464 106.968 151.501 102.736L173.507 102.829C173.461 108.976 172.624 115.118 170.994 121.1ZM149.28 115.184C148.168 119.265 146.538 123.166 144.442 126.798L123.487 114.58C124.52 112.773 125.325 110.834 125.876 108.808C126.428 106.785 126.717 104.709 126.745 102.63L151.001 102.733C150.964 106.922 150.39 111.107 149.28 115.184ZM196.015 102.425C196.026 94.3321 194.991 86.237 192.912 78.3439C190.826 70.4298 187.726 62.8571 183.713 55.8043L164.608 66.7262C167.671 72.1171 170.038 77.9038 171.631 83.9508C173.219 89.9756 174.011 96.154 174.009 102.331L196.015 102.425ZM173.508 102.329C173.511 96.1954 172.724 90.0605 171.148 84.0782C169.566 78.0737 167.215 72.3275 164.174 66.9744L145.07 77.8959C147.161 81.5871 148.778 85.5475 149.869 89.6851C150.953 93.7991 151.497 98.0173 151.503 102.236L173.508 102.329ZM151.003 102.233C150.997 98.0587 150.458 93.8841 149.385 89.8125C148.306 85.7174 146.706 81.7975 144.636 78.144L123.578 90.1825C124.601 92.0039 125.393 93.955 125.929 95.9921C126.036 96.3946 126.131 96.7992 126.217 97.2053C126.354 97.8595 126.465 98.5178 126.549 99.1787C126.674 100.159 126.739 101.144 126.746 102.13L151.003 102.233ZM168.751 36.0921C174.492 41.8809 179.43 48.3659 183.465 55.3703L164.36 66.2923C161.276 60.9508 157.506 56.0048 153.125 51.5878C148.745 47.1707 143.83 43.3594 138.514 40.2313L149.599 21.2203C156.568 25.3127 163.011 30.3041 168.751 36.0921ZM152.77 51.9399C157.12 56.3257 160.864 61.2368 163.926 66.5405L144.822 77.4621C142.71 73.8215 140.135 70.4494 137.146 67.4355C134.155 64.4204 130.803 61.8158 127.179 59.6738L138.263 40.6632C143.541 43.7694 148.421 47.554 152.77 51.9399ZM136.791 67.7876C139.749 70.7703 142.298 74.1074 144.388 77.7103L123.329 89.749C122.288 87.979 121.026 86.3378 119.568 84.8673C118.107 83.3943 116.474 82.1173 114.709 81.0606L126.927 60.1058C130.514 62.2258 133.831 64.8036 136.791 67.7876ZM149.167 20.9683C142.147 16.8962 134.599 13.7327 126.701 11.5813C118.787 9.42549 110.661 8.32381 102.528 8.2771L102.435 30.2829C108.653 30.3214 114.866 31.1652 120.917 32.8136C126.951 34.4571 132.717 36.8719 138.083 39.9792L149.167 20.9683ZM137.831 40.4111C132.503 37.3258 126.777 34.928 120.786 33.296C114.777 31.6592 108.607 30.8213 102.432 30.7829L102.339 52.7887C106.599 52.8188 110.856 53.3988 115.003 54.5283C119.129 55.6524 123.074 57.3013 126.747 59.4216L137.831 40.4111ZM126.495 59.8536C122.86 57.7552 118.955 56.1233 114.871 55.0107C110.767 53.8928 106.554 53.3186 102.337 53.2887L102.233 77.5445C104.341 77.5652 106.446 77.855 108.496 78.4137C110.526 78.9665 112.467 79.773 114.278 80.8081L126.495 59.8536ZM78.0299 11.3791C85.8961 9.30638 93.9629 8.27213 102.028 8.27556L101.935 30.2815C95.7848 30.2861 89.6348 31.0783 83.637 32.6587C77.5382 34.2658 71.7042 36.6595 66.274 39.7604L55.3523 20.656C62.4443 16.6051 70.0642 13.4781 78.0299 11.3791ZM83.7644 33.1422C89.7197 31.573 95.8262 30.7863 101.932 30.7815L101.839 52.7877C97.6485 52.8004 93.4591 53.345 89.3725 54.4218C85.1828 55.5258 81.1748 57.1698 77.4441 59.2993L66.5221 40.1945C71.9145 37.1152 77.7081 34.7381 83.7644 33.1422ZM89.4999 54.9053C93.544 53.8397 97.6899 53.3006 101.837 53.2877L101.733 77.5446C99.6986 77.5657 97.6658 77.8375 95.6814 78.3604C93.5917 78.9111 91.5923 79.7305 89.7308 80.7914L77.6922 59.7334C81.3852 57.6255 85.3526 55.9981 89.4999 54.9053Z" fill="white"/>
</g>
<circle cx="76.8044" cy="12.8168" r="8.23979" transform="rotate(0.237983 76.8044 12.8168)" fill="white" stroke="#4396F7" stroke-width="1.08116"/>
<circle cx="126.615" cy="13.0228" r="8.23979" transform="rotate(0.237983 126.615 13.0228)" fill="white" stroke="#4396F7" stroke-width="1.08116"/>
<circle cx="167.085" cy="34.5961" r="8.23979" transform="rotate(0.237983 167.085 34.5961)" fill="white" stroke="#4396F7" stroke-width="1.08116"/>
<circle cx="192.678" cy="78.6859" r="8.23979" transform="rotate(0.237983 192.678 78.6859)" fill="white" stroke="#4396F7" stroke-width="1.08116"/>
<circle cx="192.476" cy="127.299" r="8.23979" transform="rotate(0.237983 192.476 127.299)" fill="white" stroke="#4396F7" stroke-width="1.08116"/>
<circle cx="168.458" cy="169.494" r="8.23979" transform="rotate(0.237983 168.458 169.494)" fill="white" stroke="#4396F7" stroke-width="1.08116"/>
<circle cx="125.858" cy="195.058" r="8.23979" transform="rotate(0.237983 125.858 195.058)" fill="white" stroke="#4396F7" stroke-width="1.08116"/>
<circle cx="78.8727" cy="194.863" r="8.23979" transform="rotate(0.237983 78.8727 194.863)" fill="white" stroke="#4396F7" stroke-width="1.08116"/>
<circle cx="34.361" cy="168.938" r="8.23979" transform="rotate(0.237983 34.361 168.938)" fill="white" stroke="#4396F7" stroke-width="1.08116"/>
<circle cx="10.279" cy="127.602" r="8.23979" transform="rotate(0.237983 10.279 127.602)" fill="white" stroke="#4396F7" stroke-width="1.08116"/>
<circle cx="11.6481" cy="77.934" r="8.23979" transform="rotate(0.237983 11.6481 77.934)" fill="white" stroke="#4396F7" stroke-width="1.08116"/>
<circle cx="34.6169" cy="38.4271" r="8.23979" transform="rotate(0.237983 34.6169 38.4271)" fill="white" stroke="#4396F7" stroke-width="1.08116"/>
<path d="M103.296 113.141L102.734 113.139C102.566 114.064 101.804 114.285 100.965 114.282L100.963 114.87L102.554 114.877L102.536 119.27L103.271 119.273L103.296 113.141Z" fill="black"/>
<path d="M101.223 139.502C101.201 138.767 101.567 137.981 102.423 137.985C103.072 137.988 103.607 138.431 103.604 139.097C103.6 139.945 103.071 140.323 102.03 140.959C101.163 141.491 100.426 142.007 100.299 143.46L104.303 143.476L104.306 142.828L101.158 142.815C101.308 142.054 102.114 141.668 102.886 141.204C103.649 140.732 104.378 140.19 104.382 139.109C104.387 137.967 103.542 137.341 102.469 137.336C101.172 137.331 100.433 138.253 100.488 139.499L101.223 139.502Z" fill="black"/>
<path d="M101.889 164.477C102.028 164.46 102.183 164.452 102.33 164.453C103.057 164.456 103.635 164.865 103.632 165.635C103.628 166.379 103.013 166.817 102.295 166.814C101.456 166.811 101.017 166.255 100.994 165.46L100.259 165.456C100.228 166.719 101.046 167.458 102.292 167.463C103.442 167.468 104.405 166.832 104.41 165.603C104.413 164.868 104.052 164.279 103.309 164.111L103.309 164.094C103.777 163.88 104.16 163.414 104.162 162.878C104.167 161.745 103.364 161.231 102.301 161.227C101.072 161.222 100.446 162.032 100.398 163.2L101.133 163.203C101.145 162.485 101.493 161.872 102.298 161.875C102.921 161.878 103.386 162.226 103.384 162.866C103.381 163.532 102.834 163.867 102.212 163.864C102.108 163.864 102.004 163.864 101.892 163.854L101.889 164.477Z" fill="black"/>
<path d="M103.547 183.785L102.959 183.783L100.149 187.758L100.146 188.468L102.836 188.479L102.83 189.914L103.522 189.917L103.528 188.482L104.358 188.485L104.361 187.836L103.531 187.833L103.547 183.785ZM100.78 187.821L102.834 184.829L102.851 184.829L102.839 187.83L100.78 187.821Z" fill="black"/>
<path d="M125.515 11.3731C125.492 10.6378 125.858 9.85225 126.715 9.8558C127.363 9.8585 127.898 10.3018 127.895 10.9678C127.892 11.8154 127.362 12.1938 126.322 12.8296C125.455 13.3622 124.717 13.8781 124.59 15.3307L128.595 15.3473L128.597 14.6986L125.449 14.6855C125.599 13.925 126.405 13.5391 127.177 13.0753C127.94 12.6027 128.669 12.0609 128.673 10.9797C128.678 9.83801 127.833 9.21175 126.761 9.20729C125.463 9.2019 124.724 10.1243 124.78 11.3701L125.515 11.3731Z" fill="black"/>
<path d="M77.6171 9.00328L77.0549 9.00094C76.8867 9.92573 76.1246 10.1474 75.2857 10.144L75.2832 10.7321L76.8747 10.7387L76.8564 15.1325L77.5916 15.1356L77.6171 9.00328Z" fill="black"/>
<path d="M166.568 34.3139C166.707 34.2972 166.862 34.2892 167.009 34.2898C167.736 34.2928 168.314 34.7017 168.311 35.4715C168.307 36.2153 167.692 36.6539 166.974 36.6509C166.135 36.6474 165.696 36.092 165.673 35.2962L164.938 35.2932C164.907 36.5558 165.725 37.2944 166.971 37.2996C168.121 37.3044 169.084 36.6683 169.089 35.4401C169.092 34.705 168.731 34.1153 167.988 33.9479L167.988 33.9306C168.456 33.7163 168.839 33.2508 168.841 32.7146C168.846 31.5815 168.043 31.0679 166.98 31.0634C165.751 31.0583 165.125 31.8688 165.077 33.0363L165.812 33.0393C165.824 32.3215 166.172 31.7088 166.977 31.7121C167.6 31.7147 168.065 32.0626 168.063 32.7027C168.06 33.3687 167.514 33.7037 166.891 33.7011C166.787 33.7007 166.683 33.7003 166.571 33.6912L166.568 34.3139Z" fill="black"/>
<path d="M34.4305 37.9295C35.2695 37.933 35.6647 38.566 35.6616 39.3272C35.6586 40.0537 35.2148 40.6833 34.4191 40.68C33.6147 40.6766 33.1502 40.0692 33.1533 39.3081C33.1565 38.5383 33.6088 37.9261 34.4305 37.9295ZM36.2781 36.6657C36.1957 35.6707 35.5667 35.0972 34.5547 35.093C32.8076 35.0858 32.2907 36.6838 32.2836 38.3704C32.2783 39.6591 32.5655 41.321 34.3818 41.3285C35.93 41.3349 36.4365 40.1694 36.4402 39.2785C36.4449 38.1455 35.7479 37.2863 34.5716 37.2814C33.9056 37.2786 33.3857 37.5186 33.0373 38.0794L33.0201 38.062C33.0586 37.1194 33.2633 35.7364 34.5174 35.7416C35.0969 35.744 35.476 36.1088 35.5429 36.6627L36.2781 36.6657Z" fill="black"/>
<path d="M193.916 74.8259L193.328 74.8234L190.517 78.7991L190.515 79.5083L193.204 79.5195L193.198 80.9553L193.89 80.9581L193.896 79.5224L194.727 79.5258L194.729 78.8771L193.899 78.8737L193.916 74.8259ZM191.149 78.8623L193.202 75.8695L193.22 75.8695L193.207 78.8708L191.149 78.8623Z" fill="black"/>
<path d="M194.156 124.195L191.129 124.183L190.545 127.363L191.176 127.4C191.463 127.056 191.853 126.824 192.32 126.826C193.142 126.829 193.702 127.411 193.699 128.224C193.694 129.201 193.096 129.674 192.395 129.672C191.66 129.668 191.152 129.191 191.111 128.559L190.376 128.556C190.397 129.663 191.259 130.316 192.323 130.32C193.75 130.326 194.472 129.326 194.477 128.288C194.483 126.886 193.595 126.182 192.505 126.178C192.09 126.176 191.631 126.312 191.361 126.614L191.344 126.597L191.68 124.834L194.154 124.844L194.156 124.195Z" fill="black"/>
<path d="M8.99587 128.534C8.99882 127.825 9.5716 127.36 10.2981 127.363C10.9901 127.366 11.5588 127.87 11.5561 128.536C11.5532 129.22 11.0322 129.728 10.297 129.725C9.53585 129.722 8.99282 129.269 8.99587 128.534ZM8.44546 125.695C8.44316 126.249 8.78701 126.76 9.29645 126.97C8.61215 127.209 8.2206 127.77 8.21759 128.496C8.21238 129.751 9.11799 130.368 10.2943 130.373C11.4273 130.378 12.3297 129.699 12.3346 128.514C12.3378 127.752 11.9854 127.215 11.2512 126.978C11.7538 126.755 12.1018 126.255 12.1041 125.71C12.1073 124.932 11.5916 124.143 10.251 124.137C9.30823 124.133 8.44966 124.683 8.44546 125.695ZM9.22378 125.724C9.22633 125.11 9.71205 124.783 10.3002 124.786C10.897 124.788 11.3281 125.119 11.3255 125.733C11.3229 126.356 10.889 126.717 10.3095 126.715C9.70404 126.712 9.22097 126.399 9.22378 125.724Z" fill="black"/>
<path d="M13.5982 74.8313L9.62819 74.8148L9.62532 75.5068L12.8428 75.5201C11.5484 76.8813 10.5459 78.7714 10.3989 80.8466L11.2206 80.85C11.341 78.9304 12.3536 76.6858 13.5956 75.4627L13.5982 74.8313Z" fill="black"/>
<path d="M166.748 166.268L166.186 166.265C166.018 167.19 165.256 167.412 164.417 167.408L164.414 167.997L166.006 168.003L165.988 172.397L166.723 172.4L166.748 166.268ZM169.582 168.45C169.559 167.715 169.926 166.93 170.782 166.933C171.431 166.936 171.965 167.379 171.962 168.045C171.959 168.893 171.429 169.271 170.389 169.907C169.522 170.44 168.784 170.955 168.657 172.408L172.662 172.425L172.665 171.776L169.516 171.763C169.666 171.002 170.472 170.617 171.244 170.153C172.007 169.68 172.736 169.138 172.741 168.057C172.745 166.915 171.9 166.289 170.828 166.285C169.53 166.279 168.791 167.202 168.847 168.447L169.582 168.45Z" fill="black"/>
<path d="M35.503 167.339C35.5 168.066 35.013 168.686 34.2433 168.683C33.534 168.68 33.035 168.056 33.0378 167.381C33.0409 166.628 33.3725 165.929 34.246 165.933C35.0677 165.936 35.5061 166.587 35.503 167.339ZM32.3785 169.93C32.4692 170.985 33.2022 171.516 34.2315 171.52C35.7191 171.526 36.3641 170.344 36.3729 168.225C36.3825 165.907 35.425 165.289 34.2833 165.284C33.0984 165.279 32.2647 166.089 32.2598 167.274C32.2547 168.485 32.9432 169.327 34.1887 169.332C34.7855 169.334 35.3317 169.008 35.6107 168.49L35.6279 168.507C35.5781 170.09 35.1337 170.875 34.2342 170.872C33.646 170.869 33.1631 170.53 33.1137 169.933L32.3785 169.93Z" fill="black"/>
<path d="M124.328 191.944L123.766 191.942C123.598 192.867 122.836 193.089 121.997 193.085L121.994 193.673L123.586 193.68L123.568 198.074L124.303 198.077L124.328 191.944ZM129.134 191.964L128.572 191.962C128.404 192.887 127.642 193.109 126.803 193.105L126.801 193.693L128.392 193.7L128.374 198.094L129.109 198.097L129.134 191.964Z" fill="black"/>
<path d="M77.133 191.749L76.5708 191.747C76.4026 192.672 75.6406 192.893 74.8016 192.89L74.7991 193.478L76.3906 193.485L76.3723 197.878L77.1075 197.881L77.133 191.749ZM79.2102 194.88C79.2046 196.229 79.3184 197.994 81.2385 198.002C83.1586 198.01 83.2871 196.246 83.2927 194.897C83.2983 193.539 83.1845 191.774 81.2644 191.766C79.3443 191.758 79.2159 193.522 79.2102 194.88ZM79.9887 194.875C79.9925 193.967 80.0076 192.41 81.2617 192.415C82.5159 192.42 82.518 193.977 82.5143 194.885C82.5105 195.802 82.4953 197.359 81.2412 197.354C79.9871 197.348 79.9849 195.792 79.9887 194.875Z" fill="black"/>
</svg>
