<svg width="271" height="271" viewBox="0 0 271 271" fill="none" xmlns="http://www.w3.org/2000/svg">
<path opacity="0.8" fill-rule="evenodd" clip-rule="evenodd" d="M152.618 72.9905C141.576 70.0318 129.95 70.0318 118.907 72.9905C107.865 75.9493 97.7965 81.7625 89.7131 89.8459C81.6297 97.9293 75.8165 107.998 72.8577 119.04C71.3768 124.567 70.6371 130.241 70.6387 135.914H103.11C103.11 135.914 102.999 140.529 104.115 145.066C105.233 149.607 107.534 152.751 107.534 152.751L79.4755 168.651C82.2885 173.485 85.7244 177.957 89.7131 181.945C97.7965 190.029 107.865 195.842 118.907 198.801C124.483 200.295 130.208 201.034 135.931 201.02V135.914L152.352 164.289C152.352 164.289 155.55 162.239 159.374 158.716L164.167 152.307L192.05 168.651C194.938 163.688 197.169 158.345 198.668 152.751C201.627 141.709 201.627 130.082 198.668 119.04C197.169 113.447 194.938 108.103 192.05 103.141L163.637 119.04C163.637 119.04 162.468 116.81 159.213 113.534C156.002 110.302 152.618 107.262 152.618 107.262L168.389 79.5334C163.463 76.682 158.163 74.4763 152.618 72.9905Z" fill="#4396F7"/>
<g opacity="0.5">
<path opacity="0.2" d="M47.5979 47.7327C63.0737 32.2568 82.3506 21.1273 103.491 15.4628C124.631 9.79821 146.89 9.79821 168.031 15.4628C189.171 21.1273 208.448 32.2568 223.924 47.7327C239.4 63.2085 250.529 82.4854 256.194 103.626C261.858 124.766 261.858 147.025 256.194 168.166C250.529 189.306 239.4 208.583 223.924 224.059C208.448 239.535 189.171 250.664 168.031 256.329C146.89 261.993 124.631 261.993 103.491 256.329C82.3506 250.664 63.0737 239.535 47.5979 224.059C32.1221 208.583 20.9925 189.306 15.328 168.166C9.66345 147.025 9.66345 124.766 15.328 103.626C20.9925 82.4854 32.1221 63.2085 47.5979 47.7327Z" fill="#4396F7" fill-opacity="0.6" stroke="#4396F7" stroke-width="2.15759"/>
<path opacity="0.2" d="M68.7716 68.9053C80.5308 57.1461 95.1782 48.6894 111.242 44.3852C127.305 40.0811 144.218 40.0811 160.282 44.3852C176.345 48.6894 190.993 57.1461 202.752 68.9053C214.511 80.6646 222.968 95.312 227.272 111.375C231.576 127.439 231.576 144.352 227.272 160.416C222.968 176.479 214.511 191.126 202.752 202.886C190.993 214.645 176.345 223.102 160.282 227.406C144.218 231.71 127.305 231.71 111.242 227.406C95.1782 223.102 80.5308 214.645 68.7716 202.886C57.0123 191.126 48.5556 176.479 44.2514 160.416C39.9473 144.352 39.9473 127.439 44.2514 111.375C48.5556 95.312 57.0123 80.6646 68.7716 68.9053Z" fill="#4396F7" fill-opacity="0.6" stroke="#4396F7" stroke-width="2.15759"/>
<path opacity="0.2" d="M89.9452 90.0771C97.9879 82.0344 108.006 76.2505 118.992 73.3067C129.979 70.3629 141.546 70.3629 152.533 73.3067C163.519 76.2505 173.537 82.0344 181.58 90.0771C189.623 98.1197 195.406 108.138 198.35 119.124C201.294 130.111 201.294 141.678 198.35 152.665C195.406 163.651 189.623 173.669 181.58 181.712C173.537 189.754 163.519 195.538 152.533 198.482C141.546 201.426 129.979 201.426 118.992 198.482C108.006 195.538 97.9878 189.754 89.9452 181.712C81.9026 173.669 76.1187 163.651 73.1749 152.665C70.2311 141.678 70.2311 130.111 73.1749 119.124C76.1187 108.138 81.9026 98.1197 89.9452 90.0771Z" fill="#4396F7" fill-opacity="0.6" stroke="#4396F7" stroke-width="2.15759"/>
<path opacity="0.5" d="M113.236 113.367C117.19 109.412 122.116 106.569 127.518 105.121C132.919 103.674 138.607 103.674 144.009 105.121C149.411 106.569 154.336 109.412 158.291 113.367C162.245 117.321 165.089 122.247 166.536 127.649C167.984 133.05 167.984 138.738 166.536 144.14C165.089 149.541 162.245 154.467 158.291 158.421C154.336 162.376 149.411 165.22 144.009 166.667C138.607 168.114 132.919 168.114 127.518 166.667C122.116 165.22 117.19 162.376 113.236 158.421C109.282 154.467 106.438 149.541 104.99 144.14C103.543 138.738 103.543 133.05 104.99 127.649C106.438 122.247 109.282 117.321 113.236 113.367Z" fill="#4396F7" fill-opacity="0.6" stroke="#4396F7" stroke-width="2.15759"/>
<path opacity="0.1" d="M68.5173 68.6511C80.3212 56.8472 95.0242 48.3584 111.149 44.0379C127.273 39.7174 144.251 39.7174 160.375 44.0379C176.499 48.3584 191.202 56.8472 203.006 68.6511C214.81 80.4549 223.299 95.158 227.619 111.282C231.94 127.407 231.94 144.384 227.619 160.509C223.299 176.633 214.81 191.336 203.006 203.14C191.202 214.944 176.499 223.433 160.375 227.753C144.251 232.074 127.273 232.074 111.149 227.753C95.0242 223.433 80.3212 214.944 68.5173 203.14C56.7134 191.336 48.2246 176.633 43.9041 160.509C39.5836 144.384 39.5836 127.407 43.9041 111.282C48.2246 95.158 56.7134 80.4549 68.5173 68.6511Z" stroke="#4396F7" stroke-width="1.4384"/>
<path d="M89.4367 89.5685C97.5686 81.4366 107.698 75.5885 118.806 72.612C129.915 69.6356 141.611 69.6356 152.719 72.612C163.827 75.5885 173.957 81.4366 182.089 89.5685C190.22 97.7004 196.069 107.83 199.045 118.938C202.021 130.046 202.021 141.743 199.045 152.851C196.068 163.959 190.22 174.088 182.089 182.22C173.957 190.352 163.827 196.2 152.719 199.177C141.611 202.153 129.915 202.153 118.806 199.177C107.698 196.2 97.5686 190.352 89.4367 182.22C81.3048 174.088 75.4567 163.959 72.4802 152.851C69.5037 141.743 69.5037 130.046 72.4802 118.938C75.4567 107.83 81.3048 97.7004 89.4367 89.5685Z" stroke="#4396F7" stroke-width="0.719198"/>
<path d="M112.6 112.73C116.666 108.664 121.731 105.74 127.285 104.252C132.839 102.764 138.687 102.764 144.241 104.252C149.796 105.74 154.86 108.664 158.926 112.73C162.992 116.796 165.916 121.861 167.404 127.415C168.893 132.969 168.893 138.817 167.404 144.371C165.916 149.925 162.992 154.99 158.926 159.056C154.86 163.122 149.796 166.046 144.241 167.534C138.687 169.022 132.839 169.022 127.285 167.534C121.731 166.046 116.666 163.122 112.6 159.056C108.534 154.99 105.61 149.925 104.122 144.371C102.634 138.817 102.634 132.969 104.122 127.415C105.61 121.861 108.534 116.796 112.6 112.73Z" stroke="#4396F7" stroke-width="0.359599"/>
<path opacity="0.5" d="M135.641 136.262L68.2012 19.4229" stroke="#4396F7" stroke-width="0.719198"/>
<path opacity="0.5" d="M135.615 135.903L135.629 0.998047" stroke="#4396F7" stroke-width="0.719198"/>
<path opacity="0.5" d="M135.621 136.247L203.086 19.4229" stroke="#4396F7" stroke-width="0.719198"/>
<path opacity="0.5" d="M135.62 135.89L252.459 68.4502" stroke="#4396F7" stroke-width="0.719198"/>
<path opacity="0.5" d="M135.981 135.86L270.887 135.874" stroke="#4396F7" stroke-width="0.719198"/>
<path opacity="0.5" d="M135.635 135.867L252.459 203.332" stroke="#4396F7" stroke-width="0.719198"/>
<path opacity="0.5" d="M135.993 135.71L203.434 252.549" stroke="#4396F7" stroke-width="0.719198"/>
<path opacity="0.5" d="M136.024 136.071L136.01 270.977" stroke="#4396F7" stroke-width="0.719198"/>
<path opacity="0.5" d="M136.016 135.724L68.5508 252.549" stroke="#4396F7" stroke-width="0.719198"/>
<path opacity="0.5" d="M136.016 136.082L19.1777 203.522" stroke="#4396F7" stroke-width="0.719198"/>
<path opacity="0.5" d="M135.655 136.112L0.75 136.098" stroke="#4396F7" stroke-width="0.719198"/>
<path opacity="0.5" d="M136.002 136.107L19.1777 68.6416" stroke="#4396F7" stroke-width="0.719198"/>
<path d="M135.187 133.751C135.563 133.651 135.959 133.651 136.336 133.751V133.751C136.712 133.852 137.055 134.05 137.33 134.326V134.326C137.605 134.601 137.803 134.944 137.904 135.32V135.32C138.005 135.696 138.005 136.092 137.904 136.468V136.468C137.803 136.845 137.605 137.188 137.33 137.463V137.463C137.055 137.738 136.712 137.936 136.336 138.037V138.037C135.959 138.138 135.563 138.138 135.187 138.037V138.037C134.811 137.936 134.468 137.738 134.193 137.463V137.463C133.917 137.188 133.719 136.845 133.619 136.468V136.468C133.518 136.092 133.518 135.696 133.619 135.32V135.32C133.719 134.944 133.917 134.601 134.193 134.326V134.326C134.468 134.05 134.811 133.852 135.187 133.751V133.751Z" fill="#0284D2"/>
<circle cx="101.762" cy="16.9823" r="10.9624" fill="white" stroke="#4396F7" stroke-width="1.4384"/>
<circle cx="168.031" cy="16.9823" r="10.9624" fill="white" stroke="#4396F7" stroke-width="1.4384"/>
<circle cx="221.992" cy="45.4599" r="10.9624" fill="white" stroke="#4396F7" stroke-width="1.4384"/>
<circle cx="256.285" cy="103.976" r="10.9624" fill="white" stroke="#4396F7" stroke-width="1.4384"/>
<circle cx="256.285" cy="168.652" r="10.9624" fill="white" stroke="#4396F7" stroke-width="1.4384"/>
<circle cx="224.564" cy="224.922" r="10.9624" fill="white" stroke="#4396F7" stroke-width="1.4384"/>
<circle cx="168.031" cy="259.167" r="10.9624" fill="white" stroke="#4396F7" stroke-width="1.4384"/>
<circle cx="105.519" cy="259.167" r="10.9624" fill="white" stroke="#4396F7" stroke-width="1.4384"/>
<circle cx="46.1581" cy="224.922" r="10.9624" fill="white" stroke="#4396F7" stroke-width="1.4384"/>
<circle cx="13.8905" cy="170.061" r="10.9624" fill="white" stroke="#4396F7" stroke-width="1.4384"/>
<circle cx="15.4374" cy="103.976" r="10.9624" fill="white" stroke="#4396F7" stroke-width="1.4384"/>
<circle cx="45.7773" cy="51.288" r="10.9624" fill="white" stroke="#4396F7" stroke-width="1.4384"/>
<path d="M137.561 150.326H136.813C136.595 151.557 135.582 151.856 134.466 151.856V152.639H136.583V158.484H137.561V150.326Z" fill="black"/>
<path d="M134.949 185.408C134.915 184.43 135.398 183.383 136.537 183.383C137.4 183.383 138.114 183.97 138.114 184.856C138.114 185.984 137.412 186.49 136.031 187.342C134.88 188.055 133.902 188.746 133.741 190.679H139.069V189.816H134.88C135.076 188.803 136.146 188.285 137.17 187.664C138.183 187.031 139.149 186.306 139.149 184.868C139.149 183.349 138.022 182.52 136.595 182.52C134.869 182.52 133.891 183.751 133.971 185.408H134.949Z" fill="black"/>
<path d="M135.973 218.632C136.158 218.609 136.365 218.597 136.56 218.597C137.527 218.597 138.298 219.138 138.298 220.162C138.298 221.152 137.481 221.739 136.526 221.739C135.41 221.739 134.823 221.002 134.788 219.944H133.81C133.776 221.624 134.869 222.602 136.526 222.602C138.056 222.602 139.333 221.75 139.333 220.116C139.333 219.138 138.85 218.356 137.861 218.137V218.114C138.482 217.826 138.988 217.205 138.988 216.492C138.988 214.984 137.918 214.305 136.503 214.305C134.869 214.305 134.04 215.387 133.983 216.94H134.961C134.972 215.985 135.433 215.168 136.503 215.168C137.331 215.168 137.953 215.629 137.953 216.48C137.953 217.366 137.228 217.815 136.399 217.815C136.261 217.815 136.123 217.815 135.973 217.803V218.632Z" fill="black"/>
<path d="M138.286 244.31H137.504L133.787 249.615V250.559H137.366V252.469H138.286V250.559H139.391V249.696H138.286V244.31ZM134.627 249.696L137.343 245.703H137.366V249.696H134.627Z" fill="black"/>
<path d="M166.558 15.4797C166.524 14.5016 167.007 13.4545 168.146 13.4545C169.009 13.4545 169.723 14.0413 169.723 14.9274C169.723 16.0551 169.021 16.5614 167.64 17.4129C166.489 18.1264 165.511 18.8168 165.35 20.75H170.678V19.887H166.489C166.685 18.8743 167.755 18.3565 168.779 17.7351C169.792 17.1022 170.758 16.3773 170.758 14.9389C170.758 13.4199 169.631 12.5914 168.204 12.5914C166.478 12.5914 165.5 13.8227 165.58 15.4797H166.558Z" fill="black"/>
<path d="M102.823 12.5914H102.075C101.856 13.8227 100.844 14.1219 99.7273 14.1219V14.9044H101.845V20.75H102.823V12.5914Z" fill="black"/>
<path d="M221.303 45.7746C221.487 45.7515 221.694 45.74 221.89 45.74C222.857 45.74 223.628 46.2809 223.628 47.305C223.628 48.2946 222.811 48.8815 221.855 48.8815C220.739 48.8815 220.152 48.145 220.118 47.0864H219.14C219.105 48.7664 220.198 49.7445 221.855 49.7445C223.386 49.7445 224.663 48.893 224.663 47.259C224.663 46.2809 224.18 45.4984 223.19 45.2798V45.2567C223.812 44.9691 224.318 44.3477 224.318 43.6342C224.318 42.1268 223.248 41.4479 221.832 41.4479C220.198 41.4479 219.37 42.5295 219.312 44.083H220.291C220.302 43.1279 220.762 42.3109 221.832 42.3109C222.661 42.3109 223.282 42.7712 223.282 43.6227C223.282 44.5088 222.557 44.9576 221.729 44.9576C221.591 44.9576 221.453 44.9576 221.303 44.946V45.7746Z" fill="black"/>
<path d="M43.1296 46.2096H42.3816C42.163 47.4409 41.1504 47.74 40.0342 47.74V48.5225H42.1515V54.3682H43.1296V46.2096ZM46.9116 49.0979C46.8771 48.1198 47.3604 47.0726 48.4996 47.0726C49.3626 47.0726 50.0761 47.6595 50.0761 48.5455C50.0761 49.6732 49.3741 50.1796 47.9933 51.0311C46.8426 51.7445 45.8645 52.435 45.7034 54.3682H51.0312V53.5051H46.8426C47.0382 52.4925 48.1084 51.9747 49.1325 51.3533C50.1451 50.7204 51.1117 49.9954 51.1117 48.557C51.1117 47.0381 49.984 46.2096 48.5571 46.2096C46.8311 46.2096 45.8529 47.4409 45.9335 49.0979H46.9116Z" fill="black"/>
<path d="M257.911 99.5201H257.129L253.412 104.825V105.769H256.99V107.679H257.911V105.769H259.016V104.905H257.911V99.5201ZM254.252 104.905L256.967 100.912H256.99V104.905H254.252Z" fill="black"/>
<path d="M258.498 163.87H254.47L253.711 168.105L254.551 168.151C254.931 167.691 255.448 167.38 256.07 167.38C257.163 167.38 257.911 168.151 257.911 169.232C257.911 170.533 257.117 171.166 256.185 171.166C255.207 171.166 254.528 170.533 254.47 169.693H253.492C253.527 171.166 254.677 172.029 256.093 172.029C257.992 172.029 258.947 170.694 258.947 169.313C258.947 167.449 257.761 166.517 256.312 166.517C255.759 166.517 255.149 166.701 254.793 167.104L254.77 167.081L255.207 164.733H258.498V163.87Z" fill="black"/>
<path d="M11.5925 164.463H10.8445C10.6259 165.694 9.61327 165.993 8.49708 165.993V166.775H10.6144V172.621H11.5925V164.463ZM14.3734 168.617C14.3734 170.412 14.5345 172.759 17.0891 172.759C19.6437 172.759 19.8048 170.412 19.8048 168.617C19.8048 166.81 19.6437 164.463 17.0891 164.463C14.5345 164.463 14.3734 166.81 14.3734 168.617ZM15.409 168.605C15.409 167.397 15.4205 165.326 17.0891 165.326C18.7576 165.326 18.7691 167.397 18.7691 168.605C18.7691 169.825 18.7576 171.896 17.0891 171.896C15.4205 171.896 15.409 169.825 15.409 168.605Z" fill="black"/>
<path d="M13.0515 99.0563H12.3035C12.0849 100.288 11.0723 100.587 9.95606 100.587V101.369H12.0734V107.215H13.0515V99.0563ZM19.4456 99.0563H18.6976C18.479 100.288 17.4664 100.587 16.3502 100.587V101.369H18.4675V107.215H19.4456V99.0563Z" fill="black"/>
<path d="M224.658 223.769C225.774 223.769 226.303 224.609 226.303 225.622C226.303 226.588 225.717 227.428 224.658 227.428C223.588 227.428 222.966 226.623 222.966 225.61C222.966 224.586 223.565 223.769 224.658 223.769ZM227.109 222.078C226.994 220.754 226.154 219.995 224.807 219.995C222.483 219.995 221.804 222.124 221.804 224.367C221.804 226.082 222.195 228.291 224.612 228.291C226.672 228.291 227.339 226.738 227.339 225.553C227.339 224.045 226.407 222.906 224.842 222.906C223.956 222.906 223.266 223.228 222.805 223.976L222.782 223.953C222.828 222.699 223.093 220.858 224.761 220.858C225.532 220.858 226.039 221.341 226.131 222.078H227.109Z" fill="black"/>
<path d="M47.667 222.722C47.667 223.689 47.0226 224.517 45.9985 224.517C45.0549 224.517 44.3875 223.689 44.3875 222.791C44.3875 221.79 44.8248 220.858 45.987 220.858C47.0802 220.858 47.667 221.721 47.667 222.722ZM43.5244 226.186C43.651 227.589 44.6291 228.291 45.9985 228.291C47.9777 228.291 48.8292 226.715 48.8292 223.896C48.8292 220.812 47.552 219.995 46.033 219.995C44.4565 219.995 43.3518 221.076 43.3518 222.653C43.3518 224.264 44.2724 225.38 45.9294 225.38C46.7234 225.38 47.4484 224.943 47.8166 224.252L47.8396 224.275C47.7821 226.381 47.1952 227.428 45.9985 227.428C45.216 227.428 44.5716 226.98 44.5026 226.186H43.5244Z" fill="black"/>
<path d="M170.931 254.528H165.649V255.449H169.93C168.215 257.267 166.892 259.787 166.708 262.549H167.801C167.951 259.994 169.285 257.002 170.931 255.368V254.528Z" fill="black"/>
<path d="M103.779 260.247C103.779 259.304 104.538 258.682 105.505 258.682C106.425 258.682 107.185 259.35 107.185 260.236C107.185 261.145 106.494 261.824 105.516 261.824C104.504 261.824 103.779 261.226 103.779 260.247ZM103.031 256.473C103.031 257.21 103.491 257.888 104.17 258.165C103.261 258.487 102.743 259.235 102.743 260.201C102.743 261.87 103.951 262.687 105.516 262.687C107.024 262.687 108.221 261.778 108.221 260.201C108.221 259.189 107.749 258.475 106.771 258.165C107.438 257.865 107.898 257.198 107.898 256.473C107.898 255.437 107.208 254.39 105.424 254.39C104.17 254.39 103.031 255.127 103.031 256.473ZM104.066 256.508C104.066 255.691 104.711 255.253 105.493 255.253C106.287 255.253 106.863 255.691 106.863 256.508C106.863 257.336 106.287 257.819 105.516 257.819C104.711 257.819 104.066 257.405 104.066 256.508Z" fill="black"/>
</g>
</svg>
