<svg width="272" height="272" viewBox="0 0 272 272" fill="none" xmlns="http://www.w3.org/2000/svg">
<path opacity="0.8" fill-rule="evenodd" clip-rule="evenodd" d="M160.816 43.343C144.569 38.9898 127.463 38.9898 111.217 43.343C94.9708 47.6962 80.1566 56.2492 68.2634 68.1423C56.3703 80.0355 47.8173 94.8497 43.4641 111.096C41.2852 119.228 40.1969 127.575 40.1992 135.922H70.3979C70.3979 135.922 70.766 146.321 72.409 152.997C74.0532 159.677 79.3201 169.128 79.3201 169.128L53.2009 184.088C57.3396 191.2 62.3949 197.78 68.2634 203.648C80.1566 215.542 94.9708 224.094 111.217 228.448C119.421 230.646 127.844 231.734 136.264 231.712V169.128C136.264 169.128 141.542 168.545 144.787 167.593C148.111 166.619 152.975 164.182 152.975 164.182L168.947 192.442C168.947 192.442 176.973 187.222 182.599 182.038L193.029 169.128L218.832 184.088C223.081 176.787 226.364 168.924 228.569 160.695C232.922 144.448 232.922 127.342 228.569 111.096C226.364 102.866 223.081 95.0041 218.832 87.7028L193.029 102.995C193.029 102.995 187.387 93.8925 182.599 89.0735C177.874 84.3181 168.947 78.6676 168.947 78.6676L184.019 52.9696C176.772 48.7742 168.974 45.5291 160.816 43.343Z" fill="#4396F7"/>
<g opacity="0.5">
<path opacity="0.2" d="M103.489 15.4628C124.629 9.79821 146.888 9.79821 168.029 15.4628C189.169 21.1273 208.446 32.2568 223.922 47.7327C239.398 63.2085 250.527 82.4854 256.192 103.626C261.856 124.766 261.856 147.025 256.192 168.166C250.527 189.306 239.398 208.583 223.922 224.059C208.446 239.535 189.169 250.664 168.029 256.329C146.888 261.993 124.629 261.993 103.489 256.329C82.3487 250.664 63.0718 239.535 47.596 224.059C32.1201 208.583 20.9906 189.306 15.326 168.166C9.66149 147.025 9.6615 124.766 15.326 103.626C20.9906 82.4854 32.1201 63.2085 47.5959 47.7327C63.0718 32.2568 82.3487 21.1273 103.489 15.4628Z" fill="#4396F7" fill-opacity="0.6" stroke="#4396F7" stroke-width="2.15759"/>
<path opacity="0.2" d="M111.24 44.3852C127.303 40.0811 144.216 40.0811 160.28 44.3852C176.343 48.6894 190.991 57.1461 202.75 68.9053C214.509 80.6646 222.966 95.312 227.27 111.375C231.574 127.439 231.574 144.352 227.27 160.416C222.966 176.479 214.509 191.126 202.75 202.886C190.991 214.645 176.343 223.102 160.28 227.406C144.216 231.71 127.303 231.71 111.24 227.406C95.1763 223.102 80.5288 214.645 68.7696 202.886C57.0104 191.126 48.5537 176.479 44.2495 160.416C39.9453 144.352 39.9453 127.439 44.2495 111.375C48.5537 95.312 57.0104 80.6646 68.7696 68.9053C80.5288 57.1461 95.1763 48.6894 111.24 44.3852Z" fill="#4396F7" fill-opacity="0.6" stroke="#4396F7" stroke-width="2.15759"/>
<path opacity="0.2" d="M118.99 73.3067C129.977 70.3629 141.545 70.3629 152.531 73.3067C163.517 76.2505 173.535 82.0344 181.578 90.0771C189.621 98.1197 195.405 108.138 198.348 119.124C201.292 130.111 201.292 141.678 198.348 152.665C195.405 163.651 189.621 173.669 181.578 181.712C173.535 189.754 163.517 195.538 152.531 198.482C141.545 201.426 129.977 201.426 118.99 198.482C108.004 195.538 97.9859 189.754 89.9433 181.712C81.9006 173.669 76.1168 163.651 73.1729 152.665C70.2291 141.678 70.2291 130.111 73.1729 119.124C76.1168 108.138 81.9006 98.1197 89.9433 90.0771C97.9859 82.0344 108.004 76.2505 118.99 73.3067Z" fill="#4396F7" fill-opacity="0.6" stroke="#4396F7" stroke-width="2.15759"/>
<path opacity="0.5" d="M127.516 105.121C132.917 103.674 138.605 103.674 144.007 105.121C149.409 106.569 154.334 109.412 158.289 113.367C162.243 117.321 165.087 122.247 166.534 127.649C167.982 133.05 167.982 138.738 166.534 144.14C165.087 149.541 162.243 154.467 158.289 158.421C154.334 162.376 149.409 165.22 144.007 166.667C138.605 168.114 132.917 168.114 127.516 166.667C122.114 165.22 117.188 162.376 113.234 158.421C109.28 154.467 106.436 149.541 104.988 144.14C103.541 138.738 103.541 133.05 104.988 127.649C106.436 122.247 109.28 117.321 113.234 113.367C117.188 109.412 122.114 106.569 127.516 105.121Z" fill="#4396F7" fill-opacity="0.6" stroke="#4396F7" stroke-width="2.15759"/>
<path opacity="0.1" d="M111.147 44.0379C127.271 39.7174 144.249 39.7174 160.373 44.0379C176.497 48.3584 191.2 56.8472 203.004 68.6511C214.808 80.4549 223.297 95.158 227.617 111.282C231.938 127.407 231.938 144.384 227.617 160.509C223.297 176.633 214.808 191.336 203.004 203.14C191.2 214.944 176.497 223.433 160.373 227.753C144.249 232.074 127.271 232.074 111.147 227.753C95.0222 223.433 80.3192 214.944 68.5153 203.14C56.7115 191.336 48.2227 176.633 43.9021 160.509C39.5816 144.384 39.5816 127.407 43.9021 111.282C48.2227 95.158 56.7115 80.4549 68.5153 68.6511C80.3192 56.8472 95.0222 48.3584 111.147 44.0379Z" stroke="#4396F7" stroke-width="1.4384"/>
<path d="M118.804 72.612C129.913 69.6356 141.609 69.6356 152.717 72.612C163.825 75.5885 173.955 81.4366 182.087 89.5685C190.218 97.7004 196.067 107.83 199.043 118.938C202.02 130.046 202.02 141.743 199.043 152.851C196.067 163.959 190.218 174.088 182.087 182.22C173.955 190.352 163.825 196.2 152.717 199.177C141.609 202.153 129.913 202.153 118.804 199.177C107.696 196.2 97.5666 190.352 89.4347 182.22C81.3028 174.088 75.4547 163.959 72.4783 152.851C69.5018 141.743 69.5018 130.046 72.4783 118.938C75.4547 107.83 81.3028 97.7004 89.4347 89.5685C97.5666 81.4366 107.696 75.5885 118.804 72.612Z" stroke="#4396F7" stroke-width="0.719198"/>
<path d="M127.283 104.252C132.837 102.764 138.685 102.764 144.239 104.252C149.794 105.74 154.858 108.664 158.924 112.73C162.99 116.796 165.914 121.861 167.402 127.415C168.891 132.969 168.891 138.817 167.402 144.371C165.914 149.925 162.99 154.99 158.924 159.056C154.858 163.122 149.794 166.046 144.239 167.534C138.685 169.022 132.837 169.022 127.283 167.534C121.729 166.046 116.664 163.122 112.598 159.056C108.532 154.99 105.608 149.925 104.12 144.371C102.632 138.817 102.632 132.969 104.12 127.415C105.608 121.861 108.532 116.796 112.598 112.73C116.664 108.664 121.729 105.74 127.283 104.252Z" stroke="#4396F7" stroke-width="0.359599"/>
<path opacity="0.5" d="M135.64 136.262L68.1992 19.4229" stroke="#4396F7" stroke-width="0.719198"/>
<path opacity="0.5" d="M135.613 135.903L135.627 0.998047" stroke="#4396F7" stroke-width="0.719198"/>
<path opacity="0.5" d="M135.619 136.247L203.084 19.4229" stroke="#4396F7" stroke-width="0.719198"/>
<path opacity="0.5" d="M135.618 135.89L252.457 68.4502" stroke="#4396F7" stroke-width="0.719198"/>
<path opacity="0.5" d="M135.979 135.86L270.885 135.874" stroke="#4396F7" stroke-width="0.719198"/>
<path opacity="0.5" d="M135.633 135.867L252.457 203.332" stroke="#4396F7" stroke-width="0.719198"/>
<path opacity="0.5" d="M135.991 135.71L203.432 252.549" stroke="#4396F7" stroke-width="0.719198"/>
<path opacity="0.5" d="M136.022 136.071L136.008 270.977" stroke="#4396F7" stroke-width="0.719198"/>
<path opacity="0.5" d="M136.014 135.724L68.5488 252.549" stroke="#4396F7" stroke-width="0.719198"/>
<path opacity="0.5" d="M136.014 136.082L19.1758 203.522" stroke="#4396F7" stroke-width="0.719198"/>
<path opacity="0.5" d="M135.653 136.112L0.748047 136.098" stroke="#4396F7" stroke-width="0.719198"/>
<path opacity="0.5" d="M136 136.107L19.1758 68.6416" stroke="#4396F7" stroke-width="0.719198"/>
<path d="M135.185 133.751C135.561 133.651 135.958 133.651 136.334 133.751C136.71 133.852 137.053 134.05 137.328 134.326C137.603 134.601 137.801 134.944 137.902 135.32C138.003 135.696 138.003 136.092 137.902 136.468C137.801 136.845 137.603 137.188 137.328 137.463C137.053 137.738 136.71 137.936 136.334 138.037C135.958 138.138 135.561 138.138 135.185 138.037C134.809 137.936 134.466 137.738 134.191 137.463C133.916 137.188 133.718 136.845 133.617 136.468C133.516 136.092 133.516 135.696 133.617 135.32C133.718 134.944 133.916 134.601 134.191 134.326C134.466 134.05 134.809 133.852 135.185 133.751Z" fill="#0284D2"/>
<circle cx="101.76" cy="16.9823" r="10.9624" fill="white" stroke="#4396F7" stroke-width="1.4384"/>
<circle cx="168.029" cy="16.9823" r="10.9624" fill="white" stroke="#4396F7" stroke-width="1.4384"/>
<circle cx="221.99" cy="45.4599" r="10.9624" fill="white" stroke="#4396F7" stroke-width="1.4384"/>
<circle cx="256.283" cy="103.976" r="10.9624" fill="white" stroke="#4396F7" stroke-width="1.4384"/>
<circle cx="256.283" cy="168.652" r="10.9624" fill="white" stroke="#4396F7" stroke-width="1.4384"/>
<circle cx="224.562" cy="224.922" r="10.9624" fill="white" stroke="#4396F7" stroke-width="1.4384"/>
<circle cx="168.029" cy="259.167" r="10.9624" fill="white" stroke="#4396F7" stroke-width="1.4384"/>
<circle cx="105.517" cy="259.167" r="10.9624" fill="white" stroke="#4396F7" stroke-width="1.4384"/>
<circle cx="46.1562" cy="224.922" r="10.9624" fill="white" stroke="#4396F7" stroke-width="1.4384"/>
<circle cx="13.8886" cy="170.061" r="10.9624" fill="white" stroke="#4396F7" stroke-width="1.4384"/>
<circle cx="15.4355" cy="103.976" r="10.9624" fill="white" stroke="#4396F7" stroke-width="1.4384"/>
<circle cx="45.7753" cy="51.288" r="10.9624" fill="white" stroke="#4396F7" stroke-width="1.4384"/>
<path d="M137.559 150.326H136.811C136.593 151.557 135.58 151.856 134.464 151.856V152.639H136.581V158.484H137.559V150.326Z" fill="black"/>
<path d="M134.947 185.408C134.913 184.43 135.396 183.383 136.535 183.383C137.398 183.383 138.112 183.97 138.112 184.856C138.112 185.984 137.41 186.49 136.029 187.342C134.878 188.055 133.9 188.746 133.739 190.679H139.067V189.816H134.878C135.074 188.803 136.144 188.285 137.168 187.664C138.181 187.031 139.147 186.306 139.147 184.868C139.147 183.349 138.02 182.52 136.593 182.52C134.867 182.52 133.889 183.751 133.969 185.408H134.947Z" fill="black"/>
<path d="M135.971 218.632C136.156 218.609 136.363 218.597 136.558 218.597C137.525 218.597 138.296 219.138 138.296 220.162C138.296 221.152 137.479 221.739 136.524 221.739C135.408 221.739 134.821 221.002 134.786 219.944H133.808C133.774 221.624 134.867 222.602 136.524 222.602C138.054 222.602 139.332 221.75 139.332 220.116C139.332 219.138 138.848 218.356 137.859 218.137V218.114C138.48 217.826 138.986 217.205 138.986 216.492C138.986 214.984 137.916 214.305 136.501 214.305C134.867 214.305 134.038 215.387 133.981 216.94H134.959C134.97 215.985 135.431 215.168 136.501 215.168C137.329 215.168 137.951 215.629 137.951 216.48C137.951 217.366 137.226 217.815 136.397 217.815C136.259 217.815 136.121 217.815 135.971 217.803V218.632Z" fill="black"/>
<path d="M138.284 244.31H137.502L133.785 249.615V250.559H137.364V252.469H138.284V250.559H139.389V249.696H138.284V244.31ZM134.625 249.696L137.341 245.703H137.364V249.696H134.625Z" fill="black"/>
<path d="M166.556 15.4797C166.522 14.5016 167.005 13.4545 168.144 13.4545C169.007 13.4545 169.721 14.0413 169.721 14.9274C169.721 16.0551 169.019 16.5614 167.638 17.4129C166.487 18.1264 165.509 18.8168 165.348 20.75H170.676V19.887H166.487C166.683 18.8743 167.753 18.3565 168.777 17.7351C169.79 17.1022 170.756 16.3773 170.756 14.9389C170.756 13.4199 169.629 12.5914 168.202 12.5914C166.476 12.5914 165.498 13.8227 165.578 15.4797H166.556Z" fill="black"/>
<path d="M102.821 12.5914H102.073C101.854 13.8227 100.842 14.1219 99.7254 14.1219V14.9044H101.843V20.75H102.821V12.5914Z" fill="black"/>
<path d="M221.301 45.7746C221.485 45.7515 221.692 45.74 221.888 45.74C222.855 45.74 223.626 46.2809 223.626 47.305C223.626 48.2946 222.809 48.8815 221.854 48.8815C220.737 48.8815 220.15 48.145 220.116 47.0864H219.138C219.103 48.7664 220.196 49.7445 221.854 49.7445C223.384 49.7445 224.661 48.893 224.661 47.259C224.661 46.2809 224.178 45.4984 223.188 45.2798V45.2567C223.81 44.9691 224.316 44.3477 224.316 43.6342C224.316 42.1268 223.246 41.4479 221.831 41.4479C220.196 41.4479 219.368 42.5295 219.31 44.083H220.289C220.3 43.1279 220.76 42.3109 221.831 42.3109C222.659 42.3109 223.28 42.7712 223.28 43.6227C223.28 44.5088 222.555 44.9576 221.727 44.9576C221.589 44.9576 221.451 44.9576 221.301 44.946V45.7746Z" fill="black"/>
<path d="M43.1277 46.2096H42.3797C42.1611 47.4409 41.1484 47.74 40.0322 47.74V48.5225H42.1496V54.3682H43.1277V46.2096ZM46.9097 49.0979C46.8751 48.1198 47.3584 47.0726 48.4976 47.0726C49.3607 47.0726 50.0741 47.6595 50.0741 48.5455C50.0741 49.6732 49.3722 50.1796 47.9913 51.0311C46.8406 51.7445 45.8625 52.435 45.7014 54.3682H51.0292V53.5051H46.8406C47.0362 52.4925 48.1064 51.9747 49.1305 51.3533C50.1432 50.7204 51.1098 49.9954 51.1098 48.557C51.1098 47.0381 49.9821 46.2096 48.5552 46.2096C46.8291 46.2096 45.851 47.4409 45.9315 49.0979H46.9097Z" fill="black"/>
<path d="M257.909 99.5201H257.127L253.41 104.825V105.769H256.988V107.679H257.909V105.769H259.014V104.905H257.909V99.5201ZM254.25 104.905L256.965 100.912H256.988V104.905H254.25Z" fill="black"/>
<path d="M258.496 163.87H254.468L253.709 168.105L254.549 168.151C254.929 167.691 255.447 167.38 256.068 167.38C257.161 167.38 257.909 168.151 257.909 169.232C257.909 170.533 257.115 171.166 256.183 171.166C255.205 171.166 254.526 170.533 254.468 169.693H253.49C253.525 171.166 254.676 172.029 256.091 172.029C257.99 172.029 258.945 170.694 258.945 169.313C258.945 167.449 257.759 166.517 256.31 166.517C255.757 166.517 255.147 166.701 254.791 167.104L254.768 167.081L255.205 164.733H258.496V163.87Z" fill="black"/>
<path d="M11.5906 164.463H10.8426C10.624 165.694 9.61132 165.993 8.49513 165.993V166.775H10.6124V172.621H11.5906V164.463ZM14.3714 168.617C14.3714 170.412 14.5325 172.759 17.0871 172.759C19.6417 172.759 19.8028 170.412 19.8028 168.617C19.8028 166.81 19.6417 164.463 17.0871 164.463C14.5325 164.463 14.3714 166.81 14.3714 168.617ZM15.4071 168.605C15.4071 167.397 15.4186 165.326 17.0871 165.326C18.7556 165.326 18.7672 167.397 18.7672 168.605C18.7672 169.825 18.7556 171.896 17.0871 171.896C15.4186 171.896 15.4071 169.825 15.4071 168.605Z" fill="black"/>
<path d="M13.0495 99.0563H12.3016C12.0829 100.288 11.0703 100.587 9.95411 100.587V101.369H12.0714V107.215H13.0495V99.0563ZM19.4437 99.0563H18.6957C18.4771 100.288 17.4644 100.587 16.3482 100.587V101.369H18.4655V107.215H19.4437V99.0563Z" fill="black"/>
<path d="M224.656 223.769C225.772 223.769 226.301 224.609 226.301 225.622C226.301 226.588 225.715 227.428 224.656 227.428C223.586 227.428 222.964 226.623 222.964 225.61C222.964 224.586 223.563 223.769 224.656 223.769ZM227.107 222.078C226.992 220.754 226.152 219.995 224.806 219.995C222.481 219.995 221.802 222.124 221.802 224.367C221.802 226.082 222.193 228.291 224.61 228.291C226.67 228.291 227.337 226.738 227.337 225.553C227.337 224.045 226.405 222.906 224.84 222.906C223.954 222.906 223.264 223.228 222.803 223.976L222.78 223.953C222.826 222.699 223.091 220.858 224.76 220.858C225.53 220.858 226.037 221.341 226.129 222.078H227.107Z" fill="black"/>
<path d="M47.6651 222.722C47.6651 223.689 47.0207 224.517 45.9965 224.517C45.0529 224.517 44.3855 223.689 44.3855 222.791C44.3855 221.79 44.8228 220.858 45.985 220.858C47.0782 220.858 47.6651 221.721 47.6651 222.722ZM43.5225 226.186C43.6491 227.589 44.6272 228.291 45.9965 228.291C47.9758 228.291 48.8273 226.715 48.8273 223.896C48.8273 220.812 47.55 219.995 46.0311 219.995C44.4546 219.995 43.3499 221.076 43.3499 222.653C43.3499 224.264 44.2705 225.38 45.9275 225.38C46.7215 225.38 47.4464 224.943 47.8147 224.252L47.8377 224.275C47.7801 226.381 47.1933 227.428 45.9965 227.428C45.214 227.428 44.5696 226.98 44.5006 226.186H43.5225Z" fill="black"/>
<path d="M170.929 254.528H165.647V255.449H169.928C168.213 257.267 166.89 259.787 166.706 262.549H167.799C167.949 259.994 169.284 257.002 170.929 255.368V254.528Z" fill="black"/>
<path d="M103.777 260.247C103.777 259.304 104.536 258.682 105.503 258.682C106.423 258.682 107.183 259.35 107.183 260.236C107.183 261.145 106.493 261.824 105.514 261.824C104.502 261.824 103.777 261.226 103.777 260.247ZM103.029 256.473C103.029 257.21 103.489 257.888 104.168 258.165C103.259 258.487 102.741 259.235 102.741 260.201C102.741 261.87 103.949 262.687 105.514 262.687C107.022 262.687 108.219 261.778 108.219 260.201C108.219 259.189 107.747 258.475 106.769 258.165C107.436 257.865 107.896 257.198 107.896 256.473C107.896 255.437 107.206 254.39 105.422 254.39C104.168 254.39 103.029 255.127 103.029 256.473ZM104.065 256.508C104.065 255.691 104.709 255.253 105.491 255.253C106.285 255.253 106.861 255.691 106.861 256.508C106.861 257.336 106.285 257.819 105.514 257.819C104.709 257.819 104.065 257.405 104.065 256.508Z" fill="black"/>
</g>
</svg>
