<svg width="272" height="272" viewBox="0 0 272 272" fill="none" xmlns="http://www.w3.org/2000/svg">
<path opacity="0.8" fill-rule="evenodd" clip-rule="evenodd" d="M152.868 72.9925C141.826 70.0338 130.2 70.0338 119.157 72.9925C108.115 75.9512 98.0465 81.7644 89.9631 89.8479C81.8797 97.9313 76.0665 108 73.1077 119.042C71.6268 124.569 70.8871 130.243 70.8887 135.916H103.36C103.36 135.916 103.249 140.531 104.365 145.068C105.483 149.609 107.784 152.753 107.784 152.753L79.7255 168.653C82.5385 173.487 85.9744 177.959 89.9631 181.947C98.0465 190.031 108.115 195.844 119.157 198.803C124.733 200.297 130.458 201.036 136.181 201.022V135.916L152.602 164.291C152.602 164.291 155.8 162.241 159.624 158.718L164.417 152.309L192.3 168.653C195.188 163.69 197.419 158.346 198.918 152.753C201.877 141.711 201.877 130.084 198.918 119.042C197.419 113.449 195.188 108.105 192.3 103.143L163.887 119.042C163.887 119.042 162.718 116.812 159.463 113.536C156.252 110.304 152.868 107.264 152.868 107.264L168.639 79.5354C163.713 76.6839 158.413 74.4783 152.868 72.9925Z" fill="#4396F7"/>
<path opacity="0.2" d="M103.741 15.4646C124.881 9.80004 147.14 9.80004 168.281 15.4646C189.421 21.1291 208.698 32.2587 224.174 47.7345C239.65 63.2103 250.779 82.4872 256.444 103.628C262.108 124.768 262.108 147.027 256.444 168.167C250.779 189.308 239.65 208.585 224.174 224.061C208.698 239.536 189.421 250.666 168.281 256.33C147.14 261.995 124.881 261.995 103.741 256.33C82.6006 250.666 63.3237 239.536 47.8479 224.061C32.3721 208.585 21.2425 189.308 15.578 168.167C9.91345 147.027 9.91345 124.768 15.578 103.628C21.2425 82.4872 32.3721 63.2103 47.8479 47.7345C63.3237 32.2587 82.6006 21.1291 103.741 15.4646Z" fill="#4396F7" fill-opacity="0.6" stroke="#4396F7" stroke-width="2.15759"/>
<path opacity="0.2" d="M111.491 43.7923C127.554 39.4882 144.467 39.4882 160.531 43.7923C176.594 48.0965 191.242 56.5532 203.001 68.3125C214.76 80.0717 223.217 94.7191 227.521 110.783C231.825 126.846 231.825 143.759 227.521 159.823C223.217 175.886 214.76 190.534 203.001 202.293C191.242 214.052 176.594 222.509 160.531 226.813C144.467 231.117 127.554 231.117 111.491 226.813C95.4272 222.509 80.7798 214.052 69.0206 202.293C57.2613 190.534 48.8047 175.886 44.5005 159.823C40.1963 143.759 40.1963 126.846 44.5005 110.783C48.8047 94.7191 57.2613 80.0717 69.0206 68.3125C80.7798 56.5532 95.4272 48.0965 111.491 43.7923Z" fill="#4396F7" fill-opacity="0.6" stroke="#4396F7" stroke-width="2.15759"/>
<path opacity="0.2" d="M120.468 164.353L120.468 164.353L124.053 158.183C128.117 151.189 120.281 143.337 113.279 147.386L110.625 148.921C109.211 149.739 107.4 149.198 106.665 147.739C106.604 147.619 106.552 147.494 106.509 147.366L105.974 145.772C105.417 144.114 105.027 142.405 104.809 140.67L104.656 139.462C104.48 136.631 102.132 134.421 99.2906 134.421H88.4987C78.8743 134.421 71.8754 125.283 74.3836 115.991L76.5959 107.795C77.5655 104.203 79.4669 100.931 82.1076 98.3095L90.3611 90.1167C98.3499 82.1866 108.354 76.4697 119.234 73.5756C130.172 70.6664 141.828 70.6664 152.766 73.5756C163.645 76.4693 173.704 82.2397 181.693 90.1707C189.67 98.0887 195.467 108.026 198.395 118.875C201.334 129.763 201.334 141.237 198.395 152.125C195.467 162.974 189.67 172.911 181.693 180.829C173.703 188.761 163.718 194.511 152.839 197.405L141.461 200.431C137.882 201.383 134.118 201.383 130.539 200.431C116.997 196.829 110.591 181.333 117.637 169.22L120.468 164.353Z" fill="#4396F7" fill-opacity="0.6" stroke="#4396F7" stroke-width="2.15759"/>
<path opacity="0.5" d="M127.767 105.123C133.168 103.676 138.856 103.676 144.258 105.123C149.66 106.571 154.585 109.415 158.54 113.369C162.494 117.323 165.338 122.249 166.785 127.651C168.233 133.053 168.233 138.74 166.785 144.142C165.338 149.544 162.494 154.469 158.54 158.424C154.585 162.378 149.66 165.222 144.258 166.669C138.856 168.117 133.168 168.117 127.767 166.669C122.365 165.222 117.439 162.378 113.485 158.424C109.531 154.469 106.687 149.544 105.239 144.142C103.792 138.74 103.792 133.053 105.239 127.651C106.687 122.249 109.531 117.323 113.485 113.369C117.439 109.415 122.365 106.571 127.767 105.123Z" fill="#4396F7" fill-opacity="0.6" stroke="#4396F7" stroke-width="2.15759"/>
<path opacity="0.1" d="M111.398 44.0398C127.522 39.7193 144.5 39.7193 160.624 44.0398C176.748 48.3604 191.451 56.8492 203.255 68.653C215.059 80.4569 223.548 95.1599 227.868 111.284C232.189 127.409 232.189 144.386 227.868 160.511C223.548 176.635 215.059 191.338 203.255 203.142C191.451 214.946 176.748 223.435 160.624 227.755C144.5 232.076 127.522 232.076 111.398 227.755C95.2732 223.435 80.5702 214.946 68.7663 203.142C56.9624 191.338 48.4736 176.635 44.1531 160.511C39.8326 144.386 39.8326 127.409 44.1531 111.284C48.4736 95.1599 56.9624 80.4569 68.7663 68.653C80.5702 56.8492 95.2732 48.3604 111.398 44.0398Z" stroke="#4396F7" stroke-width="1.4384"/>
<path d="M119.056 72.614C130.165 69.6375 141.861 69.6375 152.969 72.614C164.077 75.5905 174.207 81.4386 182.339 89.5705C190.47 97.7024 196.318 107.832 199.295 118.94C202.271 130.048 202.271 141.744 199.295 152.853C196.318 163.961 190.47 174.09 182.339 182.222C174.207 190.354 164.077 196.202 152.969 199.179C141.861 202.155 130.165 202.155 119.056 199.179C107.948 196.202 97.8186 190.354 89.6867 182.222C81.5548 174.09 75.7067 163.961 72.7302 152.853C69.7537 141.744 69.7537 130.048 72.7302 118.94C75.7067 107.832 81.5548 97.7024 89.6867 89.5705C97.8186 81.4386 107.948 75.5905 119.056 72.614Z" stroke="#4396F7" stroke-width="0.719198"/>
<path d="M127.534 104.254C133.088 102.766 138.936 102.766 144.49 104.254C150.045 105.742 155.109 108.666 159.175 112.732C163.241 116.798 166.165 121.863 167.653 127.417C169.142 132.971 169.142 138.819 167.653 144.373C166.165 149.928 163.241 154.992 159.175 159.058C155.109 163.124 150.045 166.048 144.49 167.536C138.936 169.025 133.088 169.025 127.534 167.536C121.98 166.048 116.915 163.124 112.849 159.058C108.783 154.992 105.859 149.928 104.371 144.373C102.883 138.819 102.883 132.971 104.371 127.417C105.859 121.863 108.783 116.798 112.849 112.732C116.915 108.666 121.98 105.742 127.534 104.254Z" stroke="#4396F7" stroke-width="0.359599"/>
<path d="M135.436 133.754C135.812 133.653 136.208 133.653 136.585 133.754C136.961 133.855 137.304 134.053 137.579 134.328C137.854 134.603 138.052 134.946 138.153 135.322C138.254 135.699 138.254 136.095 138.153 136.471C138.052 136.847 137.854 137.19 137.579 137.465C137.304 137.741 136.961 137.939 136.585 138.039C136.208 138.14 135.812 138.14 135.436 138.039C135.06 137.939 134.717 137.741 134.442 137.465C134.167 137.19 133.968 136.847 133.868 136.471C133.767 136.095 133.767 135.699 133.868 135.322C133.968 134.946 134.167 134.603 134.442 134.328C134.717 134.053 135.06 133.855 135.436 133.754Z" fill="#0284D2"/>
<circle cx="102.012" cy="16.9838" r="10.9624" fill="white" stroke="#4396F7" stroke-width="1.4384"/>
<circle cx="168.281" cy="16.9838" r="10.9624" fill="white" stroke="#4396F7" stroke-width="1.4384"/>
<circle cx="222.241" cy="45.4613" r="10.9624" fill="white" stroke="#4396F7" stroke-width="1.4384"/>
<circle cx="256.536" cy="103.977" r="10.9624" fill="white" stroke="#4396F7" stroke-width="1.4384"/>
<circle cx="256.536" cy="168.654" r="10.9624" fill="white" stroke="#4396F7" stroke-width="1.4384"/>
<circle cx="224.813" cy="224.924" r="10.9624" fill="white" stroke="#4396F7" stroke-width="1.4384"/>
<circle cx="168.281" cy="259.169" r="10.9624" fill="white" stroke="#4396F7" stroke-width="1.4384"/>
<circle cx="105.769" cy="259.169" r="10.9624" fill="white" stroke="#4396F7" stroke-width="1.4384"/>
<circle cx="46.4071" cy="224.924" r="10.9624" fill="white" stroke="#4396F7" stroke-width="1.4384"/>
<circle cx="14.1405" cy="170.064" r="10.9624" fill="white" stroke="#4396F7" stroke-width="1.4384"/>
<circle cx="15.6864" cy="103.977" r="10.9624" fill="white" stroke="#4396F7" stroke-width="1.4384"/>
<circle cx="46.0277" cy="51.2897" r="10.9624" fill="white" stroke="#4396F7" stroke-width="1.4384"/>
<path opacity="0.5" d="M166.807 15.4812C166.773 14.5031 167.256 13.4559 168.395 13.4559C169.258 13.4559 169.972 14.0428 169.972 14.9288C169.972 16.0565 169.27 16.5629 167.889 17.4144C166.738 18.1278 165.76 18.8183 165.599 20.7515H170.927V19.8884H166.738C166.934 18.8758 168.004 18.358 169.028 17.7366C170.041 17.1037 171.007 16.3787 171.007 14.9403C171.007 13.4214 169.88 12.5929 168.453 12.5929C166.727 12.5929 165.749 13.8242 165.829 15.4812H166.807Z" fill="black"/>
<path opacity="0.5" d="M103.073 12.5929H102.325C102.106 13.8242 101.094 14.1233 99.9773 14.1233V14.9058H102.095V20.7515H103.073V12.5929Z" fill="black"/>
<path opacity="0.5" d="M221.553 45.7763C221.737 45.7533 221.944 45.7417 222.14 45.7417C223.106 45.7417 223.877 46.2826 223.877 47.3067C223.877 48.2963 223.06 48.8832 222.105 48.8832C220.989 48.8832 220.402 48.1467 220.367 47.0881H219.389C219.355 48.7681 220.448 49.7462 222.105 49.7462C223.635 49.7462 224.913 48.8947 224.913 47.2607C224.913 46.2826 224.429 45.5001 223.44 45.2815V45.2584C224.061 44.9708 224.568 44.3494 224.568 43.6359C224.568 42.1285 223.497 41.4496 222.082 41.4496C220.448 41.4496 219.619 42.5312 219.562 44.0847H220.54C220.552 43.1296 221.012 42.3126 222.082 42.3126C222.91 42.3126 223.532 42.7729 223.532 43.6244C223.532 44.5105 222.807 44.9593 221.978 44.9593C221.84 44.9593 221.702 44.9593 221.553 44.9478V45.7763Z" fill="black"/>
<path opacity="0.5" d="M43.3801 46.2115H42.6321C42.4135 47.4428 41.4009 47.742 40.2847 47.742V48.5245H42.402V54.3701H43.3801V46.2115ZM47.1621 49.0998C47.1276 48.1217 47.6109 47.0746 48.7501 47.0746C49.6131 47.0746 50.3266 47.6614 50.3266 48.5475C50.3266 49.6752 49.6246 50.1815 48.2438 51.033C47.0931 51.7465 46.1149 52.4369 45.9538 54.3701H51.2817V53.5071H47.0931C47.2887 52.4944 48.3588 51.9766 49.383 51.3552C50.3956 50.7223 51.3622 49.9974 51.3622 48.559C51.3622 47.0401 50.2345 46.2115 48.8076 46.2115C47.0815 46.2115 46.1034 47.4428 46.184 49.0998H47.1621Z" fill="black"/>
<path opacity="0.5" d="M258.16 99.5216H257.378L253.661 104.826V105.77H257.239V107.68H258.16V105.77H259.265V104.907H258.16V99.5216ZM254.501 104.907L257.216 100.914H257.239V104.907H254.501Z" fill="black"/>
<path opacity="0.5" d="M258.747 163.873H254.719L253.96 168.107L254.8 168.153C255.18 167.693 255.697 167.382 256.319 167.382C257.412 167.382 258.16 168.153 258.16 169.235C258.16 170.535 257.366 171.168 256.434 171.168C255.456 171.168 254.777 170.535 254.719 169.695H253.741C253.776 171.168 254.927 172.031 256.342 172.031C258.241 172.031 259.196 170.696 259.196 169.315C259.196 167.451 258.01 166.519 256.561 166.519C256.008 166.519 255.398 166.703 255.042 167.106L255.019 167.083L255.456 164.736H258.747V163.873Z" fill="black"/>
<path opacity="0.5" d="M11.843 164.464H11.095C10.8764 165.695 9.86376 165.994 8.74757 165.994V166.777H10.8649V172.623H11.843V164.464ZM14.6239 168.618C14.6239 170.413 14.785 172.761 17.3396 172.761C19.8941 172.761 20.0552 170.413 20.0552 168.618C20.0552 166.811 19.8941 164.464 17.3396 164.464C14.785 164.464 14.6239 166.811 14.6239 168.618ZM15.6595 168.607C15.6595 167.398 15.671 165.327 17.3396 165.327C19.0081 165.327 19.0196 167.398 19.0196 168.607C19.0196 169.826 19.0081 171.898 17.3396 171.898C15.671 171.898 15.6595 169.826 15.6595 168.607Z" fill="black"/>
<path opacity="0.5" d="M13.302 99.058H12.554C12.3354 100.289 11.3227 100.588 10.2066 100.588V101.371H12.3239V107.217H13.302V99.058ZM19.6961 99.058H18.9481C18.7295 100.289 17.7169 100.588 16.6007 100.588V101.371H18.718V107.217H19.6961V99.058Z" fill="black"/>
<path opacity="0.5" d="M224.907 223.771C226.024 223.771 226.553 224.611 226.553 225.624C226.553 226.591 225.966 227.431 224.907 227.431C223.837 227.431 223.216 226.625 223.216 225.612C223.216 224.588 223.814 223.771 224.907 223.771ZM227.358 222.08C227.243 220.756 226.403 219.997 225.057 219.997C222.733 219.997 222.054 222.126 222.054 224.37C222.054 226.084 222.445 228.294 224.861 228.294C226.921 228.294 227.589 226.74 227.589 225.555C227.589 224.047 226.656 222.908 225.092 222.908C224.205 222.908 223.515 223.23 223.055 223.978L223.032 223.955C223.078 222.701 223.342 220.86 225.011 220.86C225.782 220.86 226.288 221.343 226.38 222.08H227.358Z" fill="black"/>
<path opacity="0.5" d="M47.9165 222.724C47.9165 223.691 47.2721 224.519 46.248 224.519C45.3044 224.519 44.637 223.691 44.637 222.793C44.637 221.792 45.0743 220.86 46.2365 220.86C47.3297 220.86 47.9165 221.723 47.9165 222.724ZM43.774 226.188C43.9005 227.592 44.8786 228.294 46.248 228.294C48.2272 228.294 49.0788 226.717 49.0788 223.898C49.0788 220.814 47.8015 219.997 46.2825 219.997C44.706 219.997 43.6013 221.079 43.6013 222.655C43.6013 224.266 44.5219 225.382 46.179 225.382C46.9729 225.382 47.6979 224.945 48.0661 224.255L48.0891 224.278C48.0316 226.383 47.4447 227.431 46.248 227.431C45.4655 227.431 44.8211 226.982 44.7521 226.188H43.774Z" fill="black"/>
<path opacity="0.5" d="M171.18 254.531H165.898V255.451H170.179C168.464 257.269 167.141 259.789 166.957 262.551H168.05C168.2 259.997 169.535 257.005 171.18 255.371V254.531Z" fill="black"/>
<path opacity="0.5" d="M104.029 260.25C104.029 259.306 104.788 258.685 105.755 258.685C106.675 258.685 107.435 259.352 107.435 260.238C107.435 261.147 106.744 261.826 105.766 261.826C104.754 261.826 104.029 261.228 104.029 260.25ZM103.281 256.475C103.281 257.212 103.741 257.891 104.42 258.167C103.511 258.489 102.993 259.237 102.993 260.204C102.993 261.872 104.201 262.689 105.766 262.689C107.274 262.689 108.471 261.78 108.471 260.204C108.471 259.191 107.999 258.478 107.021 258.167C107.688 257.868 108.148 257.2 108.148 256.475C108.148 255.44 107.458 254.393 105.674 254.393C104.42 254.393 103.281 255.129 103.281 256.475ZM104.316 256.51C104.316 255.693 104.961 255.256 105.743 255.256C106.537 255.256 107.113 255.693 107.113 256.51C107.113 257.338 106.537 257.822 105.766 257.822C104.961 257.822 104.316 257.407 104.316 256.51Z" fill="black"/>
<path d="M102.792 193.188C92.5376 187.241 84.0863 178.627 78.3358 168.263L135.695 136.452L102.792 193.188Z" fill="#F74343"/>
<path opacity="0.3" d="M79 168.753C85.5 179.5 92.5 186 103.178 193L136 136L79 168.753Z" fill="white"/>
<path d="M164.636 118.886C161.5 113.5 157.905 109.357 152.994 106.325L137 135L164.636 118.886Z" fill="#F74343"/>
<path d="M152.052 164.505C157.256 161.651 161.59 157.456 164.597 152.362L136.035 135.719L152.052 164.505Z" fill="#F74343"/>
<path d="M103.408 135.758C103.321 141.722 104.836 147.586 107.792 152.733L136.469 135.959L103.408 135.758Z" fill="#F74343"/>
<path opacity="0.5" d="M137.811 150.328H137.063C136.844 151.559 135.832 151.858 134.715 151.858V152.641H136.833V158.487H137.811V150.328Z" fill="black"/>
<path opacity="0.5" d="M135.199 185.411C135.164 184.433 135.648 183.385 136.787 183.385C137.65 183.385 138.363 183.972 138.363 184.858C138.363 185.986 137.661 186.492 136.28 187.344C135.13 188.057 134.152 188.748 133.991 190.681H139.318V189.818H135.13C135.325 188.805 136.396 188.288 137.42 187.666C138.432 187.033 139.399 186.308 139.399 184.87C139.399 183.351 138.271 182.522 136.844 182.522C135.118 182.522 134.14 183.754 134.221 185.411H135.199Z" fill="black"/>
<path opacity="0.5" d="M136.223 218.633C136.407 218.61 136.614 218.599 136.81 218.599C137.776 218.599 138.547 219.14 138.547 220.164C138.547 221.154 137.73 221.74 136.775 221.74C135.659 221.74 135.072 221.004 135.038 219.945H134.06C134.025 221.625 135.118 222.603 136.775 222.603C138.306 222.603 139.583 221.752 139.583 220.118C139.583 219.14 139.1 218.357 138.11 218.139V218.116C138.731 217.828 139.238 217.207 139.238 216.493C139.238 214.986 138.168 214.307 136.752 214.307C135.118 214.307 134.29 215.388 134.232 216.942H135.21C135.222 215.987 135.682 215.17 136.752 215.17C137.581 215.17 138.202 215.63 138.202 216.482C138.202 217.368 137.477 217.816 136.649 217.816C136.511 217.816 136.373 217.816 136.223 217.805V218.633Z" fill="black"/>
<path opacity="0.5" d="M138.536 244.312H137.753L134.037 249.617V250.561H137.615V252.471H138.536V250.561H139.641V249.698H138.536V244.312ZM134.877 249.698L137.592 245.705H137.615V249.698H134.877Z" fill="black"/>
<path d="M136.666 202.04C124.645 202.195 112.81 199.077 102.454 193.027L119.613 164.229C124.635 167.162 130.374 168.674 136.203 168.599L136.666 202.04Z" fill="#F74343"/>
<path d="M193 103C199 113 201.831 123.2 202 135C202.169 146.8 199 159.5 192.594 168.695L164.836 152.561C167.788 147.376 169.3 141.484 169.214 135.503C169.128 129.523 168.099 124.096 165 119L193 103Z" fill="#F74343"/>
<path d="M70.5 136.5C70.2661 124.72 73.0706 113.408 78.8986 103.124C84.7265 92.839 93.2085 84.3111 103.438 78.4509C113.668 72.5906 125.262 69.6182 136.98 69.8513C148.698 70.0844 159.131 72.74 169 79L153 107C148.189 103.949 141.699 103.297 135.987 103.184C130.275 103.07 124.624 104.519 119.637 107.376C114.651 110.232 110.516 114.389 107.675 119.402C104.834 124.415 103 130.5 103.5 136L70.5 136.5Z" fill="#F74343"/>
<path opacity="0.5" d="M135.892 136.264L68.4517 19.425" stroke="#4396F7" stroke-width="0.719198"/>
<path opacity="0.5" d="M135.864 135.905L135.878 1" stroke="#4396F7" stroke-width="0.719198"/>
<path opacity="0.5" d="M135.871 136.249L203.336 19.425" stroke="#4396F7" stroke-width="0.719198"/>
<path opacity="0.5" d="M135.87 135.893L252.709 68.4526" stroke="#4396F7" stroke-width="0.719198"/>
<path opacity="0.5" d="M136.23 135.862L271.136 135.876" stroke="#4396F7" stroke-width="0.719198"/>
<path opacity="0.5" d="M135.885 135.869L252.709 203.334" stroke="#4396F7" stroke-width="0.719198"/>
<path opacity="0.5" d="M136.244 135.712L203.685 252.551" stroke="#4396F7" stroke-width="0.719198"/>
<path opacity="0.5" d="M136.274 136.073L136.26 270.978" stroke="#4396F7" stroke-width="0.719198"/>
<path opacity="0.5" d="M136.265 135.727L68.7998 252.551" stroke="#4396F7" stroke-width="0.719198"/>
<path opacity="0.5" d="M135.839 136L19 203.44" stroke="#4396F7" stroke-width="0.719198"/>
<path opacity="0.5" d="M135.905 136.114L1 136.1" stroke="#4396F7" stroke-width="0.719198"/>
<path opacity="0.5" d="M136.252 136.108L19.4272 68.6432" stroke="#4396F7" stroke-width="0.719198"/>
</svg>
