<svg width="205" height="205" viewBox="0 0 205 205" fill="none" xmlns="http://www.w3.org/2000/svg">
<g style="mix-blend-mode:darken" opacity="0.3">
<path fill-rule="evenodd" clip-rule="evenodd" d="M103.117 0.908513L103.088 7.77711C111.264 7.824 119.434 8.93154 127.39 11.0989C135.33 13.2618 142.919 16.4423 149.976 20.5363L153.297 14.8411L153.729 15.0929L150.408 20.7884C157.415 24.9027 163.893 29.9209 169.664 35.74C175.435 41.56 180.4 48.0799 184.457 55.1222L190.347 51.7549L190.595 52.1889L184.705 55.5561C188.739 62.6467 191.856 70.26 193.953 78.2165C196.044 86.1521 197.083 94.2907 197.073 102.427L204.113 102.457L204.11 102.957L197.071 102.927C197.017 111.075 195.909 119.217 193.749 127.147C191.588 135.083 188.409 142.668 184.318 149.722L190.176 153.138L189.924 153.57L184.066 150.154C179.951 157.165 174.93 163.646 169.108 169.42C163.327 175.153 156.856 180.09 149.868 184.131L153.264 190.07L152.83 190.319L149.435 184.38C142.304 188.454 134.642 191.598 126.632 193.709C118.751 195.786 110.671 196.825 102.591 196.829L102.561 203.836L102.061 203.834L102.091 196.828C93.8858 196.789 85.686 195.681 77.7016 193.506C69.8072 191.355 62.2606 188.199 55.2374 184.139L51.8792 189.899L51.4472 189.647L54.8052 183.887C47.7515 179.76 41.2326 174.717 35.4283 168.865C29.6944 163.083 24.757 156.61 20.7155 149.621L14.8303 152.986L14.5821 152.552L20.4663 149.188C16.3934 142.058 13.2495 134.397 11.1392 126.388C9.05972 118.496 8.01997 110.404 8.01914 102.312L1.06448 102.282L1.06661 101.782L8.02041 101.812C8.06291 93.6189 9.17055 85.4311 11.3425 77.458C13.4976 69.5464 16.6632 61.9839 20.7361 54.9476L15.0012 51.6039L15.253 51.1719L20.9877 54.5156C25.1103 47.4795 30.1436 40.9764 35.9836 35.1848C41.7657 29.4505 48.2386 24.5128 55.2283 20.4711L51.912 14.6702L52.3461 14.422L55.6618 20.222C62.7915 16.1495 70.452 13.0058 78.4601 10.8956C86.3687 8.81169 94.4791 7.77195 102.588 7.77556L102.617 0.906384L103.117 0.908513ZM11.8249 77.5894C13.9685 69.7201 17.1171 62.1982 21.1681 55.1995L40.1789 66.2836C37.0929 71.6272 34.6931 77.368 33.0574 83.3729C31.4044 89.441 30.5605 95.6724 30.5264 101.908L8.52041 101.814C8.56272 93.6646 9.6645 85.5202 11.8249 77.5894ZM33.5398 83.5043C35.164 77.5418 37.5467 71.8414 40.6108 66.5355L59.6225 77.6201C57.5234 81.2708 55.8896 85.1898 54.7732 89.2878C53.6392 93.4509 53.0591 97.7258 53.0333 102.004L31.0264 101.91C31.0603 95.718 31.8983 89.5301 33.5398 83.5043ZM40.8624 66.1034L59.8739 77.1879C62.0243 73.534 64.6443 70.1558 67.6805 67.1447C70.6561 64.1937 73.981 61.6454 77.5687 59.5493L66.6464 40.4439C61.3954 43.4913 56.5314 47.2079 52.1836 51.5197C47.7767 55.8902 43.977 60.796 40.8624 66.1034ZM55.2557 89.4192C56.3604 85.3636 57.9772 81.485 60.0545 77.872L81.0106 90.0903C79.9969 91.8784 79.2055 93.7933 78.6606 95.7934C78.1608 97.6282 77.8762 99.5064 77.807 101.391C77.7982 101.63 77.7928 101.87 77.791 102.109L53.5333 102.006C53.5589 97.7715 54.1331 93.54 55.2557 89.4192ZM60.3059 77.4398L81.2616 89.6579C82.3272 87.8637 83.6199 86.2039 85.1142 84.7219C86.5461 83.3019 88.1397 82.0684 89.8565 81.0434L77.8168 59.9834C74.2669 62.0579 70.977 64.5796 68.0326 67.4997C65.0275 70.4799 62.4344 73.8234 60.3059 77.4398ZM79.143 95.9259C79.6764 93.9678 80.451 92.0931 81.443 90.3424L100.979 101.733C100.963 101.775 100.95 101.819 100.938 101.863C100.907 101.976 100.888 102.092 100.882 102.208L78.291 102.111C78.2928 101.877 78.298 101.643 78.3066 101.409C78.3746 99.5632 78.6534 97.7233 79.143 95.9259ZM100.929 102.708L78.2922 102.611C78.2958 102.894 78.3044 103.176 78.3178 103.459C78.3986 105.148 78.6563 106.832 79.0909 108.481C79.6304 110.529 80.4332 112.488 81.4727 114.311L101.083 103.1C101.019 102.983 100.968 102.857 100.934 102.726C100.932 102.72 100.931 102.714 100.929 102.708ZM101.389 103.501L81.7248 114.743C82.728 116.422 83.9349 117.981 85.3238 119.381C86.787 120.857 88.4271 122.131 90.2004 123.18L101.581 103.661C101.513 103.613 101.449 103.559 101.389 103.501ZM102.028 103.886L90.6334 123.43C92.3711 124.41 94.2305 125.176 96.1718 125.704C98.2076 126.259 100.298 126.543 102.39 126.557L102.486 103.967C102.359 103.963 102.232 103.944 102.108 103.91C102.081 103.902 102.055 103.895 102.028 103.886ZM102.986 103.909L102.89 126.555C104.853 126.527 106.813 126.261 108.728 125.757C110.776 125.217 112.735 124.414 114.559 123.374L103.348 103.763C103.234 103.826 103.113 103.875 102.986 103.909ZM103.748 103.457L114.991 123.122C116.669 122.119 118.228 120.912 119.628 119.524C121.072 118.092 122.324 116.49 123.36 114.76L103.826 103.37C103.801 103.4 103.775 103.429 103.748 103.457ZM104.085 102.943L123.612 114.328C124.623 112.558 125.411 110.66 125.951 108.676C126.491 106.695 126.775 104.663 126.802 102.628L104.198 102.532C104.188 102.601 104.174 102.671 104.155 102.739C104.136 102.809 104.113 102.877 104.085 102.943ZM104.192 102.032L126.804 102.128C126.797 101.164 126.733 100.2 126.611 99.2418C126.514 98.4795 126.381 97.7207 126.211 96.968C126.147 96.6846 126.078 96.4021 126.004 96.1205C125.478 94.1256 124.702 92.2147 123.701 90.4308L104.08 101.648C104.112 101.722 104.138 101.798 104.159 101.876C104.172 101.928 104.183 101.979 104.192 102.032ZM103.818 101.222L123.452 89.9974C122.433 88.2654 121.198 86.6595 119.771 85.2204C118.341 83.7784 116.742 82.5281 115.014 81.4932L103.624 101.029C103.661 101.06 103.696 101.093 103.73 101.127C103.761 101.158 103.79 101.189 103.818 101.222ZM103.199 100.766L114.583 81.2407C112.81 80.2277 110.909 79.4383 108.923 78.8971C106.914 78.3499 104.853 78.066 102.789 78.0454L102.692 100.64C102.791 100.649 102.889 100.666 102.985 100.692C103.058 100.712 103.129 100.737 103.199 100.766ZM102.192 100.672L102.289 78.0456C100.298 78.0669 98.3084 78.3332 96.3665 78.8449C94.3193 79.3843 92.3607 80.187 90.537 81.2263L101.748 100.837C101.866 100.773 101.991 100.723 102.121 100.689C102.145 100.682 102.169 100.677 102.192 100.672ZM101.347 101.143L90.1051 81.4783C88.4259 82.4817 86.8671 83.6887 85.4664 85.0779C84.0033 86.5288 82.7376 88.1537 81.694 89.91L101.218 101.293C101.258 101.241 101.301 101.19 101.347 101.143ZM21.4197 54.7674L40.4304 65.8515C43.5669 60.5066 47.3935 55.5661 51.8316 51.1647C56.2105 46.822 61.1095 43.0789 66.3983 40.0099L55.4764 20.9052C48.5246 24.9252 42.0866 29.8364 36.3357 35.5398C30.5268 41.3006 25.5204 47.7689 21.4197 54.7674ZM8.51914 102.314C8.52015 110.362 9.5544 118.411 11.6227 126.261C13.7218 134.227 16.8491 141.847 20.9004 148.94L40.0052 138.018C36.9038 132.587 34.5097 126.752 32.9025 120.653C31.3266 114.672 30.5344 108.54 30.5254 102.408L8.51914 102.314ZM31.0254 102.41C31.0346 108.499 31.8213 114.587 33.386 120.526C34.982 126.583 37.3595 132.377 40.4393 137.77L59.5448 126.847C57.4151 123.116 55.7709 119.108 54.6668 114.918C53.5944 110.848 53.0499 106.677 53.0329 102.504L31.0254 102.41ZM53.5329 102.506C53.5501 106.635 54.0891 110.763 55.1503 114.791C56.2432 118.938 57.8707 122.906 59.9789 126.599L81.0382 114.56C79.9773 112.698 79.158 110.699 78.6074 108.61C78.1648 106.93 77.902 105.216 77.819 103.495C77.8048 103.2 77.7958 102.905 77.7921 102.609L53.5329 102.506ZM35.7834 168.513C30.0804 162.762 25.1694 156.325 21.1495 149.373L40.2546 138.451C43.3235 143.739 47.0662 148.638 51.4085 153.016C55.8225 157.467 60.7788 161.303 66.1414 164.444L55.057 183.456C48.0409 179.35 41.5568 174.334 35.7834 168.513ZM51.7635 152.664C47.4522 148.317 43.7359 143.453 40.6887 138.203L59.7949 127.28C61.8908 130.868 64.4389 134.192 67.3897 137.168C70.4131 140.216 73.8067 142.845 77.4779 145.001L66.3933 164.012C61.0683 160.893 56.1466 157.084 51.7635 152.664ZM67.7447 136.815C64.8248 133.871 62.3033 130.582 60.229 127.032L81.2901 114.992C82.3151 116.709 83.5487 118.302 84.9688 119.734C86.4627 121.241 88.1373 122.542 89.948 123.613L77.7298 144.569C74.0961 142.435 70.7373 139.833 67.7447 136.815ZM55.4892 183.707C62.4748 187.745 69.981 190.884 77.833 193.023C85.7751 195.187 93.9314 196.289 102.093 196.328L102.186 174.321C95.9393 174.29 89.696 173.446 83.6167 171.79C77.6291 170.159 71.9041 167.769 66.5737 164.695L55.4892 183.707ZM66.8256 164.264C72.1184 167.315 77.8029 169.688 83.7481 171.308C89.7851 172.952 95.9849 173.79 102.189 173.821L102.282 151.815C97.9931 151.792 93.7068 151.212 89.5328 150.075C85.4518 148.963 81.5481 147.338 77.9104 145.252L66.8256 164.264ZM78.1622 144.82C81.7624 146.884 85.6255 148.492 89.6642 149.592C93.7958 150.718 98.0387 151.292 102.284 151.315L102.388 127.058C100.252 127.044 98.1185 126.754 96.0404 126.188C94.0566 125.648 92.1565 124.865 90.381 123.863L78.1622 144.82ZM126.504 193.226C118.666 195.291 110.629 196.325 102.593 196.329L102.686 174.322C108.807 174.31 114.927 173.518 120.897 171.945C126.997 170.338 132.833 167.943 138.265 164.841L149.187 183.946C142.093 187.998 134.472 191.126 126.504 193.226ZM120.769 171.462C114.842 173.023 108.766 173.81 102.689 173.822L102.782 151.815C106.944 151.795 111.104 151.251 115.163 150.181C119.354 149.077 123.363 147.432 127.095 145.302L138.016 164.407C132.623 167.487 126.828 169.865 120.769 171.462ZM115.035 149.698C111.019 150.756 106.902 151.295 102.784 151.315L102.888 127.056C104.894 127.029 106.898 126.757 108.856 126.241C110.946 125.69 112.946 124.871 114.808 123.809L126.846 144.868C123.152 146.977 119.184 148.605 115.035 149.698ZM149.62 183.697C156.57 179.677 163.007 174.767 168.756 169.065C174.547 163.322 179.54 156.876 183.634 149.902L164.623 138.818C161.493 144.138 157.68 149.056 153.26 153.439C148.882 157.781 143.985 161.523 138.698 164.591L149.62 183.697ZM138.45 164.157C143.699 161.11 148.561 157.395 152.908 153.084C157.297 148.732 161.083 143.848 164.191 138.566L145.18 127.482C143.037 131.11 140.43 134.466 137.412 137.458C134.438 140.408 131.114 142.956 127.528 145.052L138.45 164.157ZM127.279 144.618C130.828 142.544 134.117 140.023 137.06 137.103C140.047 134.141 142.627 130.821 144.748 127.23L123.792 115.012C122.735 116.78 121.456 118.417 119.98 119.88C118.549 121.299 116.956 122.533 115.24 123.557L127.279 144.618ZM193.267 127.015C191.117 134.909 187.955 142.453 183.886 149.471L164.875 138.386C167.979 133.024 170.392 127.26 172.034 121.231C173.675 115.207 174.519 109.022 174.564 102.831L196.571 102.925C196.517 111.03 195.415 119.128 193.267 127.015ZM171.552 121.1C169.921 127.087 167.525 132.81 164.443 138.134L145.432 127.05C147.55 123.38 149.197 119.438 150.32 115.315C151.442 111.196 152.022 106.968 152.059 102.736L174.064 102.829C174.019 108.976 173.181 115.118 171.552 121.1ZM149.837 115.184C148.726 119.265 147.096 123.166 145 126.798L124.045 114.58C125.077 112.773 125.882 110.834 126.434 108.808C126.985 106.785 127.275 104.709 127.302 102.63L151.559 102.733C151.522 106.922 150.948 111.107 149.837 115.184ZM196.573 102.425C196.583 94.3321 195.549 86.237 193.469 78.3439C191.384 70.4298 188.284 62.8571 184.271 55.8043L165.166 66.7262C168.229 72.1171 170.596 77.9038 172.189 83.9508C173.776 89.9756 174.569 96.154 174.566 102.331L196.573 102.425ZM174.066 102.329C174.068 96.1954 173.282 90.0605 171.705 84.0782C170.123 78.0737 167.773 72.3275 164.732 66.9744L145.628 77.8959C147.719 81.5871 149.336 85.5475 150.426 89.6851C151.51 93.7991 152.055 98.0173 152.06 102.236L174.066 102.329ZM151.56 102.233C151.555 98.0587 151.016 93.8841 149.943 89.8125C148.864 85.7174 147.263 81.7975 145.194 78.144L124.136 90.1825C125.158 92.0039 125.95 93.955 126.487 95.9921C126.593 96.3946 126.689 96.7992 126.774 97.2053C126.912 97.8595 127.023 98.5178 127.107 99.1787C127.231 100.159 127.297 101.144 127.304 102.13L151.56 102.233ZM169.309 36.0921C175.049 41.8809 179.988 48.3659 184.022 55.3703L164.918 66.2923C161.834 60.9508 158.063 56.0048 153.683 51.5878C149.302 47.1707 144.388 43.3594 139.072 40.2313L150.156 21.2203C157.126 25.3127 163.568 30.3041 169.309 36.0921ZM153.328 51.9399C157.677 56.3257 161.421 61.2368 164.483 66.5405L145.379 77.4621C143.268 73.8215 140.692 70.4494 137.703 67.4355C134.713 64.4204 131.361 61.8158 127.736 59.6738L138.82 40.6632C144.098 43.7694 148.978 47.554 153.328 51.9399ZM137.348 67.7876C140.306 70.7703 142.856 74.1074 144.945 77.7103L123.887 89.749C122.846 87.979 121.584 86.3378 120.126 84.8673C118.665 83.3943 117.031 82.1173 115.267 81.0606L127.484 60.1058C131.071 62.2258 134.389 64.8036 137.348 67.7876ZM149.724 20.9683C142.704 16.8962 135.157 13.7327 127.259 11.5813C119.345 9.42549 111.218 8.32381 103.086 8.2771L102.992 30.2829C109.21 30.3214 115.424 31.1652 121.475 32.8136C127.508 34.4571 133.275 36.8719 138.64 39.9792L149.724 20.9683ZM138.388 40.4111C133.061 37.3258 127.334 34.928 121.343 33.296C115.335 31.6592 109.165 30.8213 102.99 30.7829L102.896 52.7887C107.157 52.8188 111.414 53.3988 115.56 54.5283C119.687 55.6524 123.632 57.3013 127.304 59.4216L138.388 40.4111ZM127.053 59.8536C123.418 57.7552 119.513 56.1233 115.429 55.0107C111.325 53.8928 107.111 53.3186 102.894 53.2887L102.791 77.5445C104.898 77.5652 107.003 77.855 109.054 78.4137C111.083 78.9665 113.025 79.773 114.835 80.8081L127.053 59.8536ZM78.5875 11.3791C86.4537 9.30638 94.5205 8.27213 102.586 8.27556L102.492 30.2815C96.3425 30.2861 90.1924 31.0783 84.1946 32.6587C78.0959 34.2658 72.2618 36.6595 66.8316 39.7604L55.9099 20.656C63.0019 16.6051 70.6218 13.4781 78.5875 11.3791ZM84.322 33.1422C90.2773 31.573 96.3839 30.7863 102.49 30.7815L102.396 52.7877C98.2062 52.8004 94.0167 53.345 89.9301 54.4218C85.7404 55.5258 81.7325 57.1698 78.0017 59.2993L67.0798 40.1945C72.4722 37.1152 78.2657 34.7381 84.322 33.1422ZM90.0575 54.9053C94.1017 53.8397 98.2476 53.3006 102.394 53.2877L102.291 77.5446C100.256 77.5657 98.2234 77.8375 96.239 78.3604C94.1493 78.9111 92.1499 79.7305 90.2884 80.7914L78.2498 59.7334C81.9429 57.6255 85.9103 55.9981 90.0575 54.9053Z" fill="#0284D2"/>
</g>
<g opacity="0.8">
<circle cx="102.291" cy="102.354" r="24.4209" fill="#4396F7" fill-opacity="0.1"/>
<circle cx="102.291" cy="102.354" r="49.3232" fill="#4396F7" fill-opacity="0.1"/>
<circle cx="102.291" cy="102.354" r="71.9546" fill="#4396F7" fill-opacity="0.1"/>
<circle cx="102.291" cy="102.354" r="94.3093" fill="#4396F7" fill-opacity="0.1"/>
</g>
<path d="M127.062 101.851C127.062 97.5674 125.939 93.359 123.805 89.6451L102.562 101.851H127.062Z" fill="#4396F7"/>
<path d="M123.82 89.6697C121.69 85.9533 118.624 82.8601 114.926 80.6986L102.562 101.85L123.82 89.6697Z" fill="#4396F7"/>
<path d="M102.531 77.3506C98.2476 77.3557 94.0405 78.4836 90.3292 80.6219L102.56 101.851L102.531 77.3506Z" fill="#4396F7"/>
<path d="M90.1945 80.6978C86.4964 82.8591 83.4296 85.9521 81.2999 89.6684L102.557 101.85L90.1945 80.6978Z" fill="#4396F7"/>
<path d="M81.271 89.7256C79.1513 93.4476 78.0444 97.6603 78.0607 101.944L102.561 101.85L81.271 89.7256Z" fill="#4396F7"/>
<path d="M78.0621 102.009C78.0896 106.292 79.2395 110.493 81.3972 114.193L102.562 101.851L78.0621 102.009Z" fill="#4396F7"/>
<path d="M90.4488 123.147C94.1719 125.264 98.3852 126.369 102.668 126.351L102.562 101.851L90.4488 123.147Z" fill="#4396F7"/>
<path d="M102.727 126.351C107.011 126.322 111.211 125.171 114.911 123.012L102.562 101.851L102.727 126.351Z" fill="#C0D3E9"/>
<path d="M90.2312 123.901C95.5842 126.893 101.843 127.837 107.84 126.556C113.838 125.275 119.164 121.856 122.827 116.938C126.49 112.019 128.24 105.936 127.749 99.8235C127.258 93.7105 124.561 87.9845 120.161 83.7131C115.76 79.4417 109.956 76.9165 103.832 76.6082C97.7067 76.3 91.6787 78.2297 86.8715 82.0376C82.0643 85.8455 78.8059 91.2718 77.704 97.3046C76.6021 103.337 77.7318 109.565 80.8824 114.827L102.561 101.845L90.2312 123.901Z" fill="#4396F7"/>
<path d="M123.852 113.976C125.972 110.254 127.079 106.041 127.062 101.758L102.562 101.851L123.852 113.976Z" fill="#4396F7"/>
<path d="M114.908 80.6899C111.208 78.5313 107.007 77.3802 102.724 77.3516L102.56 101.851L114.908 80.6899Z" fill="#4396F7"/>
<path d="M174.143 102.806C174.307 90.2894 171.186 77.949 165.093 67.0153L145.583 77.8889C149.776 85.4113 151.923 93.9015 151.81 102.513L174.143 102.806Z" fill="#4396F7"/>
<path d="M164.642 66.2193C158.425 55.3917 149.484 46.3786 138.707 40.0745L127.429 59.3534C134.844 63.6906 140.996 69.8917 145.273 77.3411L164.642 66.2193Z" fill="#F74343"/>
<path d="M102.406 30.2792C89.8912 30.3054 77.6015 33.6121 66.763 39.8697L77.9304 59.2124C85.3873 54.9072 93.8426 52.6322 102.453 52.6142L102.406 30.2792Z" fill="#4396F7"/>
<path d="M66.4081 40.0702C55.6048 46.3883 46.6466 55.4283 40.427 66.2887L59.8086 77.3884C64.0877 69.9165 70.2509 63.697 77.6836 59.3501L66.4081 40.0702Z" fill="#4396F7"/>
<path d="M40.2482 66.5603C34.0284 77.4206 30.7646 89.7217 30.782 102.237L53.117 102.206C53.105 93.5953 55.3505 85.1321 59.6297 77.6602L40.2482 66.5603Z" fill="#4396F7"/>
<path d="M30.7829 102.453C30.8381 114.968 34.1734 127.25 40.4561 138.074L59.7728 126.862C55.4503 119.415 53.1556 110.965 53.1176 102.355L30.7829 102.453Z" fill="#F74343"/>
<path d="M66.2081 164.325C77.3042 170.664 89.8947 173.917 102.673 173.746L102.374 151.413C93.5832 151.531 84.9209 149.293 77.2868 144.932L66.2081 164.325Z" fill="#4396F7"/>
<path d="M163.989 138.629C170.504 127.744 174.009 115.323 174.145 102.638L151.812 102.398C151.718 111.125 149.306 119.671 144.824 127.16L163.989 138.629Z" fill="#4396F7"/>
<path d="M137.918 164.114C148.693 157.994 157.695 149.182 164.043 138.54L144.861 127.098C140.494 134.42 134.301 140.483 126.887 144.693L137.918 164.114Z" fill="#F74343"/>
<path d="M138.399 39.8966C127.098 33.3601 114.225 30.0384 101.172 30.2909C88.1196 30.5434 75.3844 34.3605 64.3448 41.3291L76.2669 60.216C83.8622 55.4216 92.624 52.7954 101.604 52.6217C110.584 52.448 119.441 54.7333 127.216 59.2304L138.399 39.8966Z" fill="#4396F7"/>
<path d="M151.576 101.822C151.568 93.2518 149.314 84.8338 145.038 77.4071L123.967 89.5387C126.122 93.2817 127.259 97.5244 127.263 101.844L151.576 101.822Z" fill="#4396F7"/>
<path d="M145.068 77.4558C140.801 70.0241 134.66 63.841 127.257 59.5231L115.007 80.5246C118.738 82.7008 121.833 85.8171 123.983 89.5627L145.068 77.4558Z" fill="#4396F7"/>
<path d="M102.451 52.8468C93.8817 52.8647 85.4663 55.129 78.0447 59.4138L90.2012 80.4698C93.9417 78.3102 98.183 77.169 102.502 77.16L102.451 52.8468Z" fill="#4396F7"/>
<path d="M77.8012 59.5511C70.4037 63.8774 64.2696 70.0676 60.0107 77.5041L81.1091 89.587C83.2555 85.839 86.3471 82.7191 90.0755 80.5387L77.8012 59.5511Z" fill="#4396F7"/>
<path d="M60.0181 77.503C55.7592 84.9395 53.5242 93.3627 53.5362 101.932L77.8494 101.898C77.8434 97.5793 78.9698 93.3341 81.1163 89.586L60.0181 77.503Z" fill="#4396F7"/>
<path d="M53.5383 102.082C53.5761 110.651 55.8599 119.061 60.162 126.473L81.1897 114.267C79.0214 110.532 77.8704 106.293 77.8513 101.974L53.5383 102.082Z" fill="#4396F7"/>
<path d="M77.9328 144.967C85.374 149.218 93.7996 151.444 102.369 151.422L102.309 127.109C97.9896 127.12 93.7431 125.998 89.9928 123.856L77.9328 144.967Z" fill="#4396F7"/>
<path d="M127.421 145.18C135.79 140.243 142.516 132.945 146.755 124.201C150.994 115.458 152.558 105.657 151.25 96.0286C149.943 86.3999 145.822 77.3713 139.405 70.0747C132.988 62.7781 124.559 57.538 115.177 55.0113C105.794 52.4846 95.8739 52.7837 86.6604 55.8711C77.4469 58.9585 69.3497 64.6969 63.3837 72.367C57.4178 80.037 53.8487 89.2974 53.1237 98.9874C52.3986 108.677 54.55 118.366 59.3081 126.838L80.6532 114.851C78.2551 110.581 77.1708 105.698 77.5363 100.814C77.9017 95.9302 79.7005 91.2629 82.7073 87.3973C85.7142 83.5316 89.7951 80.6394 94.4388 79.0833C99.0824 77.5273 104.082 77.3765 108.811 78.65C113.54 79.9234 117.788 82.5644 121.022 86.242C124.256 89.9195 126.333 94.4698 126.992 99.3227C127.651 104.176 126.863 109.115 124.726 113.522C122.59 117.929 119.2 121.607 114.982 124.095L127.421 145.18Z" fill="#4396F7"/>
<path d="M144.97 126.443C149.267 119.028 151.544 110.616 151.576 102.046L127.263 101.957C127.247 106.276 126.099 110.516 123.933 114.253L144.97 126.443Z" fill="#4396F7"/>
<path d="M127.096 59.4317C119.678 55.141 111.264 52.87 102.694 52.8453L102.624 77.1585C106.943 77.1709 111.184 78.3155 114.923 80.478L127.096 59.4317Z" fill="#4396F7"/>
<mask id="mask0" mask-type="alpha" maskUnits="userSpaceOnUse" x="40" y="103" width="62" height="62">
<path d="M66.4092 164.466L101.88 103.059L40.5854 138.002C40.5854 138.002 45.0369 146.246 51.0742 152.798C56.5415 158.732 66.4092 164.466 66.4092 164.466Z" fill="#F74343"/>
</mask>
<g mask="url(#mask0)">
<path fill-rule="evenodd" clip-rule="evenodd" d="M50.7514 143.891L42.7563 177.403L44.319 177.776L52.314 144.264L50.7514 143.891ZM85.0408 122.811L77.0458 156.323L78.6084 156.696L86.6035 123.184L85.0408 122.811ZM111.335 135.243L119.33 101.732L120.893 102.105L112.898 135.616L111.335 135.243ZM67.8961 133.351L59.901 166.863L61.4637 167.236L69.4587 133.724L67.8961 133.351ZM94.1905 145.783L102.186 112.272L103.748 112.644L95.7532 146.156L94.1905 145.783ZM136.475 91.1919L128.48 124.703L130.043 125.076L138.038 91.5647L136.475 91.1919ZM48.4712 173.889L56.4663 140.378L58.0289 140.751L50.0339 174.262L48.4712 173.889ZM90.7557 119.298L82.7607 152.81L84.3233 153.183L92.3184 119.671L90.7557 119.298ZM117.05 131.73L125.045 98.2185L126.608 98.5913L118.613 132.103L117.05 131.73ZM73.611 129.838L65.6159 163.35L67.1786 163.722L75.1737 130.211L73.611 129.838ZM99.9054 142.27L107.9 108.758L109.463 109.131L101.468 142.643L99.9054 142.27ZM142.19 87.6786L134.195 121.19L135.758 121.563L143.753 88.0515L142.19 87.6786ZM54.1861 170.376L62.1812 136.865L63.7438 137.237L55.7488 170.749L54.1861 170.376ZM96.4706 115.785L88.4756 149.296L90.0382 149.669L98.0333 116.158L96.4706 115.785ZM122.765 128.217L130.76 94.7052L132.323 95.078L124.328 128.59L122.765 128.217ZM79.3259 126.325L71.3309 159.836L72.8935 160.209L80.8886 126.698L79.3259 126.325ZM105.62 138.757L113.615 105.245L115.178 105.618L107.183 139.129L105.62 138.757ZM147.905 84.1654L139.91 117.677L141.472 118.05L149.468 84.5382L147.905 84.1654Z" fill="#4396F7"/>
<path fill-rule="evenodd" clip-rule="evenodd" d="M45.851 123.265L37.8559 156.777L39.4186 157.15L47.4136 123.638L45.851 123.265ZM80.1404 102.186L72.1454 135.697L73.708 136.07L81.7031 102.558L80.1404 102.186ZM106.435 114.617L114.43 81.1058L115.993 81.4786L107.998 114.99L106.435 114.617ZM62.9957 112.725L55.0006 146.237L56.5633 146.61L64.5584 113.098L62.9957 112.725ZM89.2901 125.157L97.2852 91.6456L98.8478 92.0185L90.8528 125.53L89.2901 125.157ZM131.575 70.566L123.58 104.078L125.142 104.45L133.137 70.9388L131.575 70.566ZM43.5708 153.263L51.5659 119.752L53.1285 120.125L45.1335 153.636L43.5708 153.263ZM85.8553 98.6722L77.8603 132.184L79.4229 132.557L87.418 99.045L85.8553 98.6722ZM112.15 111.104L120.145 77.5925L121.707 77.9653L113.712 111.477L112.15 111.104ZM68.7106 109.212L60.7155 142.724L62.2782 143.096L70.2733 109.585L68.7106 109.212ZM95.005 121.644L103 88.1324L104.563 88.5052L96.5677 122.017L95.005 121.644ZM137.29 67.0527L129.294 100.564L130.857 100.937L138.852 67.4255L137.29 67.0527ZM49.2857 149.75L57.2808 116.239L58.8434 116.611L50.8484 150.123L49.2857 149.75ZM91.5703 95.1589L83.5752 128.67L85.1379 129.043L93.1329 95.5318L91.5703 95.1589ZM117.865 107.591L125.86 74.0792L127.422 74.4521L119.427 107.964L117.865 107.591ZM74.4255 105.699L66.4305 139.21L67.9931 139.583L75.9882 106.072L74.4255 105.699ZM100.72 118.131L108.715 84.6191L110.278 84.9919L102.283 118.503L100.72 118.131ZM143.004 63.5394L135.009 97.0509L136.572 97.4238L144.567 63.9122L143.004 63.5394Z" fill="#4396F7"/>
</g>
<mask id="mask1" mask-type="alpha" maskUnits="userSpaceOnUse" x="20" y="138" width="47" height="46">
<path d="M54.8747 183.801L66.276 164.466C66.276 164.466 57.0279 158.521 52.0744 153.598C46.6789 148.236 40.3208 138.329 40.3208 138.329L20.3371 149.531C20.3371 149.531 33.0954 167.548 34.8724 169.4C39.6063 174.334 54.8747 183.801 54.8747 183.801Z" fill="#F74343"/>
</mask>
<g mask="url(#mask1)">
<path fill-rule="evenodd" clip-rule="evenodd" d="M14.3695 178.305L6.37446 211.817L7.93712 212.19L15.9322 178.678L14.3695 178.305ZM48.659 157.226L40.6639 190.737L42.2266 191.11L50.2217 157.598L48.659 157.226ZM74.9534 169.657L82.9485 136.146L84.5111 136.519L76.5161 170.03L74.9534 169.657ZM31.5143 167.765L23.5192 201.277L25.0819 201.65L33.0769 168.138L31.5143 167.765ZM57.8087 180.197L65.8037 146.686L67.3664 147.059L59.3713 180.57L57.8087 180.197ZM100.093 125.606L92.0981 159.118L93.6608 159.49L101.656 125.979L100.093 125.606ZM12.0894 208.304L20.0844 174.792L21.6471 175.165L13.652 208.676L12.0894 208.304ZM54.3739 153.712L46.3788 187.224L47.9415 187.597L55.9366 154.085L54.3739 153.712ZM80.6683 166.144L88.6634 132.633L90.226 133.005L82.231 166.517L80.6683 166.144ZM37.2292 164.252L29.2341 197.764L30.7968 198.136L38.7918 164.625L37.2292 164.252ZM63.5236 176.684L71.5186 143.172L73.0813 143.545L65.0862 177.057L63.5236 176.684ZM105.808 122.093L97.813 155.604L99.3757 155.977L107.371 122.466L105.808 122.093ZM17.8043 204.79L25.7993 171.279L27.362 171.651L19.3669 205.163L17.8043 204.79ZM60.0888 150.199L52.0938 183.711L53.6564 184.083L61.6515 150.572L60.0888 150.199ZM86.3832 162.631L94.3783 129.119L95.9409 129.492L87.9459 163.004L86.3832 162.631ZM42.9441 160.739L34.949 194.25L36.5117 194.623L44.5067 161.112L42.9441 160.739ZM69.2385 173.171L77.2335 139.659L78.7962 140.032L70.8011 173.543L69.2385 173.171ZM111.523 118.579L103.528 152.091L105.091 152.464L113.086 118.952L111.523 118.579Z" fill="#F74343"/>
<path fill-rule="evenodd" clip-rule="evenodd" d="M14.3695 158.085L6.37446 191.596L7.93712 191.969L15.9322 158.457L14.3695 158.085ZM48.659 137.005L40.6639 170.516L42.2266 170.889L50.2217 137.378L48.659 137.005ZM74.9534 149.437L82.9485 115.925L84.5111 116.298L76.5161 149.81L74.9534 149.437ZM31.5143 147.545L23.5192 181.056L25.0819 181.429L33.0769 147.917L31.5143 147.545ZM57.8087 159.977L65.8037 126.465L67.3664 126.838L59.3713 160.349L57.8087 159.977ZM100.093 105.385L92.0981 138.897L93.6608 139.27L101.656 105.758L100.093 105.385ZM12.0894 188.083L20.0844 154.571L21.6471 154.944L13.652 188.456L12.0894 188.083ZM54.3739 133.492L46.3788 167.003L47.9415 167.376L55.9366 133.864L54.3739 133.492ZM80.6683 145.923L88.6634 112.412L90.226 112.785L82.231 146.296L80.6683 145.923ZM37.2292 144.031L29.2341 177.543L30.7968 177.916L38.7918 144.404L37.2292 144.031ZM63.5236 156.463L71.5186 122.952L73.0813 123.325L65.0862 156.836L63.5236 156.463ZM105.808 101.872L97.813 135.384L99.3757 135.756L107.371 102.245L105.808 101.872ZM17.8043 184.57L25.7993 151.058L27.362 151.431L19.3669 184.942L17.8043 184.57ZM60.0888 129.978L52.0938 163.49L53.6564 163.863L61.6515 130.351L60.0888 129.978ZM86.3832 142.41L94.3783 108.899L95.9409 109.271L87.9459 142.783L86.3832 142.41ZM42.9441 140.518L34.949 174.03L36.5117 174.402L44.5067 140.891L42.9441 140.518ZM69.2385 152.95L77.2335 119.438L78.7962 119.811L70.8011 153.323L69.2385 152.95ZM111.523 98.3587L103.528 131.87L105.091 132.243L113.086 98.7315L111.523 98.3587Z" fill="#F74343"/>
<path fill-rule="evenodd" clip-rule="evenodd" d="M14.3695 137.707L6.37446 171.218L7.93712 171.591L15.9322 138.079L14.3695 137.707ZM48.659 116.627L40.6639 150.138L42.2266 150.511L50.2217 117L48.659 116.627ZM74.9534 129.059L82.9485 95.5472L84.5111 95.92L76.5161 129.432L74.9534 129.059ZM31.5143 127.167L23.5192 160.678L25.0819 161.051L33.0769 127.54L31.5143 127.167ZM57.8087 139.599L65.8037 106.087L67.3664 106.46L59.3713 139.971L57.8087 139.599ZM100.093 85.0074L92.0981 118.519L93.6608 118.892L101.656 85.3802L100.093 85.0074ZM12.0894 167.705L20.0844 134.193L21.6471 134.566L13.652 168.078L12.0894 167.705ZM54.3739 113.114L46.3788 146.625L47.9415 146.998L55.9366 113.486L54.3739 113.114ZM80.6683 125.545L88.6634 92.0339L90.226 92.4067L82.231 125.918L80.6683 125.545ZM37.2292 123.653L29.2341 157.165L30.7968 157.538L38.7918 124.026L37.2292 123.653ZM63.5236 136.085L71.5186 102.574L73.0813 102.947L65.0862 136.458L63.5236 136.085ZM105.808 81.4941L97.813 115.006L99.3757 115.378L107.371 81.8669L105.808 81.4941ZM17.8043 164.192L25.7993 130.68L27.362 131.053L19.3669 164.564L17.8043 164.192ZM60.0888 109.6L52.0938 143.112L53.6564 143.485L61.6515 109.973L60.0888 109.6ZM86.3832 122.032L94.3783 88.5206L95.9409 88.8935L87.9459 122.405L86.3832 122.032ZM42.9441 120.14L34.949 153.652L36.5117 154.025L44.5067 120.513L42.9441 120.14ZM69.2385 132.572L77.2335 99.0605L78.7962 99.4333L70.8011 132.945L69.2385 132.572ZM111.523 77.9808L103.528 111.492L105.091 111.865L113.086 78.3536L111.523 77.9808Z" fill="#F74343"/>
</g>
<g style="mix-blend-mode:screen">
<path fill-rule="evenodd" clip-rule="evenodd" d="M103.117 0.908513L103.088 7.77711C111.264 7.824 119.434 8.93154 127.39 11.0989C135.33 13.2618 142.919 16.4423 149.976 20.5363L153.297 14.8411L153.729 15.0929L150.408 20.7884C157.415 24.9027 163.893 29.9209 169.664 35.74C175.435 41.56 180.4 48.0799 184.457 55.1222L190.347 51.7549L190.595 52.1889L184.705 55.5561C188.739 62.6467 191.856 70.26 193.953 78.2165C196.044 86.1521 197.083 94.2907 197.073 102.427L204.113 102.457L204.11 102.957L197.071 102.927C197.017 111.075 195.909 119.217 193.749 127.147C191.588 135.083 188.409 142.668 184.318 149.722L190.176 153.138L189.924 153.57L184.066 150.154C179.951 157.165 174.93 163.646 169.108 169.42C163.327 175.153 156.856 180.09 149.868 184.131L153.264 190.07L152.83 190.319L149.435 184.38C142.304 188.454 134.642 191.598 126.632 193.709C118.751 195.786 110.671 196.825 102.591 196.829L102.561 203.836L102.061 203.834L102.091 196.828C93.8858 196.789 85.686 195.681 77.7016 193.506C69.8072 191.355 62.2606 188.199 55.2374 184.139L51.8792 189.899L51.4472 189.647L54.8052 183.887C47.7515 179.76 41.2326 174.717 35.4283 168.865C29.6944 163.083 24.757 156.61 20.7155 149.621L14.8303 152.986L14.5821 152.552L20.4663 149.188C16.3934 142.058 13.2495 134.397 11.1392 126.388C9.05972 118.496 8.01997 110.404 8.01914 102.312L1.06448 102.282L1.06661 101.782L8.02041 101.812C8.06291 93.6189 9.17055 85.4311 11.3425 77.458C13.4976 69.5464 16.6632 61.9839 20.7361 54.9476L15.0012 51.6039L15.253 51.1719L20.9877 54.5156C25.1103 47.4795 30.1436 40.9764 35.9836 35.1848C41.7657 29.4505 48.2386 24.5128 55.2283 20.4711L51.912 14.6702L52.3461 14.422L55.6618 20.222C62.7915 16.1495 70.452 13.0058 78.4601 10.8956C86.3687 8.81169 94.4791 7.77195 102.588 7.77556L102.617 0.906384L103.117 0.908513ZM11.8249 77.5894C13.9685 69.7201 17.1171 62.1982 21.1681 55.1995L40.1789 66.2836C37.0929 71.6272 34.6931 77.368 33.0574 83.3729C31.4044 89.441 30.5605 95.6724 30.5264 101.908L8.52041 101.814C8.56272 93.6646 9.6645 85.5202 11.8249 77.5894ZM33.5398 83.5043C35.164 77.5418 37.5467 71.8414 40.6108 66.5355L59.6225 77.6201C57.5234 81.2708 55.8896 85.1898 54.7732 89.2878C53.6392 93.4509 53.0591 97.7258 53.0333 102.004L31.0264 101.91C31.0603 95.718 31.8983 89.5301 33.5398 83.5043ZM40.8624 66.1034L59.8739 77.1879C62.0243 73.534 64.6443 70.1558 67.6805 67.1447C70.6561 64.1937 73.981 61.6454 77.5687 59.5493L66.6464 40.4439C61.3954 43.4913 56.5314 47.2079 52.1836 51.5197C47.7767 55.8902 43.977 60.796 40.8624 66.1034ZM55.2557 89.4192C56.3604 85.3636 57.9772 81.485 60.0545 77.872L81.0106 90.0903C79.9969 91.8784 79.2055 93.7933 78.6606 95.7934C78.1608 97.6282 77.8762 99.5064 77.807 101.391C77.7982 101.63 77.7928 101.87 77.791 102.109L53.5333 102.006C53.5589 97.7715 54.1331 93.54 55.2557 89.4192ZM60.3059 77.4398L81.2616 89.6579C82.3272 87.8637 83.6199 86.2039 85.1142 84.7219C86.5461 83.3019 88.1397 82.0684 89.8565 81.0434L77.8168 59.9834C74.2669 62.0579 70.977 64.5796 68.0326 67.4997C65.0275 70.4799 62.4344 73.8234 60.3059 77.4398ZM79.143 95.9259C79.6764 93.9678 80.451 92.0931 81.443 90.3424L100.979 101.733C100.963 101.775 100.95 101.819 100.938 101.863C100.907 101.976 100.888 102.092 100.882 102.208L78.291 102.111C78.2928 101.877 78.298 101.643 78.3066 101.409C78.3746 99.5632 78.6534 97.7233 79.143 95.9259ZM100.929 102.708L78.2922 102.611C78.2958 102.894 78.3044 103.176 78.3178 103.459C78.3986 105.148 78.6563 106.832 79.0909 108.481C79.6304 110.529 80.4332 112.488 81.4727 114.311L101.083 103.1C101.019 102.983 100.968 102.857 100.934 102.726C100.932 102.72 100.931 102.714 100.929 102.708ZM101.389 103.501L81.7248 114.743C82.728 116.422 83.9349 117.981 85.3238 119.381C86.787 120.857 88.4271 122.131 90.2004 123.18L101.581 103.661C101.513 103.613 101.449 103.559 101.389 103.501ZM102.028 103.886L90.6334 123.43C92.3711 124.41 94.2305 125.176 96.1718 125.704C98.2076 126.259 100.298 126.543 102.39 126.557L102.486 103.967C102.359 103.963 102.232 103.944 102.108 103.91C102.081 103.902 102.055 103.895 102.028 103.886ZM102.986 103.909L102.89 126.555C104.853 126.527 106.813 126.261 108.728 125.757C110.776 125.217 112.735 124.414 114.559 123.374L103.348 103.763C103.234 103.826 103.113 103.875 102.986 103.909ZM103.748 103.457L114.991 123.122C116.669 122.119 118.228 120.912 119.628 119.524C121.072 118.092 122.324 116.49 123.36 114.76L103.826 103.37C103.801 103.4 103.775 103.429 103.748 103.457ZM104.085 102.943L123.612 114.328C124.623 112.558 125.411 110.66 125.951 108.676C126.491 106.695 126.775 104.663 126.802 102.628L104.198 102.532C104.188 102.601 104.174 102.671 104.155 102.739C104.136 102.809 104.113 102.877 104.085 102.943ZM104.192 102.032L126.804 102.128C126.797 101.164 126.733 100.2 126.611 99.2418C126.514 98.4795 126.381 97.7207 126.211 96.968C126.147 96.6846 126.078 96.4021 126.004 96.1205C125.478 94.1256 124.702 92.2147 123.701 90.4308L104.08 101.648C104.112 101.722 104.138 101.798 104.159 101.876C104.172 101.928 104.183 101.979 104.192 102.032ZM103.818 101.222L123.452 89.9974C122.433 88.2654 121.198 86.6595 119.771 85.2204C118.341 83.7784 116.742 82.5281 115.014 81.4932L103.624 101.029C103.661 101.06 103.696 101.093 103.73 101.127C103.761 101.158 103.79 101.189 103.818 101.222ZM103.199 100.766L114.583 81.2407C112.81 80.2277 110.909 79.4383 108.923 78.8971C106.914 78.3499 104.853 78.066 102.789 78.0454L102.692 100.64C102.791 100.649 102.889 100.666 102.985 100.692C103.058 100.712 103.129 100.737 103.199 100.766ZM102.192 100.672L102.289 78.0456C100.298 78.0669 98.3084 78.3332 96.3665 78.8449C94.3193 79.3843 92.3607 80.187 90.537 81.2263L101.748 100.837C101.866 100.773 101.991 100.723 102.121 100.689C102.145 100.682 102.169 100.677 102.192 100.672ZM101.347 101.143L90.1051 81.4783C88.4259 82.4817 86.8671 83.6887 85.4664 85.0779C84.0033 86.5288 82.7376 88.1537 81.694 89.91L101.218 101.293C101.258 101.241 101.301 101.19 101.347 101.143ZM21.4197 54.7674L40.4304 65.8515C43.5669 60.5066 47.3935 55.5661 51.8316 51.1647C56.2105 46.822 61.1095 43.0789 66.3983 40.0099L55.4764 20.9052C48.5246 24.9252 42.0866 29.8364 36.3357 35.5398C30.5268 41.3006 25.5204 47.7689 21.4197 54.7674ZM8.51914 102.314C8.52015 110.362 9.5544 118.411 11.6227 126.261C13.7218 134.227 16.8491 141.847 20.9004 148.94L40.0052 138.018C36.9038 132.587 34.5097 126.752 32.9025 120.653C31.3266 114.672 30.5344 108.54 30.5254 102.408L8.51914 102.314ZM31.0254 102.41C31.0346 108.499 31.8213 114.587 33.386 120.526C34.982 126.583 37.3595 132.377 40.4393 137.77L59.5448 126.847C57.4151 123.116 55.7709 119.108 54.6668 114.918C53.5944 110.848 53.0499 106.677 53.0329 102.504L31.0254 102.41ZM53.5329 102.506C53.5501 106.635 54.0891 110.763 55.1503 114.791C56.2432 118.938 57.8707 122.906 59.9789 126.599L81.0382 114.56C79.9773 112.698 79.158 110.699 78.6074 108.61C78.1648 106.93 77.902 105.216 77.819 103.495C77.8048 103.2 77.7958 102.905 77.7921 102.609L53.5329 102.506ZM35.7834 168.513C30.0804 162.762 25.1694 156.325 21.1495 149.373L40.2546 138.451C43.3235 143.739 47.0662 148.638 51.4085 153.016C55.8225 157.467 60.7788 161.303 66.1414 164.444L55.057 183.456C48.0409 179.35 41.5568 174.334 35.7834 168.513ZM51.7635 152.664C47.4522 148.317 43.7359 143.453 40.6887 138.203L59.7949 127.28C61.8908 130.868 64.4389 134.192 67.3897 137.168C70.4131 140.216 73.8067 142.845 77.4779 145.001L66.3933 164.012C61.0683 160.893 56.1466 157.084 51.7635 152.664ZM67.7447 136.815C64.8248 133.871 62.3033 130.582 60.229 127.032L81.2901 114.992C82.3151 116.709 83.5487 118.302 84.9688 119.734C86.4627 121.241 88.1373 122.542 89.948 123.613L77.7298 144.569C74.0961 142.435 70.7373 139.833 67.7447 136.815ZM55.4892 183.707C62.4748 187.745 69.981 190.884 77.833 193.023C85.7751 195.187 93.9314 196.289 102.093 196.328L102.186 174.321C95.9393 174.29 89.696 173.446 83.6167 171.79C77.6291 170.159 71.9041 167.769 66.5737 164.695L55.4892 183.707ZM66.8256 164.264C72.1184 167.315 77.8029 169.688 83.7481 171.308C89.7851 172.952 95.9849 173.79 102.189 173.821L102.282 151.815C97.9931 151.792 93.7068 151.212 89.5328 150.075C85.4518 148.963 81.5481 147.338 77.9104 145.252L66.8256 164.264ZM78.1622 144.82C81.7624 146.884 85.6255 148.492 89.6642 149.592C93.7958 150.718 98.0387 151.292 102.284 151.315L102.388 127.058C100.252 127.044 98.1185 126.754 96.0404 126.188C94.0566 125.648 92.1565 124.865 90.381 123.863L78.1622 144.82ZM126.504 193.226C118.666 195.291 110.629 196.325 102.593 196.329L102.686 174.322C108.807 174.31 114.927 173.518 120.897 171.945C126.997 170.338 132.833 167.943 138.265 164.841L149.187 183.946C142.093 187.998 134.472 191.126 126.504 193.226ZM120.769 171.462C114.842 173.023 108.766 173.81 102.689 173.822L102.782 151.815C106.944 151.795 111.104 151.251 115.163 150.181C119.354 149.077 123.363 147.432 127.095 145.302L138.016 164.407C132.623 167.487 126.828 169.865 120.769 171.462ZM115.035 149.698C111.019 150.756 106.902 151.295 102.784 151.315L102.888 127.056C104.894 127.029 106.898 126.757 108.856 126.241C110.946 125.69 112.946 124.871 114.808 123.809L126.846 144.868C123.152 146.977 119.184 148.605 115.035 149.698ZM149.62 183.697C156.57 179.677 163.007 174.767 168.756 169.065C174.547 163.322 179.54 156.876 183.634 149.902L164.623 138.818C161.493 144.138 157.68 149.056 153.26 153.439C148.882 157.781 143.985 161.523 138.698 164.591L149.62 183.697ZM138.45 164.157C143.699 161.11 148.561 157.395 152.908 153.084C157.297 148.732 161.083 143.848 164.191 138.566L145.18 127.482C143.037 131.11 140.43 134.466 137.412 137.458C134.438 140.408 131.114 142.956 127.528 145.052L138.45 164.157ZM127.279 144.618C130.828 142.544 134.117 140.023 137.06 137.103C140.047 134.141 142.627 130.821 144.748 127.23L123.792 115.012C122.735 116.78 121.456 118.417 119.98 119.88C118.549 121.299 116.956 122.533 115.24 123.557L127.279 144.618ZM193.267 127.015C191.117 134.909 187.955 142.453 183.886 149.471L164.875 138.386C167.979 133.024 170.392 127.26 172.034 121.231C173.675 115.207 174.519 109.022 174.564 102.831L196.571 102.925C196.517 111.03 195.415 119.128 193.267 127.015ZM171.552 121.1C169.921 127.087 167.525 132.81 164.443 138.134L145.432 127.05C147.55 123.38 149.197 119.438 150.32 115.315C151.442 111.196 152.022 106.968 152.059 102.736L174.064 102.829C174.019 108.976 173.181 115.118 171.552 121.1ZM149.837 115.184C148.726 119.265 147.096 123.166 145 126.798L124.045 114.58C125.077 112.773 125.882 110.834 126.434 108.808C126.985 106.785 127.275 104.709 127.302 102.63L151.559 102.733C151.522 106.922 150.948 111.107 149.837 115.184ZM196.573 102.425C196.583 94.3321 195.549 86.237 193.469 78.3439C191.384 70.4298 188.284 62.8571 184.271 55.8043L165.166 66.7262C168.229 72.1171 170.596 77.9038 172.189 83.9508C173.776 89.9756 174.569 96.154 174.566 102.331L196.573 102.425ZM174.066 102.329C174.068 96.1954 173.282 90.0605 171.705 84.0782C170.123 78.0737 167.773 72.3275 164.732 66.9744L145.628 77.8959C147.719 81.5871 149.336 85.5475 150.426 89.6851C151.51 93.7991 152.055 98.0173 152.06 102.236L174.066 102.329ZM151.56 102.233C151.555 98.0587 151.016 93.8841 149.943 89.8125C148.864 85.7174 147.263 81.7975 145.194 78.144L124.136 90.1825C125.158 92.0039 125.95 93.955 126.487 95.9921C126.593 96.3946 126.689 96.7992 126.774 97.2053C126.912 97.8595 127.023 98.5178 127.107 99.1787C127.231 100.159 127.297 101.144 127.304 102.13L151.56 102.233ZM169.309 36.0921C175.049 41.8809 179.988 48.3659 184.022 55.3703L164.918 66.2923C161.834 60.9508 158.063 56.0048 153.683 51.5878C149.302 47.1707 144.388 43.3594 139.072 40.2313L150.156 21.2203C157.126 25.3127 163.568 30.3041 169.309 36.0921ZM153.328 51.9399C157.677 56.3257 161.421 61.2368 164.483 66.5405L145.379 77.4621C143.268 73.8215 140.692 70.4494 137.703 67.4355C134.713 64.4204 131.361 61.8158 127.736 59.6738L138.82 40.6632C144.098 43.7694 148.978 47.554 153.328 51.9399ZM137.348 67.7876C140.306 70.7703 142.856 74.1074 144.945 77.7103L123.887 89.749C122.846 87.979 121.584 86.3378 120.126 84.8673C118.665 83.3943 117.031 82.1173 115.267 81.0606L127.484 60.1058C131.071 62.2258 134.389 64.8036 137.348 67.7876ZM149.724 20.9683C142.704 16.8962 135.157 13.7327 127.259 11.5813C119.345 9.42549 111.218 8.32381 103.086 8.2771L102.992 30.2829C109.21 30.3214 115.424 31.1652 121.475 32.8136C127.508 34.4571 133.275 36.8719 138.64 39.9792L149.724 20.9683ZM138.388 40.4111C133.061 37.3258 127.334 34.928 121.343 33.296C115.335 31.6592 109.165 30.8213 102.99 30.7829L102.896 52.7887C107.157 52.8188 111.414 53.3988 115.56 54.5283C119.687 55.6524 123.632 57.3013 127.304 59.4216L138.388 40.4111ZM127.053 59.8536C123.418 57.7552 119.513 56.1233 115.429 55.0107C111.325 53.8928 107.111 53.3186 102.894 53.2887L102.791 77.5445C104.898 77.5652 107.003 77.855 109.054 78.4137C111.083 78.9665 113.025 79.773 114.835 80.8081L127.053 59.8536ZM78.5875 11.3791C86.4537 9.30638 94.5205 8.27213 102.586 8.27556L102.492 30.2815C96.3425 30.2861 90.1924 31.0783 84.1946 32.6587C78.0959 34.2658 72.2618 36.6595 66.8316 39.7604L55.9099 20.656C63.0019 16.6051 70.6218 13.4781 78.5875 11.3791ZM84.322 33.1422C90.2773 31.573 96.3839 30.7863 102.49 30.7815L102.396 52.7877C98.2062 52.8004 94.0167 53.345 89.9301 54.4218C85.7404 55.5258 81.7325 57.1698 78.0017 59.2993L67.0798 40.1945C72.4722 37.1152 78.2657 34.7381 84.322 33.1422ZM90.0575 54.9053C94.1017 53.8397 98.2476 53.3006 102.394 53.2877L102.291 77.5446C100.256 77.5657 98.2234 77.8375 96.239 78.3604C94.1493 78.9111 92.1499 79.7305 90.2884 80.7914L78.2498 59.7334C81.9429 57.6255 85.9103 55.9981 90.0575 54.9053Z" fill="white"/>
</g>
<circle cx="77.362" cy="12.8168" r="8.23979" transform="rotate(0.237983 77.362 12.8168)" fill="white" stroke="#4396F7" stroke-width="1.08116"/>
<circle cx="127.173" cy="13.0228" r="8.23979" transform="rotate(0.237983 127.173 13.0228)" fill="white" stroke="#4396F7" stroke-width="1.08116"/>
<circle cx="167.642" cy="34.5961" r="8.23979" transform="rotate(0.237983 167.642 34.5961)" fill="white" stroke="#4396F7" stroke-width="1.08116"/>
<circle cx="193.236" cy="78.6859" r="8.23979" transform="rotate(0.237983 193.236 78.6859)" fill="white" stroke="#4396F7" stroke-width="1.08116"/>
<circle cx="193.034" cy="127.299" r="8.23979" transform="rotate(0.237983 193.034 127.299)" fill="white" stroke="#4396F7" stroke-width="1.08116"/>
<circle cx="169.015" cy="169.494" r="8.23979" transform="rotate(0.237983 169.015 169.494)" fill="white" stroke="#4396F7" stroke-width="1.08116"/>
<circle cx="126.416" cy="195.058" r="8.23979" transform="rotate(0.237983 126.416 195.058)" fill="white" stroke="#4396F7" stroke-width="1.08116"/>
<circle cx="79.4303" cy="194.863" r="8.23979" transform="rotate(0.237983 79.4303 194.863)" fill="white" stroke="#4396F7" stroke-width="1.08116"/>
<circle cx="34.9186" cy="168.938" r="8.23979" transform="rotate(0.237983 34.9186 168.938)" fill="white" stroke="#4396F7" stroke-width="1.08116"/>
<circle cx="10.8366" cy="127.602" r="8.23979" transform="rotate(0.237983 10.8366 127.602)" fill="white" stroke="#4396F7" stroke-width="1.08116"/>
<circle cx="12.2057" cy="77.934" r="8.23979" transform="rotate(0.237983 12.2057 77.934)" fill="white" stroke="#4396F7" stroke-width="1.08116"/>
<circle cx="35.1745" cy="38.4271" r="8.23979" transform="rotate(0.237983 35.1745 38.4271)" fill="white" stroke="#4396F7" stroke-width="1.08116"/>
<path d="M103.854 113.141L103.292 113.139C103.124 114.064 102.362 114.285 101.523 114.282L101.52 114.87L103.112 114.877L103.093 119.27L103.829 119.273L103.854 113.141Z" fill="black"/>
<path d="M101.781 139.502C101.758 138.767 102.125 137.981 102.981 137.985C103.63 137.988 104.164 138.431 104.161 139.097C104.158 139.945 103.629 140.323 102.588 140.959C101.721 141.491 100.984 142.007 100.856 143.46L104.861 143.476L104.864 142.828L101.715 142.815C101.866 142.054 102.672 141.668 103.443 141.204C104.206 140.732 104.935 140.19 104.94 139.109C104.945 137.967 104.099 137.341 103.027 137.336C101.73 137.331 100.991 138.253 101.046 139.499L101.781 139.502Z" fill="black"/>
<path d="M102.447 164.477C102.585 164.46 102.741 164.452 102.888 164.453C103.615 164.456 104.192 164.865 104.189 165.635C104.186 166.379 103.57 166.817 102.852 166.814C102.013 166.811 101.574 166.255 101.552 165.46L100.817 165.456C100.785 166.719 101.604 167.458 102.85 167.463C104 167.468 104.963 166.832 104.968 165.603C104.971 164.868 104.61 164.279 103.867 164.111L103.867 164.094C104.335 163.88 104.717 163.414 104.72 162.878C104.724 161.745 103.922 161.231 102.858 161.227C101.63 161.222 101.004 162.032 100.956 163.2L101.691 163.203C101.703 162.485 102.051 161.872 102.855 161.875C103.478 161.878 103.944 162.226 103.941 162.866C103.938 163.532 103.392 163.867 102.769 163.864C102.666 163.864 102.562 163.864 102.449 163.854L102.447 164.477Z" fill="black"/>
<path d="M104.105 183.785L103.517 183.783L100.707 187.758L100.704 188.468L103.394 188.479L103.388 189.914L104.08 189.917L104.086 188.482L104.916 188.485L104.919 187.836L104.088 187.833L104.105 183.785ZM101.338 187.821L103.391 184.829L103.409 184.829L103.396 187.83L101.338 187.821Z" fill="black"/>
<path d="M126.072 11.3731C126.05 10.6378 126.416 9.85225 127.272 9.8558C127.921 9.8585 128.455 10.3018 128.453 10.9678C128.449 11.8154 127.92 12.1938 126.879 12.8296C126.012 13.3622 125.275 13.8781 125.148 15.3307L129.152 15.3473L129.155 14.6986L126.007 14.6855C126.157 13.925 126.963 13.5391 127.735 13.0753C128.498 12.6027 129.227 12.0609 129.231 10.9797C129.236 9.83801 128.391 9.21175 127.318 9.20729C126.021 9.2019 125.282 10.1243 125.337 11.3701L126.072 11.3731Z" fill="black"/>
<path d="M78.1747 9.00328L77.6125 9.00094C77.4443 9.92573 76.6823 10.1474 75.8433 10.144L75.8408 10.7321L77.4323 10.7387L77.414 15.1325L78.1492 15.1356L78.1747 9.00328Z" fill="black"/>
<path d="M167.126 34.3139C167.264 34.2972 167.42 34.2892 167.567 34.2898C168.294 34.2928 168.871 34.7017 168.868 35.4715C168.865 36.2153 168.249 36.6539 167.531 36.6509C166.692 36.6474 166.253 36.092 166.231 35.2962L165.496 35.2932C165.464 36.5558 166.283 37.2944 167.529 37.2996C168.679 37.3044 169.642 36.6683 169.647 35.4401C169.65 34.705 169.289 34.1153 168.546 33.9479L168.546 33.9306C169.014 33.7163 169.396 33.2508 169.399 32.7146C169.403 31.5815 168.601 31.0679 167.537 31.0634C166.309 31.0583 165.683 31.8688 165.635 33.0363L166.37 33.0393C166.382 32.3215 166.73 31.7088 167.534 31.7121C168.157 31.7147 168.623 32.0626 168.62 32.7027C168.617 33.3687 168.071 33.7037 167.448 33.7011C167.345 33.7007 167.241 33.7003 167.128 33.6912L167.126 34.3139Z" fill="black"/>
<path d="M34.9881 37.9295C35.8271 37.933 36.2223 38.566 36.2192 39.3272C36.2162 40.0537 35.7724 40.6833 34.9767 40.68C34.1723 40.6766 33.7078 40.0692 33.711 39.3081C33.7141 38.5383 34.1665 37.9261 34.9881 37.9295ZM36.8357 36.6657C36.7533 35.6707 36.1243 35.0972 35.1124 35.093C33.3652 35.0858 32.8483 36.6838 32.8413 38.3704C32.8359 39.6591 33.1231 41.321 34.9394 41.3285C36.4876 41.3349 36.9941 40.1694 36.9978 39.2785C37.0025 38.1455 36.3055 37.2863 35.1292 37.2814C34.4632 37.2786 33.9433 37.5186 33.595 38.0794L33.5777 38.062C33.6163 37.1194 33.8209 35.7364 35.0751 35.7416C35.6546 35.744 36.0336 36.1088 36.1005 36.6627L36.8357 36.6657Z" fill="black"/>
<path d="M194.474 74.8259L193.885 74.8234L191.075 78.7991L191.072 79.5083L193.762 79.5195L193.756 80.9553L194.448 80.9581L194.454 79.5224L195.284 79.5258L195.287 78.8771L194.457 78.8737L194.474 74.8259ZM191.706 78.8623L193.76 75.8695L193.777 75.8695L193.765 78.8708L191.706 78.8623Z" fill="black"/>
<path d="M194.714 124.195L191.687 124.183L191.103 127.363L191.734 127.4C192.021 127.056 192.411 126.824 192.878 126.826C193.7 126.829 194.26 127.411 194.256 128.224C194.252 129.201 193.653 129.674 192.953 129.672C192.218 129.668 191.709 129.191 191.669 128.559L190.933 128.556C190.955 129.663 191.817 130.316 192.881 130.32C194.308 130.326 195.03 129.326 195.034 128.288C195.04 126.886 194.152 126.182 193.062 126.178C192.647 126.176 192.188 126.312 191.919 126.614L191.902 126.597L192.238 124.834L194.711 124.844L194.714 124.195Z" fill="black"/>
<path d="M9.55349 128.534C9.55643 127.825 10.1292 127.36 10.8558 127.363C11.5477 127.366 12.1165 127.87 12.1137 128.536C12.1109 129.22 11.5898 129.728 10.8546 129.725C10.0935 129.722 9.55043 129.269 9.55349 128.534ZM9.00307 125.695C9.00077 126.249 9.34462 126.76 9.85406 126.97C9.16977 127.209 8.77822 127.77 8.7752 128.496C8.76999 129.751 9.67561 130.368 10.8519 130.373C11.9849 130.378 12.8873 129.699 12.8922 128.514C12.8954 127.752 12.543 127.215 11.8088 126.978C12.3114 126.755 12.6594 126.255 12.6617 125.71C12.6649 124.932 12.1492 124.143 10.8086 124.137C9.86585 124.133 9.00728 124.683 9.00307 125.695ZM9.78139 125.724C9.78394 125.11 10.2697 124.783 10.8578 124.786C11.4546 124.788 11.8857 125.119 11.8832 125.733C11.8806 126.356 11.4466 126.717 10.8671 126.715C10.2617 126.712 9.77859 126.399 9.78139 125.724Z" fill="black"/>
<path d="M14.1558 74.8313L10.1858 74.8148L10.1829 75.5068L13.4004 75.5201C12.106 76.8813 11.1035 78.7714 10.9565 80.8466L11.7782 80.85C11.8986 78.9304 12.9112 76.6858 14.1532 75.4627L14.1558 74.8313Z" fill="black"/>
<path d="M167.306 166.268L166.744 166.265C166.575 167.19 165.813 167.412 164.974 167.408L164.972 167.997L166.563 168.003L166.545 172.397L167.28 172.4L167.306 166.268ZM170.14 168.45C170.117 167.715 170.483 166.93 171.339 166.933C171.988 166.936 172.523 167.379 172.52 168.045C172.516 168.893 171.987 169.271 170.947 169.907C170.079 170.44 169.342 170.955 169.215 172.408L173.219 172.425L173.222 171.776L170.074 171.763C170.224 171.002 171.03 170.617 171.802 170.153C172.565 169.68 173.294 169.138 173.298 168.057C173.303 166.915 172.458 166.289 171.385 166.285C170.088 166.279 169.349 167.202 169.404 168.447L170.14 168.45Z" fill="black"/>
<path d="M36.0606 167.339C36.0576 168.066 35.5707 168.686 34.8009 168.683C34.0916 168.68 33.5926 168.056 33.5954 167.381C33.5985 166.628 33.9301 165.929 34.8037 165.933C35.6253 165.936 36.0637 166.587 36.0606 167.339ZM32.9361 169.93C33.0268 170.985 33.7598 171.516 34.7891 171.52C36.2768 171.526 36.9217 170.344 36.9305 168.225C36.9402 165.907 35.9826 165.289 34.8409 165.284C33.656 165.279 32.8223 166.089 32.8174 167.274C32.8124 168.485 33.5008 169.327 34.7463 169.332C35.3431 169.334 35.8894 169.008 36.1683 168.49L36.1855 168.507C36.1357 170.09 35.6913 170.875 34.7918 170.872C34.2036 170.869 33.7207 170.53 33.6713 169.933L32.9361 169.93Z" fill="black"/>
<path d="M124.886 191.944L124.324 191.942C124.156 192.867 123.393 193.089 122.555 193.085L122.552 193.673L124.144 193.68L124.125 198.074L124.86 198.077L124.886 191.944ZM129.692 191.964L129.13 191.962C128.962 192.887 128.2 193.109 127.361 193.105L127.358 193.693L128.95 193.7L128.931 198.094L129.667 198.097L129.692 191.964Z" fill="black"/>
<path d="M77.6906 191.749L77.1284 191.747C76.9602 192.672 76.1982 192.893 75.3592 192.89L75.3568 193.478L76.9482 193.485L76.93 197.878L77.6651 197.881L77.6906 191.749ZM79.7679 194.88C79.7622 196.229 79.876 197.994 81.7961 198.002C83.7163 198.01 83.8447 196.246 83.8503 194.897C83.8559 193.539 83.7422 191.774 81.822 191.766C79.9019 191.758 79.7735 193.522 79.7679 194.88ZM80.5463 194.875C80.5501 193.967 80.5652 192.41 81.8193 192.415C83.0735 192.42 83.0757 193.977 83.0719 194.885C83.0681 195.802 83.053 197.359 81.7988 197.354C80.5447 197.348 80.5425 195.792 80.5463 194.875Z" fill="black"/>
</svg>
