<svg width="197" height="197" viewBox="0 0 197 197" fill="none" xmlns="http://www.w3.org/2000/svg">
<path d="M170.427 99.5409C170.591 87.0248 167.471 74.6844 161.377 63.7507L141.867 74.6242C146.06 82.1466 148.207 90.6368 148.094 99.2479L170.427 99.5409Z" fill="#4396F7"/>
<path d="M161.261 63.3072C155.044 52.4796 146.103 43.4664 135.326 37.1624L124.049 56.4413C131.463 60.7785 137.615 66.9796 141.892 74.4289L161.261 63.3072Z" fill="#F74343"/>
<path d="M98.6905 27.0146C86.1753 27.0407 73.8857 30.3475 63.0471 36.605L74.2146 55.9477C81.6715 51.6425 90.1267 49.3675 98.7372 49.3495L98.6905 27.0146Z" fill="#4396F7"/>
<path d="M62.6923 36.8056C51.8889 43.1237 42.9308 52.1637 36.7111 63.024L56.0928 74.1238C60.3719 66.6519 66.5351 60.4323 73.9678 56.0855L62.6923 36.8056Z" fill="#4396F7"/>
<path d="M36.5324 63.2957C30.3126 74.1559 27.0487 86.457 27.0662 98.9723L49.4012 98.9411C49.3892 90.3306 51.6347 81.8675 55.9139 74.3956L36.5324 63.2957Z" fill="#4396F7"/>
<path d="M27.067 99.1887C27.1223 111.704 30.4576 123.986 36.7403 134.81L56.057 123.597C51.7345 116.15 49.4398 107.7 49.4018 99.0901L27.067 99.1887Z" fill="#F74343"/>
<path d="M62.4923 161.061C73.5884 167.399 86.1789 170.652 98.9567 170.482L98.6586 148.149C89.8674 148.266 81.2051 146.028 73.571 141.667L62.4923 161.061Z" fill="#4396F7"/>
<path d="M160.274 135.365C166.788 124.479 170.293 112.059 170.43 99.3737L148.096 99.1332C148.002 107.86 145.59 116.406 141.109 123.895L160.274 135.365Z" fill="#4396F7"/>
<path d="M134.536 160.938C145.311 154.818 154.313 146.006 160.661 135.364L141.479 123.922C137.112 131.244 130.919 137.307 123.505 141.517L134.536 160.938Z" fill="#F74343"/>
<path d="M135.131 37.1238C123.865 30.5277 111.009 27.1381 97.9555 27.3217C84.9017 27.5052 72.1466 31.255 61.0703 38.1653L72.8925 57.1149C80.513 52.3606 89.2885 49.7808 98.2695 49.6545C107.251 49.5282 116.095 51.8602 123.846 56.3983L135.131 37.1238Z" fill="#4396F7"/>
</svg>
