<svg width="205" height="205" viewBox="0 0 205 205" fill="none" xmlns="http://www.w3.org/2000/svg">
<g style="mix-blend-mode:darken" opacity="0.3">
<path fill-rule="evenodd" clip-rule="evenodd" d="M103.084 1.17316L103.055 8.04176C111.231 8.08864 119.401 9.19619 127.357 11.3635C135.297 13.5264 142.885 16.707 149.943 20.801L153.264 15.1057L153.696 15.3576L150.375 21.053C157.382 25.1673 163.859 30.1855 169.63 36.0047C175.402 41.8247 180.367 48.3446 184.423 55.3868L190.314 52.0195L190.562 52.4536L184.672 55.8208C188.706 62.9114 191.823 70.5247 193.919 78.4811C196.01 86.4167 197.05 94.5554 197.039 102.692L204.079 102.722L204.077 103.222L197.037 103.192C196.984 111.34 195.876 119.482 193.716 127.411C191.554 135.347 188.376 142.932 184.285 149.987L190.143 153.402L189.891 153.834L184.033 150.419C179.917 157.43 174.897 163.911 169.075 169.685C163.294 175.418 156.823 180.354 149.835 184.395L153.231 190.335L152.797 190.583L149.402 184.645C142.271 188.718 134.609 191.863 126.599 193.974C118.718 196.05 110.637 197.09 102.557 197.094L102.527 204.101L102.027 204.099L102.057 197.093C93.8526 197.053 85.6528 195.945 77.6684 193.77C69.774 191.62 62.2274 188.464 55.2042 184.404L51.846 190.163L51.414 189.911L54.7719 184.152C47.7183 180.025 41.1994 174.982 35.3951 169.129C29.6612 163.348 24.7238 156.875 20.6822 149.886L14.797 153.25L14.5489 152.816L20.4331 149.452C16.3602 142.322 13.2163 134.661 11.106 126.653C9.02652 118.761 7.98677 110.668 7.98594 102.577L1.03128 102.547L1.03341 102.047L7.98721 102.077C8.0297 93.8836 9.13734 85.6957 11.3093 77.7226C13.4644 69.811 16.63 62.2486 20.7029 55.2123L14.9679 51.8685L15.2198 51.4366L20.9545 54.7802C25.0771 47.7442 30.1104 41.2411 35.9504 35.4494C41.7325 29.7151 48.2054 24.7774 55.1951 20.7357L51.8788 14.9348L52.3129 14.6867L55.6286 20.4866C62.7583 16.4141 70.4188 13.2704 78.4269 11.1603C86.3355 9.07634 94.4459 8.0366 102.555 8.04021L102.584 1.17103L103.084 1.17316ZM11.7917 77.854C13.9353 69.9848 17.0839 62.4628 21.1349 55.4641L40.1457 66.5483C37.0596 71.8918 34.6599 77.6327 33.0242 83.6375C31.3712 89.7056 30.5273 95.937 30.4932 102.173L8.4872 102.079C8.52951 93.9292 9.6313 85.7848 11.7917 77.854ZM33.5066 83.769C35.1308 77.8064 37.5135 72.1061 40.5776 66.8001L59.5893 77.8848C57.4902 81.5354 55.8563 85.4545 54.74 89.5525C53.606 93.7156 53.0259 97.9905 53.0001 102.268L30.9932 102.175C31.0271 95.9827 31.8651 89.7947 33.5066 83.769ZM40.8292 66.368L59.8407 77.4526C61.9911 73.7987 64.6111 70.4204 67.6473 67.4093C70.6229 64.4583 73.9478 61.9101 77.5355 59.814L66.6132 40.7086C61.3622 43.756 56.4982 47.4726 52.1504 51.7844C47.7435 56.1548 43.9438 61.0607 40.8292 66.368ZM55.2225 89.6839C56.3272 85.6283 57.944 81.7496 60.0213 78.1366L80.9774 90.355C79.9637 92.143 79.1723 94.0579 78.6274 96.0581C78.1276 97.8928 77.843 99.7711 77.7738 101.655C77.765 101.895 77.7596 102.134 77.7578 102.374L53.5001 102.271C53.5257 98.0361 54.0999 93.8047 55.2225 89.6839ZM60.2727 77.7044L81.2284 89.9225C82.294 88.1284 83.5867 86.4685 85.081 84.9865C86.5129 83.5665 88.1065 82.333 89.8233 81.308L77.7836 60.2481C74.2337 62.3226 70.9438 64.8443 67.9994 67.7644C64.9943 70.7446 62.4012 74.0881 60.2727 77.7044ZM79.1098 96.1905C79.6432 94.2325 80.4178 92.3577 81.4098 90.6071L100.946 101.997C100.93 102.04 100.916 102.083 100.904 102.127C100.874 102.241 100.855 102.356 100.848 102.472L78.2578 102.376C78.2596 102.142 78.2648 101.908 78.2734 101.674C78.3414 99.8278 78.6202 97.9879 79.1098 96.1905ZM100.896 102.973L78.259 102.876C78.2626 103.159 78.2712 103.441 78.2846 103.723C78.3654 105.413 78.6231 107.096 79.0577 108.746C79.5972 110.793 80.4 112.752 81.4395 114.576L101.05 103.365C100.985 103.247 100.935 103.122 100.901 102.991C100.899 102.985 100.898 102.979 100.896 102.973ZM101.356 103.766L81.6916 115.008C82.6948 116.687 83.9017 118.245 85.2906 119.646C86.7538 121.121 88.3939 122.396 90.1672 123.445L101.548 103.925C101.48 103.877 101.416 103.824 101.356 103.766ZM101.995 104.151L90.6001 123.695C92.3379 124.674 94.1973 125.44 96.1386 125.969C98.1744 126.524 100.265 126.808 102.357 126.821L102.453 104.232C102.326 104.227 102.199 104.208 102.075 104.174C102.048 104.167 102.022 104.159 101.995 104.151ZM102.953 104.174L102.857 126.82C104.82 126.792 106.78 126.526 108.695 126.021C110.743 125.482 112.702 124.679 114.526 123.639L103.314 104.028C103.201 104.09 103.079 104.139 102.953 104.174ZM103.715 103.721L114.958 123.387C116.636 122.384 118.195 121.177 119.595 119.788C121.039 118.356 122.291 116.755 123.327 115.024L103.792 103.635C103.768 103.665 103.742 103.693 103.715 103.721ZM104.052 103.208L123.579 114.593C124.59 112.822 125.378 110.924 125.918 108.94C126.458 106.96 126.741 104.928 126.769 102.893L104.164 102.796C104.155 102.866 104.141 102.935 104.122 103.004C104.103 103.073 104.08 103.142 104.052 103.208ZM104.159 102.296L126.77 102.393C126.764 101.429 126.699 100.465 126.578 99.5064C126.481 98.7442 126.347 97.9854 126.178 97.2326C126.114 96.9492 126.045 96.6667 125.971 96.3852C125.445 94.3902 124.669 92.4793 123.668 90.6955L104.047 101.913C104.079 101.986 104.105 102.063 104.125 102.141C104.139 102.192 104.15 102.244 104.159 102.296ZM103.784 101.487L123.419 90.262C122.4 88.5301 121.165 86.9242 119.738 85.485C118.308 84.0431 116.709 82.7928 114.981 81.7579L103.591 101.294C103.628 101.325 103.663 101.357 103.697 101.392C103.727 101.422 103.757 101.454 103.784 101.487ZM103.165 101.031L114.55 81.5054C112.777 80.4924 110.876 79.7029 108.89 79.1617C106.881 78.6146 104.819 78.3306 102.756 78.3101L102.659 100.905C102.758 100.913 102.855 100.931 102.951 100.957C103.025 100.977 103.096 101.002 103.165 101.031ZM102.159 100.936L102.256 78.3103C100.264 78.3315 98.2752 78.5979 96.3333 79.1096C94.2861 79.649 92.3275 80.4516 90.5038 81.4909L101.715 101.102C101.832 101.038 101.958 100.988 102.088 100.953C102.112 100.947 102.135 100.941 102.159 100.936ZM101.314 101.407L90.0719 81.743C88.3927 82.7463 86.8339 83.9533 85.4331 85.3425C83.9701 86.7935 82.7044 88.4184 81.6608 90.1746L101.185 101.558C101.225 101.505 101.268 101.455 101.314 101.407ZM21.3865 55.0321L40.3972 66.1162C43.5337 60.7713 47.3603 55.8307 51.7984 51.4294C56.1773 47.0866 61.0763 43.3435 66.3651 40.2745L55.4432 21.1698C48.4914 25.1899 42.0534 30.1011 36.3025 35.8044C30.4936 41.5652 25.4872 48.0336 21.3865 55.0321ZM8.48594 102.579C8.48695 110.627 9.5212 118.676 11.5895 126.525C13.6886 134.492 16.8159 142.112 20.8672 149.204L39.972 138.282C36.8706 132.852 34.4765 127.017 32.8693 120.918C31.2934 114.937 30.5012 108.805 30.4922 102.673L8.48594 102.579ZM30.9922 102.675C31.0014 108.763 31.7881 114.852 33.3528 120.79C34.9488 126.847 37.3263 132.641 40.4061 138.034L59.5116 127.112C57.3819 123.381 55.7377 119.373 54.6336 115.183C53.5612 111.113 53.0167 106.941 52.9997 102.768L30.9922 102.675ZM53.4997 102.771C53.5169 106.9 54.0559 111.028 55.1171 115.055C56.21 119.203 57.8375 123.17 59.9457 126.864L81.005 114.825C79.9441 112.963 79.1248 110.964 78.5742 108.874C78.1316 107.195 77.8688 105.48 77.7858 103.76C77.7716 103.464 77.7626 103.169 77.7589 102.874L53.4997 102.771ZM35.7502 168.777C30.0472 163.027 25.1362 156.589 21.1163 149.638L40.2214 138.716C43.2903 144.004 47.033 148.902 51.3753 153.281C55.7893 157.732 60.7456 161.567 66.1082 164.709L55.0238 183.72C48.0077 179.615 41.5236 174.599 35.7502 168.777ZM51.7303 152.929C47.419 148.581 43.7027 143.718 40.6555 138.468L59.7617 127.545C61.8576 131.132 64.4057 134.457 67.3565 137.432C70.3799 140.481 73.7735 143.11 77.4447 145.265L66.3601 164.277C61.0351 161.157 56.1134 157.348 51.7303 152.929ZM67.7115 137.08C64.7916 134.136 62.2701 130.846 60.1957 127.297L81.2569 115.256C82.2819 116.973 83.5155 118.567 84.9356 119.999C86.4295 121.505 88.1041 122.807 89.9148 123.877L77.6966 144.833C74.0629 142.7 70.7041 140.098 67.7115 137.08ZM55.456 183.972C62.4416 188.01 69.9478 191.149 77.7998 193.288C85.7419 195.452 93.8982 196.553 102.059 196.593L102.153 174.586C95.9061 174.555 89.6628 173.711 83.5835 172.055C77.5959 170.424 71.8709 168.033 66.5405 164.96L55.456 183.972ZM66.7924 164.528C72.0852 167.579 77.7697 169.953 83.7149 171.573C89.7519 173.217 95.9517 174.055 102.155 174.086L102.249 152.079C97.9599 152.057 93.6735 151.476 89.4996 150.339C85.4186 149.228 81.5149 147.603 77.8772 145.516L66.7924 164.528ZM78.129 145.084C81.7292 147.149 85.5923 148.757 89.631 149.857C93.7626 150.982 98.0055 151.557 102.251 151.58L102.355 127.323C100.219 127.309 98.0853 127.019 96.0072 126.453C94.0234 125.912 92.1233 125.129 90.3478 124.127L78.129 145.084ZM126.471 193.49C118.633 195.556 110.596 196.59 102.559 196.594L102.653 174.587C108.774 174.575 114.894 173.783 120.864 172.21C126.964 170.602 132.8 168.208 138.231 165.105L149.154 184.211C142.06 188.263 134.439 191.391 126.471 193.49ZM120.736 171.726C114.809 173.288 108.732 174.075 102.655 174.087L102.749 152.08C106.911 152.06 111.071 151.515 115.13 150.446C119.321 149.342 123.33 147.697 127.061 145.567L137.983 164.671C132.59 167.752 126.794 170.13 120.736 171.726ZM115.002 149.962C110.986 151.021 106.869 151.56 102.751 151.58L102.855 127.321C104.861 127.293 106.865 127.022 108.822 126.506C110.913 125.955 112.913 125.135 114.774 124.074L126.813 145.132C123.119 147.241 119.151 148.869 115.002 149.962ZM149.587 183.961C156.537 179.942 162.973 175.032 168.723 169.33C174.514 163.587 179.507 157.141 183.601 150.167L164.589 139.082C161.46 144.402 157.647 149.32 153.227 153.704C148.849 158.045 143.952 161.787 138.665 164.856L149.587 183.961ZM138.417 164.422C143.666 161.375 148.528 157.659 152.875 153.349C157.263 148.996 161.05 144.113 164.157 138.831L145.147 127.746C143.004 131.375 140.397 134.73 137.379 137.723C134.405 140.673 131.081 143.221 127.494 145.316L138.417 164.422ZM127.246 144.882C130.795 142.808 134.084 140.287 137.027 137.368C140.014 134.406 142.593 131.085 144.715 127.495L123.759 115.277C122.701 117.045 121.423 118.681 119.947 120.144C118.516 121.564 116.923 122.797 115.206 123.822L127.246 144.882ZM193.234 127.28C191.083 135.174 187.922 142.718 183.853 149.735L164.841 138.651C167.946 133.288 170.358 127.525 172.001 121.496C173.642 115.471 174.485 109.286 174.531 103.096L196.537 103.19C196.484 111.294 195.382 119.393 193.234 127.28ZM171.518 121.364C169.888 127.351 167.492 133.074 164.409 138.399L145.399 127.315C147.516 123.645 149.163 119.703 150.287 115.58C151.409 111.461 151.988 107.233 152.025 103L174.031 103.094C173.986 109.241 173.148 115.382 171.518 121.364ZM149.804 115.448C148.692 119.529 147.062 123.431 144.967 127.063L124.012 114.845C125.044 113.037 125.849 111.099 126.401 109.073C126.952 107.05 127.241 104.974 127.269 102.895L151.525 102.998C151.488 107.187 150.915 111.372 149.804 115.448ZM196.539 102.69C196.55 94.5968 195.516 86.5016 193.436 78.6085C191.351 70.6945 188.25 63.1217 184.238 56.0689L165.133 66.9908C168.195 72.3817 170.562 78.1685 172.156 84.2154C173.743 90.2402 174.535 96.4187 174.533 102.596L196.539 102.69ZM174.033 102.594C174.035 96.46 173.249 90.3252 171.672 84.3428C170.09 78.3383 167.74 72.5921 164.699 67.239L145.595 78.1605C147.686 81.8518 149.303 85.8122 150.393 89.9498C151.477 94.0638 152.022 98.282 152.027 102.5L174.033 102.594ZM151.527 102.498C151.521 98.3234 150.982 94.1487 149.909 90.0772C148.83 85.982 147.23 82.0622 145.161 78.4087L124.103 90.4472C125.125 92.2685 125.917 94.2197 126.454 96.2567C126.56 96.6593 126.656 97.0638 126.741 97.47C126.879 98.1242 126.989 98.7825 127.074 99.4434C127.198 100.423 127.264 101.409 127.271 102.395L151.527 102.498ZM169.275 36.3567C175.016 42.1456 179.955 48.6305 183.989 55.635L164.884 66.557C161.801 61.2155 158.03 56.2694 153.65 51.8524C149.269 47.4354 144.355 43.624 139.039 40.4959L150.123 21.485C157.093 25.5774 163.535 30.5688 169.275 36.3567ZM153.295 52.2045C157.644 56.5903 161.388 61.5014 164.45 66.8051L145.346 77.7267C143.235 74.0861 140.659 70.714 137.67 67.7002C134.68 64.685 131.328 62.0804 127.703 59.9385L138.787 40.9279C144.065 44.0341 148.945 47.8186 153.295 52.2045ZM137.315 68.0523C140.273 71.0349 142.822 74.3721 144.912 77.9749L123.854 90.0136C122.812 88.2436 121.551 86.6025 120.092 85.1319C118.632 83.659 116.998 82.382 115.234 81.3252L127.451 60.3704C131.038 62.4905 134.356 65.0683 137.315 68.0523ZM149.691 21.2329C142.671 17.1608 135.123 13.9973 127.226 11.8459C119.312 9.69014 111.185 8.58845 103.053 8.54175L102.959 30.5476C109.177 30.5861 115.39 31.4299 121.442 33.0782C127.475 34.7218 133.242 37.1366 138.607 40.2438L149.691 21.2329ZM138.355 40.6758C133.028 37.5904 127.301 35.1927 121.31 33.5606C115.301 31.9238 109.131 31.0859 102.957 31.0475L102.863 53.0534C107.124 53.0835 111.381 53.6635 115.527 54.7929C119.654 55.917 123.599 57.5659 127.271 59.6863L138.355 40.6758ZM127.019 60.1182C123.385 58.0198 119.48 56.3879 115.396 55.2754C111.292 54.1574 107.078 53.5833 102.861 53.5534L102.758 77.8091C104.865 77.8299 106.97 78.1197 109.021 78.6783C111.05 79.2311 112.992 80.0377 114.802 81.0727L127.019 60.1182ZM78.5543 11.6438C86.4205 9.57102 94.4873 8.53678 102.553 8.54021L102.459 30.5462C96.3093 30.5508 90.1592 31.3429 84.1614 32.9234C78.0627 34.5304 72.2286 36.9242 66.7984 40.0251L55.8767 20.9207C62.9687 16.8698 70.5886 13.7428 78.5543 11.6438ZM84.2888 33.4069C90.2441 31.8376 96.3507 31.0509 102.457 31.0462L102.363 53.0524C98.173 53.0651 93.9835 53.6096 89.8969 54.6865C85.7072 55.7904 81.6993 57.4345 77.9685 59.5639L67.0466 40.4591C72.439 37.3798 78.2325 35.0027 84.2888 33.4069ZM90.0243 55.17C94.0685 54.1043 98.2144 53.5653 102.361 53.5524L102.258 77.8092C100.223 77.8303 98.1902 78.1022 96.2058 78.6251C94.1161 79.1757 92.1167 79.9951 90.2552 81.0561L78.2166 59.998C81.9097 57.8901 85.8771 56.2628 90.0243 55.17Z" fill="#0284D2"/>
</g>
<g opacity="0.8">
<circle cx="102.258" cy="102.619" r="24.4209" fill="#4396F7" fill-opacity="0.1"/>
<circle cx="102.258" cy="102.619" r="49.3232" fill="#4396F7" fill-opacity="0.1"/>
<circle cx="102.258" cy="102.619" r="71.9546" fill="#4396F7" fill-opacity="0.1"/>
<circle cx="102.258" cy="102.619" r="94.3093" fill="#4396F7" fill-opacity="0.1"/>
</g>
<path fill-rule="evenodd" clip-rule="evenodd" d="M81.1999 90.3403L102.405 102.781L90.174 123.795L95.531 126.226L102.701 127.092L102.405 102.781L123.538 114.998C123.538 114.998 125.547 111.847 126.215 109.586C126.971 107.026 126.843 102.781 126.843 102.781C126.843 102.781 126.805 98.9545 126.215 96.6019C125.568 94.0223 123.538 90.3403 123.538 90.3403L102.405 102.781L114.846 81.2925L108.903 78.7489L102.405 77.8994L95.8287 78.7489L89.6821 81.2925C89.6821 81.2925 86.2488 83.6382 84.4882 85.5985C82.9824 87.275 81.1999 90.3403 81.1999 90.3403Z" fill="#4396F7"/>
<path d="M102.405 102.781L81.1999 90.3403C81.1999 90.3403 79.4409 93.9949 78.7651 96.6019C78.157 98.9479 78.0254 102.238 78.0254 102.238L102.405 102.781Z" fill="#4396F7"/>
<g style="mix-blend-mode:screen">
<path fill-rule="evenodd" clip-rule="evenodd" d="M103.084 1.17316L103.055 8.04176C111.231 8.08864 119.401 9.19619 127.357 11.3635C135.297 13.5264 142.885 16.707 149.943 20.801L153.264 15.1057L153.696 15.3576L150.375 21.053C157.382 25.1673 163.859 30.1855 169.63 36.0047C175.402 41.8247 180.367 48.3446 184.423 55.3868L190.314 52.0195L190.562 52.4536L184.672 55.8208C188.706 62.9114 191.823 70.5247 193.919 78.4811C196.01 86.4167 197.05 94.5554 197.039 102.692L204.079 102.722L204.077 103.222L197.037 103.192C196.984 111.34 195.876 119.482 193.716 127.411C191.554 135.347 188.376 142.932 184.285 149.987L190.143 153.402L189.891 153.834L184.033 150.419C179.917 157.43 174.897 163.911 169.075 169.685C163.294 175.418 156.823 180.354 149.835 184.395L153.231 190.335L152.797 190.583L149.402 184.645C142.271 188.718 134.609 191.863 126.599 193.974C118.718 196.05 110.637 197.09 102.557 197.094L102.527 204.101L102.027 204.099L102.057 197.093C93.8526 197.053 85.6528 195.945 77.6684 193.77C69.774 191.62 62.2274 188.464 55.2042 184.404L51.846 190.163L51.414 189.911L54.7719 184.152C47.7183 180.025 41.1994 174.982 35.3951 169.129C29.6612 163.348 24.7238 156.875 20.6822 149.886L14.797 153.25L14.5489 152.816L20.4331 149.452C16.3602 142.322 13.2163 134.661 11.106 126.653C9.02652 118.761 7.98677 110.668 7.98594 102.577L1.03128 102.547L1.03341 102.047L7.98721 102.077C8.0297 93.8836 9.13734 85.6957 11.3093 77.7226C13.4644 69.811 16.63 62.2486 20.7029 55.2123L14.9679 51.8685L15.2198 51.4366L20.9545 54.7802C25.0771 47.7442 30.1104 41.2411 35.9504 35.4494C41.7325 29.7151 48.2054 24.7774 55.1951 20.7357L51.8788 14.9348L52.3129 14.6867L55.6286 20.4866C62.7583 16.4141 70.4188 13.2704 78.4269 11.1603C86.3355 9.07634 94.4459 8.0366 102.555 8.04021L102.584 1.17103L103.084 1.17316ZM11.7917 77.854C13.9353 69.9848 17.0839 62.4628 21.1349 55.4641L40.1457 66.5483C37.0596 71.8918 34.6599 77.6327 33.0242 83.6375C31.3712 89.7056 30.5273 95.937 30.4932 102.173L8.4872 102.079C8.52951 93.9292 9.6313 85.7848 11.7917 77.854ZM33.5066 83.769C35.1308 77.8064 37.5135 72.1061 40.5776 66.8001L59.5893 77.8848C57.4902 81.5354 55.8563 85.4545 54.74 89.5525C53.606 93.7156 53.0259 97.9905 53.0001 102.268L30.9932 102.175C31.0271 95.9827 31.8651 89.7947 33.5066 83.769ZM40.8292 66.368L59.8407 77.4526C61.9911 73.7987 64.6111 70.4204 67.6473 67.4093C70.6229 64.4583 73.9478 61.9101 77.5355 59.814L66.6132 40.7086C61.3622 43.756 56.4982 47.4726 52.1504 51.7844C47.7435 56.1548 43.9438 61.0607 40.8292 66.368ZM55.2225 89.6839C56.3272 85.6283 57.944 81.7496 60.0213 78.1366L80.9774 90.355C79.9637 92.143 79.1723 94.0579 78.6274 96.0581C78.1276 97.8928 77.843 99.7711 77.7738 101.655C77.765 101.895 77.7596 102.134 77.7578 102.374L53.5001 102.271C53.5257 98.0361 54.0999 93.8047 55.2225 89.6839ZM60.2727 77.7044L81.2284 89.9225C82.294 88.1284 83.5867 86.4685 85.081 84.9865C86.5129 83.5665 88.1065 82.333 89.8233 81.308L77.7836 60.2481C74.2337 62.3226 70.9438 64.8443 67.9994 67.7644C64.9943 70.7446 62.4012 74.0881 60.2727 77.7044ZM79.1098 96.1905C79.6432 94.2325 80.4178 92.3577 81.4098 90.6071L100.946 101.997C100.93 102.04 100.916 102.083 100.904 102.127C100.874 102.241 100.855 102.356 100.848 102.472L78.2578 102.376C78.2596 102.142 78.2648 101.908 78.2734 101.674C78.3414 99.8278 78.6202 97.9879 79.1098 96.1905ZM100.896 102.973L78.259 102.876C78.2626 103.159 78.2712 103.441 78.2846 103.723C78.3654 105.413 78.6231 107.096 79.0577 108.746C79.5972 110.793 80.4 112.752 81.4395 114.576L101.05 103.365C100.985 103.247 100.935 103.122 100.901 102.991C100.899 102.985 100.898 102.979 100.896 102.973ZM101.356 103.766L81.6916 115.008C82.6948 116.687 83.9017 118.245 85.2906 119.646C86.7538 121.121 88.3939 122.396 90.1672 123.445L101.548 103.925C101.48 103.877 101.416 103.824 101.356 103.766ZM101.995 104.151L90.6001 123.695C92.3379 124.674 94.1973 125.44 96.1386 125.969C98.1744 126.524 100.265 126.808 102.357 126.821L102.453 104.232C102.326 104.227 102.199 104.208 102.075 104.174C102.048 104.167 102.022 104.159 101.995 104.151ZM102.953 104.174L102.857 126.82C104.82 126.792 106.78 126.526 108.695 126.021C110.743 125.482 112.702 124.679 114.526 123.639L103.314 104.028C103.201 104.09 103.079 104.139 102.953 104.174ZM103.715 103.721L114.958 123.387C116.636 122.384 118.195 121.177 119.595 119.788C121.039 118.356 122.291 116.755 123.327 115.024L103.792 103.635C103.768 103.665 103.742 103.693 103.715 103.721ZM104.052 103.208L123.579 114.593C124.59 112.822 125.378 110.924 125.918 108.94C126.458 106.96 126.741 104.928 126.769 102.893L104.164 102.796C104.155 102.866 104.141 102.935 104.122 103.004C104.103 103.073 104.08 103.142 104.052 103.208ZM104.159 102.296L126.77 102.393C126.764 101.429 126.699 100.465 126.578 99.5064C126.481 98.7442 126.347 97.9854 126.178 97.2326C126.114 96.9492 126.045 96.6667 125.971 96.3852C125.445 94.3902 124.669 92.4793 123.668 90.6955L104.047 101.913C104.079 101.986 104.105 102.063 104.125 102.141C104.139 102.192 104.15 102.244 104.159 102.296ZM103.784 101.487L123.419 90.262C122.4 88.5301 121.165 86.9242 119.738 85.485C118.308 84.0431 116.709 82.7928 114.981 81.7579L103.591 101.294C103.628 101.325 103.663 101.357 103.697 101.392C103.727 101.422 103.757 101.454 103.784 101.487ZM103.165 101.031L114.55 81.5054C112.777 80.4924 110.876 79.7029 108.89 79.1617C106.881 78.6146 104.819 78.3306 102.756 78.3101L102.659 100.905C102.758 100.913 102.855 100.931 102.951 100.957C103.025 100.977 103.096 101.002 103.165 101.031ZM102.159 100.936L102.256 78.3103C100.264 78.3315 98.2752 78.5979 96.3333 79.1096C94.2861 79.649 92.3275 80.4516 90.5038 81.4909L101.715 101.102C101.832 101.038 101.958 100.988 102.088 100.953C102.112 100.947 102.135 100.941 102.159 100.936ZM101.314 101.407L90.0719 81.743C88.3927 82.7463 86.8339 83.9533 85.4331 85.3425C83.9701 86.7935 82.7044 88.4184 81.6608 90.1746L101.185 101.558C101.225 101.505 101.268 101.455 101.314 101.407ZM21.3865 55.0321L40.3972 66.1162C43.5337 60.7713 47.3603 55.8307 51.7984 51.4294C56.1773 47.0866 61.0763 43.3435 66.3651 40.2745L55.4432 21.1698C48.4914 25.1899 42.0534 30.1011 36.3025 35.8044C30.4936 41.5652 25.4872 48.0336 21.3865 55.0321ZM8.48594 102.579C8.48695 110.627 9.5212 118.676 11.5895 126.525C13.6886 134.492 16.8159 142.112 20.8672 149.204L39.972 138.282C36.8706 132.852 34.4765 127.017 32.8693 120.918C31.2934 114.937 30.5012 108.805 30.4922 102.673L8.48594 102.579ZM30.9922 102.675C31.0014 108.763 31.7881 114.852 33.3528 120.79C34.9488 126.847 37.3263 132.641 40.4061 138.034L59.5116 127.112C57.3819 123.381 55.7377 119.373 54.6336 115.183C53.5612 111.113 53.0167 106.941 52.9997 102.768L30.9922 102.675ZM53.4997 102.771C53.5169 106.9 54.0559 111.028 55.1171 115.055C56.21 119.203 57.8375 123.17 59.9457 126.864L81.005 114.825C79.9441 112.963 79.1248 110.964 78.5742 108.874C78.1316 107.195 77.8688 105.48 77.7858 103.76C77.7716 103.464 77.7626 103.169 77.7589 102.874L53.4997 102.771ZM35.7502 168.777C30.0472 163.027 25.1362 156.589 21.1163 149.638L40.2214 138.716C43.2903 144.004 47.033 148.902 51.3753 153.281C55.7893 157.732 60.7456 161.567 66.1082 164.709L55.0238 183.72C48.0077 179.615 41.5236 174.599 35.7502 168.777ZM51.7303 152.929C47.419 148.581 43.7027 143.718 40.6555 138.468L59.7617 127.545C61.8576 131.132 64.4057 134.457 67.3565 137.432C70.3799 140.481 73.7735 143.11 77.4447 145.265L66.3601 164.277C61.0351 161.157 56.1134 157.348 51.7303 152.929ZM67.7115 137.08C64.7916 134.136 62.2701 130.846 60.1957 127.297L81.2569 115.256C82.2819 116.973 83.5155 118.567 84.9356 119.999C86.4295 121.505 88.1041 122.807 89.9148 123.877L77.6966 144.833C74.0629 142.7 70.7041 140.098 67.7115 137.08ZM55.456 183.972C62.4416 188.01 69.9478 191.149 77.7998 193.288C85.7419 195.452 93.8982 196.553 102.059 196.593L102.153 174.586C95.9061 174.555 89.6628 173.711 83.5835 172.055C77.5959 170.424 71.8709 168.033 66.5405 164.96L55.456 183.972ZM66.7924 164.528C72.0852 167.579 77.7697 169.953 83.7149 171.573C89.7519 173.217 95.9517 174.055 102.155 174.086L102.249 152.079C97.9599 152.057 93.6735 151.476 89.4996 150.339C85.4186 149.228 81.5149 147.603 77.8772 145.516L66.7924 164.528ZM78.129 145.084C81.7292 147.149 85.5923 148.757 89.631 149.857C93.7626 150.982 98.0055 151.557 102.251 151.58L102.355 127.323C100.219 127.309 98.0853 127.019 96.0072 126.453C94.0234 125.912 92.1233 125.129 90.3478 124.127L78.129 145.084ZM126.471 193.49C118.633 195.556 110.596 196.59 102.559 196.594L102.653 174.587C108.774 174.575 114.894 173.783 120.864 172.21C126.964 170.602 132.8 168.208 138.231 165.105L149.154 184.211C142.06 188.263 134.439 191.391 126.471 193.49ZM120.736 171.726C114.809 173.288 108.732 174.075 102.655 174.087L102.749 152.08C106.911 152.06 111.071 151.515 115.13 150.446C119.321 149.342 123.33 147.697 127.061 145.567L137.983 164.671C132.59 167.752 126.794 170.13 120.736 171.726ZM115.002 149.962C110.986 151.021 106.869 151.56 102.751 151.58L102.855 127.321C104.861 127.293 106.865 127.022 108.822 126.506C110.913 125.955 112.913 125.135 114.774 124.074L126.813 145.132C123.119 147.241 119.151 148.869 115.002 149.962ZM149.587 183.961C156.537 179.942 162.973 175.032 168.723 169.33C174.514 163.587 179.507 157.141 183.601 150.167L164.589 139.082C161.46 144.402 157.647 149.32 153.227 153.704C148.849 158.045 143.952 161.787 138.665 164.856L149.587 183.961ZM138.417 164.422C143.666 161.375 148.528 157.659 152.875 153.349C157.263 148.996 161.05 144.113 164.157 138.831L145.147 127.746C143.004 131.375 140.397 134.73 137.379 137.723C134.405 140.673 131.081 143.221 127.494 145.316L138.417 164.422ZM127.246 144.882C130.795 142.808 134.084 140.287 137.027 137.368C140.014 134.406 142.593 131.085 144.715 127.495L123.759 115.277C122.701 117.045 121.423 118.681 119.947 120.144C118.516 121.564 116.923 122.797 115.206 123.822L127.246 144.882ZM193.234 127.28C191.083 135.174 187.922 142.718 183.853 149.735L164.841 138.651C167.946 133.288 170.358 127.525 172.001 121.496C173.642 115.471 174.485 109.286 174.531 103.096L196.537 103.19C196.484 111.294 195.382 119.393 193.234 127.28ZM171.518 121.364C169.888 127.351 167.492 133.074 164.409 138.399L145.399 127.315C147.516 123.645 149.163 119.703 150.287 115.58C151.409 111.461 151.988 107.233 152.025 103L174.031 103.094C173.986 109.241 173.148 115.382 171.518 121.364ZM149.804 115.448C148.692 119.529 147.062 123.431 144.967 127.063L124.012 114.845C125.044 113.037 125.849 111.099 126.401 109.073C126.952 107.05 127.241 104.974 127.269 102.895L151.525 102.998C151.488 107.187 150.915 111.372 149.804 115.448ZM196.539 102.69C196.55 94.5968 195.516 86.5016 193.436 78.6085C191.351 70.6945 188.25 63.1217 184.238 56.0689L165.133 66.9908C168.195 72.3817 170.562 78.1685 172.156 84.2154C173.743 90.2402 174.535 96.4187 174.533 102.596L196.539 102.69ZM174.033 102.594C174.035 96.46 173.249 90.3252 171.672 84.3428C170.09 78.3383 167.74 72.5921 164.699 67.239L145.595 78.1605C147.686 81.8518 149.303 85.8122 150.393 89.9498C151.477 94.0638 152.022 98.282 152.027 102.5L174.033 102.594ZM151.527 102.498C151.521 98.3234 150.982 94.1487 149.909 90.0772C148.83 85.982 147.23 82.0622 145.161 78.4087L124.103 90.4472C125.125 92.2685 125.917 94.2197 126.454 96.2567C126.56 96.6593 126.656 97.0638 126.741 97.47C126.879 98.1242 126.989 98.7825 127.074 99.4434C127.198 100.423 127.264 101.409 127.271 102.395L151.527 102.498ZM169.275 36.3567C175.016 42.1456 179.955 48.6305 183.989 55.635L164.884 66.557C161.801 61.2155 158.03 56.2694 153.65 51.8524C149.269 47.4354 144.355 43.624 139.039 40.4959L150.123 21.485C157.093 25.5774 163.535 30.5688 169.275 36.3567ZM153.295 52.2045C157.644 56.5903 161.388 61.5014 164.45 66.8051L145.346 77.7267C143.235 74.0861 140.659 70.714 137.67 67.7002C134.68 64.685 131.328 62.0804 127.703 59.9385L138.787 40.9279C144.065 44.0341 148.945 47.8186 153.295 52.2045ZM137.315 68.0523C140.273 71.0349 142.822 74.3721 144.912 77.9749L123.854 90.0136C122.812 88.2436 121.551 86.6025 120.092 85.1319C118.632 83.659 116.998 82.382 115.234 81.3252L127.451 60.3704C131.038 62.4905 134.356 65.0683 137.315 68.0523ZM149.691 21.2329C142.671 17.1608 135.123 13.9973 127.226 11.8459C119.312 9.69014 111.185 8.58845 103.053 8.54175L102.959 30.5476C109.177 30.5861 115.39 31.4299 121.442 33.0782C127.475 34.7218 133.242 37.1366 138.607 40.2438L149.691 21.2329ZM138.355 40.6758C133.028 37.5904 127.301 35.1927 121.31 33.5606C115.301 31.9238 109.131 31.0859 102.957 31.0475L102.863 53.0534C107.124 53.0835 111.381 53.6635 115.527 54.7929C119.654 55.917 123.599 57.5659 127.271 59.6863L138.355 40.6758ZM127.019 60.1182C123.385 58.0198 119.48 56.3879 115.396 55.2754C111.292 54.1574 107.078 53.5833 102.861 53.5534L102.758 77.8091C104.865 77.8299 106.97 78.1197 109.021 78.6783C111.05 79.2311 112.992 80.0377 114.802 81.0727L127.019 60.1182ZM78.5543 11.6438C86.4205 9.57102 94.4873 8.53678 102.553 8.54021L102.459 30.5462C96.3093 30.5508 90.1592 31.3429 84.1614 32.9234C78.0627 34.5304 72.2286 36.9242 66.7984 40.0251L55.8767 20.9207C62.9687 16.8698 70.5886 13.7428 78.5543 11.6438ZM84.2888 33.4069C90.2441 31.8376 96.3507 31.0509 102.457 31.0462L102.363 53.0524C98.173 53.0651 93.9835 53.6096 89.8969 54.6865C85.7072 55.7904 81.6993 57.4345 77.9685 59.5639L67.0466 40.4591C72.439 37.3798 78.2325 35.0027 84.2888 33.4069ZM90.0243 55.17C94.0685 54.1043 98.2144 53.5653 102.361 53.5524L102.258 77.8092C100.223 77.8303 98.1902 78.1022 96.2058 78.6251C94.1161 79.1757 92.1167 79.9951 90.2552 81.0561L78.2166 59.998C81.9097 57.8901 85.8771 56.2628 90.0243 55.17Z" fill="white"/>
</g>
<circle cx="77.3288" cy="13.0814" r="8.23979" transform="rotate(0.237983 77.3288 13.0814)" fill="white" stroke="#4396F7" stroke-width="1.08116"/>
<circle cx="127.139" cy="13.2875" r="8.23979" transform="rotate(0.237983 127.139 13.2875)" fill="white" stroke="#4396F7" stroke-width="1.08116"/>
<circle cx="167.609" cy="34.8607" r="8.23979" transform="rotate(0.237983 167.609 34.8607)" fill="white" stroke="#4396F7" stroke-width="1.08116"/>
<circle cx="193.203" cy="78.9506" r="8.23979" transform="rotate(0.237983 193.203 78.9506)" fill="white" stroke="#4396F7" stroke-width="1.08116"/>
<circle cx="193.001" cy="127.564" r="8.23979" transform="rotate(0.237983 193.001 127.564)" fill="white" stroke="#4396F7" stroke-width="1.08116"/>
<circle cx="168.982" cy="169.759" r="8.23979" transform="rotate(0.237983 168.982 169.759)" fill="white" stroke="#4396F7" stroke-width="1.08116"/>
<circle cx="126.382" cy="195.323" r="8.23979" transform="rotate(0.237983 126.382 195.323)" fill="white" stroke="#4396F7" stroke-width="1.08116"/>
<circle cx="79.3971" cy="195.127" r="8.23979" transform="rotate(0.237983 79.3971 195.127)" fill="white" stroke="#4396F7" stroke-width="1.08116"/>
<circle cx="34.8854" cy="169.202" r="8.23979" transform="rotate(0.237983 34.8854 169.202)" fill="white" stroke="#4396F7" stroke-width="1.08116"/>
<circle cx="10.8034" cy="127.867" r="8.23979" transform="rotate(0.237983 10.8034 127.867)" fill="white" stroke="#4396F7" stroke-width="1.08116"/>
<circle cx="12.1725" cy="78.1986" r="8.23979" transform="rotate(0.237983 12.1725 78.1986)" fill="white" stroke="#4396F7" stroke-width="1.08116"/>
<circle cx="35.1413" cy="38.6918" r="8.23979" transform="rotate(0.237983 35.1413 38.6918)" fill="white" stroke="#4396F7" stroke-width="1.08116"/>
<path d="M103.821 113.406L103.259 113.404C103.091 114.328 102.328 114.55 101.489 114.547L101.487 115.135L103.078 115.141L103.06 119.535L103.795 119.538L103.821 113.406Z" fill="black"/>
<path d="M101.748 139.767C101.725 139.032 102.092 138.246 102.948 138.25C103.597 138.252 104.131 138.696 104.128 139.362C104.125 140.209 103.595 140.588 102.555 141.223C101.688 141.756 100.95 142.272 100.823 143.724L104.828 143.741L104.831 143.092L101.682 143.079C101.832 142.319 102.638 141.933 103.41 141.469C104.173 140.997 104.902 140.455 104.907 139.373C104.911 138.232 104.066 137.606 102.994 137.601C101.696 137.596 100.957 138.518 101.013 139.764L101.748 139.767Z" fill="black"/>
<path d="M102.414 164.742C102.552 164.725 102.708 164.717 102.855 164.718C103.581 164.721 104.159 165.13 104.156 165.899C104.153 166.643 103.537 167.082 102.819 167.079C101.98 167.075 101.541 166.52 101.519 165.724L100.783 165.721C100.752 166.984 101.571 167.722 102.816 167.728C103.967 167.732 104.929 167.096 104.935 165.868C104.938 165.133 104.577 164.543 103.834 164.376L103.834 164.359C104.302 164.144 104.684 163.679 104.686 163.143C104.691 162.009 103.889 161.496 102.825 161.491C101.597 161.486 100.971 162.297 100.923 163.464L101.658 163.467C101.669 162.749 102.018 162.137 102.822 162.14C103.445 162.143 103.911 162.491 103.908 163.131C103.905 163.797 103.359 164.132 102.736 164.129C102.632 164.129 102.529 164.128 102.416 164.119L102.414 164.742Z" fill="black"/>
<path d="M104.072 184.05L103.484 184.047L100.673 188.023L100.67 188.732L103.36 188.743L103.354 190.179L104.046 190.182L104.052 188.746L104.883 188.75L104.885 188.101L104.055 188.098L104.072 184.05ZM101.305 188.086L103.358 185.093L103.376 185.093L103.363 188.095L101.305 188.086Z" fill="black"/>
<path d="M126.039 11.6378C126.016 10.9025 126.383 10.1169 127.239 10.1205C127.888 10.1231 128.422 10.5665 128.419 11.2325C128.416 12.0801 127.887 12.4585 126.846 13.0942C125.979 13.6269 125.242 14.1428 125.115 15.5953L129.119 15.612L129.122 14.9633L125.974 14.9502C126.124 14.1897 126.93 13.8038 127.701 13.3399C128.465 12.8674 129.193 12.3255 129.198 11.2444C129.203 10.1027 128.358 9.47639 127.285 9.47194C125.988 9.46655 125.249 10.389 125.304 11.6347L126.039 11.6378Z" fill="black"/>
<path d="M78.1415 9.26793L77.5793 9.26559C77.4111 10.1904 76.6491 10.4121 75.8101 10.4086L75.8076 10.9968L77.3991 11.0034L77.3808 15.3972L78.116 15.4002L78.1415 9.26793Z" fill="black"/>
<path d="M167.093 34.5785C167.231 34.5618 167.387 34.5538 167.534 34.5544C168.26 34.5575 168.838 34.9664 168.835 35.7362C168.832 36.48 168.216 36.9185 167.498 36.9156C166.659 36.9121 166.22 36.3567 166.198 35.5609L165.462 35.5578C165.431 36.8205 166.25 37.5591 167.495 37.5643C168.646 37.569 169.608 36.933 169.614 35.7048C169.617 34.9696 169.256 34.3799 168.513 34.2125L168.513 34.1952C168.981 33.9809 169.363 33.5155 169.365 32.9792C169.37 31.8462 168.568 31.3325 167.504 31.3281C166.276 31.323 165.65 32.1334 165.602 33.3009L166.337 33.304C166.348 32.5861 166.697 31.9734 167.501 31.9768C168.124 31.9794 168.59 32.3273 168.587 32.9673C168.584 33.6333 168.038 33.9684 167.415 33.9658C167.311 33.9654 167.208 33.9649 167.095 33.9558L167.093 34.5785Z" fill="black"/>
<path d="M34.9549 38.1941C35.7939 38.1976 36.1891 38.8307 36.186 39.5918C36.183 40.3183 35.7392 40.9479 34.9435 40.9446C34.1391 40.9413 33.6746 40.3339 33.6777 39.5727C33.6809 38.803 34.1333 38.1907 34.9549 38.1941ZM36.8025 36.9304C36.7201 35.9353 36.0911 35.3619 35.0792 35.3577C33.332 35.3504 32.8151 36.9484 32.8081 38.635C32.8027 39.9237 33.0899 41.5856 34.9062 41.5931C36.4544 41.5996 36.9609 40.434 36.9646 39.5431C36.9693 38.4101 36.2723 37.5509 35.096 37.546C34.43 37.5433 33.9101 37.7833 33.5618 38.3441L33.5445 38.3267C33.583 37.3841 33.7877 36.001 35.0419 36.0062C35.6214 36.0086 36.0004 36.3735 36.0673 36.9273L36.8025 36.9304Z" fill="black"/>
<path d="M194.44 75.0905L193.852 75.0881L191.042 79.0637L191.039 79.773L193.729 79.7841L193.723 81.2199L194.415 81.2228L194.421 79.787L195.251 79.7905L195.254 79.1418L194.423 79.1383L194.44 75.0905ZM191.673 79.1269L193.727 76.1341L193.744 76.1342L193.732 79.1355L191.673 79.1269Z" fill="black"/>
<path d="M194.681 124.46L191.654 124.447L191.069 127.628L191.701 127.665C191.988 127.32 192.378 127.088 192.845 127.09C193.667 127.094 194.226 127.675 194.223 128.488C194.219 129.466 193.62 129.939 192.92 129.936C192.184 129.933 191.676 129.455 191.635 128.824L190.9 128.821C190.922 129.928 191.784 130.58 192.848 130.585C194.275 130.591 194.997 129.59 195.001 128.552C195.007 127.151 194.119 126.447 193.029 126.442C192.614 126.441 192.155 126.577 191.886 126.879L191.868 126.861L192.204 125.098L194.678 125.108L194.681 124.46Z" fill="black"/>
<path d="M9.52028 128.799C9.52323 128.09 10.096 127.625 10.8226 127.628C11.5145 127.631 12.0833 128.135 12.0805 128.801C12.0776 129.484 11.5566 129.992 10.8214 129.989C10.0603 129.986 9.51723 129.534 9.52028 128.799ZM8.96987 125.96C8.96757 126.513 9.31142 127.025 9.82086 127.235C9.13657 127.474 8.74502 128.035 8.742 128.761C8.73679 130.015 9.64241 130.633 10.8187 130.638C11.9517 130.643 12.8541 129.963 12.859 128.778C12.8622 128.017 12.5098 127.479 11.7756 127.243C12.2782 127.02 12.6262 126.52 12.6285 125.975C12.6317 125.196 12.116 124.407 10.7754 124.402C9.83264 124.398 8.97407 124.948 8.96987 125.96ZM9.74819 125.989C9.75074 125.375 10.2365 125.048 10.8246 125.051C11.4214 125.053 11.8525 125.383 11.8499 125.998C11.8474 126.62 11.4134 126.982 10.8339 126.979C10.2285 126.977 9.74539 126.663 9.74819 125.989Z" fill="black"/>
<path d="M14.1226 75.096L10.1526 75.0795L10.1497 75.7714L13.3672 75.7848C12.0728 77.146 11.0703 79.036 10.9233 81.1113L11.745 81.1147C11.8654 79.195 12.878 76.9504 14.12 75.7274L14.1226 75.096Z" fill="black"/>
<path d="M167.273 166.532L166.71 166.53C166.542 167.455 165.78 167.677 164.941 167.673L164.939 168.261L166.53 168.268L166.512 172.662L167.247 172.665L167.273 166.532ZM170.106 168.715C170.083 167.98 170.45 167.194 171.306 167.198C171.955 167.201 172.489 167.644 172.487 168.31C172.483 169.157 171.954 169.536 170.913 170.172C170.046 170.704 169.309 171.22 169.182 172.673L173.186 172.689L173.189 172.041L170.041 172.028C170.191 171.267 170.997 170.881 171.769 170.417C172.532 169.945 173.26 169.403 173.265 168.322C173.27 167.18 172.425 166.554 171.352 166.549C170.055 166.544 169.316 167.466 169.371 168.712L170.106 168.715Z" fill="black"/>
<path d="M36.0274 167.604C36.0244 168.33 35.5375 168.951 34.7677 168.948C34.0584 168.945 33.5594 168.32 33.5622 167.646C33.5653 166.893 33.8969 166.194 34.7705 166.197C35.5921 166.201 36.0305 166.851 36.0274 167.604ZM32.9029 170.194C32.9936 171.25 33.7266 171.781 34.7559 171.785C36.2436 171.791 36.8885 170.609 36.8973 168.49C36.907 166.172 35.9494 165.554 34.8077 165.549C33.6228 165.544 32.7891 166.354 32.7842 167.538C32.7791 168.749 33.4676 169.591 34.7131 169.596C35.3099 169.599 35.8561 169.272 36.1351 168.755L36.1523 168.772C36.1025 170.355 35.6581 171.14 34.7586 171.136C34.1704 171.134 33.6875 170.794 33.6381 170.197L32.9029 170.194Z" fill="black"/>
<path d="M124.853 192.209L124.291 192.207C124.122 193.132 123.36 193.353 122.521 193.35L122.519 193.938L124.11 193.945L124.092 198.338L124.827 198.341L124.853 192.209ZM129.659 192.229L129.097 192.227C128.928 193.152 128.166 193.373 127.327 193.37L127.325 193.958L128.916 193.965L128.898 198.358L129.633 198.361L129.659 192.229Z" fill="black"/>
<path d="M77.6574 192.014L77.0952 192.011C76.927 192.936 76.165 193.158 75.326 193.154L75.3236 193.743L76.915 193.749L76.8968 198.143L77.6319 198.146L77.6574 192.014ZM79.7346 195.145C79.729 196.494 79.8428 198.259 81.7629 198.267C83.6831 198.275 83.8115 196.511 83.8171 195.162C83.8227 193.804 83.709 192.039 81.7888 192.031C79.8687 192.023 79.7403 193.787 79.7346 195.145ZM80.5131 195.139C80.5169 194.231 80.532 192.674 81.7861 192.68C83.0403 192.685 83.0425 194.242 83.0387 195.15C83.0349 196.067 83.0198 197.624 81.7656 197.618C80.5115 197.613 80.5093 196.056 80.5131 195.139Z" fill="black"/>
</svg>
