<svg width="205" height="205" viewBox="0 0 205 205" fill="none" xmlns="http://www.w3.org/2000/svg">
<g style="mix-blend-mode:darken" opacity="0.3">
<path fill-rule="evenodd" clip-rule="evenodd" d="M102.87 0.821599L102.841 7.69019C111.017 7.73708 119.187 8.84463 127.143 11.012C135.083 13.1749 142.671 16.3554 149.729 20.4494L153.05 14.7542L153.482 15.006L150.161 20.7015C157.168 24.8158 163.645 29.834 169.416 35.6531C175.188 41.4731 180.153 47.993 184.209 55.0353L190.1 51.668L190.348 52.102L184.458 55.4692C188.492 62.5598 191.609 70.1731 193.706 78.1296C195.797 86.0651 196.836 94.2038 196.826 102.34L203.865 102.37L203.863 102.87L196.824 102.84C196.77 110.989 195.662 119.13 193.502 127.06C191.34 134.996 188.162 142.581 184.071 149.635L189.929 153.051L189.677 153.483L183.819 150.067C179.703 157.078 174.683 163.559 168.861 169.333C163.08 175.066 156.609 180.003 149.621 184.044L153.017 189.984L152.583 190.232L149.188 184.293C142.057 188.367 134.395 191.512 126.385 193.622C118.504 195.699 110.424 196.738 102.343 196.742L102.314 203.749L101.814 203.747L101.843 196.741C93.6387 196.702 85.4389 195.594 77.4545 193.419C69.5602 191.268 62.0135 188.112 54.9903 184.052L51.6321 189.812L51.2002 189.56L54.5581 183.801C47.5044 179.673 40.9856 174.63 35.1813 168.778C29.4474 162.996 24.5099 156.524 20.4684 149.534L14.5832 152.899L14.335 152.465L20.2192 149.101C16.1464 141.971 13.0024 134.31 10.8922 126.301C8.81265 118.41 7.7729 110.317 7.77207 102.225L0.817412 102.196L0.819542 101.696L7.77334 101.725C7.81584 93.532 8.92348 85.3442 11.0954 77.3711C13.2506 69.4594 16.4162 61.897 20.489 54.8607L14.7541 51.517L15.0059 51.085L20.7407 54.4286C24.8632 47.3926 29.8965 40.8895 35.7365 35.0978C41.5186 29.3636 47.9916 24.4258 54.9812 20.3842L51.6649 14.5833L52.099 14.3351L55.4147 20.135C62.5445 16.0625 70.2049 12.9189 78.213 10.8087C86.1217 8.72478 94.232 7.68503 102.341 7.68865L102.37 0.819469L102.87 0.821599ZM11.5778 77.5025C13.7215 69.6332 16.87 62.1113 20.921 55.1126L39.9318 66.1967C36.8458 71.5403 34.4461 77.2811 32.8103 83.286C31.1573 89.3541 30.3134 95.5855 30.2793 101.821L8.27334 101.727C8.31565 93.5777 9.41743 85.4333 11.5778 77.5025ZM33.2927 83.4174C34.9169 77.4549 37.2996 71.7545 40.3638 66.4486L59.3754 77.5332C57.2763 81.1838 55.6425 85.1029 54.5262 89.2009C53.3921 93.364 52.812 97.6389 52.7863 101.917L30.7793 101.823C30.8132 95.6311 31.6513 89.4432 33.2927 83.4174ZM40.6153 66.0164L59.6269 77.101C61.7773 73.4471 64.3972 70.0689 67.4334 67.0578C70.409 64.1068 73.7339 61.5585 77.3216 59.4624L66.3994 40.357C61.1484 43.4044 56.2844 47.121 51.9366 51.4328C47.5297 55.8033 43.7299 60.7091 40.6153 66.0164ZM55.0086 89.3323C56.1134 85.2767 57.7302 81.3981 59.8074 77.7851L80.7635 90.0034C79.7498 91.7915 78.9584 93.7064 78.4135 95.7065C77.9137 97.5413 77.6292 99.4195 77.5599 101.304C77.5511 101.543 77.5457 101.783 77.5439 102.022L53.2863 101.919C53.3118 97.6846 53.8861 93.4531 55.0086 89.3323ZM60.0588 77.3529L81.0145 89.571C82.0801 87.7768 83.3728 86.117 84.8672 84.635C86.299 83.215 87.8926 81.9814 89.6094 80.9565L77.5698 59.8965C74.0199 61.971 70.73 64.4927 67.7855 67.4128C64.7804 70.393 62.1873 73.7365 60.0588 77.3529ZM78.896 95.839C79.4294 93.8809 80.2039 92.0062 81.1959 90.2555L100.732 101.646C100.716 101.688 100.702 101.732 100.69 101.776C100.66 101.889 100.641 102.005 100.634 102.121L78.0439 102.025C78.0457 101.79 78.0509 101.556 78.0596 101.322C78.1275 99.4763 78.4063 97.6364 78.896 95.839ZM100.682 102.621L78.0451 102.525C78.0487 102.807 78.0573 103.089 78.0708 103.372C78.1515 105.061 78.4092 106.745 78.8438 108.394C79.3833 110.442 80.1861 112.401 81.2257 114.225L100.836 103.014C100.772 102.896 100.721 102.77 100.687 102.639C100.685 102.633 100.684 102.627 100.682 102.621ZM101.142 103.415L81.4777 114.656C82.481 116.335 83.6878 117.894 85.0768 119.294C86.5399 120.77 88.18 122.044 89.9533 123.093L101.334 103.574C101.266 103.526 101.202 103.472 101.142 103.415ZM101.781 103.799L90.3863 123.343C92.124 124.323 93.9834 125.089 95.9247 125.618C97.9605 126.172 100.051 126.456 102.143 126.47L102.239 103.88C102.112 103.876 101.985 103.857 101.861 103.823C101.834 103.816 101.808 103.808 101.781 103.799ZM102.739 103.822L102.643 126.468C104.606 126.44 106.566 126.174 108.481 125.67C110.529 125.13 112.488 124.327 114.312 123.288L103.101 103.676C102.987 103.739 102.865 103.788 102.739 103.822ZM103.501 103.37L114.744 123.035C116.422 122.032 117.981 120.826 119.381 119.437C120.825 118.005 122.077 116.403 123.113 114.673L103.578 103.284C103.554 103.313 103.528 103.342 103.501 103.37ZM103.838 102.856L123.365 114.241C124.376 112.471 125.164 110.573 125.704 108.589C126.244 106.608 126.527 104.576 126.555 102.541L103.951 102.445C103.941 102.515 103.927 102.584 103.908 102.652C103.889 102.722 103.866 102.79 103.838 102.856ZM103.945 101.945L126.557 102.041C126.55 101.077 126.485 100.113 126.364 99.1549C126.267 98.3926 126.133 97.6338 125.964 96.8811C125.9 96.5977 125.831 96.3151 125.757 96.0336C125.231 94.0387 124.455 92.1278 123.454 90.3439L103.833 101.561C103.865 101.635 103.891 101.711 103.912 101.789C103.925 101.841 103.936 101.892 103.945 101.945ZM103.571 101.135L123.205 89.9104C122.186 88.1785 120.951 86.5726 119.524 85.1335C118.094 83.6915 116.495 82.4412 114.767 81.4063L103.377 100.942C103.414 100.973 103.449 101.006 103.483 101.04C103.514 101.071 103.543 101.102 103.571 101.135ZM102.951 100.68L114.336 81.1538C112.563 80.1408 110.662 79.3513 108.676 78.8102C106.667 78.263 104.606 77.9791 102.542 77.9585L102.445 100.553C102.544 100.562 102.641 100.579 102.737 100.605C102.811 100.625 102.882 100.65 102.951 100.68ZM101.945 100.585L102.042 77.9587C100.051 77.9799 98.0613 78.2463 96.1194 78.758C94.0722 79.2974 92.1136 80.1001 90.2899 81.1394L101.501 100.75C101.619 100.686 101.744 100.636 101.874 100.602C101.898 100.596 101.922 100.59 101.945 100.585ZM101.1 101.056L89.8581 81.3914C88.1789 82.3948 86.6201 83.6018 85.2193 84.991C83.7563 86.4419 82.4905 88.0668 81.4469 89.8231L100.971 101.206C101.011 101.154 101.054 101.103 101.1 101.056ZM21.1726 54.6805L40.1834 65.7646C43.3199 60.4197 47.1464 55.4791 51.5845 51.0778C55.9635 46.7351 60.8624 42.992 66.1512 39.9229L55.2294 20.8183C48.2775 24.8383 41.8396 29.7495 36.0886 35.4529C30.2798 41.2136 25.2733 47.682 21.1726 54.6805ZM8.27207 102.227C8.27308 110.275 9.30733 118.325 11.3757 126.174C13.4748 134.14 16.602 141.76 20.6533 148.853L39.7581 137.931C36.6568 132.5 34.2626 126.666 32.6554 120.566C31.0795 114.585 30.2873 108.453 30.2783 102.321L8.27207 102.227ZM30.7783 102.323C30.7875 108.412 31.5742 114.5 33.1389 120.439C34.735 126.496 37.1124 132.29 40.1922 137.683L59.2977 126.76C57.168 123.029 55.5238 119.021 54.4197 114.831C53.3473 110.761 52.8028 106.59 52.7858 102.417L30.7783 102.323ZM53.2858 102.419C53.303 106.548 53.842 110.676 54.9032 114.704C55.9961 118.851 57.6237 122.819 59.7318 126.512L80.7911 114.473C79.7302 112.612 78.9109 110.612 78.3603 108.523C77.9177 106.843 77.655 105.129 77.5719 103.408C77.5577 103.113 77.5487 102.818 77.5451 102.522L53.2858 102.419ZM35.5363 168.426C29.8333 162.675 24.9224 156.238 20.9025 149.286L40.0076 138.364C43.0764 143.652 46.8192 148.551 51.1614 152.929C55.5754 157.38 60.5318 161.216 65.8944 164.357L54.8099 183.369C47.7938 179.263 41.3097 174.247 35.5363 168.426ZM51.5165 152.577C47.2051 148.23 43.4889 143.366 40.4417 138.116L59.5478 127.193C61.6438 130.781 64.1918 134.105 67.1426 137.081C70.1661 140.129 73.5597 142.758 77.2309 144.914L66.1462 163.925C60.8212 160.806 55.8996 156.997 51.5165 152.577ZM67.4976 136.728C64.5778 133.784 62.0562 130.495 59.9819 126.945L81.0431 114.905C82.0681 116.622 83.3017 118.216 84.7218 119.647C86.2157 121.154 87.8903 122.455 89.701 123.526L77.4827 144.482C73.8491 142.348 70.4902 139.746 67.4976 136.728ZM55.2421 183.62C62.2278 187.658 69.7339 190.798 77.5859 192.936C85.528 195.1 93.6843 196.202 101.846 196.241L101.939 174.235C95.6922 174.203 89.449 173.359 83.3696 171.703C77.3821 170.072 71.6571 167.682 66.3266 164.609L55.2421 183.62ZM66.5785 164.177C71.8713 167.228 77.5558 169.601 83.501 171.221C89.538 172.865 95.7378 173.704 101.941 173.735L102.035 151.728C97.746 151.705 93.4597 151.125 89.2857 149.988C85.2047 148.876 81.3011 147.251 77.6633 145.165L66.5785 164.177ZM77.9152 144.733C81.5153 146.797 85.3785 148.405 89.4171 149.505C93.5488 150.631 97.7917 151.205 102.037 151.228L102.141 126.971C100.005 126.957 97.8715 126.667 95.7934 126.101C93.8095 125.561 91.9095 124.778 90.1339 123.776L77.9152 144.733ZM126.257 193.139C118.419 195.204 110.382 196.238 102.346 196.242L102.439 174.235C108.56 174.223 114.68 173.431 120.65 171.858C126.75 170.251 132.586 167.856 138.018 164.754L148.94 183.859C141.846 187.911 134.225 191.039 126.257 193.139ZM120.522 171.375C114.595 172.937 108.519 173.723 102.441 173.735L102.535 151.728C106.697 151.708 110.857 151.164 114.916 150.094C119.107 148.99 123.116 147.345 126.848 145.215L137.769 164.32C132.376 167.4 126.58 169.778 120.522 171.375ZM114.788 149.611C110.772 150.669 106.655 151.208 102.537 151.228L102.641 126.969C104.647 126.942 106.651 126.67 108.608 126.154C110.699 125.604 112.699 124.784 114.561 123.723L126.599 144.781C122.905 146.89 118.937 148.518 114.788 149.611ZM149.373 183.61C156.323 179.59 162.76 174.68 168.509 168.978C174.3 163.235 179.293 156.789 183.387 149.815L164.375 138.731C161.246 144.051 157.433 148.969 153.013 153.352C148.635 157.694 143.738 161.436 138.451 164.504L149.373 183.61ZM138.203 164.07C143.452 161.023 148.314 157.308 152.661 152.997C157.049 148.645 160.836 143.761 163.944 138.479L144.933 127.395C142.79 131.023 140.183 134.379 137.165 137.371C134.191 140.322 130.867 142.869 127.28 144.965L138.203 164.07ZM127.032 144.531C130.581 142.457 133.87 139.936 136.813 137.016C139.8 134.055 142.38 130.734 144.501 127.143L123.545 114.925C122.488 116.693 121.209 118.33 119.733 119.793C118.302 121.213 116.709 122.446 114.993 123.471L127.032 144.531ZM193.02 126.928C190.87 134.822 187.708 142.366 183.639 149.384L164.627 138.299C167.732 132.937 170.145 127.174 171.787 121.144C173.428 115.12 174.272 108.935 174.317 102.744L196.324 102.838C196.27 110.943 195.168 119.041 193.02 126.928ZM171.305 121.013C169.674 127 167.278 132.723 164.196 138.047L145.185 126.963C147.302 123.293 148.95 119.351 150.073 115.228C151.195 111.109 151.774 106.881 151.812 102.649L173.817 102.742C173.772 108.889 172.934 115.031 171.305 121.013ZM149.59 115.097C148.479 119.178 146.849 123.079 144.753 126.711L123.798 114.493C124.83 112.686 125.635 110.747 126.187 108.721C126.738 106.698 127.028 104.622 127.055 102.543L151.312 102.646C151.275 106.835 150.701 111.02 149.59 115.097ZM196.326 102.338C196.336 94.2452 195.302 86.1501 193.222 78.257C191.137 70.3429 188.037 62.7702 184.024 55.7174L164.919 66.6393C167.982 72.0301 170.348 77.8169 171.942 83.8639C173.529 89.8887 174.322 96.0671 174.319 102.244L196.326 102.338ZM173.819 102.242C173.821 96.1085 173.035 89.9736 171.458 83.9913C169.876 77.9867 167.526 72.2405 164.485 66.8874L145.381 77.809C147.472 81.5002 149.089 85.4606 150.179 89.5982C151.263 93.7122 151.808 97.9304 151.813 102.149L173.819 102.242ZM151.313 102.146C151.308 97.9718 150.768 93.7972 149.696 89.7256C148.617 85.6304 147.016 81.7106 144.947 78.0571L123.889 90.0956C124.911 91.917 125.703 93.8681 126.24 95.9052C126.346 96.3077 126.442 96.7123 126.527 97.1184C126.665 97.7726 126.776 98.4309 126.86 99.0918C126.984 100.072 127.05 101.057 127.057 102.043L151.313 102.146ZM169.061 36.0052C174.802 41.794 179.741 48.2789 183.775 55.2834L164.671 66.2054C161.587 60.8639 157.816 55.9179 153.436 51.5009C149.055 47.0838 144.141 43.2725 138.825 40.1443L149.909 21.1334C156.879 25.2258 163.321 30.2172 169.061 36.0052ZM153.081 51.8529C157.43 56.2388 161.174 61.1499 164.236 66.4536L145.132 77.3752C143.021 73.7346 140.445 70.3625 137.456 67.3486C134.466 64.3335 131.114 61.7289 127.489 59.5869L138.573 40.5763C143.851 43.6825 148.731 47.4671 153.081 51.8529ZM137.101 67.7007C140.059 70.6834 142.608 74.0205 144.698 77.6233L123.64 89.6621C122.599 87.8921 121.337 86.2509 119.879 84.7804C118.418 83.3074 116.784 82.0304 115.02 80.9737L127.237 60.0189C130.824 62.1389 134.142 64.7167 137.101 67.7007ZM149.477 20.8814C142.457 16.8093 134.909 13.6457 127.012 11.4944C119.098 9.33858 110.971 8.23689 102.839 8.19019L102.745 30.196C108.963 30.2345 115.177 31.0783 121.228 32.7267C127.261 34.3702 133.028 36.785 138.393 39.8923L149.477 20.8814ZM138.141 40.3242C132.814 37.2389 127.087 34.8411 121.096 33.2091C115.088 31.5723 108.918 30.7343 102.743 30.696L102.649 52.7018C106.91 52.7319 111.167 53.3119 115.313 54.4414C119.44 55.5655 123.385 57.2144 127.057 59.3347L138.141 40.3242ZM126.806 59.7667C123.171 57.6682 119.266 56.0364 115.182 54.9238C111.078 53.8059 106.864 53.2317 102.647 53.2018L102.544 77.4576C104.651 77.4783 106.756 77.7681 108.807 78.3268C110.836 78.8795 112.778 79.6861 114.588 80.7211L126.806 59.7667ZM78.3404 11.2922C86.2066 9.21946 94.2734 8.18522 102.339 8.18865L102.245 30.1946C96.0954 30.1992 89.9453 30.9914 83.9475 32.5718C77.8488 34.1788 72.0147 36.5726 66.5845 39.6735L55.6629 20.5691C62.7549 16.5182 70.3747 13.3912 78.3404 11.2922ZM84.0749 33.0553C90.0303 31.4861 96.1368 30.6994 102.243 30.6946L102.149 52.7008C97.9591 52.7135 93.7696 53.2581 89.683 54.3349C85.4934 55.4389 81.4854 57.0829 77.7546 59.2124L66.8327 40.1076C72.2251 37.0283 78.0186 34.6512 84.0749 33.0553ZM89.8104 54.8184C93.8546 53.7528 98.0005 53.2137 102.147 53.2008L102.044 77.4577C100.009 77.4787 97.9763 77.7506 95.992 78.2735C93.9022 78.8242 91.9029 79.6435 90.0413 80.7045L78.0028 59.6465C81.6958 57.5386 85.6632 55.9112 89.8104 54.8184Z" fill="#0284D2"/>
</g>
<g opacity="0.8">
<circle cx="102.044" cy="102.268" r="24.4209" fill="#4396F7" fill-opacity="0.1"/>
<circle cx="102.044" cy="102.268" r="49.3232" fill="#4396F7" fill-opacity="0.1"/>
<circle cx="102.044" cy="102.267" r="71.9546" fill="#4396F7" fill-opacity="0.1"/>
<circle cx="102.044" cy="102.267" r="94.3093" fill="#4396F7" fill-opacity="0.1"/>
</g>
<path d="M126.847 102.271C126.847 97.9874 125.724 93.7789 123.59 90.065L102.347 102.271H126.847Z" fill="#4396F7"/>
<path d="M123.605 90.0886C121.476 86.3722 118.409 83.2791 114.711 81.1176L102.348 102.269L123.605 90.0886Z" fill="#F74343"/>
<path d="M102.316 77.7705C98.0328 77.7756 93.8257 78.9035 90.1143 81.0418L102.345 102.271L102.316 77.7705Z" fill="#4396F7"/>
<path d="M89.9796 81.1178C86.2816 83.279 83.2148 86.372 81.0851 90.0883L102.342 102.27L89.9796 81.1178Z" fill="#4396F7"/>
<path d="M81.0027 90.2332C78.8983 93.9639 77.8088 98.1811 77.8427 102.464L102.342 102.27L81.0027 90.2332Z" fill="#4396F7"/>
<path d="M77.8444 102.578C77.8982 106.861 79.0738 111.055 81.2542 114.742L102.343 102.27L77.8444 102.578Z" fill="#F74343"/>
<path d="M114.99 123.254C118.658 121.043 121.683 117.909 123.762 114.164L102.343 102.27L114.99 123.254Z" fill="#F74343"/>
<path d="M90.234 123.567C93.9571 125.684 98.1703 126.789 102.454 126.77L102.347 102.271L90.234 123.567Z" fill="#4396F7"/>
<path d="M123.637 114.395C125.757 110.674 126.864 106.461 126.847 102.178L102.348 102.271L123.637 114.395Z" fill="#4396F7"/>
<path d="M114.693 81.1089C110.993 78.9502 106.793 77.7992 102.509 77.7705L102.346 102.27L114.693 81.1089Z" fill="#4396F7"/>
<path d="M151.362 102.241C151.354 93.6717 149.1 85.2538 144.824 77.827L123.753 89.9586C125.909 93.7017 127.045 97.9443 127.049 102.263L151.362 102.241Z" fill="#F74343"/>
<path d="M102.237 53.2667C93.6668 53.2846 85.2515 55.5489 77.8299 59.8337L89.9864 80.8897C93.7269 78.7301 97.9682 77.5889 102.287 77.5799L102.237 53.2667Z" fill="#F74343"/>
<path d="M77.5874 59.971C70.1898 64.2974 64.0558 70.4875 59.7969 77.9241L80.8952 90.0069C83.0417 86.2589 86.1332 83.1391 89.8616 80.9586L77.5874 59.971Z" fill="#F74343"/>
<path d="M59.8033 77.9229C55.5443 85.3594 53.3094 93.7826 53.3213 102.352L77.6346 102.318C77.6285 97.9993 78.755 93.754 80.9015 90.006L59.8033 77.9229Z" fill="#F74343"/>
<path d="M78.0264 144.848C85.4676 149.099 93.8932 151.325 102.463 151.303L102.402 126.99C98.0833 127.001 93.8368 125.879 90.0864 123.737L78.0264 144.848Z" fill="#F74343"/>
<path d="M144.756 126.863C149.053 119.448 151.33 111.036 151.362 102.466L127.049 102.377C127.033 106.696 125.885 110.936 123.72 114.673L144.756 126.863Z" fill="#F74343"/>
<path d="M126.881 59.8517C119.463 55.5609 111.049 53.2899 102.48 53.2652L102.409 77.5784C106.729 77.5908 110.969 78.7354 114.708 80.8979L126.881 59.8517Z" fill="#F74343"/>
<mask id="mask0" mask-type="alpha" maskUnits="userSpaceOnUse" x="56" y="89" width="48" height="58">
<path d="M78.239 145.939L103.105 101.752L59.9297 127.433C59.9297 127.433 67.3054 136.314 69.1832 138.064C71.0609 139.814 78.239 145.939 78.239 145.939Z" fill="#F74343"/>
</mask>
<g mask="url(#mask0)">
<path fill-rule="evenodd" clip-rule="evenodd" d="M49.2933 133.069L41.2983 166.58L42.8609 166.953L50.856 133.442L49.2933 133.069ZM83.5828 111.989L75.5878 145.501L77.1504 145.874L85.1455 112.362L83.5828 111.989ZM109.877 124.421L117.872 90.9095L119.435 91.2823L111.44 124.794L109.877 124.421ZM66.4381 122.529L58.443 156.041L60.0057 156.413L68.0007 122.902L66.4381 122.529ZM92.7325 134.961L100.728 101.449L102.29 101.822L94.2951 135.334L92.7325 134.961ZM135.017 80.3697L127.022 113.881L128.585 114.254L136.58 80.7425L135.017 80.3697ZM47.0132 163.067L55.0083 129.556L56.5709 129.928L48.5759 163.44L47.0132 163.067ZM89.2977 108.476L81.3027 141.987L82.8653 142.36L90.8604 108.849L89.2977 108.476ZM115.592 120.908L123.587 87.3962L125.15 87.769L117.155 121.281L115.592 120.908ZM72.153 119.016L64.1579 152.527L65.7206 152.9L73.7157 119.389L72.153 119.016ZM98.4474 131.448L106.442 97.9361L108.005 98.3089L100.01 131.82L98.4474 131.448ZM140.732 76.8564L132.737 110.368L134.3 110.741L142.295 77.2292L140.732 76.8564ZM52.7281 159.554L60.7232 126.042L62.2858 126.415L54.2908 159.927L52.7281 159.554ZM95.0126 104.963L87.0176 138.474L88.5802 138.847L96.5753 105.335L95.0126 104.963ZM121.307 117.395L129.302 83.883L130.865 84.2558L122.87 117.767L121.307 117.395ZM77.8679 115.502L69.8728 149.014L71.4355 149.387L79.4306 115.875L77.8679 115.502ZM104.162 127.934L112.157 94.4228L113.72 94.7956L105.725 128.307L104.162 127.934ZM146.447 73.3431L138.452 106.855L140.014 107.227L148.01 73.7159L146.447 73.3431Z" fill="#F74343"/>
</g>
<g style="mix-blend-mode:screen">
<path fill-rule="evenodd" clip-rule="evenodd" d="M102.87 0.821599L102.841 7.69019C111.017 7.73708 119.187 8.84463 127.143 11.012C135.083 13.1749 142.671 16.3554 149.729 20.4494L153.05 14.7542L153.482 15.006L150.161 20.7015C157.168 24.8158 163.645 29.834 169.416 35.6531C175.188 41.4731 180.153 47.993 184.209 55.0353L190.1 51.668L190.348 52.102L184.458 55.4692C188.492 62.5598 191.609 70.1731 193.706 78.1296C195.797 86.0651 196.836 94.2038 196.826 102.34L203.865 102.37L203.863 102.87L196.824 102.84C196.77 110.989 195.662 119.13 193.502 127.06C191.34 134.996 188.162 142.581 184.071 149.635L189.929 153.051L189.677 153.483L183.819 150.067C179.703 157.078 174.683 163.559 168.861 169.333C163.08 175.066 156.609 180.003 149.621 184.044L153.017 189.984L152.583 190.232L149.188 184.293C142.057 188.367 134.395 191.512 126.385 193.622C118.504 195.699 110.424 196.738 102.343 196.742L102.314 203.749L101.814 203.747L101.843 196.741C93.6387 196.702 85.4389 195.594 77.4545 193.419C69.5602 191.268 62.0135 188.112 54.9903 184.052L51.6321 189.812L51.2002 189.56L54.5581 183.801C47.5044 179.673 40.9856 174.63 35.1813 168.778C29.4474 162.996 24.5099 156.524 20.4684 149.534L14.5832 152.899L14.335 152.465L20.2192 149.101C16.1464 141.971 13.0024 134.31 10.8922 126.301C8.81265 118.41 7.7729 110.317 7.77207 102.225L0.817412 102.196L0.819542 101.696L7.77334 101.725C7.81584 93.532 8.92348 85.3442 11.0954 77.3711C13.2506 69.4594 16.4162 61.897 20.489 54.8607L14.7541 51.517L15.0059 51.085L20.7407 54.4286C24.8632 47.3926 29.8965 40.8895 35.7365 35.0978C41.5186 29.3636 47.9916 24.4258 54.9812 20.3842L51.6649 14.5833L52.099 14.3351L55.4147 20.135C62.5445 16.0625 70.2049 12.9189 78.213 10.8087C86.1217 8.72478 94.232 7.68503 102.341 7.68865L102.37 0.819469L102.87 0.821599ZM11.5778 77.5025C13.7215 69.6332 16.87 62.1113 20.921 55.1126L39.9318 66.1967C36.8458 71.5403 34.4461 77.2811 32.8103 83.286C31.1573 89.3541 30.3134 95.5855 30.2793 101.821L8.27334 101.727C8.31565 93.5777 9.41743 85.4333 11.5778 77.5025ZM33.2927 83.4174C34.9169 77.4549 37.2996 71.7545 40.3638 66.4486L59.3754 77.5332C57.2763 81.1838 55.6425 85.1029 54.5262 89.2009C53.3921 93.364 52.812 97.6389 52.7863 101.917L30.7793 101.823C30.8132 95.6311 31.6513 89.4432 33.2927 83.4174ZM40.6153 66.0164L59.6269 77.101C61.7773 73.4471 64.3972 70.0689 67.4334 67.0578C70.409 64.1068 73.7339 61.5585 77.3216 59.4624L66.3994 40.357C61.1484 43.4044 56.2844 47.121 51.9366 51.4328C47.5297 55.8033 43.7299 60.7091 40.6153 66.0164ZM55.0086 89.3323C56.1134 85.2767 57.7302 81.3981 59.8074 77.7851L80.7635 90.0034C79.7498 91.7915 78.9584 93.7064 78.4135 95.7065C77.9137 97.5413 77.6292 99.4195 77.5599 101.304C77.5511 101.543 77.5457 101.783 77.5439 102.022L53.2863 101.919C53.3118 97.6846 53.8861 93.4531 55.0086 89.3323ZM60.0588 77.3529L81.0145 89.571C82.0801 87.7768 83.3728 86.117 84.8672 84.635C86.299 83.215 87.8926 81.9814 89.6094 80.9565L77.5698 59.8965C74.0199 61.971 70.73 64.4927 67.7855 67.4128C64.7804 70.393 62.1873 73.7365 60.0588 77.3529ZM78.896 95.839C79.4294 93.8809 80.2039 92.0062 81.1959 90.2555L100.732 101.646C100.716 101.688 100.702 101.732 100.69 101.776C100.66 101.889 100.641 102.005 100.634 102.121L78.0439 102.025C78.0457 101.79 78.0509 101.556 78.0596 101.322C78.1275 99.4763 78.4063 97.6364 78.896 95.839ZM100.682 102.621L78.0451 102.525C78.0487 102.807 78.0573 103.089 78.0708 103.372C78.1515 105.061 78.4092 106.745 78.8438 108.394C79.3833 110.442 80.1861 112.401 81.2257 114.225L100.836 103.014C100.772 102.896 100.721 102.77 100.687 102.639C100.685 102.633 100.684 102.627 100.682 102.621ZM101.142 103.415L81.4777 114.656C82.481 116.335 83.6878 117.894 85.0768 119.294C86.5399 120.77 88.18 122.044 89.9533 123.093L101.334 103.574C101.266 103.526 101.202 103.472 101.142 103.415ZM101.781 103.799L90.3863 123.343C92.124 124.323 93.9834 125.089 95.9247 125.618C97.9605 126.172 100.051 126.456 102.143 126.47L102.239 103.88C102.112 103.876 101.985 103.857 101.861 103.823C101.834 103.816 101.808 103.808 101.781 103.799ZM102.739 103.822L102.643 126.468C104.606 126.44 106.566 126.174 108.481 125.67C110.529 125.13 112.488 124.327 114.312 123.288L103.101 103.676C102.987 103.739 102.865 103.788 102.739 103.822ZM103.501 103.37L114.744 123.035C116.422 122.032 117.981 120.826 119.381 119.437C120.825 118.005 122.077 116.403 123.113 114.673L103.578 103.284C103.554 103.313 103.528 103.342 103.501 103.37ZM103.838 102.856L123.365 114.241C124.376 112.471 125.164 110.573 125.704 108.589C126.244 106.608 126.527 104.576 126.555 102.541L103.951 102.445C103.941 102.515 103.927 102.584 103.908 102.652C103.889 102.722 103.866 102.79 103.838 102.856ZM103.945 101.945L126.557 102.041C126.55 101.077 126.485 100.113 126.364 99.1549C126.267 98.3926 126.133 97.6338 125.964 96.8811C125.9 96.5977 125.831 96.3151 125.757 96.0336C125.231 94.0387 124.455 92.1278 123.454 90.3439L103.833 101.561C103.865 101.635 103.891 101.711 103.912 101.789C103.925 101.841 103.936 101.892 103.945 101.945ZM103.571 101.135L123.205 89.9104C122.186 88.1785 120.951 86.5726 119.524 85.1335C118.094 83.6915 116.495 82.4412 114.767 81.4063L103.377 100.942C103.414 100.973 103.449 101.006 103.483 101.04C103.514 101.071 103.543 101.102 103.571 101.135ZM102.951 100.68L114.336 81.1538C112.563 80.1408 110.662 79.3513 108.676 78.8102C106.667 78.263 104.606 77.9791 102.542 77.9585L102.445 100.553C102.544 100.562 102.641 100.579 102.737 100.605C102.811 100.625 102.882 100.65 102.951 100.68ZM101.945 100.585L102.042 77.9587C100.051 77.9799 98.0613 78.2463 96.1194 78.758C94.0722 79.2974 92.1136 80.1001 90.2899 81.1394L101.501 100.75C101.619 100.686 101.744 100.636 101.874 100.602C101.898 100.596 101.922 100.59 101.945 100.585ZM101.1 101.056L89.8581 81.3914C88.1789 82.3948 86.6201 83.6018 85.2193 84.991C83.7563 86.4419 82.4905 88.0668 81.4469 89.8231L100.971 101.206C101.011 101.154 101.054 101.103 101.1 101.056ZM21.1726 54.6805L40.1834 65.7646C43.3199 60.4197 47.1464 55.4791 51.5845 51.0778C55.9635 46.7351 60.8624 42.992 66.1512 39.9229L55.2294 20.8183C48.2775 24.8383 41.8396 29.7495 36.0886 35.4529C30.2798 41.2136 25.2733 47.682 21.1726 54.6805ZM8.27207 102.227C8.27308 110.275 9.30733 118.325 11.3757 126.174C13.4748 134.14 16.602 141.76 20.6533 148.853L39.7581 137.931C36.6568 132.5 34.2626 126.666 32.6554 120.566C31.0795 114.585 30.2873 108.453 30.2783 102.321L8.27207 102.227ZM30.7783 102.323C30.7875 108.412 31.5742 114.5 33.1389 120.439C34.735 126.496 37.1124 132.29 40.1922 137.683L59.2977 126.76C57.168 123.029 55.5238 119.021 54.4197 114.831C53.3473 110.761 52.8028 106.59 52.7858 102.417L30.7783 102.323ZM53.2858 102.419C53.303 106.548 53.842 110.676 54.9032 114.704C55.9961 118.851 57.6237 122.819 59.7318 126.512L80.7911 114.473C79.7302 112.612 78.9109 110.612 78.3603 108.523C77.9177 106.843 77.655 105.129 77.5719 103.408C77.5577 103.113 77.5487 102.818 77.5451 102.522L53.2858 102.419ZM35.5363 168.426C29.8333 162.675 24.9224 156.238 20.9025 149.286L40.0076 138.364C43.0764 143.652 46.8192 148.551 51.1614 152.929C55.5754 157.38 60.5318 161.216 65.8944 164.357L54.8099 183.369C47.7938 179.263 41.3097 174.247 35.5363 168.426ZM51.5165 152.577C47.2051 148.23 43.4889 143.366 40.4417 138.116L59.5478 127.193C61.6438 130.781 64.1918 134.105 67.1426 137.081C70.1661 140.129 73.5597 142.758 77.2309 144.914L66.1462 163.925C60.8212 160.806 55.8996 156.997 51.5165 152.577ZM67.4976 136.728C64.5778 133.784 62.0562 130.495 59.9819 126.945L81.0431 114.905C82.0681 116.622 83.3017 118.216 84.7218 119.647C86.2157 121.154 87.8903 122.455 89.701 123.526L77.4827 144.482C73.8491 142.348 70.4902 139.746 67.4976 136.728ZM55.2421 183.62C62.2278 187.658 69.7339 190.798 77.5859 192.936C85.528 195.1 93.6843 196.202 101.846 196.241L101.939 174.235C95.6922 174.203 89.449 173.359 83.3696 171.703C77.3821 170.072 71.6571 167.682 66.3266 164.609L55.2421 183.62ZM66.5785 164.177C71.8713 167.228 77.5558 169.601 83.501 171.221C89.538 172.865 95.7378 173.704 101.941 173.735L102.035 151.728C97.746 151.705 93.4597 151.125 89.2857 149.988C85.2047 148.876 81.3011 147.251 77.6633 145.165L66.5785 164.177ZM77.9152 144.733C81.5153 146.797 85.3785 148.405 89.4171 149.505C93.5488 150.631 97.7917 151.205 102.037 151.228L102.141 126.971C100.005 126.957 97.8715 126.667 95.7934 126.101C93.8095 125.561 91.9095 124.778 90.1339 123.776L77.9152 144.733ZM126.257 193.139C118.419 195.204 110.382 196.238 102.346 196.242L102.439 174.235C108.56 174.223 114.68 173.431 120.65 171.858C126.75 170.251 132.586 167.856 138.018 164.754L148.94 183.859C141.846 187.911 134.225 191.039 126.257 193.139ZM120.522 171.375C114.595 172.937 108.519 173.723 102.441 173.735L102.535 151.728C106.697 151.708 110.857 151.164 114.916 150.094C119.107 148.99 123.116 147.345 126.848 145.215L137.769 164.32C132.376 167.4 126.58 169.778 120.522 171.375ZM114.788 149.611C110.772 150.669 106.655 151.208 102.537 151.228L102.641 126.969C104.647 126.942 106.651 126.67 108.608 126.154C110.699 125.604 112.699 124.784 114.561 123.723L126.599 144.781C122.905 146.89 118.937 148.518 114.788 149.611ZM149.373 183.61C156.323 179.59 162.76 174.68 168.509 168.978C174.3 163.235 179.293 156.789 183.387 149.815L164.375 138.731C161.246 144.051 157.433 148.969 153.013 153.352C148.635 157.694 143.738 161.436 138.451 164.504L149.373 183.61ZM138.203 164.07C143.452 161.023 148.314 157.308 152.661 152.997C157.049 148.645 160.836 143.761 163.944 138.479L144.933 127.395C142.79 131.023 140.183 134.379 137.165 137.371C134.191 140.322 130.867 142.869 127.28 144.965L138.203 164.07ZM127.032 144.531C130.581 142.457 133.87 139.936 136.813 137.016C139.8 134.055 142.38 130.734 144.501 127.143L123.545 114.925C122.488 116.693 121.209 118.33 119.733 119.793C118.302 121.213 116.709 122.446 114.993 123.471L127.032 144.531ZM193.02 126.928C190.87 134.822 187.708 142.366 183.639 149.384L164.627 138.299C167.732 132.937 170.145 127.174 171.787 121.144C173.428 115.12 174.272 108.935 174.317 102.744L196.324 102.838C196.27 110.943 195.168 119.041 193.02 126.928ZM171.305 121.013C169.674 127 167.278 132.723 164.196 138.047L145.185 126.963C147.302 123.293 148.95 119.351 150.073 115.228C151.195 111.109 151.774 106.881 151.812 102.649L173.817 102.742C173.772 108.889 172.934 115.031 171.305 121.013ZM149.59 115.097C148.479 119.178 146.849 123.079 144.753 126.711L123.798 114.493C124.83 112.686 125.635 110.747 126.187 108.721C126.738 106.698 127.028 104.622 127.055 102.543L151.312 102.646C151.275 106.835 150.701 111.02 149.59 115.097ZM196.326 102.338C196.336 94.2452 195.302 86.1501 193.222 78.257C191.137 70.3429 188.037 62.7702 184.024 55.7174L164.919 66.6393C167.982 72.0301 170.348 77.8169 171.942 83.8639C173.529 89.8887 174.322 96.0671 174.319 102.244L196.326 102.338ZM173.819 102.242C173.821 96.1085 173.035 89.9736 171.458 83.9913C169.876 77.9867 167.526 72.2405 164.485 66.8874L145.381 77.809C147.472 81.5002 149.089 85.4606 150.179 89.5982C151.263 93.7122 151.808 97.9304 151.813 102.149L173.819 102.242ZM151.313 102.146C151.308 97.9718 150.768 93.7972 149.696 89.7256C148.617 85.6304 147.016 81.7106 144.947 78.0571L123.889 90.0956C124.911 91.917 125.703 93.8681 126.24 95.9052C126.346 96.3077 126.442 96.7123 126.527 97.1184C126.665 97.7726 126.776 98.4309 126.86 99.0918C126.984 100.072 127.05 101.057 127.057 102.043L151.313 102.146ZM169.061 36.0052C174.802 41.794 179.741 48.2789 183.775 55.2834L164.671 66.2054C161.587 60.8639 157.816 55.9179 153.436 51.5009C149.055 47.0838 144.141 43.2725 138.825 40.1443L149.909 21.1334C156.879 25.2258 163.321 30.2172 169.061 36.0052ZM153.081 51.8529C157.43 56.2388 161.174 61.1499 164.236 66.4536L145.132 77.3752C143.021 73.7346 140.445 70.3625 137.456 67.3486C134.466 64.3335 131.114 61.7289 127.489 59.5869L138.573 40.5763C143.851 43.6825 148.731 47.4671 153.081 51.8529ZM137.101 67.7007C140.059 70.6834 142.608 74.0205 144.698 77.6233L123.64 89.6621C122.599 87.8921 121.337 86.2509 119.879 84.7804C118.418 83.3074 116.784 82.0304 115.02 80.9737L127.237 60.0189C130.824 62.1389 134.142 64.7167 137.101 67.7007ZM149.477 20.8814C142.457 16.8093 134.909 13.6457 127.012 11.4944C119.098 9.33858 110.971 8.23689 102.839 8.19019L102.745 30.196C108.963 30.2345 115.177 31.0783 121.228 32.7267C127.261 34.3702 133.028 36.785 138.393 39.8923L149.477 20.8814ZM138.141 40.3242C132.814 37.2389 127.087 34.8411 121.096 33.2091C115.088 31.5723 108.918 30.7343 102.743 30.696L102.649 52.7018C106.91 52.7319 111.167 53.3119 115.313 54.4414C119.44 55.5655 123.385 57.2144 127.057 59.3347L138.141 40.3242ZM126.806 59.7667C123.171 57.6682 119.266 56.0364 115.182 54.9238C111.078 53.8059 106.864 53.2317 102.647 53.2018L102.544 77.4576C104.651 77.4783 106.756 77.7681 108.807 78.3268C110.836 78.8795 112.778 79.6861 114.588 80.7211L126.806 59.7667ZM78.3404 11.2922C86.2066 9.21946 94.2734 8.18522 102.339 8.18865L102.245 30.1946C96.0954 30.1992 89.9453 30.9914 83.9475 32.5718C77.8488 34.1788 72.0147 36.5726 66.5845 39.6735L55.6629 20.5691C62.7549 16.5182 70.3747 13.3912 78.3404 11.2922ZM84.0749 33.0553C90.0303 31.4861 96.1368 30.6994 102.243 30.6946L102.149 52.7008C97.9591 52.7135 93.7696 53.2581 89.683 54.3349C85.4934 55.4389 81.4854 57.0829 77.7546 59.2124L66.8327 40.1076C72.2251 37.0283 78.0186 34.6512 84.0749 33.0553ZM89.8104 54.8184C93.8546 53.7528 98.0005 53.2137 102.147 53.2008L102.044 77.4577C100.009 77.4787 97.9763 77.7506 95.992 78.2735C93.9022 78.8242 91.9029 79.6435 90.0413 80.7045L78.0028 59.6465C81.6958 57.5386 85.6632 55.9112 89.8104 54.8184Z" fill="white"/>
</g>
<circle cx="77.1149" cy="12.7298" r="8.23979" transform="rotate(0.237983 77.1149 12.7298)" fill="white" stroke="#4396F7" stroke-width="1.08116"/>
<circle cx="126.925" cy="12.9359" r="8.23979" transform="rotate(0.237983 126.925 12.9359)" fill="white" stroke="#4396F7" stroke-width="1.08116"/>
<circle cx="167.395" cy="34.5091" r="8.23979" transform="rotate(0.237983 167.395 34.5091)" fill="white" stroke="#4396F7" stroke-width="1.08116"/>
<circle cx="192.989" cy="78.599" r="8.23979" transform="rotate(0.237983 192.989 78.599)" fill="white" stroke="#4396F7" stroke-width="1.08116"/>
<circle cx="192.787" cy="127.212" r="8.23979" transform="rotate(0.237983 192.787 127.212)" fill="white" stroke="#4396F7" stroke-width="1.08116"/>
<circle cx="168.768" cy="169.408" r="8.23979" transform="rotate(0.237983 168.768 169.408)" fill="white" stroke="#4396F7" stroke-width="1.08116"/>
<circle cx="126.169" cy="194.971" r="8.23979" transform="rotate(0.237983 126.169 194.971)" fill="white" stroke="#4396F7" stroke-width="1.08116"/>
<circle cx="79.1833" cy="194.776" r="8.23979" transform="rotate(0.237983 79.1833 194.776)" fill="white" stroke="#4396F7" stroke-width="1.08116"/>
<circle cx="34.6716" cy="168.851" r="8.23979" transform="rotate(0.237983 34.6716 168.851)" fill="white" stroke="#4396F7" stroke-width="1.08116"/>
<circle cx="10.5895" cy="127.515" r="8.23979" transform="rotate(0.237983 10.5895 127.515)" fill="white" stroke="#4396F7" stroke-width="1.08116"/>
<circle cx="11.9587" cy="77.847" r="8.23979" transform="rotate(0.237983 11.9587 77.847)" fill="white" stroke="#4396F7" stroke-width="1.08116"/>
<circle cx="34.9274" cy="38.3402" r="8.23979" transform="rotate(0.237983 34.9274 38.3402)" fill="white" stroke="#4396F7" stroke-width="1.08116"/>
<path d="M103.607 113.054L103.045 113.052C102.877 113.977 102.115 114.198 101.276 114.195L101.273 114.783L102.865 114.79L102.846 119.184L103.582 119.187L103.607 113.054Z" fill="black"/>
<path d="M101.534 139.415C101.511 138.68 101.878 137.894 102.734 137.898C103.383 137.901 103.917 138.344 103.914 139.01C103.911 139.858 103.382 140.236 102.341 140.872C101.474 141.404 100.737 141.92 100.609 143.373L104.614 143.39L104.617 142.741L101.468 142.728C101.619 141.967 102.425 141.581 103.196 141.117C103.959 140.645 104.688 140.103 104.693 139.022C104.697 137.88 103.852 137.254 102.78 137.249C101.483 137.244 100.743 138.167 100.799 139.412L101.534 139.415Z" fill="black"/>
<path d="M102.2 164.39C102.338 164.374 102.494 164.366 102.641 164.366C103.367 164.369 103.945 164.778 103.942 165.548C103.939 166.292 103.323 166.73 102.605 166.727C101.766 166.724 101.327 166.168 101.305 165.373L100.57 165.37C100.538 166.632 101.357 167.371 102.602 167.376C103.753 167.381 104.716 166.745 104.721 165.517C104.724 164.781 104.363 164.192 103.62 164.024L103.62 164.007C104.088 163.793 104.47 163.327 104.472 162.791C104.477 161.658 103.675 161.144 102.611 161.14C101.383 161.135 100.757 161.945 100.709 163.113L101.444 163.116C101.455 162.398 101.804 161.785 102.608 161.789C103.231 161.791 103.697 162.139 103.694 162.779C103.691 163.445 103.145 163.78 102.522 163.778C102.418 163.777 102.315 163.777 102.202 163.768L102.2 164.39Z" fill="black"/>
<path d="M103.858 183.698L103.27 183.696L100.46 187.671L100.457 188.381L103.147 188.392L103.141 189.828L103.832 189.83L103.838 188.395L104.669 188.398L104.671 187.749L103.841 187.746L103.858 183.698ZM101.091 187.735L103.144 184.742L103.162 184.742L103.149 187.743L101.091 187.735Z" fill="black"/>
<path d="M125.825 11.2862C125.802 10.5509 126.169 9.76533 127.025 9.76889C127.674 9.77158 128.208 10.2149 128.206 10.8809C128.202 11.7285 127.673 12.1069 126.632 12.7426C125.765 13.2753 125.028 13.7912 124.901 15.2438L128.905 15.2604L128.908 14.6117L125.76 14.5986C125.91 13.8381 126.716 13.4522 127.488 12.9884C128.251 12.5158 128.98 11.9739 128.984 10.8928C128.989 9.7511 128.144 9.12483 127.071 9.12038C125.774 9.11499 125.035 10.0374 125.09 11.2831L125.825 11.2862Z" fill="black"/>
<path d="M77.9276 8.91636L77.3654 8.91403C77.1973 9.83881 76.4352 10.0605 75.5962 10.057L75.5938 10.6452L77.1852 10.6518L77.167 15.0456L77.9022 15.0487L77.9276 8.91636Z" fill="black"/>
<path d="M166.879 34.227C167.017 34.2103 167.173 34.2023 167.32 34.2029C168.046 34.2059 168.624 34.6148 168.621 35.3846C168.618 36.1284 168.002 36.567 167.284 36.564C166.445 36.5605 166.006 36.0051 165.984 35.2093L165.249 35.2062C165.217 36.4689 166.036 37.2075 167.282 37.2127C168.432 37.2175 169.395 36.5814 169.4 35.3532C169.403 34.618 169.042 34.0284 168.299 33.861L168.299 33.8437C168.767 33.6294 169.149 33.1639 169.152 32.6276C169.156 31.4946 168.354 30.981 167.29 30.9765C166.062 30.9714 165.436 31.7819 165.388 32.9493L166.123 32.9524C166.135 32.2345 166.483 31.6219 167.287 31.6252C167.91 31.6278 168.376 31.9757 168.373 32.6158C168.37 33.2818 167.824 33.6168 167.201 33.6142C167.098 33.6138 166.994 33.6134 166.881 33.6042L166.879 34.227Z" fill="black"/>
<path d="M34.7411 37.8426C35.58 37.8461 35.9753 38.4791 35.9721 39.2402C35.9691 39.9668 35.5254 40.5963 34.7296 40.593C33.9253 40.5897 33.4607 39.9823 33.4639 39.2212C33.4671 38.4514 33.9194 37.8392 34.7411 37.8426ZM36.5886 36.5788C36.5063 35.5838 35.8772 35.0103 34.8653 35.0061C33.1181 34.9989 32.6012 36.5968 32.5942 38.2834C32.5888 39.5722 32.876 41.234 34.6923 41.2416C36.2406 41.248 36.7471 40.0825 36.7508 39.1916C36.7555 38.0585 36.0584 37.1994 34.8821 37.1945C34.2162 37.1917 33.6962 37.4317 33.3479 37.9925L33.3307 37.9751C33.3692 37.0325 33.5739 35.6495 34.828 35.6547C35.4075 35.6571 35.7865 36.0219 35.8534 36.5758L36.5886 36.5788Z" fill="black"/>
<path d="M194.226 74.7389L193.638 74.7365L190.828 78.7122L190.825 79.4214L193.515 79.4326L193.509 80.8684L194.201 80.8712L194.207 79.4355L195.037 79.4389L195.04 78.7902L194.21 78.7868L194.226 74.7389ZM191.459 78.7753L193.513 75.7825L193.53 75.7826L193.518 78.7839L191.459 78.7753Z" fill="black"/>
<path d="M194.467 124.108L191.44 124.096L190.856 127.276L191.487 127.313C191.774 126.969 192.164 126.737 192.631 126.739C193.453 126.742 194.012 127.324 194.009 128.137C194.005 129.114 193.406 129.588 192.706 129.585C191.97 129.582 191.462 129.104 191.422 128.472L190.686 128.469C190.708 129.576 191.57 130.229 192.634 130.233C194.061 130.239 194.783 129.239 194.787 128.201C194.793 126.8 193.905 126.095 192.815 126.091C192.4 126.089 191.941 126.225 191.672 126.527L191.655 126.51L191.991 124.747L194.464 124.757L194.467 124.108Z" fill="black"/>
<path d="M9.30642 128.447C9.30936 127.738 9.88215 127.273 10.6087 127.276C11.3006 127.279 11.8694 127.783 11.8666 128.449C11.8638 129.133 11.3427 129.641 10.6075 129.638C9.8464 129.635 9.30336 129.183 9.30642 128.447ZM8.756 125.608C8.7537 126.162 9.09755 126.673 9.60699 126.883C8.9227 127.122 8.53115 127.683 8.52813 128.41C8.52292 129.664 9.42854 130.282 10.6048 130.286C11.7379 130.291 12.6402 129.612 12.6452 128.427C12.6483 127.666 12.2959 127.128 11.5617 126.891C12.0643 126.668 12.4124 126.168 12.4146 125.623C12.4179 124.845 11.9022 124.056 10.5615 124.05C9.61878 124.046 8.76021 124.596 8.756 125.608ZM9.53432 125.637C9.53687 125.023 10.0226 124.697 10.6107 124.699C11.2075 124.701 11.6386 125.032 11.6361 125.646C11.6335 126.269 11.1995 126.63 10.62 126.628C10.0146 126.625 9.53152 126.312 9.53432 125.637Z" fill="black"/>
<path d="M13.9087 74.7444L9.93874 74.7279L9.93587 75.4198L13.1534 75.4332C11.859 76.7944 10.8564 78.6845 10.7094 80.7597L11.5311 80.7631C11.6515 78.8435 12.6642 76.5988 13.9061 75.3758L13.9087 74.7444Z" fill="black"/>
<path d="M167.059 166.181L166.497 166.178C166.328 167.103 165.566 167.325 164.727 167.321L164.725 167.91L166.316 167.916L166.298 172.31L167.033 172.313L167.059 166.181ZM169.892 168.364C169.87 167.628 170.236 166.843 171.092 166.846C171.741 166.849 172.275 167.292 172.273 167.958C172.269 168.806 171.74 169.184 170.699 169.82C169.832 170.353 169.095 170.869 168.968 172.321L172.972 172.338L172.975 171.689L169.827 171.676C169.977 170.915 170.783 170.53 171.555 170.066C172.318 169.593 173.047 169.051 173.051 167.97C173.056 166.828 172.211 166.202 171.138 166.198C169.841 166.192 169.102 167.115 169.157 168.361L169.892 168.364Z" fill="black"/>
<path d="M35.8136 167.252C35.8105 167.979 35.3236 168.6 34.5538 168.596C33.8446 168.593 33.3455 167.969 33.3483 167.294C33.3514 166.541 33.683 165.842 34.5566 165.846C35.3783 165.849 35.8167 166.5 35.8136 167.252ZM32.689 169.843C32.7798 170.898 33.5128 171.429 34.542 171.433C36.0297 171.439 36.6747 170.257 36.6835 168.138C36.6931 165.82 35.7356 165.202 34.5939 165.197C33.4089 165.192 32.5752 166.002 32.5703 167.187C32.5653 168.398 33.2537 169.24 34.4992 169.245C35.096 169.247 35.6423 168.921 35.9212 168.403L35.9384 168.42C35.8886 170.003 35.4442 170.788 34.5447 170.785C33.9566 170.782 33.4736 170.443 33.4242 169.846L32.689 169.843Z" fill="black"/>
<path d="M124.639 191.858L124.077 191.855C123.908 192.78 123.146 193.002 122.307 192.998L122.305 193.586L123.896 193.593L123.878 197.987L124.613 197.99L124.639 191.858ZM129.445 191.878L128.883 191.875C128.715 192.8 127.952 193.022 127.113 193.018L127.111 193.606L128.703 193.613L128.684 198.007L129.419 198.01L129.445 191.878Z" fill="black"/>
<path d="M77.4435 191.662L76.8813 191.66C76.7132 192.585 75.9511 192.806 75.1121 192.803L75.1097 193.391L76.7011 193.398L76.6829 197.791L77.4181 197.795L77.4435 191.662ZM79.5208 194.793C79.5152 196.143 79.6289 197.908 81.5491 197.915C83.4692 197.923 83.5976 196.16 83.6032 194.81C83.6088 193.452 83.4951 191.687 81.575 191.679C79.6548 191.671 79.5264 193.435 79.5208 194.793ZM80.2992 194.788C80.303 193.88 80.3181 192.323 81.5723 192.328C82.8264 192.333 82.8286 193.89 82.8248 194.798C82.821 195.715 82.8059 197.272 81.5518 197.267C80.2976 197.262 80.2954 195.705 80.2992 194.788Z" fill="black"/>
</svg>
