<svg width="299" height="272" viewBox="0 0 299 272" fill="none" xmlns="http://www.w3.org/2000/svg">
<path d="M40.353 135.501C39.8529 119.001 44.8061 102.336 53.0933 88.0013C60.948 73.0523 74.2687 61.465 88.5933 52.9343C103.593 44.0013 119.593 39.5013 136.593 39.5013C153.324 39.231 169.423 44.9981 184.093 52.9343L138.433 135.501H40.353Z" fill="#5CA3F6"/>
<path d="M218.581 87.4515C227.496 101.355 230.975 117.973 231.223 134.833C231.471 151.693 227.042 168.837 218.687 183.49L135.584 135.329L218.581 87.4515Z" fill="#5CA3F6"/>
<path d="M136.64 229.9C120.092 229.9 103.092 225.499 88.5924 217.499L137.166 134.672L136.64 229.9Z" fill="#5CA3F6"/>
<path opacity="0.8" fill-rule="evenodd" clip-rule="evenodd" d="M152.96 72.4944C141.918 69.5357 130.291 69.5357 119.249 72.4944C108.207 75.4532 98.1383 81.2664 90.0549 89.3498C81.9715 97.4332 76.1583 107.502 73.1995 118.544C71.7186 124.071 70.9789 129.744 70.9805 135.418H103.452C103.452 135.418 103.34 140.033 104.457 144.57C105.575 149.11 107.591 152.001 107.591 152.001L78.5911 168.501C81.404 173.335 85.1024 178.012 89.0911 182.001C97.1745 190.084 108.049 196.542 119.091 199.501C124.667 200.995 130.368 201.516 136.091 201.501L136.273 135.418L152.694 163.793C152.694 163.793 155.892 161.743 159.716 158.22L164.509 151.811L192.392 168.155C195.28 163.192 197.511 157.848 199.01 152.255C201.969 141.213 201.969 129.586 199.01 118.544C197.511 112.951 195.28 107.607 192.392 102.645L163.979 118.544C163.979 118.544 162.809 116.314 159.555 113.038C156.344 109.806 152.96 106.765 152.96 106.765L168.731 79.0373C163.805 76.1859 158.505 73.9802 152.96 72.4944Z" fill="#4396F7"/>
<path d="M169.091 192.5C180.591 186.001 189.091 176 195.118 164.757C200.915 153.295 203.117 140.393 201.442 127.695C199.768 114.997 194.565 102.625 185.987 93.0009C177.41 83.3772 166.056 75.7829 153.487 72.5009C140.918 69.2189 127.281 69.327 114.987 73.5009C102.694 77.6748 91.3313 86.2881 83.4874 96.5009C75.6435 106.714 70.8229 119.216 70.0912 132.001C69.4042 144.001 71.0911 157.001 78.5912 168.501L135.602 136.517C135.498 136.344 135.448 136.145 135.46 135.944C135.471 135.743 135.543 135.55 135.667 135.39C135.79 135.229 135.959 135.108 136.152 135.043C136.345 134.977 136.554 134.97 136.751 135.021C136.949 135.073 137.126 135.181 137.261 135.332C137.396 135.484 137.482 135.671 137.508 135.87C137.534 136.07 137.5 136.273 137.409 136.453C137.317 136.633 137.174 136.782 136.996 136.882L169.091 192.5Z" fill="#60A5F6"/>
<g opacity="0.5">
<path opacity="0.1" d="M111.029 44.2381C127.154 39.9176 144.131 39.9176 160.256 44.2381C176.38 48.5586 191.083 57.0474 202.887 68.8513C214.691 80.6551 223.18 95.3582 227.5 111.483C231.821 127.607 231.821 144.585 227.5 160.709C223.18 176.833 214.691 191.536 202.887 203.34C191.083 215.144 176.38 223.633 160.256 227.953C144.131 232.274 127.154 232.274 111.029 227.953C94.905 223.633 80.202 215.144 68.3981 203.34C56.5943 191.536 48.1055 176.833 43.785 160.709C39.4644 144.585 39.4644 127.607 43.785 111.483C48.1055 95.3582 56.5943 80.6551 68.3981 68.8513C80.202 57.0474 94.905 48.5586 111.029 44.2381Z" stroke="#4396F7" stroke-width="1.4384"/>
<path d="M118.689 72.8122C129.797 69.8358 141.493 69.8358 152.602 72.8122C163.71 75.7887 173.839 81.6368 181.971 89.7687C190.103 97.9006 195.951 108.03 198.928 119.138C201.904 130.247 201.904 141.943 198.928 153.051C195.951 164.159 190.103 174.289 181.971 182.421C173.839 190.552 163.71 196.401 152.602 199.377C141.493 202.354 129.797 202.354 118.689 199.377C107.581 196.401 97.4514 190.552 89.3195 182.421C81.1876 174.289 75.3395 164.159 72.363 153.051C69.3865 141.943 69.3865 130.247 72.363 119.138C75.3395 108.03 81.1876 97.9006 89.3195 89.7687C97.4514 81.6368 107.581 75.7887 118.689 72.8122Z" stroke="#4396F7" stroke-width="0.719198"/>
<path d="M127.168 104.452C132.722 102.964 138.57 102.964 144.124 104.452C149.678 105.94 154.743 108.864 158.809 112.93C162.875 116.996 165.799 122.061 167.287 127.615C168.775 133.169 168.775 139.017 167.287 144.571C165.799 150.126 162.875 155.19 158.809 159.256C154.743 163.322 149.678 166.246 144.124 167.734C138.57 169.223 132.722 169.223 127.168 167.734C121.614 166.246 116.549 163.322 112.483 159.256C108.417 155.19 105.493 150.126 104.005 144.571C102.517 139.017 102.517 133.169 104.005 127.615C105.493 122.061 108.417 116.996 112.483 112.93C116.549 108.864 121.614 105.94 127.168 104.452Z" stroke="#4396F7" stroke-width="0.359599"/>
<path d="M135.07 133.952C135.446 133.851 135.842 133.851 136.218 133.952C136.595 134.052 136.938 134.25 137.213 134.526C137.488 134.801 137.686 135.144 137.787 135.52C137.888 135.896 137.888 136.292 137.787 136.669C137.686 137.045 137.488 137.388 137.213 137.663C136.938 137.938 136.595 138.136 136.218 138.237C135.842 138.338 135.446 138.338 135.07 138.237C134.694 138.136 134.351 137.938 134.076 137.663C133.8 137.388 133.602 137.045 133.501 136.669C133.401 136.292 133.401 135.896 133.501 135.52C133.602 135.144 133.8 134.801 134.076 134.526C134.351 134.25 134.694 134.052 135.07 133.952Z" fill="#0284D2"/>
<circle cx="221.875" cy="45.6601" r="10.9624" fill="white" stroke="#4396F7" stroke-width="1.4384"/>
<circle cx="224.445" cy="225.122" r="10.9624" fill="white" stroke="#4396F7" stroke-width="1.4384"/>
<circle cx="167.914" cy="259.367" r="10.9624" fill="white" stroke="#4396F7" stroke-width="1.4384"/>
<circle cx="13.7734" cy="170.262" r="10.9624" fill="white" stroke="#4396F7" stroke-width="1.4384"/>
<path d="M137.444 150.526H136.696C136.478 151.757 135.465 152.056 134.349 152.056V152.839H136.466V158.685H137.444V150.526Z" fill="black"/>
<path d="M134.832 185.609C134.798 184.631 135.281 183.583 136.42 183.583C137.283 183.583 137.997 184.17 137.997 185.056C137.997 186.184 137.295 186.69 135.914 187.542C134.763 188.255 133.785 188.946 133.624 190.879H138.952V190.016H134.763C134.959 189.003 136.029 188.485 137.053 187.864C138.066 187.231 139.032 186.506 139.032 185.068C139.032 183.549 137.904 182.72 136.478 182.72C134.752 182.72 133.773 183.952 133.854 185.609H134.832Z" fill="black"/>
<path d="M135.856 218.832C136.04 218.809 136.247 218.798 136.443 218.798C137.41 218.798 138.181 219.338 138.181 220.363C138.181 221.352 137.364 221.939 136.409 221.939C135.292 221.939 134.706 221.203 134.671 220.144H133.693C133.658 221.824 134.752 222.802 136.409 222.802C137.939 222.802 139.216 221.951 139.216 220.317C139.216 219.338 138.733 218.556 137.743 218.337V218.314C138.365 218.027 138.871 217.405 138.871 216.692C138.871 215.184 137.801 214.505 136.386 214.505C134.752 214.505 133.923 215.587 133.865 217.141H134.844C134.855 216.186 135.315 215.369 136.386 215.369C137.214 215.369 137.835 215.829 137.835 216.68C137.835 217.566 137.11 218.015 136.282 218.015C136.144 218.015 136.006 218.015 135.856 218.004V218.832Z" fill="black"/>
<path d="M221.645 45.2775C221.829 45.2545 222.036 45.243 222.232 45.243C223.198 45.243 223.969 45.7838 223.969 46.8079C223.969 47.7976 223.152 48.3844 222.197 48.3844C221.081 48.3844 220.494 47.648 220.46 46.5893H219.482C219.447 48.2694 220.54 49.2475 222.197 49.2475C223.728 49.2475 225.005 48.3959 225.005 46.7619C225.005 45.7838 224.522 45.0013 223.532 44.7827V44.7597C224.153 44.472 224.66 43.8506 224.66 43.1372C224.66 41.6297 223.59 40.9508 222.174 40.9508C220.54 40.9508 219.712 42.0325 219.654 43.5859H220.632C220.644 42.6308 221.104 41.8138 222.174 41.8138C223.003 41.8138 223.624 42.2741 223.624 43.1256C223.624 44.0117 222.899 44.4605 222.071 44.4605C221.933 44.4605 221.795 44.4605 221.645 44.449V45.2775Z" fill="black"/>
<path d="M11.9363 163.965H11.1883C10.9697 165.197 9.95702 165.496 8.84083 165.496V166.278H10.9581V172.124H11.9363V163.965ZM14.7171 168.12C14.7171 169.915 14.8782 172.262 17.4328 172.262C19.9874 172.262 20.1485 169.915 20.1485 168.12C20.1485 166.313 19.9874 163.965 17.4328 163.965C14.8782 163.965 14.7171 166.313 14.7171 168.12ZM15.7528 168.108C15.7528 166.9 15.7643 164.828 17.4328 164.828C19.1014 164.828 19.1129 166.9 19.1129 168.108C19.1129 169.328 19.1014 171.399 17.4328 171.399C15.7643 171.399 15.7528 169.328 15.7528 168.108Z" fill="black"/>
<path d="M225 223.273C226.116 223.273 226.645 224.113 226.645 225.126C226.645 226.092 226.058 226.932 225 226.932C223.93 226.932 223.308 226.127 223.308 225.114C223.308 224.09 223.907 223.273 225 223.273ZM227.451 221.581C227.336 220.258 226.496 219.499 225.149 219.499C222.825 219.499 222.146 221.627 222.146 223.871C222.146 225.586 222.537 227.795 224.954 227.795C227.013 227.795 227.681 226.242 227.681 225.057C227.681 223.549 226.749 222.41 225.184 222.41C224.298 222.41 223.607 222.732 223.147 223.48L223.124 223.457C223.17 222.203 223.435 220.362 225.103 220.362C225.874 220.362 226.381 220.845 226.473 221.581H227.451Z" fill="black"/>
<path d="M171.273 254.032H165.991V254.953H170.272C168.557 256.771 167.234 259.291 167.05 262.053H168.143C168.292 259.498 169.627 256.506 171.273 254.872V254.032Z" fill="black"/>
</g>
<path d="M183.593 52.5012C198.025 60.8712 209.982 73.1856 218.594 87.499L192.594 102.499C186.847 92.916 178.322 84.6434 168.593 79.0012L183.593 52.5012Z" fill="#F74343"/>
<path d="M53.686 183.271C45.2575 168.743 40.8367 152.249 40.8734 135.465L70.0318 135.528C70.0063 147.177 73.0744 158.624 78.924 168.706L53.686 183.271Z" fill="#F74343"/>
<path d="M219.092 183C206.092 208 184.092 218.5 184.092 218.5L169.092 192.5C179.065 186.915 186.726 177.82 192.592 168L219.092 183Z" fill="#F74343"/>
<path d="M243.734 72.5013C254.828 91.4776 260.632 112.953 260.732 134.935C260.832 156.916 255.233 179.001 244.733 198.501L218.234 183.501C226.547 168.982 230.951 151.801 230.875 135.07C230.8 118.339 227.592 101.5 218.592 87.4998L243.734 72.5013Z" fill="#F74343"/>
<path d="M11.0918 135.502C11.0918 113.566 16.8642 92.0169 27.8291 73.0184C38.7941 54.0199 54.5654 38.2414 73.5589 27.2678C92.5524 16.2942 114.099 10.512 136.035 10.502C157.97 10.492 179.523 16.2545 198.526 27.2108L183.756 52.8286C169.248 44.4641 152.795 40.0648 136.048 40.0724C119.302 40.08 102.852 44.4944 88.3519 52.872C73.8516 61.2497 61.8112 73.2956 53.4401 87.7997C45.0691 102.304 40.6622 118.755 40.6622 135.502H11.0918Z" fill="#F74343"/>
<path d="M136.712 261.29C114.376 261.615 92.3606 255.948 72.9571 244.878C53.5536 233.809 37.4709 217.743 26.3825 198.35L53.9434 182.591C62.2156 197.058 74.2135 209.044 88.6887 217.302C103.164 225.56 120.093 230 136.593 229.5L136.712 261.29Z" fill="#F74343"/>
<path opacity="0.3" d="M26.5918 198.5C36.0918 215.5 53.0918 234 73.0918 245L136.091 135.502L26.5918 198.5Z" fill="white"/>
<circle opacity="0.5" cx="46.039" cy="225.123" r="10.9624" fill="white" stroke="#4396F7" stroke-width="1.4384"/>
<circle opacity="0.5" cx="101.644" cy="17.1825" r="10.9624" fill="white" stroke="#4396F7" stroke-width="1.4384"/>
<circle opacity="0.5" cx="167.912" cy="17.1825" r="10.9624" fill="white" stroke="#4396F7" stroke-width="1.4384"/>
<circle opacity="0.5" cx="256.168" cy="104.177" r="10.9624" fill="white" stroke="#4396F7" stroke-width="1.4384"/>
<circle opacity="0.5" cx="256.168" cy="168.852" r="10.9624" fill="white" stroke="#4396F7" stroke-width="1.4384"/>
<path opacity="0.5" d="M138.167 244.511H137.385L133.668 249.816V250.76H137.247V252.67H138.167V250.76H139.272V249.897H138.167V244.511ZM134.508 249.897L137.224 245.904H137.247V249.897H134.508Z" fill="black"/>
<path opacity="0.5" d="M258.84 163.374H254.812L254.053 167.609L254.893 167.655C255.272 167.194 255.79 166.884 256.412 166.884C257.505 166.884 258.253 167.655 258.253 168.736C258.253 170.037 257.459 170.67 256.527 170.67C255.549 170.67 254.87 170.037 254.812 169.197H253.834C253.869 170.67 255.019 171.533 256.435 171.533C258.333 171.533 259.288 170.198 259.288 168.817C259.288 166.953 258.103 166.021 256.653 166.021C256.101 166.021 255.491 166.205 255.134 166.608L255.111 166.585L255.549 164.237H258.84V163.374Z" fill="black"/>
<path opacity="0.5" d="M258.253 99.024H257.47L253.753 104.329V105.272H257.332V107.183H258.253V105.272H259.357V104.409H258.253V99.024ZM254.594 104.409L257.309 100.416H257.332V104.409H254.594Z" fill="black"/>
<path opacity="0.5" d="M166.9 14.9836C166.866 14.0055 167.349 12.9584 168.488 12.9584C169.351 12.9584 170.065 13.5452 170.065 14.4313C170.065 15.559 169.363 16.0653 167.982 16.9168C166.831 17.6303 165.853 18.3207 165.692 20.2539H171.02V19.3909H166.831C167.027 18.3782 168.097 17.8604 169.121 17.239C170.134 16.6061 171.1 15.8812 171.1 14.4428C171.1 12.9238 169.973 12.0953 168.546 12.0953C166.82 12.0953 165.841 13.3266 165.922 14.9836H166.9Z" fill="black"/>
<path opacity="0.5" d="M103.165 12.0953H102.417C102.198 13.3266 101.185 13.6258 100.069 13.6258V14.4083H102.186V20.2539H103.165V12.0953Z" fill="black"/>
<circle opacity="0.5" cx="15.3183" cy="104.177" r="10.9624" fill="white" stroke="#4396F7" stroke-width="1.4384"/>
<circle opacity="0.5" cx="45.6601" cy="51.4882" r="10.9624" fill="white" stroke="#4396F7" stroke-width="1.4384"/>
<path opacity="0.5" d="M43.4714 45.7135H42.7234C42.5048 46.9448 41.4922 47.2439 40.376 47.2439V48.0264H42.4933V53.8721H43.4714V45.7135ZM47.2534 48.6018C47.2189 47.6237 47.7022 46.5765 48.8414 46.5765C49.7044 46.5765 50.4179 47.1634 50.4179 48.0494C50.4179 49.1771 49.7159 49.6835 48.3351 50.535C47.1844 51.2484 46.2063 51.9389 46.0452 53.8721H51.373V53.009H47.1844C47.38 51.9964 48.4501 51.4786 49.4743 50.8572C50.4869 50.2243 51.4535 49.4993 51.4535 48.061C51.4535 46.542 50.3258 45.7135 48.8989 45.7135C47.1729 45.7135 46.1947 46.9448 46.2753 48.6018H47.2534Z" fill="black"/>
<path opacity="0.5" d="M13.3933 98.5602H12.6453C12.4267 99.7914 11.4141 100.091 10.2979 100.091V100.873H12.4152V106.719H13.3933V98.5602ZM19.7874 98.5602H19.0394C18.8208 99.7914 17.8082 100.091 16.692 100.091V100.873H18.8093V106.719H19.7874V98.5602Z" fill="black"/>
<path opacity="0.5" d="M48.0088 222.226C48.0088 223.192 47.3644 224.021 46.3403 224.021C45.3967 224.021 44.7293 223.192 44.7293 222.295C44.7293 221.294 45.1665 220.362 46.3288 220.362C47.422 220.362 48.0088 221.225 48.0088 222.226ZM43.8662 225.69C43.9928 227.093 44.9709 227.795 46.3403 227.795C48.3195 227.795 49.171 226.219 49.171 223.4C49.171 220.316 47.8937 219.499 46.3748 219.499C44.7983 219.499 43.6936 220.58 43.6936 222.157C43.6936 223.768 44.6142 224.884 46.2712 224.884C47.0652 224.884 47.7902 224.447 48.1584 223.756L48.1814 223.779C48.1239 225.885 47.537 226.932 46.3403 226.932C45.5578 226.932 44.9134 226.483 44.8443 225.69H43.8662Z" fill="black"/>
<circle opacity="0.5" cx="105.402" cy="259.367" r="10.9624" fill="white" stroke="#4396F7" stroke-width="1.4384"/>
<path opacity="0.5" d="M104.121 259.751C104.121 258.808 104.88 258.186 105.847 258.186C106.767 258.186 107.527 258.854 107.527 259.74C107.527 260.649 106.836 261.328 105.858 261.328C104.846 261.328 104.121 260.729 104.121 259.751ZM103.373 255.977C103.373 256.713 103.833 257.392 104.512 257.669C103.603 257.991 103.085 258.739 103.085 259.705C103.085 261.374 104.293 262.191 105.858 262.191C107.366 262.191 108.562 261.282 108.562 259.705C108.562 258.693 108.091 257.979 107.112 257.669C107.78 257.369 108.24 256.702 108.24 255.977C108.24 254.941 107.55 253.894 105.766 253.894C104.512 253.894 103.373 254.631 103.373 255.977ZM104.408 256.011C104.408 255.194 105.053 254.757 105.835 254.757C106.629 254.757 107.205 255.194 107.205 256.011C107.205 256.84 106.629 257.323 105.858 257.323C105.053 257.323 104.408 256.909 104.408 256.011Z" fill="black"/>
<path opacity="0.5" d="M135.983 135.765L68.543 18.9268" stroke="#4396F7" stroke-width="0.719198"/>
<path opacity="0.5" d="M135.956 135.407L135.971 0.501953" stroke="#4396F7" stroke-width="0.719198"/>
<path opacity="0.5" d="M135.963 135.751L203.428 18.9268" stroke="#4396F7" stroke-width="0.719198"/>
<path opacity="0.5" d="M135.962 135.394L194.593 101.499L252.801 67.9541" stroke="#4396F7" stroke-width="0.719198"/>
<path opacity="0.5" d="M136.323 135.364L271.229 135.378" stroke="#4396F7" stroke-width="0.719198"/>
<path opacity="0.5" d="M135.976 135.371L252.801 202.836" stroke="#4396F7" stroke-width="0.719198"/>
<path opacity="0.5" d="M136.335 135.214L203.775 252.053" stroke="#4396F7" stroke-width="0.719198"/>
<path opacity="0.5" d="M136.366 135.575L136.352 270.48" stroke="#4396F7" stroke-width="0.719198"/>
<path opacity="0.5" d="M136.356 135.228L68.8906 252.053" stroke="#4396F7" stroke-width="0.719198"/>
<path opacity="0.5" d="M135.931 135.502L19.0918 202.942" stroke="#4396F7" stroke-width="0.719198"/>
<path opacity="0.5" d="M135.997 135.616L1.0918 135.602" stroke="#4396F7" stroke-width="0.719198"/>
<path opacity="0.5" d="M136.344 135.611L19.5195 68.1455" stroke="#4396F7" stroke-width="0.719198"/>
</svg>
