<svg width="18" height="17" viewBox="0 0 18 17" fill="none" xmlns="http://www.w3.org/2000/svg">
<mask id="mask0" mask-type="alpha" maskUnits="userSpaceOnUse" x="0" y="8" width="17" height="9">
<path d="M0.882813 8.80469C0.882813 9.85526 1.08974 10.8955 1.49178 11.8662C1.89381 12.8368 2.48309 13.7187 3.22596 14.4615C3.96883 15.2044 4.85074 15.7937 5.82135 16.1957C6.79195 16.5978 7.83224 16.8047 8.88281 16.8047C9.93339 16.8047 10.9737 16.5978 11.9443 16.1957C12.9149 15.7937 13.7968 15.2044 14.5397 14.4615C15.2825 13.7187 15.8718 12.8368 16.2738 11.8662C16.6759 10.8955 16.8828 9.85526 16.8828 8.80469L8.88281 8.80469L0.882813 8.80469Z" fill="#4396F7"/>
</mask>
<g mask="url(#mask0)">
<mask id="mask1" mask-type="alpha" maskUnits="userSpaceOnUse" x="-3" y="-11" width="22" height="33">
<path d="M10.5389 -10.1026L-2.87778 -3.00102C-2.87778 -3.00102 0.344675 3.69946 1.45493 8.29003C2.66425 13.2902 2.81861 21.2496 2.81861 21.2496L18.299 21.8738C18.299 21.8738 17.3299 6.97508 16.962 5.27864C15.9822 0.759518 10.5389 -10.1026 10.5389 -10.1026Z" fill="#F74343"/>
</mask>
<g mask="url(#mask1)">
<path fill-rule="evenodd" clip-rule="evenodd" d="M24.7671 19.0596L41.2422 2.5845L40.4739 1.81626L23.9989 18.2913L24.7671 19.0596ZM-2.45367 19.0596L14.0214 2.58449L13.2532 1.81625L-3.22191 18.2913L-2.45367 19.0596ZM-13.1994 2.58449L-29.6745 19.0596L-30.4427 18.2913L-13.9676 1.81625L-13.1994 2.58449ZM11.1567 19.0596L27.6318 2.5845L26.8636 1.81626L10.3885 18.2913L11.1567 19.0596ZM0.411009 2.58449L-16.0641 19.0596L-16.8323 18.2913L-0.357229 1.81625L0.411009 2.58449ZM-43.2848 19.0596L-26.8098 2.58449L-27.578 1.81625L-44.0531 18.2913L-43.2848 19.0596ZM36.7054 2.5845L20.2303 19.0596L19.4621 18.2913L35.9372 1.81626L36.7054 2.5845ZM-6.99047 19.0596L9.4846 2.58449L8.71636 1.81625L-7.75871 18.2913L-6.99047 19.0596ZM-17.7362 2.58449L-34.2113 19.0596L-34.9795 18.2913L-18.5044 1.81625L-17.7362 2.58449ZM6.61993 19.0596L23.095 2.5845L22.3268 1.81626L5.85168 18.2913L6.61993 19.0596ZM-4.12579 2.58449L-20.6009 19.0596L-21.3691 18.2913L-4.89403 1.81625L-4.12579 2.58449ZM-47.8217 19.0596L-31.3466 2.58449L-32.1148 1.81625L-48.5899 18.2913L-47.8217 19.0596ZM32.1686 2.5845L15.6935 19.0596L14.9253 18.2913L31.4004 1.81626L32.1686 2.5845ZM-11.5273 19.0596L4.94781 2.58449L4.17957 1.81625L-12.2955 18.2913L-11.5273 19.0596ZM-22.273 2.58449L-38.7481 19.0596L-39.5163 18.2913L-23.0412 1.81625L-22.273 2.58449ZM2.08313 19.0596L18.5582 2.5845L17.79 1.81625L1.31489 18.2913L2.08313 19.0596ZM-8.66259 2.58449L-25.1377 19.0596L-25.9059 18.2913L-9.43083 1.81625L-8.66259 2.58449ZM-52.3584 19.0596L-35.8834 2.58449L-36.6516 1.81625L-53.1267 18.2913L-52.3584 19.0596Z" fill="#4396F7"/>
<path fill-rule="evenodd" clip-rule="evenodd" d="M17.5503 30.7998L34.0254 14.3247L33.2572 13.5565L16.7821 30.0316L17.5503 30.7998ZM-9.67046 30.7998L6.80461 14.3247L6.03637 13.5565L-10.4387 30.0316L-9.67046 30.7998ZM-20.4162 14.3247L-36.8913 30.7998L-37.6595 30.0316L-21.1844 13.5565L-20.4162 14.3247ZM3.93993 30.7998L20.415 14.3247L19.6468 13.5565L3.17169 30.0316L3.93993 30.7998ZM-6.80579 14.3247L-23.2809 30.7998L-24.0491 30.0316L-7.57403 13.5565L-6.80579 14.3247ZM-50.5016 30.7998L-34.0266 14.3247L-34.7948 13.5565L-51.2699 30.0316L-50.5016 30.7998ZM29.4886 14.3247L13.0135 30.7998L12.2453 30.0316L28.7204 13.5565L29.4886 14.3247ZM-14.2073 30.7998L2.26781 14.3247L1.49957 13.5565L-14.9755 30.0316L-14.2073 30.7998ZM-24.953 14.3247L-41.4281 30.7998L-42.1963 30.0316L-25.7212 13.5565L-24.953 14.3247ZM-0.59687 30.7998L15.8782 14.3247L15.11 13.5565L-1.36511 30.0316L-0.59687 30.7998ZM-11.3426 14.3247L-27.8177 30.7998L-28.5859 30.0316L-12.1108 13.5565L-11.3426 14.3247ZM-55.0385 30.7998L-38.5634 14.3247L-39.3316 13.5565L-55.8067 30.0316L-55.0385 30.7998ZM24.9518 14.3247L8.47672 30.7998L7.70848 30.0316L24.1836 13.5565L24.9518 14.3247ZM-18.7441 30.7998L-2.26899 14.3247L-3.03723 13.5565L-19.5123 30.0316L-18.7441 30.7998ZM-29.4898 14.3247L-45.9649 30.7998L-46.7331 30.0316L-30.258 13.5565L-29.4898 14.3247ZM-5.13367 30.7998L11.3414 14.3247L10.5732 13.5565L-5.90191 30.0316L-5.13367 30.7998ZM-15.8794 14.3247L-32.3545 30.7998L-33.1227 30.0316L-16.6476 13.5565L-15.8794 14.3247ZM-59.5752 30.7998L-43.1002 14.3247L-43.8684 13.5565L-60.3435 30.0316L-59.5752 30.7998Z" fill="#4396F7"/>
</g>
</g>
<mask id="mask2" mask-type="alpha" maskUnits="userSpaceOnUse" x="1" y="0" width="17" height="9">
<path d="M17.7227 8.80469C17.7227 6.68296 16.8798 4.64812 15.3795 3.14783C13.8792 1.64754 11.8444 0.804688 9.72266 0.804688C7.60092 0.804687 5.56609 1.64754 4.0658 3.14783C2.56551 4.64812 1.72266 6.68295 1.72266 8.80469L9.72266 8.80469H17.7227Z" fill="#4396F7"/>
</mask>
<g mask="url(#mask2)">
<mask id="mask3" mask-type="alpha" maskUnits="userSpaceOnUse" x="0" y="-5" width="22" height="33">
<path d="M8.0666 27.7119L21.4833 20.6104C21.4833 20.6104 18.2608 13.9099 17.1505 9.31934C15.9412 4.31914 15.7869 -3.64019 15.7869 -3.64019L0.306495 -4.26438C0.306495 -4.26438 1.27561 10.6343 1.64343 12.3307C2.62325 16.8499 8.0666 27.7119 8.0666 27.7119Z" fill="#F74343"/>
</mask>
<g mask="url(#mask3)">
<path fill-rule="evenodd" clip-rule="evenodd" d="M-6.16165 -1.4502L-22.6367 15.0249L-21.8685 15.7931L-5.39341 -0.681956L-6.16165 -1.4502ZM21.0591 -1.4502L4.58407 15.0249L5.35231 15.7931L21.8274 -0.681956L21.0591 -1.4502ZM31.8049 15.0249L48.2799 -1.4502L49.0482 -0.681956L32.5731 15.7931L31.8049 15.0249ZM7.44874 -1.4502L-9.02633 15.0249L-8.25808 15.7931L8.21699 -0.681956L7.44874 -1.4502ZM18.1945 15.0249L34.6695 -1.4502L35.4378 -0.681956L18.9627 15.7931L18.1945 15.0249ZM61.8903 -1.4502L45.4153 15.0249L46.1835 15.7931L62.6586 -0.681956L61.8903 -1.4502ZM-18.0999 15.0249L-1.62485 -1.4502L-0.856609 -0.681956L-17.3317 15.7931L-18.0999 15.0249ZM25.5959 -1.4502L9.12087 15.0249L9.88911 15.7931L26.3642 -0.681956L25.5959 -1.4502ZM36.3417 15.0249L52.8167 -1.4502L53.585 -0.681956L37.1099 15.7931L36.3417 15.0249ZM11.9855 -1.4502L-4.48953 15.0249L-3.72129 15.7931L12.7538 -0.681956L11.9855 -1.4502ZM22.7313 15.0249L39.2063 -1.4502L39.9746 -0.681956L23.4995 15.7931L22.7313 15.0249ZM66.4271 -1.4502L49.952 15.0249L50.7203 15.7931L67.1954 -0.681956L66.4271 -1.4502ZM-13.5631 15.0249L2.91195 -1.4502L3.68019 -0.681956L-12.7949 15.7931L-13.5631 15.0249ZM30.1327 -1.4502L13.6577 15.0249L14.4259 15.7931L30.901 -0.681956L30.1327 -1.4502ZM40.8785 15.0249L57.3535 -1.4502L58.1218 -0.681956L41.6467 15.7931L40.8785 15.0249ZM16.5223 -1.4502L0.0472717 15.0249L0.815512 15.7931L17.2906 -0.681956L16.5223 -1.4502ZM27.2681 15.0249L43.7431 -1.4502L44.5114 -0.681956L28.0363 15.7931L27.2681 15.0249ZM70.9639 -1.4502L54.4888 15.0249L55.2571 15.7931L71.7322 -0.681956L70.9639 -1.4502Z" fill="#F74343"/>
<path fill-rule="evenodd" clip-rule="evenodd" d="M1.05515 -13.1904L-15.4199 3.28464L-14.6517 4.05288L1.82339 -12.4222L1.05515 -13.1904ZM28.2759 -13.1904L11.8009 3.28464L12.5691 4.05288L29.0442 -12.4222L28.2759 -13.1904ZM39.0216 3.28464L55.4967 -13.1904L56.265 -12.4222L39.7899 4.05288L39.0216 3.28464ZM14.6655 -13.1904L-1.80953 3.28464L-1.04129 4.05288L15.4338 -12.4222L14.6655 -13.1904ZM25.4113 3.28464L41.8863 -13.1904L42.6546 -12.4222L26.1795 4.05288L25.4113 3.28464ZM69.1071 -13.1904L52.632 3.28464L53.4003 4.05288L69.8754 -12.4222L69.1071 -13.1904ZM-10.8831 3.28464L5.59195 -13.1904L6.36019 -12.4222L-10.1149 4.05288L-10.8831 3.28464ZM32.8127 -13.1904L16.3377 3.28464L17.1059 4.05288L33.581 -12.4222L32.8127 -13.1904ZM43.5584 3.28464L60.0335 -13.1904L60.8018 -12.4222L44.3267 4.05288L43.5584 3.28464ZM19.2023 -13.1904L2.72727 3.28464L3.49551 4.05288L19.9706 -12.4222L19.2023 -13.1904ZM29.9481 3.28464L46.4231 -13.1904L47.1914 -12.4222L30.7163 4.05288L29.9481 3.28464ZM73.6439 -13.1904L57.1688 3.28464L57.9371 4.05288L74.4121 -12.4222L73.6439 -13.1904ZM-6.34633 3.28464L10.1287 -13.1904L10.897 -12.4222L-5.57809 4.05288L-6.34633 3.28464ZM37.3495 -13.1904L20.8745 3.28464L21.6427 4.05288L38.1178 -12.4222L37.3495 -13.1904ZM48.0952 3.28464L64.5703 -13.1904L65.3386 -12.4222L48.8635 4.05288L48.0952 3.28464ZM23.7391 -13.1904L7.26407 3.28464L8.03231 4.05288L24.5074 -12.4222L23.7391 -13.1904ZM34.4849 3.28464L50.9599 -13.1904L51.7282 -12.4222L35.2531 4.05288L34.4849 3.28464ZM78.1807 -13.1904L61.7056 3.28464L62.4739 4.05288L78.949 -12.4222L78.1807 -13.1904Z" fill="#F74343"/>
</g>
</g>
</svg>
