<svg width="14" height="14" xmlns="http://www.w3.org/2000/svg"><path d="M12.336 0H1.664C.745 0 0 .743 0 1.66v10.68C0 13.257.745 14 1.664 14h10.672c.919 0 1.664-.743 1.664-1.66V1.66C14 .743 13.255 0 12.336 0zm-2.273 2.187c0-.241.196-.437.437-.437h1.312c.242 0 .438.196.438.437V3.5a.438.438 0 0 1-.438.437H10.5a.437.437 0 0 1-.437-.437V2.187zM7.016 4.33A2.69 2.69 0 0 1 9.71 7.016a2.69 2.69 0 0 1-2.693 2.686 2.69 2.69 0 0 1-2.692-2.686A2.69 2.69 0 0 1 7.016 4.33zm5.672 7.92a.438.438 0 0 1-.438.438H1.75a.438.438 0 0 1-.438-.438V5.687h1.75c-.227.328-.305.94-.305 1.329a4.26 4.26 0 0 0 8.518 0c0-.389-.055-.991-.337-1.329h1.75v6.563z" fill="#FFF" fill-rule="evenodd"/></svg>