<svg width="18" height="16" xmlns="http://www.w3.org/2000/svg" xmlns:xlink="http://www.w3.org/1999/xlink"><defs><path id="a" d="M18 16V0H0v16z"/></defs><g fill="none" fill-rule="evenodd"><mask id="b" fill="#fff"><use xlink:href="#a"/></mask><path d="M.318 7.672l4.147 1.58 1.606 5.271a.484.484 0 0 0 .775.238l2.312-1.924a.678.678 0 0 1 .841-.024l4.17 3.091a.486.486 0 0 0 .766-.301L17.989.6c.079-.386-.293-.71-.654-.567L.313 6.738c-.42.165-.416.773.005.934zm5.494.739l8.106-5.097c.146-.091.296.11.17.228l-6.69 6.349a1.428 1.428 0 0 0-.43.847l-.227 1.724c-.03.23-.347.253-.409.03l-.876-3.144a.84.84 0 0 1 .356-.937z" fill="#212121" mask="url(#b)"/></g></svg>