<svg width="10" height="17" xmlns="http://www.w3.org/2000/svg"><path d="M8.08 8.743C6.898 9.674 5 9.674 5 9.674s-1.898 0-3.08-.93c-.875-.69-1.533-.293-1.77.184-.414.832.054 1.235 1.11 1.912.902.58 2.14.796 2.941.877l-.668.668-2.48 2.48a.965.965 0 0 0 0 1.363l.114.114a.965.965 0 0 0 1.365 0l2.48-2.48c.94.942 1.848 1.85 2.479 2.48a.965.965 0 0 0 1.364 0l.114-.114a.965.965 0 0 0 0-1.364l-2.48-2.48-.67-.67c.801-.082 2.027-.3 2.921-.874 1.056-.677 1.524-1.08 1.11-1.912-.237-.477-.895-.874-1.77-.185zM7.07 4.208a2.07 2.07 0 1 1-4.14 0 2.07 2.07 0 0 1 4.14 0zm2.138 0a4.208 4.208 0 1 0-8.416 0 4.208 4.208 0 0 0 8.416 0z" fill="#0284D2" fill-rule="evenodd"/></svg>