<svg width="12" height="18" xmlns="http://www.w3.org/2000/svg"><path d="M11.462 9.667c-.257-.517-.97-.946-1.916-.2-1.28 1.008-3.335 1.008-3.335 1.008s-2.056 0-3.335-1.008c-.947-.746-1.66-.317-1.917.2-.448.9.058 1.336 1.202 2.07.976.627 2.318.861 3.185.949l-.724.723a38951.83 38951.83 0 0 0-2.684 2.685 1.044 1.044 0 0 0 0 1.477l.123.123c.408.408 1.07.408 1.477 0l2.685-2.684 2.684 2.684c.408.408 1.07.408 1.478 0l.123-.123a1.044 1.044 0 0 0 0-1.477l-2.685-2.685-.726-.725c.868-.09 2.195-.325 3.163-.947 1.144-.734 1.65-1.17 1.202-2.07M6.211 2.314a2.241 2.241 0 1 1 0 4.483 2.241 2.241 0 0 1 0-4.483m0 6.797A4.556 4.556 0 1 0 6.21 0a4.556 4.556 0 0 0 0 9.111" fill="#e67e17" fill-rule="evenodd"/></svg>