<svg width="313" height="231" viewBox="0 0 313 231" fill="none" xmlns="http://www.w3.org/2000/svg">
<path fill-rule="evenodd" clip-rule="evenodd" d="M237.365 137.122C282.675 133.48 312.97 126.816 312.97 119.176C312.97 117.073 310.719 115.06 306.544 113.253C296.505 117.784 275.242 121.693 247.108 124.358C244.147 128.623 240.83 132.917 237.365 137.211V137.122ZM156.489 140.172C175.323 140.172 193.388 139.787 210.09 138.988C214.039 134.802 217.751 130.597 221.225 126.372C201.502 127.557 179.588 128.179 156.489 128.149C128.415 128.149 102.058 127.083 79.255 125.188C85.2921 116.152 91.8685 107.489 98.9485 99.2456C89.7977 99.7194 81.18 100.312 72.8288 101.022C67.5533 108.136 62.6982 115.553 58.2882 123.233C33.9453 120.449 15.6142 116.836 6.493 112.661C2.3174 114.526 0.0371094 116.57 0.0371094 118.672C0.0371094 124.921 20.234 130.518 52.3061 134.486C38.2394 163.656 36.0776 189.391 49.3447 203.517C51.6213 205.918 54.2839 207.92 57.2221 209.44C49.4632 192.204 55.4749 165.433 72.2069 136.5C96.5201 138.632 125.512 139.906 156.518 139.965L156.489 140.172ZM108.573 60.9544C114.812 55.0316 121.139 49.553 127.556 44.5186L135.255 57.8449L137.447 61.6355C132.235 65.9 127.062 70.431 121.929 75.2285C117.981 78.9796 114.121 82.7899 110.35 86.6595C100.755 87.0445 91.5449 87.548 82.8383 88.1699C90.8505 78.579 99.445 69.4901 108.573 60.9544Z" fill="#0152AB"/>
<path fill-rule="evenodd" clip-rule="evenodd" d="M127.556 44.5195C179.173 3.44463 233.308 -11.7474 254.719 11.0259C257.001 13.449 258.854 16.2431 260.198 19.2882C234.611 5.72492 184.681 22.9308 137.506 61.6365L127.556 44.5195Z" fill="#0152AB"/>
<path fill-rule="evenodd" clip-rule="evenodd" d="M313 107.154C313 101.231 295.054 95.9006 266.091 92.0211C279.21 63.7988 280.898 39.0414 268.016 25.3004L254.719 11.0264C257.001 13.4495 258.854 16.2436 260.198 19.2887C267.749 36.0504 262.271 61.8147 246.634 89.8001C221.196 87.3421 190.16 85.8614 156.667 85.8022C70.1635 85.6541 0.0371094 95.0122 0.0371094 106.651V118.674C0.0371094 116.571 2.3174 114.558 6.493 112.751C25.683 104.074 85.5925 97.944 156.548 97.944C187.11 97.944 215.599 99.2174 239.675 101.29C227.055 120.504 212.137 138.107 195.254 153.707C144.051 201.682 85.6221 224.574 57.1925 209.501H57.0444H56.8963H56.7483H56.6002H56.4521H56.3041H56.156L69.512 223.745C86.6586 243.35 152.047 221.139 208.758 167.833C229.159 149.094 246.558 127.33 260.346 103.304C281.727 105.881 297.867 109.227 306.337 113.047H306.544C310.719 114.943 312.97 116.956 312.97 118.97L313 107.154Z" fill="#4F92FF"/>
<path d="M69.4237 129.067H76.5311V110.766H86.9553V104.843H69.4237V129.067ZM93.115 129.482C94.3746 129.583 95.6416 129.423 96.8362 129.011C98.0307 128.598 99.1269 127.943 100.056 127.086C100.984 126.229 101.726 125.189 102.233 124.032C102.74 122.874 103.001 121.624 103.001 120.361C103.001 119.097 102.74 117.847 102.233 116.689C101.726 115.532 100.984 114.492 100.056 113.635C99.1269 112.778 98.0307 112.123 96.8362 111.711C95.6416 111.298 94.3746 111.138 93.115 111.239C87.1922 111.239 83.2831 114.675 83.2831 120.361C83.2831 126.047 87.133 129.482 93.115 129.482ZM93.115 124.21C92.34 124.27 91.5651 124.094 90.8922 123.705C90.2193 123.315 89.68 122.732 89.3452 122.03C89.0104 121.329 88.8958 120.542 89.0165 119.774C89.1372 119.006 89.4875 118.293 90.0214 117.728C90.5553 117.163 91.2477 116.773 92.0075 116.609C92.7673 116.445 93.559 116.515 94.2784 116.809C94.9977 117.104 95.6111 117.609 96.0377 118.259C96.4644 118.909 96.6844 119.672 96.6687 120.449C96.7186 120.937 96.6653 121.43 96.5121 121.896C96.359 122.362 96.1095 122.79 95.7799 123.154C95.4503 123.517 95.0479 123.806 94.599 124.004C94.1501 124.201 93.6647 124.302 93.1743 124.299L93.115 124.21ZM101.348 134.19H106.412V129.156H119.353V134.19H124.417V124.003H121.456V111.565H106.441L105.701 117.695C105.316 120.864 104.813 123.352 103.421 123.885H101.348V134.19ZM109.61 124.003V123.677C110.554 122.852 111.148 121.698 111.269 120.449L111.772 116.896H115.296V124.003H109.61ZM68.9795 154.595H75.2577V148.405H80.2921V154.595H86.5999V137.27H80.2921V143.193H75.2577V137.27H68.9795V154.595ZM91.9009 155.009C92.9199 155.078 93.9399 154.89 94.8665 154.46C95.7931 154.03 96.5963 153.374 97.2018 152.551H97.5572V154.595H103.865V143.193C103.865 139.284 100.489 136.796 95.3361 136.796C90.1832 136.796 86.8072 139.284 86.8072 143.164H92.9077C92.8858 142.847 92.9321 142.529 93.0434 142.232C93.1547 141.934 93.3284 141.664 93.553 141.44C93.7775 141.215 94.0476 141.041 94.3449 140.93C94.6423 140.819 94.9601 140.772 95.2769 140.794C95.5737 140.764 95.8734 140.798 96.1558 140.895C96.4381 140.991 96.6963 141.147 96.9128 141.352C97.1293 141.558 97.2989 141.807 97.4101 142.084C97.5213 142.361 97.5715 142.658 97.5572 142.956V143.726L94.5958 144.082C88.8802 144.852 86.1557 146.658 86.1557 150.004C86.1557 153.351 88.5248 155.009 92.0785 155.009H91.9009ZM94.5365 151.189C93.1447 151.189 92.3451 150.478 92.3451 149.412C92.3451 148.346 93.0854 147.694 94.9215 147.458L97.7349 147.043V148.109C97.7362 148.519 97.6525 148.924 97.4891 149.3C97.3256 149.676 97.0861 150.013 96.7855 150.292C96.4849 150.57 96.1298 150.783 95.7427 150.917C95.3556 151.051 94.9449 151.103 94.5365 151.071V151.189ZM116.096 154.772L122.492 137.004H115.859L112.897 145.296L108.662 137.004H101.762L110.202 152.581L106.945 161.465H113.401L116.096 154.772ZM121.515 154.476H127.823V147.635H130.34L134.871 154.595H142.334L135.789 145.562L142.186 137.241H134.782L130.34 143.578H127.586V137.241H121.456L121.515 154.476ZM141.771 154.476H148.109L153.321 145.592H153.676V154.476H159.954V137.241H153.469L148.109 146.332H147.753V137.241H141.593L141.771 154.476ZM68.9795 180.122H75.465L80.6771 171.238H81.0325V180.122H87.3403V162.768H80.8548L75.6131 171.889H75.2577V162.768H68.9795V180.122ZM100.311 180.122H106.649V167.832H112.098V162.798H94.8031V167.832H100.282L100.311 180.122ZM120.36 180.566C122.21 180.778 124.077 180.38 125.681 179.434C127.284 178.488 128.535 177.046 129.244 175.325L123.795 174.347C123.533 174.91 123.115 175.385 122.589 175.716C122.064 176.047 121.455 176.22 120.834 176.213C119.976 176.239 119.137 175.954 118.472 175.409C117.808 174.865 117.364 174.098 117.221 173.252H129.955C129.955 172.926 129.955 172.037 129.955 171.534C129.991 170.293 129.767 169.059 129.297 167.91C128.827 166.761 128.121 165.724 127.226 164.864C126.33 164.005 125.264 163.343 124.097 162.921C122.93 162.498 121.687 162.325 120.449 162.413C119.189 162.311 117.922 162.472 116.728 162.884C115.533 163.296 114.437 163.951 113.508 164.808C112.579 165.665 111.838 166.705 111.331 167.863C110.824 169.02 110.563 170.27 110.563 171.534C110.563 172.798 110.824 174.048 111.331 175.205C111.838 176.363 112.579 177.403 113.508 178.26C114.437 179.116 115.533 179.772 116.728 180.184C117.922 180.596 119.189 180.757 120.449 180.655L120.36 180.566ZM117.162 169.876C117.162 169.019 117.502 168.198 118.107 167.593C118.713 166.988 119.534 166.648 120.39 166.648C121.246 166.648 122.067 166.988 122.672 167.593C123.278 168.198 123.618 169.019 123.618 169.876H117.162ZM126.786 180.211H134.131L137.092 174.821H137.418L140.379 180.211H147.724L141.801 171.327L147.457 162.975H140.468L137.507 167.862H137.181L134.22 162.975H126.934L132.591 171.327L126.786 180.211ZM147.102 180.211H153.41V173.933H158.414V180.122H164.752V162.798H158.325V168.898H153.321V162.798H147.013L147.102 180.211ZM174.199 180.655C175.458 180.757 176.725 180.596 177.92 180.184C179.114 179.772 180.211 179.116 181.139 178.26C182.068 177.403 182.809 176.363 183.316 175.205C183.823 174.048 184.085 172.798 184.085 171.534C184.085 170.27 183.823 169.02 183.316 167.863C182.809 166.705 182.068 165.665 181.139 164.808C180.211 163.951 179.114 163.296 177.92 162.884C176.725 162.472 175.458 162.311 174.199 162.413C168.276 162.413 164.367 165.848 164.367 171.534C164.367 177.22 168.217 180.655 174.199 180.655ZM174.199 175.384C173.423 175.455 172.643 175.291 171.962 174.913C171.281 174.535 170.729 173.96 170.379 173.264C170.028 172.568 169.896 171.783 169.998 171.011C170.101 170.238 170.433 169.514 170.953 168.934C171.472 168.353 172.155 167.942 172.911 167.755C173.668 167.568 174.463 167.612 175.193 167.883C175.924 168.154 176.556 168.639 177.007 169.274C177.458 169.91 177.708 170.666 177.723 171.445C177.768 171.932 177.711 172.423 177.556 172.887C177.402 173.351 177.152 173.777 176.823 174.139C176.494 174.502 176.094 174.791 175.647 174.99C175.201 175.189 174.717 175.293 174.228 175.295L174.199 175.384ZM182.402 180.122C185.363 180.122 190.398 180.389 191.049 175.028L191.849 167.832H195.195V180.152H201.414V162.768H186.607L185.719 171.267C185.363 174.466 184.83 175.413 182.431 175.413L182.402 180.122ZM211.039 180.566C216.962 180.566 220.841 177.131 220.841 171.445C220.882 170.177 220.65 168.915 220.163 167.744C219.675 166.573 218.942 165.52 218.013 164.656C217.085 163.792 215.982 163.137 214.779 162.734C213.576 162.332 212.3 162.192 211.039 162.324C205.116 162.324 201.236 165.759 201.236 171.445C201.196 172.713 201.427 173.975 201.915 175.146C202.402 176.317 203.135 177.37 204.064 178.234C204.993 179.098 206.096 179.753 207.299 180.156C208.502 180.558 209.777 180.698 211.039 180.566ZM211.039 175.295C210.259 175.367 209.476 175.201 208.792 174.819C208.108 174.437 207.556 173.858 207.208 173.156C206.86 172.455 206.733 171.665 206.842 170.889C206.952 170.114 207.293 169.39 207.822 168.812C208.35 168.235 209.042 167.831 209.804 167.653C210.567 167.476 211.365 167.533 212.095 167.818C212.824 168.103 213.45 168.602 213.891 169.249C214.331 169.897 214.565 170.662 214.563 171.445C214.608 171.934 214.551 172.428 214.394 172.894C214.237 173.36 213.985 173.788 213.653 174.15C213.321 174.513 212.917 174.802 212.467 174.999C212.017 175.196 211.53 175.297 211.039 175.295ZM220.486 180.122H226.764V167.832H234.641V162.798H220.367L220.486 180.122ZM234.079 180.122H240.564L245.776 171.238H246.132V180.122H252.439V162.768H245.835L240.594 171.889H240.238V162.768H233.99L234.079 180.122ZM261.709 160.162C262.408 160.207 263.109 160.107 263.768 159.867C264.426 159.627 265.028 159.253 265.535 158.769C266.041 158.285 266.442 157.7 266.711 157.053C266.98 156.406 267.112 155.71 267.098 155.009H263.16C263.16 156.371 262.597 157.171 261.59 157.171C260.583 157.171 260.05 156.371 260.05 155.009H256.23C256.216 155.707 256.348 156.401 256.615 157.046C256.882 157.691 257.28 158.274 257.783 158.757C258.287 159.241 258.885 159.616 259.54 159.858C260.195 160.099 260.893 160.203 261.59 160.162H261.709ZM252.706 180.122H259.162L264.374 171.238H264.729V180.122H271.037V162.768H264.552L259.31 171.889H258.954V162.768H252.676L252.706 180.122Z" fill="black"/>
<path d="M271.036 109.403H169.4V128.83H271.036V109.403Z" fill="black"/>
<path d="M229.843 128.83H254.097V40.9053H227.8L212.578 51.6848V73.7178L228.599 62.5236H230.613L229.843 128.83Z" fill="black"/>
<path d="M145.295 128.86H213.259V110.174H176.864V108.96C192.085 97.9727 211.66 88.7923 211.601 67.4997C211.423 27.639 145.828 30.0082 145.828 69.0989H168.305C168.305 55.654 188.532 56.1871 188.532 69.8392C188.532 75.1402 184.83 79.375 178.315 83.8467L145.295 106.65V128.86Z" fill="black"/>
<path fill-rule="evenodd" clip-rule="evenodd" d="M132.442 41.4971C134.716 41.4912 136.94 42.1602 138.834 43.4192C140.727 44.6782 142.205 46.4706 143.079 48.5697C143.953 50.6688 144.185 52.98 143.745 55.2108C143.305 57.4417 142.213 59.4918 140.607 61.1017C139.001 62.7117 136.954 63.809 134.724 64.2547C132.495 64.7005 130.183 64.4747 128.081 63.6059C125.98 62.7371 124.184 61.2644 122.92 59.3741C121.656 57.4839 120.981 55.2612 120.981 52.9874C120.981 49.9451 122.188 47.027 124.336 44.873C126.485 42.719 129.4 41.5049 132.442 41.4971Z" fill="black"/>
</svg>
