<svg width="24" height="24" fill="none" xmlns="http://www.w3.org/2000/svg"><path d="M17.679 13.954c1.02-1.95 1.605-4.284 1.605-6.405 0-2.39-.742-4.357-2.144-5.685C15.853.644 14.075 0 12 0 9.924 0 8.147.644 6.86 1.864 5.458 3.192 4.716 5.158 4.716 7.549c0 2.121.585 4.456 1.605 6.405.802 1.534 1.812 2.733 2.92 3.488-3.651.704-6.939 2.804-9.161 5.89a.426.426 0 0 0-.035.438c.07.141.213.23.368.23h23.174a.412.412 0 0 0 .368-.23.426.426 0 0 0-.035-.439c-2.222-3.085-5.51-5.184-9.162-5.89 1.109-.754 2.119-1.953 2.921-3.487zm-4.396 3.322a.42.42 0 0 0-.268.447.416.416 0 0 0 .37.366c3.652.366 7.018 2.2 9.356 5.07H1.26c.48-.59 1.005-1.135 1.567-1.634h10.419a.417.417 0 0 0 .413-.42.417.417 0 0 0-.413-.42H3.867a13.767 13.767 0 0 1 6.748-2.596.416.416 0 0 0 .37-.366.42.42 0 0 0-.268-.447c-2.805-1.041-5.174-5.495-5.174-9.727C5.543 2.603 8.878.84 12 .84c1.863 0 3.445.567 4.577 1.639.759.718 1.296 1.662 1.597 2.784h-6.582a.417.417 0 0 0-.413.42c0 .232.185.42.413.42h6.757c.071.459.108.941.108 1.446 0 4.232-2.37 8.686-5.174 9.727z" fill="#0284D2"/></svg>