<svg width="19" height="10" xmlns="http://www.w3.org/2000/svg"><path d="M9.296 9.958h1.136s.343-.035.518-.209c.161-.16.156-.46.156-.46s-.022-1.406.685-1.613c.697-.204 1.593 1.359 2.542 1.96.717.454 1.262.355 1.262.355l2.538-.033s1.327-.075.698-1.038c-.052-.079-.367-.712-1.887-2.014-1.591-1.362-1.378-1.142.539-3.499 1.167-1.435 1.633-2.31 1.488-2.686-.14-.358-.998-.263-.998-.263l-2.857.016s-.212-.026-.369.06c-.153.085-.252.283-.252.283s-.452 1.11-1.055 2.055c-1.272 1.993-1.78 2.098-1.989 1.974-.484-.288-.363-1.158-.363-1.776 0-1.932.318-2.737-.618-2.945-.31-.07-.54-.115-1.333-.123-1.02-.01-1.883.003-2.371.224C6.44.373 6.19.7 6.343.719c.189.023.616.106.843.39.293.368.283 1.193.283 1.193s.168 2.274-.393 2.556c-.385.194-.914-.202-2.048-2.01-.58-.926-1.02-1.95-1.02-1.95s-.084-.19-.235-.293C3.59.48 3.334.44 3.334.44L.62.458S.212.468.062.632c-.133.145-.01.446-.01.446s2.125 4.588 4.531 6.9c2.207 2.12 4.713 1.98 4.713 1.98" fill="#0284D2" fill-rule="evenodd"/></svg>