<svg width="21" height="25" xmlns="http://www.w3.org/2000/svg"><g stroke="#0284D2" fill="none" fill-rule="evenodd"><path d="M9.557 1.759a7.83 7.83 0 0 0-5.57 2.305A7.815 7.815 0 0 0 1.678 9.63c0 2.103.82 4.08 2.307 5.566A7.83 7.83 0 0 0 9.557 17.5a7.83 7.83 0 0 0 5.57-2.305 7.815 7.815 0 0 0 2.308-5.566c0-2.102-.82-4.078-2.308-5.565a7.83 7.83 0 0 0-5.57-2.305m0 .67a7.203 7.203 0 0 1 7.207 7.2c0 3.977-3.227 7.2-7.207 7.2a7.204 7.204 0 0 1-7.207-7.2c0-3.976 3.227-7.2 7.207-7.2" stroke-width="1.6" fill="#F9A31A"/><path d="M13.913 16.321l4.696 6.286" stroke-width="2.4" stroke-linecap="square"/></g></svg>