<svg width="20" height="20" xmlns="http://www.w3.org/2000/svg" xmlns:xlink="http://www.w3.org/1999/xlink"><defs><path id="a" d="M10 0H0v20h20V0z"/></defs><g fill="none" fill-rule="evenodd"><mask id="b" fill="#fff"><use xlink:href="#a"/></mask><path d="M8.535 15.98c0 1.466-.906 2.625-3.472 2.718a10.045 10.045 0 0 1-3.65-3.572c.462-1.142 1.908-2.012 3.56-1.994.47.005.907.08 1.304.209 1.092.759 1.973 1.233 2.194 2.099.041.175.064.355.064.54zM10 0a9.972 9.972 0 0 0-7.318 3.185 5.124 5.124 0 0 1 2.479-.637h5.008L9.05 3.723H7.736c.927.531 1.42 1.626 1.42 2.832 0 1.107-.613 2-1.48 2.677-.845.66-1.005.937-1.005 1.499 0 .479 1.01 1.193 1.474 1.541 1.618 1.213 1.945 1.976 1.945 3.494 0 1.537-1.346 3.068-3.63 3.588 1.1.417 2.293.646 3.54.646 5.523 0 10-4.477 10-10S15.523 0 10 0zm5 7.5V10h-1.25V7.5h-2.5V6.25h2.5v-2.5H15v2.5h2.5V7.5H15zm-7.856-.87c.233 1.773-.544 2.914-1.893 2.874-1.35-.04-2.633-1.28-2.866-3.052-.233-1.773.672-3.13 2.022-3.09 1.35.041 2.504 1.496 2.737 3.268zm-2.83 5.91c-1.459 0-2.698.504-3.57 1.248A9.969 9.969 0 0 1 0 10c0-1.109.18-2.175.514-3.172.144 1.942 1.51 3.441 3.769 3.441.166 0 .327-.008.486-.02-.156.298-.266.63-.266.977 0 .585.322.919.72 1.306-.301 0-.592.008-.909.008z" fill="#ff2e2e" mask="url(#b)"/></g></svg>