<svg width="20" height="20" fill="none" xmlns="http://www.w3.org/2000/svg"><path d="M9.377 5.924L7.44 7.864c-.714.715-1.432 1.43-2.142 2.153-.167.171-.293.4-.342.625-.257 1.18-.506 2.36-.755 3.541l-.139.654a.932.932 0 0 0 .237.854.91.91 0 0 0 .644.261c.07 0 .14-.008.208-.02l.718-.152c1.142-.24 2.289-.486 3.43-.723a1.33 1.33 0 0 0 .682-.367c3.206-3.215 6.412-6.426 9.618-9.632a1.36 1.36 0 0 0 .4-.866.57.57 0 0 0-.013-.168c-.02-.081-.037-.167-.057-.249-.045-.208-.094-.445-.192-.674-.6-1.372-1.594-2.353-2.957-2.904-.273-.11-.563-.147-.816-.18L15.895.01c-.367-.045-.701.078-.991.372-1.836 1.846-3.683 3.696-5.527 5.543zM15.76.994h.02l.07.008c.212.024.408.049.563.114 1.11.45 1.925 1.25 2.419 2.377.057.131.094.299.13.474.013.066.029.13.041.196a.31.31 0 0 1-.102.176c-3.21 3.206-6.416 6.421-9.622 9.632a.322.322 0 0 1-.175.094c-1.146.24-2.288.482-3.435.723l-.603.126.114-.535c.249-1.176.498-2.357.75-3.533a.356.356 0 0 1 .078-.135c.71-.719 1.42-1.434 2.133-2.144l1.938-1.94c1.847-1.851 3.695-3.701 5.539-5.556.077-.065.114-.078.142-.078z" fill="#2252AC"/><path d="M1.587 4.453h7.121a.502.502 0 0 0 0-1.005H1.587A1.59 1.59 0 0 0 0 5.038V18.41A1.59 1.59 0 0 0 1.587 20h13.35a1.59 1.59 0 0 0 1.586-1.589v-6.842a.502.502 0 1 0-1.003 0v6.842a.59.59 0 0 1-.587.588H1.587a.59.59 0 0 1-.588-.588V5.041a.59.59 0 0 1 .588-.588z" fill="#2252AC"/></svg>