<svg width="21" height="12" xmlns="http://www.w3.org/2000/svg"><path d="M10.292 11.95h1.257s.38-.042.574-.251c.178-.192.172-.552.172-.552s-.024-1.687.759-1.936c.772-.245 1.763 1.63 2.813 2.352.795.545 1.398.426 1.398.426l2.81-.04s1.469-.09.772-1.245c-.057-.095-.406-.855-2.089-2.417-1.761-1.635-1.525-1.37.597-4.198 1.292-1.722 1.808-2.774 1.647-3.224C20.848.436 19.898.55 19.898.55l-3.163.02s-.235-.032-.409.072c-.17.102-.279.34-.279.34s-.5 1.332-1.168 2.465c-1.408 2.392-1.971 2.518-2.202 2.37-.535-.346-.401-1.39-.401-2.133 0-2.317.351-3.283-.685-3.534-.344-.083-.597-.137-1.476-.146C8.986-.01 8.03.006 7.49.27c-.36.176-.637.569-.468.591.21.028.683.128.934.47.324.44.312 1.43.312 1.43s.187 2.73-.435 3.068c-.426.232-1.01-.242-2.266-2.412-.644-1.111-1.13-2.34-1.13-2.34s-.093-.23-.26-.352C3.974.577 3.691.53 3.691.53L.686.55S.235.561.069.757c-.148.175-.012.536-.012.536s2.353 5.506 5.017 8.28c2.444 2.544 5.218 2.377 5.218 2.377" fill="#59759b" fill-rule="evenodd"/></svg>